<?xml version="1.0" encoding="UTF-8"?>
<!DOCTYPE svg PUBLIC "-//W3C//DTD SVG 1.1//EN" "http://www.w3.org/Graphics/SVG/1.1/DTD/svg11.dtd">
<svg xmlns="http://www.w3.org/2000/svg" version="1.1" width="815px" height="1745px" style="shape-rendering:geometricPrecision; text-rendering:geometricPrecision; image-rendering:optimizeQuality; fill-rule:evenodd; clip-rule:evenodd" xmlns:xlink="http://www.w3.org/1999/xlink">
<g><path style="opacity:1" fill="#fefefe" d="M -0.5,-0.5 C 271.167,-0.5 542.833,-0.5 814.5,-0.5C 814.5,581.167 814.5,1162.83 814.5,1744.5C 542.833,1744.5 271.167,1744.5 -0.5,1744.5C -0.5,1162.83 -0.5,581.167 -0.5,-0.5 Z"/></g>
<g><path style="opacity:1" fill="#070707" d="M 621.5,615.5 C 621.56,616.043 621.893,616.376 622.5,616.5C 623.386,615.675 623.719,614.675 623.5,613.5C 623.309,598.208 628.642,585.375 639.5,575C 644.745,571.938 650.412,570.272 656.5,570C 657.022,569.439 657.355,568.772 657.5,568C 652.698,561.513 649.198,554.347 647,546.5C 646.042,541.161 646.542,535.994 648.5,531C 643.49,525.604 642.324,519.437 645,512.5C 648.333,508.5 651.667,504.5 655,500.5C 656.552,498.232 657.385,495.732 657.5,493C 655.942,487.052 653.442,481.552 650,476.5C 648.574,471.243 649.741,466.743 653.5,463C 658.744,460.797 663.578,457.964 668,454.5C 669.701,452.1 670.534,449.433 670.5,446.5C 669.714,442.844 669.547,439.177 670,435.5C 673.374,432.595 676.374,432.928 679,436.5C 682.584,447.421 680.417,456.921 672.5,465C 667.804,467.01 663.471,469.51 659.5,472.5C 668.732,483.349 669.899,495.015 663,507.5C 659.643,511.356 656.476,515.356 653.5,519.5C 653.667,519.833 653.833,520.167 654,520.5C 662.531,510.309 672.198,508.976 683,516.5C 688.428,529.433 684.095,536.766 670,538.5C 666.261,538.219 662.595,537.552 659,536.5C 656.635,538.651 655.969,541.317 657,544.5C 660.397,551.626 664.063,558.626 668,565.5C 669.076,570.607 667.576,574.774 663.5,578C 658.683,579.964 653.683,581.298 648.5,582C 644.74,583.461 641.907,585.961 640,589.5C 633.826,604.892 631.492,620.892 633,637.5C 677.401,733.537 700.734,834.537 703,940.5C 703.704,979.508 703.37,1018.51 702,1057.5C 695.21,1276.66 685.21,1495.66 672,1714.5C 669,1718.5 666,1718.5 663,1714.5C 668.166,1604.17 673.5,1493.84 679,1383.5C 684.768,1250.37 689.601,1117.2 693.5,984C 693.76,924.344 688.593,865.177 678,806.5C 674.975,793.068 671.642,779.735 668,766.5C 653.49,742.979 632.99,727.479 606.5,720C 585.68,717.171 568.513,723.671 555,739.5C 552.796,742.23 551.463,745.23 551,748.5C 569.045,739.015 581.379,744.015 588,763.5C 590.775,781.024 583.942,792.858 567.5,799C 560.102,800.386 553.935,798.22 549,792.5C 545.479,787.458 542.479,782.125 540,776.5C 536.832,781.834 534.499,787.501 533,793.5C 531.113,806.813 529.446,820.147 528,833.5C 527.271,837.887 525.271,841.553 522,844.5C 520.46,862.413 512.96,877.247 499.5,889C 492.821,892.506 485.821,895.173 478.5,897C 466.836,903.665 458.336,913.165 453,925.5C 451.289,931.694 452.789,936.86 457.5,941C 463.531,944.016 469.531,947.016 475.5,950C 482.037,955.475 483.204,961.975 479,969.5C 474.967,973.868 470.634,977.868 466,981.5C 462.563,986.099 462.897,990.432 467,994.5C 484.266,1008.7 486.599,1025.03 474,1043.5C 472.974,1054.97 473.807,1066.31 476.5,1077.5C 475.526,1083.55 472.359,1084.88 467,1081.5C 463.528,1069.06 462.195,1056.39 463,1043.5C 466.16,1037.35 468.827,1031.02 471,1024.5C 471.667,1021.5 471.667,1018.5 471,1015.5C 466.711,1009.54 462.044,1003.88 457,998.5C 452.014,989.711 452.68,981.378 459,973.5C 463.648,970.019 467.815,966.019 471.5,961.5C 470.687,960.186 469.687,959.019 468.5,958C 459.955,955.148 452.455,950.648 446,944.5C 440.719,936.618 440.052,928.284 444,919.5C 450.752,905.081 461.252,894.247 475.5,887C 496.003,882.325 507.67,869.492 510.5,848.5C 495.519,846.691 486.353,838.358 483,823.5C 482.294,806.206 490.127,800.373 506.5,806C 512.768,810.69 516.935,816.857 519,824.5C 519.297,808.72 521.963,793.386 527,778.5C 529.919,772.323 533.586,766.656 538,761.5C 538.254,745.16 544.754,731.994 557.5,722C 582.936,704.664 608.936,703.998 635.5,720C 645.217,726.518 653.884,733.185 661.5,740C 637.122,661.74 600.788,589.907 552.5,524.5C 538.327,539.366 521.994,542.2 503.5,533C 498.325,528.657 493.325,524.157 488.5,519.5C 486.056,520.767 483.723,522.267 481.5,524C 462.843,547.597 451.343,574.43 447,604.5C 445.348,615.099 444.348,625.766 444,636.5C 441.339,639.966 438.339,640.299 435,637.5C 425.84,597.157 431.007,558.824 450.5,522.5C 450.167,522.167 449.833,521.833 449.5,521.5C 411.358,550.475 373.358,579.642 335.5,609C 321.744,618.88 307.078,627.213 291.5,634C 278.7,637.852 268.867,634.019 262,622.5C 255.395,611.018 251.395,598.685 250,585.5C 249.921,573.144 250.254,560.811 251,548.5C 250.058,545.007 248.725,541.674 247,538.5C 239.849,530.529 235.682,521.195 234.5,510.5C 211.36,520.119 187.36,526.619 162.5,530C 134.264,535.696 110.431,528.196 91,507.5C 86.6863,501.367 84.5196,494.533 84.5,487C 86.1724,479.59 86.6724,472.09 86,464.5C 85,462.5 84,460.5 83,458.5C 72.8883,450.068 65.555,439.735 61,427.5C 59.8888,417.61 60.8888,407.943 64,398.5C 65.9385,385.054 67.4385,371.554 68.5,358C 68.3286,339.81 64.8286,322.31 58,305.5C 51.3964,293.902 44.3964,282.569 37,271.5C 33.0297,259.679 29.6963,247.679 27,235.5C 12.6352,213.247 10.6352,189.913 21,165.5C 29.5848,150.947 42.4181,143.114 59.5,142C 84.4486,139.984 106.782,146.65 126.5,162C 138.985,168.788 152.318,172.788 166.5,174C 188.16,175.104 209.827,176.104 231.5,177C 264.334,180.17 295.501,189.003 325,203.5C 313.806,167.393 304.473,130.726 297,93.5C 286.287,59.4163 297.787,37.2497 331.5,27C 346.184,24.084 361.018,22.9173 376,23.5C 424.189,22.6667 471.689,27.8333 518.5,39C 554.847,48.083 586.347,65.583 613,91.5C 624.237,103.625 633.237,117.291 640,132.5C 646.066,151.728 644.066,170.061 634,187.5C 629.065,195.701 623.399,203.368 617,210.5C 592.29,236.555 565.79,260.388 537.5,282C 520.783,301.629 511.95,324.463 511,350.5C 510.333,358.5 510.333,366.5 511,374.5C 525.748,347.46 547.748,329.127 577,319.5C 582.089,319.927 583.756,322.594 582,327.5C 555.313,351.039 540.147,380.539 536.5,416C 536.833,418.5 537.167,421 537.5,423.5C 546.354,411.146 557.021,400.646 569.5,392C 581.927,384.858 595.26,382.524 609.5,385C 616.55,386.214 623.05,388.714 629,392.5C 630.041,395.636 629.207,398.136 626.5,400C 611.432,399.68 597.099,402.68 583.5,409C 577.763,412.281 573.263,416.781 570,422.5C 565.61,431.669 561.61,441.003 558,450.5C 555.818,454.01 553.651,457.51 551.5,461C 556.151,468.275 559.651,476.108 562,484.5C 562.667,491.167 562.667,497.833 562,504.5C 560.677,508.108 560.011,511.775 560,515.5C 583.131,547.15 603.631,580.483 621.5,615.5 Z"/></g>
<g><path style="opacity:1" fill="#fdfdfd" d="M 356.5,33.5 C 396.666,33.3796 436.666,35.8796 476.5,41C 515.131,46.0969 550.797,59.0969 583.5,80C 606.04,95.9267 622.207,116.76 632,142.5C 632.829,147.864 632.663,153.198 631.5,158.5C 611.023,148.13 589.356,143.63 566.5,145C 559.206,145.987 552.206,147.987 545.5,151C 535.5,156.667 525.5,162.333 515.5,168C 509.903,169.456 504.237,169.789 498.5,169C 492.221,165.054 486.221,160.721 480.5,156C 468.875,150.084 457.208,150.084 445.5,156C 441.5,156.667 437.5,156.667 433.5,156C 421.23,148.794 408.23,143.127 394.5,139C 389.748,136.252 385.581,132.752 382,128.5C 375.491,117.483 369.491,106.15 364,94.5C 351.612,74.7901 334.112,61.9567 311.5,56C 310.09,55.6322 309.09,54.7989 308.5,53.5C 315.03,44.7296 323.696,39.2296 334.5,37C 341.955,35.6755 349.288,34.5088 356.5,33.5 Z"/></g>
<g><path style="opacity:1" fill="#fefefe" d="M 500.5,360.5 C 499.833,363.833 499.167,367.167 498.5,370.5C 479.793,326.94 451.459,290.773 413.5,262C 389.625,243.476 364.791,226.31 339,210.5C 324.395,168.413 313.395,125.413 306,81.5C 305.501,76.1771 305.334,70.8437 305.5,65.5C 328.214,70.7226 345.381,83.3892 357,103.5C 361.333,112.167 365.667,120.833 370,129.5C 373.419,134.923 377.585,139.756 382.5,144C 399.835,150.891 416.835,158.558 433.5,167C 442.66,168.062 451.327,166.395 459.5,162C 464.363,161.191 469.03,161.858 473.5,164C 480.011,170.173 487.344,175.173 495.5,179C 506.032,181.818 516.032,180.485 525.5,175C 537.061,166.553 549.728,160.219 563.5,156C 587.273,153.525 609.606,158.191 630.5,170C 625.554,182.066 618.721,192.899 610,202.5C 585.29,228.555 558.79,252.388 530.5,274C 509.296,298.773 499.296,327.607 500.5,360.5 Z"/></g>
<g><path style="opacity:1" fill="#fdfdfd" d="M 56.5,152.5 C 72.9269,150.562 88.5936,153.062 103.5,160C 122.858,174.232 144.524,182.565 168.5,185C 195.935,185.065 223.268,186.731 250.5,190C 284.933,196.251 316.933,208.585 346.5,227C 359.11,235.278 371.444,243.944 383.5,253C 371.913,251.192 360.246,249.526 348.5,248C 321.406,245.644 294.739,247.977 268.5,255C 245.305,263.398 221.972,271.398 198.5,279C 179.817,282.929 162.15,280.262 145.5,271C 123.091,257.258 104.591,239.425 90,217.5C 76.7345,198.198 65.0679,177.865 55,156.5C 54.516,154.807 55.016,153.473 56.5,152.5 Z"/></g>
<g><path style="opacity:1" fill="#fdfdfd" d="M 42.5,157.5 C 52.039,174.901 61.8723,192.235 72,209.5C 85.2605,230.433 101.094,249.266 119.5,266C 133.809,277.987 150.142,285.987 168.5,290C 183.456,291.571 198.123,290.238 212.5,286C 232.037,278.599 251.704,271.599 271.5,265C 317.899,253.286 363.566,255.62 408.5,272C 451.605,305.117 481.438,347.617 498,399.5C 499.324,403.446 499.991,407.446 500,411.5C 467.99,377.747 430.824,351.247 388.5,332C 350.898,316.522 312.231,313.189 272.5,322C 240.461,331.236 222.294,352.403 218,385.5C 215.64,404.773 217.973,423.44 225,441.5C 230.222,451.943 234.889,462.609 239,473.5C 240.125,482.092 239.125,490.426 236,498.5C 211.463,509.01 185.963,516.177 159.5,520C 135.555,524.684 115.389,518.184 99,500.5C 97.6667,497.833 96.3333,495.167 95,492.5C 95.1734,485.123 96.0067,477.79 97.5,470.5C 97.5189,462.874 95.0189,456.207 90,450.5C 82.0632,444.244 76.0632,436.577 72,427.5C 71.1368,424.731 70.6368,421.898 70.5,419C 76.1842,394.14 78.6842,368.973 78,343.5C 76.5404,324.661 71.207,306.994 62,290.5C 56.6091,283.441 51.6091,276.107 47,268.5C 43.1145,257.408 40.1145,246.075 38,234.5C 32.8548,225.209 28.5215,215.542 25,205.5C 23.6654,190.835 26.6654,177.169 34,164.5C 36.6278,161.79 39.4611,159.456 42.5,157.5 Z"/></g>
<g><path style="opacity:1" fill="#fdfdfd" d="M 303.5,327.5 C 342.94,326.36 379.607,335.86 413.5,356C 447.85,376.665 478.35,402.165 505,432.5C 506.966,438.129 507.799,443.795 507.5,449.5C 461.148,419.831 411.148,411.664 357.5,425C 339.28,429.85 321.947,436.85 305.5,446C 301.5,449 301.5,452 305.5,455C 307.167,455.667 308.833,455.667 310.5,455C 368.248,423.312 426.915,421.312 486.5,449C 491.001,451.416 495.334,454.083 499.5,457C 455.087,447.62 412.753,453.454 372.5,474.5C 369.644,478.04 369.977,481.206 373.5,484C 374.833,484.667 376.167,484.667 377.5,484C 413.972,463.982 452.638,458.315 493.5,467C 503.03,469.399 512.363,472.399 521.5,476C 499.435,482.533 478.435,491.533 458.5,503C 442.149,513.842 426.149,525.175 410.5,537C 376.442,565.858 340.775,592.524 303.5,617C 296.932,620.952 289.932,623.785 282.5,625.5C 277.047,623.891 272.881,620.558 270,615.5C 263.335,603.173 260.169,590.007 260.5,576C 261.204,565.835 261.371,555.668 261,545.5C 256.527,535.221 251.527,525.221 246,515.5C 245.362,506.989 246.362,498.656 249,490.5C 249.667,483.833 249.667,477.167 249,470.5C 243.006,455.843 237.006,441.177 231,426.5C 228.513,412.282 227.846,397.949 229,383.5C 233.141,357.704 247.641,340.87 272.5,333C 282.816,330.259 293.149,328.426 303.5,327.5 Z"/></g>
<g><path style="opacity:1" fill="#f8f8f8" d="M 572.5,403.5 C 569.871,406.631 567.038,409.631 564,412.5C 557.487,424.863 551.487,437.53 546,450.5C 540.798,455.847 534.965,460.347 528.5,464C 524.911,464.092 522.744,462.259 522,458.5C 516.575,439.706 513.075,420.54 511.5,401C 518.357,377.145 531.857,357.978 552,343.5C 542.88,358.087 535.546,373.753 530,390.5C 526.79,401.631 525.457,412.964 526,424.5C 527.29,434.222 532.456,437.389 541.5,434C 549.5,425.333 557.5,416.667 565.5,408C 567.734,406.25 570.068,404.75 572.5,403.5 Z"/></g>
<g><path style="opacity:1" fill="#7e7e7e" d="M 500.5,360.5 C 500.666,364.846 500.499,369.179 500,373.5C 498.961,372.756 498.461,371.756 498.5,370.5C 499.167,367.167 499.833,363.833 500.5,360.5 Z"/></g>
<g><path style="opacity:1" fill="#7c7c7c" d="M 575.5,401.5 C 576.665,399.584 578.332,398.751 580.5,399C 579.09,400.372 577.423,401.205 575.5,401.5 Z"/></g>
<g><path style="opacity:1" fill="#8d8d8d" d="M 575.5,401.5 C 575.027,402.906 574.027,403.573 572.5,403.5C 572.973,402.094 573.973,401.427 575.5,401.5 Z"/></g>
<g><path style="opacity:1" fill="#fbfbfb" d="M 540.5,467.5 C 542.592,467.561 544.092,468.561 545,470.5C 555.9,488.301 554.733,505.134 541.5,521C 525.723,532.484 511.723,530.484 499.5,515C 502.653,510.528 505.153,505.694 507,500.5C 513.412,495.711 519.912,491.044 526.5,486.5C 529.505,482.494 532.005,478.16 534,473.5C 536.063,471.266 538.229,469.266 540.5,467.5 Z"/></g>
<g><path style="opacity:1" fill="#efefef" d="M 494.5,496.5 C 495.376,496.369 496.043,496.702 496.5,497.5C 495.195,500.053 494.195,502.72 493.5,505.5C 481.862,509.309 472.696,516.309 466,526.5C 457.138,539.892 450.138,554.225 445,569.5C 449.035,545.599 458.868,524.433 474.5,506C 481.136,502.513 487.803,499.346 494.5,496.5 Z"/></g>
<g><path style="opacity:1" fill="#ebebeb" d="M 667.5,522.5 C 669.833,522.5 672.167,522.5 674.5,522.5C 674.946,526.894 672.946,528.56 668.5,527.5C 662.419,527.272 662.086,525.605 667.5,522.5 Z"/></g>
<g><path style="opacity:1" fill="#787878" d="M 623.5,613.5 C 623.719,614.675 623.386,615.675 622.5,616.5C 621.893,616.376 621.56,616.043 621.5,615.5C 622.167,614.833 622.833,614.167 623.5,613.5 Z"/></g>
<g><path style="opacity:1" fill="#fafafa" d="M 562.5,753.5 C 572.517,754.522 577.851,760.189 578.5,770.5C 577.831,779.99 572.998,785.99 564,788.5C 561.186,788.592 558.853,787.592 557,785.5C 552.04,778.954 549.706,771.621 550,763.5C 553.598,759.306 557.765,755.972 562.5,753.5 Z"/></g>
<g><path style="opacity:1" fill="#f7f7f7" d="M 494.5,814.5 C 498.192,813.971 501.358,814.971 504,817.5C 508.266,823.465 510.433,830.132 510.5,837.5C 497.53,835.244 492.197,827.578 494.5,814.5 Z"/></g>
</svg>
