<?xml version="1.0" encoding="UTF-8"?>
<!DOCTYPE svg PUBLIC "-//W3C//DTD SVG 1.1//EN" "http://www.w3.org/Graphics/SVG/1.1/DTD/svg11.dtd">
<svg xmlns="http://www.w3.org/2000/svg" version="1.1" width="815px" height="1745px" style="shape-rendering:geometricPrecision; text-rendering:geometricPrecision; image-rendering:optimizeQuality; fill-rule:evenodd; clip-rule:evenodd" xmlns:xlink="http://www.w3.org/1999/xlink">
<g><path style="opacity:1" fill="#fefefe" d="M -0.5,-0.5 C 271.167,-0.5 542.833,-0.5 814.5,-0.5C 814.5,581.167 814.5,1162.83 814.5,1744.5C 542.833,1744.5 271.167,1744.5 -0.5,1744.5C -0.5,1162.83 -0.5,581.167 -0.5,-0.5 Z"/></g>
<g><path style="opacity:1" fill="#070707" d="M 190.5,613.5 C 190.281,614.675 190.614,615.675 191.5,616.5C 192.107,616.376 192.44,616.043 192.5,615.5C 210.369,580.483 230.869,547.15 254,515.5C 253.989,511.775 253.323,508.108 252,504.5C 250.157,492.607 251.824,481.273 257,470.5C 258.966,467.399 260.8,464.232 262.5,461C 260.349,457.51 258.182,454.01 256,450.5C 251.873,437.76 246.039,425.927 238.5,415C 229.754,407.965 219.754,403.632 208.5,402C 201.525,401.079 194.525,400.412 187.5,400C 182.915,394.943 183.915,391.277 190.5,389C 215.062,379.538 237.062,383.538 256.5,401C 263.352,408.351 270.019,415.851 276.5,423.5C 277.178,397.03 269.678,373.03 254,351.5C 247.404,342.9 240.07,334.9 232,327.5C 230.461,323.195 231.794,320.528 236,319.5C 265.701,328.851 288.034,347.185 303,374.5C 305.502,346.496 300.169,320.163 287,295.5C 283.882,290.714 280.382,286.214 276.5,282C 248.21,260.388 221.71,236.555 197,210.5C 185.601,198.375 177.268,184.375 172,168.5C 168.18,150.599 171.18,133.933 181,118.5C 196.032,93.2372 216.532,73.7372 242.5,60C 272.719,44.3719 304.719,34.3719 338.5,30C 384.39,23.6714 430.39,22.3381 476.5,26C 514.379,33.5964 527.879,56.0964 517,93.5C 509.525,130.734 500.192,167.401 489,203.5C 518.409,188.587 549.576,179.754 582.5,177C 603.178,176.166 623.845,175.166 644.5,174C 657.33,173.043 669.663,170.043 681.5,165C 691.243,158.933 701.243,153.266 711.5,148C 732.79,139.524 754.123,139.524 775.5,148C 783.333,151.833 789.167,157.667 793,165.5C 803.365,189.913 801.365,213.247 787,235.5C 784.304,247.679 780.97,259.679 777,271.5C 769.604,282.569 762.604,293.902 756,305.5C 749.171,322.31 745.671,339.81 745.5,358C 746.709,376.036 749.209,393.87 753,411.5C 755.202,422.887 752.868,433.22 746,442.5C 741.367,448.135 736.367,453.468 731,458.5C 730,460.5 729,462.5 728,464.5C 727.328,472.09 727.828,479.59 729.5,487C 729.48,494.533 727.314,501.367 723,507.5C 713.559,518.636 701.726,525.803 687.5,529C 649.862,532.707 613.862,526.541 579.5,510.5C 578.318,521.195 574.151,530.529 567,538.5C 565.275,541.674 563.942,545.007 563,548.5C 563.746,560.811 564.079,573.144 564,585.5C 562.728,603.006 556.228,618.173 544.5,631C 537.721,635.68 530.388,636.68 522.5,634C 506.922,627.213 492.256,618.88 478.5,609C 440.642,579.642 402.642,550.475 364.5,521.5C 364.167,521.833 363.833,522.167 363.5,522.5C 382.993,558.824 388.16,597.157 379,637.5C 375.661,640.299 372.661,639.966 370,636.5C 369.066,604.864 361.732,574.864 348,546.5C 343.45,538.565 338.284,531.065 332.5,524C 330.277,522.267 327.944,520.767 325.5,519.5C 320.675,524.157 315.675,528.657 310.5,533C 291.881,542.668 275.548,539.835 261.5,524.5C 213.212,589.907 176.878,661.74 152.5,740C 160.116,733.185 168.783,726.518 178.5,720C 209.172,702.331 237.672,705.165 264,728.5C 272.12,737.965 276.12,748.965 276,761.5C 283.362,769.889 288.362,779.556 291,790.5C 292.933,801.76 294.266,813.093 295,824.5C 297.206,815.972 302.04,809.472 309.5,805C 324.983,801.482 332.149,807.649 331,823.5C 327.664,838.34 318.497,846.673 303.5,848.5C 306.744,870.242 319.077,883.409 340.5,888C 360.255,898.385 370.755,914.551 372,936.5C 370.037,942.799 366.203,947.632 360.5,951C 355.5,953.333 350.5,955.667 345.5,958C 344.313,959.019 343.313,960.186 342.5,961.5C 346.185,966.019 350.352,970.019 355,973.5C 361.32,981.378 361.986,989.711 357,998.5C 351.956,1003.88 347.289,1009.54 343,1015.5C 342.333,1018.5 342.333,1021.5 343,1024.5C 345.173,1031.02 347.84,1037.35 351,1043.5C 351.805,1056.39 350.472,1069.06 347,1081.5C 341.641,1084.88 338.474,1083.55 337.5,1077.5C 340.193,1066.31 341.026,1054.97 340,1043.5C 327.401,1025.03 329.734,1008.7 347,994.5C 351.103,990.432 351.437,986.099 348,981.5C 341.956,977.124 336.956,971.79 333,965.5C 331.126,958.989 332.959,953.822 338.5,950C 344.377,946.815 350.377,943.815 356.5,941C 361.211,936.86 362.711,931.694 361,925.5C 353.514,907.674 340.348,896.841 321.5,893C 306.622,884.766 297.456,872.266 294,855.5C 294.353,849.22 292.353,843.886 288,839.5C 287.333,837.5 286.667,835.5 286,833.5C 284.554,820.147 282.887,806.813 281,793.5C 279.501,787.501 277.168,781.834 274,776.5C 271.521,782.125 268.521,787.458 265,792.5C 257.916,799.807 249.749,801.307 240.5,797C 224.269,785.006 221.103,770.172 231,752.5C 240.497,742.06 251.164,740.727 263,748.5C 261.289,742.602 258.122,737.436 253.5,733C 232.894,717.24 210.894,715.24 187.5,727C 170.428,736.738 156.595,749.904 146,766.5C 138.189,793.359 132.522,820.692 129,848.5C 123.678,893.507 120.845,938.673 120.5,984C 127.521,1224.31 137.854,1464.48 151.5,1704.5C 151.333,1707.83 151.167,1711.17 151,1714.5C 148,1718.5 145,1718.5 142,1714.5C 128.79,1495.66 118.79,1276.66 112,1057.5C 107.134,977.746 110.801,898.412 123,819.5C 134.311,756.235 153.644,695.568 181,637.5C 182.508,620.892 180.174,604.892 174,589.5C 169.058,582.57 162.224,579.403 153.5,580C 147.205,577.106 144.705,572.273 146,565.5C 149.937,558.626 153.603,551.626 157,544.5C 157.711,542.101 157.544,539.768 156.5,537.5C 155.667,537.167 154.833,536.833 154,536.5C 144.737,540.404 136.737,538.738 130,531.5C 126.528,516.962 132.362,510.462 147.5,512C 152.214,514.051 156.381,516.885 160,520.5C 160.167,520.167 160.333,519.833 160.5,519.5C 157.524,515.356 154.357,511.356 151,507.5C 144.101,495.015 145.268,483.349 154.5,472.5C 150.383,469.728 146.049,467.228 141.5,465C 133.583,456.921 131.416,447.421 135,436.5C 137.626,432.928 140.626,432.595 144,435.5C 144.453,439.177 144.286,442.844 143.5,446.5C 143.466,449.433 144.299,452.1 146,454.5C 150.422,457.964 155.256,460.797 160.5,463C 164.259,466.743 165.426,471.243 164,476.5C 160.558,481.552 158.058,487.052 156.5,493C 156.615,495.732 157.448,498.232 159,500.5C 162.333,504.5 165.667,508.5 169,512.5C 171.676,519.437 170.51,525.604 165.5,531C 168.35,539.317 167.85,547.484 164,555.5C 161.116,559.434 158.616,563.601 156.5,568C 156.645,568.772 156.978,569.439 157.5,570C 174.233,571.282 184.4,580.116 188,596.5C 189.89,602.015 190.724,607.681 190.5,613.5 Z"/></g>
<g><path style="opacity:1" fill="#fdfdfd" d="M 418.5,33.5 C 438.629,32.6952 458.629,33.8618 478.5,37C 489.732,38.9447 498.732,44.4447 505.5,53.5C 495.199,57.4825 485.199,62.3158 475.5,68C 465.29,75.2096 456.79,84.043 450,94.5C 444.922,104.99 439.589,115.323 434,125.5C 431.203,129.299 428.036,132.799 424.5,136C 409.294,141.512 394.627,148.178 380.5,156C 372.324,157.45 364.657,156.117 357.5,152C 343.44,149.863 331.773,154.196 322.5,165C 315.778,169.25 308.445,170.583 300.5,169C 288.993,162.412 277.326,156.079 265.5,150C 243.43,142.538 221.43,142.871 199.5,151C 193.833,153.5 188.167,156 182.5,158.5C 181.169,151.792 181.336,145.125 183,138.5C 195.822,109.035 216.322,86.5353 244.5,71C 280.214,52.2367 318.214,41.2367 358.5,38C 378.624,36.0976 398.624,34.5976 418.5,33.5 Z"/></g>
<g><path style="opacity:1" fill="#fefefe" d="M 315.5,370.5 C 314.833,367.167 314.167,363.833 313.5,360.5C 314.704,327.607 304.704,298.773 283.5,274C 249.852,249.357 219.685,220.857 193,188.5C 189.435,182.537 186.268,176.37 183.5,170C 202.345,158.915 222.678,153.915 244.5,155C 250.589,156.355 256.589,158.022 262.5,160C 272.757,165.266 282.757,170.933 292.5,177C 305.57,182.55 317.903,181.216 329.5,173C 334.03,168.132 339.363,164.465 345.5,162C 348.5,161.333 351.5,161.333 354.5,162C 358.833,163.667 363.167,165.333 367.5,167C 372.572,167.751 377.572,167.418 382.5,166C 398.594,158.082 414.927,150.749 431.5,144C 436.415,139.756 440.581,134.923 444,129.5C 449.985,116.19 456.985,103.523 465,91.5C 476.652,78.09 491.152,69.4233 508.5,65.5C 507.809,85.4582 504.976,105.125 500,124.5C 492.91,153.528 484.576,182.195 475,210.5C 433.575,235.242 395.575,264.575 361,298.5C 342.048,320.061 326.882,344.061 315.5,370.5 Z"/></g>
<g><path style="opacity:1" fill="#fdfdfd" d="M 731.5,152.5 C 740.861,152.313 750.195,152.646 759.5,153.5C 743.677,190.812 721.677,223.978 693.5,253C 679.812,265.845 663.812,274.512 645.5,279C 632.372,281.189 619.372,280.522 606.5,277C 589.243,270.47 571.91,264.137 554.5,258C 513.545,245.853 472.212,244.186 430.5,253C 457.002,231.851 486.002,214.851 517.5,202C 540.581,194.184 564.247,189.184 588.5,187C 609.844,186.177 631.177,185.177 652.5,184C 674.586,180.531 694.586,172.198 712.5,159C 718.708,156.098 725.041,153.932 731.5,152.5 Z"/></g>
<g><path style="opacity:1" fill="#fdfdfd" d="M 769.5,157.5 C 777.155,160.323 782.321,165.656 785,173.5C 788.678,183.886 790.011,194.553 789,205.5C 785.479,215.542 781.145,225.209 776,234.5C 773.885,246.075 770.885,257.408 767,268.5C 762.391,276.107 757.391,283.441 752,290.5C 738.433,315.118 733.1,341.452 736,369.5C 737.471,386.16 739.971,402.66 743.5,419C 743.258,425.06 741.425,430.56 738,435.5C 733.7,440.801 729.034,445.801 724,450.5C 718.981,456.207 716.481,462.874 716.5,470.5C 717.993,477.79 718.827,485.123 719,492.5C 711.952,506.452 700.786,515.285 685.5,519C 647.874,521.808 612.04,514.975 578,498.5C 574.875,490.426 573.875,482.092 575,473.5C 579.111,462.609 583.778,451.943 589,441.5C 598.956,414.469 598.956,387.469 589,360.5C 579.306,341.482 564.139,328.982 543.5,323C 505.089,313.766 467.423,316.099 430.5,330C 385.903,348.931 347.069,376.098 314,411.5C 317.605,391.024 324.605,371.691 335,353.5C 353.07,321.754 376.57,294.587 405.5,272C 451.201,255.233 497.534,253.233 544.5,266C 565.586,273.14 586.586,280.473 607.5,288C 640.137,294.924 669.137,287.591 694.5,266C 712.906,249.266 728.74,230.433 742,209.5C 752.481,192.873 761.647,175.539 769.5,157.5 Z"/></g>
<g><path style="opacity:1" fill="#fdfdfd" d="M 483.5,327.5 C 498.57,327.114 513.57,327.947 528.5,330C 560.021,334.523 578.854,352.356 585,383.5C 586.154,397.949 585.487,412.282 583,426.5C 576.994,441.177 570.994,455.843 565,470.5C 563.81,482.034 564.81,493.367 568,504.5C 568.667,508.167 568.667,511.833 568,515.5C 562.473,525.221 557.473,535.221 553,545.5C 552.629,555.668 552.796,565.835 553.5,576C 554.293,593.859 548.96,609.526 537.5,623C 532.631,626.041 527.631,626.041 522.5,623C 509.671,616.422 497.338,609.089 485.5,601C 457.594,580.43 430.26,559.097 403.5,537C 387.851,525.175 371.851,513.842 355.5,503C 346.729,497.896 337.729,493.229 328.5,489C 316.39,484.853 304.39,480.52 292.5,476C 335.134,459.396 377.8,459.396 420.5,476C 426.112,478.139 431.446,480.806 436.5,484C 440.747,485.042 443.08,483.375 443.5,479C 443.507,477.188 442.84,475.688 441.5,474.5C 401.228,453.452 358.895,447.619 314.5,457C 355.83,430.664 400.497,422.997 448.5,434C 467.721,438.63 486.055,445.63 503.5,455C 507.731,456.267 510.398,454.767 511.5,450.5C 511.124,448.617 510.124,447.117 508.5,446C 453.058,415.582 395.725,411.249 336.5,433C 326.018,437.738 316.018,443.238 306.5,449.5C 306.201,443.795 307.034,438.129 309,432.5C 343.728,392.423 385.228,361.59 433.5,340C 449.758,333.602 466.425,329.435 483.5,327.5 Z"/></g>
<g><path style="opacity:1" fill="#f8f8f8" d="M 248.5,410.5 C 248.5,409.833 248.833,409.5 249.5,409.5C 257.266,417.497 264.933,425.664 272.5,434C 281.544,437.389 286.71,434.222 288,424.5C 287.871,394.947 279.038,368.28 261.5,344.5C 261.667,344.167 261.833,343.833 262,343.5C 282.831,358.159 296.331,377.826 302.5,402.5C 300.819,423.074 296.652,443.074 290,462.5C 288.663,463.765 287.163,464.265 285.5,464C 279.096,460.265 273.263,455.765 268,450.5C 263.449,441.399 259.449,432.065 256,422.5C 253.739,418.304 251.239,414.304 248.5,410.5 Z"/></g>
<g><path style="opacity:1" fill="#7e7e7e" d="M 313.5,360.5 C 314.167,363.833 314.833,367.167 315.5,370.5C 315.539,371.756 315.039,372.756 314,373.5C 313.501,369.179 313.334,364.846 313.5,360.5 Z"/></g>
<g><path style="opacity:1" fill="#818181" d="M 238.5,401.5 C 237.244,401.539 236.244,401.039 235.5,400C 236.998,399.415 237.998,399.915 238.5,401.5 Z"/></g>
<g><path style="opacity:1" fill="#979797" d="M 238.5,401.5 C 240.027,401.427 241.027,402.094 241.5,403.5C 239.973,403.573 238.973,402.906 238.5,401.5 Z"/></g>
<g><path style="opacity:1" fill="#a7a7a7" d="M 241.5,403.5 C 244.533,405.016 247.2,407.016 249.5,409.5C 248.833,409.5 248.5,409.833 248.5,410.5C 245.833,408.5 243.5,406.167 241.5,403.5 Z"/></g>
<g><path style="opacity:1" fill="#fbfbfb" d="M 270.5,467.5 C 274.324,468.335 277.49,470.335 280,473.5C 281.995,478.16 284.495,482.494 287.5,486.5C 294.088,491.044 300.588,495.711 307,500.5C 308.847,505.694 311.347,510.528 314.5,515C 298.314,533.081 282.481,532.914 267,514.5C 261.111,503.608 260.111,492.274 264,480.5C 266.193,476.114 268.36,471.78 270.5,467.5 Z"/></g>
<g><path style="opacity:1" fill="#efefef" d="M 368.5,565.5 C 368.5,566.167 368.167,566.5 367.5,566.5C 361.159,545.366 350.159,527.2 334.5,512C 330.207,510.069 325.874,508.236 321.5,506.5C 319.836,502.773 318.336,499.106 317,495.5C 324.568,498.803 332.068,502.303 339.5,506C 354.079,523.327 363.746,543.16 368.5,565.5 Z"/></g>
<g><path style="opacity:1" fill="#ececec" d="M 139.5,522.5 C 144.06,521.658 147.727,522.991 150.5,526.5C 147.216,527.657 143.882,527.824 140.5,527C 139.62,525.644 139.286,524.144 139.5,522.5 Z"/></g>
<g><path style="opacity:1" fill="#6a6a6a" d="M 368.5,565.5 C 369.775,567.608 370.275,569.942 370,572.5C 369.062,570.512 368.228,568.512 367.5,566.5C 368.167,566.5 368.5,566.167 368.5,565.5 Z"/></g>
<g><path style="opacity:1" fill="#787878" d="M 190.5,613.5 C 191.167,614.167 191.833,614.833 192.5,615.5C 192.44,616.043 192.107,616.376 191.5,616.5C 190.614,615.675 190.281,614.675 190.5,613.5 Z"/></g>
<g><path style="opacity:1" fill="#fafafa" d="M 245.5,753.5 C 253.148,753.959 259.315,757.292 264,763.5C 264.457,773.415 260.957,781.581 253.5,788C 244.324,788.188 238.49,783.688 236,774.5C 234.846,765.479 238.012,758.479 245.5,753.5 Z"/></g>
<g><path style="opacity:1" fill="#f7f7f7" d="M 313.5,814.5 C 315.792,814.244 317.959,814.577 320,815.5C 321.425,828.22 315.925,835.554 303.5,837.5C 303.376,828.167 306.709,820.5 313.5,814.5 Z"/></g>
</svg>
