<?xml version="1.0" encoding="UTF-8"?>
<!DOCTYPE svg PUBLIC "-//W3C//DTD SVG 1.1//EN" "http://www.w3.org/Graphics/SVG/1.1/DTD/svg11.dtd">
<svg xmlns="http://www.w3.org/2000/svg" version="1.1" width="980px" height="1809px" style="shape-rendering:geometricPrecision; text-rendering:geometricPrecision; image-rendering:optimizeQuality; fill-rule:evenodd; clip-rule:evenodd" xmlns:xlink="http://www.w3.org/1999/xlink">
<g><path style="opacity:1" fill="#fefefe" d="M -0.5,-0.5 C 326.167,-0.5 652.833,-0.5 979.5,-0.5C 979.5,602.5 979.5,1205.5 979.5,1808.5C 652.833,1808.5 326.167,1808.5 -0.5,1808.5C -0.5,1205.5 -0.5,602.5 -0.5,-0.5 Z"/></g>
<g><path style="opacity:1" fill="#a9a9a9" d="M 402.5,39.5 C 396.833,39.5 391.167,39.5 385.5,39.5C 387.915,38.1858 390.748,37.5191 394,37.5C 397.252,37.5191 400.085,38.1858 402.5,39.5 Z"/></g>
<g><path style="opacity:1" fill="#575757" d="M 377.5,39.5 C 376.082,41.3079 374.082,41.9746 371.5,41.5C 372.918,39.6921 374.918,39.0254 377.5,39.5 Z"/></g>
<g><path style="opacity:1" fill="#070708" d="M 377.5,39.5 C 380.167,39.5 382.833,39.5 385.5,39.5C 391.167,39.5 396.833,39.5 402.5,39.5C 407.167,39.5 411.833,39.5 416.5,39.5C 417.183,41.1765 418.517,41.8432 420.5,41.5C 424.226,41.1774 427.893,41.5108 431.5,42.5C 446.542,45.9716 461.542,49.6383 476.5,53.5C 489.441,57.7027 502.441,61.7027 515.5,65.5C 519.5,67.5 523.5,69.5 527.5,71.5C 530.604,78.9257 533.937,86.2591 537.5,93.5C 539.167,95.1667 540.833,96.8333 542.5,98.5C 558.643,104.648 572.643,113.981 584.5,126.5C 587.167,131.833 589.833,137.167 592.5,142.5C 594.311,146.669 595.311,151.002 595.5,155.5C 595.157,157.483 595.824,158.817 597.5,159.5C 597.5,162.167 597.5,164.833 597.5,167.5C 597.5,173.5 597.5,179.5 597.5,185.5C 596.704,191.817 596.037,198.15 595.5,204.5C 593.523,193.884 592.856,182.884 593.5,171.5C 594.036,168.302 593.369,165.635 591.5,163.5C 590.204,146.91 583.538,132.91 571.5,121.5C 563.007,115.75 554.007,110.75 544.5,106.5C 538.918,104.416 533.251,102.749 527.5,101.5C 526.414,101.62 525.747,102.287 525.5,103.5C 525.747,104.713 526.414,105.38 527.5,105.5C 528.718,114.48 529.718,123.48 530.5,132.5C 530.157,134.483 530.824,135.817 532.5,136.5C 532.5,141.167 532.5,145.833 532.5,150.5C 532.077,152.781 532.744,154.448 534.5,155.5C 534.977,171.916 534.31,188.25 532.5,204.5C 530.631,206.635 529.964,209.302 530.5,212.5C 529.279,225.07 526.945,237.403 523.5,249.5C 521.5,249.5 519.5,249.5 517.5,249.5C 518.208,241.714 519.541,234.048 521.5,226.5C 523.176,225.817 523.843,224.483 523.5,222.5C 523.5,219.833 523.5,217.167 523.5,214.5C 525.176,213.817 525.843,212.483 525.5,210.5C 527.3,189.897 527.967,169.23 527.5,148.5C 528.036,145.302 527.369,142.635 525.5,140.5C 524.855,132.804 523.855,125.138 522.5,117.5C 519.953,110.194 517.62,102.861 515.5,95.5C 516.349,90.3754 517.683,85.3754 519.5,80.5C 519.442,77.4413 518.109,75.108 515.5,73.5C 492.167,66.8333 468.833,60.1667 445.5,53.5C 442.833,52.1667 440.167,52.1667 437.5,53.5C 444.86,67.2247 450.86,81.5581 455.5,96.5C 456.162,99.4682 456.495,102.468 456.5,105.5C 456.157,107.483 456.824,108.817 458.5,109.5C 458.69,113.923 459.357,118.256 460.5,122.5C 460.157,124.483 460.824,125.817 462.5,126.5C 462.5,129.833 462.5,133.167 462.5,136.5C 462.025,139.082 462.692,141.082 464.5,142.5C 464.5,146.833 464.5,151.167 464.5,155.5C 464.5,158.167 464.5,160.833 464.5,163.5C 463.964,166.698 464.631,169.365 466.5,171.5C 466.832,181.855 466.499,192.188 465.5,202.5C 463.477,204.173 461.144,204.84 458.5,204.5C 458.5,187.833 458.5,171.167 458.5,154.5C 459.036,151.302 458.369,148.635 456.5,146.5C 456.357,136.066 455.357,125.733 453.5,115.5C 453.843,113.517 453.176,112.183 451.5,111.5C 446.87,96.4195 441.87,81.4195 436.5,66.5C 433.09,62.3467 430.757,57.6801 429.5,52.5C 426.446,52.2955 423.946,50.9622 422,48.5C 419.566,47.6777 417.066,47.3444 414.5,47.5C 408.705,46.1704 402.538,45.5038 396,45.5C 389.462,45.5038 383.295,46.1704 377.5,47.5C 359.11,48.2534 341.443,52.2534 324.5,59.5C 321.914,60.48 319.247,60.8134 316.5,60.5C 316.649,64.3218 318.649,66.6551 322.5,67.5C 328.531,73.8655 334.864,79.8655 341.5,85.5C 349.391,97.6168 355.391,110.617 359.5,124.5C 358.167,124.5 356.833,124.5 355.5,124.5C 352.377,116.143 349.044,107.809 345.5,99.5C 335.898,85.8984 324.232,74.2318 310.5,64.5C 305.245,67.7511 300.578,71.7511 296.5,76.5C 289.529,85.4773 282.529,94.4773 275.5,103.5C 274.167,106.167 272.833,108.833 271.5,111.5C 270.503,118.468 270.17,125.468 270.5,132.5C 270.025,135.082 270.692,137.082 272.5,138.5C 274.082,149.709 276.415,160.709 279.5,171.5C 279.025,174.082 279.692,176.082 281.5,177.5C 289.338,192.173 297.005,207.173 304.5,222.5C 307.416,226.004 310.083,229.671 312.5,233.5C 314.026,236.654 314.693,239.987 314.5,243.5C 312.857,243.52 311.524,242.853 310.5,241.5C 301.157,224.811 291.823,208.144 282.5,191.5C 280.054,184.607 277.054,177.94 273.5,171.5C 271.985,163.5 269.652,155.833 266.5,148.5C 265.022,148.238 263.689,148.571 262.5,149.5C 256.521,156.48 250.188,163.146 243.5,169.5C 241.185,174.13 238.851,178.797 236.5,183.5C 235.076,207.923 239.409,231.256 249.5,253.5C 252.237,258.269 255.57,262.603 259.5,266.5C 260.429,267.689 260.762,269.022 260.5,270.5C 261.833,270.5 263.167,270.5 264.5,270.5C 264.5,274.5 266.5,276.5 270.5,276.5C 270.238,277.978 270.571,279.311 271.5,280.5C 278.156,287.823 284.822,295.157 291.5,302.5C 290.833,302.833 290.167,303.167 289.5,303.5C 270.704,289.707 255.038,273.04 242.5,253.5C 238.034,241.104 233.368,228.771 228.5,216.5C 225.5,213.5 222.5,210.5 219.5,207.5C 216.45,205.483 213.117,204.483 209.5,204.5C 206.062,203.177 202.229,202.51 198,202.5C 193.771,202.51 189.938,203.177 186.5,204.5C 181.5,204.5 176.5,204.5 171.5,204.5C 171.357,206.262 171.691,207.929 172.5,209.5C 177.167,212.833 181.833,216.167 186.5,219.5C 189.677,223.688 193.677,226.688 198.5,228.5C 200.5,230.5 202.5,232.5 204.5,234.5C 202.95,236.959 200.95,237.626 198.5,236.5C 189.057,229.937 179.391,223.604 169.5,217.5C 166.45,215.483 163.117,214.483 159.5,214.5C 158.306,213.223 156.64,212.556 154.5,212.5C 152.36,212.556 150.694,213.223 149.5,214.5C 144.467,215.011 139.801,216.677 135.5,219.5C 126.618,226.374 118.285,234.04 110.5,242.5C 109.311,243.429 107.978,243.762 106.5,243.5C 105.356,247.011 103.689,250.344 101.5,253.5C 101.167,256.333 100.833,259.167 100.5,262C 101.699,268.884 103.032,275.717 104.5,282.5C 115.587,285.751 126.587,289.418 137.5,293.5C 140.32,296.243 143.653,297.91 147.5,298.5C 147.5,299.5 147.5,300.5 147.5,301.5C 132.619,296.231 117.619,291.231 102.5,286.5C 100.747,292.687 99.7468,299.021 99.5,305.5C 98.4138,305.62 97.7472,306.287 97.5,307.5C 97.7472,308.713 98.4138,309.38 99.5,309.5C 101.456,311.148 103.789,311.815 106.5,311.5C 106.5,312.833 106.5,314.167 106.5,315.5C 96.5321,316.816 87.8654,320.816 80.5,327.5C 77.8938,333.539 76.8938,339.873 77.5,346.5C 77.1568,348.483 77.8235,349.817 79.5,350.5C 80.8333,354.5 82.1667,358.5 83.5,362.5C 84.8333,362.5 86.1667,362.5 87.5,362.5C 87.5,363.833 87.5,365.167 87.5,366.5C 90.2314,367.027 92.8981,367.86 95.5,369C 91.3702,371.235 87.3702,373.735 83.5,376.5C 86.5017,379.003 89.8351,381.003 93.5,382.5C 90.925,385.319 88.5917,388.319 86.5,391.5C 85.5344,393.396 85.2011,395.396 85.5,397.5C 84.2521,398.334 83.5854,399.667 83.5,401.5C 83.5854,403.333 84.2521,404.666 85.5,405.5C 86.5596,411.24 89.893,415.24 95.5,417.5C 99,417.833 102.5,418.167 106,418.5C 112.853,417.863 119.686,417.197 126.5,416.5C 130.012,417.055 133.012,416.388 135.5,414.5C 153.303,411.922 170.97,408.588 188.5,404.5C 204.379,400.061 218.712,392.728 231.5,382.5C 239.167,378.5 246.833,378.5 254.5,382.5C 259.223,385.521 263.89,388.521 268.5,391.5C 268.62,392.586 269.287,393.253 270.5,393.5C 271.713,393.253 272.38,392.586 272.5,391.5C 272.5,387.5 272.5,383.5 272.5,379.5C 273.693,379.03 274.36,378.03 274.5,376.5C 274.36,374.97 273.693,373.97 272.5,373.5C 272.762,372.022 272.429,370.689 271.5,369.5C 268.872,367.874 266.539,365.874 264.5,363.5C 261.268,362.27 258.601,360.27 256.5,357.5C 250.557,355.409 244.891,352.742 239.5,349.5C 237.995,348.158 237.328,346.492 237.5,344.5C 244.324,347.741 251.324,350.741 258.5,353.5C 263.755,356.751 268.422,360.751 272.5,365.5C 273.689,366.429 275.022,366.762 276.5,366.5C 276.5,361.833 276.5,357.167 276.5,352.5C 275.022,352.762 273.689,352.429 272.5,351.5C 265.833,346.167 259.167,340.833 252.5,335.5C 249.239,334.289 245.905,333.289 242.5,332.5C 241.691,330.929 241.357,329.262 241.5,327.5C 253.78,330.153 264.113,336.153 272.5,345.5C 275.547,347.244 278.547,348.911 281.5,350.5C 281.5,349.167 281.5,347.833 281.5,346.5C 285.5,346.5 289.5,346.5 293.5,346.5C 293.762,345.022 293.429,343.689 292.5,342.5C 285.244,335.925 279.578,328.258 275.5,319.5C 272.833,316.833 270.167,314.167 267.5,311.5C 266.571,310.311 266.238,308.978 266.5,307.5C 267.978,307.238 269.311,307.571 270.5,308.5C 273.167,311.167 275.833,313.833 278.5,316.5C 280.733,321.074 283.4,325.407 286.5,329.5C 288.871,332.206 291.537,334.539 294.5,336.5C 298.103,327.895 304.436,322.562 313.5,320.5C 314.79,318.208 316.457,316.208 318.5,314.5C 325.72,310.612 332.386,305.945 338.5,300.5C 343.868,298.983 348.868,296.65 353.5,293.5C 370.453,287.514 387.453,281.848 404.5,276.5C 406.483,276.843 407.817,276.176 408.5,274.5C 412.629,274.874 416.629,275.874 420.5,277.5C 423.086,279.814 425.752,282.147 428.5,284.5C 429.466,286.396 429.799,288.396 429.5,290.5C 434.811,289.184 440.144,287.851 445.5,286.5C 450.646,286.406 454.646,288.406 457.5,292.5C 460.596,297.389 462.929,302.389 464.5,307.5C 465.918,309.308 467.918,309.975 470.5,309.5C 474.242,310.218 477.242,312.218 479.5,315.5C 482.833,321.5 486.167,327.5 489.5,333.5C 491.167,332.167 492.833,330.833 494.5,329.5C 499.167,323.5 503.833,317.5 508.5,311.5C 512.866,306.799 517.533,302.466 522.5,298.5C 525.27,294.736 527.603,290.736 529.5,286.5C 530.842,284.995 532.508,284.328 534.5,284.5C 533.141,289.55 530.975,294.217 528,298.5C 523.34,303.998 518.84,309.665 514.5,315.5C 502.379,326.948 491.046,338.948 480.5,351.5C 481.921,354.009 483.588,356.343 485.5,358.5C 486.429,359.689 486.762,361.022 486.5,362.5C 487.978,362.762 489.311,362.429 490.5,361.5C 495.467,355.531 500.801,349.865 506.5,344.5C 507.167,343.167 507.833,341.833 508.5,340.5C 518.5,331.833 527.833,322.5 536.5,312.5C 542.66,307.92 548.993,303.586 555.5,299.5C 558.084,298.607 560.751,298.274 563.5,298.5C 563.5,299.5 563.5,300.5 563.5,301.5C 561.712,301.215 560.045,301.548 558.5,302.5C 549.761,308.214 541.761,314.88 534.5,322.5C 533.311,323.429 531.978,323.762 530.5,323.5C 530.334,326.168 529.334,328.502 527.5,330.5C 520.197,336.802 513.197,343.468 506.5,350.5C 505.571,351.689 505.238,353.022 505.5,354.5C 504.022,354.238 502.689,354.571 501.5,355.5C 499.593,359.41 496.927,362.744 493.5,365.5C 494.5,365.833 495.5,366.167 496.5,366.5C 515.625,359.581 533.625,350.581 550.5,339.5C 559.939,331.395 567.939,322.061 574.5,311.5C 575.688,306.79 577.688,302.456 580.5,298.5C 582.5,292.5 584.5,286.5 586.5,280.5C 587.493,275.88 587.827,271.214 587.5,266.5C 589.176,265.817 589.843,264.483 589.5,262.5C 589.5,244.5 589.5,226.5 589.5,208.5C 591.436,212.715 592.103,217.381 591.5,222.5C 590.945,226.012 591.612,229.012 593.5,231.5C 593.172,236.875 593.505,242.208 594.5,247.5C 597.538,244.797 600.205,241.797 602.5,238.5C 603.689,237.571 605.022,237.238 606.5,237.5C 606.5,236.167 606.5,234.833 606.5,233.5C 607.978,233.762 609.311,233.429 610.5,232.5C 617.392,226.387 625.392,222.387 634.5,220.5C 638.167,220.5 641.833,220.5 645.5,220.5C 648.247,220.187 650.914,220.52 653.5,221.5C 658.609,224.389 663.943,226.722 669.5,228.5C 676.083,234.079 682.416,240.079 688.5,246.5C 693.42,249.416 697.753,253.082 701.5,257.5C 702.429,258.689 702.762,260.022 702.5,261.5C 702.5,265.833 702.5,270.167 702.5,274.5C 702.93,286.73 700.597,298.397 695.5,309.5C 691.029,312.905 686.029,314.905 680.5,315.5C 677.302,314.964 674.635,315.631 672.5,317.5C 670.554,318.035 669.554,319.368 669.5,321.5C 668.191,323.571 667.525,326.071 667.5,329C 667.525,331.929 668.191,334.429 669.5,336.5C 669.5,341.167 669.5,345.833 669.5,350.5C 667.824,351.183 667.157,352.517 667.5,354.5C 667.454,359.353 666.454,364.02 664.5,368.5C 662.24,372.02 660.24,375.687 658.5,379.5C 650.206,389.795 641.206,399.462 631.5,408.5C 623.929,419.975 618.262,432.308 614.5,445.5C 612.824,446.183 612.157,447.517 612.5,449.5C 608.817,461.548 604.15,473.214 598.5,484.5C 595.328,488.841 592.661,493.508 590.5,498.5C 580.556,509.114 570.556,519.781 560.5,530.5C 555.167,534.5 549.833,538.5 544.5,542.5C 538.07,546.021 531.737,549.688 525.5,553.5C 521.686,555.744 517.686,557.411 513.5,558.5C 511.517,558.157 510.183,558.824 509.5,560.5C 500.346,561.864 491.346,563.864 482.5,566.5C 482.34,568.199 482.506,569.866 483,571.5C 503.707,619.954 521.041,669.621 535,720.5C 536,723.64 538.167,724.973 541.5,724.5C 541.334,714.161 541.5,703.828 542,693.5C 544.667,692.167 547.333,692.167 550,693.5C 550.333,718.167 550.667,742.833 551,767.5C 552.24,776.514 553.573,785.514 555,794.5C 570.616,861.632 585.283,928.965 599,996.5C 600.575,1005.44 601.575,1014.44 602,1023.5C 604.254,1027.01 606.254,1030.67 608,1034.5C 625.651,999.198 643.318,963.864 661,928.5C 680.674,890.53 702.341,853.864 726,818.5C 735.576,806.346 744.91,794.013 754,781.5C 756.123,775.054 755.789,768.72 753,762.5C 751.993,757.889 752.66,753.555 755,749.5C 761.708,744.459 767.375,738.459 772,731.5C 772.667,728.833 772.667,726.167 772,723.5C 767.857,712.264 767.523,700.931 771,689.5C 779.017,668.822 791.017,650.822 807,635.5C 807.667,634.167 808.333,632.833 809,631.5C 807.419,623.293 806.752,614.96 807,606.5C 812.602,593.568 822.102,584.735 835.5,580C 846.486,575.877 857.819,574.543 869.5,576C 890.617,579.708 911.284,585.041 931.5,592C 936.252,595.414 939.419,599.914 941,605.5C 941.826,612.606 943.159,619.606 945,626.5C 948.748,631.998 951.415,637.998 953,644.5C 955.485,655.107 957.652,665.774 959.5,676.5C 958.674,689.316 953.674,700.15 944.5,709C 936.93,712.409 929.264,715.409 921.5,718C 908.718,734.781 893.385,748.781 875.5,760C 867.991,764.255 860.324,768.255 852.5,772C 846.286,773.888 839.953,774.555 833.5,774C 827.833,772.333 822.167,770.667 816.5,769C 812.048,768.14 808.548,769.64 806,773.5C 804.973,777.608 803.64,781.608 802,785.5C 791.549,794.389 780.215,795.723 768,789.5C 765.402,790.301 763.069,791.634 761,793.5C 752.281,804.552 743.947,815.886 736,827.5C 719.667,854.833 703.333,882.167 687,909.5C 669.448,945.605 651.115,981.272 632,1016.5C 624.472,1033.42 617.139,1050.42 610,1067.5C 609.333,1069.5 609.333,1071.5 610,1073.5C 611.275,1075.72 612.275,1078.05 613,1080.5C 613.333,1088.5 613.667,1096.5 614,1104.5C 615.672,1111.17 617.338,1117.84 619,1124.5C 622.682,1163.12 626.016,1201.79 629,1240.5C 628.661,1262.95 629.995,1285.29 633,1307.5C 633.728,1317.32 634.228,1327.16 634.5,1337C 633.178,1366 633.178,1395 634.5,1424C 632.064,1474.5 629.564,1525 627,1575.5C 625.991,1584.55 624.658,1593.55 623,1602.5C 622.667,1612.5 622.333,1622.5 622,1632.5C 621.559,1639.04 620.226,1645.37 618,1651.5C 615.147,1686.21 611.814,1720.88 608,1755.5C 605.539,1765.88 602.872,1776.22 600,1786.5C 596.518,1788.08 593.852,1787.08 592,1783.5C 591.296,1781.72 590.796,1779.89 590.5,1778C 592.402,1772.96 593.902,1767.79 595,1762.5C 594.962,1747.21 596.962,1732.21 601,1717.5C 603.072,1691.85 605.072,1666.18 607,1640.5C 607.778,1633.71 609.112,1627.05 611,1620.5C 612.963,1575.12 615.63,1529.79 619,1484.5C 620.931,1405.16 620.598,1325.82 618,1246.5C 614.846,1208.45 611.18,1170.45 607,1132.5C 605.406,1120.66 603.072,1109 600,1097.5C 560.685,1199.76 535.351,1305.43 524,1414.5C 522.511,1423.94 520.511,1433.28 518,1442.5C 517.012,1478.3 514.345,1513.96 510,1549.5C 509.737,1564.01 509.237,1578.51 508.5,1593C 509.295,1626.82 509.795,1660.66 510,1694.5C 511.797,1707.8 512.797,1721.13 513,1734.5C 511.765,1740.47 509.099,1741.47 505,1737.5C 503.392,1734.62 502.059,1731.62 501,1728.5C 498.463,1708.25 496.797,1687.92 496,1667.5C 495.333,1624.17 495.333,1580.83 496,1537.5C 498.768,1517.94 500.101,1498.27 500,1478.5C 500.25,1475.25 501.25,1472.25 503,1469.5C 512.279,1341.77 538.946,1217.77 583,1097.5C 586.139,1089.75 589.472,1082.08 593,1074.5C 595.839,1065.25 596.173,1055.92 594,1046.5C 589.026,1023.96 584.693,1001.3 581,978.5C 567.057,948.755 550.223,920.922 530.5,895C 510.521,892.447 490.688,893.28 471,897.5C 467.467,897.776 465.634,896.11 465.5,892.5C 456.558,897.888 447.391,902.888 438,907.5C 434.498,906.505 432.998,904.171 433.5,900.5C 427.387,901.028 421.387,902.194 415.5,904C 406.676,906.913 403.676,904.079 406.5,895.5C 397.369,893.849 389.202,890.182 382,884.5C 379.096,878.774 380.262,874.274 385.5,871C 391.71,869.278 398.043,868.278 404.5,868C 405.069,865.097 406.735,863.097 409.5,862C 416.843,861.796 424.176,861.796 431.5,862C 434.09,859.288 437.257,857.788 441,857.5C 448.673,858.627 456.173,860.46 463.5,863C 469.162,862.927 474.829,862.927 480.5,863C 490.125,866.154 499.792,868.821 509.5,871C 484.217,845.368 456.884,822.368 427.5,802C 416.798,801.224 406.131,801.557 395.5,803C 379.359,805.536 363.359,808.703 347.5,812.5C 343.27,811.77 340.937,809.27 340.5,805C 341.154,801.201 342.487,797.701 344.5,794.5C 344.392,793.558 344.059,792.725 343.5,792C 336.755,791.386 330.088,791.886 323.5,793.5C 320.622,793.614 317.956,792.948 315.5,791.5C 314.019,788.322 312.852,784.988 312,781.5C 307.306,778.651 302.973,775.318 299,771.5C 296.487,761.327 300.654,756.493 311.5,757C 315.967,752.699 321.3,751.365 327.5,753C 332.987,754.078 337.987,756.244 342.5,759.5C 348.949,756.786 355.283,757.286 361.5,761C 367.768,765.76 374.434,769.927 381.5,773.5C 381.833,773.167 382.167,772.833 382.5,772.5C 372.807,760.321 361.14,750.487 347.5,743C 343.286,740.726 338.953,738.726 334.5,737C 324.343,734.422 314.343,731.422 304.5,728C 303.333,726.833 302.167,725.667 301,724.5C 300.774,720.113 300.274,715.779 299.5,711.5C 295.66,709.079 291.66,706.912 287.5,705C 279.56,697.407 279.56,689.741 287.5,682C 294.079,677.701 300.745,677.701 307.5,682C 311.015,685.682 314.682,689.182 318.5,692.5C 322.819,688.761 327.485,688.595 332.5,692C 337.104,696.603 340.938,701.77 344,707.5C 349.667,713.167 355.333,718.833 361,724.5C 361.328,721.793 360.995,719.126 360,716.5C 357.249,710.339 355.083,704.006 353.5,697.5C 355.891,691.045 357.391,684.379 358,677.5C 363.813,670.036 370.313,669.536 377.5,676C 381.236,680.637 384.07,685.804 386,691.5C 387.245,705.787 387.911,720.121 388,734.5C 391.371,755.865 402.538,771.698 421.5,782C 422.332,782.688 422.998,782.521 423.5,781.5C 422.132,777.63 419.798,774.464 416.5,772C 407.687,768.857 402.02,762.857 399.5,754C 400.991,750.364 402.658,746.864 404.5,743.5C 400.801,732.444 399.301,721.111 400,709.5C 401.722,707.556 403.889,706.556 406.5,706.5C 409.702,707.099 412.702,708.266 415.5,710C 420.196,716.097 424.53,722.431 428.5,729C 435.632,728.153 441.132,730.653 445,736.5C 446.075,744.779 446.908,753.113 447.5,761.5C 450.895,762.727 453.061,765.06 454,768.5C 454.074,775.653 453.908,782.82 453.5,790C 453.442,795.565 453.942,801.065 455,806.5C 463.622,812.787 471.955,819.453 480,826.5C 479.043,819.285 477.043,812.285 474,805.5C 470,798.833 466,792.167 462,785.5C 461.333,782.833 461.333,780.167 462,777.5C 466.65,769.349 467.817,760.683 465.5,751.5C 464.394,742.125 468.394,737.292 477.5,737C 481.919,739.427 484.919,743.093 486.5,748C 497.06,746.56 501.727,751.227 500.5,762C 500.264,766.847 499.931,771.68 499.5,776.5C 507.335,777.768 511.835,782.434 513,790.5C 515.135,814.852 517.468,839.185 520,863.5C 538.669,882.522 554.669,903.522 568,926.5C 568.044,922.192 567.877,917.859 567.5,913.5C 560.365,868.702 550.865,824.368 539,780.5C 521.354,709.563 499.687,639.896 474,571.5C 470.943,570.549 467.777,570.216 464.5,570.5C 463.666,569.252 462.333,568.585 460.5,568.5C 458.667,568.585 457.334,569.252 456.5,570.5C 442.474,574.619 428.474,578.952 414.5,583.5C 410.673,585.246 407.007,587.246 403.5,589.5C 401.654,592.569 400.654,595.902 400.5,599.5C 402.334,608.151 405.001,616.485 408.5,624.5C 408.5,628.5 408.5,632.5 408.5,636.5C 408.5,637.833 408.5,639.167 408.5,640.5C 404.871,642.76 400.871,644.093 396.5,644.5C 392.167,644.5 387.833,644.5 383.5,644.5C 381.396,644.799 379.396,644.466 377.5,643.5C 363.961,637.099 356.294,626.433 354.5,611.5C 353.502,603.528 353.169,595.528 353.5,587.5C 355.176,586.817 355.843,585.483 355.5,583.5C 355.5,580.5 355.5,577.5 355.5,574.5C 357.176,573.817 357.843,572.483 357.5,570.5C 358.214,562.974 359.881,555.641 362.5,548.5C 366.958,536.919 371.958,525.585 377.5,514.5C 376.5,514.167 375.5,513.833 374.5,513.5C 357.255,518.048 339.922,522.048 322.5,525.5C 320.517,525.157 319.183,525.824 318.5,527.5C 313.261,528.357 308.261,530.024 303.5,532.5C 295.461,539.213 287.461,545.879 279.5,552.5C 279.238,551.022 279.571,549.689 280.5,548.5C 285.35,545.112 289.017,540.779 291.5,535.5C 292.586,535.38 293.253,534.713 293.5,533.5C 293.253,532.287 292.586,531.62 291.5,531.5C 271.139,530.845 251.139,531.512 231.5,533.5C 223.167,533.5 214.833,533.5 206.5,533.5C 205.817,531.824 204.483,531.157 202.5,531.5C 194.862,531.29 187.529,529.623 180.5,526.5C 163.111,517.998 146.445,508.331 130.5,497.5C 126.809,495.244 122.809,494.244 118.5,494.5C 118.238,495.978 118.571,497.311 119.5,498.5C 123.918,504.996 128.585,511.33 133.5,517.5C 135.634,523.568 137.967,529.568 140.5,535.5C 141.596,545.32 141.596,554.986 140.5,564.5C 147.181,568.007 154.181,570.674 161.5,572.5C 161.62,573.586 162.287,574.253 163.5,574.5C 164.713,574.253 165.38,573.586 165.5,572.5C 171.425,563.648 177.091,554.648 182.5,545.5C 184.5,545.5 186.5,545.5 188.5,545.5C 182.766,555.296 176.766,564.962 170.5,574.5C 164.937,578.79 161.937,584.457 161.5,591.5C 166.362,593.423 171.362,595.09 176.5,596.5C 186.812,597.499 197.145,597.832 207.5,597.5C 209.483,597.843 210.817,597.176 211.5,595.5C 216.974,594.438 222.307,592.771 227.5,590.5C 232.17,586.915 237.337,584.248 243,582.5C 249.647,577.685 256.147,572.685 262.5,567.5C 263.689,566.571 265.022,566.238 266.5,566.5C 257.762,577.57 247.428,586.903 235.5,594.5C 229.004,597.419 222.338,599.752 215.5,601.5C 212.302,600.964 209.635,601.631 207.5,603.5C 205.167,603.5 202.833,603.5 200.5,603.5C 190.167,603.5 179.833,603.5 169.5,603.5C 165.445,603.824 161.445,603.491 157.5,602.5C 154.854,600.868 153.521,598.535 153.5,595.5C 154.123,588.745 153.456,582.412 151.5,576.5C 145.84,574.479 140.84,571.146 136.5,566.5C 134.983,555.581 133.983,544.581 133.5,533.5C 126.472,518.625 118.472,504.291 109.5,490.5C 101.192,480.345 90.5249,474.345 77.5,472.5C 62.599,466.309 47.599,460.309 32.5,454.5C 29.8545,452.868 28.5211,450.535 28.5,447.5C 26.8212,447.715 25.8212,447.048 25.5,445.5C 26.5,444.167 27.5,442.833 28.5,441.5C 42.8372,441.667 57.1705,441.5 71.5,441C 76.0671,439.556 80.0671,437.389 83.5,434.5C 84.7479,433.666 85.4146,432.333 85.5,430.5C 85.4146,428.667 84.7479,427.334 83.5,426.5C 82.1667,414.833 80.8333,403.167 79.5,391.5C 80.0356,388.302 79.369,385.635 77.5,383.5C 77.5,380.833 77.5,378.167 77.5,375.5C 77.8432,373.517 77.1765,372.183 75.5,371.5C 75.5,369.833 75.5,368.167 75.5,366.5C 76.0356,363.302 75.369,360.635 73.5,358.5C 73.5,354.5 73.5,350.5 73.5,346.5C 74.0356,343.302 73.369,340.635 71.5,338.5C 72.5086,326.817 77.5086,317.151 86.5,309.5C 90.1294,303.596 92.4627,297.263 93.5,290.5C 94.8164,287.913 95.483,284.913 95.5,281.5C 95.483,278.087 94.8164,275.087 93.5,272.5C 93.5,269.833 93.5,267.167 93.5,264.5C 93.5,261.5 93.5,258.5 93.5,255.5C 93.4827,251.883 94.4827,248.55 96.5,245.5C 99.464,241.534 102.797,237.867 106.5,234.5C 107.689,233.571 109.022,233.238 110.5,233.5C 110.423,230.988 111.423,228.988 113.5,227.5C 121.491,221.512 129.491,215.512 137.5,209.5C 143.71,205.764 150.377,203.43 157.5,202.5C 159.483,202.843 160.817,202.176 161.5,200.5C 167.741,199.131 174.074,198.464 180.5,198.5C 183.698,199.036 186.365,198.369 188.5,196.5C 193.833,196.5 199.167,196.5 204.5,196.5C 206.223,197.8 208.39,198.467 211,198.5C 213.61,198.467 215.777,197.8 217.5,196.5C 220.535,196.479 222.868,195.146 224.5,192.5C 230.264,174.867 236.597,157.534 243.5,140.5C 249.954,125.828 257.954,112.162 267.5,99.5C 273.122,91.8766 279.456,84.8766 286.5,78.5C 287.429,77.3112 287.762,75.9778 287.5,74.5C 288.833,74.5 290.167,74.5 291.5,74.5C 291.238,73.0222 291.571,71.6888 292.5,70.5C 305.155,55.9591 321.155,48.2924 340.5,47.5C 342.483,47.8432 343.817,47.1765 344.5,45.5C 348.839,44.6658 353.172,43.6658 357.5,42.5C 362.12,41.5067 366.786,41.1734 371.5,41.5C 374.082,41.9746 376.082,41.3079 377.5,39.5 Z"/></g>
<g><path style="opacity:1" fill="#555555" d="M 416.5,39.5 C 418.483,39.1568 419.817,39.8235 420.5,41.5C 418.517,41.8432 417.183,41.1765 416.5,39.5 Z"/></g>
<g><path style="opacity:1" fill="#b7b7b7" d="M 414.5,47.5 C 402.167,47.5 389.833,47.5 377.5,47.5C 383.295,46.1704 389.462,45.5038 396,45.5C 402.538,45.5038 408.705,46.1704 414.5,47.5 Z"/></g>
<g><path style="opacity:1" fill="#7e7e7e" d="M 344.5,45.5 C 343.817,47.1765 342.483,47.8432 340.5,47.5C 341.183,45.8235 342.517,45.1568 344.5,45.5 Z"/></g>
<g><path style="opacity:1" fill="#fdfdfd" d="M 377.5,47.5 C 389.833,47.5 402.167,47.5 414.5,47.5C 417.066,47.3444 419.566,47.6777 422,48.5C 423.946,50.9622 426.446,52.2955 429.5,52.5C 430.757,57.6801 433.09,62.3467 436.5,66.5C 441.87,81.4195 446.87,96.4195 451.5,111.5C 451.157,113.483 451.824,114.817 453.5,115.5C 455.357,125.733 456.357,136.066 456.5,146.5C 455.964,149.698 456.631,152.365 458.5,154.5C 458.5,171.167 458.5,187.833 458.5,204.5C 461.144,204.84 463.477,204.173 465.5,202.5C 466.499,192.188 466.832,181.855 466.5,171.5C 466.5,168.833 466.5,166.167 466.5,163.5C 467.036,160.302 466.369,157.635 464.5,155.5C 464.5,151.167 464.5,146.833 464.5,142.5C 464.975,139.918 464.308,137.918 462.5,136.5C 462.5,133.167 462.5,129.833 462.5,126.5C 462.843,124.517 462.176,123.183 460.5,122.5C 459.357,118.256 458.69,113.923 458.5,109.5C 458.843,107.517 458.176,106.183 456.5,105.5C 456.495,102.468 456.162,99.4682 455.5,96.5C 450.86,81.5581 444.86,67.2247 437.5,53.5C 440.167,52.1667 442.833,52.1667 445.5,53.5C 468.833,60.1667 492.167,66.8333 515.5,73.5C 518.109,75.108 519.442,77.4413 519.5,80.5C 517.683,85.3754 516.349,90.3754 515.5,95.5C 517.62,102.861 519.953,110.194 522.5,117.5C 523.855,125.138 524.855,132.804 525.5,140.5C 524.964,143.698 525.631,146.365 527.5,148.5C 527.967,169.23 527.3,189.897 525.5,210.5C 523.824,211.183 523.157,212.517 523.5,214.5C 523.5,217.167 523.5,219.833 523.5,222.5C 521.824,223.183 521.157,224.517 521.5,226.5C 519.541,234.048 518.208,241.714 517.5,249.5C 519.5,249.5 521.5,249.5 523.5,249.5C 526.945,237.403 529.279,225.07 530.5,212.5C 532.369,210.365 533.036,207.698 532.5,204.5C 534.31,188.25 534.977,171.916 534.5,155.5C 534.923,153.219 534.256,151.552 532.5,150.5C 532.5,145.833 532.5,141.167 532.5,136.5C 532.843,134.517 532.176,133.183 530.5,132.5C 529.718,123.48 528.718,114.48 527.5,105.5C 527.5,104.167 527.5,102.833 527.5,101.5C 533.251,102.749 538.918,104.416 544.5,106.5C 554.007,110.75 563.007,115.75 571.5,121.5C 583.538,132.91 590.204,146.91 591.5,163.5C 590.964,166.698 591.631,169.365 593.5,171.5C 592.856,182.884 593.523,193.884 595.5,204.5C 593.902,210.36 593.235,216.36 593.5,222.5C 592.833,222.5 592.167,222.5 591.5,222.5C 592.103,217.381 591.436,212.715 589.5,208.5C 587.513,226.136 586.847,244.136 587.5,262.5C 587.5,263.833 587.5,265.167 587.5,266.5C 587.827,271.214 587.493,275.88 586.5,280.5C 584.5,286.5 582.5,292.5 580.5,298.5C 577.688,302.456 575.688,306.79 574.5,311.5C 567.939,322.061 559.939,331.395 550.5,339.5C 533.625,350.581 515.625,359.581 496.5,366.5C 495.5,366.167 494.5,365.833 493.5,365.5C 496.927,362.744 499.593,359.41 501.5,355.5C 502.689,354.571 504.022,354.238 505.5,354.5C 505.238,353.022 505.571,351.689 506.5,350.5C 513.197,343.468 520.197,336.802 527.5,330.5C 529.334,328.502 530.334,326.168 530.5,323.5C 531.978,323.762 533.311,323.429 534.5,322.5C 541.761,314.88 549.761,308.214 558.5,302.5C 560.045,301.548 561.712,301.215 563.5,301.5C 563.5,300.5 563.5,299.5 563.5,298.5C 560.751,298.274 558.084,298.607 555.5,299.5C 548.993,303.586 542.66,307.92 536.5,312.5C 527.833,322.5 518.5,331.833 508.5,340.5C 507.833,341.833 507.167,343.167 506.5,344.5C 500.801,349.865 495.467,355.531 490.5,361.5C 489.311,362.429 487.978,362.762 486.5,362.5C 486.762,361.022 486.429,359.689 485.5,358.5C 483.588,356.343 481.921,354.009 480.5,351.5C 491.046,338.948 502.379,326.948 514.5,315.5C 518.84,309.665 523.34,303.998 528,298.5C 530.975,294.217 533.141,289.55 534.5,284.5C 532.508,284.328 530.842,284.995 529.5,286.5C 527.603,290.736 525.27,294.736 522.5,298.5C 517.533,302.466 512.866,306.799 508.5,311.5C 503.833,317.5 499.167,323.5 494.5,329.5C 492.833,330.833 491.167,332.167 489.5,333.5C 486.167,327.5 482.833,321.5 479.5,315.5C 477.242,312.218 474.242,310.218 470.5,309.5C 469.082,307.692 467.082,307.025 464.5,307.5C 462.929,302.389 460.596,297.389 457.5,292.5C 454.646,288.406 450.646,286.406 445.5,286.5C 440.144,287.851 434.811,289.184 429.5,290.5C 429.799,288.396 429.466,286.396 428.5,284.5C 425.752,282.147 423.086,279.814 420.5,277.5C 416.629,275.874 412.629,274.874 408.5,274.5C 406.517,274.157 405.183,274.824 404.5,276.5C 387.453,281.848 370.453,287.514 353.5,293.5C 348.868,296.65 343.868,298.983 338.5,300.5C 332.386,305.945 325.72,310.612 318.5,314.5C 316.457,316.208 314.79,318.208 313.5,320.5C 304.436,322.562 298.103,327.895 294.5,336.5C 291.537,334.539 288.871,332.206 286.5,329.5C 283.4,325.407 280.733,321.074 278.5,316.5C 275.833,313.833 273.167,311.167 270.5,308.5C 269.311,307.571 267.978,307.238 266.5,307.5C 266.238,308.978 266.571,310.311 267.5,311.5C 270.167,314.167 272.833,316.833 275.5,319.5C 279.578,328.258 285.244,335.925 292.5,342.5C 293.429,343.689 293.762,345.022 293.5,346.5C 289.5,346.5 285.5,346.5 281.5,346.5C 281.5,347.833 281.5,349.167 281.5,350.5C 278.547,348.911 275.547,347.244 272.5,345.5C 264.113,336.153 253.78,330.153 241.5,327.5C 241.357,329.262 241.691,330.929 242.5,332.5C 245.905,333.289 249.239,334.289 252.5,335.5C 259.167,340.833 265.833,346.167 272.5,351.5C 273.689,352.429 275.022,352.762 276.5,352.5C 276.5,357.167 276.5,361.833 276.5,366.5C 275.022,366.762 273.689,366.429 272.5,365.5C 268.422,360.751 263.755,356.751 258.5,353.5C 251.324,350.741 244.324,347.741 237.5,344.5C 237.328,346.492 237.995,348.158 239.5,349.5C 244.891,352.742 250.557,355.409 256.5,357.5C 258.601,360.27 261.268,362.27 264.5,363.5C 266.539,365.874 268.872,367.874 271.5,369.5C 272.429,370.689 272.762,372.022 272.5,373.5C 272.5,375.5 272.5,377.5 272.5,379.5C 272.5,383.5 272.5,387.5 272.5,391.5C 271.167,391.5 269.833,391.5 268.5,391.5C 263.89,388.521 259.223,385.521 254.5,382.5C 246.833,378.5 239.167,378.5 231.5,382.5C 218.712,392.728 204.379,400.061 188.5,404.5C 170.97,408.588 153.303,411.922 135.5,414.5C 131.988,413.945 128.988,414.612 126.5,416.5C 119.686,417.197 112.853,417.863 106,418.5C 102.5,418.167 99,417.833 95.5,417.5C 89.893,415.24 86.5596,411.24 85.5,405.5C 85.5,402.833 85.5,400.167 85.5,397.5C 85.2011,395.396 85.5344,393.396 86.5,391.5C 88.5917,388.319 90.925,385.319 93.5,382.5C 89.8351,381.003 86.5017,379.003 83.5,376.5C 87.3702,373.735 91.3702,371.235 95.5,369C 92.8981,367.86 90.2314,367.027 87.5,366.5C 87.5,365.167 87.5,363.833 87.5,362.5C 86.1667,362.5 84.8333,362.5 83.5,362.5C 82.1667,358.5 80.8333,354.5 79.5,350.5C 79.8432,348.517 79.1765,347.183 77.5,346.5C 76.8938,339.873 77.8938,333.539 80.5,327.5C 87.8654,320.816 96.5321,316.816 106.5,315.5C 106.5,314.167 106.5,312.833 106.5,311.5C 103.789,311.815 101.456,311.148 99.5,309.5C 99.5,308.167 99.5,306.833 99.5,305.5C 99.7468,299.021 100.747,292.687 102.5,286.5C 117.619,291.231 132.619,296.231 147.5,301.5C 147.5,300.5 147.5,299.5 147.5,298.5C 143.653,297.91 140.32,296.243 137.5,293.5C 126.587,289.418 115.587,285.751 104.5,282.5C 103.032,275.717 101.699,268.884 100.5,262C 100.833,259.167 101.167,256.333 101.5,253.5C 103.689,250.344 105.356,247.011 106.5,243.5C 107.978,243.762 109.311,243.429 110.5,242.5C 118.285,234.04 126.618,226.374 135.5,219.5C 139.801,216.677 144.467,215.011 149.5,214.5C 152.833,214.5 156.167,214.5 159.5,214.5C 163.117,214.483 166.45,215.483 169.5,217.5C 179.391,223.604 189.057,229.937 198.5,236.5C 200.95,237.626 202.95,236.959 204.5,234.5C 202.5,232.5 200.5,230.5 198.5,228.5C 193.677,226.688 189.677,223.688 186.5,219.5C 181.833,216.167 177.167,212.833 172.5,209.5C 171.691,207.929 171.357,206.262 171.5,204.5C 176.5,204.5 181.5,204.5 186.5,204.5C 194.167,204.5 201.833,204.5 209.5,204.5C 213.117,204.483 216.45,205.483 219.5,207.5C 222.5,210.5 225.5,213.5 228.5,216.5C 233.368,228.771 238.034,241.104 242.5,253.5C 255.038,273.04 270.704,289.707 289.5,303.5C 290.167,303.167 290.833,302.833 291.5,302.5C 284.822,295.157 278.156,287.823 271.5,280.5C 270.571,279.311 270.238,277.978 270.5,276.5C 266.5,276.5 264.5,274.5 264.5,270.5C 263.167,270.5 261.833,270.5 260.5,270.5C 260.762,269.022 260.429,267.689 259.5,266.5C 255.57,262.603 252.237,258.269 249.5,253.5C 239.409,231.256 235.076,207.923 236.5,183.5C 238.851,178.797 241.185,174.13 243.5,169.5C 250.188,163.146 256.521,156.48 262.5,149.5C 263.689,148.571 265.022,148.238 266.5,148.5C 269.652,155.833 271.985,163.5 273.5,171.5C 277.054,177.94 280.054,184.607 282.5,191.5C 291.823,208.144 301.157,224.811 310.5,241.5C 311.524,242.853 312.857,243.52 314.5,243.5C 314.693,239.987 314.026,236.654 312.5,233.5C 310.083,229.671 307.416,226.004 304.5,222.5C 297.005,207.173 289.338,192.173 281.5,177.5C 281.975,174.918 281.308,172.918 279.5,171.5C 276.415,160.709 274.082,149.709 272.5,138.5C 272.975,135.918 272.308,133.918 270.5,132.5C 270.17,125.468 270.503,118.468 271.5,111.5C 272.833,108.833 274.167,106.167 275.5,103.5C 282.529,94.4773 289.529,85.4773 296.5,76.5C 300.578,71.7511 305.245,67.7511 310.5,64.5C 324.232,74.2318 335.898,85.8984 345.5,99.5C 349.044,107.809 352.377,116.143 355.5,124.5C 355.62,125.586 356.287,126.253 357.5,126.5C 358.713,126.253 359.38,125.586 359.5,124.5C 355.391,110.617 349.391,97.6168 341.5,85.5C 334.864,79.8655 328.531,73.8655 322.5,67.5C 318.649,66.6551 316.649,64.3218 316.5,60.5C 319.247,60.8134 321.914,60.48 324.5,59.5C 341.443,52.2534 359.11,48.2534 377.5,47.5 Z"/></g>
<g><path style="opacity:1" fill="#585858" d="M 527.5,101.5 C 527.5,102.833 527.5,104.167 527.5,105.5C 526.414,105.38 525.747,104.713 525.5,103.5C 525.747,102.287 526.414,101.62 527.5,101.5 Z"/></g>
<g><path style="opacity:1" fill="#8a8a8a" d="M 456.5,105.5 C 458.176,106.183 458.843,107.517 458.5,109.5C 456.824,108.817 456.157,107.483 456.5,105.5 Z"/></g>
<g><path style="opacity:1" fill="#6b6b6b" d="M 451.5,111.5 C 453.176,112.183 453.843,113.517 453.5,115.5C 451.824,114.817 451.157,113.483 451.5,111.5 Z"/></g>
<g><path style="opacity:1" fill="#6f7070" d="M 355.5,124.5 C 356.833,124.5 358.167,124.5 359.5,124.5C 359.38,125.586 358.713,126.253 357.5,126.5C 356.287,126.253 355.62,125.586 355.5,124.5 Z"/></g>
<g><path style="opacity:1" fill="#848484" d="M 460.5,122.5 C 462.176,123.183 462.843,124.517 462.5,126.5C 460.824,125.817 460.157,124.483 460.5,122.5 Z"/></g>
<g><path style="opacity:1" fill="#888888" d="M 270.5,132.5 C 272.308,133.918 272.975,135.918 272.5,138.5C 270.692,137.082 270.025,135.082 270.5,132.5 Z"/></g>
<g><path style="opacity:1" fill="#898989" d="M 530.5,132.5 C 532.176,133.183 532.843,134.517 532.5,136.5C 530.824,135.817 530.157,134.483 530.5,132.5 Z"/></g>
<g><path style="opacity:1" fill="#999999" d="M 462.5,136.5 C 464.308,137.918 464.975,139.918 464.5,142.5C 462.692,141.082 462.025,139.082 462.5,136.5 Z"/></g>
<g><path style="opacity:1" fill="#aaaaaa" d="M 525.5,140.5 C 527.369,142.635 528.036,145.302 527.5,148.5C 525.631,146.365 524.964,143.698 525.5,140.5 Z"/></g>
<g><path style="opacity:1" fill="#666666" d="M 456.5,146.5 C 458.369,148.635 459.036,151.302 458.5,154.5C 456.631,152.365 455.964,149.698 456.5,146.5 Z"/></g>
<g><path style="opacity:1" fill="#828281" d="M 532.5,150.5 C 534.256,151.552 534.923,153.219 534.5,155.5C 532.744,154.448 532.077,152.781 532.5,150.5 Z"/></g>
<g><path style="opacity:1" fill="#646464" d="M 595.5,155.5 C 597.176,156.183 597.843,157.517 597.5,159.5C 595.824,158.817 595.157,157.483 595.5,155.5 Z"/></g>
<g><path style="opacity:1" fill="#999999" d="M 464.5,155.5 C 466.369,157.635 467.036,160.302 466.5,163.5C 465.833,163.5 465.167,163.5 464.5,163.5C 464.5,160.833 464.5,158.167 464.5,155.5 Z"/></g>
<g><path style="opacity:1" fill="#464646" d="M 464.5,163.5 C 465.167,163.5 465.833,163.5 466.5,163.5C 466.5,166.167 466.5,168.833 466.5,171.5C 464.631,169.365 463.964,166.698 464.5,163.5 Z"/></g>
<g><path style="opacity:1" fill="#767676" d="M 591.5,163.5 C 593.369,165.635 594.036,168.302 593.5,171.5C 591.631,169.365 590.964,166.698 591.5,163.5 Z"/></g>
<g><path style="opacity:1" fill="#a8a8a8" d="M 597.5,167.5 C 598.816,170.087 599.483,173.087 599.5,176.5C 599.483,179.913 598.816,182.913 597.5,185.5C 597.5,179.5 597.5,173.5 597.5,167.5 Z"/></g>
<g><path style="opacity:1" fill="#9c9c9c" d="M 279.5,171.5 C 281.308,172.918 281.975,174.918 281.5,177.5C 279.692,176.082 279.025,174.082 279.5,171.5 Z"/></g>
<g><path style="opacity:1" fill="#414141" d="M 188.5,196.5 C 186.365,198.369 183.698,199.036 180.5,198.5C 182.635,196.631 185.302,195.964 188.5,196.5 Z"/></g>
<g><path style="opacity:1" fill="#5c5c5c" d="M 204.5,196.5 C 208.833,196.5 213.167,196.5 217.5,196.5C 215.777,197.8 213.61,198.467 211,198.5C 208.39,198.467 206.223,197.8 204.5,196.5 Z"/></g>
<g><path style="opacity:1" fill="#707070" d="M 161.5,200.5 C 160.817,202.176 159.483,202.843 157.5,202.5C 158.183,200.824 159.517,200.157 161.5,200.5 Z"/></g>
<g><path style="opacity:1" fill="#858585" d="M 209.5,204.5 C 201.833,204.5 194.167,204.5 186.5,204.5C 189.938,203.177 193.771,202.51 198,202.5C 202.229,202.51 206.062,203.177 209.5,204.5 Z"/></g>
<g><path style="opacity:1" fill="#bdbebd" d="M 589.5,208.5 C 589.5,226.5 589.5,244.5 589.5,262.5C 588.833,262.5 588.167,262.5 587.5,262.5C 586.847,244.136 587.513,226.136 589.5,208.5 Z"/></g>
<g><path style="opacity:1" fill="#818181" d="M 532.5,204.5 C 533.036,207.698 532.369,210.365 530.5,212.5C 529.964,209.302 530.631,206.635 532.5,204.5 Z"/></g>
<g><path style="opacity:1" fill="#8a8a8a" d="M 159.5,214.5 C 156.167,214.5 152.833,214.5 149.5,214.5C 150.694,213.223 152.36,212.556 154.5,212.5C 156.64,212.556 158.306,213.223 159.5,214.5 Z"/></g>
<g><path style="opacity:1" fill="#8e8e8e" d="M 525.5,210.5 C 525.843,212.483 525.176,213.817 523.5,214.5C 523.157,212.517 523.824,211.183 525.5,210.5 Z"/></g>
<g><path style="opacity:1" fill="#626262" d="M 645.5,220.5 C 641.833,220.5 638.167,220.5 634.5,220.5C 635.871,219.213 637.705,218.547 640,218.5C 642.295,218.547 644.129,219.213 645.5,220.5 Z"/></g>
<g><path style="opacity:1" fill="#9b9b9a" d="M 523.5,222.5 C 523.843,224.483 523.176,225.817 521.5,226.5C 521.157,224.517 521.824,223.183 523.5,222.5 Z"/></g>
<g><path style="opacity:1" fill="#fdfdfd" d="M 680.5,268.5 C 675.167,269.167 675.167,269.833 680.5,270.5C 683.167,270.5 685.833,270.5 688.5,270.5C 689.183,272.176 690.517,272.843 692.5,272.5C 693.167,272.5 693.833,272.5 694.5,272.5C 694.5,273.833 694.5,275.167 694.5,276.5C 694.5,280.5 694.5,284.5 694.5,288.5C 692.692,289.918 692.025,291.918 692.5,294.5C 692.785,296.288 692.452,297.955 691.5,299.5C 689.167,301.833 686.833,304.167 684.5,306.5C 683.311,307.429 681.978,307.762 680.5,307.5C 677.918,307.025 675.918,307.692 674.5,309.5C 668.787,309.684 664.787,312.351 662.5,317.5C 661.505,322.792 661.172,328.125 661.5,333.5C 661.5,337.833 661.5,342.167 661.5,346.5C 661.5,349.833 661.5,353.167 661.5,356.5C 659.824,357.183 659.157,358.517 659.5,360.5C 659.083,363.343 658.083,366.01 656.5,368.5C 654.079,373.015 651.412,377.348 648.5,381.5C 638.844,391.823 629.178,402.156 619.5,412.5C 615.619,419.595 612.285,426.929 609.5,434.5C 604.545,454.372 596.878,473.038 586.5,490.5C 581.167,497.167 575.833,503.833 570.5,510.5C 565.833,513.833 561.833,517.833 558.5,522.5C 550.812,527.344 543.479,532.677 536.5,538.5C 532.909,539.783 529.909,541.783 527.5,544.5C 524.756,545.303 522.089,546.303 519.5,547.5C 476.611,559.92 433.611,571.92 390.5,583.5C 387.698,584.619 385.031,585.952 382.5,587.5C 380.679,586.272 379.679,584.606 379.5,582.5C 379.38,581.414 378.713,580.747 377.5,580.5C 376.287,580.747 375.62,581.414 375.5,582.5C 372.941,586.612 370.608,590.946 368.5,595.5C 366.546,598.047 364.879,598.047 363.5,595.5C 363.843,593.517 363.176,592.183 361.5,591.5C 362.66,582.677 364.66,574.01 367.5,565.5C 371.05,554.792 374.717,544.125 378.5,533.5C 380.603,527.502 383.27,521.835 386.5,516.5C 391.467,512.534 396.134,508.201 400.5,503.5C 410.19,498.494 418.523,491.827 425.5,483.5C 429.072,481.931 432.072,479.598 434.5,476.5C 439.008,483.513 443.008,490.847 446.5,498.5C 446.833,497.167 447.167,495.833 447.5,494.5C 446.053,489.936 445.387,485.269 445.5,480.5C 445.923,478.219 445.256,476.552 443.5,475.5C 442.911,471.029 443.577,467.029 445.5,463.5C 448.698,464.036 451.365,463.369 453.5,461.5C 454.497,454.843 455.497,448.176 456.5,441.5C 459.167,441.5 461.833,441.5 464.5,441.5C 464.5,440.5 464.5,439.5 464.5,438.5C 466.176,437.817 466.843,436.483 466.5,434.5C 466.036,425.408 467.703,416.741 471.5,408.5C 472.893,407.137 474.559,406.304 476.5,406C 481.202,405.828 485.868,405.328 490.5,404.5C 487.921,400.896 484.588,398.562 480.5,397.5C 481.331,392.995 483.998,389.995 488.5,388.5C 494.582,386.012 500.915,385.012 507.5,385.5C 510.698,386.036 513.365,385.369 515.5,383.5C 519.5,383.5 523.5,383.5 527.5,383.5C 527.5,382.167 527.5,380.833 527.5,379.5C 524.988,379.577 522.988,378.577 521.5,376.5C 522.167,375.833 522.833,375.167 523.5,374.5C 536.04,369.212 548.374,363.546 560.5,357.5C 557.833,356.833 555.167,356.167 552.5,355.5C 551.833,354.833 551.167,354.167 550.5,353.5C 556.448,349.223 562.115,344.556 567.5,339.5C 581.231,333.47 594.898,327.137 608.5,320.5C 611.809,319.285 615.142,318.285 618.5,317.5C 618.5,316.167 618.5,314.833 618.5,313.5C 604.95,318.274 591.617,323.608 578.5,329.5C 578.167,328.5 577.833,327.5 577.5,326.5C 588.351,303.613 597.017,279.947 603.5,255.5C 612.483,234.009 628.483,225.009 651.5,228.5C 659.224,231.221 666.224,235.221 672.5,240.5C 677.5,245.5 682.5,250.5 687.5,255.5C 689.721,258.981 691.388,262.648 692.5,266.5C 688.258,266.151 684.258,266.817 680.5,268.5 Z"/></g>
<g><path style="opacity:1" fill="#525252" d="M 591.5,222.5 C 592.167,222.5 592.833,222.5 593.5,222.5C 593.5,225.5 593.5,228.5 593.5,231.5C 591.612,229.012 590.945,226.012 591.5,222.5 Z"/></g>
<g><path style="opacity:1" fill="#767676" d="M 93.5,255.5 C 93.5,258.5 93.5,261.5 93.5,264.5C 92.2353,263.486 91.5687,261.986 91.5,260C 91.5687,258.014 92.2353,256.514 93.5,255.5 Z"/></g>
<g><path style="opacity:1" fill="#575757" d="M 587.5,262.5 C 588.167,262.5 588.833,262.5 589.5,262.5C 589.843,264.483 589.176,265.817 587.5,266.5C 587.5,265.167 587.5,263.833 587.5,262.5 Z"/></g>
<g><path style="opacity:1" fill="#6d6d6d" d="M 680.5,268.5 C 680.5,269.167 680.5,269.833 680.5,270.5C 675.167,269.833 675.167,269.167 680.5,268.5 Z"/></g>
<g><path style="opacity:1" fill="#717171" d="M 688.5,270.5 C 690.483,270.157 691.817,270.824 692.5,272.5C 690.517,272.843 689.183,272.176 688.5,270.5 Z"/></g>
<g><path style="opacity:1" fill="#707070" d="M 702.5,261.5 C 703.8,263.223 704.467,265.39 704.5,268C 704.467,270.61 703.8,272.777 702.5,274.5C 702.5,270.167 702.5,265.833 702.5,261.5 Z"/></g>
<g><path style="opacity:1" fill="#949494" d="M 408.5,274.5 C 407.817,276.176 406.483,276.843 404.5,276.5C 405.183,274.824 406.517,274.157 408.5,274.5 Z"/></g>
<g><path style="opacity:1" fill="#969696" d="M 694.5,272.5 C 695.586,272.62 696.253,273.287 696.5,274.5C 696.253,275.713 695.586,276.38 694.5,276.5C 694.5,275.167 694.5,273.833 694.5,272.5 Z"/></g>
<g><path style="opacity:1" fill="#929292" d="M 93.5,272.5 C 94.8164,275.087 95.483,278.087 95.5,281.5C 95.483,284.913 94.8164,287.913 93.5,290.5C 93.5,284.5 93.5,278.5 93.5,272.5 Z"/></g>
<g><path style="opacity:1" fill="#7b7b7b" d="M 694.5,288.5 C 694.975,291.082 694.308,293.082 692.5,294.5C 692.025,291.918 692.692,289.918 694.5,288.5 Z"/></g>
<g><path style="opacity:1" fill="#666666" d="M 99.5,305.5 C 99.5,306.833 99.5,308.167 99.5,309.5C 98.4138,309.38 97.7472,308.713 97.5,307.5C 97.7472,306.287 98.4138,305.62 99.5,305.5 Z"/></g>
<g><path style="opacity:1" fill="#999999" d="M 464.5,307.5 C 467.082,307.025 469.082,307.692 470.5,309.5C 467.918,309.975 465.918,309.308 464.5,307.5 Z"/></g>
<g><path style="opacity:1" fill="#8c8c8c" d="M 680.5,307.5 C 679.082,309.308 677.082,309.975 674.5,309.5C 675.918,307.692 677.918,307.025 680.5,307.5 Z"/></g>
<g><path style="opacity:1" fill="#959595" d="M 680.5,315.5 C 678.365,317.369 675.698,318.036 672.5,317.5C 674.635,315.631 677.302,314.964 680.5,315.5 Z"/></g>
<g><path style="opacity:1" fill="#919191" d="M 669.5,321.5 C 669.5,326.5 669.5,331.5 669.5,336.5C 668.191,334.429 667.525,331.929 667.5,329C 667.525,326.071 668.191,323.571 669.5,321.5 Z"/></g>
<g><path style="opacity:1" fill="#969696" d="M 661.5,333.5 C 662.8,335.223 663.467,337.39 663.5,340C 663.467,342.61 662.8,344.777 661.5,346.5C 661.5,342.167 661.5,337.833 661.5,333.5 Z"/></g>
<g><path style="opacity:1" fill="#9c9c9c" d="M 71.5,338.5 C 73.369,340.635 74.0356,343.302 73.5,346.5C 71.631,344.365 70.9644,341.698 71.5,338.5 Z"/></g>
<g><path style="opacity:1" fill="#6f6f6f" d="M 77.5,346.5 C 79.1765,347.183 79.8432,348.517 79.5,350.5C 77.8235,349.817 77.1568,348.483 77.5,346.5 Z"/></g>
<g><path style="opacity:1" fill="#636363" d="M 669.5,350.5 C 669.843,352.483 669.176,353.817 667.5,354.5C 667.157,352.517 667.824,351.183 669.5,350.5 Z"/></g>
<g><path style="opacity:1" fill="#7c7c7c" d="M 661.5,356.5 C 661.843,358.483 661.176,359.817 659.5,360.5C 659.157,358.517 659.824,357.183 661.5,356.5 Z"/></g>
<g><path style="opacity:1" fill="#acacac" d="M 73.5,358.5 C 75.369,360.635 76.0356,363.302 75.5,366.5C 73.631,364.365 72.9644,361.698 73.5,358.5 Z"/></g>
<g><path style="opacity:1" fill="#828282" d="M 75.5,371.5 C 77.1765,372.183 77.8432,373.517 77.5,375.5C 75.8235,374.817 75.1568,373.483 75.5,371.5 Z"/></g>
<g><path style="opacity:1" fill="#9a9a9b" d="M 272.5,373.5 C 273.693,373.97 274.36,374.97 274.5,376.5C 274.36,378.03 273.693,379.03 272.5,379.5C 272.5,377.5 272.5,375.5 272.5,373.5 Z"/></g>
<g><path style="opacity:1" fill="#8f8f8f" d="M 515.5,383.5 C 513.365,385.369 510.698,386.036 507.5,385.5C 509.635,383.631 512.302,382.964 515.5,383.5 Z"/></g>
<g><path style="opacity:1" fill="#fcfcfc" d="M 394.5,385.5 C 395.183,387.176 396.517,387.843 398.5,387.5C 402.5,387.5 406.5,387.5 410.5,387.5C 411.183,389.176 412.517,389.843 414.5,389.5C 416.833,389.5 419.167,389.5 421.5,389.5C 422.183,391.176 423.517,391.843 425.5,391.5C 447.187,393.202 456.187,404.869 452.5,426.5C 444.22,444.747 433.22,461.08 419.5,475.5C 403.89,489.316 386.557,500.649 367.5,509.5C 354.482,513.706 341.482,518.039 328.5,522.5C 322.872,523.495 317.206,523.829 311.5,523.5C 311.5,522.167 311.5,520.833 311.5,519.5C 311.5,517.167 311.5,514.833 311.5,512.5C 303.859,515.936 295.859,518.603 287.5,520.5C 270.3,521.902 253.133,521.568 236,519.5C 230.233,518.617 226.066,520.617 223.5,525.5C 218.167,525.5 212.833,525.5 207.5,525.5C 199.614,524.946 191.947,523.279 184.5,520.5C 163.707,510.006 143.707,498.34 124.5,485.5C 115.133,480.981 105.467,477.314 95.5,474.5C 86.3453,470.023 77.6786,464.689 69.5,458.5C 68.1667,456.5 66.8333,454.5 65.5,452.5C 68.5017,449.997 71.8351,447.997 75.5,446.5C 82.8333,445.167 90.1667,445.167 97.5,446.5C 100.686,448.257 103.686,450.257 106.5,452.5C 107.689,453.429 109.022,453.762 110.5,453.5C 110.5,454.833 110.5,456.167 110.5,457.5C 114.011,458.644 117.344,460.311 120.5,462.5C 133.109,477.297 148.109,488.964 165.5,497.5C 167.743,498.474 170.076,498.808 172.5,498.5C 172.5,497.167 172.5,495.833 172.5,494.5C 162.188,491.844 153.188,486.844 145.5,479.5C 144.311,478.571 142.978,478.238 141.5,478.5C 141.5,477.5 141.5,476.5 141.5,475.5C 140.022,475.762 138.689,475.429 137.5,474.5C 126.761,461.759 114.761,450.426 101.5,440.5C 100.571,439.311 100.238,437.978 100.5,436.5C 103.932,436.243 107.266,435.576 110.5,434.5C 113.833,434.5 117.167,434.5 120.5,434.5C 123.858,435.285 127.191,436.285 130.5,437.5C 132.092,439.451 134.092,440.784 136.5,441.5C 141.906,447.243 147.572,452.576 153.5,457.5C 153.62,458.586 154.287,459.253 155.5,459.5C 156.713,459.253 157.38,458.586 157.5,457.5C 157.799,455.396 157.466,453.396 156.5,451.5C 150.136,444.801 143.469,438.468 136.5,432.5C 135.896,429.737 134.562,427.403 132.5,425.5C 141.254,422.394 150.254,420.727 159.5,420.5C 166.5,420.5 173.5,420.5 180.5,420.5C 185.912,420.65 191.246,421.317 196.5,422.5C 198.369,420.365 199.036,417.698 198.5,414.5C 199.12,412.023 200.12,412.023 201.5,414.5C 203.46,413.277 205.293,411.944 207,410.5C 207.499,416.491 207.666,422.491 207.5,428.5C 207.157,430.483 207.824,431.817 209.5,432.5C 212.516,446.533 219.183,458.533 229.5,468.5C 230.689,469.429 232.022,469.762 233.5,469.5C 232.438,465.412 230.104,462.079 226.5,459.5C 215.11,443.608 210.444,425.942 212.5,406.5C 220.029,399.983 228.362,394.65 237.5,390.5C 243.437,388.952 249.104,389.619 254.5,392.5C 267.55,406.6 277.55,422.6 284.5,440.5C 285.167,440.833 285.833,441.167 286.5,441.5C 287.376,447.252 289.376,452.585 292.5,457.5C 293.48,460.086 293.813,462.753 293.5,465.5C 294.833,465.5 296.167,465.5 297.5,465.5C 297.5,462.833 297.5,460.167 297.5,457.5C 297.843,455.517 297.176,454.183 295.5,453.5C 294.527,451.553 293.527,449.553 292.5,447.5C 290.369,438.776 288.036,430.109 285.5,421.5C 285.67,419.285 286.337,417.285 287.5,415.5C 291.191,413.244 295.191,412.244 299.5,412.5C 302.698,413.036 305.365,412.369 307.5,410.5C 313.828,409.612 320.161,408.612 326.5,407.5C 334.26,401.11 342.593,395.443 351.5,390.5C 355.5,389.167 359.5,389.167 363.5,390.5C 365.871,393.206 368.537,395.539 371.5,397.5C 372.672,397.081 373.672,396.415 374.5,395.5C 375.047,391.842 376.714,388.842 379.5,386.5C 384.456,385.506 389.456,385.173 394.5,385.5 Z"/></g>
<g><path style="opacity:1" fill="#8c8c8c" d="M 394.5,385.5 C 396.483,385.157 397.817,385.824 398.5,387.5C 396.517,387.843 395.183,387.176 394.5,385.5 Z"/></g>
<g><path style="opacity:1" fill="#757575" d="M 410.5,387.5 C 412.483,387.157 413.817,387.824 414.5,389.5C 412.517,389.843 411.183,389.176 410.5,387.5 Z"/></g>
<g><path style="opacity:1" fill="#858585" d="M 77.5,383.5 C 79.369,385.635 80.0356,388.302 79.5,391.5C 77.631,389.365 76.9644,386.698 77.5,383.5 Z"/></g>
<g><path style="opacity:1" fill="#5d5d5d" d="M 421.5,389.5 C 423.483,389.157 424.817,389.824 425.5,391.5C 423.517,391.843 422.183,391.176 421.5,389.5 Z"/></g>
<g><path style="opacity:1" fill="#656565" d="M 268.5,391.5 C 269.833,391.5 271.167,391.5 272.5,391.5C 272.38,392.586 271.713,393.253 270.5,393.5C 269.287,393.253 268.62,392.586 268.5,391.5 Z"/></g>
<g><path style="opacity:1" fill="#828282" d="M 85.5,397.5 C 85.5,400.167 85.5,402.833 85.5,405.5C 84.2521,404.666 83.5854,403.333 83.5,401.5C 83.5854,399.667 84.2521,398.334 85.5,397.5 Z"/></g>
<g><path style="opacity:1" fill="#989898" d="M 307.5,410.5 C 305.365,412.369 302.698,413.036 299.5,412.5C 301.635,410.631 304.302,409.964 307.5,410.5 Z"/></g>
<g><path style="opacity:1" fill="#a9a9a9" d="M 135.5,414.5 C 133.012,416.388 130.012,417.055 126.5,416.5C 128.988,414.612 131.988,413.945 135.5,414.5 Z"/></g>
<g><path style="opacity:1" fill="#7b7b7b" d="M 180.5,420.5 C 173.5,420.5 166.5,420.5 159.5,420.5C 162.598,419.179 166.098,418.512 170,418.5C 173.902,418.512 177.402,419.179 180.5,420.5 Z"/></g>
<g><path style="opacity:1" fill="#b3b3b3" d="M 198.5,414.5 C 199.036,417.698 198.369,420.365 196.5,422.5C 195.964,419.302 196.631,416.635 198.5,414.5 Z"/></g>
<g><path style="opacity:1" fill="#8e8e8e" d="M 207.5,428.5 C 209.176,429.183 209.843,430.517 209.5,432.5C 207.824,431.817 207.157,430.483 207.5,428.5 Z"/></g>
<g><path style="opacity:1" fill="#9a9a9a" d="M 83.5,426.5 C 84.7479,427.334 85.4146,428.667 85.5,430.5C 85.4146,432.333 84.7479,433.666 83.5,434.5C 83.5,431.833 83.5,429.167 83.5,426.5 Z"/></g>
<g><path style="opacity:1" fill="#7e7e7e" d="M 120.5,434.5 C 117.167,434.5 113.833,434.5 110.5,434.5C 111.694,433.223 113.36,432.556 115.5,432.5C 117.64,432.556 119.306,433.223 120.5,434.5 Z"/></g>
<g><path style="opacity:1" fill="#808080" d="M 466.5,434.5 C 466.843,436.483 466.176,437.817 464.5,438.5C 464.157,436.517 464.824,435.183 466.5,434.5 Z"/></g>
<g><path style="opacity:1" fill="#939393" d="M 28.5,441.5 C 27.5,442.833 26.5,444.167 25.5,445.5C 23.8235,444.817 23.1568,443.483 23.5,441.5C 25.1667,441.5 26.8333,441.5 28.5,441.5 Z"/></g>
<g><path style="opacity:1" fill="#9f9f9f" d="M 614.5,445.5 C 614.843,447.483 614.176,448.817 612.5,449.5C 612.157,447.517 612.824,446.183 614.5,445.5 Z"/></g>
<g><path style="opacity:1" fill="#949494" d="M 295.5,453.5 C 297.176,454.183 297.843,455.517 297.5,457.5C 295.824,456.817 295.157,455.483 295.5,453.5 Z"/></g>
<g><path style="opacity:1" fill="#888888" d="M 153.5,457.5 C 154.833,457.5 156.167,457.5 157.5,457.5C 157.38,458.586 156.713,459.253 155.5,459.5C 154.287,459.253 153.62,458.586 153.5,457.5 Z"/></g>
<g><path style="opacity:1" fill="#838383" d="M 453.5,461.5 C 451.365,463.369 448.698,464.036 445.5,463.5C 447.635,461.631 450.302,460.964 453.5,461.5 Z"/></g>
<g><path style="opacity:1" fill="#69696a" d="M 443.5,475.5 C 445.256,476.552 445.923,478.219 445.5,480.5C 443.744,479.448 443.077,477.781 443.5,475.5 Z"/></g>
<g><path style="opacity:1" fill="#fbfbfb" d="M 202.5,531.5 C 203.183,533.176 204.517,533.843 206.5,533.5C 214.833,533.5 223.167,533.5 231.5,533.5C 251.5,533.5 271.5,533.5 291.5,533.5C 291.5,534.167 291.5,534.833 291.5,535.5C 289.017,540.779 285.35,545.112 280.5,548.5C 279.571,549.689 279.238,551.022 279.5,552.5C 278.5,552.5 277.5,552.5 276.5,552.5C 276.5,553.833 276.5,555.167 276.5,556.5C 275.167,556.5 274.5,557.167 274.5,558.5C 273.167,558.5 272.5,559.167 272.5,560.5C 271.167,560.5 270.5,561.167 270.5,562.5C 269.167,562.5 268.5,563.167 268.5,564.5C 267.167,564.5 266.5,565.167 266.5,566.5C 265.022,566.238 263.689,566.571 262.5,567.5C 256.147,572.685 249.647,577.685 243,582.5C 237.337,584.248 232.17,586.915 227.5,590.5C 222.307,592.771 216.974,594.438 211.5,595.5C 209.517,595.157 208.183,595.824 207.5,597.5C 197.145,597.832 186.812,597.499 176.5,596.5C 171.362,595.09 166.362,593.423 161.5,591.5C 161.937,584.457 164.937,578.79 170.5,574.5C 176.766,564.962 182.766,555.296 188.5,545.5C 186.5,545.5 184.5,545.5 182.5,545.5C 177.091,554.648 171.425,563.648 165.5,572.5C 164.167,572.5 162.833,572.5 161.5,572.5C 154.181,570.674 147.181,568.007 140.5,564.5C 141.596,554.986 141.596,545.32 140.5,535.5C 137.967,529.568 135.634,523.568 133.5,517.5C 128.585,511.33 123.918,504.996 119.5,498.5C 118.571,497.311 118.238,495.978 118.5,494.5C 122.809,494.244 126.809,495.244 130.5,497.5C 146.445,508.331 163.111,517.998 180.5,526.5C 187.529,529.623 194.862,531.29 202.5,531.5 Z"/></g>
<g><path style="opacity:1" fill="#969696" d="M 311.5,519.5 C 311.5,520.833 311.5,522.167 311.5,523.5C 310.414,523.38 309.747,522.713 309.5,521.5C 309.747,520.287 310.414,519.62 311.5,519.5 Z"/></g>
<g><path style="opacity:1" fill="#7c7c7c" d="M 207.5,525.5 C 212.833,525.5 218.167,525.5 223.5,525.5C 221.257,526.812 218.59,527.478 215.5,527.5C 212.41,527.478 209.743,526.812 207.5,525.5 Z"/></g>
<g><path style="opacity:1" fill="#8d8d8d" d="M 322.5,525.5 C 321.817,527.176 320.483,527.843 318.5,527.5C 319.183,525.824 320.517,525.157 322.5,525.5 Z"/></g>
<g><path style="opacity:1" fill="#5f5f5f" d="M 202.5,531.5 C 204.483,531.157 205.817,531.824 206.5,533.5C 204.517,533.843 203.183,533.176 202.5,531.5 Z"/></g>
<g><path style="opacity:1" fill="#bfbfbf" d="M 291.5,531.5 C 291.5,532.167 291.5,532.833 291.5,533.5C 271.5,533.5 251.5,533.5 231.5,533.5C 251.139,531.512 271.139,530.845 291.5,531.5 Z"/></g>
<g><path style="opacity:1" fill="#5b5b5b" d="M 291.5,531.5 C 292.586,531.62 293.253,532.287 293.5,533.5C 293.253,534.713 292.586,535.38 291.5,535.5C 291.5,534.833 291.5,534.167 291.5,533.5C 291.5,532.833 291.5,532.167 291.5,531.5 Z"/></g>
<g><path style="opacity:1" fill="#393939" d="M 279.5,552.5 C 279.446,554.632 278.446,555.965 276.5,556.5C 276.5,555.167 276.5,553.833 276.5,552.5C 277.5,552.5 278.5,552.5 279.5,552.5 Z"/></g>
<g><path style="opacity:1" fill="#171717" d="M 276.5,556.5 C 276.5,557.833 275.833,558.5 274.5,558.5C 274.5,557.167 275.167,556.5 276.5,556.5 Z"/></g>
<g><path style="opacity:1" fill="#0f0f10" d="M 274.5,558.5 C 274.5,559.833 273.833,560.5 272.5,560.5C 272.5,559.167 273.167,558.5 274.5,558.5 Z"/></g>
<g><path style="opacity:1" fill="#989898" d="M 513.5,558.5 C 512.817,560.176 511.483,560.843 509.5,560.5C 510.183,558.824 511.517,558.157 513.5,558.5 Z"/></g>
<g><path style="opacity:1" fill="#09090b" d="M 272.5,560.5 C 272.5,561.833 271.833,562.5 270.5,562.5C 270.5,561.167 271.167,560.5 272.5,560.5 Z"/></g>
<g><path style="opacity:1" fill="#040405" d="M 270.5,562.5 C 270.5,563.833 269.833,564.5 268.5,564.5C 268.5,563.167 269.167,562.5 270.5,562.5 Z"/></g>
<g><path style="opacity:1" fill="#040504" d="M 268.5,564.5 C 268.5,565.833 267.833,566.5 266.5,566.5C 266.5,565.167 267.167,564.5 268.5,564.5 Z"/></g>
<g><path style="opacity:1" fill="#747474" d="M 464.5,570.5 C 461.833,570.5 459.167,570.5 456.5,570.5C 457.334,569.252 458.667,568.585 460.5,568.5C 462.333,568.585 463.666,569.252 464.5,570.5 Z"/></g>
<g><path style="opacity:1" fill="#7e7e7e" d="M 161.5,572.5 C 162.833,572.5 164.167,572.5 165.5,572.5C 165.38,573.586 164.713,574.253 163.5,574.5C 162.287,574.253 161.62,573.586 161.5,572.5 Z"/></g>
<g><path style="opacity:1" fill="#888888" d="M 357.5,570.5 C 357.843,572.483 357.176,573.817 355.5,574.5C 355.157,572.517 355.824,571.183 357.5,570.5 Z"/></g>
<g><path style="opacity:1" fill="#888888" d="M 379.5,582.5 C 378.167,582.5 376.833,582.5 375.5,582.5C 375.62,581.414 376.287,580.747 377.5,580.5C 378.713,580.747 379.38,581.414 379.5,582.5 Z"/></g>
<g><path style="opacity:1" fill="#f6f6f6" d="M 883.5,589.5 C 880.167,590.167 876.833,590.833 873.5,591.5C 851.239,591.88 833.406,600.88 820,618.5C 816.674,612.537 816.674,606.537 820,600.5C 838.76,582.957 859.927,579.29 883.5,589.5 Z"/></g>
<g><path style="opacity:1" fill="#818181" d="M 355.5,583.5 C 355.843,585.483 355.176,586.817 353.5,587.5C 353.157,585.517 353.824,584.183 355.5,583.5 Z"/></g>
<g><path style="opacity:1" fill="#6a6a6a" d="M 151.5,576.5 C 153.456,582.412 154.123,588.745 153.5,595.5C 151.544,589.588 150.877,583.255 151.5,576.5 Z"/></g>
<g><path style="opacity:1" fill="#656565" d="M 883.5,589.5 C 884.043,589.56 884.376,589.893 884.5,590.5C 880.893,591.489 877.226,591.823 873.5,591.5C 876.833,590.833 880.167,590.167 883.5,589.5 Z"/></g>
<g><path style="opacity:1" fill="#989898" d="M 361.5,591.5 C 363.176,592.183 363.843,593.517 363.5,595.5C 361.824,594.817 361.157,593.483 361.5,591.5 Z"/></g>
<g><path style="opacity:1" fill="#f5f5f5" d="M 915.5,594.5 C 919.308,594.163 922.974,594.663 926.5,596C 930.016,599.349 933.349,602.849 936.5,606.5C 931.095,609.253 925.762,609.086 920.5,606C 917.462,603.297 914.795,600.297 912.5,597C 913.571,596.148 914.571,595.315 915.5,594.5 Z"/></g>
<g><path style="opacity:1" fill="#848485" d="M 211.5,595.5 C 210.817,597.176 209.483,597.843 207.5,597.5C 208.183,595.824 209.517,595.157 211.5,595.5 Z"/></g>
<g><path style="opacity:1" fill="#f6f6f6" d="M 365.5,615.5 C 365.5,614.167 365.5,612.833 365.5,611.5C 365.093,607.719 366.426,604.719 369.5,602.5C 374.297,600.683 379.13,599.016 384,597.5C 385.5,597.833 387,598.167 388.5,598.5C 392.466,607.678 396.132,617.011 399.5,626.5C 400.48,629.086 400.813,631.753 400.5,634.5C 393.468,634.83 386.468,634.497 379.5,633.5C 370.277,630.953 365.61,624.953 365.5,615.5 Z"/></g>
<g><path style="opacity:1" fill="#f5f5f5" d="M 867.5,597.5 C 872.717,597.242 877.884,597.575 883,598.5C 885.248,599.736 885.748,601.403 884.5,603.5C 872.376,607.229 860.709,612.062 849.5,618C 844.018,622.315 839.018,627.149 834.5,632.5C 826.908,634.028 824.408,631.028 827,623.5C 831.104,614.186 837.937,607.686 847.5,604C 854.179,601.505 860.846,599.338 867.5,597.5 Z"/></g>
<g><path style="opacity:1" fill="#b3b3b3" d="M 215.5,601.5 C 213.365,603.369 210.698,604.036 207.5,603.5C 209.635,601.631 212.302,600.964 215.5,601.5 Z"/></g>
<g><path style="opacity:1" fill="#c8c8c8" d="M 169.5,603.5 C 179.833,603.5 190.167,603.5 200.5,603.5C 195.712,604.828 190.546,605.495 185,605.5C 179.454,605.495 174.288,604.828 169.5,603.5 Z"/></g>
<g><path style="opacity:1" fill="#f8f8f8" d="M 906.5,602.5 C 906.301,611.904 901.301,617.737 891.5,620C 882.01,625.167 873.51,631.667 866,639.5C 863.616,643.325 861.616,647.325 860,651.5C 854.498,648.417 849.165,645.084 844,641.5C 844.026,633.449 847.526,627.283 854.5,623C 871.577,615.258 888.91,608.424 906.5,602.5 Z"/></g>
<g><path style="opacity:1" fill="#fafafa" d="M 918.5,608.5 C 916.342,620.449 913.175,632.449 909,644.5C 904.699,655.808 897.199,664.142 886.5,669.5C 879.648,665.909 873.315,661.575 867.5,656.5C 870.871,647.254 876.538,639.754 884.5,634C 893.003,628.916 901.336,623.583 909.5,618C 912.704,614.964 915.704,611.797 918.5,608.5 Z"/></g>
<g><path style="opacity:1" fill="#656565" d="M 365.5,611.5 C 365.5,612.833 365.5,614.167 365.5,615.5C 364.414,615.38 363.747,614.713 363.5,613.5C 363.747,612.287 364.414,611.62 365.5,611.5 Z"/></g>
<g><path style="opacity:1" fill="#424242" d="M 408.5,624.5 C 409.794,626.048 410.461,628.048 410.5,630.5C 410.461,632.952 409.794,634.952 408.5,636.5C 408.5,632.5 408.5,628.5 408.5,624.5 Z"/></g>
<g><path style="opacity:1" fill="#f5f5f5" d="M 919.5,632.5 C 922.821,636.821 924.154,641.821 923.5,647.5C 922.866,660.934 918.199,672.767 909.5,683C 904.909,683.726 900.575,683.059 896.5,681C 897.264,678.931 897.764,676.764 898,674.5C 909.12,662.594 916.287,648.594 919.5,632.5 Z"/></g>
<g><path style="opacity:1" fill="#fcfcfc" d="M 812.5,637.5 C 823.715,642.441 834.715,647.941 845.5,654C 850.411,657.078 854.078,661.244 856.5,666.5C 861.874,666.816 866.874,668.316 871.5,671C 876.534,675.699 881.2,680.699 885.5,686C 888.789,688.478 892.456,690.144 896.5,691C 897.794,693.087 898.961,695.254 900,697.5C 905.512,701.679 910.346,706.512 914.5,712C 904.885,725.282 893.552,736.949 880.5,747C 873.102,752.865 864.768,756.865 855.5,759C 851.006,762.414 846.34,765.581 841.5,768.5C 839.28,766.449 838.614,764.116 839.5,761.5C 844.92,759.694 850.254,757.694 855.5,755.5C 857.167,753.5 858.833,751.5 860.5,749.5C 865.813,745.355 870.98,741.021 876,736.5C 876.788,734.835 877.122,733.169 877,731.5C 875.266,732.249 873.433,732.749 871.5,733C 860.493,744.848 847.16,753.181 831.5,758C 827.638,758.913 823.972,758.58 820.5,757C 830.88,748.285 841.547,739.952 852.5,732C 853.711,731.107 853.711,730.274 852.5,729.5C 847.963,730.846 843.629,732.679 839.5,735C 830.315,742.027 820.315,747.527 809.5,751.5C 799.078,749.915 794.578,743.915 796,733.5C 800.777,723.446 805.944,713.612 811.5,704C 811.333,703.5 811.167,703 811,702.5C 803.635,709.53 796.635,716.864 790,724.5C 788.48,720.625 788.146,716.625 789,712.5C 793.927,701.649 800.594,691.982 809,683.5C 809.97,681.726 810.804,679.893 811.5,678C 810.991,676.831 810.158,675.998 809,675.5C 806.561,677.027 804.561,679.027 803,681.5C 796.467,692.579 788.967,702.913 780.5,712.5C 776.042,710.58 774.542,707.246 776,702.5C 779.024,692.429 783.024,682.762 788,673.5C 795.997,661.345 804.163,649.345 812.5,637.5 Z"/></g>
<g><path style="opacity:1" fill="#f5f5f5" d="M 930.5,636.5 C 938.088,648.875 940.254,662.208 937,676.5C 932.044,689.138 922.878,695.972 909.5,697C 925.127,679.956 932.127,659.79 930.5,636.5 Z"/></g>
<g><path style="opacity:1" fill="#9e9e9e" d="M 383.5,644.5 C 387.833,644.5 392.167,644.5 396.5,644.5C 394.777,645.8 392.61,646.467 390,646.5C 387.39,646.467 385.223,645.8 383.5,644.5 Z"/></g>
<g><path style="opacity:1" fill="#f3f3f3" d="M 946.5,677.5 C 950.801,688.424 947.801,696.924 937.5,703C 933.143,705.351 928.81,707.351 924.5,709C 931.664,698.344 938.997,687.844 946.5,677.5 Z"/></g>
<g><path style="opacity:1" fill="#f8f8f8" d="M 366.5,679.5 C 369.617,679.642 372.117,680.976 374,683.5C 376.434,686.795 378.101,690.462 379,694.5C 380.199,708.465 380.866,722.465 381,736.5C 382.888,752.277 389.555,765.61 401,776.5C 401.333,778.5 401.667,780.5 402,782.5C 406.074,786.119 410.241,789.619 414.5,793C 392.36,794.801 370.693,798.967 349.5,805.5C 349.167,805 348.833,804.5 348.5,804C 356.281,792.146 353.281,785.313 339.5,783.5C 333.865,784.495 328.198,785.162 322.5,785.5C 322.657,786.873 322.49,788.207 322,789.5C 322.153,779.316 317.32,772.816 307.5,770C 305.963,768.89 305.297,767.39 305.5,765.5C 308.187,765.336 310.854,765.503 313.5,766C 318.746,767.69 323.746,769.856 328.5,772.5C 330.029,772.471 331.196,771.804 332,770.5C 332.311,767.568 332.478,764.902 332.5,762.5C 334.258,763.128 335.758,764.128 337,765.5C 339.805,774.577 345.138,776.577 353,771.5C 353.536,769.433 353.036,767.599 351.5,766C 352,765.833 352.5,765.667 353,765.5C 361.398,769.949 369.565,774.782 377.5,780C 392.659,786.149 396.492,782.316 389,768.5C 368.013,743.053 341.18,727.386 308.5,721.5C 308.308,717.589 308.141,713.589 308,709.5C 303.642,704.393 298.142,700.893 291.5,699C 287.587,695.545 287.587,692.045 291.5,688.5C 296.444,685.656 301.111,686.156 305.5,690C 308.532,695.207 312.865,698.707 318.5,700.5C 320.441,700.196 322.107,699.363 323.5,698C 324.833,697.333 326.167,697.333 327.5,698C 336.849,711.357 347.682,723.523 360,734.5C 361.586,736.67 362.92,739.004 364,741.5C 366.333,744.167 368.667,744.167 371,741.5C 371.315,733.033 370.315,724.7 368,716.5C 365.523,710.236 363.357,703.903 361.5,697.5C 362.872,691.335 364.539,685.335 366.5,679.5 Z"/></g>
<g><path style="opacity:1" fill="#fafafa" d="M 407.5,715.5 C 409.679,715.84 411.512,716.84 413,718.5C 415.876,724.423 419.376,729.923 423.5,735C 427.491,737.11 431.824,738.11 436.5,738C 437,738.5 437.5,739 438,739.5C 438.776,748.799 439.442,758.133 440,767.5C 441.789,769.229 443.956,769.896 446.5,769.5C 446.302,779.197 445.635,788.864 444.5,798.5C 439.911,795.289 435.411,791.955 431,788.5C 432.074,779.711 429.241,772.544 422.5,767C 416.49,764.174 411.49,760.174 407.5,755C 410.633,752.233 412.299,748.733 412.5,744.5C 411.011,738.181 409.511,731.847 408,725.5C 407.502,722.183 407.335,718.85 407.5,715.5 Z"/></g>
<g><path style="opacity:1" fill="#f5f5f5" d="M 777.5,739.5 C 786.043,747.542 795.043,755.042 804.5,762C 802.487,765.069 799.82,766.735 796.5,767C 787.871,760.705 780.205,753.372 773.5,745C 775.439,743.568 776.772,741.735 777.5,739.5 Z"/></g>
<g><path style="opacity:1" fill="#f9f9f9" d="M 473.5,745.5 C 475.144,745.286 476.644,745.62 478,746.5C 479.424,750.793 481.591,754.626 484.5,758C 487.579,759.09 489.912,758.257 491.5,755.5C 491.833,755.833 492.167,756.167 492.5,756.5C 492.598,765.822 492.598,775.156 492.5,784.5C 495.109,785.589 497.609,785.255 500,783.5C 501.261,783.759 502.261,784.426 503,785.5C 504.737,789.661 505.737,793.995 506,798.5C 508.175,816.895 509.675,835.228 510.5,853.5C 503.843,847.011 497.01,840.678 490,834.5C 487.629,816.04 480.962,799.373 470,784.5C 469.195,780.091 470.195,776.091 473,772.5C 473.5,763.506 473.666,754.506 473.5,745.5 Z"/></g>
<g><path style="opacity:1" fill="#f9f9f9" d="M 764.5,752.5 C 774.602,758.978 784.102,766.311 793,774.5C 795.017,777.127 794.85,779.627 792.5,782C 786.947,783.57 781.281,783.903 775.5,783C 769.442,780.062 765.942,775.229 765,768.5C 764.501,763.177 764.334,757.844 764.5,752.5 Z"/></g>
<g><path style="opacity:1" fill="#f9f9f9" d="M 438.5,865.5 C 447.127,865.906 455.46,867.739 463.5,871C 469.493,870.868 475.493,870.868 481.5,871C 494.439,875.202 507.439,879.202 520.5,883C 521.167,883.667 521.833,884.333 522.5,885C 513.5,885.333 504.5,885.667 495.5,886C 488.688,886.413 482.021,887.58 475.5,889.5C 474.833,886.833 474.167,884.167 473.5,881.5C 472.833,881.167 472.167,880.833 471.5,880.5C 462.339,885.246 453.339,890.246 444.5,895.5C 443.81,892.81 442.143,891.143 439.5,890.5C 433.491,892.006 427.491,893.173 421.5,894C 422.833,892 422.833,890 421.5,888C 414.449,887.789 407.449,887.122 400.5,886C 396.017,884.594 392.017,882.428 388.5,879.5C 396.972,876.908 405.639,875.241 414.5,874.5C 414.5,872.5 414.5,870.5 414.5,868.5C 421.439,869.909 428.439,870.409 435.5,870C 436.386,868.385 437.386,866.885 438.5,865.5 Z"/></g>
</svg>
