<?xml version="1.0" encoding="UTF-8"?>
<!DOCTYPE svg PUBLIC "-//W3C//DTD SVG 1.1//EN" "http://www.w3.org/Graphics/SVG/1.1/DTD/svg11.dtd">
<svg xmlns="http://www.w3.org/2000/svg" version="1.1" width="516px" height="1265px" style="shape-rendering:geometricPrecision; text-rendering:geometricPrecision; image-rendering:optimizeQuality; fill-rule:evenodd; clip-rule:evenodd" xmlns:xlink="http://www.w3.org/1999/xlink">
<g><path style="opacity:1" fill="#fefefe" d="M -0.5,-0.5 C 171.5,-0.5 343.5,-0.5 515.5,-0.5C 515.5,421.167 515.5,842.833 515.5,1264.5C 343.5,1264.5 171.5,1264.5 -0.5,1264.5C -0.5,842.833 -0.5,421.167 -0.5,-0.5 Z"/></g>
<g><path style="opacity:1" fill="#050505" d="M 107.5,31.5 C 126.048,29.5538 143.048,33.7205 158.5,44C 166.848,50.1541 171.514,58.3208 172.5,68.5C 172.703,72.4114 171.87,76.0781 170,79.5C 169.035,83.7824 169.702,87.7824 172,91.5C 187.983,106.822 199.983,124.822 208,145.5C 211.477,156.931 211.143,168.264 207,179.5C 205.598,184.975 206.931,189.642 211,193.5C 217.044,197.876 222.044,203.21 226,209.5C 226.667,212.5 226.667,215.5 226,218.5C 223.211,224.72 222.877,231.054 225,237.5C 246.307,264.107 265.641,292.107 283,321.5C 326.252,396.66 363.919,473.993 396,553.5C 440.054,673.773 466.721,797.773 476,925.5C 477.75,928.246 478.75,931.246 479,934.5C 478.899,954.268 480.232,973.934 483,993.5C 483.667,1036.83 483.667,1080.17 483,1123.5C 482.04,1142.53 480.707,1161.53 479,1180.5C 477.981,1186.87 475.148,1192.21 470.5,1196.5C 466.632,1193.76 464.965,1189.93 465.5,1185C 466.568,1173.49 467.734,1161.99 469,1150.5C 469.205,1116.66 469.705,1082.82 470.5,1049C 470.374,1018.02 468.207,987.191 464,956.5C 462.971,937.168 461.971,917.835 461,898.5C 458.489,889.276 456.489,879.943 455,870.5C 449.565,816.889 440.565,763.889 428,711.5C 416.401,668.705 404.401,626.039 392,583.5C 387.258,571.687 382.258,560.02 377,548.5C 368.717,522.583 358.717,497.25 347,472.5C 327.885,437.272 309.552,401.605 292,365.5C 275.667,338.167 259.333,310.833 243,283.5C 234.564,270.44 225.064,258.274 214.5,247C 210.218,246.035 206.218,246.702 202.5,249C 192.671,251.001 184.171,248.501 177,241.5C 175.36,237.608 174.027,233.608 173,229.5C 169.901,225.034 165.735,223.534 160.5,225C 149.467,230.19 138.133,231.19 126.5,228C 107.202,219.11 89.7024,207.61 74,193.5C 68.3813,187.093 62.8813,180.593 57.5,174C 49.7363,171.409 42.0697,168.409 34.5,165C 22.3666,153.266 17.8666,139.1 21,122.5C 22.7942,115.196 24.4609,107.862 26,100.5C 27.5854,93.9979 30.252,87.9979 34,82.5C 35.8408,75.6062 37.1741,68.6062 38,61.5C 40.7441,53.755 45.9107,48.255 53.5,45C 71.4722,39.8403 89.4722,35.3403 107.5,31.5 Z"/></g>
<g><path style="opacity:1" fill="#f6f6f6" d="M 105.5,47.5 C 102.167,46.8333 98.8333,46.1667 95.5,45.5C 118.97,35.657 140.137,39.3237 159,56.5C 162.326,62.5371 162.326,68.5371 159,74.5C 145.605,56.8855 127.772,47.8855 105.5,47.5 Z"/></g>
<g><path style="opacity:1" fill="#646464" d="M 95.5,45.5 C 98.8333,46.1667 102.167,46.8333 105.5,47.5C 101.774,47.8226 98.1073,47.4892 94.5,46.5C 94.6236,45.8933 94.9569,45.56 95.5,45.5 Z"/></g>
<g><path style="opacity:1" fill="#f5f5f5" d="M 54.5,50.5 C 58.8691,49.9232 62.8691,50.7565 66.5,53C 62.0585,61.7195 55.0585,65.3862 45.5,64C 44.376,63.7508 43.376,63.2508 42.5,62.5C 46.2148,58.1185 50.2148,54.1185 54.5,50.5 Z"/></g>
<g><path style="opacity:1" fill="#f6f6f6" d="M 97.5,53.5 C 111.555,53.5134 124.888,56.6801 137.5,63C 145.435,67.9454 150.769,74.9454 153.5,84C 152.592,88.5858 149.926,90.2524 145.5,89C 140.494,83.6615 135.161,78.6615 129.5,74C 118.278,68.0927 106.612,63.2594 94.5,59.5C 93.3354,56.4954 94.3354,54.4954 97.5,53.5 Z"/></g>
<g><path style="opacity:1" fill="#f9f9f9" d="M 71.5,58.5 C 89.57,64.2464 107.237,71.0797 124.5,79C 131.474,83.2827 134.974,89.4494 135,97.5C 129.835,101.084 124.502,104.417 119,107.5C 116.279,99.2442 111.446,92.4109 104.5,87C 96.4548,80.9757 87.7881,75.9757 78.5,72C 74.9398,68.1649 72.6065,63.6649 71.5,58.5 Z"/></g>
<g><path style="opacity:1" fill="#fafafa" d="M 59.5,64.5 C 63.9979,68.8298 68.6646,72.9965 73.5,77C 82.1015,81.9388 90.4348,87.2721 98.5,93C 105.262,98.3909 109.428,105.224 111,113.5C 105.587,117.457 100.087,121.29 94.5,125C 93.1667,125.667 91.8333,125.667 90.5,125C 81.2091,118.936 74.3758,110.769 70,100.5C 66.1854,88.5721 62.6854,76.5721 59.5,64.5 Z"/></g>
<g><path style="opacity:1" fill="#f5f5f5" d="M 57.5,88.5 C 58.4972,88.4701 59.1639,88.9701 59.5,90C 63.1479,105.467 70.3146,118.967 81,130.5C 81.2362,132.764 81.7362,134.931 82.5,137C 78.4246,139.059 74.0912,139.726 69.5,139C 56.7641,124.224 52.7641,107.39 57.5,88.5 Z"/></g>
<g><path style="opacity:1" fill="#fcfcfc" d="M 163.5,93.5 C 164.822,93.33 165.989,93.6634 167,94.5C 175.391,105.892 183.391,117.559 191,129.5C 197.613,140.367 201.613,152.033 203,164.5C 201.975,167.089 200.142,168.255 197.5,168C 188.719,156.939 180.553,145.439 173,133.5C 170.859,130.676 169.026,130.842 167.5,134C 169.839,139.347 173.339,143.847 178,147.5C 182.432,154.263 186.432,161.263 190,168.5C 190.854,172.625 190.52,176.625 189,180.5C 182.365,172.864 175.365,165.53 168,158.5C 167.833,159 167.667,159.5 167.5,160C 173.056,169.612 178.223,179.446 183,189.5C 183.545,203.287 177.045,208.787 163.5,206C 155.164,201.501 147.164,196.501 139.5,191C 135.371,188.679 131.037,186.846 126.5,185.5C 125.289,186.274 125.289,187.107 126.5,188C 137.453,195.952 148.12,204.285 158.5,213C 155.028,214.58 151.362,214.913 147.5,214C 132.354,209.271 119.354,201.271 108.5,190C 106.305,188.627 103.971,188.294 101.5,189C 102.191,190.067 102.691,191.234 103,192.5C 108.02,197.021 113.187,201.355 118.5,205.5C 120.167,207.5 121.833,209.5 123.5,211.5C 128.746,213.694 134.08,215.694 139.5,217.5C 140.386,220.116 139.72,222.449 137.5,224.5C 132.66,221.581 127.994,218.414 123.5,215C 114.232,212.865 105.898,208.865 98.5,203C 85.448,192.949 74.1147,181.282 64.5,168C 68.6543,162.512 73.4876,157.679 79,153.5C 80.0395,151.254 81.2062,149.087 82.5,147C 86.538,146.101 90.2046,144.434 93.5,142C 97.7998,136.699 102.466,131.699 107.5,127C 112.126,124.316 117.126,122.816 122.5,122.5C 124.922,117.244 128.589,113.078 133.5,110C 143.723,104.726 153.723,99.2258 163.5,93.5 Z"/></g>
<g><path style="opacity:1" fill="#f5f5f5" d="M 47.5,92.5 C 46.8032,115.576 54.1366,135.742 69.5,153C 62.0181,153.18 55.5181,150.68 50,145.5C 41.5533,136.052 38.5533,125.052 41,112.5C 42.8742,105.711 45.0408,99.0448 47.5,92.5 Z"/></g>
<g><path style="opacity:1" fill="#f3f3f3" d="M 31.5,133.5 C 39.69,143.537 47.3567,154.037 54.5,165C 46.2585,162.449 39.0918,157.949 33,151.5C 30.2638,145.703 29.7638,139.703 31.5,133.5 Z"/></g>
<g><path style="opacity:1" fill="#f5f5f5" d="M 200.5,195.5 C 202.033,197.355 203.7,199.188 205.5,201C 198.795,209.372 191.129,216.705 182.5,223C 179.18,222.735 176.513,221.069 174.5,218C 183.95,211.382 192.616,203.882 200.5,195.5 Z"/></g>
<g><path style="opacity:1" fill="#f9f9f9" d="M 213.5,208.5 C 215.556,217.519 214.389,226.185 210,234.5C 208.269,236.617 206.102,238.117 203.5,239C 197.719,239.903 192.053,239.57 186.5,238C 184.15,235.627 183.983,233.127 186,230.5C 194.78,222.547 203.947,215.213 213.5,208.5 Z"/></g>
</svg>
