<?xml version="1.0" encoding="UTF-8"?>
<!DOCTYPE svg PUBLIC "-//W3C//DTD SVG 1.1//EN" "http://www.w3.org/Graphics/SVG/1.1/DTD/svg11.dtd">
<svg xmlns="http://www.w3.org/2000/svg" version="1.1" width="516px" height="1265px" style="shape-rendering:geometricPrecision; text-rendering:geometricPrecision; image-rendering:optimizeQuality; fill-rule:evenodd; clip-rule:evenodd" xmlns:xlink="http://www.w3.org/1999/xlink">
<g><path style="opacity:1" fill="#fefefe" d="M -0.5,-0.5 C 171.5,-0.5 343.5,-0.5 515.5,-0.5C 515.5,421.167 515.5,842.833 515.5,1264.5C 343.5,1264.5 171.5,1264.5 -0.5,1264.5C -0.5,842.833 -0.5,421.167 -0.5,-0.5 Z"/></g>
<g><path style="opacity:1" fill="#050505" d="M 386.5,31.5 C 396.937,31.0931 407.271,31.9264 417.5,34C 434.462,37.7396 451.129,42.4062 467.5,48C 472.252,51.4136 475.419,55.9136 477,61.5C 477.826,68.6062 479.159,75.6062 481,82.5C 484.748,87.9979 487.415,93.9979 489,100.5C 491.485,111.107 493.652,121.774 495.5,132.5C 494.674,145.316 489.674,156.15 480.5,165C 472.93,168.409 465.264,171.409 457.5,174C 443.235,193.265 425.569,208.599 404.5,220C 399.167,222.667 393.833,225.333 388.5,228C 383.756,229.297 378.923,230.13 374,230.5C 366.686,229.285 359.52,227.452 352.5,225C 348.048,224.14 344.548,225.64 342,229.5C 340.973,233.608 339.64,237.608 338,241.5C 327.549,250.389 316.215,251.723 304,245.5C 301.402,246.301 299.069,247.634 297,249.5C 288.281,260.552 279.947,271.886 272,283.5C 255.667,310.833 239.333,338.167 223,365.5C 205.448,401.605 187.115,437.272 168,472.5C 156.283,497.25 146.283,522.583 138,548.5C 132.742,560.02 127.742,571.687 123,583.5C 110.599,626.039 98.5989,668.705 87,711.5C 74.4352,763.889 65.4352,816.889 60,870.5C 58.5114,879.943 56.5114,889.276 54,898.5C 53.0121,934.296 50.3454,969.963 46,1005.5C 45.7366,1020.01 45.2366,1034.51 44.5,1049C 45.2951,1082.82 45.7951,1116.66 46,1150.5C 47.2657,1161.99 48.4323,1173.49 49.5,1185C 50.0349,1189.93 48.3683,1193.76 44.5,1196.5C 39.8519,1192.21 37.0186,1186.87 36,1180.5C 34.2933,1161.53 32.96,1142.53 32,1123.5C 31.3333,1080.17 31.3333,1036.83 32,993.5C 34.7678,973.934 36.1011,954.268 36,934.5C 36.2503,931.246 37.2503,928.246 39,925.5C 48.2788,797.773 74.9455,673.773 119,553.5C 151.081,473.993 188.748,396.66 232,321.5C 249.359,292.107 268.693,264.107 290,237.5C 292.123,231.054 291.789,224.72 289,218.5C 287.993,213.889 288.66,209.555 291,205.5C 297.708,200.459 303.375,194.459 308,187.5C 308.667,184.833 308.667,182.167 308,179.5C 303.857,168.264 303.523,156.931 307,145.5C 315.017,124.822 327.017,106.822 343,91.5C 345.298,87.7824 345.965,83.7824 345,79.5C 340.991,69.9323 341.991,60.9323 348,52.5C 358.681,41.4121 371.514,34.4121 386.5,31.5 Z"/></g>
<g><path style="opacity:1" fill="#f6f6f6" d="M 419.5,45.5 C 416.167,46.1667 412.833,46.8333 409.5,47.5C 387.239,47.8801 369.406,56.8801 356,74.5C 352.674,68.5371 352.674,62.5371 356,56.5C 374.76,38.9567 395.927,35.29 419.5,45.5 Z"/></g>
<g><path style="opacity:1" fill="#656565" d="M 419.5,45.5 C 420.043,45.56 420.376,45.8933 420.5,46.5C 416.893,47.4892 413.226,47.8226 409.5,47.5C 412.833,46.8333 416.167,46.1667 419.5,45.5 Z"/></g>
<g><path style="opacity:1" fill="#f5f5f5" d="M 451.5,50.5 C 455.308,50.1632 458.974,50.6632 462.5,52C 466.016,55.3486 469.349,58.8486 472.5,62.5C 467.095,65.2527 461.762,65.086 456.5,62C 453.462,59.2974 450.795,56.2974 448.5,53C 449.571,52.1482 450.571,51.3149 451.5,50.5 Z"/></g>
<g><path style="opacity:1" fill="#f5f5f5" d="M 403.5,53.5 C 408.717,53.2418 413.884,53.5751 419,54.5C 421.248,55.7365 421.748,57.4031 420.5,59.5C 408.376,63.2288 396.709,68.0621 385.5,74C 380.018,78.3154 375.018,83.1487 370.5,88.5C 362.908,90.0285 360.408,87.0285 363,79.5C 367.104,70.1864 373.937,63.6864 383.5,60C 390.179,57.505 396.846,55.3383 403.5,53.5 Z"/></g>
<g><path style="opacity:1" fill="#f8f8f8" d="M 442.5,58.5 C 442.301,67.9038 437.301,73.7371 427.5,76C 418.01,81.1665 409.51,87.6665 402,95.5C 399.616,99.3249 397.616,103.325 396,107.5C 390.498,104.417 385.165,101.084 380,97.5C 380.026,89.4494 383.526,83.2827 390.5,79C 407.577,71.2576 424.91,64.4243 442.5,58.5 Z"/></g>
<g><path style="opacity:1" fill="#fafafa" d="M 454.5,64.5 C 452.342,76.4495 449.175,88.4495 445,100.5C 440.699,111.808 433.199,120.142 422.5,125.5C 415.648,121.909 409.315,117.575 403.5,112.5C 406.871,103.254 412.538,95.7544 420.5,90C 429.003,84.9162 437.336,79.5829 445.5,74C 448.704,70.9641 451.704,67.7974 454.5,64.5 Z"/></g>
<g><path style="opacity:1" fill="#f5f5f5" d="M 455.5,88.5 C 458.821,92.8208 460.154,97.8208 459.5,103.5C 458.866,116.934 454.199,128.767 445.5,139C 440.909,139.726 436.575,139.059 432.5,137C 433.264,134.931 433.764,132.764 434,130.5C 445.12,118.594 452.287,104.594 455.5,88.5 Z"/></g>
<g><path style="opacity:1" fill="#fcfcfc" d="M 348.5,93.5 C 359.715,98.4407 370.715,103.941 381.5,110C 386.411,113.078 390.078,117.244 392.5,122.5C 397.874,122.816 402.874,124.316 407.5,127C 412.534,131.699 417.2,136.699 421.5,142C 424.789,144.478 428.456,146.144 432.5,147C 433.794,149.087 434.961,151.254 436,153.5C 441.512,157.679 446.346,162.512 450.5,168C 440.885,181.282 429.552,192.949 416.5,203C 409.102,208.865 400.768,212.865 391.5,215C 387.006,218.414 382.34,221.581 377.5,224.5C 375.28,222.449 374.614,220.116 375.5,217.5C 380.92,215.694 386.254,213.694 391.5,211.5C 393.167,209.5 394.833,207.5 396.5,205.5C 401.813,201.355 406.98,197.021 412,192.5C 412.788,190.835 413.122,189.169 413,187.5C 411.266,188.249 409.433,188.749 407.5,189C 396.493,200.848 383.16,209.181 367.5,214C 363.638,214.913 359.972,214.58 356.5,213C 366.88,204.285 377.547,195.952 388.5,188C 389.711,187.107 389.711,186.274 388.5,185.5C 383.963,186.846 379.629,188.679 375.5,191C 366.315,198.027 356.315,203.527 345.5,207.5C 335.078,205.915 330.578,199.915 332,189.5C 336.777,179.446 341.944,169.612 347.5,160C 347.333,159.5 347.167,159 347,158.5C 339.635,165.53 332.635,172.864 326,180.5C 324.48,176.625 324.146,172.625 325,168.5C 329.927,157.649 336.594,147.982 345,139.5C 345.97,137.726 346.804,135.893 347.5,134C 346.991,132.831 346.158,131.998 345,131.5C 342.561,133.027 340.561,135.027 339,137.5C 332.467,148.579 324.967,158.913 316.5,168.5C 312.042,166.58 310.542,163.246 312,158.5C 315.024,148.429 319.024,138.762 324,129.5C 331.997,117.345 340.163,105.345 348.5,93.5 Z"/></g>
<g><path style="opacity:1" fill="#f5f5f5" d="M 466.5,92.5 C 474.088,104.875 476.254,118.208 473,132.5C 468.044,145.138 458.878,151.972 445.5,153C 461.127,135.956 468.127,115.79 466.5,92.5 Z"/></g>
<g><path style="opacity:1" fill="#f3f3f3" d="M 482.5,133.5 C 486.801,144.424 483.801,152.924 473.5,159C 469.143,161.351 464.81,163.351 460.5,165C 467.664,154.344 474.997,143.844 482.5,133.5 Z"/></g>
<g><path style="opacity:1" fill="#f5f5f5" d="M 313.5,195.5 C 322.043,203.542 331.043,211.042 340.5,218C 338.487,221.069 335.82,222.735 332.5,223C 323.871,216.705 316.205,209.372 309.5,201C 311.439,199.568 312.772,197.735 313.5,195.5 Z"/></g>
<g><path style="opacity:1" fill="#f9f9f9" d="M 300.5,208.5 C 310.602,214.978 320.102,222.311 329,230.5C 331.017,233.127 330.85,235.627 328.5,238C 322.947,239.57 317.281,239.903 311.5,239C 305.442,236.062 301.942,231.229 301,224.5C 300.501,219.177 300.334,213.844 300.5,208.5 Z"/></g>
</svg>
