<?xml version="1.0" encoding="UTF-8"?>
<!DOCTYPE svg PUBLIC "-//W3C//DTD SVG 1.1//EN" "http://www.w3.org/Graphics/SVG/1.1/DTD/svg11.dtd">
<svg xmlns="http://www.w3.org/2000/svg" version="1.1" width="751px" height="1803px" style="shape-rendering:geometricPrecision; text-rendering:geometricPrecision; image-rendering:optimizeQuality; fill-rule:evenodd; clip-rule:evenodd" xmlns:xlink="http://www.w3.org/1999/xlink">
<g><path style="opacity:1" fill="#fefefe" d="M -0.5,-0.5 C 249.833,-0.5 500.167,-0.5 750.5,-0.5C 750.5,600.5 750.5,1201.5 750.5,1802.5C 500.167,1802.5 249.833,1802.5 -0.5,1802.5C -0.5,1201.5 -0.5,600.5 -0.5,-0.5 Z"/></g>
<g><path style="opacity:1" fill="#afafaf" d="M 364.5,33.5 C 356.833,33.5 349.167,33.5 341.5,33.5C 344.938,32.1768 348.771,31.5102 353,31.5C 357.229,31.5102 361.062,32.1768 364.5,33.5 Z"/></g>
<g><path style="opacity:1" fill="#080809" d="M 341.5,33.5 C 349.167,33.5 356.833,33.5 364.5,33.5C 373.207,34.0291 381.873,35.0291 390.5,36.5C 405.57,39.8416 420.57,43.5083 435.5,47.5C 439.02,49.7603 442.687,51.7603 446.5,53.5C 450.167,57.1667 453.833,60.8333 457.5,64.5C 458.429,65.6888 458.762,67.0222 458.5,68.5C 459.833,68.5 461.167,68.5 462.5,68.5C 462.238,69.9778 462.571,71.3112 463.5,72.5C 468.095,76.4239 472.095,80.7572 475.5,85.5C 475.5,86.8333 476.167,87.5 477.5,87.5C 488.685,102.064 498.352,117.731 506.5,134.5C 513.403,151.534 519.736,168.867 525.5,186.5C 527.132,189.146 529.465,190.479 532.5,190.5C 534.223,191.8 536.39,192.467 539,192.5C 541.61,192.467 543.777,191.8 545.5,190.5C 552.167,190.5 558.833,190.5 565.5,190.5C 567.635,192.369 570.302,193.036 573.5,192.5C 578.474,193.326 583.474,193.993 588.5,194.5C 589.183,196.176 590.517,196.843 592.5,196.5C 607.229,199.219 619.563,206.219 629.5,217.5C 631.996,218.58 634.33,219.914 636.5,221.5C 638.577,222.988 639.577,224.988 639.5,227.5C 640.978,227.238 642.311,227.571 643.5,228.5C 647.203,231.867 650.536,235.534 653.5,239.5C 655.517,242.55 656.517,245.883 656.5,249.5C 656.5,252.5 656.5,255.5 656.5,258.5C 656.5,261.167 656.5,263.833 656.5,266.5C 655.184,269.087 654.517,272.087 654.5,275.5C 654.517,278.913 655.184,281.913 656.5,284.5C 657.922,294.344 662.255,302.677 669.5,309.5C 672.672,313.841 675.339,318.508 677.5,323.5C 678.484,326.428 678.817,329.428 678.5,332.5C 676.631,334.635 675.964,337.302 676.5,340.5C 676.5,344.5 676.5,348.5 676.5,352.5C 674.631,354.635 673.964,357.302 674.5,360.5C 674.5,362.167 674.5,363.833 674.5,365.5C 672.824,366.183 672.157,367.517 672.5,369.5C 670.91,386.555 668.91,403.555 666.5,420.5C 665.252,421.334 664.585,422.667 664.5,424.5C 664.585,426.333 665.252,427.666 666.5,428.5C 669.933,431.389 673.933,433.556 678.5,435C 692.829,435.5 707.163,435.667 721.5,435.5C 722.5,436.833 723.5,438.167 724.5,439.5C 724.179,441.048 723.179,441.715 721.5,441.5C 721.479,444.535 720.146,446.868 717.5,448.5C 697.882,456.038 678.215,463.372 658.5,470.5C 651.346,473.65 645.346,478.317 640.5,484.5C 631.528,498.291 623.528,512.625 616.5,527.5C 616.017,538.581 615.017,549.581 613.5,560.5C 609.16,565.146 604.16,568.479 598.5,570.5C 596.544,576.412 595.877,582.745 596.5,589.5C 596.479,592.535 595.146,594.868 592.5,596.5C 586.872,597.495 581.206,597.829 575.5,597.5C 566.833,597.5 558.167,597.5 549.5,597.5C 547.167,597.5 544.833,597.5 542.5,597.5C 541.817,595.824 540.483,595.157 538.5,595.5C 530.035,594.945 522.035,592.611 514.5,588.5C 502.572,580.903 492.238,571.57 483.5,560.5C 484.978,560.238 486.311,560.571 487.5,561.5C 493.853,566.685 500.353,571.685 507,576.5C 512.663,578.248 517.83,580.915 522.5,584.5C 527.833,586.5 533.167,588.5 538.5,590.5C 549.5,591.833 560.5,591.833 571.5,590.5C 577.447,589.59 583.114,587.923 588.5,585.5C 587.347,578.86 584.347,573.194 579.5,568.5C 573.234,558.962 567.234,549.296 561.5,539.5C 563.5,539.5 565.5,539.5 567.5,539.5C 572.909,548.648 578.575,557.648 584.5,566.5C 584.62,567.586 585.287,568.253 586.5,568.5C 587.713,568.253 588.38,567.586 588.5,566.5C 595.819,564.674 602.819,562.007 609.5,558.5C 608.404,548.986 608.404,539.32 609.5,529.5C 612.033,523.568 614.366,517.568 616.5,511.5C 621.415,505.33 626.082,498.996 630.5,492.5C 631.429,491.311 631.762,489.978 631.5,488.5C 627.191,488.244 623.191,489.244 619.5,491.5C 613.643,495.259 607.977,499.259 602.5,503.5C 595.549,506.642 588.883,510.309 582.5,514.5C 576.244,517.363 569.91,520.029 563.5,522.5C 559.629,524.126 555.629,525.126 551.5,525.5C 548.302,524.964 545.635,525.631 543.5,527.5C 535.167,527.5 526.833,527.5 518.5,527.5C 498.861,525.512 478.861,524.845 458.5,525.5C 457.414,525.62 456.747,526.287 456.5,527.5C 456.747,528.713 457.414,529.38 458.5,529.5C 460.983,534.779 464.65,539.112 469.5,542.5C 470.429,543.689 470.762,545.022 470.5,546.5C 462.539,539.879 454.539,533.213 446.5,526.5C 441.554,524.519 436.554,522.853 431.5,521.5C 430.817,519.824 429.483,519.157 427.5,519.5C 425.5,519.5 423.5,519.5 421.5,519.5C 421.5,518.833 421.5,518.167 421.5,517.5C 427.167,517.5 432.833,517.5 438.5,517.5C 439.586,517.38 440.253,516.713 440.5,515.5C 440.253,514.287 439.586,513.62 438.5,513.5C 438.5,511.167 438.5,508.833 438.5,506.5C 445.594,509.534 452.928,512.201 460.5,514.5C 474.15,515.499 487.817,515.833 501.5,515.5C 503.483,515.843 504.817,515.176 505.5,513.5C 507.167,513.5 508.833,513.5 510.5,513.5C 513.167,513.5 515.833,513.5 518.5,513.5C 522.309,513.975 524.975,515.975 526.5,519.5C 528.397,520.805 530.731,521.471 533.5,521.5C 536.269,521.471 538.603,520.805 540.5,519.5C 546.897,519.021 553.23,518.021 559.5,516.5C 583.077,506.718 605.077,494.385 625.5,479.5C 636.193,474.318 647.193,469.984 658.5,466.5C 663.352,464.211 668.018,461.544 672.5,458.5C 674.601,455.73 677.268,453.73 680.5,452.5C 681.833,450.5 683.167,448.5 684.5,446.5C 677.747,441.362 670.08,439.028 661.5,439.5C 657.833,439.833 654.167,440.167 650.5,440.5C 648.434,442.717 646.1,444.717 643.5,446.5C 642.311,447.429 640.978,447.762 639.5,447.5C 639.5,448.833 639.5,450.167 639.5,451.5C 635.989,452.644 632.656,454.311 629.5,456.5C 616.891,471.297 601.891,482.964 584.5,491.5C 582.257,492.474 579.924,492.808 577.5,492.5C 577.5,491.167 577.5,489.833 577.5,488.5C 587.812,485.844 596.812,480.844 604.5,473.5C 605.689,472.571 607.022,472.238 608.5,472.5C 608.5,471.5 608.5,470.5 608.5,469.5C 609.978,469.762 611.311,469.429 612.5,468.5C 623.239,455.759 635.239,444.426 648.5,434.5C 649.429,433.311 649.762,431.978 649.5,430.5C 646.068,430.243 642.734,429.576 639.5,428.5C 638.306,427.223 636.64,426.556 634.5,426.5C 632.36,426.556 630.694,427.223 629.5,428.5C 626.142,429.285 622.809,430.285 619.5,431.5C 617.908,433.451 615.908,434.784 613.5,435.5C 608.094,441.243 602.428,446.576 596.5,451.5C 595.167,451.5 593.833,451.5 592.5,451.5C 592.201,449.396 592.534,447.396 593.5,445.5C 599.864,438.801 606.531,432.468 613.5,426.5C 614.104,423.737 615.438,421.403 617.5,419.5C 615.955,418.548 614.288,418.215 612.5,418.5C 611.817,416.824 610.483,416.157 608.5,416.5C 602.59,415.183 596.59,414.516 590.5,414.5C 587.402,413.179 583.902,412.512 580,412.5C 576.098,412.512 572.598,413.179 569.5,414.5C 564.088,414.65 558.754,415.317 553.5,416.5C 554.036,413.302 553.369,410.635 551.5,408.5C 550.88,406.023 549.88,406.023 548.5,408.5C 546.54,407.277 544.707,405.944 543,404.5C 542.501,410.491 542.334,416.491 542.5,422.5C 540.824,423.183 540.157,424.517 540.5,426.5C 537.484,440.533 530.817,452.533 520.5,462.5C 519.311,463.429 517.978,463.762 516.5,463.5C 517.562,459.412 519.896,456.079 523.5,453.5C 534.89,437.608 539.556,419.942 537.5,400.5C 529.971,393.983 521.638,388.65 512.5,384.5C 506.563,382.952 500.896,383.619 495.5,386.5C 482.45,400.6 472.45,416.6 465.5,434.5C 464.833,434.833 464.167,435.167 463.5,435.5C 462.624,441.252 460.624,446.585 457.5,451.5C 456.52,454.086 456.187,456.753 456.5,459.5C 455.167,459.5 453.833,459.5 452.5,459.5C 452.5,456.833 452.5,454.167 452.5,451.5C 454.176,450.817 454.843,449.483 454.5,447.5C 457.696,438.662 460.696,429.662 463.5,420.5C 464.833,417.167 464.833,413.833 463.5,410.5C 461.999,409.248 460.332,408.248 458.5,407.5C 450.889,405.953 443.222,404.953 435.5,404.5C 433.365,402.631 430.698,401.964 427.5,402.5C 420.974,401.229 415.641,397.896 411.5,392.5C 407.348,389.588 403.015,386.921 398.5,384.5C 394.5,383.167 390.5,383.167 386.5,384.5C 384.129,387.206 381.463,389.539 378.5,391.5C 377.328,391.081 376.328,390.415 375.5,389.5C 374.11,381.287 369.277,377.954 361,379.5C 355.135,380.065 349.301,380.731 343.5,381.5C 340.302,380.964 337.635,381.631 335.5,383.5C 326.377,384.391 317.377,386.058 308.5,388.5C 303.701,392.296 300.035,396.963 297.5,402.5C 296.167,408.5 296.167,414.5 297.5,420.5C 309.847,448.241 328.513,470.575 353.5,487.5C 362.698,493.601 372.365,498.934 382.5,503.5C 394.851,507.509 407.185,511.509 419.5,515.5C 419.5,516.167 419.5,516.833 419.5,517.5C 409.731,515.974 400.064,513.974 390.5,511.5C 389.082,509.692 387.082,509.025 384.5,509.5C 381.379,509.462 378.379,508.795 375.5,507.5C 374.5,507.833 373.5,508.167 372.5,508.5C 378.042,519.585 383.042,530.919 387.5,542.5C 390.119,549.641 391.786,556.974 392.5,564.5C 392.157,566.483 392.824,567.817 394.5,568.5C 394.5,571.5 394.5,574.5 394.5,577.5C 394.157,579.483 394.824,580.817 396.5,581.5C 397.306,594.83 395.64,607.83 391.5,620.5C 387.057,628.276 380.724,633.943 372.5,637.5C 370.604,638.466 368.604,638.799 366.5,638.5C 362.833,638.5 359.167,638.5 355.5,638.5C 352.753,638.813 350.086,638.48 347.5,637.5C 346.012,635.423 344.012,634.423 341.5,634.5C 341.5,633.167 341.5,631.833 341.5,630.5C 341.5,626.5 341.5,622.5 341.5,618.5C 344.999,610.485 347.666,602.151 349.5,593.5C 349.346,589.902 348.346,586.569 346.5,583.5C 342.993,581.246 339.327,579.246 335.5,577.5C 321.463,573.16 307.463,568.826 293.5,564.5C 292.666,563.252 291.333,562.585 289.5,562.5C 287.667,562.585 286.334,563.252 285.5,564.5C 282.223,564.216 279.057,564.549 276,565.5C 238.834,667.334 209.168,771.334 187,877.5C 185.825,887.559 184.325,897.559 182.5,907.5C 182.123,911.859 181.956,916.192 182,920.5C 195.331,897.522 211.331,876.522 230,857.5C 232.532,833.185 234.865,808.852 237,784.5C 238.165,776.434 242.665,771.768 250.5,770.5C 250.069,765.68 249.736,760.847 249.5,756C 248.258,745.242 252.924,740.575 263.5,742C 265.081,737.093 268.081,733.427 272.5,731C 281.606,731.292 285.606,736.125 284.5,745.5C 282.183,754.683 283.35,763.349 288,771.5C 288.667,774.167 288.667,776.833 288,779.5C 284,786.167 280,792.833 276,799.5C 272.957,806.285 270.957,813.285 270,820.5C 278.045,813.453 286.378,806.787 295,800.5C 296.058,795.065 296.558,789.565 296.5,784C 296.092,776.82 295.926,769.653 296,762.5C 296.939,759.06 299.105,756.727 302.5,755.5C 303.092,747.113 303.925,738.779 305,730.5C 308.868,724.653 314.368,722.153 321.5,723C 325.47,716.431 329.804,710.097 334.5,704C 348.125,697.279 353.291,701.445 350,716.5C 348.974,723.604 347.474,730.604 345.5,737.5C 347.342,740.864 349.009,744.364 350.5,748C 347.98,756.857 342.313,762.857 333.5,766C 330.202,768.464 327.868,771.63 326.5,775.5C 341.99,769.167 352.823,757.833 359,741.5C 360.158,737.203 361.158,732.869 362,728.5C 362.089,714.121 362.755,699.787 364,685.5C 365.972,677.35 370.472,671.184 377.5,667C 383.422,665.345 388.255,666.845 392,671.5C 392.609,678.379 394.109,685.045 396.5,691.5C 394.917,698.006 392.751,704.339 390,710.5C 389.005,713.126 388.672,715.793 389,718.5C 394.667,712.833 400.333,707.167 406,701.5C 409.062,695.77 412.896,690.603 417.5,686C 422.515,682.595 427.181,682.761 431.5,686.5C 435.318,683.182 438.985,679.682 442.5,676C 453.47,670.213 461.97,672.713 468,683.5C 469.874,690.011 468.041,695.178 462.5,699C 458.34,700.912 454.34,703.079 450.5,705.5C 452.576,715.88 448.576,722.38 438.5,725C 409.61,730.104 385.943,743.938 367.5,766.5C 367.833,766.833 368.167,767.167 368.5,767.5C 377.297,762.532 385.964,757.366 394.5,752C 399.098,750.976 403.432,751.476 407.5,753.5C 414.932,747.779 423.265,745.613 432.5,747C 435.023,747.518 437.023,748.852 438.5,751C 449.346,750.493 453.513,755.327 451,765.5C 447.027,769.318 442.694,772.651 438,775.5C 437.148,778.988 435.981,782.322 434.5,785.5C 432.044,786.948 429.378,787.614 426.5,787.5C 419.87,786.226 413.204,785.726 406.5,786C 405.941,786.725 405.608,787.558 405.5,788.5C 406.457,791.28 407.624,793.947 409,796.5C 409.705,803.959 406.205,807.292 398.5,806.5C 380.498,801.249 362.165,797.749 343.5,796C 336.5,795.333 329.5,795.333 322.5,796C 293.116,816.368 265.783,839.368 240.5,865C 249.863,862.772 259.196,860.105 268.5,857C 274.162,857.073 279.829,857.073 285.5,857C 293.051,854.649 300.718,852.816 308.5,851.5C 313.323,852.504 317.823,854.17 322,856.5C 328.146,855.49 334.313,855.324 340.5,856C 343.265,857.097 344.931,859.097 345.5,862C 352.596,862.871 359.596,864.204 366.5,866C 371.772,874.169 369.772,880.169 360.5,884C 354.881,885.988 349.214,887.821 343.5,889.5C 346.324,898.079 343.324,900.913 334.5,898C 328.601,896.253 322.601,895.087 316.5,894.5C 317.002,898.171 315.502,900.505 312,901.5C 302.609,896.888 293.442,891.888 284.5,886.5C 284.366,890.11 282.533,891.776 279,891.5C 260.002,887.766 240.835,886.6 221.5,888C 211.014,899.447 201.847,911.947 194,925.5C 185.412,941.008 177.079,956.675 169,972.5C 164.845,997.272 160.179,1021.94 155,1046.5C 154.848,1054.93 154.015,1063.26 152.5,1071.5C 152.54,1073.43 152.873,1075.26 153.5,1077C 146.758,1083.77 144.758,1091.77 147.5,1101C 139.806,1152.92 134.306,1205.08 131,1257.5C 129.3,1331.17 129.3,1404.84 131,1478.5C 134.37,1523.79 137.037,1569.12 139,1614.5C 140.888,1621.05 142.222,1627.71 143,1634.5C 144.928,1660.18 146.928,1685.85 149,1711.5C 153.038,1726.21 155.038,1741.21 155,1756.5C 156.098,1761.79 157.598,1766.96 159.5,1772C 159.332,1775.84 157.665,1778.84 154.5,1781C 152.888,1781.72 151.388,1781.55 150,1780.5C 147.128,1770.22 144.461,1759.88 142,1749.5C 138.186,1714.88 134.853,1680.21 132,1645.5C 129.774,1639.37 128.441,1633.04 128,1626.5C 127.667,1616.5 127.333,1606.5 127,1596.5C 125.342,1587.55 124.009,1578.55 123,1569.5C 120.436,1519 117.936,1468.5 115.5,1418C 116.525,1384.5 116.692,1351 116,1317.5C 116.455,1304.74 117.788,1292.07 120,1279.5C 120.333,1264.5 120.667,1249.5 121,1234.5C 123.873,1209.58 125.873,1184.58 127,1159.5C 129.751,1145.98 131.085,1132.31 131,1118.5C 132.662,1111.84 134.328,1105.17 136,1098.5C 136.333,1090.5 136.667,1082.5 137,1074.5C 138.459,1071.25 139.626,1067.92 140.5,1064.5C 139.511,1061.18 138.511,1057.85 137.5,1054.5C 140.161,1044.42 143.661,1034.75 148,1025.5C 148.115,1013.75 149.115,1002.09 151,990.5C 164.717,922.965 179.384,855.632 195,788.5C 196.427,779.514 197.76,770.514 199,761.5C 199.333,736.833 199.667,712.167 200,687.5C 202.667,686.167 205.333,686.167 208,687.5C 208.5,697.828 208.666,708.161 208.5,718.5C 211.833,718.973 214,717.64 215,714.5C 228.959,663.621 246.293,613.954 267,565.5C 267.494,563.866 267.66,562.199 267.5,560.5C 255.803,557.759 244.136,554.759 232.5,551.5C 227.679,549.591 223.346,546.925 219.5,543.5C 216.833,542.5 214.167,541.5 211.5,540.5C 204.521,534.677 197.188,529.344 189.5,524.5C 179.444,513.781 169.444,503.114 159.5,492.5C 153.706,483.245 148.706,473.578 144.5,463.5C 141.581,457.004 139.248,450.338 137.5,443.5C 137.843,441.517 137.176,440.183 135.5,439.5C 132.044,426.924 126.71,415.257 119.5,404.5C 119.5,403.167 118.833,402.5 117.5,402.5C 108.536,393.197 99.8692,383.53 91.5,373.5C 89.7603,369.687 87.7603,366.02 85.5,362.5C 83.5461,358.02 82.5461,353.353 82.5,348.5C 82.8432,346.517 82.1765,345.183 80.5,344.5C 80.5,339.833 80.5,335.167 80.5,330.5C 81.8086,328.429 82.4752,325.929 82.5,323C 82.4752,320.071 81.8086,317.571 80.5,315.5C 80.4456,313.368 79.4456,312.035 77.5,311.5C 74.6627,309.598 71.3293,308.931 67.5,309.5C 63.3136,308.411 59.3136,306.744 55.5,304.5C 49.5982,293.275 46.9315,281.275 47.5,268.5C 47.5,264.167 47.5,259.833 47.5,255.5C 47.238,254.022 47.5713,252.689 48.5,251.5C 59.5172,242.146 70.1839,232.479 80.5,222.5C 86.0574,220.722 91.3907,218.389 96.5,215.5C 99.0865,214.52 101.753,214.187 104.5,214.5C 108.167,214.5 111.833,214.5 115.5,214.5C 124.608,216.387 132.608,220.387 139.5,226.5C 140.689,227.429 142.022,227.762 143.5,227.5C 143.5,228.833 143.5,230.167 143.5,231.5C 144.978,231.238 146.311,231.571 147.5,232.5C 149.795,235.797 152.462,238.797 155.5,241.5C 156.495,236.208 156.828,230.875 156.5,225.5C 158.388,223.012 159.055,220.012 158.5,216.5C 157.897,211.381 158.564,206.715 160.5,202.5C 160.5,220.5 160.5,238.5 160.5,256.5C 160.157,258.483 160.824,259.817 162.5,260.5C 162.173,265.214 162.507,269.88 163.5,274.5C 168.856,291.953 176.856,307.953 187.5,322.5C 191.5,326.167 195.5,329.833 199.5,333.5C 216.375,344.581 234.375,353.581 253.5,360.5C 254.5,360.167 255.5,359.833 256.5,359.5C 253.073,356.744 250.407,353.41 248.5,349.5C 247.311,348.571 245.978,348.238 244.5,348.5C 244.762,347.022 244.429,345.689 243.5,344.5C 236.803,337.468 229.803,330.802 222.5,324.5C 220.666,322.502 219.666,320.168 219.5,317.5C 218.022,317.762 216.689,317.429 215.5,316.5C 210.095,310.424 204.095,305.091 197.5,300.5C 193.911,298.537 190.244,296.87 186.5,295.5C 186.5,294.5 186.5,293.5 186.5,292.5C 189.249,292.274 191.916,292.607 194.5,293.5C 201.007,297.586 207.34,301.92 213.5,306.5C 222.167,316.5 231.5,325.833 241.5,334.5C 242.167,335.833 242.833,337.167 243.5,338.5C 248.534,343.199 253.2,348.199 257.5,353.5C 258.988,355.577 260.988,356.577 263.5,356.5C 263.238,355.022 263.571,353.689 264.5,352.5C 266.412,350.343 268.079,348.009 269.5,345.5C 258.954,332.948 247.621,320.948 235.5,309.5C 231.16,303.665 226.66,297.998 222,292.5C 219.025,288.217 216.859,283.55 215.5,278.5C 217.492,278.328 219.158,278.995 220.5,280.5C 222.397,284.736 224.73,288.736 227.5,292.5C 233.876,297.209 239.209,302.875 243.5,309.5C 249.3,314.294 253.967,319.96 257.5,326.5C 258.689,327.429 260.022,327.762 261.5,327.5C 264.009,318.628 268.676,310.961 275.5,304.5C 276.689,303.571 278.022,303.238 279.5,303.5C 282.082,303.975 284.082,303.308 285.5,301.5C 287.517,295.259 290.517,289.259 294.5,283.5C 298.855,281.096 303.522,280.096 308.5,280.5C 309.183,282.176 310.517,282.843 312.5,282.5C 314.916,283.968 317.583,284.635 320.5,284.5C 320.093,280.719 321.426,277.719 324.5,275.5C 326.795,274.864 328.461,273.531 329.5,271.5C 332.5,270.5 335.5,269.5 338.5,268.5C 363.363,275.787 387.696,284.454 411.5,294.5C 417.614,299.945 424.28,304.612 431.5,308.5C 433.543,310.208 435.21,312.208 436.5,314.5C 445.564,316.562 451.897,321.895 455.5,330.5C 458.463,328.539 461.129,326.206 463.5,323.5C 466.6,319.407 469.267,315.074 471.5,310.5C 474.167,307.833 476.833,305.167 479.5,302.5C 480.689,301.571 482.022,301.238 483.5,301.5C 483.762,302.978 483.429,304.311 482.5,305.5C 476.196,310.129 471.862,316.129 469.5,323.5C 465.78,328.077 461.78,332.41 457.5,336.5C 456.571,337.689 456.238,339.022 456.5,340.5C 460.5,340.5 464.5,340.5 468.5,340.5C 468.5,341.833 468.5,343.167 468.5,344.5C 471.453,342.911 474.453,341.244 477.5,339.5C 485.887,330.153 496.22,324.153 508.5,321.5C 508.643,323.262 508.309,324.929 507.5,326.5C 504.095,327.289 500.761,328.289 497.5,329.5C 490.833,334.833 484.167,340.167 477.5,345.5C 476.311,346.429 474.978,346.762 473.5,346.5C 473.5,351.167 473.5,355.833 473.5,360.5C 474.978,360.762 476.311,360.429 477.5,359.5C 487.174,349.164 498.841,342.164 512.5,338.5C 512.672,340.492 512.005,342.158 510.5,343.5C 505.109,346.742 499.443,349.409 493.5,351.5C 491.399,354.27 488.732,356.27 485.5,357.5C 483.461,359.874 481.128,361.874 478.5,363.5C 477.571,364.689 477.238,366.022 477.5,367.5C 476.307,367.97 475.64,368.97 475.5,370.5C 475.64,372.03 476.307,373.03 477.5,373.5C 477.5,375.5 477.5,377.5 477.5,379.5C 477.5,382.167 477.5,384.833 477.5,387.5C 479.483,387.843 480.817,387.176 481.5,385.5C 487.201,381.49 493.201,377.824 499.5,374.5C 507.074,372.743 514.074,374.076 520.5,378.5C 532.335,387.251 545.335,393.584 559.5,397.5C 560.183,399.176 561.517,399.843 563.5,399.5C 580.354,403.254 597.354,406.254 614.5,408.5C 616.988,410.388 619.988,411.055 623.5,410.5C 626.167,410.5 628.833,410.5 631.5,410.5C 633.635,412.369 636.302,413.036 639.5,412.5C 649.073,414.177 657.073,411.51 663.5,404.5C 664.452,402.955 664.785,401.288 664.5,399.5C 665.748,398.666 666.415,397.333 666.5,395.5C 666.415,393.667 665.748,392.334 664.5,391.5C 664.799,389.396 664.466,387.396 663.5,385.5C 661.408,382.319 659.075,379.319 656.5,376.5C 660.165,375.003 663.498,373.003 666.5,370.5C 662.63,367.735 658.63,365.235 654.5,363C 657.102,361.86 659.769,361.027 662.5,360.5C 662.5,359.167 662.5,357.833 662.5,356.5C 663.833,356.5 665.167,356.5 666.5,356.5C 667.833,352.5 669.167,348.5 670.5,344.5C 672.176,343.817 672.843,342.483 672.5,340.5C 674.932,328.704 670.932,320.037 660.5,314.5C 654.875,312.56 649.208,310.893 643.5,309.5C 643.5,308.167 643.5,306.833 643.5,305.5C 645.929,305.116 648.263,304.449 650.5,303.5C 651.586,303.38 652.253,302.713 652.5,301.5C 652.253,300.287 651.586,299.62 650.5,299.5C 650.466,293.628 649.466,287.961 647.5,282.5C 647.03,281.307 646.03,280.64 644.5,280.5C 642.97,280.64 641.97,281.307 641.5,282.5C 638.833,283.167 636.167,283.833 633.5,284.5C 631.517,284.157 630.183,284.824 629.5,286.5C 620.631,289.901 611.631,292.901 602.5,295.5C 602.5,294.5 602.5,293.5 602.5,292.5C 607.875,290.979 612.875,288.646 617.5,285.5C 626.83,282.278 636.164,279.278 645.5,276.5C 646.968,269.717 648.301,262.884 649.5,256C 649.167,253.167 648.833,250.333 648.5,247.5C 646.311,244.344 644.644,241.011 643.5,237.5C 642.022,237.762 640.689,237.429 639.5,236.5C 630.074,225.325 619.074,216.325 606.5,209.5C 604.604,208.534 602.604,208.201 600.5,208.5C 599.306,207.223 597.64,206.556 595.5,206.5C 593.36,206.556 591.694,207.223 590.5,208.5C 586.883,208.483 583.55,209.483 580.5,211.5C 569.843,217.735 559.51,224.402 549.5,231.5C 547.884,230.885 546.551,229.885 545.5,228.5C 556.228,219.758 566.895,211.092 577.5,202.5C 578.434,201.432 578.768,200.099 578.5,198.5C 576.167,198.5 573.833,198.5 571.5,198.5C 568.167,198.5 564.833,198.5 561.5,198.5C 558.402,197.179 554.902,196.512 551,196.5C 547.098,196.512 543.598,197.179 540.5,198.5C 536.883,198.483 533.55,199.483 530.5,201.5C 527.5,204.5 524.5,207.5 521.5,210.5C 516.632,222.771 511.966,235.104 507.5,247.5C 494.962,267.04 479.296,283.707 460.5,297.5C 459.833,297.167 459.167,296.833 458.5,296.5C 465.178,289.157 471.844,281.823 478.5,274.5C 479.429,273.311 479.762,271.978 479.5,270.5C 483.5,270.5 485.5,268.5 485.5,264.5C 486.833,264.5 488.167,264.5 489.5,264.5C 489.238,263.022 489.571,261.689 490.5,260.5C 494.43,256.603 497.763,252.269 500.5,247.5C 510.591,225.256 514.924,201.923 513.5,177.5C 511.149,172.797 508.815,168.13 506.5,163.5C 502.421,159.76 498.754,155.76 495.5,151.5C 495.5,150.167 494.833,149.5 493.5,149.5C 490.964,145.955 487.631,143.621 483.5,142.5C 480.348,149.833 478.015,157.5 476.5,165.5C 472.946,171.94 469.946,178.607 467.5,185.5C 458.177,202.144 448.843,218.811 439.5,235.5C 438.476,236.853 437.143,237.52 435.5,237.5C 435.397,234.781 435.731,232.115 436.5,229.5C 439.248,225.007 442.248,220.674 445.5,216.5C 452.995,201.173 460.662,186.173 468.5,171.5C 470.308,170.082 470.975,168.082 470.5,165.5C 473.585,154.709 475.918,143.709 477.5,132.5C 479.308,131.082 479.975,129.082 479.5,126.5C 479.83,119.468 479.497,112.468 478.5,105.5C 477.167,102.833 475.833,100.167 474.5,97.5C 467.471,88.4773 460.471,79.4773 453.5,70.5C 449.422,65.7511 444.755,61.7511 439.5,58.5C 425.768,68.2318 414.102,79.8984 404.5,93.5C 400.956,101.809 397.623,110.143 394.5,118.5C 393.167,118.5 391.833,118.5 390.5,118.5C 394.609,104.617 400.609,91.6168 408.5,79.5C 415.136,73.8655 421.469,67.8655 427.5,61.5C 431.351,60.6551 433.351,58.3218 433.5,54.5C 430.753,54.8134 428.086,54.48 425.5,53.5C 413.401,49.0223 401.068,45.3556 388.5,42.5C 383.193,41.7244 377.86,41.3911 372.5,41.5C 371.082,39.6921 369.082,39.0254 366.5,39.5C 355.779,38.8581 345.446,39.5247 335.5,41.5C 333.473,41.3379 331.473,41.5045 329.5,42C 326.805,44.2148 323.805,45.7148 320.5,46.5C 319.243,51.6801 316.91,56.3467 313.5,60.5C 308.13,75.4195 303.13,90.4195 298.5,105.5C 296.824,106.183 296.157,107.517 296.5,109.5C 294.643,119.733 293.643,130.066 293.5,140.5C 291.631,142.635 290.964,145.302 291.5,148.5C 291.5,165.167 291.5,181.833 291.5,198.5C 288.856,198.84 286.523,198.173 284.5,196.5C 283.501,186.188 283.168,175.855 283.5,165.5C 285.369,163.365 286.036,160.698 285.5,157.5C 285.5,154.833 285.5,152.167 285.5,149.5C 285.5,145.167 285.5,140.833 285.5,136.5C 287.308,135.082 287.975,133.082 287.5,130.5C 287.5,127.167 287.5,123.833 287.5,120.5C 289.176,119.817 289.843,118.483 289.5,116.5C 290.643,112.256 291.31,107.923 291.5,103.5C 293.176,102.817 293.843,101.483 293.5,99.5C 294.73,89.4725 297.396,79.8058 301.5,70.5C 304.365,62.4377 308.031,54.7711 312.5,47.5C 309.833,46.1667 307.167,46.1667 304.5,47.5C 281.172,54.1645 257.839,60.8312 234.5,67.5C 231.891,69.108 230.558,71.4413 230.5,74.5C 232.317,79.3754 233.651,84.3754 234.5,89.5C 232.38,96.861 230.047,104.194 227.5,111.5C 226.145,119.138 225.145,126.804 224.5,134.5C 222.631,136.635 221.964,139.302 222.5,142.5C 222.033,163.23 222.7,183.897 224.5,204.5C 224.157,206.483 224.824,207.817 226.5,208.5C 226.5,211.167 226.5,213.833 226.5,216.5C 226.157,218.483 226.824,219.817 228.5,220.5C 230.459,228.048 231.792,235.714 232.5,243.5C 230.5,243.5 228.5,243.5 226.5,243.5C 223.055,231.403 220.721,219.07 219.5,206.5C 220.036,203.302 219.369,200.635 217.5,198.5C 215.69,182.25 215.023,165.916 215.5,149.5C 217.256,148.448 217.923,146.781 217.5,144.5C 217.5,139.833 217.5,135.167 217.5,130.5C 219.176,129.817 219.843,128.483 219.5,126.5C 220.282,117.48 221.282,108.48 222.5,99.5C 223.586,99.38 224.253,98.7133 224.5,97.5C 224.253,96.2867 223.586,95.62 222.5,95.5C 204.073,99.8797 187.739,108.213 173.5,120.5C 170.167,125.833 166.833,131.167 163.5,136.5C 160.586,143.233 158.92,150.233 158.5,157.5C 156.631,159.635 155.964,162.302 156.5,165.5C 157.144,176.884 156.477,187.884 154.5,198.5C 153.963,192.15 153.296,185.817 152.5,179.5C 152.5,173.5 152.5,167.5 152.5,161.5C 152.5,158.833 152.5,156.167 152.5,153.5C 154.176,152.817 154.843,151.483 154.5,149.5C 154.689,145.002 155.689,140.669 157.5,136.5C 160.167,131.167 162.833,125.833 165.5,120.5C 177.357,107.981 191.357,98.6478 207.5,92.5C 209.167,90.8333 210.833,89.1667 212.5,87.5C 216.063,80.2591 219.396,72.9257 222.5,65.5C 224.844,64.6628 226.844,63.3294 228.5,61.5C 261.558,50.1525 295.225,41.1525 329.5,34.5C 333.445,33.5091 337.445,33.1758 341.5,33.5 Z"/></g>
<g><path style="opacity:1" fill="#c5c5c5" d="M 366.5,39.5 C 366.5,40.1667 366.5,40.8333 366.5,41.5C 356.167,41.5 345.833,41.5 335.5,41.5C 345.446,39.5247 355.779,38.8581 366.5,39.5 Z"/></g>
<g><path style="opacity:1" fill="#6c6c6c" d="M 366.5,39.5 C 369.082,39.0254 371.082,39.6921 372.5,41.5C 370.5,41.5 368.5,41.5 366.5,41.5C 366.5,40.8333 366.5,40.1667 366.5,39.5 Z"/></g>
<g><path style="opacity:1" fill="#fdfdfd" d="M 335.5,41.5 C 345.833,41.5 356.167,41.5 366.5,41.5C 368.5,41.5 370.5,41.5 372.5,41.5C 377.86,41.3911 383.193,41.7244 388.5,42.5C 401.068,45.3556 413.401,49.0223 425.5,53.5C 428.086,54.48 430.753,54.8134 433.5,54.5C 433.351,58.3218 431.351,60.6551 427.5,61.5C 421.469,67.8655 415.136,73.8655 408.5,79.5C 400.609,91.6168 394.609,104.617 390.5,118.5C 390.62,119.586 391.287,120.253 392.5,120.5C 393.713,120.253 394.38,119.586 394.5,118.5C 397.623,110.143 400.956,101.809 404.5,93.5C 414.102,79.8984 425.768,68.2318 439.5,58.5C 444.755,61.7511 449.422,65.7511 453.5,70.5C 460.471,79.4773 467.471,88.4773 474.5,97.5C 475.833,100.167 477.167,102.833 478.5,105.5C 479.497,112.468 479.83,119.468 479.5,126.5C 477.692,127.918 477.025,129.918 477.5,132.5C 475.918,143.709 473.585,154.709 470.5,165.5C 468.692,166.918 468.025,168.918 468.5,171.5C 460.662,186.173 452.995,201.173 445.5,216.5C 442.248,220.674 439.248,225.007 436.5,229.5C 435.731,232.115 435.397,234.781 435.5,237.5C 437.143,237.52 438.476,236.853 439.5,235.5C 448.843,218.811 458.177,202.144 467.5,185.5C 469.946,178.607 472.946,171.94 476.5,165.5C 478.015,157.5 480.348,149.833 483.5,142.5C 487.631,143.621 490.964,145.955 493.5,149.5C 494.833,149.5 495.5,150.167 495.5,151.5C 498.754,155.76 502.421,159.76 506.5,163.5C 508.815,168.13 511.149,172.797 513.5,177.5C 514.924,201.923 510.591,225.256 500.5,247.5C 497.763,252.269 494.43,256.603 490.5,260.5C 489.571,261.689 489.238,263.022 489.5,264.5C 488.167,264.5 486.833,264.5 485.5,264.5C 485.5,268.5 483.5,270.5 479.5,270.5C 479.762,271.978 479.429,273.311 478.5,274.5C 471.844,281.823 465.178,289.157 458.5,296.5C 459.167,296.833 459.833,297.167 460.5,297.5C 479.296,283.707 494.962,267.04 507.5,247.5C 511.966,235.104 516.632,222.771 521.5,210.5C 524.5,207.5 527.5,204.5 530.5,201.5C 533.55,199.483 536.883,198.483 540.5,198.5C 547.5,198.5 554.5,198.5 561.5,198.5C 564.833,198.5 568.167,198.5 571.5,198.5C 573.5,199.833 575.5,201.167 577.5,202.5C 566.895,211.092 556.228,219.758 545.5,228.5C 546.551,229.885 547.884,230.885 549.5,231.5C 559.51,224.402 569.843,217.735 580.5,211.5C 583.55,209.483 586.883,208.483 590.5,208.5C 593.833,208.5 597.167,208.5 600.5,208.5C 602.604,208.201 604.604,208.534 606.5,209.5C 619.074,216.325 630.074,225.325 639.5,236.5C 640.689,237.429 642.022,237.762 643.5,237.5C 644.644,241.011 646.311,244.344 648.5,247.5C 648.833,250.333 649.167,253.167 649.5,256C 648.301,262.884 646.968,269.717 645.5,276.5C 636.164,279.278 626.83,282.278 617.5,285.5C 612.875,288.646 607.875,290.979 602.5,292.5C 602.5,293.5 602.5,294.5 602.5,295.5C 611.631,292.901 620.631,289.901 629.5,286.5C 631.483,286.843 632.817,286.176 633.5,284.5C 636.167,283.833 638.833,283.167 641.5,282.5C 643.5,282.5 645.5,282.5 647.5,282.5C 649.466,287.961 650.466,293.628 650.5,299.5C 650.5,300.833 650.5,302.167 650.5,303.5C 648.263,304.449 645.929,305.116 643.5,305.5C 642.414,305.62 641.747,306.287 641.5,307.5C 641.747,308.713 642.414,309.38 643.5,309.5C 649.208,310.893 654.875,312.56 660.5,314.5C 670.932,320.037 674.932,328.704 672.5,340.5C 670.824,341.183 670.157,342.517 670.5,344.5C 669.167,348.5 667.833,352.5 666.5,356.5C 665.167,356.5 663.833,356.5 662.5,356.5C 662.5,357.833 662.5,359.167 662.5,360.5C 659.769,361.027 657.102,361.86 654.5,363C 658.63,365.235 662.63,367.735 666.5,370.5C 663.498,373.003 660.165,375.003 656.5,376.5C 659.075,379.319 661.408,382.319 663.5,385.5C 664.466,387.396 664.799,389.396 664.5,391.5C 664.5,394.167 664.5,396.833 664.5,399.5C 664.785,401.288 664.452,402.955 663.5,404.5C 657.073,411.51 649.073,414.177 639.5,412.5C 637.365,410.631 634.698,409.964 631.5,410.5C 628.833,410.5 626.167,410.5 623.5,410.5C 621.012,408.612 618.012,407.945 614.5,408.5C 597.354,406.254 580.354,403.254 563.5,399.5C 562.817,397.824 561.483,397.157 559.5,397.5C 545.335,393.584 532.335,387.251 520.5,378.5C 514.074,374.076 507.074,372.743 499.5,374.5C 493.201,377.824 487.201,381.49 481.5,385.5C 480.167,383.5 478.833,381.5 477.5,379.5C 477.5,377.5 477.5,375.5 477.5,373.5C 477.5,371.5 477.5,369.5 477.5,367.5C 477.238,366.022 477.571,364.689 478.5,363.5C 481.128,361.874 483.461,359.874 485.5,357.5C 488.732,356.27 491.399,354.27 493.5,351.5C 499.443,349.409 505.109,346.742 510.5,343.5C 512.005,342.158 512.672,340.492 512.5,338.5C 498.841,342.164 487.174,349.164 477.5,359.5C 476.311,360.429 474.978,360.762 473.5,360.5C 473.5,355.833 473.5,351.167 473.5,346.5C 474.978,346.762 476.311,346.429 477.5,345.5C 484.167,340.167 490.833,334.833 497.5,329.5C 500.761,328.289 504.095,327.289 507.5,326.5C 508.309,324.929 508.643,323.262 508.5,321.5C 496.22,324.153 485.887,330.153 477.5,339.5C 474.453,341.244 471.453,342.911 468.5,344.5C 468.5,343.167 468.5,341.833 468.5,340.5C 464.5,340.5 460.5,340.5 456.5,340.5C 456.238,339.022 456.571,337.689 457.5,336.5C 461.78,332.41 465.78,328.077 469.5,323.5C 471.862,316.129 476.196,310.129 482.5,305.5C 483.429,304.311 483.762,302.978 483.5,301.5C 482.022,301.238 480.689,301.571 479.5,302.5C 476.833,305.167 474.167,307.833 471.5,310.5C 469.267,315.074 466.6,319.407 463.5,323.5C 461.129,326.206 458.463,328.539 455.5,330.5C 451.897,321.895 445.564,316.562 436.5,314.5C 435.21,312.208 433.543,310.208 431.5,308.5C 424.28,304.612 417.614,299.945 411.5,294.5C 387.696,284.454 363.363,275.787 338.5,268.5C 335.5,269.5 332.5,270.5 329.5,271.5C 328.461,273.531 326.795,274.864 324.5,275.5C 321.426,277.719 320.093,280.719 320.5,284.5C 317.583,284.635 314.916,283.968 312.5,282.5C 311.817,280.824 310.483,280.157 308.5,280.5C 303.522,280.096 298.855,281.096 294.5,283.5C 290.517,289.259 287.517,295.259 285.5,301.5C 282.918,301.025 280.918,301.692 279.5,303.5C 278.022,303.238 276.689,303.571 275.5,304.5C 268.676,310.961 264.009,318.628 261.5,327.5C 260.022,327.762 258.689,327.429 257.5,326.5C 253.967,319.96 249.3,314.294 243.5,309.5C 239.209,302.875 233.876,297.209 227.5,292.5C 224.73,288.736 222.397,284.736 220.5,280.5C 219.158,278.995 217.492,278.328 215.5,278.5C 216.859,283.55 219.025,288.217 222,292.5C 226.66,297.998 231.16,303.665 235.5,309.5C 247.621,320.948 258.954,332.948 269.5,345.5C 268.079,348.009 266.412,350.343 264.5,352.5C 263.571,353.689 263.238,355.022 263.5,356.5C 260.988,356.577 258.988,355.577 257.5,353.5C 253.2,348.199 248.534,343.199 243.5,338.5C 242.833,337.167 242.167,335.833 241.5,334.5C 231.5,325.833 222.167,316.5 213.5,306.5C 207.34,301.92 201.007,297.586 194.5,293.5C 191.916,292.607 189.249,292.274 186.5,292.5C 186.5,293.5 186.5,294.5 186.5,295.5C 190.244,296.87 193.911,298.537 197.5,300.5C 204.095,305.091 210.095,310.424 215.5,316.5C 216.689,317.429 218.022,317.762 219.5,317.5C 219.666,320.168 220.666,322.502 222.5,324.5C 229.803,330.802 236.803,337.468 243.5,344.5C 244.429,345.689 244.762,347.022 244.5,348.5C 245.978,348.238 247.311,348.571 248.5,349.5C 250.407,353.41 253.073,356.744 256.5,359.5C 255.5,359.833 254.5,360.167 253.5,360.5C 234.375,353.581 216.375,344.581 199.5,333.5C 195.5,329.833 191.5,326.167 187.5,322.5C 176.856,307.953 168.856,291.953 163.5,274.5C 162.507,269.88 162.173,265.214 162.5,260.5C 162.5,259.167 162.5,257.833 162.5,256.5C 163.153,238.136 162.487,220.136 160.5,202.5C 158.564,206.715 157.897,211.381 158.5,216.5C 157.833,216.5 157.167,216.5 156.5,216.5C 156.765,210.36 156.098,204.36 154.5,198.5C 156.477,187.884 157.144,176.884 156.5,165.5C 158.369,163.365 159.036,160.698 158.5,157.5C 158.92,150.233 160.586,143.233 163.5,136.5C 166.833,131.167 170.167,125.833 173.5,120.5C 187.739,108.213 204.073,99.8797 222.5,95.5C 222.5,96.8333 222.5,98.1667 222.5,99.5C 221.282,108.48 220.282,117.48 219.5,126.5C 217.824,127.183 217.157,128.517 217.5,130.5C 217.5,135.167 217.5,139.833 217.5,144.5C 215.744,145.552 215.077,147.219 215.5,149.5C 215.023,165.916 215.69,182.25 217.5,198.5C 216.964,201.698 217.631,204.365 219.5,206.5C 220.721,219.07 223.055,231.403 226.5,243.5C 228.5,243.5 230.5,243.5 232.5,243.5C 231.792,235.714 230.459,228.048 228.5,220.5C 228.843,218.517 228.176,217.183 226.5,216.5C 226.5,213.833 226.5,211.167 226.5,208.5C 226.843,206.517 226.176,205.183 224.5,204.5C 222.7,183.897 222.033,163.23 222.5,142.5C 224.369,140.365 225.036,137.698 224.5,134.5C 225.145,126.804 226.145,119.138 227.5,111.5C 230.047,104.194 232.38,96.861 234.5,89.5C 233.651,84.3754 232.317,79.3754 230.5,74.5C 230.558,71.4413 231.891,69.108 234.5,67.5C 257.839,60.8312 281.172,54.1645 304.5,47.5C 307.167,46.1667 309.833,46.1667 312.5,47.5C 308.031,54.7711 304.365,62.4377 301.5,70.5C 297.396,79.8058 294.73,89.4725 293.5,99.5C 291.824,100.183 291.157,101.517 291.5,103.5C 291.31,107.923 290.643,112.256 289.5,116.5C 287.824,117.183 287.157,118.517 287.5,120.5C 287.5,123.833 287.5,127.167 287.5,130.5C 285.692,131.918 285.025,133.918 285.5,136.5C 285.5,140.833 285.5,145.167 285.5,149.5C 283.631,151.635 282.964,154.302 283.5,157.5C 283.5,160.167 283.5,162.833 283.5,165.5C 283.168,175.855 283.501,186.188 284.5,196.5C 286.523,198.173 288.856,198.84 291.5,198.5C 291.5,181.833 291.5,165.167 291.5,148.5C 293.369,146.365 294.036,143.698 293.5,140.5C 293.643,130.066 294.643,119.733 296.5,109.5C 298.176,108.817 298.843,107.483 298.5,105.5C 303.13,90.4195 308.13,75.4195 313.5,60.5C 316.91,56.3467 319.243,51.6801 320.5,46.5C 323.805,45.7148 326.805,44.2148 329.5,42C 331.473,41.5045 333.473,41.3379 335.5,41.5 Z"/></g>
<g><path style="opacity:1" fill="#797a79" d="M 475.5,85.5 C 476.833,85.5 477.5,86.1667 477.5,87.5C 477.5,86.1667 476.833,85.5 475.5,85.5 Z"/></g>
<g><path style="opacity:1" fill="#585858" d="M 222.5,95.5 C 223.586,95.62 224.253,96.2867 224.5,97.5C 224.253,98.7133 223.586,99.38 222.5,99.5C 222.5,98.1667 222.5,96.8333 222.5,95.5 Z"/></g>
<g><path style="opacity:1" fill="#8a8a8a" d="M 293.5,99.5 C 293.843,101.483 293.176,102.817 291.5,103.5C 291.157,101.517 291.824,100.183 293.5,99.5 Z"/></g>
<g><path style="opacity:1" fill="#6b6b6b" d="M 298.5,105.5 C 298.843,107.483 298.176,108.817 296.5,109.5C 296.157,107.517 296.824,106.183 298.5,105.5 Z"/></g>
<g><path style="opacity:1" fill="#848484" d="M 289.5,116.5 C 289.843,118.483 289.176,119.817 287.5,120.5C 287.157,118.517 287.824,117.183 289.5,116.5 Z"/></g>
<g><path style="opacity:1" fill="#8a8a8a" d="M 390.5,118.5 C 391.833,118.5 393.167,118.5 394.5,118.5C 394.38,119.586 393.713,120.253 392.5,120.5C 391.287,120.253 390.62,119.586 390.5,118.5 Z"/></g>
<g><path style="opacity:1" fill="#898989" d="M 219.5,126.5 C 219.843,128.483 219.176,129.817 217.5,130.5C 217.157,128.517 217.824,127.183 219.5,126.5 Z"/></g>
<g><path style="opacity:1" fill="#888888" d="M 479.5,126.5 C 479.975,129.082 479.308,131.082 477.5,132.5C 477.025,129.918 477.692,127.918 479.5,126.5 Z"/></g>
<g><path style="opacity:1" fill="#999999" d="M 287.5,130.5 C 287.975,133.082 287.308,135.082 285.5,136.5C 285.025,133.918 285.692,131.918 287.5,130.5 Z"/></g>
<g><path style="opacity:1" fill="#aaaaaa" d="M 224.5,134.5 C 225.036,137.698 224.369,140.365 222.5,142.5C 221.964,139.302 222.631,136.635 224.5,134.5 Z"/></g>
<g><path style="opacity:1" fill="#828281" d="M 217.5,144.5 C 217.923,146.781 217.256,148.448 215.5,149.5C 215.077,147.219 215.744,145.552 217.5,144.5 Z"/></g>
<g><path style="opacity:1" fill="#666666" d="M 293.5,140.5 C 294.036,143.698 293.369,146.365 291.5,148.5C 290.964,145.302 291.631,142.635 293.5,140.5 Z"/></g>
<g><path style="opacity:1" fill="#767676" d="M 493.5,149.5 C 494.833,149.5 495.5,150.167 495.5,151.5C 494.167,151.5 493.5,150.833 493.5,149.5 Z"/></g>
<g><path style="opacity:1" fill="#646464" d="M 154.5,149.5 C 154.843,151.483 154.176,152.817 152.5,153.5C 152.157,151.517 152.824,150.183 154.5,149.5 Z"/></g>
<g><path style="opacity:1" fill="#999999" d="M 285.5,149.5 C 285.5,152.167 285.5,154.833 285.5,157.5C 284.833,157.5 284.167,157.5 283.5,157.5C 282.964,154.302 283.631,151.635 285.5,149.5 Z"/></g>
<g><path style="opacity:1" fill="#464646" d="M 283.5,157.5 C 284.167,157.5 284.833,157.5 285.5,157.5C 286.036,160.698 285.369,163.365 283.5,165.5C 283.5,162.833 283.5,160.167 283.5,157.5 Z"/></g>
<g><path style="opacity:1" fill="#767676" d="M 158.5,157.5 C 159.036,160.698 158.369,163.365 156.5,165.5C 155.964,162.302 156.631,159.635 158.5,157.5 Z"/></g>
<g><path style="opacity:1" fill="#a8a8a8" d="M 152.5,161.5 C 152.5,167.5 152.5,173.5 152.5,179.5C 151.184,176.913 150.517,173.913 150.5,170.5C 150.517,167.087 151.184,164.087 152.5,161.5 Z"/></g>
<g><path style="opacity:1" fill="#9c9c9c" d="M 470.5,165.5 C 470.975,168.082 470.308,170.082 468.5,171.5C 468.025,168.918 468.692,166.918 470.5,165.5 Z"/></g>
<g><path style="opacity:1" fill="#5c5c5c" d="M 532.5,190.5 C 536.833,190.5 541.167,190.5 545.5,190.5C 543.777,191.8 541.61,192.467 539,192.5C 536.39,192.467 534.223,191.8 532.5,190.5 Z"/></g>
<g><path style="opacity:1" fill="#999999" d="M 565.5,190.5 C 568.698,189.964 571.365,190.631 573.5,192.5C 570.302,193.036 567.635,192.369 565.5,190.5 Z"/></g>
<g><path style="opacity:1" fill="#898989" d="M 588.5,194.5 C 590.483,194.157 591.817,194.824 592.5,196.5C 590.517,196.843 589.183,196.176 588.5,194.5 Z"/></g>
<g><path style="opacity:1" fill="#7c7c7c" d="M 561.5,198.5 C 554.5,198.5 547.5,198.5 540.5,198.5C 543.598,197.179 547.098,196.512 551,196.5C 554.902,196.512 558.402,197.179 561.5,198.5 Z"/></g>
<g><path style="opacity:1" fill="#b7b7b7" d="M 571.5,198.5 C 573.833,198.5 576.167,198.5 578.5,198.5C 578.768,200.099 578.434,201.432 577.5,202.5C 575.5,201.167 573.5,199.833 571.5,198.5 Z"/></g>
<g><path style="opacity:1" fill="#bdbebd" d="M 160.5,202.5 C 162.487,220.136 163.153,238.136 162.5,256.5C 161.833,256.5 161.167,256.5 160.5,256.5C 160.5,238.5 160.5,220.5 160.5,202.5 Z"/></g>
<g><path style="opacity:1" fill="#818181" d="M 217.5,198.5 C 219.369,200.635 220.036,203.302 219.5,206.5C 217.631,204.365 216.964,201.698 217.5,198.5 Z"/></g>
<g><path style="opacity:1" fill="#8e8e8e" d="M 224.5,204.5 C 226.176,205.183 226.843,206.517 226.5,208.5C 224.824,207.817 224.157,206.483 224.5,204.5 Z"/></g>
<g><path style="opacity:1" fill="#8d8d8d" d="M 600.5,208.5 C 597.167,208.5 593.833,208.5 590.5,208.5C 591.694,207.223 593.36,206.556 595.5,206.5C 597.64,206.556 599.306,207.223 600.5,208.5 Z"/></g>
<g><path style="opacity:1" fill="#666666" d="M 115.5,214.5 C 111.833,214.5 108.167,214.5 104.5,214.5C 105.871,213.213 107.705,212.547 110,212.5C 112.295,212.547 114.129,213.213 115.5,214.5 Z"/></g>
<g><path style="opacity:1" fill="#9b9b9a" d="M 226.5,216.5 C 228.176,217.183 228.843,218.517 228.5,220.5C 226.824,219.817 226.157,218.483 226.5,216.5 Z"/></g>
<g><path style="opacity:1" fill="#fdfdfd" d="M 147.5,313.5 C 146.817,311.824 145.483,311.157 143.5,311.5C 139.5,310.167 135.5,308.833 131.5,307.5C 131.5,308.833 131.5,310.167 131.5,311.5C 134.858,312.285 138.191,313.285 141.5,314.5C 155.102,321.137 168.769,327.47 182.5,333.5C 187.885,338.556 193.552,343.223 199.5,347.5C 198.833,348.167 198.167,348.833 197.5,349.5C 194.833,350.167 192.167,350.833 189.5,351.5C 201.626,357.546 213.96,363.212 226.5,368.5C 227.167,369.167 227.833,369.833 228.5,370.5C 227.012,372.577 225.012,373.577 222.5,373.5C 222.5,374.833 222.5,376.167 222.5,377.5C 226.5,377.5 230.5,377.5 234.5,377.5C 236.635,379.369 239.302,380.036 242.5,379.5C 252.465,378.157 261.131,380.824 268.5,387.5C 269.429,388.689 269.762,390.022 269.5,391.5C 265.412,392.562 262.079,394.896 259.5,398.5C 264.132,399.328 268.798,399.828 273.5,400C 275.441,400.304 277.107,401.137 278.5,402.5C 282.297,410.741 283.964,419.408 283.5,428.5C 283.157,430.483 283.824,431.817 285.5,432.5C 285.5,433.5 285.5,434.5 285.5,435.5C 288.167,435.5 290.833,435.5 293.5,435.5C 294.503,442.176 295.503,448.843 296.5,455.5C 298.635,457.369 301.302,458.036 304.5,457.5C 306.423,461.029 307.089,465.029 306.5,469.5C 304.744,470.552 304.077,472.219 304.5,474.5C 304.613,479.269 303.947,483.936 302.5,488.5C 302.833,489.833 303.167,491.167 303.5,492.5C 306.992,484.847 310.992,477.513 315.5,470.5C 317.928,473.598 320.928,475.931 324.5,477.5C 331.477,485.827 339.81,492.494 349.5,497.5C 353.866,502.201 358.533,506.534 363.5,510.5C 373.325,531.736 381.325,553.736 387.5,576.5C 388.484,579.428 388.817,582.428 388.5,585.5C 386.824,586.183 386.157,587.517 386.5,589.5C 385.121,592.047 383.454,592.047 381.5,589.5C 379.392,584.946 377.059,580.612 374.5,576.5C 374.38,575.414 373.713,574.747 372.5,574.5C 371.287,574.747 370.62,575.414 370.5,576.5C 370.321,578.606 369.321,580.272 367.5,581.5C 322.163,567.2 276.497,553.867 230.5,541.5C 227.911,540.303 225.244,539.303 222.5,538.5C 220.091,535.783 217.091,533.783 213.5,532.5C 206.521,526.677 199.188,521.344 191.5,516.5C 188.167,511.833 184.167,507.833 179.5,504.5C 174.167,497.833 168.833,491.167 163.5,484.5C 153.122,467.038 145.455,448.372 140.5,428.5C 137.715,420.929 134.381,413.595 130.5,406.5C 120.822,396.156 111.156,385.823 101.5,375.5C 98.5881,371.348 95.9214,367.015 93.5,362.5C 91.9172,360.01 90.9172,357.343 90.5,354.5C 90.8432,352.517 90.1765,351.183 88.5,350.5C 88.5,347.167 88.5,343.833 88.5,340.5C 88.5,336.167 88.5,331.833 88.5,327.5C 88.8282,322.125 88.4948,316.792 87.5,311.5C 85.7006,306.932 82.3673,304.265 77.5,303.5C 75.3647,301.631 72.6981,300.964 69.5,301.5C 68.0222,301.762 66.6888,301.429 65.5,300.5C 63.1667,298.167 60.8333,295.833 58.5,293.5C 57.5481,291.955 57.2148,290.288 57.5,288.5C 57.9746,285.918 57.3079,283.918 55.5,282.5C 55.5,278.5 55.5,274.5 55.5,270.5C 55.5,269.167 55.5,267.833 55.5,266.5C 56.1667,266.5 56.8333,266.5 57.5,266.5C 59.4832,266.843 60.8166,266.176 61.5,264.5C 64.1667,264.5 66.8333,264.5 69.5,264.5C 74.8333,263.833 74.8333,263.167 69.5,262.5C 65.7416,260.817 61.7416,260.151 57.5,260.5C 58.6121,256.648 60.2787,252.981 62.5,249.5C 70.2657,240.729 78.9324,233.063 88.5,226.5C 108.645,217.128 125.979,220.795 140.5,237.5C 142.5,241.5 144.5,245.5 146.5,249.5C 152.983,273.947 161.649,297.613 172.5,320.5C 172.167,321.5 171.833,322.5 171.5,323.5C 163.65,319.773 155.65,316.44 147.5,313.5 Z"/></g>
<g><path style="opacity:1" fill="#525252" d="M 156.5,216.5 C 157.167,216.5 157.833,216.5 158.5,216.5C 159.055,220.012 158.388,223.012 156.5,225.5C 156.5,222.5 156.5,219.5 156.5,216.5 Z"/></g>
<g><path style="opacity:1" fill="#767676" d="M 656.5,249.5 C 657.765,250.514 658.431,252.014 658.5,254C 658.431,255.986 657.765,257.486 656.5,258.5C 656.5,255.5 656.5,252.5 656.5,249.5 Z"/></g>
<g><path style="opacity:1" fill="#575757" d="M 160.5,256.5 C 161.167,256.5 161.833,256.5 162.5,256.5C 162.5,257.833 162.5,259.167 162.5,260.5C 160.824,259.817 160.157,258.483 160.5,256.5 Z"/></g>
<g><path style="opacity:1" fill="#7a7a7a" d="M 69.5,262.5 C 74.8333,263.167 74.8333,263.833 69.5,264.5C 69.5,263.833 69.5,263.167 69.5,262.5 Z"/></g>
<g><path style="opacity:1" fill="#707070" d="M 47.5,255.5 C 47.5,259.833 47.5,264.167 47.5,268.5C 46.1999,266.777 45.5332,264.61 45.5,262C 45.5332,259.39 46.1999,257.223 47.5,255.5 Z"/></g>
<g><path style="opacity:1" fill="#848484" d="M 61.5,264.5 C 60.8166,266.176 59.4832,266.843 57.5,266.5C 58.1834,264.824 59.5168,264.157 61.5,264.5 Z"/></g>
<g><path style="opacity:1" fill="#969696" d="M 55.5,266.5 C 55.5,267.833 55.5,269.167 55.5,270.5C 54.4138,270.38 53.7472,269.713 53.5,268.5C 53.7472,267.287 54.4138,266.62 55.5,266.5 Z"/></g>
<g><path style="opacity:1" fill="#929292" d="M 656.5,266.5 C 656.5,272.5 656.5,278.5 656.5,284.5C 655.184,281.913 654.517,278.913 654.5,275.5C 654.517,272.087 655.184,269.087 656.5,266.5 Z"/></g>
<g><path style="opacity:1" fill="#979797" d="M 308.5,280.5 C 310.483,280.157 311.817,280.824 312.5,282.5C 310.517,282.843 309.183,282.176 308.5,280.5 Z"/></g>
<g><path style="opacity:1" fill="#8b8b8b" d="M 647.5,282.5 C 645.5,282.5 643.5,282.5 641.5,282.5C 641.97,281.307 642.97,280.64 644.5,280.5C 646.03,280.64 647.03,281.307 647.5,282.5 Z"/></g>
<g><path style="opacity:1" fill="#7b7b7b" d="M 55.5,282.5 C 57.3079,283.918 57.9746,285.918 57.5,288.5C 55.6921,287.082 55.0254,285.082 55.5,282.5 Z"/></g>
<g><path style="opacity:1" fill="#979797" d="M 633.5,284.5 C 632.817,286.176 631.483,286.843 629.5,286.5C 630.183,284.824 631.517,284.157 633.5,284.5 Z"/></g>
<g><path style="opacity:1" fill="#b6b6b6" d="M 69.5,301.5 C 72.6981,300.964 75.3647,301.631 77.5,303.5C 74.3019,304.036 71.6353,303.369 69.5,301.5 Z"/></g>
<g><path style="opacity:1" fill="#999999" d="M 285.5,301.5 C 284.082,303.308 282.082,303.975 279.5,303.5C 280.918,301.692 282.918,301.025 285.5,301.5 Z"/></g>
<g><path style="opacity:1" fill="#666666" d="M 650.5,299.5 C 651.586,299.62 652.253,300.287 652.5,301.5C 652.253,302.713 651.586,303.38 650.5,303.5C 650.5,302.167 650.5,300.833 650.5,299.5 Z"/></g>
<g><path style="opacity:1" fill="#8e8e8e" d="M 643.5,305.5 C 643.5,306.833 643.5,308.167 643.5,309.5C 642.414,309.38 641.747,308.713 641.5,307.5C 641.747,306.287 642.414,305.62 643.5,305.5 Z"/></g>
<g><path style="opacity:1" fill="#989899" d="M 67.5,309.5 C 71.3293,308.931 74.6627,309.598 77.5,311.5C 73.6707,312.069 70.3373,311.402 67.5,309.5 Z"/></g>
<g><path style="opacity:1" fill="#999999" d="M 143.5,311.5 C 145.483,311.157 146.817,311.824 147.5,313.5C 145.517,313.843 144.183,313.176 143.5,311.5 Z"/></g>
<g><path style="opacity:1" fill="#919191" d="M 80.5,315.5 C 81.8086,317.571 82.4752,320.071 82.5,323C 82.4752,325.929 81.8086,328.429 80.5,330.5C 80.5,325.5 80.5,320.5 80.5,315.5 Z"/></g>
<g><path style="opacity:1" fill="#969696" d="M 88.5,327.5 C 88.5,331.833 88.5,336.167 88.5,340.5C 87.1999,338.777 86.5332,336.61 86.5,334C 86.5332,331.39 87.1999,329.223 88.5,327.5 Z"/></g>
<g><path style="opacity:1" fill="#9c9c9c" d="M 678.5,332.5 C 679.036,335.698 678.369,338.365 676.5,340.5C 675.964,337.302 676.631,334.635 678.5,332.5 Z"/></g>
<g><path style="opacity:1" fill="#6f6f6f" d="M 672.5,340.5 C 672.843,342.483 672.176,343.817 670.5,344.5C 670.157,342.517 670.824,341.183 672.5,340.5 Z"/></g>
<g><path style="opacity:1" fill="#636363" d="M 80.5,344.5 C 82.1765,345.183 82.8432,346.517 82.5,348.5C 80.8235,347.817 80.1568,346.483 80.5,344.5 Z"/></g>
<g><path style="opacity:1" fill="#7c7c7c" d="M 88.5,350.5 C 90.1765,351.183 90.8432,352.517 90.5,354.5C 88.8235,353.817 88.1568,352.483 88.5,350.5 Z"/></g>
<g><path style="opacity:1" fill="#acacac" d="M 676.5,352.5 C 677.036,355.698 676.369,358.365 674.5,360.5C 673.964,357.302 674.631,354.635 676.5,352.5 Z"/></g>
<g><path style="opacity:1" fill="#828282" d="M 674.5,365.5 C 674.843,367.483 674.176,368.817 672.5,369.5C 672.157,367.517 672.824,366.183 674.5,365.5 Z"/></g>
<g><path style="opacity:1" fill="#9a9a9b" d="M 477.5,367.5 C 477.5,369.5 477.5,371.5 477.5,373.5C 476.307,373.03 475.64,372.03 475.5,370.5C 475.64,368.97 476.307,367.97 477.5,367.5 Z"/></g>
<g><path style="opacity:1" fill="#7f7f7f" d="M 234.5,377.5 C 237.698,376.964 240.365,377.631 242.5,379.5C 239.302,380.036 236.635,379.369 234.5,377.5 Z"/></g>
<g><path style="opacity:1" fill="#fcfcfc" d="M 427.5,402.5 C 429.635,404.369 432.302,405.036 435.5,404.5C 443.222,404.953 450.889,405.953 458.5,407.5C 460.332,408.248 461.999,409.248 463.5,410.5C 464.833,413.833 464.833,417.167 463.5,420.5C 460.696,429.662 457.696,438.662 454.5,447.5C 452.824,448.183 452.157,449.517 452.5,451.5C 452.5,454.167 452.5,456.833 452.5,459.5C 453.833,459.5 455.167,459.5 456.5,459.5C 456.187,456.753 456.52,454.086 457.5,451.5C 460.624,446.585 462.624,441.252 463.5,435.5C 464.167,435.167 464.833,434.833 465.5,434.5C 472.45,416.6 482.45,400.6 495.5,386.5C 500.896,383.619 506.563,382.952 512.5,384.5C 521.638,388.65 529.971,393.983 537.5,400.5C 539.556,419.942 534.89,437.608 523.5,453.5C 519.896,456.079 517.562,459.412 516.5,463.5C 517.978,463.762 519.311,463.429 520.5,462.5C 530.817,452.533 537.484,440.533 540.5,426.5C 542.176,425.817 542.843,424.483 542.5,422.5C 542.334,416.491 542.501,410.491 543,404.5C 544.707,405.944 546.54,407.277 548.5,408.5C 549.88,406.023 550.88,406.023 551.5,408.5C 550.964,411.698 551.631,414.365 553.5,416.5C 558.754,415.317 564.088,414.65 569.5,414.5C 576.5,414.5 583.5,414.5 590.5,414.5C 596.59,414.516 602.59,415.183 608.5,416.5C 609.183,418.176 610.517,418.843 612.5,418.5C 614.288,418.215 615.955,418.548 617.5,419.5C 615.438,421.403 614.104,423.737 613.5,426.5C 606.531,432.468 599.864,438.801 593.5,445.5C 592.534,447.396 592.201,449.396 592.5,451.5C 592.62,452.586 593.287,453.253 594.5,453.5C 595.713,453.253 596.38,452.586 596.5,451.5C 602.428,446.576 608.094,441.243 613.5,435.5C 615.908,434.784 617.908,433.451 619.5,431.5C 622.809,430.285 626.142,429.285 629.5,428.5C 632.833,428.5 636.167,428.5 639.5,428.5C 642.734,429.576 646.068,430.243 649.5,430.5C 649.762,431.978 649.429,433.311 648.5,434.5C 635.239,444.426 623.239,455.759 612.5,468.5C 611.311,469.429 609.978,469.762 608.5,469.5C 608.5,470.5 608.5,471.5 608.5,472.5C 607.022,472.238 605.689,472.571 604.5,473.5C 596.812,480.844 587.812,485.844 577.5,488.5C 577.5,489.833 577.5,491.167 577.5,492.5C 579.924,492.808 582.257,492.474 584.5,491.5C 601.891,482.964 616.891,471.297 629.5,456.5C 632.656,454.311 635.989,452.644 639.5,451.5C 639.5,450.167 639.5,448.833 639.5,447.5C 640.978,447.762 642.311,447.429 643.5,446.5C 646.1,444.717 648.434,442.717 650.5,440.5C 654.167,440.167 657.833,439.833 661.5,439.5C 670.08,439.028 677.747,441.362 684.5,446.5C 683.167,448.5 681.833,450.5 680.5,452.5C 677.268,453.73 674.601,455.73 672.5,458.5C 668.018,461.544 663.352,464.211 658.5,466.5C 647.193,469.984 636.193,474.318 625.5,479.5C 605.077,494.385 583.077,506.718 559.5,516.5C 553.23,518.021 546.897,519.021 540.5,519.5C 535.833,519.5 531.167,519.5 526.5,519.5C 524.975,515.975 522.309,513.975 518.5,513.5C 517.666,512.252 516.333,511.585 514.5,511.5C 512.667,511.585 511.334,512.252 510.5,513.5C 508.833,513.5 507.167,513.5 505.5,513.5C 503.517,513.157 502.183,513.824 501.5,515.5C 487.817,515.833 474.15,515.499 460.5,514.5C 452.928,512.201 445.594,509.534 438.5,506.5C 438.5,508.833 438.5,511.167 438.5,513.5C 438.5,514.833 438.5,516.167 438.5,517.5C 432.833,517.5 427.167,517.5 421.5,517.5C 421.5,516.167 420.833,515.5 419.5,515.5C 407.185,511.509 394.851,507.509 382.5,503.5C 372.365,498.934 362.698,493.601 353.5,487.5C 328.513,470.575 309.847,448.241 297.5,420.5C 296.167,414.5 296.167,408.5 297.5,402.5C 300.035,396.963 303.701,392.296 308.5,388.5C 317.377,386.058 326.377,384.391 335.5,383.5C 338.698,384.036 341.365,383.369 343.5,381.5C 349.301,380.731 355.135,380.065 361,379.5C 369.277,377.954 374.11,381.287 375.5,389.5C 376.328,390.415 377.328,391.081 378.5,391.5C 381.463,389.539 384.129,387.206 386.5,384.5C 390.5,383.167 394.5,383.167 398.5,384.5C 403.015,386.921 407.348,389.588 411.5,392.5C 415.641,397.896 420.974,401.229 427.5,402.5 Z"/></g>
<g><path style="opacity:1" fill="#b3b3b3" d="M 343.5,381.5 C 341.365,383.369 338.698,384.036 335.5,383.5C 337.635,381.631 340.302,380.964 343.5,381.5 Z"/></g>
<g><path style="opacity:1" fill="#8f8f8f" d="M 477.5,379.5 C 478.833,381.5 480.167,383.5 481.5,385.5C 480.817,387.176 479.483,387.843 477.5,387.5C 477.5,384.833 477.5,382.167 477.5,379.5 Z"/></g>
<g><path style="opacity:1" fill="#828282" d="M 664.5,391.5 C 665.748,392.334 666.415,393.667 666.5,395.5C 666.415,397.333 665.748,398.666 664.5,399.5C 664.5,396.833 664.5,394.167 664.5,391.5 Z"/></g>
<g><path style="opacity:1" fill="#999999" d="M 559.5,397.5 C 561.483,397.157 562.817,397.824 563.5,399.5C 561.517,399.843 560.183,399.176 559.5,397.5 Z"/></g>
<g><path style="opacity:1" fill="#797a79" d="M 117.5,402.5 C 118.833,402.5 119.5,403.167 119.5,404.5C 118.167,404.5 117.5,403.833 117.5,402.5 Z"/></g>
<g><path style="opacity:1" fill="#b1b1b1" d="M 427.5,402.5 C 430.698,401.964 433.365,402.631 435.5,404.5C 432.302,405.036 429.635,404.369 427.5,402.5 Z"/></g>
<g><path style="opacity:1" fill="#b8b8b8" d="M 614.5,408.5 C 618.012,407.945 621.012,408.612 623.5,410.5C 619.988,411.055 616.988,410.388 614.5,408.5 Z"/></g>
<g><path style="opacity:1" fill="#aeaeae" d="M 631.5,410.5 C 634.698,409.964 637.365,410.631 639.5,412.5C 636.302,413.036 633.635,412.369 631.5,410.5 Z"/></g>
<g><path style="opacity:1" fill="#7d7c7d" d="M 590.5,414.5 C 583.5,414.5 576.5,414.5 569.5,414.5C 572.598,413.179 576.098,412.512 580,412.5C 583.902,412.512 587.402,413.179 590.5,414.5 Z"/></g>
<g><path style="opacity:1" fill="#b3b3b3" d="M 551.5,408.5 C 553.369,410.635 554.036,413.302 553.5,416.5C 551.631,414.365 550.964,411.698 551.5,408.5 Z"/></g>
<g><path style="opacity:1" fill="#5b5b5b" d="M 608.5,416.5 C 610.483,416.157 611.817,416.824 612.5,418.5C 610.517,418.843 609.183,418.176 608.5,416.5 Z"/></g>
<g><path style="opacity:1" fill="#8e8e8e" d="M 542.5,422.5 C 542.843,424.483 542.176,425.817 540.5,426.5C 540.157,424.517 540.824,423.183 542.5,422.5 Z"/></g>
<g><path style="opacity:1" fill="#838383" d="M 639.5,428.5 C 636.167,428.5 632.833,428.5 629.5,428.5C 630.694,427.223 632.36,426.556 634.5,426.5C 636.64,426.556 638.306,427.223 639.5,428.5 Z"/></g>
<g><path style="opacity:1" fill="#9a9a9a" d="M 666.5,420.5 C 666.5,423.167 666.5,425.833 666.5,428.5C 665.252,427.666 664.585,426.333 664.5,424.5C 664.585,422.667 665.252,421.334 666.5,420.5 Z"/></g>
<g><path style="opacity:1" fill="#808080" d="M 283.5,428.5 C 285.176,429.183 285.843,430.517 285.5,432.5C 283.824,431.817 283.157,430.483 283.5,428.5 Z"/></g>
<g><path style="opacity:1" fill="#99999a" d="M 721.5,435.5 C 723.167,435.5 724.833,435.5 726.5,435.5C 726.843,437.483 726.176,438.817 724.5,439.5C 723.5,438.167 722.5,436.833 721.5,435.5 Z"/></g>
<g><path style="opacity:1" fill="#9f9f9f" d="M 135.5,439.5 C 137.176,440.183 137.843,441.517 137.5,443.5C 135.824,442.817 135.157,441.483 135.5,439.5 Z"/></g>
<g><path style="opacity:1" fill="#949494" d="M 454.5,447.5 C 454.843,449.483 454.176,450.817 452.5,451.5C 452.157,449.517 452.824,448.183 454.5,447.5 Z"/></g>
<g><path style="opacity:1" fill="#7b7b7b" d="M 592.5,451.5 C 593.833,451.5 595.167,451.5 596.5,451.5C 596.38,452.586 595.713,453.253 594.5,453.5C 593.287,453.253 592.62,452.586 592.5,451.5 Z"/></g>
<g><path style="opacity:1" fill="#7f7f7f" d="M 296.5,455.5 C 299.698,454.964 302.365,455.631 304.5,457.5C 301.302,458.036 298.635,457.369 296.5,455.5 Z"/></g>
<g><path style="opacity:1" fill="#69696a" d="M 306.5,469.5 C 306.923,471.781 306.256,473.448 304.5,474.5C 304.077,472.219 304.744,470.552 306.5,469.5 Z"/></g>
<g><path style="opacity:1" fill="#fbfbfb" d="M 588.5,566.5 C 587.167,566.5 585.833,566.5 584.5,566.5C 578.575,557.648 572.909,548.648 567.5,539.5C 565.5,539.5 563.5,539.5 561.5,539.5C 567.234,549.296 573.234,558.962 579.5,568.5C 584.347,573.194 587.347,578.86 588.5,585.5C 583.114,587.923 577.447,589.59 571.5,590.5C 560.5,591.833 549.5,591.833 538.5,590.5C 533.167,588.5 527.833,586.5 522.5,584.5C 517.83,580.915 512.663,578.248 507,576.5C 500.353,571.685 493.853,566.685 487.5,561.5C 486.311,560.571 484.978,560.238 483.5,560.5C 483.5,559.167 482.833,558.5 481.5,558.5C 481.5,557.167 480.833,556.5 479.5,556.5C 479.5,555.167 478.833,554.5 477.5,554.5C 477.5,553.167 476.833,552.5 475.5,552.5C 475.5,551.167 474.833,550.5 473.5,550.5C 473.5,549.167 473.5,547.833 473.5,546.5C 472.5,546.5 471.5,546.5 470.5,546.5C 470.762,545.022 470.429,543.689 469.5,542.5C 464.65,539.112 460.983,534.779 458.5,529.5C 458.5,528.833 458.5,528.167 458.5,527.5C 478.5,527.5 498.5,527.5 518.5,527.5C 526.833,527.5 535.167,527.5 543.5,527.5C 546.698,528.036 549.365,527.369 551.5,525.5C 555.629,525.126 559.629,524.126 563.5,522.5C 569.91,520.029 576.244,517.363 582.5,514.5C 588.883,510.309 595.549,506.642 602.5,503.5C 607.977,499.259 613.643,495.259 619.5,491.5C 623.191,489.244 627.191,488.244 631.5,488.5C 631.762,489.978 631.429,491.311 630.5,492.5C 626.082,498.996 621.415,505.33 616.5,511.5C 614.366,517.568 612.033,523.568 609.5,529.5C 608.404,539.32 608.404,548.986 609.5,558.5C 602.819,562.007 595.819,564.674 588.5,566.5 Z"/></g>
<g><path style="opacity:1" fill="#949494" d="M 384.5,509.5 C 387.082,509.025 389.082,509.692 390.5,511.5C 387.918,511.975 385.918,511.308 384.5,509.5 Z"/></g>
<g><path style="opacity:1" fill="#b0b0b0" d="M 518.5,513.5 C 515.833,513.5 513.167,513.5 510.5,513.5C 511.334,512.252 512.667,511.585 514.5,511.5C 516.333,511.585 517.666,512.252 518.5,513.5 Z"/></g>
<g><path style="opacity:1" fill="#969696" d="M 438.5,513.5 C 439.586,513.62 440.253,514.287 440.5,515.5C 440.253,516.713 439.586,517.38 438.5,517.5C 438.5,516.167 438.5,514.833 438.5,513.5 Z"/></g>
<g><path style="opacity:1" fill="#929292" d="M 505.5,513.5 C 504.817,515.176 503.483,515.843 501.5,515.5C 502.183,513.824 503.517,513.157 505.5,513.5 Z"/></g>
<g><path style="opacity:1" fill="#7a7a7a" d="M 419.5,515.5 C 420.833,515.5 421.5,516.167 421.5,517.5C 421.5,518.167 421.5,518.833 421.5,519.5C 420.167,519.5 419.5,518.833 419.5,517.5C 419.5,516.833 419.5,516.167 419.5,515.5 Z"/></g>
<g><path style="opacity:1" fill="#7a7a7a" d="M 427.5,519.5 C 429.483,519.157 430.817,519.824 431.5,521.5C 429.517,521.843 428.183,521.176 427.5,519.5 Z"/></g>
<g><path style="opacity:1" fill="#7f7f7f" d="M 526.5,519.5 C 531.167,519.5 535.833,519.5 540.5,519.5C 538.603,520.805 536.269,521.471 533.5,521.5C 530.731,521.471 528.397,520.805 526.5,519.5 Z"/></g>
<g><path style="opacity:1" fill="#bfbfbf" d="M 458.5,525.5 C 478.861,524.845 498.861,525.512 518.5,527.5C 498.5,527.5 478.5,527.5 458.5,527.5C 458.5,526.833 458.5,526.167 458.5,525.5 Z"/></g>
<g><path style="opacity:1" fill="#a0a0a0" d="M 551.5,525.5 C 549.365,527.369 546.698,528.036 543.5,527.5C 545.635,525.631 548.302,524.964 551.5,525.5 Z"/></g>
<g><path style="opacity:1" fill="#5b5b5b" d="M 458.5,525.5 C 458.5,526.167 458.5,526.833 458.5,527.5C 458.5,528.167 458.5,528.833 458.5,529.5C 457.414,529.38 456.747,528.713 456.5,527.5C 456.747,526.287 457.414,525.62 458.5,525.5 Z"/></g>
<g><path style="opacity:1" fill="#393939" d="M 470.5,546.5 C 471.5,546.5 472.5,546.5 473.5,546.5C 473.5,547.833 473.5,549.167 473.5,550.5C 471.554,549.965 470.554,548.632 470.5,546.5 Z"/></g>
<g><path style="opacity:1" fill="#171717" d="M 473.5,550.5 C 474.833,550.5 475.5,551.167 475.5,552.5C 474.167,552.5 473.5,551.833 473.5,550.5 Z"/></g>
<g><path style="opacity:1" fill="#0f0f10" d="M 475.5,552.5 C 476.833,552.5 477.5,553.167 477.5,554.5C 476.167,554.5 475.5,553.833 475.5,552.5 Z"/></g>
<g><path style="opacity:1" fill="#09090b" d="M 477.5,554.5 C 478.833,554.5 479.5,555.167 479.5,556.5C 478.167,556.5 477.5,555.833 477.5,554.5 Z"/></g>
<g><path style="opacity:1" fill="#040405" d="M 479.5,556.5 C 480.833,556.5 481.5,557.167 481.5,558.5C 480.167,558.5 479.5,557.833 479.5,556.5 Z"/></g>
<g><path style="opacity:1" fill="#040504" d="M 481.5,558.5 C 482.833,558.5 483.5,559.167 483.5,560.5C 482.167,560.5 481.5,559.833 481.5,558.5 Z"/></g>
<g><path style="opacity:1" fill="#737373" d="M 293.5,564.5 C 290.833,564.5 288.167,564.5 285.5,564.5C 286.334,563.252 287.667,562.585 289.5,562.5C 291.333,562.585 292.666,563.252 293.5,564.5 Z"/></g>
<g><path style="opacity:1" fill="#888888" d="M 392.5,564.5 C 394.176,565.183 394.843,566.517 394.5,568.5C 392.824,567.817 392.157,566.483 392.5,564.5 Z"/></g>
<g><path style="opacity:1" fill="#949494" d="M 584.5,566.5 C 585.833,566.5 587.167,566.5 588.5,566.5C 588.38,567.586 587.713,568.253 586.5,568.5C 585.287,568.253 584.62,567.586 584.5,566.5 Z"/></g>
<g><path style="opacity:1" fill="#818181" d="M 374.5,576.5 C 373.167,576.5 371.833,576.5 370.5,576.5C 370.62,575.414 371.287,574.747 372.5,574.5C 373.713,574.747 374.38,575.414 374.5,576.5 Z"/></g>
<g><path style="opacity:1" fill="#818181" d="M 394.5,577.5 C 396.176,578.183 396.843,579.517 396.5,581.5C 394.824,580.817 394.157,579.483 394.5,577.5 Z"/></g>
<g><path style="opacity:1" fill="#6a6a6a" d="M 598.5,570.5 C 599.123,577.255 598.456,583.588 596.5,589.5C 595.877,582.745 596.544,576.412 598.5,570.5 Z"/></g>
<g><path style="opacity:1" fill="#989898" d="M 388.5,585.5 C 388.843,587.483 388.176,588.817 386.5,589.5C 386.157,587.517 386.824,586.183 388.5,585.5 Z"/></g>
<g><path style="opacity:1" fill="#f7f7f7" d="M 378.5,595.5 C 378.5,596.833 379.167,597.5 380.5,597.5C 383.708,599.074 385.042,601.741 384.5,605.5C 384.5,606.833 384.5,608.167 384.5,609.5C 384.39,618.953 379.723,624.953 370.5,627.5C 363.532,628.497 356.532,628.83 349.5,628.5C 349.187,625.753 349.52,623.086 350.5,620.5C 353.986,611.558 357.319,602.558 360.5,593.5C 361.784,592.415 363.284,591.748 365,591.5C 369.506,592.948 374.006,594.281 378.5,595.5 Z"/></g>
<g><path style="opacity:1" fill="#787978" d="M 378.5,595.5 C 379.833,595.5 380.5,596.167 380.5,597.5C 380.5,596.167 379.833,595.5 378.5,595.5 Z"/></g>
<g><path style="opacity:1" fill="#6c6c6c" d="M 538.5,595.5 C 540.483,595.157 541.817,595.824 542.5,597.5C 540.517,597.843 539.183,597.176 538.5,595.5 Z"/></g>
<g><path style="opacity:1" fill="#c5c5c5" d="M 549.5,597.5 C 558.167,597.5 566.833,597.5 575.5,597.5C 571.555,598.825 567.222,599.492 562.5,599.5C 557.778,599.492 553.445,598.825 549.5,597.5 Z"/></g>
<g><path style="opacity:1" fill="#656565" d="M 384.5,605.5 C 385.586,605.62 386.253,606.287 386.5,607.5C 386.253,608.713 385.586,609.38 384.5,609.5C 384.5,608.167 384.5,606.833 384.5,605.5 Z"/></g>
<g><path style="opacity:1" fill="#424242" d="M 341.5,618.5 C 341.5,622.5 341.5,626.5 341.5,630.5C 340.206,628.952 339.539,626.952 339.5,624.5C 339.539,622.048 340.206,620.048 341.5,618.5 Z"/></g>
<g><path style="opacity:1" fill="#9a9a9a" d="M 355.5,638.5 C 359.167,638.5 362.833,638.5 366.5,638.5C 365.129,639.787 363.295,640.453 361,640.5C 358.705,640.453 356.871,639.787 355.5,638.5 Z"/></g>
<g><path style="opacity:1" fill="#f8f8f8" d="M 379.5,673.5 C 381.722,673.178 383.556,673.845 385,675.5C 385.858,680.927 387.024,686.261 388.5,691.5C 386.643,697.903 384.477,704.236 382,710.5C 379.685,718.7 378.685,727.033 379,735.5C 381.333,738.167 383.667,738.167 386,735.5C 387.08,733.004 388.414,730.67 390,728.5C 402.318,717.523 413.151,705.357 422.5,692C 423.416,691.626 424.25,691.126 425,690.5C 428.139,694.577 431.972,695.41 436.5,693C 439.538,690.297 442.205,687.297 444.5,684C 451.936,678.401 457.602,679.734 461.5,688C 461.01,689.982 460.01,691.649 458.5,693C 451.858,694.893 446.358,698.393 442,703.5C 441.859,707.589 441.692,711.589 441.5,715.5C 408.82,721.386 381.987,737.053 361,762.5C 359.667,765.167 358.333,767.833 357,770.5C 356.349,772.235 356.515,773.902 357.5,775.5C 363.428,776.772 369.095,775.939 374.5,773C 381.748,768.086 389.248,763.586 397,759.5C 397.5,759.667 398,759.833 398.5,760C 395.428,764.976 396.928,767.809 403,768.5C 408.53,767.971 411.864,764.971 413,759.5C 414.154,758.257 415.488,757.257 417,756.5C 417.333,759.167 417.667,761.833 418,764.5C 418.804,765.804 419.971,766.471 421.5,766.5C 426.231,763.803 431.231,761.637 436.5,760C 439.146,759.503 441.813,759.336 444.5,759.5C 444.703,761.39 444.037,762.89 442.5,764C 432.68,766.816 427.847,773.316 428,783.5C 427.51,782.207 427.343,780.873 427.5,779.5C 421.802,779.162 416.135,778.495 410.5,777.5C 396.719,779.296 393.719,786.129 401.5,798C 401.167,798.5 400.833,799 400.5,799.5C 379.239,793.268 357.572,789.102 335.5,787C 339.759,783.619 343.926,780.119 348,776.5C 348.333,774.5 348.667,772.5 349,770.5C 360.445,759.61 367.112,746.277 369,730.5C 369.134,716.465 369.801,702.465 371,688.5C 372.396,682.624 375.229,677.624 379.5,673.5 Z"/></g>
<g><path style="opacity:1" fill="#fafafa" d="M 340.5,709.5 C 341.777,710.694 342.444,712.36 342.5,714.5C 341.461,722.652 339.794,730.652 337.5,738.5C 338.276,743.003 339.776,747.003 342,750.5C 335.151,755.593 328.484,760.926 322,766.5C 319.987,771.612 318.987,776.945 319,782.5C 314.589,785.955 310.089,789.289 305.5,792.5C 304.365,782.864 303.698,773.197 303.5,763.5C 306.044,763.896 308.211,763.229 310,761.5C 310.558,752.133 311.224,742.799 312,733.5C 316.797,732.138 321.63,730.638 326.5,729C 330.624,723.923 334.124,718.423 337,712.5C 338.145,711.364 339.312,710.364 340.5,709.5 Z"/></g>
<g><path style="opacity:1" fill="#f9f9f9" d="M 272.5,739.5 C 273.833,739.5 275.167,739.5 276.5,739.5C 276.334,748.506 276.5,757.506 277,766.5C 279.805,770.091 280.805,774.091 280,778.5C 269.038,793.373 262.371,810.04 260,828.5C 252.99,834.678 246.157,841.011 239.5,847.5C 240.461,826.872 242.295,806.205 245,785.5C 245.598,782.692 246.765,780.192 248.5,778C 250.677,777.655 252.677,778.155 254.5,779.5C 255.554,779.32 256.554,778.987 257.5,778.5C 257.833,776.833 258.167,775.167 258.5,773.5C 257.833,767.833 257.167,762.167 256.5,756.5C 256.231,753.447 257.064,750.78 259,748.5C 259.69,752.19 261.857,753.357 265.5,752C 268.487,748.214 270.82,744.047 272.5,739.5 Z"/></g>
<g><path style="opacity:1" fill="#f9f9f9" d="M 303.5,859.5 C 308.419,858.372 312.085,859.872 314.5,864C 321.524,864.081 328.524,863.581 335.5,862.5C 335.083,865.079 335.75,867.246 337.5,869C 345.644,869.806 353.644,871.306 361.5,873.5C 358.87,875.821 355.87,877.654 352.5,879C 344.639,880.992 336.639,881.992 328.5,882C 327.577,884.041 327.244,886.208 327.5,888.5C 321.635,887.36 315.802,886.027 310,884.5C 307.638,885.363 306.138,887.03 305.5,889.5C 296.661,884.246 287.661,879.246 278.5,874.5C 277.833,874.833 277.167,875.167 276.5,875.5C 275.833,878.167 275.167,880.833 274.5,883.5C 259.036,880.166 243.37,878.666 227.5,879C 228.167,878.333 228.833,877.667 229.5,877C 242.272,873.307 254.939,869.307 267.5,865C 273.837,864.934 280.17,864.934 286.5,865C 292.243,863.029 297.91,861.196 303.5,859.5 Z"/></g>
</svg>
