<?xml version="1.0" encoding="UTF-8"?>
<!DOCTYPE svg PUBLIC "-//W3C//DTD SVG 1.1//EN" "http://www.w3.org/Graphics/SVG/1.1/DTD/svg11.dtd">
<svg xmlns="http://www.w3.org/2000/svg" version="1.1" width="980px" height="1809px" style="shape-rendering:geometricPrecision; text-rendering:geometricPrecision; image-rendering:optimizeQuality; fill-rule:evenodd; clip-rule:evenodd" xmlns:xlink="http://www.w3.org/1999/xlink">
<g><path style="opacity:1" fill="#fefefe" d="M -0.5,-0.5 C 326.167,-0.5 652.833,-0.5 979.5,-0.5C 979.5,602.5 979.5,1205.5 979.5,1808.5C 652.833,1808.5 326.167,1808.5 -0.5,1808.5C -0.5,1205.5 -0.5,602.5 -0.5,-0.5 Z"/></g>
<g><path style="opacity:1" fill="#b8b8b8" d="M 593.5,39.5 C 585.833,39.5 578.167,39.5 570.5,39.5C 573.938,38.1768 577.771,37.5102 582,37.5C 586.229,37.5102 590.062,38.1768 593.5,39.5 Z"/></g>
<g><path style="opacity:1" fill="#070708" d="M 570.5,39.5 C 578.167,39.5 585.833,39.5 593.5,39.5C 602.207,40.0291 610.873,41.0291 619.5,42.5C 634.57,45.8416 649.57,49.5083 664.5,53.5C 668.02,55.7603 671.687,57.7603 675.5,59.5C 679.167,63.1667 682.833,66.8333 686.5,70.5C 687.429,71.6888 687.762,73.0222 687.5,74.5C 688.833,74.5 690.167,74.5 691.5,74.5C 691.238,75.9778 691.571,77.3112 692.5,78.5C 705.364,91.0312 716.364,105.031 725.5,120.5C 728.833,127.167 732.167,133.833 735.5,140.5C 742.403,157.534 748.736,174.867 754.5,192.5C 756.132,195.146 758.465,196.479 761.5,196.5C 763.223,197.8 765.39,198.467 768,198.5C 770.61,198.467 772.777,197.8 774.5,196.5C 781.167,196.5 787.833,196.5 794.5,196.5C 796.635,198.369 799.302,199.036 802.5,198.5C 807.474,199.326 812.474,199.993 817.5,200.5C 818.183,202.176 819.517,202.843 821.5,202.5C 836.229,205.219 848.563,212.219 858.5,223.5C 860.996,224.58 863.33,225.914 865.5,227.5C 867.577,228.988 868.577,230.988 868.5,233.5C 869.978,233.238 871.311,233.571 872.5,234.5C 876.203,237.867 879.536,241.534 882.5,245.5C 884.517,248.55 885.517,251.883 885.5,255.5C 885.5,258.5 885.5,261.5 885.5,264.5C 885.5,267.167 885.5,269.833 885.5,272.5C 884.184,275.087 883.517,278.087 883.5,281.5C 883.517,284.913 884.184,287.913 885.5,290.5C 886.922,300.344 891.255,308.677 898.5,315.5C 901.672,319.841 904.339,324.508 906.5,329.5C 907.484,332.428 907.817,335.428 907.5,338.5C 905.631,340.635 904.964,343.302 905.5,346.5C 905.5,350.5 905.5,354.5 905.5,358.5C 903.631,360.635 902.964,363.302 903.5,366.5C 903.5,368.167 903.5,369.833 903.5,371.5C 901.824,372.183 901.157,373.517 901.5,375.5C 901.5,378.167 901.5,380.833 901.5,383.5C 899.631,385.635 898.964,388.302 899.5,391.5C 898.167,403.167 896.833,414.833 895.5,426.5C 894.252,427.334 893.585,428.667 893.5,430.5C 893.585,432.333 894.252,433.666 895.5,434.5C 898.933,437.389 902.933,439.556 907.5,441C 921.829,441.5 936.163,441.667 950.5,441.5C 951.5,442.833 952.5,444.167 953.5,445.5C 953.179,447.048 952.179,447.715 950.5,447.5C 950.479,450.535 949.146,452.868 946.5,454.5C 926.882,462.038 907.215,469.372 887.5,476.5C 880.346,479.65 874.346,484.317 869.5,490.5C 860.528,504.291 852.528,518.625 845.5,533.5C 845.017,544.581 844.017,555.581 842.5,566.5C 838.16,571.146 833.16,574.479 827.5,576.5C 825.544,582.412 824.877,588.745 825.5,595.5C 825.479,598.535 824.146,600.868 821.5,602.5C 815.872,603.495 810.206,603.829 804.5,603.5C 795.833,603.5 787.167,603.5 778.5,603.5C 776.167,603.5 773.833,603.5 771.5,603.5C 770.817,601.824 769.483,601.157 767.5,601.5C 759.035,600.945 751.035,598.611 743.5,594.5C 731.572,586.903 721.238,577.57 712.5,566.5C 713.978,566.238 715.311,566.571 716.5,567.5C 722.853,572.685 729.353,577.685 736,582.5C 741.663,584.248 746.83,586.915 751.5,590.5C 756.833,592.5 762.167,594.5 767.5,596.5C 778.5,597.833 789.5,597.833 800.5,596.5C 806.447,595.59 812.114,593.923 817.5,591.5C 817.063,584.457 814.063,578.79 808.5,574.5C 802.234,564.962 796.234,555.296 790.5,545.5C 792.5,545.5 794.5,545.5 796.5,545.5C 801.909,554.648 807.575,563.648 813.5,572.5C 813.62,573.586 814.287,574.253 815.5,574.5C 816.713,574.253 817.38,573.586 817.5,572.5C 824.819,570.674 831.819,568.007 838.5,564.5C 837.404,554.986 837.404,545.32 838.5,535.5C 841.033,529.568 843.366,523.568 845.5,517.5C 850.415,511.33 855.082,504.996 859.5,498.5C 860.429,497.311 860.762,495.978 860.5,494.5C 856.191,494.244 852.191,495.244 848.5,497.5C 842.643,501.259 836.977,505.259 831.5,509.5C 824.549,512.642 817.883,516.309 811.5,520.5C 805.244,523.363 798.91,526.029 792.5,528.5C 788.629,530.126 784.629,531.126 780.5,531.5C 777.302,530.964 774.635,531.631 772.5,533.5C 764.167,533.5 755.833,533.5 747.5,533.5C 727.861,531.512 707.861,530.845 687.5,531.5C 686.414,531.62 685.747,532.287 685.5,533.5C 685.747,534.713 686.414,535.38 687.5,535.5C 689.983,540.779 693.65,545.112 698.5,548.5C 699.429,549.689 699.762,551.022 699.5,552.5C 691.539,545.879 683.539,539.213 675.5,532.5C 670.554,530.519 665.554,528.853 660.5,527.5C 659.817,525.824 658.483,525.157 656.5,525.5C 654.5,525.5 652.5,525.5 650.5,525.5C 650.5,524.833 650.5,524.167 650.5,523.5C 656.167,523.5 661.833,523.5 667.5,523.5C 668.586,523.38 669.253,522.713 669.5,521.5C 669.253,520.287 668.586,519.62 667.5,519.5C 667.5,517.167 667.5,514.833 667.5,512.5C 674.594,515.534 681.928,518.201 689.5,520.5C 703.15,521.499 716.817,521.833 730.5,521.5C 732.483,521.843 733.817,521.176 734.5,519.5C 736.167,519.5 737.833,519.5 739.5,519.5C 742.167,519.5 744.833,519.5 747.5,519.5C 751.309,519.975 753.975,521.975 755.5,525.5C 757.397,526.805 759.731,527.471 762.5,527.5C 765.269,527.471 767.603,526.805 769.5,525.5C 775.897,525.021 782.23,524.021 788.5,522.5C 812.077,512.718 834.077,500.385 854.5,485.5C 865.193,480.318 876.193,475.984 887.5,472.5C 892.352,470.211 897.018,467.544 901.5,464.5C 903.601,461.73 906.268,459.73 909.5,458.5C 910.833,456.5 912.167,454.5 913.5,452.5C 906.747,447.362 899.08,445.028 890.5,445.5C 886.833,445.833 883.167,446.167 879.5,446.5C 877.434,448.717 875.1,450.717 872.5,452.5C 871.311,453.429 869.978,453.762 868.5,453.5C 868.5,454.833 868.5,456.167 868.5,457.5C 864.989,458.644 861.656,460.311 858.5,462.5C 845.891,477.297 830.891,488.964 813.5,497.5C 811.257,498.474 808.924,498.808 806.5,498.5C 806.5,497.167 806.5,495.833 806.5,494.5C 816.812,491.844 825.812,486.844 833.5,479.5C 834.689,478.571 836.022,478.238 837.5,478.5C 837.5,477.5 837.5,476.5 837.5,475.5C 838.978,475.762 840.311,475.429 841.5,474.5C 852.239,461.759 864.239,450.426 877.5,440.5C 878.429,439.311 878.762,437.978 878.5,436.5C 875.068,436.243 871.734,435.576 868.5,434.5C 867.306,433.223 865.64,432.556 863.5,432.5C 861.36,432.556 859.694,433.223 858.5,434.5C 855.142,435.285 851.809,436.285 848.5,437.5C 846.908,439.451 844.908,440.784 842.5,441.5C 837.094,447.243 831.428,452.576 825.5,457.5C 824.167,457.5 822.833,457.5 821.5,457.5C 821.201,455.396 821.534,453.396 822.5,451.5C 828.864,444.801 835.531,438.468 842.5,432.5C 843.104,429.737 844.438,427.403 846.5,425.5C 844.955,424.548 843.288,424.215 841.5,424.5C 840.817,422.824 839.483,422.157 837.5,422.5C 831.59,421.183 825.59,420.516 819.5,420.5C 816.402,419.179 812.902,418.512 809,418.5C 805.098,418.512 801.598,419.179 798.5,420.5C 793.088,420.65 787.754,421.317 782.5,422.5C 783.036,419.302 782.369,416.635 780.5,414.5C 779.88,412.023 778.88,412.023 777.5,414.5C 775.54,413.277 773.707,411.944 772,410.5C 771.501,416.491 771.334,422.491 771.5,428.5C 769.824,429.183 769.157,430.517 769.5,432.5C 766.484,446.533 759.817,458.533 749.5,468.5C 748.311,469.429 746.978,469.762 745.5,469.5C 746.562,465.412 748.896,462.079 752.5,459.5C 763.89,443.608 768.556,425.942 766.5,406.5C 758.971,399.983 750.638,394.65 741.5,390.5C 735.563,388.952 729.896,389.619 724.5,392.5C 711.45,406.6 701.45,422.6 694.5,440.5C 693.833,440.833 693.167,441.167 692.5,441.5C 691.624,447.252 689.624,452.585 686.5,457.5C 685.52,460.086 685.187,462.753 685.5,465.5C 684.167,465.5 682.833,465.5 681.5,465.5C 681.5,462.833 681.5,460.167 681.5,457.5C 683.176,456.817 683.843,455.483 683.5,453.5C 686.696,444.662 689.696,435.662 692.5,426.5C 693.833,423.167 693.833,419.833 692.5,416.5C 690.999,415.248 689.332,414.248 687.5,413.5C 679.889,411.953 672.222,410.953 664.5,410.5C 662.365,408.631 659.698,407.964 656.5,408.5C 649.974,407.229 644.641,403.896 640.5,398.5C 636.348,395.588 632.015,392.921 627.5,390.5C 623.5,389.167 619.5,389.167 615.5,390.5C 613.129,393.206 610.463,395.539 607.5,397.5C 606.328,397.081 605.328,396.415 604.5,395.5C 603.11,387.287 598.277,383.954 590,385.5C 584.135,386.065 578.301,386.731 572.5,387.5C 569.302,386.964 566.635,387.631 564.5,389.5C 555.377,390.391 546.377,392.058 537.5,394.5C 532.701,398.296 529.035,402.963 526.5,408.5C 525.167,414.5 525.167,420.5 526.5,426.5C 538.847,454.241 557.513,476.575 582.5,493.5C 591.698,499.601 601.365,504.934 611.5,509.5C 623.851,513.509 636.185,517.509 648.5,521.5C 648.5,522.167 648.5,522.833 648.5,523.5C 638.731,521.974 629.064,519.974 619.5,517.5C 618.082,515.692 616.082,515.025 613.5,515.5C 610.379,515.462 607.379,514.795 604.5,513.5C 603.5,513.833 602.5,514.167 601.5,514.5C 607.042,525.585 612.042,536.919 616.5,548.5C 619.119,555.641 620.786,562.974 621.5,570.5C 621.157,572.483 621.824,573.817 623.5,574.5C 623.5,577.5 623.5,580.5 623.5,583.5C 623.157,585.483 623.824,586.817 625.5,587.5C 626.306,600.83 624.64,613.83 620.5,626.5C 616.057,634.276 609.724,639.943 601.5,643.5C 599.604,644.466 597.604,644.799 595.5,644.5C 591.833,644.5 588.167,644.5 584.5,644.5C 581.753,644.813 579.086,644.48 576.5,643.5C 575.012,641.423 573.012,640.423 570.5,640.5C 570.5,639.167 570.5,637.833 570.5,636.5C 570.5,632.5 570.5,628.5 570.5,624.5C 573.999,616.485 576.666,608.151 578.5,599.5C 578.346,595.902 577.346,592.569 575.5,589.5C 571.993,587.246 568.327,585.246 564.5,583.5C 550.463,579.16 536.463,574.826 522.5,570.5C 521.666,569.252 520.333,568.585 518.5,568.5C 516.667,568.585 515.334,569.252 514.5,570.5C 511.223,570.216 508.057,570.549 505,571.5C 467.834,673.334 438.168,777.334 416,883.5C 414.825,893.559 413.325,903.559 411.5,913.5C 411.123,917.859 410.956,922.192 411,926.5C 424.331,903.522 440.331,882.522 459,863.5C 461.532,839.185 463.865,814.852 466,790.5C 467.165,782.434 471.665,777.768 479.5,776.5C 479.069,771.68 478.736,766.847 478.5,762C 477.258,751.242 481.924,746.575 492.5,748C 494.081,743.093 497.081,739.427 501.5,737C 510.606,737.292 514.606,742.125 513.5,751.5C 511.183,760.683 512.35,769.349 517,777.5C 517.667,780.167 517.667,782.833 517,785.5C 513,792.167 509,798.833 505,805.5C 501.957,812.285 499.957,819.285 499,826.5C 507.045,819.453 515.378,812.787 524,806.5C 525.058,801.065 525.558,795.565 525.5,790C 525.092,782.82 524.926,775.653 525,768.5C 525.939,765.06 528.105,762.727 531.5,761.5C 532.092,753.113 532.925,744.779 534,736.5C 537.868,730.653 543.368,728.153 550.5,729C 554.47,722.431 558.804,716.097 563.5,710C 577.125,703.279 582.291,707.445 579,722.5C 577.974,729.604 576.474,736.604 574.5,743.5C 576.342,746.864 578.009,750.364 579.5,754C 576.98,762.857 571.313,768.857 562.5,772C 559.202,774.464 556.868,777.63 555.5,781.5C 570.99,775.167 581.823,763.833 588,747.5C 589.158,743.203 590.158,738.869 591,734.5C 591.089,720.121 591.755,705.787 593,691.5C 594.972,683.35 599.472,677.184 606.5,673C 612.422,671.345 617.255,672.845 621,677.5C 621.609,684.379 623.109,691.045 625.5,697.5C 623.917,704.006 621.751,710.339 619,716.5C 618.005,719.126 617.672,721.793 618,724.5C 623.667,718.833 629.333,713.167 635,707.5C 638.062,701.77 641.896,696.603 646.5,692C 651.515,688.595 656.181,688.761 660.5,692.5C 664.318,689.182 667.985,685.682 671.5,682C 682.47,676.213 690.97,678.713 697,689.5C 698.874,696.011 697.041,701.178 691.5,705C 687.34,706.912 683.34,709.079 679.5,711.5C 681.576,721.88 677.576,728.38 667.5,731C 638.61,736.104 614.943,749.938 596.5,772.5C 596.833,772.833 597.167,773.167 597.5,773.5C 606.297,768.532 614.964,763.366 623.5,758C 628.098,756.976 632.432,757.476 636.5,759.5C 643.932,753.779 652.265,751.613 661.5,753C 664.023,753.518 666.023,754.852 667.5,757C 678.346,756.493 682.513,761.327 680,771.5C 676.027,775.318 671.694,778.651 667,781.5C 666.148,784.988 664.981,788.322 663.5,791.5C 661.044,792.948 658.378,793.614 655.5,793.5C 648.87,792.226 642.204,791.726 635.5,792C 634.941,792.725 634.608,793.558 634.5,794.5C 635.457,797.28 636.624,799.947 638,802.5C 638.705,809.959 635.205,813.292 627.5,812.5C 609.498,807.249 591.165,803.749 572.5,802C 565.5,801.333 558.5,801.333 551.5,802C 522.116,822.368 494.783,845.368 469.5,871C 478.863,868.772 488.196,866.105 497.5,863C 503.162,863.073 508.829,863.073 514.5,863C 522.051,860.649 529.718,858.816 537.5,857.5C 542.323,858.504 546.823,860.17 551,862.5C 557.146,861.49 563.313,861.324 569.5,862C 572.265,863.097 573.931,865.097 574.5,868C 581.596,868.871 588.596,870.204 595.5,872C 600.772,880.169 598.772,886.169 589.5,890C 583.881,891.988 578.214,893.821 572.5,895.5C 575.324,904.079 572.324,906.913 563.5,904C 557.601,902.253 551.601,901.087 545.5,900.5C 546.002,904.171 544.502,906.505 541,907.5C 531.609,902.888 522.442,897.888 513.5,892.5C 513.366,896.11 511.533,897.776 508,897.5C 488.247,893.394 468.413,892.56 448.5,895C 428.777,920.922 411.943,948.755 398,978.5C 394.307,1001.3 389.974,1023.96 385,1046.5C 382.827,1055.92 383.161,1065.25 386,1074.5C 427.566,1177.1 454.566,1283.43 467,1393.5C 472.463,1418.54 475.463,1443.87 476,1469.5C 477.75,1472.25 478.75,1475.25 479,1478.5C 478.899,1498.27 480.232,1517.94 483,1537.5C 483.667,1580.83 483.667,1624.17 483,1667.5C 482.203,1687.92 480.537,1708.25 478,1728.5C 476.733,1732.87 474.567,1736.7 471.5,1740C 468.134,1739.97 466.3,1738.14 466,1734.5C 466.203,1721.13 467.203,1707.8 469,1694.5C 469.205,1660.66 469.705,1626.82 470.5,1593C 470.374,1562.02 468.207,1531.19 464,1500.5C 462.971,1481.17 461.971,1461.83 461,1442.5C 458.489,1433.28 456.489,1423.94 455,1414.5C 443.649,1305.43 418.315,1199.76 379,1097.5C 375.928,1109 373.594,1120.66 372,1132.5C 367.82,1170.45 364.154,1208.45 361,1246.5C 358.402,1325.82 358.069,1405.16 360,1484.5C 363.37,1529.79 366.037,1575.12 368,1620.5C 369.888,1627.05 371.222,1633.71 372,1640.5C 373.928,1666.18 375.928,1691.85 378,1717.5C 382.038,1732.21 384.038,1747.21 384,1762.5C 385.098,1767.79 386.598,1772.96 388.5,1778C 388.332,1781.84 386.665,1784.84 383.5,1787C 381.888,1787.72 380.388,1787.55 379,1786.5C 376.128,1776.22 373.461,1765.88 371,1755.5C 367.186,1720.88 363.853,1686.21 361,1651.5C 358.774,1645.37 357.441,1639.04 357,1632.5C 356.667,1622.5 356.333,1612.5 356,1602.5C 354.342,1593.55 353.009,1584.55 352,1575.5C 349.436,1525 346.936,1474.5 344.5,1424C 345.822,1395 345.822,1366 344.5,1337C 344.695,1319.71 346.195,1302.55 349,1285.5C 349.333,1270.5 349.667,1255.5 350,1240.5C 352.984,1201.79 356.318,1163.12 360,1124.5C 361.662,1117.84 363.328,1111.17 365,1104.5C 365.333,1096.5 365.667,1088.5 366,1080.5C 366.725,1078.05 367.725,1075.72 369,1073.5C 369.667,1071.5 369.667,1069.5 369,1067.5C 361.861,1050.42 354.528,1033.42 347,1016.5C 327.885,981.272 309.552,945.605 292,909.5C 275.667,882.167 259.333,854.833 243,827.5C 234.564,814.44 225.064,802.274 214.5,791C 210.218,790.035 206.218,790.702 202.5,793C 192.671,795.001 184.171,792.501 177,785.5C 175.36,781.608 174.027,777.608 173,773.5C 169.901,769.034 165.735,767.534 160.5,769C 151.593,773.064 142.26,774.73 132.5,774C 102.032,762.516 77.0325,743.85 57.5,718C 49.7363,715.409 42.0697,712.409 34.5,709C 25.3264,700.15 20.3264,689.316 19.5,676.5C 21.348,665.774 23.5146,655.107 26,644.5C 27.5854,637.998 30.252,631.998 34,626.5C 35.8408,619.606 37.1741,612.606 38,605.5C 41.2349,596.599 47.4016,590.766 56.5,588C 76.283,581.845 96.4497,577.678 117,575.5C 136.843,575.092 153.509,582.092 167,596.5C 169.194,599.554 170.861,602.888 172,606.5C 172.248,614.96 171.581,623.293 170,631.5C 173.586,637.091 177.92,642.091 183,646.5C 193.632,659.423 201.966,673.756 208,689.5C 211.477,700.931 211.143,712.264 207,723.5C 205.598,728.975 206.931,733.642 211,737.5C 217.044,741.876 222.044,747.21 226,753.5C 226.667,756.5 226.667,759.5 226,762.5C 223.211,768.72 222.877,775.054 225,781.5C 246.307,808.107 265.641,836.107 283,865.5C 314.228,920.618 343.394,976.951 370.5,1034.5C 372.667,1030.83 374.833,1027.17 377,1023.5C 377.425,1014.44 378.425,1005.44 380,996.5C 393.717,928.965 408.384,861.632 424,794.5C 425.427,785.514 426.76,776.514 428,767.5C 428.333,742.833 428.667,718.167 429,693.5C 431.667,692.167 434.333,692.167 437,693.5C 437.5,703.828 437.666,714.161 437.5,724.5C 440.833,724.973 443,723.64 444,720.5C 457.959,669.621 475.293,619.954 496,571.5C 496.494,569.866 496.66,568.199 496.5,566.5C 484.803,563.759 473.136,560.759 461.5,557.5C 456.679,555.591 452.346,552.925 448.5,549.5C 445.833,548.5 443.167,547.5 440.5,546.5C 433.521,540.677 426.188,535.344 418.5,530.5C 408.444,519.781 398.444,509.114 388.5,498.5C 382.706,489.245 377.706,479.578 373.5,469.5C 370.581,463.004 368.248,456.338 366.5,449.5C 366.843,447.517 366.176,446.183 364.5,445.5C 360.738,432.308 355.071,419.975 347.5,408.5C 337.794,399.462 328.794,389.795 320.5,379.5C 318.76,375.687 316.76,372.02 314.5,368.5C 312.546,364.02 311.546,359.353 311.5,354.5C 311.843,352.517 311.176,351.183 309.5,350.5C 309.5,345.833 309.5,341.167 309.5,336.5C 310.809,334.429 311.475,331.929 311.5,329C 311.475,326.071 310.809,323.571 309.5,321.5C 309.446,319.368 308.446,318.035 306.5,317.5C 303.663,315.598 300.329,314.931 296.5,315.5C 292.314,314.411 288.314,312.744 284.5,310.5C 278.598,299.275 275.932,287.275 276.5,274.5C 276.5,270.167 276.5,265.833 276.5,261.5C 276.238,260.022 276.571,258.689 277.5,257.5C 288.517,248.146 299.184,238.479 309.5,228.5C 315.057,226.722 320.391,224.389 325.5,221.5C 328.086,220.52 330.753,220.187 333.5,220.5C 337.167,220.5 340.833,220.5 344.5,220.5C 353.608,222.387 361.608,226.387 368.5,232.5C 369.689,233.429 371.022,233.762 372.5,233.5C 372.5,234.833 372.5,236.167 372.5,237.5C 373.978,237.238 375.311,237.571 376.5,238.5C 378.795,241.797 381.462,244.797 384.5,247.5C 385.495,242.208 385.828,236.875 385.5,231.5C 387.388,229.012 388.055,226.012 387.5,222.5C 386.897,217.381 387.564,212.715 389.5,208.5C 389.5,226.5 389.5,244.5 389.5,262.5C 389.157,264.483 389.824,265.817 391.5,266.5C 391.173,271.214 391.507,275.88 392.5,280.5C 397.856,297.953 405.856,313.953 416.5,328.5C 420.5,332.167 424.5,335.833 428.5,339.5C 445.375,350.581 463.375,359.581 482.5,366.5C 483.5,366.167 484.5,365.833 485.5,365.5C 482.073,362.744 479.407,359.41 477.5,355.5C 476.311,354.571 474.978,354.238 473.5,354.5C 473.762,353.022 473.429,351.689 472.5,350.5C 465.803,343.468 458.803,336.802 451.5,330.5C 449.666,328.502 448.666,326.168 448.5,323.5C 447.022,323.762 445.689,323.429 444.5,322.5C 439.095,316.424 433.095,311.091 426.5,306.5C 422.911,304.537 419.244,302.87 415.5,301.5C 415.5,300.5 415.5,299.5 415.5,298.5C 418.249,298.274 420.916,298.607 423.5,299.5C 430.007,303.586 436.34,307.92 442.5,312.5C 451.167,322.5 460.5,331.833 470.5,340.5C 471.167,341.833 471.833,343.167 472.5,344.5C 477.534,349.199 482.2,354.199 486.5,359.5C 487.988,361.577 489.988,362.577 492.5,362.5C 492.238,361.022 492.571,359.689 493.5,358.5C 495.412,356.343 497.079,354.009 498.5,351.5C 487.954,338.948 476.621,326.948 464.5,315.5C 460.16,309.665 455.66,303.998 451,298.5C 448.025,294.217 445.859,289.55 444.5,284.5C 446.492,284.328 448.158,284.995 449.5,286.5C 451.397,290.736 453.73,294.736 456.5,298.5C 462.876,303.209 468.209,308.875 472.5,315.5C 478.3,320.294 482.967,325.96 486.5,332.5C 487.689,333.429 489.022,333.762 490.5,333.5C 493.009,324.628 497.676,316.961 504.5,310.5C 505.689,309.571 507.022,309.238 508.5,309.5C 511.082,309.975 513.082,309.308 514.5,307.5C 516.517,301.259 519.517,295.259 523.5,289.5C 527.855,287.096 532.522,286.096 537.5,286.5C 538.183,288.176 539.517,288.843 541.5,288.5C 543.916,289.968 546.583,290.635 549.5,290.5C 549.093,286.719 550.426,283.719 553.5,281.5C 555.795,280.864 557.461,279.531 558.5,277.5C 561.5,276.5 564.5,275.5 567.5,274.5C 592.363,281.787 616.696,290.454 640.5,300.5C 646.614,305.945 653.28,310.612 660.5,314.5C 662.543,316.208 664.21,318.208 665.5,320.5C 674.564,322.562 680.897,327.895 684.5,336.5C 687.463,334.539 690.129,332.206 692.5,329.5C 695.6,325.407 698.267,321.074 700.5,316.5C 703.167,313.833 705.833,311.167 708.5,308.5C 709.689,307.571 711.022,307.238 712.5,307.5C 712.762,308.978 712.429,310.311 711.5,311.5C 705.196,316.129 700.862,322.129 698.5,329.5C 694.78,334.077 690.78,338.41 686.5,342.5C 685.571,343.689 685.238,345.022 685.5,346.5C 689.5,346.5 693.5,346.5 697.5,346.5C 697.5,347.833 697.5,349.167 697.5,350.5C 700.453,348.911 703.453,347.244 706.5,345.5C 714.887,336.153 725.22,330.153 737.5,327.5C 737.643,329.262 737.309,330.929 736.5,332.5C 733.095,333.289 729.761,334.289 726.5,335.5C 719.833,340.833 713.167,346.167 706.5,351.5C 705.311,352.429 703.978,352.762 702.5,352.5C 702.5,357.167 702.5,361.833 702.5,366.5C 703.978,366.762 705.311,366.429 706.5,365.5C 716.174,355.164 727.841,348.164 741.5,344.5C 741.672,346.492 741.005,348.158 739.5,349.5C 734.109,352.742 728.443,355.409 722.5,357.5C 720.399,360.27 717.732,362.27 714.5,363.5C 712.461,365.874 710.128,367.874 707.5,369.5C 706.571,370.689 706.238,372.022 706.5,373.5C 705.307,373.97 704.64,374.97 704.5,376.5C 704.64,378.03 705.307,379.03 706.5,379.5C 706.5,381.5 706.5,383.5 706.5,385.5C 706.5,388.167 706.5,390.833 706.5,393.5C 708.483,393.843 709.817,393.176 710.5,391.5C 716.201,387.49 722.201,383.824 728.5,380.5C 736.074,378.743 743.074,380.076 749.5,384.5C 761.335,393.251 774.335,399.584 788.5,403.5C 789.183,405.176 790.517,405.843 792.5,405.5C 809.354,409.254 826.354,412.254 843.5,414.5C 845.988,416.388 848.988,417.055 852.5,416.5C 855.167,416.5 857.833,416.5 860.5,416.5C 862.635,418.369 865.302,419.036 868.5,418.5C 878.073,420.177 886.073,417.51 892.5,410.5C 893.452,408.955 893.785,407.288 893.5,405.5C 894.748,404.666 895.415,403.333 895.5,401.5C 895.415,399.667 894.748,398.334 893.5,397.5C 893.799,395.396 893.466,393.396 892.5,391.5C 890.408,388.319 888.075,385.319 885.5,382.5C 889.165,381.003 892.498,379.003 895.5,376.5C 891.63,373.735 887.63,371.235 883.5,369C 886.102,367.86 888.769,367.027 891.5,366.5C 891.5,365.167 891.5,363.833 891.5,362.5C 892.833,362.5 894.167,362.5 895.5,362.5C 896.833,358.5 898.167,354.5 899.5,350.5C 901.176,349.817 901.843,348.483 901.5,346.5C 903.932,334.704 899.932,326.037 889.5,320.5C 883.875,318.56 878.208,316.893 872.5,315.5C 872.5,314.167 872.5,312.833 872.5,311.5C 874.929,311.116 877.263,310.449 879.5,309.5C 880.586,309.38 881.253,308.713 881.5,307.5C 881.253,306.287 880.586,305.62 879.5,305.5C 879.466,299.628 878.466,293.961 876.5,288.5C 876.03,287.307 875.03,286.64 873.5,286.5C 871.97,286.64 870.97,287.307 870.5,288.5C 867.833,289.167 865.167,289.833 862.5,290.5C 860.517,290.157 859.183,290.824 858.5,292.5C 849.631,295.901 840.631,298.901 831.5,301.5C 831.5,300.5 831.5,299.5 831.5,298.5C 836.875,296.979 841.875,294.646 846.5,291.5C 855.83,288.278 865.164,285.278 874.5,282.5C 875.968,275.717 877.301,268.884 878.5,262C 878.167,259.167 877.833,256.333 877.5,253.5C 875.311,250.344 873.644,247.011 872.5,243.5C 871.022,243.762 869.689,243.429 868.5,242.5C 859.074,231.325 848.074,222.325 835.5,215.5C 833.604,214.534 831.604,214.201 829.5,214.5C 828.306,213.223 826.64,212.556 824.5,212.5C 822.36,212.556 820.694,213.223 819.5,214.5C 815.883,214.483 812.55,215.483 809.5,217.5C 798.843,223.735 788.51,230.402 778.5,237.5C 776.884,236.885 775.551,235.885 774.5,234.5C 785.228,225.758 795.895,217.092 806.5,208.5C 807.434,207.432 807.768,206.099 807.5,204.5C 805.167,204.5 802.833,204.5 800.5,204.5C 797.167,204.5 793.833,204.5 790.5,204.5C 787.402,203.179 783.902,202.512 780,202.5C 776.098,202.512 772.598,203.179 769.5,204.5C 765.883,204.483 762.55,205.483 759.5,207.5C 756.5,210.5 753.5,213.5 750.5,216.5C 745.632,228.771 740.966,241.104 736.5,253.5C 723.962,273.04 708.296,289.707 689.5,303.5C 688.833,303.167 688.167,302.833 687.5,302.5C 694.178,295.157 700.844,287.823 707.5,280.5C 708.429,279.311 708.762,277.978 708.5,276.5C 712.5,276.5 714.5,274.5 714.5,270.5C 715.833,270.5 717.167,270.5 718.5,270.5C 718.238,269.022 718.571,267.689 719.5,266.5C 723.43,262.603 726.763,258.269 729.5,253.5C 739.591,231.256 743.924,207.923 742.5,183.5C 740.149,178.797 737.815,174.13 735.5,169.5C 728.812,163.146 722.479,156.48 716.5,149.5C 715.311,148.571 713.978,148.238 712.5,148.5C 709.348,155.833 707.015,163.5 705.5,171.5C 701.946,177.94 698.946,184.607 696.5,191.5C 687.177,208.144 677.843,224.811 668.5,241.5C 667.476,242.853 666.143,243.52 664.5,243.5C 664.397,240.781 664.731,238.115 665.5,235.5C 668.248,231.007 671.248,226.674 674.5,222.5C 681.995,207.173 689.662,192.173 697.5,177.5C 699.308,176.082 699.975,174.082 699.5,171.5C 702.585,160.709 704.918,149.709 706.5,138.5C 708.308,137.082 708.975,135.082 708.5,132.5C 708.83,125.468 708.497,118.468 707.5,111.5C 706.167,108.833 704.833,106.167 703.5,103.5C 696.471,94.4773 689.471,85.4773 682.5,76.5C 678.422,71.7511 673.755,67.7511 668.5,64.5C 654.768,74.2318 643.102,85.8984 633.5,99.5C 629.956,107.809 626.623,116.143 623.5,124.5C 622.167,124.5 620.833,124.5 619.5,124.5C 623.609,110.617 629.609,97.6168 637.5,85.5C 644.136,79.8655 650.469,73.8655 656.5,67.5C 660.351,66.6551 662.351,64.3218 662.5,60.5C 659.753,60.8134 657.086,60.48 654.5,59.5C 642.401,55.0223 630.068,51.3556 617.5,48.5C 612.193,47.7244 606.86,47.3911 601.5,47.5C 600.082,45.6921 598.082,45.0254 595.5,45.5C 584.779,44.8581 574.446,45.5247 564.5,47.5C 562.473,47.3379 560.473,47.5045 558.5,48C 555.805,50.2148 552.805,51.7148 549.5,52.5C 548.243,57.6801 545.91,62.3467 542.5,66.5C 537.13,81.4195 532.13,96.4195 527.5,111.5C 525.824,112.183 525.157,113.517 525.5,115.5C 523.643,125.733 522.643,136.066 522.5,146.5C 520.631,148.635 519.964,151.302 520.5,154.5C 520.5,171.167 520.5,187.833 520.5,204.5C 517.856,204.84 515.523,204.173 513.5,202.5C 512.501,192.188 512.168,181.855 512.5,171.5C 514.369,169.365 515.036,166.698 514.5,163.5C 514.5,160.833 514.5,158.167 514.5,155.5C 514.5,151.167 514.5,146.833 514.5,142.5C 516.308,141.082 516.975,139.082 516.5,136.5C 516.5,133.167 516.5,129.833 516.5,126.5C 518.176,125.817 518.843,124.483 518.5,122.5C 519.643,118.256 520.31,113.923 520.5,109.5C 522.176,108.817 522.843,107.483 522.5,105.5C 523.73,95.4725 526.396,85.8058 530.5,76.5C 533.365,68.4377 537.031,60.7711 541.5,53.5C 538.833,52.1667 536.167,52.1667 533.5,53.5C 510.172,60.1645 486.839,66.8312 463.5,73.5C 460.891,75.108 459.558,77.4413 459.5,80.5C 461.317,85.3754 462.651,90.3754 463.5,95.5C 461.38,102.861 459.047,110.194 456.5,117.5C 455.145,125.138 454.145,132.804 453.5,140.5C 451.631,142.635 450.964,145.302 451.5,148.5C 451.033,169.23 451.7,189.897 453.5,210.5C 453.157,212.483 453.824,213.817 455.5,214.5C 455.5,217.167 455.5,219.833 455.5,222.5C 455.157,224.483 455.824,225.817 457.5,226.5C 459.459,234.048 460.792,241.714 461.5,249.5C 459.5,249.5 457.5,249.5 455.5,249.5C 452.055,237.403 449.721,225.07 448.5,212.5C 449.036,209.302 448.369,206.635 446.5,204.5C 444.69,188.25 444.023,171.916 444.5,155.5C 446.256,154.448 446.923,152.781 446.5,150.5C 446.5,145.833 446.5,141.167 446.5,136.5C 448.176,135.817 448.843,134.483 448.5,132.5C 449.282,123.48 450.282,114.48 451.5,105.5C 452.586,105.38 453.253,104.713 453.5,103.5C 453.253,102.287 452.586,101.62 451.5,101.5C 433.073,105.88 416.739,114.213 402.5,126.5C 399.167,131.833 395.833,137.167 392.5,142.5C 389.586,149.233 387.92,156.233 387.5,163.5C 385.631,165.635 384.964,168.302 385.5,171.5C 386.144,182.884 385.477,193.884 383.5,204.5C 382.963,198.15 382.296,191.817 381.5,185.5C 381.5,179.5 381.5,173.5 381.5,167.5C 381.5,164.833 381.5,162.167 381.5,159.5C 383.176,158.817 383.843,157.483 383.5,155.5C 383.689,151.002 384.689,146.669 386.5,142.5C 389.167,137.167 391.833,131.833 394.5,126.5C 406.357,113.981 420.357,104.648 436.5,98.5C 438.167,96.8333 439.833,95.1667 441.5,93.5C 445.063,86.2591 448.396,78.9257 451.5,71.5C 453.844,70.6628 455.844,69.3294 457.5,67.5C 490.558,56.1525 524.225,47.1525 558.5,40.5C 562.445,39.5091 566.445,39.1758 570.5,39.5 Z"/></g>
<g><path style="opacity:1" fill="#c5c5c5" d="M 595.5,45.5 C 595.5,46.1667 595.5,46.8333 595.5,47.5C 585.167,47.5 574.833,47.5 564.5,47.5C 574.446,45.5247 584.779,44.8581 595.5,45.5 Z"/></g>
<g><path style="opacity:1" fill="#6c6c6c" d="M 595.5,45.5 C 598.082,45.0254 600.082,45.6921 601.5,47.5C 599.5,47.5 597.5,47.5 595.5,47.5C 595.5,46.8333 595.5,46.1667 595.5,45.5 Z"/></g>
<g><path style="opacity:1" fill="#fdfdfd" d="M 564.5,47.5 C 574.833,47.5 585.167,47.5 595.5,47.5C 597.5,47.5 599.5,47.5 601.5,47.5C 606.86,47.3911 612.193,47.7244 617.5,48.5C 630.068,51.3556 642.401,55.0223 654.5,59.5C 657.086,60.48 659.753,60.8134 662.5,60.5C 662.351,64.3218 660.351,66.6551 656.5,67.5C 650.469,73.8655 644.136,79.8655 637.5,85.5C 629.609,97.6168 623.609,110.617 619.5,124.5C 619.62,125.586 620.287,126.253 621.5,126.5C 622.713,126.253 623.38,125.586 623.5,124.5C 626.623,116.143 629.956,107.809 633.5,99.5C 643.102,85.8984 654.768,74.2318 668.5,64.5C 673.755,67.7511 678.422,71.7511 682.5,76.5C 689.471,85.4773 696.471,94.4773 703.5,103.5C 704.833,106.167 706.167,108.833 707.5,111.5C 708.497,118.468 708.83,125.468 708.5,132.5C 706.692,133.918 706.025,135.918 706.5,138.5C 704.918,149.709 702.585,160.709 699.5,171.5C 697.692,172.918 697.025,174.918 697.5,177.5C 689.662,192.173 681.995,207.173 674.5,222.5C 671.248,226.674 668.248,231.007 665.5,235.5C 664.731,238.115 664.397,240.781 664.5,243.5C 666.143,243.52 667.476,242.853 668.5,241.5C 677.843,224.811 687.177,208.144 696.5,191.5C 698.946,184.607 701.946,177.94 705.5,171.5C 707.015,163.5 709.348,155.833 712.5,148.5C 713.978,148.238 715.311,148.571 716.5,149.5C 722.479,156.48 728.812,163.146 735.5,169.5C 737.815,174.13 740.149,178.797 742.5,183.5C 743.924,207.923 739.591,231.256 729.5,253.5C 726.763,258.269 723.43,262.603 719.5,266.5C 718.571,267.689 718.238,269.022 718.5,270.5C 717.167,270.5 715.833,270.5 714.5,270.5C 714.5,274.5 712.5,276.5 708.5,276.5C 708.762,277.978 708.429,279.311 707.5,280.5C 700.844,287.823 694.178,295.157 687.5,302.5C 688.167,302.833 688.833,303.167 689.5,303.5C 708.296,289.707 723.962,273.04 736.5,253.5C 740.966,241.104 745.632,228.771 750.5,216.5C 753.5,213.5 756.5,210.5 759.5,207.5C 762.55,205.483 765.883,204.483 769.5,204.5C 776.5,204.5 783.5,204.5 790.5,204.5C 793.833,204.5 797.167,204.5 800.5,204.5C 802.5,205.833 804.5,207.167 806.5,208.5C 795.895,217.092 785.228,225.758 774.5,234.5C 775.551,235.885 776.884,236.885 778.5,237.5C 788.51,230.402 798.843,223.735 809.5,217.5C 812.55,215.483 815.883,214.483 819.5,214.5C 822.833,214.5 826.167,214.5 829.5,214.5C 831.604,214.201 833.604,214.534 835.5,215.5C 848.074,222.325 859.074,231.325 868.5,242.5C 869.689,243.429 871.022,243.762 872.5,243.5C 873.644,247.011 875.311,250.344 877.5,253.5C 877.833,256.333 878.167,259.167 878.5,262C 877.301,268.884 875.968,275.717 874.5,282.5C 865.164,285.278 855.83,288.278 846.5,291.5C 841.875,294.646 836.875,296.979 831.5,298.5C 831.5,299.5 831.5,300.5 831.5,301.5C 840.631,298.901 849.631,295.901 858.5,292.5C 860.483,292.843 861.817,292.176 862.5,290.5C 865.167,289.833 867.833,289.167 870.5,288.5C 872.5,288.5 874.5,288.5 876.5,288.5C 878.466,293.961 879.466,299.628 879.5,305.5C 879.5,306.833 879.5,308.167 879.5,309.5C 877.263,310.449 874.929,311.116 872.5,311.5C 871.414,311.62 870.747,312.287 870.5,313.5C 870.747,314.713 871.414,315.38 872.5,315.5C 878.208,316.893 883.875,318.56 889.5,320.5C 899.932,326.037 903.932,334.704 901.5,346.5C 899.824,347.183 899.157,348.517 899.5,350.5C 898.167,354.5 896.833,358.5 895.5,362.5C 894.167,362.5 892.833,362.5 891.5,362.5C 891.5,363.833 891.5,365.167 891.5,366.5C 888.769,367.027 886.102,367.86 883.5,369C 887.63,371.235 891.63,373.735 895.5,376.5C 892.498,379.003 889.165,381.003 885.5,382.5C 888.075,385.319 890.408,388.319 892.5,391.5C 893.466,393.396 893.799,395.396 893.5,397.5C 893.5,400.167 893.5,402.833 893.5,405.5C 893.785,407.288 893.452,408.955 892.5,410.5C 886.073,417.51 878.073,420.177 868.5,418.5C 866.365,416.631 863.698,415.964 860.5,416.5C 857.833,416.5 855.167,416.5 852.5,416.5C 850.012,414.612 847.012,413.945 843.5,414.5C 826.354,412.254 809.354,409.254 792.5,405.5C 791.817,403.824 790.483,403.157 788.5,403.5C 774.335,399.584 761.335,393.251 749.5,384.5C 743.074,380.076 736.074,378.743 728.5,380.5C 722.201,383.824 716.201,387.49 710.5,391.5C 709.167,389.5 707.833,387.5 706.5,385.5C 706.5,383.5 706.5,381.5 706.5,379.5C 706.5,377.5 706.5,375.5 706.5,373.5C 706.238,372.022 706.571,370.689 707.5,369.5C 710.128,367.874 712.461,365.874 714.5,363.5C 717.732,362.27 720.399,360.27 722.5,357.5C 728.443,355.409 734.109,352.742 739.5,349.5C 741.005,348.158 741.672,346.492 741.5,344.5C 727.841,348.164 716.174,355.164 706.5,365.5C 705.311,366.429 703.978,366.762 702.5,366.5C 702.5,361.833 702.5,357.167 702.5,352.5C 703.978,352.762 705.311,352.429 706.5,351.5C 713.167,346.167 719.833,340.833 726.5,335.5C 729.761,334.289 733.095,333.289 736.5,332.5C 737.309,330.929 737.643,329.262 737.5,327.5C 725.22,330.153 714.887,336.153 706.5,345.5C 703.453,347.244 700.453,348.911 697.5,350.5C 697.5,349.167 697.5,347.833 697.5,346.5C 693.5,346.5 689.5,346.5 685.5,346.5C 685.238,345.022 685.571,343.689 686.5,342.5C 690.78,338.41 694.78,334.077 698.5,329.5C 700.862,322.129 705.196,316.129 711.5,311.5C 712.429,310.311 712.762,308.978 712.5,307.5C 711.022,307.238 709.689,307.571 708.5,308.5C 705.833,311.167 703.167,313.833 700.5,316.5C 698.267,321.074 695.6,325.407 692.5,329.5C 690.129,332.206 687.463,334.539 684.5,336.5C 680.897,327.895 674.564,322.562 665.5,320.5C 664.21,318.208 662.543,316.208 660.5,314.5C 653.28,310.612 646.614,305.945 640.5,300.5C 616.696,290.454 592.363,281.787 567.5,274.5C 564.5,275.5 561.5,276.5 558.5,277.5C 557.461,279.531 555.795,280.864 553.5,281.5C 550.426,283.719 549.093,286.719 549.5,290.5C 546.583,290.635 543.916,289.968 541.5,288.5C 540.817,286.824 539.483,286.157 537.5,286.5C 532.522,286.096 527.855,287.096 523.5,289.5C 519.517,295.259 516.517,301.259 514.5,307.5C 511.918,307.025 509.918,307.692 508.5,309.5C 507.022,309.238 505.689,309.571 504.5,310.5C 497.676,316.961 493.009,324.628 490.5,333.5C 489.022,333.762 487.689,333.429 486.5,332.5C 482.967,325.96 478.3,320.294 472.5,315.5C 468.209,308.875 462.876,303.209 456.5,298.5C 453.73,294.736 451.397,290.736 449.5,286.5C 448.158,284.995 446.492,284.328 444.5,284.5C 445.859,289.55 448.025,294.217 451,298.5C 455.66,303.998 460.16,309.665 464.5,315.5C 476.621,326.948 487.954,338.948 498.5,351.5C 497.079,354.009 495.412,356.343 493.5,358.5C 492.571,359.689 492.238,361.022 492.5,362.5C 489.988,362.577 487.988,361.577 486.5,359.5C 482.2,354.199 477.534,349.199 472.5,344.5C 471.833,343.167 471.167,341.833 470.5,340.5C 460.5,331.833 451.167,322.5 442.5,312.5C 436.34,307.92 430.007,303.586 423.5,299.5C 420.916,298.607 418.249,298.274 415.5,298.5C 415.5,299.5 415.5,300.5 415.5,301.5C 419.244,302.87 422.911,304.537 426.5,306.5C 433.095,311.091 439.095,316.424 444.5,322.5C 445.689,323.429 447.022,323.762 448.5,323.5C 448.666,326.168 449.666,328.502 451.5,330.5C 458.803,336.802 465.803,343.468 472.5,350.5C 473.429,351.689 473.762,353.022 473.5,354.5C 474.978,354.238 476.311,354.571 477.5,355.5C 479.407,359.41 482.073,362.744 485.5,365.5C 484.5,365.833 483.5,366.167 482.5,366.5C 463.375,359.581 445.375,350.581 428.5,339.5C 424.5,335.833 420.5,332.167 416.5,328.5C 405.856,313.953 397.856,297.953 392.5,280.5C 391.507,275.88 391.173,271.214 391.5,266.5C 391.5,265.167 391.5,263.833 391.5,262.5C 392.153,244.136 391.487,226.136 389.5,208.5C 387.564,212.715 386.897,217.381 387.5,222.5C 386.833,222.5 386.167,222.5 385.5,222.5C 385.765,216.36 385.098,210.36 383.5,204.5C 385.477,193.884 386.144,182.884 385.5,171.5C 387.369,169.365 388.036,166.698 387.5,163.5C 387.92,156.233 389.586,149.233 392.5,142.5C 395.833,137.167 399.167,131.833 402.5,126.5C 416.739,114.213 433.073,105.88 451.5,101.5C 451.5,102.833 451.5,104.167 451.5,105.5C 450.282,114.48 449.282,123.48 448.5,132.5C 446.824,133.183 446.157,134.517 446.5,136.5C 446.5,141.167 446.5,145.833 446.5,150.5C 444.744,151.552 444.077,153.219 444.5,155.5C 444.023,171.916 444.69,188.25 446.5,204.5C 445.964,207.698 446.631,210.365 448.5,212.5C 449.721,225.07 452.055,237.403 455.5,249.5C 457.5,249.5 459.5,249.5 461.5,249.5C 460.792,241.714 459.459,234.048 457.5,226.5C 457.843,224.517 457.176,223.183 455.5,222.5C 455.5,219.833 455.5,217.167 455.5,214.5C 455.843,212.517 455.176,211.183 453.5,210.5C 451.7,189.897 451.033,169.23 451.5,148.5C 453.369,146.365 454.036,143.698 453.5,140.5C 454.145,132.804 455.145,125.138 456.5,117.5C 459.047,110.194 461.38,102.861 463.5,95.5C 462.651,90.3754 461.317,85.3754 459.5,80.5C 459.558,77.4413 460.891,75.108 463.5,73.5C 486.839,66.8312 510.172,60.1645 533.5,53.5C 536.167,52.1667 538.833,52.1667 541.5,53.5C 537.031,60.7711 533.365,68.4377 530.5,76.5C 526.396,85.8058 523.73,95.4725 522.5,105.5C 520.824,106.183 520.157,107.517 520.5,109.5C 520.31,113.923 519.643,118.256 518.5,122.5C 516.824,123.183 516.157,124.517 516.5,126.5C 516.5,129.833 516.5,133.167 516.5,136.5C 514.692,137.918 514.025,139.918 514.5,142.5C 514.5,146.833 514.5,151.167 514.5,155.5C 512.631,157.635 511.964,160.302 512.5,163.5C 512.5,166.167 512.5,168.833 512.5,171.5C 512.168,181.855 512.501,192.188 513.5,202.5C 515.523,204.173 517.856,204.84 520.5,204.5C 520.5,187.833 520.5,171.167 520.5,154.5C 522.369,152.365 523.036,149.698 522.5,146.5C 522.643,136.066 523.643,125.733 525.5,115.5C 527.176,114.817 527.843,113.483 527.5,111.5C 532.13,96.4195 537.13,81.4195 542.5,66.5C 545.91,62.3467 548.243,57.6801 549.5,52.5C 552.805,51.7148 555.805,50.2148 558.5,48C 560.473,47.5045 562.473,47.3379 564.5,47.5 Z"/></g>
<g><path style="opacity:1" fill="#585858" d="M 451.5,101.5 C 452.586,101.62 453.253,102.287 453.5,103.5C 453.253,104.713 452.586,105.38 451.5,105.5C 451.5,104.167 451.5,102.833 451.5,101.5 Z"/></g>
<g><path style="opacity:1" fill="#8a8a8a" d="M 522.5,105.5 C 522.843,107.483 522.176,108.817 520.5,109.5C 520.157,107.517 520.824,106.183 522.5,105.5 Z"/></g>
<g><path style="opacity:1" fill="#6b6b6b" d="M 527.5,111.5 C 527.843,113.483 527.176,114.817 525.5,115.5C 525.157,113.517 525.824,112.183 527.5,111.5 Z"/></g>
<g><path style="opacity:1" fill="#848484" d="M 518.5,122.5 C 518.843,124.483 518.176,125.817 516.5,126.5C 516.157,124.517 516.824,123.183 518.5,122.5 Z"/></g>
<g><path style="opacity:1" fill="#8a8a8a" d="M 619.5,124.5 C 620.833,124.5 622.167,124.5 623.5,124.5C 623.38,125.586 622.713,126.253 621.5,126.5C 620.287,126.253 619.62,125.586 619.5,124.5 Z"/></g>
<g><path style="opacity:1" fill="#898989" d="M 448.5,132.5 C 448.843,134.483 448.176,135.817 446.5,136.5C 446.157,134.517 446.824,133.183 448.5,132.5 Z"/></g>
<g><path style="opacity:1" fill="#888888" d="M 708.5,132.5 C 708.975,135.082 708.308,137.082 706.5,138.5C 706.025,135.918 706.692,133.918 708.5,132.5 Z"/></g>
<g><path style="opacity:1" fill="#999999" d="M 516.5,136.5 C 516.975,139.082 516.308,141.082 514.5,142.5C 514.025,139.918 514.692,137.918 516.5,136.5 Z"/></g>
<g><path style="opacity:1" fill="#aaaaaa" d="M 453.5,140.5 C 454.036,143.698 453.369,146.365 451.5,148.5C 450.964,145.302 451.631,142.635 453.5,140.5 Z"/></g>
<g><path style="opacity:1" fill="#828281" d="M 446.5,150.5 C 446.923,152.781 446.256,154.448 444.5,155.5C 444.077,153.219 444.744,151.552 446.5,150.5 Z"/></g>
<g><path style="opacity:1" fill="#666666" d="M 522.5,146.5 C 523.036,149.698 522.369,152.365 520.5,154.5C 519.964,151.302 520.631,148.635 522.5,146.5 Z"/></g>
<g><path style="opacity:1" fill="#646464" d="M 383.5,155.5 C 383.843,157.483 383.176,158.817 381.5,159.5C 381.157,157.517 381.824,156.183 383.5,155.5 Z"/></g>
<g><path style="opacity:1" fill="#999999" d="M 514.5,155.5 C 514.5,158.167 514.5,160.833 514.5,163.5C 513.833,163.5 513.167,163.5 512.5,163.5C 511.964,160.302 512.631,157.635 514.5,155.5 Z"/></g>
<g><path style="opacity:1" fill="#464646" d="M 512.5,163.5 C 513.167,163.5 513.833,163.5 514.5,163.5C 515.036,166.698 514.369,169.365 512.5,171.5C 512.5,168.833 512.5,166.167 512.5,163.5 Z"/></g>
<g><path style="opacity:1" fill="#767676" d="M 387.5,163.5 C 388.036,166.698 387.369,169.365 385.5,171.5C 384.964,168.302 385.631,165.635 387.5,163.5 Z"/></g>
<g><path style="opacity:1" fill="#a8a8a8" d="M 381.5,167.5 C 381.5,173.5 381.5,179.5 381.5,185.5C 380.184,182.913 379.517,179.913 379.5,176.5C 379.517,173.087 380.184,170.087 381.5,167.5 Z"/></g>
<g><path style="opacity:1" fill="#9c9c9c" d="M 699.5,171.5 C 699.975,174.082 699.308,176.082 697.5,177.5C 697.025,174.918 697.692,172.918 699.5,171.5 Z"/></g>
<g><path style="opacity:1" fill="#5c5c5c" d="M 761.5,196.5 C 765.833,196.5 770.167,196.5 774.5,196.5C 772.777,197.8 770.61,198.467 768,198.5C 765.39,198.467 763.223,197.8 761.5,196.5 Z"/></g>
<g><path style="opacity:1" fill="#999999" d="M 794.5,196.5 C 797.698,195.964 800.365,196.631 802.5,198.5C 799.302,199.036 796.635,198.369 794.5,196.5 Z"/></g>
<g><path style="opacity:1" fill="#898989" d="M 817.5,200.5 C 819.483,200.157 820.817,200.824 821.5,202.5C 819.517,202.843 818.183,202.176 817.5,200.5 Z"/></g>
<g><path style="opacity:1" fill="#7c7c7c" d="M 790.5,204.5 C 783.5,204.5 776.5,204.5 769.5,204.5C 772.598,203.179 776.098,202.512 780,202.5C 783.902,202.512 787.402,203.179 790.5,204.5 Z"/></g>
<g><path style="opacity:1" fill="#b7b7b7" d="M 800.5,204.5 C 802.833,204.5 805.167,204.5 807.5,204.5C 807.768,206.099 807.434,207.432 806.5,208.5C 804.5,207.167 802.5,205.833 800.5,204.5 Z"/></g>
<g><path style="opacity:1" fill="#bdbebd" d="M 389.5,208.5 C 391.487,226.136 392.153,244.136 391.5,262.5C 390.833,262.5 390.167,262.5 389.5,262.5C 389.5,244.5 389.5,226.5 389.5,208.5 Z"/></g>
<g><path style="opacity:1" fill="#818181" d="M 446.5,204.5 C 448.369,206.635 449.036,209.302 448.5,212.5C 446.631,210.365 445.964,207.698 446.5,204.5 Z"/></g>
<g><path style="opacity:1" fill="#8e8e8e" d="M 453.5,210.5 C 455.176,211.183 455.843,212.517 455.5,214.5C 453.824,213.817 453.157,212.483 453.5,210.5 Z"/></g>
<g><path style="opacity:1" fill="#8d8d8d" d="M 829.5,214.5 C 826.167,214.5 822.833,214.5 819.5,214.5C 820.694,213.223 822.36,212.556 824.5,212.5C 826.64,212.556 828.306,213.223 829.5,214.5 Z"/></g>
<g><path style="opacity:1" fill="#666666" d="M 344.5,220.5 C 340.833,220.5 337.167,220.5 333.5,220.5C 334.871,219.213 336.705,218.547 339,218.5C 341.295,218.547 343.129,219.213 344.5,220.5 Z"/></g>
<g><path style="opacity:1" fill="#9b9b9a" d="M 455.5,222.5 C 457.176,223.183 457.843,224.517 457.5,226.5C 455.824,225.817 455.157,224.483 455.5,222.5 Z"/></g>
<g><path style="opacity:1" fill="#fdfdfd" d="M 376.5,319.5 C 375.817,317.824 374.483,317.157 372.5,317.5C 368.5,316.167 364.5,314.833 360.5,313.5C 360.5,314.833 360.5,316.167 360.5,317.5C 363.858,318.285 367.191,319.285 370.5,320.5C 384.102,327.137 397.769,333.47 411.5,339.5C 416.885,344.556 422.552,349.223 428.5,353.5C 427.833,354.167 427.167,354.833 426.5,355.5C 423.833,356.167 421.167,356.833 418.5,357.5C 430.626,363.546 442.96,369.212 455.5,374.5C 456.167,375.167 456.833,375.833 457.5,376.5C 456.012,378.577 454.012,379.577 451.5,379.5C 451.5,380.833 451.5,382.167 451.5,383.5C 455.5,383.5 459.5,383.5 463.5,383.5C 465.635,385.369 468.302,386.036 471.5,385.5C 481.465,384.157 490.131,386.824 497.5,393.5C 498.429,394.689 498.762,396.022 498.5,397.5C 494.412,398.562 491.079,400.896 488.5,404.5C 493.132,405.328 497.798,405.828 502.5,406C 504.441,406.304 506.107,407.137 507.5,408.5C 511.297,416.741 512.964,425.408 512.5,434.5C 512.157,436.483 512.824,437.817 514.5,438.5C 514.5,439.5 514.5,440.5 514.5,441.5C 517.167,441.5 519.833,441.5 522.5,441.5C 523.503,448.176 524.503,454.843 525.5,461.5C 527.635,463.369 530.302,464.036 533.5,463.5C 535.423,467.029 536.089,471.029 535.5,475.5C 533.744,476.552 533.077,478.219 533.5,480.5C 533.613,485.269 532.947,489.936 531.5,494.5C 531.833,495.833 532.167,497.167 532.5,498.5C 535.992,490.847 539.992,483.513 544.5,476.5C 546.928,479.598 549.928,481.931 553.5,483.5C 560.477,491.827 568.81,498.494 578.5,503.5C 582.866,508.201 587.533,512.534 592.5,516.5C 602.325,537.736 610.325,559.736 616.5,582.5C 617.484,585.428 617.817,588.428 617.5,591.5C 615.824,592.183 615.157,593.517 615.5,595.5C 614.121,598.047 612.454,598.047 610.5,595.5C 608.392,590.946 606.059,586.612 603.5,582.5C 603.38,581.414 602.713,580.747 601.5,580.5C 600.287,580.747 599.62,581.414 599.5,582.5C 599.321,584.606 598.321,586.272 596.5,587.5C 551.163,573.2 505.497,559.867 459.5,547.5C 456.911,546.303 454.244,545.303 451.5,544.5C 449.091,541.783 446.091,539.783 442.5,538.5C 435.521,532.677 428.188,527.344 420.5,522.5C 417.167,517.833 413.167,513.833 408.5,510.5C 403.167,503.833 397.833,497.167 392.5,490.5C 382.122,473.038 374.455,454.372 369.5,434.5C 366.715,426.929 363.381,419.595 359.5,412.5C 349.822,402.156 340.156,391.823 330.5,381.5C 327.588,377.348 324.921,373.015 322.5,368.5C 320.917,366.01 319.917,363.343 319.5,360.5C 319.843,358.517 319.176,357.183 317.5,356.5C 317.5,353.167 317.5,349.833 317.5,346.5C 317.5,342.167 317.5,337.833 317.5,333.5C 317.828,328.125 317.495,322.792 316.5,317.5C 314.701,312.932 311.367,310.265 306.5,309.5C 304.365,307.631 301.698,306.964 298.5,307.5C 297.022,307.762 295.689,307.429 294.5,306.5C 292.167,304.167 289.833,301.833 287.5,299.5C 286.548,297.955 286.215,296.288 286.5,294.5C 286.975,291.918 286.308,289.918 284.5,288.5C 284.5,284.5 284.5,280.5 284.5,276.5C 284.5,275.167 284.5,273.833 284.5,272.5C 285.167,272.5 285.833,272.5 286.5,272.5C 288.483,272.843 289.817,272.176 290.5,270.5C 293.167,270.5 295.833,270.5 298.5,270.5C 303.833,269.833 303.833,269.167 298.5,268.5C 294.742,266.817 290.742,266.151 286.5,266.5C 287.612,262.648 289.279,258.981 291.5,255.5C 299.266,246.729 307.932,239.063 317.5,232.5C 337.645,223.128 354.979,226.795 369.5,243.5C 371.5,247.5 373.5,251.5 375.5,255.5C 381.983,279.947 390.649,303.613 401.5,326.5C 401.167,327.5 400.833,328.5 400.5,329.5C 392.65,325.773 384.65,322.44 376.5,319.5 Z"/></g>
<g><path style="opacity:1" fill="#525252" d="M 385.5,222.5 C 386.167,222.5 386.833,222.5 387.5,222.5C 388.055,226.012 387.388,229.012 385.5,231.5C 385.5,228.5 385.5,225.5 385.5,222.5 Z"/></g>
<g><path style="opacity:1" fill="#767676" d="M 885.5,255.5 C 886.765,256.514 887.431,258.014 887.5,260C 887.431,261.986 886.765,263.486 885.5,264.5C 885.5,261.5 885.5,258.5 885.5,255.5 Z"/></g>
<g><path style="opacity:1" fill="#575757" d="M 389.5,262.5 C 390.167,262.5 390.833,262.5 391.5,262.5C 391.5,263.833 391.5,265.167 391.5,266.5C 389.824,265.817 389.157,264.483 389.5,262.5 Z"/></g>
<g><path style="opacity:1" fill="#7a7a7a" d="M 298.5,268.5 C 303.833,269.167 303.833,269.833 298.5,270.5C 298.5,269.833 298.5,269.167 298.5,268.5 Z"/></g>
<g><path style="opacity:1" fill="#707070" d="M 276.5,261.5 C 276.5,265.833 276.5,270.167 276.5,274.5C 275.2,272.777 274.533,270.61 274.5,268C 274.533,265.39 275.2,263.223 276.5,261.5 Z"/></g>
<g><path style="opacity:1" fill="#848484" d="M 290.5,270.5 C 289.817,272.176 288.483,272.843 286.5,272.5C 287.183,270.824 288.517,270.157 290.5,270.5 Z"/></g>
<g><path style="opacity:1" fill="#969696" d="M 284.5,272.5 C 284.5,273.833 284.5,275.167 284.5,276.5C 283.414,276.38 282.747,275.713 282.5,274.5C 282.747,273.287 283.414,272.62 284.5,272.5 Z"/></g>
<g><path style="opacity:1" fill="#929292" d="M 885.5,272.5 C 885.5,278.5 885.5,284.5 885.5,290.5C 884.184,287.913 883.517,284.913 883.5,281.5C 883.517,278.087 884.184,275.087 885.5,272.5 Z"/></g>
<g><path style="opacity:1" fill="#979797" d="M 537.5,286.5 C 539.483,286.157 540.817,286.824 541.5,288.5C 539.517,288.843 538.183,288.176 537.5,286.5 Z"/></g>
<g><path style="opacity:1" fill="#8b8b8b" d="M 876.5,288.5 C 874.5,288.5 872.5,288.5 870.5,288.5C 870.97,287.307 871.97,286.64 873.5,286.5C 875.03,286.64 876.03,287.307 876.5,288.5 Z"/></g>
<g><path style="opacity:1" fill="#7b7b7b" d="M 284.5,288.5 C 286.308,289.918 286.975,291.918 286.5,294.5C 284.692,293.082 284.025,291.082 284.5,288.5 Z"/></g>
<g><path style="opacity:1" fill="#979797" d="M 862.5,290.5 C 861.817,292.176 860.483,292.843 858.5,292.5C 859.183,290.824 860.517,290.157 862.5,290.5 Z"/></g>
<g><path style="opacity:1" fill="#b6b6b6" d="M 298.5,307.5 C 301.698,306.964 304.365,307.631 306.5,309.5C 303.302,310.036 300.635,309.369 298.5,307.5 Z"/></g>
<g><path style="opacity:1" fill="#999999" d="M 514.5,307.5 C 513.082,309.308 511.082,309.975 508.5,309.5C 509.918,307.692 511.918,307.025 514.5,307.5 Z"/></g>
<g><path style="opacity:1" fill="#666666" d="M 879.5,305.5 C 880.586,305.62 881.253,306.287 881.5,307.5C 881.253,308.713 880.586,309.38 879.5,309.5C 879.5,308.167 879.5,306.833 879.5,305.5 Z"/></g>
<g><path style="opacity:1" fill="#8e8e8e" d="M 872.5,311.5 C 872.5,312.833 872.5,314.167 872.5,315.5C 871.414,315.38 870.747,314.713 870.5,313.5C 870.747,312.287 871.414,311.62 872.5,311.5 Z"/></g>
<g><path style="opacity:1" fill="#989899" d="M 296.5,315.5 C 300.329,314.931 303.663,315.598 306.5,317.5C 302.671,318.069 299.337,317.402 296.5,315.5 Z"/></g>
<g><path style="opacity:1" fill="#999999" d="M 372.5,317.5 C 374.483,317.157 375.817,317.824 376.5,319.5C 374.517,319.843 373.183,319.176 372.5,317.5 Z"/></g>
<g><path style="opacity:1" fill="#919191" d="M 309.5,321.5 C 310.809,323.571 311.475,326.071 311.5,329C 311.475,331.929 310.809,334.429 309.5,336.5C 309.5,331.5 309.5,326.5 309.5,321.5 Z"/></g>
<g><path style="opacity:1" fill="#969696" d="M 317.5,333.5 C 317.5,337.833 317.5,342.167 317.5,346.5C 316.2,344.777 315.533,342.61 315.5,340C 315.533,337.39 316.2,335.223 317.5,333.5 Z"/></g>
<g><path style="opacity:1" fill="#9c9c9c" d="M 907.5,338.5 C 908.036,341.698 907.369,344.365 905.5,346.5C 904.964,343.302 905.631,340.635 907.5,338.5 Z"/></g>
<g><path style="opacity:1" fill="#6f6f6f" d="M 901.5,346.5 C 901.843,348.483 901.176,349.817 899.5,350.5C 899.157,348.517 899.824,347.183 901.5,346.5 Z"/></g>
<g><path style="opacity:1" fill="#636363" d="M 309.5,350.5 C 311.176,351.183 311.843,352.517 311.5,354.5C 309.824,353.817 309.157,352.483 309.5,350.5 Z"/></g>
<g><path style="opacity:1" fill="#7c7c7c" d="M 317.5,356.5 C 319.176,357.183 319.843,358.517 319.5,360.5C 317.824,359.817 317.157,358.483 317.5,356.5 Z"/></g>
<g><path style="opacity:1" fill="#acacac" d="M 905.5,358.5 C 906.036,361.698 905.369,364.365 903.5,366.5C 902.964,363.302 903.631,360.635 905.5,358.5 Z"/></g>
<g><path style="opacity:1" fill="#828282" d="M 903.5,371.5 C 903.843,373.483 903.176,374.817 901.5,375.5C 901.157,373.517 901.824,372.183 903.5,371.5 Z"/></g>
<g><path style="opacity:1" fill="#9a9a9b" d="M 706.5,373.5 C 706.5,375.5 706.5,377.5 706.5,379.5C 705.307,379.03 704.64,378.03 704.5,376.5C 704.64,374.97 705.307,373.97 706.5,373.5 Z"/></g>
<g><path style="opacity:1" fill="#7f7f7f" d="M 463.5,383.5 C 466.698,382.964 469.365,383.631 471.5,385.5C 468.302,386.036 465.635,385.369 463.5,383.5 Z"/></g>
<g><path style="opacity:1" fill="#fcfcfc" d="M 656.5,408.5 C 658.635,410.369 661.302,411.036 664.5,410.5C 672.222,410.953 679.889,411.953 687.5,413.5C 689.332,414.248 690.999,415.248 692.5,416.5C 693.833,419.833 693.833,423.167 692.5,426.5C 689.696,435.662 686.696,444.662 683.5,453.5C 681.824,454.183 681.157,455.517 681.5,457.5C 681.5,460.167 681.5,462.833 681.5,465.5C 682.833,465.5 684.167,465.5 685.5,465.5C 685.187,462.753 685.52,460.086 686.5,457.5C 689.624,452.585 691.624,447.252 692.5,441.5C 693.167,441.167 693.833,440.833 694.5,440.5C 701.45,422.6 711.45,406.6 724.5,392.5C 729.896,389.619 735.563,388.952 741.5,390.5C 750.638,394.65 758.971,399.983 766.5,406.5C 768.556,425.942 763.89,443.608 752.5,459.5C 748.896,462.079 746.562,465.412 745.5,469.5C 746.978,469.762 748.311,469.429 749.5,468.5C 759.817,458.533 766.484,446.533 769.5,432.5C 771.176,431.817 771.843,430.483 771.5,428.5C 771.334,422.491 771.501,416.491 772,410.5C 773.707,411.944 775.54,413.277 777.5,414.5C 778.88,412.023 779.88,412.023 780.5,414.5C 779.964,417.698 780.631,420.365 782.5,422.5C 787.754,421.317 793.088,420.65 798.5,420.5C 805.5,420.5 812.5,420.5 819.5,420.5C 825.59,420.516 831.59,421.183 837.5,422.5C 838.183,424.176 839.517,424.843 841.5,424.5C 843.288,424.215 844.955,424.548 846.5,425.5C 844.438,427.403 843.104,429.737 842.5,432.5C 835.531,438.468 828.864,444.801 822.5,451.5C 821.534,453.396 821.201,455.396 821.5,457.5C 821.62,458.586 822.287,459.253 823.5,459.5C 824.713,459.253 825.38,458.586 825.5,457.5C 831.428,452.576 837.094,447.243 842.5,441.5C 844.908,440.784 846.908,439.451 848.5,437.5C 851.809,436.285 855.142,435.285 858.5,434.5C 861.833,434.5 865.167,434.5 868.5,434.5C 871.734,435.576 875.068,436.243 878.5,436.5C 878.762,437.978 878.429,439.311 877.5,440.5C 864.239,450.426 852.239,461.759 841.5,474.5C 840.311,475.429 838.978,475.762 837.5,475.5C 837.5,476.5 837.5,477.5 837.5,478.5C 836.022,478.238 834.689,478.571 833.5,479.5C 825.812,486.844 816.812,491.844 806.5,494.5C 806.5,495.833 806.5,497.167 806.5,498.5C 808.924,498.808 811.257,498.474 813.5,497.5C 830.891,488.964 845.891,477.297 858.5,462.5C 861.656,460.311 864.989,458.644 868.5,457.5C 868.5,456.167 868.5,454.833 868.5,453.5C 869.978,453.762 871.311,453.429 872.5,452.5C 875.1,450.717 877.434,448.717 879.5,446.5C 883.167,446.167 886.833,445.833 890.5,445.5C 899.08,445.028 906.747,447.362 913.5,452.5C 912.167,454.5 910.833,456.5 909.5,458.5C 906.268,459.73 903.601,461.73 901.5,464.5C 897.018,467.544 892.352,470.211 887.5,472.5C 876.193,475.984 865.193,480.318 854.5,485.5C 834.077,500.385 812.077,512.718 788.5,522.5C 782.23,524.021 775.897,525.021 769.5,525.5C 764.833,525.5 760.167,525.5 755.5,525.5C 753.975,521.975 751.309,519.975 747.5,519.5C 746.666,518.252 745.333,517.585 743.5,517.5C 741.667,517.585 740.334,518.252 739.5,519.5C 737.833,519.5 736.167,519.5 734.5,519.5C 732.517,519.157 731.183,519.824 730.5,521.5C 716.817,521.833 703.15,521.499 689.5,520.5C 681.928,518.201 674.594,515.534 667.5,512.5C 667.5,514.833 667.5,517.167 667.5,519.5C 667.5,520.833 667.5,522.167 667.5,523.5C 661.833,523.5 656.167,523.5 650.5,523.5C 650.5,522.167 649.833,521.5 648.5,521.5C 636.185,517.509 623.851,513.509 611.5,509.5C 601.365,504.934 591.698,499.601 582.5,493.5C 557.513,476.575 538.847,454.241 526.5,426.5C 525.167,420.5 525.167,414.5 526.5,408.5C 529.035,402.963 532.701,398.296 537.5,394.5C 546.377,392.058 555.377,390.391 564.5,389.5C 567.698,390.036 570.365,389.369 572.5,387.5C 578.301,386.731 584.135,386.065 590,385.5C 598.277,383.954 603.11,387.287 604.5,395.5C 605.328,396.415 606.328,397.081 607.5,397.5C 610.463,395.539 613.129,393.206 615.5,390.5C 619.5,389.167 623.5,389.167 627.5,390.5C 632.015,392.921 636.348,395.588 640.5,398.5C 644.641,403.896 649.974,407.229 656.5,408.5 Z"/></g>
<g><path style="opacity:1" fill="#b3b3b3" d="M 572.5,387.5 C 570.365,389.369 567.698,390.036 564.5,389.5C 566.635,387.631 569.302,386.964 572.5,387.5 Z"/></g>
<g><path style="opacity:1" fill="#858585" d="M 901.5,383.5 C 902.036,386.698 901.369,389.365 899.5,391.5C 898.964,388.302 899.631,385.635 901.5,383.5 Z"/></g>
<g><path style="opacity:1" fill="#8f8f8f" d="M 706.5,385.5 C 707.833,387.5 709.167,389.5 710.5,391.5C 709.817,393.176 708.483,393.843 706.5,393.5C 706.5,390.833 706.5,388.167 706.5,385.5 Z"/></g>
<g><path style="opacity:1" fill="#828282" d="M 893.5,397.5 C 894.748,398.334 895.415,399.667 895.5,401.5C 895.415,403.333 894.748,404.666 893.5,405.5C 893.5,402.833 893.5,400.167 893.5,397.5 Z"/></g>
<g><path style="opacity:1" fill="#999999" d="M 788.5,403.5 C 790.483,403.157 791.817,403.824 792.5,405.5C 790.517,405.843 789.183,405.176 788.5,403.5 Z"/></g>
<g><path style="opacity:1" fill="#b1b1b1" d="M 656.5,408.5 C 659.698,407.964 662.365,408.631 664.5,410.5C 661.302,411.036 658.635,410.369 656.5,408.5 Z"/></g>
<g><path style="opacity:1" fill="#b8b8b8" d="M 843.5,414.5 C 847.012,413.945 850.012,414.612 852.5,416.5C 848.988,417.055 845.988,416.388 843.5,414.5 Z"/></g>
<g><path style="opacity:1" fill="#aeaeae" d="M 860.5,416.5 C 863.698,415.964 866.365,416.631 868.5,418.5C 865.302,419.036 862.635,418.369 860.5,416.5 Z"/></g>
<g><path style="opacity:1" fill="#7d7c7d" d="M 819.5,420.5 C 812.5,420.5 805.5,420.5 798.5,420.5C 801.598,419.179 805.098,418.512 809,418.5C 812.902,418.512 816.402,419.179 819.5,420.5 Z"/></g>
<g><path style="opacity:1" fill="#b3b3b3" d="M 780.5,414.5 C 782.369,416.635 783.036,419.302 782.5,422.5C 780.631,420.365 779.964,417.698 780.5,414.5 Z"/></g>
<g><path style="opacity:1" fill="#5b5b5b" d="M 837.5,422.5 C 839.483,422.157 840.817,422.824 841.5,424.5C 839.517,424.843 838.183,424.176 837.5,422.5 Z"/></g>
<g><path style="opacity:1" fill="#8e8e8e" d="M 771.5,428.5 C 771.843,430.483 771.176,431.817 769.5,432.5C 769.157,430.517 769.824,429.183 771.5,428.5 Z"/></g>
<g><path style="opacity:1" fill="#838383" d="M 868.5,434.5 C 865.167,434.5 861.833,434.5 858.5,434.5C 859.694,433.223 861.36,432.556 863.5,432.5C 865.64,432.556 867.306,433.223 868.5,434.5 Z"/></g>
<g><path style="opacity:1" fill="#9a9a9a" d="M 895.5,426.5 C 895.5,429.167 895.5,431.833 895.5,434.5C 894.252,433.666 893.585,432.333 893.5,430.5C 893.585,428.667 894.252,427.334 895.5,426.5 Z"/></g>
<g><path style="opacity:1" fill="#808080" d="M 512.5,434.5 C 514.176,435.183 514.843,436.517 514.5,438.5C 512.824,437.817 512.157,436.483 512.5,434.5 Z"/></g>
<g><path style="opacity:1" fill="#99999a" d="M 950.5,441.5 C 952.167,441.5 953.833,441.5 955.5,441.5C 955.843,443.483 955.176,444.817 953.5,445.5C 952.5,444.167 951.5,442.833 950.5,441.5 Z"/></g>
<g><path style="opacity:1" fill="#9f9f9f" d="M 364.5,445.5 C 366.176,446.183 366.843,447.517 366.5,449.5C 364.824,448.817 364.157,447.483 364.5,445.5 Z"/></g>
<g><path style="opacity:1" fill="#949494" d="M 683.5,453.5 C 683.843,455.483 683.176,456.817 681.5,457.5C 681.157,455.517 681.824,454.183 683.5,453.5 Z"/></g>
<g><path style="opacity:1" fill="#7b7b7b" d="M 821.5,457.5 C 822.833,457.5 824.167,457.5 825.5,457.5C 825.38,458.586 824.713,459.253 823.5,459.5C 822.287,459.253 821.62,458.586 821.5,457.5 Z"/></g>
<g><path style="opacity:1" fill="#7f7f7f" d="M 525.5,461.5 C 528.698,460.964 531.365,461.631 533.5,463.5C 530.302,464.036 527.635,463.369 525.5,461.5 Z"/></g>
<g><path style="opacity:1" fill="#69696a" d="M 535.5,475.5 C 535.923,477.781 535.256,479.448 533.5,480.5C 533.077,478.219 533.744,476.552 535.5,475.5 Z"/></g>
<g><path style="opacity:1" fill="#fbfbfb" d="M 817.5,572.5 C 816.167,572.5 814.833,572.5 813.5,572.5C 807.575,563.648 801.909,554.648 796.5,545.5C 794.5,545.5 792.5,545.5 790.5,545.5C 796.234,555.296 802.234,564.962 808.5,574.5C 814.063,578.79 817.063,584.457 817.5,591.5C 812.114,593.923 806.447,595.59 800.5,596.5C 789.5,597.833 778.5,597.833 767.5,596.5C 762.167,594.5 756.833,592.5 751.5,590.5C 746.83,586.915 741.663,584.248 736,582.5C 729.353,577.685 722.853,572.685 716.5,567.5C 715.311,566.571 713.978,566.238 712.5,566.5C 712.5,565.167 711.833,564.5 710.5,564.5C 710.5,563.167 709.833,562.5 708.5,562.5C 708.5,561.167 707.833,560.5 706.5,560.5C 706.5,559.167 705.833,558.5 704.5,558.5C 704.5,557.167 703.833,556.5 702.5,556.5C 702.5,555.167 702.5,553.833 702.5,552.5C 701.5,552.5 700.5,552.5 699.5,552.5C 699.762,551.022 699.429,549.689 698.5,548.5C 693.65,545.112 689.983,540.779 687.5,535.5C 687.5,534.833 687.5,534.167 687.5,533.5C 707.5,533.5 727.5,533.5 747.5,533.5C 755.833,533.5 764.167,533.5 772.5,533.5C 775.698,534.036 778.365,533.369 780.5,531.5C 784.629,531.126 788.629,530.126 792.5,528.5C 798.91,526.029 805.244,523.363 811.5,520.5C 817.883,516.309 824.549,512.642 831.5,509.5C 836.977,505.259 842.643,501.259 848.5,497.5C 852.191,495.244 856.191,494.244 860.5,494.5C 860.762,495.978 860.429,497.311 859.5,498.5C 855.082,504.996 850.415,511.33 845.5,517.5C 843.366,523.568 841.033,529.568 838.5,535.5C 837.404,545.32 837.404,554.986 838.5,564.5C 831.819,568.007 824.819,570.674 817.5,572.5 Z"/></g>
<g><path style="opacity:1" fill="#949494" d="M 613.5,515.5 C 616.082,515.025 618.082,515.692 619.5,517.5C 616.918,517.975 614.918,517.308 613.5,515.5 Z"/></g>
<g><path style="opacity:1" fill="#b0b0b0" d="M 747.5,519.5 C 744.833,519.5 742.167,519.5 739.5,519.5C 740.334,518.252 741.667,517.585 743.5,517.5C 745.333,517.585 746.666,518.252 747.5,519.5 Z"/></g>
<g><path style="opacity:1" fill="#969696" d="M 667.5,519.5 C 668.586,519.62 669.253,520.287 669.5,521.5C 669.253,522.713 668.586,523.38 667.5,523.5C 667.5,522.167 667.5,520.833 667.5,519.5 Z"/></g>
<g><path style="opacity:1" fill="#929292" d="M 734.5,519.5 C 733.817,521.176 732.483,521.843 730.5,521.5C 731.183,519.824 732.517,519.157 734.5,519.5 Z"/></g>
<g><path style="opacity:1" fill="#7a7a7a" d="M 648.5,521.5 C 649.833,521.5 650.5,522.167 650.5,523.5C 650.5,524.167 650.5,524.833 650.5,525.5C 649.167,525.5 648.5,524.833 648.5,523.5C 648.5,522.833 648.5,522.167 648.5,521.5 Z"/></g>
<g><path style="opacity:1" fill="#7a7a7a" d="M 656.5,525.5 C 658.483,525.157 659.817,525.824 660.5,527.5C 658.517,527.843 657.183,527.176 656.5,525.5 Z"/></g>
<g><path style="opacity:1" fill="#7f7f7f" d="M 755.5,525.5 C 760.167,525.5 764.833,525.5 769.5,525.5C 767.603,526.805 765.269,527.471 762.5,527.5C 759.731,527.471 757.397,526.805 755.5,525.5 Z"/></g>
<g><path style="opacity:1" fill="#bfbfbf" d="M 687.5,531.5 C 707.861,530.845 727.861,531.512 747.5,533.5C 727.5,533.5 707.5,533.5 687.5,533.5C 687.5,532.833 687.5,532.167 687.5,531.5 Z"/></g>
<g><path style="opacity:1" fill="#a0a0a0" d="M 780.5,531.5 C 778.365,533.369 775.698,534.036 772.5,533.5C 774.635,531.631 777.302,530.964 780.5,531.5 Z"/></g>
<g><path style="opacity:1" fill="#5b5b5b" d="M 687.5,531.5 C 687.5,532.167 687.5,532.833 687.5,533.5C 687.5,534.167 687.5,534.833 687.5,535.5C 686.414,535.38 685.747,534.713 685.5,533.5C 685.747,532.287 686.414,531.62 687.5,531.5 Z"/></g>
<g><path style="opacity:1" fill="#393939" d="M 699.5,552.5 C 700.5,552.5 701.5,552.5 702.5,552.5C 702.5,553.833 702.5,555.167 702.5,556.5C 700.554,555.965 699.554,554.632 699.5,552.5 Z"/></g>
<g><path style="opacity:1" fill="#171717" d="M 702.5,556.5 C 703.833,556.5 704.5,557.167 704.5,558.5C 703.167,558.5 702.5,557.833 702.5,556.5 Z"/></g>
<g><path style="opacity:1" fill="#0f0f10" d="M 704.5,558.5 C 705.833,558.5 706.5,559.167 706.5,560.5C 705.167,560.5 704.5,559.833 704.5,558.5 Z"/></g>
<g><path style="opacity:1" fill="#09090b" d="M 706.5,560.5 C 707.833,560.5 708.5,561.167 708.5,562.5C 707.167,562.5 706.5,561.833 706.5,560.5 Z"/></g>
<g><path style="opacity:1" fill="#040405" d="M 708.5,562.5 C 709.833,562.5 710.5,563.167 710.5,564.5C 709.167,564.5 708.5,563.833 708.5,562.5 Z"/></g>
<g><path style="opacity:1" fill="#040504" d="M 710.5,564.5 C 711.833,564.5 712.5,565.167 712.5,566.5C 711.167,566.5 710.5,565.833 710.5,564.5 Z"/></g>
<g><path style="opacity:1" fill="#737373" d="M 522.5,570.5 C 519.833,570.5 517.167,570.5 514.5,570.5C 515.334,569.252 516.667,568.585 518.5,568.5C 520.333,568.585 521.666,569.252 522.5,570.5 Z"/></g>
<g><path style="opacity:1" fill="#888888" d="M 621.5,570.5 C 623.176,571.183 623.843,572.517 623.5,574.5C 621.824,573.817 621.157,572.483 621.5,570.5 Z"/></g>
<g><path style="opacity:1" fill="#949494" d="M 813.5,572.5 C 814.833,572.5 816.167,572.5 817.5,572.5C 817.38,573.586 816.713,574.253 815.5,574.5C 814.287,574.253 813.62,573.586 813.5,572.5 Z"/></g>
<g><path style="opacity:1" fill="#818181" d="M 603.5,582.5 C 602.167,582.5 600.833,582.5 599.5,582.5C 599.62,581.414 600.287,580.747 601.5,580.5C 602.713,580.747 603.38,581.414 603.5,582.5 Z"/></g>
<g><path style="opacity:1" fill="#f6f6f6" d="M 105.5,591.5 C 102.167,590.833 98.8333,590.167 95.5,589.5C 118.976,579.659 140.142,583.325 159,600.5C 162.326,606.537 162.326,612.537 159,618.5C 145.605,600.886 127.772,591.886 105.5,591.5 Z"/></g>
<g><path style="opacity:1" fill="#818181" d="M 623.5,583.5 C 625.176,584.183 625.843,585.517 625.5,587.5C 623.824,586.817 623.157,585.483 623.5,583.5 Z"/></g>
<g><path style="opacity:1" fill="#6a6a6a" d="M 827.5,576.5 C 828.123,583.255 827.456,589.588 825.5,595.5C 824.877,588.745 825.544,582.412 827.5,576.5 Z"/></g>
<g><path style="opacity:1" fill="#646464" d="M 95.5,589.5 C 98.8333,590.167 102.167,590.833 105.5,591.5C 101.774,591.823 98.1073,591.489 94.5,590.5C 94.6236,589.893 94.9569,589.56 95.5,589.5 Z"/></g>
<g><path style="opacity:1" fill="#989898" d="M 617.5,591.5 C 617.843,593.483 617.176,594.817 615.5,595.5C 615.157,593.517 615.824,592.183 617.5,591.5 Z"/></g>
<g><path style="opacity:1" fill="#f5f5f5" d="M 54.5,594.5 C 58.8691,593.923 62.8691,594.757 66.5,597C 62.0585,605.72 55.0585,609.386 45.5,608C 44.376,607.751 43.376,607.251 42.5,606.5C 46.2148,602.119 50.2148,598.119 54.5,594.5 Z"/></g>
<g><path style="opacity:1" fill="#f7f7f7" d="M 613.5,611.5 C 613.5,612.833 613.5,614.167 613.5,615.5C 613.39,624.953 608.723,630.953 599.5,633.5C 592.532,634.497 585.532,634.83 578.5,634.5C 578.187,631.753 578.52,629.086 579.5,626.5C 582.868,617.011 586.534,607.678 590.5,598.5C 591.667,598.167 592.833,597.833 594,597.5C 599.198,599.066 604.365,600.733 609.5,602.5C 612.574,604.719 613.907,607.719 613.5,611.5 Z"/></g>
<g><path style="opacity:1" fill="#f6f6f6" d="M 97.5,597.5 C 111.555,597.513 124.888,600.68 137.5,607C 145.435,611.945 150.769,618.945 153.5,628C 152.592,632.586 149.926,634.252 145.5,633C 140.494,627.661 135.161,622.661 129.5,618C 118.278,612.093 106.612,607.259 94.5,603.5C 93.3354,600.495 94.3354,598.495 97.5,597.5 Z"/></g>
<g><path style="opacity:1" fill="#6c6c6c" d="M 767.5,601.5 C 769.483,601.157 770.817,601.824 771.5,603.5C 769.517,603.843 768.183,603.176 767.5,601.5 Z"/></g>
<g><path style="opacity:1" fill="#f9f9f9" d="M 71.5,602.5 C 89.57,608.246 107.237,615.08 124.5,623C 131.474,627.283 134.974,633.449 135,641.5C 129.835,645.084 124.502,648.417 119,651.5C 116.279,643.244 111.446,636.411 104.5,631C 96.4548,624.976 87.7881,619.976 78.5,616C 74.9398,612.165 72.6065,607.665 71.5,602.5 Z"/></g>
<g><path style="opacity:1" fill="#c5c5c5" d="M 778.5,603.5 C 787.167,603.5 795.833,603.5 804.5,603.5C 800.555,604.825 796.222,605.492 791.5,605.5C 786.778,605.492 782.445,604.825 778.5,603.5 Z"/></g>
<g><path style="opacity:1" fill="#fafafa" d="M 59.5,608.5 C 63.9979,612.83 68.6646,616.997 73.5,621C 82.1015,625.939 90.4348,631.272 98.5,637C 105.262,642.391 109.428,649.224 111,657.5C 105.587,661.457 100.087,665.29 94.5,669C 93.1667,669.667 91.8333,669.667 90.5,669C 81.2091,662.936 74.3758,654.769 70,644.5C 66.1854,632.572 62.6854,620.572 59.5,608.5 Z"/></g>
<g><path style="opacity:1" fill="#656565" d="M 613.5,611.5 C 614.586,611.62 615.253,612.287 615.5,613.5C 615.253,614.713 614.586,615.38 613.5,615.5C 613.5,614.167 613.5,612.833 613.5,611.5 Z"/></g>
<g><path style="opacity:1" fill="#424242" d="M 570.5,624.5 C 570.5,628.5 570.5,632.5 570.5,636.5C 569.206,634.952 568.539,632.952 568.5,630.5C 568.539,628.048 569.206,626.048 570.5,624.5 Z"/></g>
<g><path style="opacity:1" fill="#f5f5f5" d="M 57.5,632.5 C 58.4972,632.47 59.1639,632.97 59.5,634C 63.1479,649.467 70.3146,662.967 81,674.5C 81.2362,676.764 81.7362,678.931 82.5,681C 78.4246,683.059 74.0912,683.726 69.5,683C 56.7641,668.224 52.7641,651.39 57.5,632.5 Z"/></g>
<g><path style="opacity:1" fill="#fcfcfc" d="M 163.5,637.5 C 164.822,637.33 165.989,637.663 167,638.5C 175.391,649.892 183.391,661.559 191,673.5C 197.613,684.367 201.613,696.033 203,708.5C 201.975,711.089 200.142,712.255 197.5,712C 188.719,700.939 180.553,689.439 173,677.5C 170.859,674.676 169.026,674.842 167.5,678C 169.839,683.347 173.339,687.847 178,691.5C 182.432,698.263 186.432,705.263 190,712.5C 190.854,716.625 190.52,720.625 189,724.5C 182.365,716.864 175.365,709.53 168,702.5C 167.833,703 167.667,703.5 167.5,704C 173.056,713.612 178.223,723.446 183,733.5C 183.545,747.287 177.045,752.787 163.5,750C 155.164,745.501 147.164,740.501 139.5,735C 135.371,732.679 131.037,730.846 126.5,729.5C 125.289,730.274 125.289,731.107 126.5,732C 137.453,739.952 148.12,748.285 158.5,757C 155.028,758.58 151.362,758.913 147.5,758C 132.354,753.271 119.354,745.271 108.5,734C 106.305,732.627 103.971,732.294 101.5,733C 102.191,734.067 102.691,735.234 103,736.5C 108.02,741.021 113.187,745.355 118.5,749.5C 120.167,751.5 121.833,753.5 123.5,755.5C 128.746,757.694 134.08,759.694 139.5,761.5C 140.386,764.116 139.72,766.449 137.5,768.5C 132.66,765.581 127.994,762.414 123.5,759C 114.232,756.865 105.898,752.865 98.5,747C 85.448,736.949 74.1147,725.282 64.5,712C 68.6543,706.512 73.4876,701.679 79,697.5C 80.0395,695.254 81.2062,693.087 82.5,691C 86.538,690.101 90.2046,688.434 93.5,686C 97.7998,680.699 102.466,675.699 107.5,671C 112.126,668.316 117.126,666.816 122.5,666.5C 124.922,661.244 128.589,657.078 133.5,654C 143.723,648.726 153.723,643.226 163.5,637.5 Z"/></g>
<g><path style="opacity:1" fill="#f5f5f5" d="M 47.5,636.5 C 46.8032,659.576 54.1366,679.742 69.5,697C 62.0181,697.18 55.5181,694.68 50,689.5C 41.5533,680.052 38.5533,669.052 41,656.5C 42.8742,649.711 45.0408,643.045 47.5,636.5 Z"/></g>
<g><path style="opacity:1" fill="#9a9a9a" d="M 584.5,644.5 C 588.167,644.5 591.833,644.5 595.5,644.5C 594.129,645.787 592.295,646.453 590,646.5C 587.705,646.453 585.871,645.787 584.5,644.5 Z"/></g>
<g><path style="opacity:1" fill="#f3f3f3" d="M 31.5,677.5 C 39.69,687.537 47.3567,698.037 54.5,709C 46.2585,706.449 39.0918,701.949 33,695.5C 30.2638,689.703 29.7638,683.703 31.5,677.5 Z"/></g>
<g><path style="opacity:1" fill="#f8f8f8" d="M 608.5,679.5 C 610.722,679.178 612.556,679.845 614,681.5C 614.858,686.927 616.024,692.261 617.5,697.5C 615.643,703.903 613.477,710.236 611,716.5C 608.685,724.7 607.685,733.033 608,741.5C 610.333,744.167 612.667,744.167 615,741.5C 616.08,739.004 617.414,736.67 619,734.5C 631.318,723.523 642.151,711.357 651.5,698C 652.416,697.626 653.25,697.126 654,696.5C 657.139,700.577 660.972,701.41 665.5,699C 668.538,696.297 671.205,693.297 673.5,690C 680.936,684.401 686.602,685.734 690.5,694C 690.01,695.982 689.01,697.649 687.5,699C 680.858,700.893 675.358,704.393 671,709.5C 670.859,713.589 670.692,717.589 670.5,721.5C 637.82,727.386 610.987,743.053 590,768.5C 588.667,771.167 587.333,773.833 586,776.5C 585.349,778.235 585.515,779.902 586.5,781.5C 592.428,782.772 598.095,781.939 603.5,779C 610.748,774.086 618.248,769.586 626,765.5C 626.5,765.667 627,765.833 627.5,766C 624.428,770.976 625.928,773.809 632,774.5C 637.53,773.971 640.864,770.971 642,765.5C 643.154,764.257 644.488,763.257 646,762.5C 646.333,765.167 646.667,767.833 647,770.5C 647.804,771.804 648.971,772.471 650.5,772.5C 655.231,769.803 660.231,767.637 665.5,766C 668.146,765.503 670.813,765.336 673.5,765.5C 673.703,767.39 673.037,768.89 671.5,770C 661.68,772.816 656.847,779.316 657,789.5C 656.51,788.207 656.343,786.873 656.5,785.5C 650.802,785.162 645.135,784.495 639.5,783.5C 625.719,785.296 622.719,792.129 630.5,804C 630.167,804.5 629.833,805 629.5,805.5C 608.239,799.268 586.572,795.102 564.5,793C 568.759,789.619 572.926,786.119 577,782.5C 577.333,780.5 577.667,778.5 578,776.5C 589.445,765.61 596.112,752.277 598,736.5C 598.134,722.465 598.801,708.465 600,694.5C 601.396,688.624 604.229,683.624 608.5,679.5 Z"/></g>
<g><path style="opacity:1" fill="#fafafa" d="M 569.5,715.5 C 570.777,716.694 571.444,718.36 571.5,720.5C 570.461,728.652 568.794,736.652 566.5,744.5C 567.276,749.003 568.776,753.003 571,756.5C 564.151,761.593 557.484,766.926 551,772.5C 548.987,777.612 547.987,782.945 548,788.5C 543.589,791.955 539.089,795.289 534.5,798.5C 533.365,788.864 532.698,779.197 532.5,769.5C 535.044,769.896 537.211,769.229 539,767.5C 539.558,758.133 540.224,748.799 541,739.5C 545.797,738.138 550.63,736.638 555.5,735C 559.624,729.923 563.124,724.423 566,718.5C 567.145,717.364 568.312,716.364 569.5,715.5 Z"/></g>
<g><path style="opacity:1" fill="#f5f5f5" d="M 200.5,739.5 C 202.033,741.355 203.7,743.188 205.5,745C 198.795,753.372 191.129,760.705 182.5,767C 179.18,766.735 176.513,765.069 174.5,762C 183.95,755.382 192.616,747.882 200.5,739.5 Z"/></g>
<g><path style="opacity:1" fill="#f9f9f9" d="M 501.5,745.5 C 502.833,745.5 504.167,745.5 505.5,745.5C 505.334,754.506 505.5,763.506 506,772.5C 508.805,776.091 509.805,780.091 509,784.5C 498.038,799.373 491.371,816.04 489,834.5C 481.99,840.678 475.157,847.011 468.5,853.5C 469.461,832.872 471.295,812.205 474,791.5C 474.598,788.692 475.765,786.192 477.5,784C 479.677,783.655 481.677,784.155 483.5,785.5C 484.554,785.32 485.554,784.987 486.5,784.5C 486.833,782.833 487.167,781.167 487.5,779.5C 486.833,773.833 486.167,768.167 485.5,762.5C 485.231,759.447 486.064,756.78 488,754.5C 488.69,758.19 490.857,759.357 494.5,758C 497.487,754.214 499.82,750.047 501.5,745.5 Z"/></g>
<g><path style="opacity:1" fill="#f9f9f9" d="M 213.5,752.5 C 215.556,761.519 214.389,770.185 210,778.5C 208.269,780.617 206.102,782.117 203.5,783C 197.719,783.903 192.053,783.57 186.5,782C 184.15,779.627 183.983,777.127 186,774.5C 194.78,766.547 203.947,759.213 213.5,752.5 Z"/></g>
<g><path style="opacity:1" fill="#f9f9f9" d="M 532.5,865.5 C 537.419,864.372 541.085,865.872 543.5,870C 550.524,870.081 557.524,869.581 564.5,868.5C 564.083,871.079 564.75,873.246 566.5,875C 574.644,875.806 582.644,877.306 590.5,879.5C 587.87,881.821 584.87,883.654 581.5,885C 573.639,886.992 565.639,887.992 557.5,888C 556.577,890.041 556.244,892.208 556.5,894.5C 550.635,893.36 544.802,892.027 539,890.5C 536.638,891.363 535.138,893.03 534.5,895.5C 525.661,890.246 516.661,885.246 507.5,880.5C 506.833,880.833 506.167,881.167 505.5,881.5C 504.833,884.167 504.167,886.833 503.5,889.5C 488.036,886.166 472.37,884.666 456.5,885C 457.167,884.333 457.833,883.667 458.5,883C 471.272,879.307 483.939,875.307 496.5,871C 502.837,870.934 509.17,870.934 515.5,871C 521.243,869.029 526.91,867.196 532.5,865.5 Z"/></g>
</svg>
