<?xml version="1.0" encoding="UTF-8"?>
<!DOCTYPE svg PUBLIC "-//W3C//DTD SVG 1.1//EN" "http://www.w3.org/Graphics/SVG/1.1/DTD/svg11.dtd">
<svg xmlns="http://www.w3.org/2000/svg" version="1.1" width="173px" height="376px" style="shape-rendering:geometricPrecision; text-rendering:geometricPrecision; image-rendering:optimizeQuality; fill-rule:evenodd; clip-rule:evenodd" xmlns:xlink="http://www.w3.org/1999/xlink">
<g><path style="opacity:1" fill="#fefefe" d="M -0.5,-0.5 C 57.1667,-0.5 114.833,-0.5 172.5,-0.5C 172.5,124.833 172.5,250.167 172.5,375.5C 114.833,375.5 57.1667,375.5 -0.5,375.5C -0.5,250.167 -0.5,124.833 -0.5,-0.5 Z"/></g>
<g><path style="opacity:1" fill="#111111" d="M 12.5,13.5 C 10.9826,13.4894 9.81595,12.8228 9,11.5C 8.66667,13.1667 8.33333,14.8333 8,16.5C 4.98706,6.08299 6.48706,5.08299 12.5,13.5 Z"/></g>
<g><path style="opacity:1" fill="#454545" d="M 24.5,30.5 C 22.8042,30.3146 21.4709,29.4813 20.5,28C 22.4122,27.7207 23.7456,28.5541 24.5,30.5 Z"/></g>
<g><path style="opacity:1" fill="#5a5a5a" d="M 24.5,30.5 C 27.0014,30.8256 28.1681,32.1589 28,34.5C 26.6244,33.2949 25.4577,31.9616 24.5,30.5 Z"/></g>
<g><path style="opacity:1" fill="#131313" d="M 16.5,39.5 C 13.1606,39.1103 9.82728,38.6103 6.5,38C 8.86659,36.0789 10.1999,33.5789 10.5,30.5C 9.33796,26.2057 8.83796,21.8724 9,17.5C 10.2313,21.5911 11.0646,25.7578 11.5,30C 11.6243,32.59 10.9577,34.9233 9.5,37C 11.5,37.3333 13.5,37.6667 15.5,38C 16.056,38.3826 16.3893,38.8826 16.5,39.5 Z"/></g>
<g><path style="opacity:1" fill="#484848" d="M 34.5,41.5 C 32.2435,40.4382 31.0768,38.7715 31,36.5C 32.8022,37.7893 33.9688,39.4559 34.5,41.5 Z"/></g>
<g><path style="opacity:1" fill="#323232" d="M 34.5,41.5 C 36.2624,42.2623 37.2624,43.5956 37.5,45.5C 35.7376,44.7377 34.7376,43.4044 34.5,41.5 Z"/></g>
<g><path style="opacity:1" fill="#1b1b1b" d="M 37.5,45.5 C 38.9063,45.9731 39.573,46.9731 39.5,48.5C 38.0937,48.0269 37.427,47.0269 37.5,45.5 Z"/></g>
<g><path style="opacity:1" fill="#0e0e0e" d="M 12.5,13.5 C 19.4567,14.3864 26.4567,14.7197 33.5,14.5C 33.0114,23.6836 37.3448,29.0169 46.5,30.5C 44.8194,38.7294 44.1527,47.0627 44.5,55.5C 49.5757,55.0735 52.409,57.4068 53,62.5C 54.9552,63.4533 56.6218,64.7866 58,66.5C 58.1466,63.4294 58.9799,60.5961 60.5,58C 66.9551,58.3524 69.4551,61.8524 68,68.5C 66.9596,71.0405 65.1263,72.7071 62.5,73.5C 75.9643,89.7283 87.4643,107.395 97,126.5C 97.4643,125.906 97.631,125.239 97.5,124.5C 98.1667,126.833 98.8333,129.167 99.5,131.5C 135.153,209.957 135.486,288.623 100.5,367.5C 98.893,368.7 97.893,368.2 97.5,366C 130.81,292.185 131.977,218.018 101,143.5C 99.4207,141.959 97.5873,140.792 95.5,140C 96.448,139.517 97.448,139.351 98.5,139.5C 91.0811,121.279 81.4144,104.445 69.5,89C 65.9605,88.7181 62.4605,88.2181 59,87.5C 57.5936,88.4138 56.0936,89.0805 54.5,89.5C 52.7211,87.6565 50.3878,86.9898 47.5,87.5C 47.5,87.1667 47.5,86.8333 47.5,86.5C 48.8734,86.6567 50.2068,86.49 51.5,86C 49.8588,84.871 48.8588,83.371 48.5,81.5C 50.34,83.168 52.34,84.668 54.5,86C 59.1761,86.7062 63.8428,87.0395 68.5,87C 65.8333,83.6667 63.1667,80.3333 60.5,77C 56.5114,77.1072 53.0114,75.9405 50,73.5C 49.2419,71.2305 49.4086,69.0639 50.5,67C 42.3185,67.6853 39.9852,64.5186 43.5,57.5C 42.152,54.9866 40.152,53.1532 37.5,52C 38.5,51.6667 39.5,51.3333 40.5,51C 39.7476,50.3292 39.4142,49.4959 39.5,48.5C 40.8846,49.5736 42.0513,50.9069 43,52.5C 43.4174,45.154 43.9174,37.8206 44.5,30.5C 35.792,29.4723 31.4587,24.4723 31.5,15.5C 27.204,16.4625 22.8706,16.6292 18.5,16C 16.1484,15.7599 14.1484,14.9265 12.5,13.5 Z"/></g>
<g><path style="opacity:1" fill="#1e1e1e" d="M 16.5,39.5 C 17.7899,40.0577 18.6232,41.0577 19,42.5C 19.1747,46.211 19.6747,49.8776 20.5,53.5C 23.0289,52.0403 25.6956,51.5403 28.5,52C 24.8737,53.488 21.2071,54.488 17.5,55C 18.7561,49.7833 18.4227,44.6166 16.5,39.5 Z"/></g>
<g><path style="opacity:1" fill="#1c1c1c" d="M 121.5,70.5 C 119.757,69.3591 118.757,67.6924 118.5,65.5C 119.331,63.5269 119.498,61.5269 119,59.5C 116.5,62 114,64.5 111.5,67C 107.147,67.5326 106.814,67.1993 110.5,66C 115.034,61.8006 119.201,57.3006 123,52.5C 122.115,56.5572 121.282,60.7239 120.5,65C 120.696,66.8784 121.029,68.7117 121.5,70.5 Z"/></g>
<g><path style="opacity:1" fill="#9c9c9c" d="M 101.5,66.5 C 101.198,69.0593 101.532,71.3926 102.5,73.5C 102.784,75.4147 102.451,77.0813 101.5,78.5C 101.5,77.8333 101.167,77.5 100.5,77.5C 100.185,73.6286 100.518,69.9619 101.5,66.5 Z"/></g>
<g><path style="opacity:1" fill="#383838" d="M 102.5,73.5 C 101.532,71.3926 101.198,69.0593 101.5,66.5C 105.472,65.5772 105.806,65.5772 102.5,66.5C 102.5,68.8333 102.5,71.1667 102.5,73.5 Z"/></g>
<g><path style="opacity:1" fill="#585858" d="M 121.5,70.5 C 123.19,70.8564 124.19,71.8564 124.5,73.5C 122.5,73.5 121.5,72.5 121.5,70.5 Z"/></g>
<g><path style="opacity:1" fill="#fafafa" d="M 40.5,74.5 C 43.0962,76.7529 45.7629,79.0863 48.5,81.5C 48.8588,83.371 49.8588,84.871 51.5,86C 50.2068,86.49 48.8734,86.6567 47.5,86.5C 42.219,85.218 36.8857,85.218 31.5,86.5C 36.7921,87.4948 42.1254,87.8282 47.5,87.5C 50.3878,86.9898 52.7211,87.6565 54.5,89.5C 51.1606,92.1727 48.1606,95.1727 45.5,98.5C 40.3134,94.5555 35.3134,94.5555 30.5,98.5C 29.1779,98.33 28.0113,98.6634 27,99.5C 22.7196,94.9405 17.5529,91.7739 11.5,90C 13.7899,88.2228 15.4566,86.0562 16.5,83.5C 18.7289,81.3842 20.7289,79.0508 22.5,76.5C 25.7919,78.1982 29.2919,79.1982 33,79.5C 35.0081,79.6932 36.5081,79.0265 37.5,77.5C 39.5,77.5 40.5,76.5 40.5,74.5 Z"/></g>
<g><path style="opacity:1" fill="#292929" d="M 48.5,81.5 C 45.7629,79.0863 43.0962,76.7529 40.5,74.5C 40.5173,72.9719 41.184,72.4719 42.5,73C 44.8882,75.6287 46.8882,78.462 48.5,81.5 Z"/></g>
<g><path style="opacity:1" fill="#111111" d="M 40.5,74.5 C 40.5,76.5 39.5,77.5 37.5,77.5C 38.1667,76.1667 39.1667,75.1667 40.5,74.5 Z"/></g>
<g><path style="opacity:1" fill="#313131" d="M 124.5,73.5 C 126.384,73.7118 127.717,74.7118 128.5,76.5C 126.824,78.3369 124.824,79.6702 122.5,80.5C 123.479,78.8546 124.812,77.5213 126.5,76.5C 125.388,75.7348 124.721,74.7348 124.5,73.5 Z"/></g>
<g><path style="opacity:1" fill="#202020" d="M 37.5,77.5 C 36.5081,79.0265 35.0081,79.6932 33,79.5C 29.2919,79.1982 25.7919,78.1982 22.5,76.5C 20.7289,79.0508 18.7289,81.3842 16.5,83.5C 17.6808,80.9745 19.0142,78.4745 20.5,76C 24.7304,76.1794 28.8971,77.0127 33,78.5C 34.4397,77.8524 35.9397,77.5191 37.5,77.5 Z"/></g>
<g><path style="opacity:1" fill="#1d1d1d" d="M 100.5,77.5 C 101.167,77.5 101.5,77.8333 101.5,78.5C 101.586,79.4959 101.252,80.3292 100.5,81C 97.4675,82.1776 94.8008,83.8442 92.5,86C 93.9056,87.978 94.9056,90.1447 95.5,92.5C 93.5026,90.487 91.836,88.1537 90.5,85.5C 93.13,83.1792 96.13,81.3459 99.5,80C 100.252,79.3292 100.586,78.4959 100.5,77.5 Z"/></g>
<g><path style="opacity:1" fill="#b4b4b4" d="M 47.5,86.5 C 47.5,86.8333 47.5,87.1667 47.5,87.5C 42.1254,87.8282 36.7921,87.4948 31.5,86.5C 36.8857,85.218 42.219,85.218 47.5,86.5 Z"/></g>
<g><path style="opacity:1" fill="#0c0c0c" d="M 122.5,80.5 C 120.5,82.671 118.666,85.0043 117,87.5C 116.667,91.5 116.333,95.5 116,99.5C 114.989,100.337 113.822,100.67 112.5,100.5C 113.172,99.7326 114.005,99.0659 115,98.5C 115.333,94.5 115.667,90.5 116,86.5C 117.406,83.5914 119.572,81.5914 122.5,80.5 Z"/></g>
<g><path style="opacity:1" fill="#1a1a1a" d="M 104.5,91.5 C 104.755,88.9837 105.589,86.6504 107,84.5C 107.718,83.5494 108.551,83.3828 109.5,84C 107.686,86.4795 106.019,88.9795 104.5,91.5 Z"/></g>
<g><path style="opacity:1" fill="#1d1d1d" d="M 16.5,83.5 C 15.4566,86.0562 13.7899,88.2228 11.5,90C 17.5529,91.7739 22.7196,94.9405 27,99.5C 28.0113,98.6634 29.1779,98.33 30.5,98.5C 29.2347,99.4793 27.9014,100.479 26.5,101.5C 25.018,99.5171 23.3513,97.6837 21.5,96C 17.2167,93.799 12.8834,91.799 8.5,90C 11.3307,87.9993 13.9974,85.8327 16.5,83.5 Z"/></g>
<g><path style="opacity:1" fill="#151515" d="M 95.5,92.5 C 97.2624,93.2623 98.2624,94.5956 98.5,96.5C 96.7376,95.7377 95.7376,94.4044 95.5,92.5 Z"/></g>
<g><path style="opacity:1" fill="#1a1a1a" d="M 54.5,89.5 C 51.8948,93.4435 48.8948,97.1102 45.5,100.5C 40.8939,96.3988 35.8939,95.7321 30.5,98.5C 35.3134,94.5555 40.3134,94.5555 45.5,98.5C 48.1606,95.1727 51.1606,92.1727 54.5,89.5 Z"/></g>
<g><path style="opacity:1" fill="#1d1d1d" d="M 104.5,91.5 C 104.218,94.9097 103.551,98.243 102.5,101.5C 103,101.833 103.5,102.167 104,102.5C 106.791,101.594 109.624,100.927 112.5,100.5C 109.203,102.601 105.537,103.935 101.5,104.5C 100.647,109.47 99.9805,114.47 99.5,119.5C 98.8333,119.5 98.5,119.167 98.5,118.5C 98.577,114.206 99.2436,110.039 100.5,106C 100.764,102.855 100.098,99.6884 98.5,96.5C 99.4584,96.9528 100.292,97.6195 101,98.5C 101.898,95.9309 103.065,93.5976 104.5,91.5 Z"/></g>
<g><path style="opacity:1" fill="#f7f7f7" d="M 82.5,141.5 C 81.0779,141.75 80.0779,142.583 79.5,144C 78.3333,144.167 77.1667,144.333 76,144.5C 72.9226,143.387 69.7559,142.387 66.5,141.5C 63.1327,141.75 60.1327,142.75 57.5,144.5C 56.5,142.5 55.5,140.5 54.5,138.5C 53.8088,135.635 52.1421,133.468 49.5,132C 46.7558,131.197 44.0891,130.197 41.5,129C 42.056,128.617 42.3893,128.117 42.5,127.5C 48.1925,125.237 53.6925,122.57 59,119.5C 61.8373,121.859 64.6706,124.192 67.5,126.5C 70.3934,125.26 73.2267,123.926 76,122.5C 78.567,126.077 80.7336,129.91 82.5,134C 80.144,134.155 77.8107,134.155 75.5,134C 78.4662,135.266 81.4662,136.433 84.5,137.5C 83.3698,138.622 82.7031,139.956 82.5,141.5 Z"/></g>
<g><path style="opacity:1" fill="#9a9a9a" d="M 98.5,118.5 C 98.5,119.167 98.8333,119.5 99.5,119.5C 99.5,123.5 99.5,127.5 99.5,131.5C 98.8333,129.167 98.1667,126.833 97.5,124.5C 97.2053,122.265 97.5386,120.265 98.5,118.5 Z"/></g>
<g><path style="opacity:1" fill="#1c1c1c" d="M 82.5,141.5 C 82.7031,139.956 83.3698,138.622 84.5,137.5C 81.4662,136.433 78.4662,135.266 75.5,134C 77.8107,134.155 80.144,134.155 82.5,134C 80.7336,129.91 78.567,126.077 76,122.5C 73.2267,123.926 70.3934,125.26 67.5,126.5C 64.6706,124.192 61.8373,121.859 59,119.5C 53.6925,122.57 48.1925,125.237 42.5,127.5C 47.8695,124.06 53.3695,120.727 59,117.5C 61.9676,119.631 64.801,121.964 67.5,124.5C 70.5557,122.492 73.8891,121.659 77.5,122C 80.0464,125.59 82.2131,129.423 84,133.5C 86.6436,135.964 89.8102,137.464 93.5,138C 91.4731,138.498 89.4731,138.331 87.5,137.5C 85.8349,138.823 84.1683,140.156 82.5,141.5 Z"/></g>
<g><path style="opacity:1" fill="#222222" d="M 42.5,127.5 C 42.3893,128.117 42.056,128.617 41.5,129C 44.0891,130.197 46.7558,131.197 49.5,132C 52.1421,133.468 53.8088,135.635 54.5,138.5C 49.9143,133.682 44.2476,130.849 37.5,130C 38.9101,128.628 40.5767,127.795 42.5,127.5 Z"/></g>
<g><path style="opacity:1" fill="#181818" d="M 65.5,131.5 C 68.2165,131.678 70.8832,132.178 73.5,133C 72.1667,133.167 70.8333,133.333 69.5,133.5C 67.6672,133.415 66.3339,132.748 65.5,131.5 Z"/></g>
<g><path style="opacity:1" fill="#242424" d="M 82.5,141.5 C 81.6219,144.704 79.4552,146.37 76,146.5C 70.1011,143.456 63.9344,142.789 57.5,144.5C 60.1327,142.75 63.1327,141.75 66.5,141.5C 69.7559,142.387 72.9226,143.387 76,144.5C 77.1667,144.333 78.3333,144.167 79.5,144C 80.0779,142.583 81.0779,141.75 82.5,141.5 Z"/></g>
<g><path style="opacity:1" fill="#191919" d="M 54.5,138.5 C 55.5,140.5 56.5,142.5 57.5,144.5C 57.189,145.478 56.5223,146.145 55.5,146.5C 54.52,143.914 54.1866,141.247 54.5,138.5 Z"/></g>
</svg>
