<?xml version="1.0" encoding="UTF-8"?>
<!DOCTYPE svg PUBLIC "-//W3C//DTD SVG 1.1//EN" "http://www.w3.org/Graphics/SVG/1.1/DTD/svg11.dtd">
<svg xmlns="http://www.w3.org/2000/svg" version="1.1" width="173px" height="376px" style="shape-rendering:geometricPrecision; text-rendering:geometricPrecision; image-rendering:optimizeQuality; fill-rule:evenodd; clip-rule:evenodd" xmlns:xlink="http://www.w3.org/1999/xlink">
<g><path style="opacity:1" fill="#fdfdfd" d="M -0.5,-0.5 C 57.1667,-0.5 114.833,-0.5 172.5,-0.5C 172.5,124.833 172.5,250.167 172.5,375.5C 114.833,375.5 57.1667,375.5 -0.5,375.5C -0.5,250.167 -0.5,124.833 -0.5,-0.5 Z"/></g>
<g><path style="opacity:1" fill="#121212" d="M 159.5,13.5 C 165.513,5.08299 167.013,6.08299 164,16.5C 163.781,15.062 163.281,13.7287 162.5,12.5C 161.583,13.1272 160.583,13.4606 159.5,13.5 Z"/></g>
<g><path style="opacity:1" fill="#2b2b2b" d="M 159.5,13.5 C 157.524,15.0109 155.191,15.8442 152.5,16C 148.775,16.7599 145.108,16.5932 141.5,15.5C 140.47,22.6058 136.804,27.6058 130.5,30.5C 130.5,29.8333 130.167,29.5 129.5,29.5C 136.294,26.9309 139.294,21.9309 138.5,14.5C 145.543,14.7197 152.543,14.3864 159.5,13.5 Z"/></g>
<g><path style="opacity:1" fill="#595959" d="M 149.5,27.5 C 150.239,27.369 150.906,27.5357 151.5,28C 150.234,29.9827 148.568,30.9827 146.5,31C 147.71,29.9609 148.71,28.7942 149.5,27.5 Z"/></g>
<g><path style="opacity:1" fill="#0e0e0e" d="M 155.5,39.5 C 155.611,38.8826 155.944,38.3826 156.5,38C 158.5,37.6667 160.5,37.3333 162.5,37C 161.148,34.7057 160.481,32.2057 160.5,29.5C 161.016,25.4372 161.849,21.4372 163,17.5C 163.162,21.8724 162.662,26.2057 161.5,30.5C 161.8,33.5789 163.133,36.0789 165.5,38C 162.12,38.3386 158.787,38.8386 155.5,39.5 Z"/></g>
<g><path style="opacity:1" fill="#484848" d="M 137.5,41.5 C 138.031,39.4559 139.198,37.7893 141,36.5C 140.923,38.7715 139.757,40.4382 137.5,41.5 Z"/></g>
<g><path style="opacity:1" fill="#323232" d="M 137.5,41.5 C 137.262,43.4044 136.262,44.7377 134.5,45.5C 134.738,43.5956 135.738,42.2623 137.5,41.5 Z"/></g>
<g><path style="opacity:1" fill="#2f2f2f" d="M 134.5,45.5 C 134.573,47.0269 133.906,48.0269 132.5,48.5C 132.427,46.9731 133.094,45.9731 134.5,45.5 Z"/></g>
<g><path style="opacity:1" fill="#0c0c0c" d="M 129.5,29.5 C 130.167,29.5 130.5,29.8333 130.5,30.5C 129.5,30.5 128.5,30.5 127.5,30.5C 128.083,37.8206 128.583,45.154 129,52.5C 129.949,50.9069 131.115,49.5736 132.5,48.5C 132.586,49.4959 132.252,50.3292 131.5,51C 132.5,51.3333 133.5,51.6667 134.5,52C 131.848,53.1532 129.848,54.9866 128.5,57.5C 132.015,64.5186 129.681,67.6853 121.5,67C 123.444,71.0348 122.444,74.0348 118.5,76C 116.167,76.3333 113.833,76.6667 111.5,77C 108.833,80.3333 106.167,83.6667 103.5,87C 108.142,86.9371 112.809,86.6037 117.5,86C 119.66,84.668 121.66,83.168 123.5,81.5C 123.141,83.371 122.141,84.871 120.5,86C 121.167,86.3333 121.833,86.6667 122.5,87C 120.256,87.0496 118.589,87.8829 117.5,89.5C 115.844,88.8535 114.177,88.1869 112.5,87.5C 104.228,86.0943 99.395,89.4277 98,97.5C 96.4878,98.2567 95.1545,99.2567 94,100.5C 85.7353,112.832 78.902,125.832 73.5,139.5C 74.552,139.351 75.552,139.517 76.5,140C 74.4127,140.792 72.5793,141.959 71,143.5C 65.6759,156.144 61.5092,169.144 58.5,182.5C 63.7623,181.063 66.7623,177.563 67.5,172C 74.8324,172.334 80.4991,169.501 84.5,163.5C 84.551,171.555 84.551,179.889 84.5,188.5C 81.7531,188.187 79.0865,188.52 76.5,189.5C 74.8863,194.02 74.2197,198.687 74.5,203.5C 69.8215,203.334 65.1548,203.501 60.5,204C 56.8796,207.441 53.8796,211.275 51.5,215.5C 50.5386,217.265 50.2053,219.265 50.5,221.5C 51.8333,221.5 53.1667,221.5 54.5,221.5C 59.6069,223.755 60.6069,227.255 57.5,232C 54.854,232.497 52.1873,232.664 49.5,232.5C 49.5,238.167 49.5,243.833 49.5,249.5C 55.2697,251.041 56.6031,254.374 53.5,259.5C 52.3112,260.429 50.9778,260.762 49.5,260.5C 50.5155,297.443 58.8489,332.61 74.5,366C 74.107,368.2 73.107,368.7 71.5,367.5C 56.2818,334.558 47.7818,299.891 46,263.5C 45.6943,261.094 44.861,258.927 43.5,257C 45.181,247.935 46.181,238.769 46.5,229.5C 38.6088,228.871 36.2754,225.038 39.5,218C 42.146,217.503 44.8127,217.336 47.5,217.5C 47.5,215.833 47.5,214.167 47.5,212.5C 42.8597,212.526 40.5264,210.193 40.5,205.5C 41.9286,200.119 45.262,198.452 50.5,200.5C 52.2657,188.201 55.2657,176.201 59.5,164.5C 57.987,159.935 56.987,155.268 56.5,150.5C 58.4171,153.804 59.5838,157.471 60,161.5C 63.8973,151.374 68.064,141.374 72.5,131.5C 73.1667,129.167 73.8333,126.833 74.5,124.5C 74.3932,126.379 74.8932,126.712 76,125.5C 85.0328,106.665 96.1994,89.3321 109.5,73.5C 102.377,69.2495 101.71,64.0828 107.5,58C 108.833,57.3333 110.167,57.3333 111.5,58C 113.02,60.5961 113.853,63.4294 114,66.5C 115.378,64.7866 117.045,63.4533 119,62.5C 119.591,57.4068 122.424,55.0735 127.5,55.5C 127.902,47.0559 127.235,38.7226 125.5,30.5C 126.689,29.5713 128.022,29.238 129.5,29.5 Z"/></g>
<g><path style="opacity:1" fill="#2d2d2d" d="M 155.5,39.5 C 153.577,44.6166 153.244,49.7833 154.5,55C 148.283,53.5325 141.95,52.1992 135.5,51C 141.008,50.5414 146.342,51.3747 151.5,53.5C 152.325,49.8776 152.825,46.211 153,42.5C 153.377,41.0577 154.21,40.0577 155.5,39.5 Z"/></g>
<g><path style="opacity:1" fill="#222222" d="M 49.5,80.5 C 47.1764,79.6702 45.1764,78.3369 43.5,76.5C 46.4936,74.3383 48.9936,71.6717 51,68.5C 51.2787,62.9808 50.612,57.6475 49,52.5C 53.2342,58.4032 58.4009,63.2365 64.5,67C 63.1667,67.6667 61.8333,67.6667 60.5,67C 58,64.5 55.5,62 53,59.5C 54.3658,66.7763 51.8658,72.443 45.5,76.5C 47.188,77.5213 48.5213,78.8546 49.5,80.5 Z"/></g>
<g><path style="opacity:1" fill="#383838" d="M 70.5,66.5 C 70.8016,69.0593 70.4682,71.3926 69.5,73.5C 69.5,71.1667 69.5,68.8333 69.5,66.5C 66.1944,65.5772 66.5277,65.5772 70.5,66.5 Z"/></g>
<g><path style="opacity:1" fill="#9b9b9b" d="M 70.5,66.5 C 71.4816,69.9619 71.815,73.6286 71.5,77.5C 70.8333,77.5 70.5,77.8333 70.5,78.5C 69.5489,77.0813 69.2155,75.4147 69.5,73.5C 70.4682,71.3926 70.8016,69.0593 70.5,66.5 Z"/></g>
<g><path style="opacity:1" fill="#f4f4f4" d="M 131.5,74.5 C 131.5,76.5 132.5,77.5 134.5,77.5C 135.492,79.0265 136.992,79.6932 139,79.5C 142.641,79.0086 146.141,78.0086 149.5,76.5C 151.271,79.0508 153.271,81.3842 155.5,83.5C 156.543,86.0562 158.21,88.2228 160.5,90C 154.164,92.1631 148.497,95.3298 143.5,99.5C 142.508,99.6716 141.842,99.3382 141.5,98.5C 136.687,94.5555 131.687,94.5555 126.5,98.5C 123.812,95.1456 120.812,92.1456 117.5,89.5C 118.589,87.8829 120.256,87.0496 122.5,87C 121.833,86.6667 121.167,86.3333 120.5,86C 122.141,84.871 123.141,83.371 123.5,81.5C 126.237,79.0863 128.904,76.7529 131.5,74.5 Z"/></g>
<g><path style="opacity:1" fill="#262626" d="M 131.5,74.5 C 128.904,76.7529 126.237,79.0863 123.5,81.5C 125.112,78.462 127.112,75.6287 129.5,73C 130.816,72.4719 131.483,72.9719 131.5,74.5 Z"/></g>
<g><path style="opacity:1" fill="#0f0f0f" d="M 131.5,74.5 C 132.833,75.1667 133.833,76.1667 134.5,77.5C 132.5,77.5 131.5,76.5 131.5,74.5 Z"/></g>
<g><path style="opacity:1" fill="#191919" d="M 155.5,83.5 C 153.271,81.3842 151.271,79.0508 149.5,76.5C 146.141,78.0086 142.641,79.0086 139,79.5C 136.992,79.6932 135.492,79.0265 134.5,77.5C 136.06,77.5191 137.56,77.8524 139,78.5C 143.103,77.0127 147.27,76.1794 151.5,76C 152.986,78.4745 154.319,80.9745 155.5,83.5 Z"/></g>
<g><path style="opacity:1" fill="#0c0c0c" d="M 71.5,77.5 C 71.7329,79.0618 72.3995,80.3951 73.5,81.5C 71.5,81.5 70.5,80.5 70.5,78.5C 70.5,77.8333 70.8333,77.5 71.5,77.5 Z"/></g>
<g><path style="opacity:1" fill="#1d1d1d" d="M 73.5,81.5 C 83.0268,82.8822 84.0268,86.5488 76.5,92.5C 77.0944,90.1447 78.0944,87.978 79.5,86C 77.6416,84.2453 75.6416,82.7453 73.5,81.5 Z"/></g>
<g><path style="opacity:1" fill="#0e0e0e" d="M 49.5,80.5 C 51.7157,81.2026 53.549,82.5359 55,84.5C 56.2148,89.0509 56.8814,93.7176 57,98.5C 57.9947,99.0659 58.828,99.7326 59.5,100.5C 58.1779,100.67 57.0113,100.337 56,99.5C 55.6667,95.5 55.3333,91.5 55,87.5C 53.3335,85.0043 51.5002,82.671 49.5,80.5 Z"/></g>
<g><path style="opacity:1" fill="#1a1a1a" d="M 67.5,91.5 C 65.9808,88.9795 64.3141,86.4795 62.5,84C 63.4491,83.3828 64.2825,83.5494 65,84.5C 66.4114,86.6504 67.2447,88.9837 67.5,91.5 Z"/></g>
<g><path style="opacity:1" fill="#171717" d="M 40.5,94.5 C 40.5,95.1667 40.1667,95.5 39.5,95.5C 38.0783,95.2914 36.745,94.7914 35.5,94C 33.6667,91.5 31.8333,89 30,86.5C 28.8829,88.1243 27.3829,89.1243 25.5,89.5C 22.2685,88.2728 19.2685,86.6061 16.5,84.5C 15.8632,88.4468 14.8632,92.2802 13.5,96C 15.3739,98.288 17.7072,100.121 20.5,101.5C 20.9282,104.522 22.2615,107.022 24.5,109C 24,109.167 23.5,109.333 23,109.5C 21.115,108.008 20.115,106.008 20,103.5C 17.035,101.276 14.2016,98.9422 11.5,96.5C 12.9226,94.1568 13.9226,91.6568 14.5,89C 13.6236,85.7272 12.7902,82.5605 12,79.5C 15.412,82.1227 18.912,84.6227 22.5,87C 25.6363,88.0405 28.1363,87.2072 30,84.5C 32.1667,87.3333 34.3333,90.1667 36.5,93C 37.745,93.7914 39.0783,94.2914 40.5,94.5 Z"/></g>
<g><path style="opacity:1" fill="#1f1f1f" d="M 155.5,83.5 C 158.003,85.8327 160.669,87.9993 163.5,90C 159.117,91.799 154.783,93.799 150.5,96C 148.649,97.6837 146.982,99.5171 145.5,101.5C 144.478,101.145 143.811,100.478 143.5,99.5C 148.497,95.3298 154.164,92.1631 160.5,90C 158.21,88.2228 156.543,86.0562 155.5,83.5 Z"/></g>
<g><path style="opacity:1" fill="#818181" d="M 40.5,94.5 C 42.099,94.2322 43.4324,94.5655 44.5,95.5C 43.8333,95.5 43.5,95.8333 43.5,96.5C 41.901,96.7678 40.5676,96.4345 39.5,95.5C 40.1667,95.5 40.5,95.1667 40.5,94.5 Z"/></g>
<g><path style="opacity:1" fill="#1b1b1b" d="M 76.5,92.5 C 76.2624,94.4044 75.2624,95.7377 73.5,96.5C 73.7376,94.5956 74.7376,93.2623 76.5,92.5 Z"/></g>
<g><path style="opacity:1" fill="#6a6a6a" d="M 27.5,99.5 C 28.4971,98.2875 29.4971,98.4542 30.5,100C 29.4232,100.47 28.4232,100.303 27.5,99.5 Z"/></g>
<g><path style="opacity:1" fill="#1e1e1e" d="M 117.5,89.5 C 120.812,92.1456 123.812,95.1456 126.5,98.5C 131.687,94.5555 136.687,94.5555 141.5,98.5C 136.106,95.7321 131.106,96.3988 126.5,100.5C 123.105,97.1102 120.105,93.4435 117.5,89.5 Z"/></g>
<g><path style="opacity:1" fill="#161616" d="M 67.5,91.5 C 68.8505,94.0225 70.0172,96.6892 71,99.5C 71.3768,98.0577 72.2101,97.0577 73.5,96.5C 72.8443,98.484 72.1776,100.484 71.5,102.5C 72.3275,107.533 72.9941,112.866 73.5,118.5C 73.5,119.167 73.1667,119.5 72.5,119.5C 72.0195,114.47 71.3529,109.47 70.5,104.5C 66.4632,103.935 62.7966,102.601 59.5,100.5C 62.2035,100.955 64.8702,101.622 67.5,102.5C 68.1667,102.167 68.8333,101.833 69.5,101.5C 68.4486,98.243 67.7819,94.9097 67.5,91.5 Z"/></g>
<g><path style="opacity:1" fill="#181818" d="M 43.5,96.5 C 43.5,95.8333 43.8333,95.5 44.5,95.5C 45.2389,102.034 45.9056,108.701 46.5,115.5C 45.2568,113.836 43.5902,112.669 41.5,112C 36.1483,111.479 30.8149,110.813 25.5,110C 31.8395,109.652 38.1728,109.818 44.5,110.5C 44.8195,105.637 44.4861,100.97 43.5,96.5 Z"/></g>
<g><path style="opacity:1" fill="#f5f5f5" d="M 27.5,118.5 C 30.1667,119.833 32.8333,119.833 35.5,118.5C 36.6873,120.072 37.6873,121.739 38.5,123.5C 39.209,124.404 40.209,124.737 41.5,124.5C 42.2631,127.141 42.4298,129.808 42,132.5C 41.6667,132.167 41.3333,131.833 41,131.5C 40.6339,133.452 39.8005,135.118 38.5,136.5C 35.9108,137.419 33.9108,139.086 32.5,141.5C 31.8333,141.5 31.1667,141.5 30.5,141.5C 28.2047,134.561 23.538,132.561 16.5,135.5C 16.7845,133.585 16.4511,131.919 15.5,130.5C 15.573,128.973 14.9063,127.973 13.5,127.5C 12.3064,123.637 9.97304,120.637 6.5,118.5C 4.87099,116.804 5.20432,115.804 7.5,115.5C 9.16667,116.833 10.8333,116.833 12.5,115.5C 14.679,115.16 16.5123,114.16 18,112.5C 19.7854,116.801 22.9521,118.801 27.5,118.5 Z"/></g>
<g><path style="opacity:1" fill="#181818" d="M 7.5,114.5 C 7.5,114.833 7.5,115.167 7.5,115.5C 5.20432,115.804 4.87099,116.804 6.5,118.5C 4.41948,117.273 2.41948,115.773 0.5,114C 2.88479,113.444 5.21812,113.61 7.5,114.5 Z"/></g>
<g><path style="opacity:1" fill="#151515" d="M 56.5,150.5 C 54.9928,145.825 52.6595,141.492 49.5,137.5C 46.0233,134.238 42.3567,133.905 38.5,136.5C 39.8005,135.118 40.6339,133.452 41,131.5C 41.3333,131.833 41.6667,132.167 42,132.5C 42.4298,129.808 42.2631,127.141 41.5,124.5C 40.209,124.737 39.209,124.404 38.5,123.5C 39.8333,123.5 41.1667,123.5 42.5,123.5C 42.3345,128.84 44.5012,132.84 49,135.5C 49.1904,131.812 50.0237,128.312 51.5,125C 49.6954,121.89 48.0287,118.723 46.5,115.5C 47.7942,116.29 48.9609,117.29 50,118.5C 52.516,114.64 55.8493,113.64 60,115.5C 64.622,123.06 62.4553,126.394 53.5,125.5C 55.3582,131.078 57.0249,136.745 58.5,142.5C 57.6221,145.13 56.9555,147.797 56.5,150.5 Z"/></g>
<g><path style="opacity:1" fill="#838383" d="M 7.5,114.5 C 8.83333,114.5 10.1667,114.5 11.5,114.5C 11.5,115.167 11.8333,115.5 12.5,115.5C 10.8333,116.833 9.16667,116.833 7.5,115.5C 7.5,115.167 7.5,114.833 7.5,114.5 Z"/></g>
<g><path style="opacity:1" fill="#1d1d1d" d="M 27.5,117.5 C 27.5,117.833 27.5,118.167 27.5,118.5C 22.9521,118.801 19.7854,116.801 18,112.5C 16.5123,114.16 14.679,115.16 12.5,115.5C 11.8333,115.5 11.5,115.167 11.5,114.5C 14.2255,114.055 16.3921,112.722 18,110.5C 20.0402,112.701 22.2069,114.868 24.5,117C 25.448,117.483 26.448,117.649 27.5,117.5 Z"/></g>
<g><path style="opacity:1" fill="#717171" d="M 27.5,117.5 C 30.1667,117.5 32.8333,117.5 35.5,117.5C 35.5,117.833 35.5,118.167 35.5,118.5C 32.8333,119.833 30.1667,119.833 27.5,118.5C 27.5,118.167 27.5,117.833 27.5,117.5 Z"/></g>
<g><path style="opacity:1" fill="#191919" d="M 35.5,118.5 C 35.5,118.167 35.5,117.833 35.5,117.5C 36.5,117.5 37.5,117.5 38.5,117.5C 38.5,119.5 38.5,121.5 38.5,123.5C 37.6873,121.739 36.6873,120.072 35.5,118.5 Z"/></g>
<g><path style="opacity:1" fill="#f9f9f9" d="M 129.5,127.5 C 129.611,128.117 129.944,128.617 130.5,129C 124.255,129.769 119.922,132.935 117.5,138.5C 116.5,140.5 115.5,142.5 114.5,144.5C 111.867,142.75 108.867,141.75 105.5,141.5C 102.898,141.467 100.898,142.467 99.5,144.5C 97.1432,144.663 94.8098,144.497 92.5,144C 91.9221,142.583 90.9221,141.75 89.5,141.5C 89.2969,139.956 88.6302,138.622 87.5,137.5C 93.6063,135.056 99.9396,133.39 106.5,132.5C 105.833,132.167 105.167,131.833 104.5,131.5C 99.4671,132.561 94.4671,133.394 89.5,134C 91.2664,129.91 93.433,126.077 96,122.5C 98.6368,124.235 101.47,125.568 104.5,126.5C 107.329,124.192 110.163,121.859 113,119.5C 118.308,122.57 123.808,125.237 129.5,127.5 Z"/></g>
<g><path style="opacity:1" fill="#2e2e2e" d="M 6.5,118.5 C 9.97304,120.637 12.3064,123.637 13.5,127.5C 10.4442,125.051 8.11083,122.051 6.5,118.5 Z"/></g>
<g><path style="opacity:1" fill="#1d1d1d" d="M 129.5,127.5 C 123.808,125.237 118.308,122.57 113,119.5C 110.163,121.859 107.329,124.192 104.5,126.5C 101.47,125.568 98.6368,124.235 96,122.5C 93.433,126.077 91.2664,129.91 89.5,134C 94.4671,133.394 99.4671,132.561 104.5,131.5C 105.167,131.833 105.833,132.167 106.5,132.5C 99.9396,133.39 93.6063,135.056 87.5,137.5C 88.6302,138.622 89.2969,139.956 89.5,141.5C 87.8317,140.156 86.1651,138.823 84.5,137.5C 82.5269,138.331 80.5269,138.498 78.5,138C 80.7148,136.956 83.0481,136.29 85.5,136C 88.7494,131.503 91.7494,126.837 94.5,122C 98.1109,121.659 101.444,122.492 104.5,124.5C 107.199,121.964 110.032,119.631 113,117.5C 118.924,120.284 124.424,123.617 129.5,127.5 Z"/></g>
<g><path style="opacity:1" fill="#9a9a9a" d="M 73.5,118.5 C 74.4614,120.265 74.7947,122.265 74.5,124.5C 73.8333,126.833 73.1667,129.167 72.5,131.5C 72.5,127.5 72.5,123.5 72.5,119.5C 73.1667,119.5 73.5,119.167 73.5,118.5 Z"/></g>
<g><path style="opacity:1" fill="#030303" d="M 13.5,127.5 C 14.9063,127.973 15.573,128.973 15.5,130.5C 14.0937,130.027 13.427,129.027 13.5,127.5 Z"/></g>
<g><path style="opacity:1" fill="#e9e9e9" d="M 52.5,129.5 C 55.7175,134.307 56.8842,139.64 56,145.5C 52.8076,140.467 51.6409,135.134 52.5,129.5 Z"/></g>
<g><path style="opacity:1" fill="#272727" d="M 129.5,127.5 C 131.423,127.795 133.09,128.628 134.5,130C 127.752,130.849 122.086,133.682 117.5,138.5C 119.922,132.935 124.255,129.769 130.5,129C 129.944,128.617 129.611,128.117 129.5,127.5 Z"/></g>
<g><path style="opacity:1" fill="#0b0b0b" d="M 38.5,136.5 C 37.0892,138.914 35.0892,140.581 32.5,141.5C 33.9108,139.086 35.9108,137.419 38.5,136.5 Z"/></g>
<g><path style="opacity:1" fill="#2c2c2c" d="M 15.5,130.5 C 16.4511,131.919 16.7845,133.585 16.5,135.5C 23.538,132.561 28.2047,134.561 30.5,141.5C 28.6614,140.492 27.3281,138.992 26.5,137C 22.8484,136.501 19.1817,136.335 15.5,136.5C 15.5,134.5 15.5,132.5 15.5,130.5 Z"/></g>
<g><path style="opacity:1" fill="#1f1f1f" d="M 114.5,144.5 C 109.5,143.167 104.5,143.167 99.5,144.5C 100.898,142.467 102.898,141.467 105.5,141.5C 108.867,141.75 111.867,142.75 114.5,144.5 Z"/></g>
<g><path style="opacity:1" fill="#4e4e4e" d="M 30.5,141.5 C 31.1667,141.5 31.8333,141.5 32.5,141.5C 31.8333,144.167 31.1667,144.167 30.5,141.5 Z"/></g>
<g><path style="opacity:1" fill="#191919" d="M 117.5,138.5 C 117.813,141.247 117.48,143.914 116.5,146.5C 115.478,146.145 114.811,145.478 114.5,144.5C 115.5,142.5 116.5,140.5 117.5,138.5 Z"/></g>
<g><path style="opacity:1" fill="#242424" d="M 89.5,141.5 C 90.9221,141.75 91.9221,142.583 92.5,144C 94.8098,144.497 97.1432,144.663 99.5,144.5C 97.9894,146.441 95.9894,146.941 93.5,146C 91.249,145.252 89.9156,143.752 89.5,141.5 Z"/></g>
<g><path style="opacity:1" fill="#f4f4f4" d="M 81.5,169.5 C 82.4889,174.975 82.8222,180.642 82.5,186.5C 79.0295,185.875 76.1962,186.875 74,189.5C 72.9847,193.44 72.4847,197.44 72.5,201.5C 68.4934,200.996 64.4934,200.83 60.5,201C 57.979,203.22 55.8123,205.72 54,208.5C 53.5,207.5 53,206.5 52.5,205.5C 53.6199,199.469 54.9532,193.469 56.5,187.5C 60.0724,185.116 63.5724,182.449 67,179.5C 67.5036,174.333 70.3369,172.166 75.5,173C 77.8791,172.284 79.8791,171.117 81.5,169.5 Z"/></g>
<g><path style="opacity:1" fill="#707070" d="M 63.5,188.5 C 64.2389,188.369 64.9056,188.536 65.5,189C 63.6667,190.833 61.8333,192.667 60,194.5C 59.3333,193.833 59.3333,193.167 60,192.5C 61.3756,191.295 62.5423,189.962 63.5,188.5 Z"/></g>
<g><path style="opacity:1" fill="#8a8a8a" d="M 51.5,215.5 C 51.5,217.167 51.5,218.833 51.5,220.5C 52.791,220.263 53.791,220.596 54.5,221.5C 53.1667,221.5 51.8333,221.5 50.5,221.5C 50.2053,219.265 50.5386,217.265 51.5,215.5 Z"/></g>
</svg>
