<?xml version="1.0" encoding="UTF-8"?>
<!DOCTYPE svg PUBLIC "-//W3C//DTD SVG 1.1//EN" "http://www.w3.org/Graphics/SVG/1.1/DTD/svg11.dtd">
<svg xmlns="http://www.w3.org/2000/svg" version="1.1" width="173px" height="376px" style="shape-rendering:geometricPrecision; text-rendering:geometricPrecision; image-rendering:optimizeQuality; fill-rule:evenodd; clip-rule:evenodd" xmlns:xlink="http://www.w3.org/1999/xlink">
<g><path style="opacity:1" fill="#fdfdfd" d="M -0.5,-0.5 C 57.1667,-0.5 114.833,-0.5 172.5,-0.5C 172.5,124.833 172.5,250.167 172.5,375.5C 114.833,375.5 57.1667,375.5 -0.5,375.5C -0.5,250.167 -0.5,124.833 -0.5,-0.5 Z"/></g>
<g><path style="opacity:1" fill="#111111" d="M 12.5,13.5 C 10.9826,13.4894 9.81595,12.8228 9,11.5C 8.66667,13.1667 8.33333,14.8333 8,16.5C 4.98706,6.08299 6.48706,5.08299 12.5,13.5 Z"/></g>
<g><path style="opacity:1" fill="#454545" d="M 24.5,30.5 C 22.8042,30.3146 21.4709,29.4813 20.5,28C 22.4122,27.7207 23.7456,28.5541 24.5,30.5 Z"/></g>
<g><path style="opacity:1" fill="#5a5a5a" d="M 24.5,30.5 C 27.0014,30.8256 28.1681,32.1589 28,34.5C 26.6244,33.2949 25.4577,31.9616 24.5,30.5 Z"/></g>
<g><path style="opacity:1" fill="#131313" d="M 16.5,39.5 C 13.1606,39.1103 9.82728,38.6103 6.5,38C 8.86659,36.0789 10.1999,33.5789 10.5,30.5C 9.33796,26.2057 8.83796,21.8724 9,17.5C 10.2313,21.5911 11.0646,25.7578 11.5,30C 11.6243,32.59 10.9577,34.9233 9.5,37C 11.5,37.3333 13.5,37.6667 15.5,38C 16.056,38.3826 16.3893,38.8826 16.5,39.5 Z"/></g>
<g><path style="opacity:1" fill="#484848" d="M 34.5,41.5 C 32.2435,40.4382 31.0768,38.7715 31,36.5C 32.8022,37.7893 33.9688,39.4559 34.5,41.5 Z"/></g>
<g><path style="opacity:1" fill="#323232" d="M 34.5,41.5 C 36.2624,42.2623 37.2624,43.5956 37.5,45.5C 35.7376,44.7377 34.7376,43.4044 34.5,41.5 Z"/></g>
<g><path style="opacity:1" fill="#1b1b1b" d="M 37.5,45.5 C 38.9063,45.9731 39.573,46.9731 39.5,48.5C 38.0937,48.0269 37.427,47.0269 37.5,45.5 Z"/></g>
<g><path style="opacity:1" fill="#0d0d0d" d="M 12.5,13.5 C 19.4567,14.3864 26.4567,14.7197 33.5,14.5C 33.0114,23.6836 37.3448,29.0169 46.5,30.5C 44.8194,38.7294 44.1527,47.0627 44.5,55.5C 49.5757,55.0735 52.409,57.4068 53,62.5C 54.9552,63.4533 56.6218,64.7866 58,66.5C 58.1466,63.4294 58.9799,60.5961 60.5,58C 66.9551,58.3524 69.4551,61.8524 68,68.5C 66.9596,71.0405 65.1263,72.7071 62.5,73.5C 75.9643,89.7283 87.4643,107.395 97,126.5C 97.4643,125.906 97.631,125.239 97.5,124.5C 98.1667,126.833 98.8333,129.167 99.5,131.5C 103.936,141.374 108.103,151.374 112,161.5C 112.416,157.471 113.583,153.804 115.5,150.5C 115.013,155.268 114.013,159.935 112.5,164.5C 116.734,176.201 119.734,188.201 121.5,200.5C 130.132,198.737 132.966,202.071 130,210.5C 128.416,211.861 126.582,212.528 124.5,212.5C 124.5,214.167 124.5,215.833 124.5,217.5C 127.187,217.336 129.854,217.503 132.5,218C 135.725,225.038 133.391,228.871 125.5,229.5C 125.684,238.785 126.684,247.951 128.5,257C 127.139,258.927 126.306,261.094 126,263.5C 124.407,300.448 115.574,335.448 99.5,368.5C 98.2801,368.113 97.6135,367.28 97.5,366C 113.369,332.94 121.369,298.107 121.5,261.5C 116.647,259.411 115.48,256.078 118,251.5C 119.11,249.963 120.61,249.297 122.5,249.5C 122.5,243.833 122.5,238.167 122.5,232.5C 114.144,234.317 111.31,231.317 114,223.5C 114.816,222.177 115.983,221.511 117.5,221.5C 118.833,221.5 120.167,221.5 121.5,221.5C 121.795,219.265 121.461,217.265 120.5,215.5C 118.12,211.275 115.12,207.441 111.5,204C 106.845,203.501 102.179,203.334 97.5,203.5C 97.7803,198.687 97.1137,194.02 95.5,189.5C 92.9135,188.52 90.2469,188.187 87.5,188.5C 87.449,179.889 87.449,171.555 87.5,163.5C 91.5009,169.501 97.1676,172.334 104.5,172C 105.238,177.563 108.238,181.063 113.5,182.5C 110.643,169.119 106.477,156.119 101,143.5C 99.4207,141.959 97.5873,140.792 95.5,140C 96.448,139.517 97.448,139.351 98.5,139.5C 91.0811,121.279 81.4144,104.445 69.5,89C 65.9605,88.7181 62.4605,88.2181 59,87.5C 57.5936,88.4138 56.0936,89.0805 54.5,89.5C 52.7211,87.6565 50.3878,86.9898 47.5,87.5C 47.5,87.1667 47.5,86.8333 47.5,86.5C 48.8734,86.6567 50.2068,86.49 51.5,86C 49.8588,84.871 48.8588,83.371 48.5,81.5C 50.34,83.168 52.34,84.668 54.5,86C 59.1761,86.7062 63.8428,87.0395 68.5,87C 65.8333,83.6667 63.1667,80.3333 60.5,77C 56.5114,77.1072 53.0114,75.9405 50,73.5C 49.2419,71.2305 49.4086,69.0639 50.5,67C 42.3185,67.6853 39.9852,64.5186 43.5,57.5C 42.152,54.9866 40.152,53.1532 37.5,52C 38.5,51.6667 39.5,51.3333 40.5,51C 39.7476,50.3292 39.4142,49.4959 39.5,48.5C 40.8846,49.5736 42.0513,50.9069 43,52.5C 43.4174,45.154 43.9174,37.8206 44.5,30.5C 35.792,29.4723 31.4587,24.4723 31.5,15.5C 27.204,16.4625 22.8706,16.6292 18.5,16C 16.1484,15.7599 14.1484,14.9265 12.5,13.5 Z"/></g>
<g><path style="opacity:1" fill="#1e1e1e" d="M 16.5,39.5 C 17.7899,40.0577 18.6232,41.0577 19,42.5C 19.1747,46.211 19.6747,49.8776 20.5,53.5C 23.0289,52.0403 25.6956,51.5403 28.5,52C 24.8737,53.488 21.2071,54.488 17.5,55C 18.7561,49.7833 18.4227,44.6166 16.5,39.5 Z"/></g>
<g><path style="opacity:1" fill="#1c1c1c" d="M 121.5,70.5 C 119.757,69.3591 118.757,67.6924 118.5,65.5C 119.331,63.5269 119.498,61.5269 119,59.5C 116.5,62 114,64.5 111.5,67C 107.147,67.5326 106.814,67.1993 110.5,66C 115.034,61.8006 119.201,57.3006 123,52.5C 122.115,56.5572 121.282,60.7239 120.5,65C 120.696,66.8784 121.029,68.7117 121.5,70.5 Z"/></g>
<g><path style="opacity:1" fill="#9c9c9c" d="M 101.5,66.5 C 101.198,69.0593 101.532,71.3926 102.5,73.5C 102.784,75.4147 102.451,77.0813 101.5,78.5C 101.5,77.8333 101.167,77.5 100.5,77.5C 100.185,73.6286 100.518,69.9619 101.5,66.5 Z"/></g>
<g><path style="opacity:1" fill="#383838" d="M 102.5,73.5 C 101.532,71.3926 101.198,69.0593 101.5,66.5C 105.472,65.5772 105.806,65.5772 102.5,66.5C 102.5,68.8333 102.5,71.1667 102.5,73.5 Z"/></g>
<g><path style="opacity:1" fill="#585858" d="M 121.5,70.5 C 123.19,70.8564 124.19,71.8564 124.5,73.5C 122.5,73.5 121.5,72.5 121.5,70.5 Z"/></g>
<g><path style="opacity:1" fill="#fafafa" d="M 40.5,74.5 C 43.0962,76.7529 45.7629,79.0863 48.5,81.5C 48.8588,83.371 49.8588,84.871 51.5,86C 50.2068,86.49 48.8734,86.6567 47.5,86.5C 42.219,85.218 36.8857,85.218 31.5,86.5C 36.7921,87.4948 42.1254,87.8282 47.5,87.5C 50.3878,86.9898 52.7211,87.6565 54.5,89.5C 51.1606,92.1727 48.1606,95.1727 45.5,98.5C 40.3134,94.5555 35.3134,94.5555 30.5,98.5C 29.1779,98.33 28.0113,98.6634 27,99.5C 22.7196,94.9405 17.5529,91.7739 11.5,90C 13.7899,88.2228 15.4566,86.0562 16.5,83.5C 18.7289,81.3842 20.7289,79.0508 22.5,76.5C 25.7919,78.1982 29.2919,79.1982 33,79.5C 35.0081,79.6932 36.5081,79.0265 37.5,77.5C 39.5,77.5 40.5,76.5 40.5,74.5 Z"/></g>
<g><path style="opacity:1" fill="#292929" d="M 48.5,81.5 C 45.7629,79.0863 43.0962,76.7529 40.5,74.5C 40.5173,72.9719 41.184,72.4719 42.5,73C 44.8882,75.6287 46.8882,78.462 48.5,81.5 Z"/></g>
<g><path style="opacity:1" fill="#111111" d="M 40.5,74.5 C 40.5,76.5 39.5,77.5 37.5,77.5C 38.1667,76.1667 39.1667,75.1667 40.5,74.5 Z"/></g>
<g><path style="opacity:1" fill="#313131" d="M 124.5,73.5 C 126.384,73.7118 127.717,74.7118 128.5,76.5C 126.824,78.3369 124.824,79.6702 122.5,80.5C 123.479,78.8546 124.812,77.5213 126.5,76.5C 125.388,75.7348 124.721,74.7348 124.5,73.5 Z"/></g>
<g><path style="opacity:1" fill="#202020" d="M 37.5,77.5 C 36.5081,79.0265 35.0081,79.6932 33,79.5C 29.2919,79.1982 25.7919,78.1982 22.5,76.5C 20.7289,79.0508 18.7289,81.3842 16.5,83.5C 17.6808,80.9745 19.0142,78.4745 20.5,76C 24.7304,76.1794 28.8971,77.0127 33,78.5C 34.4397,77.8524 35.9397,77.5191 37.5,77.5 Z"/></g>
<g><path style="opacity:1" fill="#1d1d1d" d="M 100.5,77.5 C 101.167,77.5 101.5,77.8333 101.5,78.5C 101.586,79.4959 101.252,80.3292 100.5,81C 97.4675,82.1776 94.8008,83.8442 92.5,86C 93.9056,87.978 94.9056,90.1447 95.5,92.5C 93.5026,90.487 91.836,88.1537 90.5,85.5C 93.13,83.1792 96.13,81.3459 99.5,80C 100.252,79.3292 100.586,78.4959 100.5,77.5 Z"/></g>
<g><path style="opacity:1" fill="#b4b4b4" d="M 47.5,86.5 C 47.5,86.8333 47.5,87.1667 47.5,87.5C 42.1254,87.8282 36.7921,87.4948 31.5,86.5C 36.8857,85.218 42.219,85.218 47.5,86.5 Z"/></g>
<g><path style="opacity:1" fill="#141414" d="M 155.5,83.5 C 156.708,81.0777 158.375,80.0777 160.5,80.5C 156.621,85.8675 156.621,91.2008 160.5,96.5C 157.798,98.9422 154.965,101.276 152,103.5C 151.885,106.008 150.885,108.008 149,109.5C 148.5,109.333 148,109.167 147.5,109C 149.739,107.022 151.072,104.522 151.5,101.5C 154.293,100.121 156.626,98.288 158.5,96C 156.423,92.2989 156.089,88.4655 157.5,84.5C 157.043,83.7025 156.376,83.3691 155.5,83.5 Z"/></g>
<g><path style="opacity:1" fill="#0c0c0c" d="M 122.5,80.5 C 120.5,82.671 118.666,85.0043 117,87.5C 116.667,91.5 116.333,95.5 116,99.5C 114.989,100.337 113.822,100.67 112.5,100.5C 113.172,99.7326 114.005,99.0659 115,98.5C 115.333,94.5 115.667,90.5 116,86.5C 117.406,83.5914 119.572,81.5914 122.5,80.5 Z"/></g>
<g><path style="opacity:1" fill="#1a1a1a" d="M 104.5,91.5 C 104.755,88.9837 105.589,86.6504 107,84.5C 107.718,83.5494 108.551,83.3828 109.5,84C 107.686,86.4795 106.019,88.9795 104.5,91.5 Z"/></g>
<g><path style="opacity:1" fill="#1d1d1d" d="M 16.5,83.5 C 15.4566,86.0562 13.7899,88.2228 11.5,90C 17.5529,91.7739 22.7196,94.9405 27,99.5C 28.0113,98.6634 29.1779,98.33 30.5,98.5C 29.2347,99.4793 27.9014,100.479 26.5,101.5C 25.018,99.5171 23.3513,97.6837 21.5,96C 17.2167,93.799 12.8834,91.799 8.5,90C 11.3307,87.9993 13.9974,85.8327 16.5,83.5 Z"/></g>
<g><path style="opacity:1" fill="#151515" d="M 95.5,92.5 C 97.2624,93.2623 98.2624,94.5956 98.5,96.5C 96.7376,95.7377 95.7376,94.4044 95.5,92.5 Z"/></g>
<g><path style="opacity:1" fill="#181818" d="M 155.5,83.5 C 153.061,86.2603 150.061,88.2603 146.5,89.5C 144.617,89.1243 143.117,88.1243 142,86.5C 140.167,89 138.333,91.5 136.5,94C 135.255,94.7914 133.922,95.2914 132.5,95.5C 131.833,95.5 131.5,95.1667 131.5,94.5C 132.922,94.2914 134.255,93.7914 135.5,93C 137.667,90.1667 139.833,87.3333 142,84.5C 143.182,86.3569 144.849,87.3569 147,87.5C 149.903,86.2983 152.736,84.965 155.5,83.5 Z"/></g>
<g><path style="opacity:1" fill="#838383" d="M 127.5,95.5 C 128.568,94.5655 129.901,94.2322 131.5,94.5C 131.5,95.1667 131.833,95.5 132.5,95.5C 131.432,96.4345 130.099,96.7678 128.5,96.5C 128.5,95.8333 128.167,95.5 127.5,95.5 Z"/></g>
<g><path style="opacity:1" fill="#1a1a1a" d="M 54.5,89.5 C 51.8948,93.4435 48.8948,97.1102 45.5,100.5C 40.8939,96.3988 35.8939,95.7321 30.5,98.5C 35.3134,94.5555 40.3134,94.5555 45.5,98.5C 48.1606,95.1727 51.1606,92.1727 54.5,89.5 Z"/></g>
<g><path style="opacity:1" fill="#5f5f5f" d="M 142.5,98.5 C 144.975,98.7467 144.975,99.4134 142.5,100.5C 141.537,100.03 141.537,99.3635 142.5,98.5 Z"/></g>
<g><path style="opacity:1" fill="#1d1d1d" d="M 104.5,91.5 C 104.218,94.9097 103.551,98.243 102.5,101.5C 103,101.833 103.5,102.167 104,102.5C 106.791,101.594 109.624,100.927 112.5,100.5C 109.203,102.601 105.537,103.935 101.5,104.5C 100.647,109.47 99.9805,114.47 99.5,119.5C 98.8333,119.5 98.5,119.167 98.5,118.5C 98.577,114.206 99.2436,110.039 100.5,106C 100.764,102.855 100.098,99.6884 98.5,96.5C 99.4584,96.9528 100.292,97.6195 101,98.5C 101.898,95.9309 103.065,93.5976 104.5,91.5 Z"/></g>
<g><path style="opacity:1" fill="#f6f6f6" d="M 159.5,115.5 C 161.167,116.833 162.833,116.833 164.5,115.5C 165.552,115.351 166.552,115.517 167.5,116C 166.619,116.708 165.953,117.542 165.5,118.5C 162.027,120.637 159.694,123.637 158.5,127.5C 157.094,127.973 156.427,128.973 156.5,130.5C 155.549,131.919 155.216,133.585 155.5,135.5C 154.5,135.5 153.5,135.5 152.5,135.5C 146.594,133.031 142.927,135.031 141.5,141.5C 140.833,141.5 140.167,141.5 139.5,141.5C 138.089,139.086 136.089,137.419 133.5,136.5C 129.47,133.373 128.47,129.373 130.5,124.5C 131.791,124.737 132.791,124.404 133.5,123.5C 134.345,122.329 135.011,120.995 135.5,119.5C 139.702,119.817 143.702,119.483 147.5,118.5C 150.428,117.409 152.594,115.409 154,112.5C 155.741,113.758 157.574,114.758 159.5,115.5 Z"/></g>
<g><path style="opacity:1" fill="#161616" d="M 165.5,118.5 C 165.953,117.542 166.619,116.708 167.5,116C 166.552,115.517 165.552,115.351 164.5,115.5C 164.5,115.167 164.5,114.833 164.5,114.5C 166.782,113.61 169.115,113.444 171.5,114C 169.581,115.773 167.581,117.273 165.5,118.5 Z"/></g>
<g><path style="opacity:1" fill="#151515" d="M 127.5,95.5 C 128.167,95.5 128.5,95.8333 128.5,96.5C 127.514,100.97 127.181,105.637 127.5,110.5C 133.816,109.642 140.15,109.476 146.5,110C 139.979,110.437 133.646,111.604 127.5,113.5C 124.777,117.116 122.444,120.949 120.5,125C 121.133,128.459 121.8,131.959 122.5,135.5C 127.382,133.079 129.715,129.079 129.5,123.5C 130.833,123.5 132.167,123.5 133.5,123.5C 132.791,124.404 131.791,124.737 130.5,124.5C 128.47,129.373 129.47,133.373 133.5,136.5C 131.742,136.123 130.075,135.456 128.5,134.5C 126.459,135.236 124.459,136.069 122.5,137C 119.464,141.242 117.13,145.742 115.5,150.5C 113.069,142.505 114.069,134.838 118.5,127.5C 115.885,126.238 113.218,125.072 110.5,124C 109.291,120.699 109.958,117.699 112.5,115C 116.582,113.707 119.749,114.874 122,118.5C 123,117.5 124,116.5 125,115.5C 126.089,108.76 126.923,102.093 127.5,95.5 Z"/></g>
<g><path style="opacity:1" fill="#1d1d1d" d="M 160.5,114.5 C 160.5,115.167 160.167,115.5 159.5,115.5C 157.574,114.758 155.741,113.758 154,112.5C 152.594,115.409 150.428,117.409 147.5,118.5C 146.209,118.737 145.209,118.404 144.5,117.5C 146.484,117.617 148.15,116.95 149.5,115.5C 150.757,113.321 152.257,111.321 154,109.5C 155.558,112.021 157.725,113.688 160.5,114.5 Z"/></g>
<g><path style="opacity:1" fill="#828282" d="M 160.5,114.5 C 161.833,114.5 163.167,114.5 164.5,114.5C 164.5,114.833 164.5,115.167 164.5,115.5C 162.833,116.833 161.167,116.833 159.5,115.5C 160.167,115.5 160.5,115.167 160.5,114.5 Z"/></g>
<g><path style="opacity:1" fill="#7d7d7d" d="M 136.5,117.5 C 139.167,117.5 141.833,117.5 144.5,117.5C 145.209,118.404 146.209,118.737 147.5,118.5C 143.702,119.483 139.702,119.817 135.5,119.5C 135.833,118.833 136.167,118.167 136.5,117.5 Z"/></g>
<g><path style="opacity:1" fill="#f7f7f7" d="M 82.5,141.5 C 81.0779,141.75 80.0779,142.583 79.5,144C 78.3333,144.167 77.1667,144.333 76,144.5C 72.9226,143.387 69.7559,142.387 66.5,141.5C 63.1327,141.75 60.1327,142.75 57.5,144.5C 56.5,142.5 55.5,140.5 54.5,138.5C 53.8088,135.635 52.1421,133.468 49.5,132C 46.7558,131.197 44.0891,130.197 41.5,129C 42.056,128.617 42.3893,128.117 42.5,127.5C 48.1925,125.237 53.6925,122.57 59,119.5C 61.8373,121.859 64.6706,124.192 67.5,126.5C 70.3934,125.26 73.2267,123.926 76,122.5C 78.567,126.077 80.7336,129.91 82.5,134C 80.144,134.155 77.8107,134.155 75.5,134C 78.4662,135.266 81.4662,136.433 84.5,137.5C 83.3698,138.622 82.7031,139.956 82.5,141.5 Z"/></g>
<g><path style="opacity:1" fill="#191919" d="M 136.5,117.5 C 136.167,118.167 135.833,118.833 135.5,119.5C 135.011,120.995 134.345,122.329 133.5,123.5C 133.5,121.5 133.5,119.5 133.5,117.5C 134.5,117.5 135.5,117.5 136.5,117.5 Z"/></g>
<g><path style="opacity:1" fill="#282828" d="M 165.5,118.5 C 163.889,122.051 161.556,125.051 158.5,127.5C 159.694,123.637 162.027,120.637 165.5,118.5 Z"/></g>
<g><path style="opacity:1" fill="#9a9a9a" d="M 98.5,118.5 C 98.5,119.167 98.8333,119.5 99.5,119.5C 99.5,123.5 99.5,127.5 99.5,131.5C 98.8333,129.167 98.1667,126.833 97.5,124.5C 97.2053,122.265 97.5386,120.265 98.5,118.5 Z"/></g>
<g><path style="opacity:1" fill="#8e8e8e" d="M 138.5,126.5 C 139.552,126.351 140.552,126.517 141.5,127C 139.598,128.301 137.598,128.968 135.5,129C 136.571,128.148 137.571,127.315 138.5,126.5 Z"/></g>
<g><path style="opacity:1" fill="#030303" d="M 158.5,127.5 C 158.573,129.027 157.906,130.027 156.5,130.5C 156.427,128.973 157.094,127.973 158.5,127.5 Z"/></g>
<g><path style="opacity:1" fill="#1c1c1c" d="M 82.5,141.5 C 82.7031,139.956 83.3698,138.622 84.5,137.5C 81.4662,136.433 78.4662,135.266 75.5,134C 77.8107,134.155 80.144,134.155 82.5,134C 80.7336,129.91 78.567,126.077 76,122.5C 73.2267,123.926 70.3934,125.26 67.5,126.5C 64.6706,124.192 61.8373,121.859 59,119.5C 53.6925,122.57 48.1925,125.237 42.5,127.5C 47.8695,124.06 53.3695,120.727 59,117.5C 61.9676,119.631 64.801,121.964 67.5,124.5C 70.5557,122.492 73.8891,121.659 77.5,122C 80.0464,125.59 82.2131,129.423 84,133.5C 86.6436,135.964 89.8102,137.464 93.5,138C 91.4731,138.498 89.4731,138.331 87.5,137.5C 85.8349,138.823 84.1683,140.156 82.5,141.5 Z"/></g>
<g><path style="opacity:1" fill="#e9e9e9" d="M 118.5,129.5 C 119.947,130.134 120.613,131.301 120.5,133C 119.595,137.382 118.095,141.548 116,145.5C 115.333,142.833 115.333,140.167 116,137.5C 117.341,134.978 118.174,132.311 118.5,129.5 Z"/></g>
<g><path style="opacity:1" fill="#222222" d="M 42.5,127.5 C 42.3893,128.117 42.056,128.617 41.5,129C 44.0891,130.197 46.7558,131.197 49.5,132C 52.1421,133.468 53.8088,135.635 54.5,138.5C 49.9143,133.682 44.2476,130.849 37.5,130C 38.9101,128.628 40.5767,127.795 42.5,127.5 Z"/></g>
<g><path style="opacity:1" fill="#090909" d="M 156.5,130.5 C 156.5,132.5 156.5,134.5 156.5,136.5C 155.167,136.5 153.833,136.5 152.5,136.5C 152.5,136.167 152.5,135.833 152.5,135.5C 153.5,135.5 154.5,135.5 155.5,135.5C 155.216,133.585 155.549,131.919 156.5,130.5 Z"/></g>
<g><path style="opacity:1" fill="#181818" d="M 65.5,131.5 C 68.2165,131.678 70.8832,132.178 73.5,133C 72.1667,133.167 70.8333,133.333 69.5,133.5C 67.6672,133.415 66.3339,132.748 65.5,131.5 Z"/></g>
<g><path style="opacity:1" fill="#323232" d="M 152.5,135.5 C 152.5,135.833 152.5,136.167 152.5,136.5C 150.143,136.337 147.81,136.503 145.5,137C 144.672,138.992 143.339,140.492 141.5,141.5C 142.927,135.031 146.594,133.031 152.5,135.5 Z"/></g>
<g><path style="opacity:1" fill="#0a0a0a" d="M 133.5,136.5 C 136.089,137.419 138.089,139.086 139.5,141.5C 136.911,140.581 134.911,138.914 133.5,136.5 Z"/></g>
<g><path style="opacity:1" fill="#242424" d="M 82.5,141.5 C 81.6219,144.704 79.4552,146.37 76,146.5C 70.1011,143.456 63.9344,142.789 57.5,144.5C 60.1327,142.75 63.1327,141.75 66.5,141.5C 69.7559,142.387 72.9226,143.387 76,144.5C 77.1667,144.333 78.3333,144.167 79.5,144C 80.0779,142.583 81.0779,141.75 82.5,141.5 Z"/></g>
<g><path style="opacity:1" fill="#555555" d="M 139.5,141.5 C 140.167,141.5 140.833,141.5 141.5,141.5C 140.833,144.167 140.167,144.167 139.5,141.5 Z"/></g>
<g><path style="opacity:1" fill="#191919" d="M 54.5,138.5 C 55.5,140.5 56.5,142.5 57.5,144.5C 57.189,145.478 56.5223,146.145 55.5,146.5C 54.52,143.914 54.1866,141.247 54.5,138.5 Z"/></g>
<g><path style="opacity:1" fill="#f5f5f5" d="M 89.5,169.5 C 93.3939,172.106 97.7272,173.606 102.5,174C 104.502,180.503 108.835,184.337 115.5,185.5C 116.114,190.572 117.114,195.572 118.5,200.5C 117.373,203.175 117.207,205.842 118,208.5C 116.188,205.72 114.021,203.22 111.5,201C 107.49,200.643 103.49,200.81 99.5,201.5C 99.5153,197.44 99.0153,193.44 98,189.5C 95.8038,186.875 92.9705,185.875 89.5,186.5C 89.5,180.833 89.5,175.167 89.5,169.5 Z"/></g>
<g><path style="opacity:1" fill="#707070" d="M 106.5,189.5 C 106.897,188.475 107.563,188.308 108.5,189C 110.638,190.422 111.805,192.255 112,194.5C 110.296,192.627 108.463,190.96 106.5,189.5 Z"/></g>
<g><path style="opacity:1" fill="#929292" d="M 120.5,215.5 C 121.461,217.265 121.795,219.265 121.5,221.5C 120.167,221.5 118.833,221.5 117.5,221.5C 118.209,220.596 119.209,220.263 120.5,220.5C 120.5,218.833 120.5,217.167 120.5,215.5 Z"/></g>
</svg>
