<?xml version="1.0" encoding="UTF-8"?>
<!DOCTYPE svg PUBLIC "-//W3C//DTD SVG 1.1//EN" "http://www.w3.org/Graphics/SVG/1.1/DTD/svg11.dtd">
<svg xmlns="http://www.w3.org/2000/svg" version="1.1" width="828px" height="827px" style="shape-rendering:geometricPrecision; text-rendering:geometricPrecision; image-rendering:optimizeQuality; fill-rule:evenodd; clip-rule:evenodd" xmlns:xlink="http://www.w3.org/1999/xlink">
<g><path style="opacity:1" fill="#fefefe" d="M -0.5,-0.5 C 275.5,-0.5 551.5,-0.5 827.5,-0.5C 827.5,275.167 827.5,550.833 827.5,826.5C 551.5,826.5 275.5,826.5 -0.5,826.5C -0.5,550.833 -0.5,275.167 -0.5,-0.5 Z"/></g>
<g><path style="opacity:1" fill="#0e0e0e" d="M 453.5,489.5 C 452.362,492.304 452.195,495.304 453,498.5C 453.717,497.956 454.217,497.289 454.5,496.5C 456.795,493.703 459.295,491.036 462,488.5C 461.984,484.236 462.817,480.236 464.5,476.5C 458.619,469.287 459.619,463.121 467.5,458C 463.68,454.045 463.513,449.878 467,445.5C 470.94,443.85 475.107,443.017 479.5,443C 486.249,434.179 492.749,434.346 499,443.5C 499.248,448.177 497.415,452.01 493.5,455C 489.858,455.914 486.192,456.748 482.5,457.5C 481.307,459.527 479.64,461.027 477.5,462C 478.594,463.78 479.594,465.614 480.5,467.5C 486.983,464.174 492.483,465.507 497,471.5C 498.81,478.859 495.976,483.192 488.5,484.5C 485.408,484.192 482.575,483.192 480,481.5C 479.087,491.815 473.587,495.648 463.5,493C 459.631,496.534 456.131,500.367 453,504.5C 446.828,544.686 437.161,584.019 424,622.5C 418.874,636.919 412.041,650.419 403.5,663C 401.833,663.667 400.167,663.667 398.5,663C 397.483,661.951 397.316,660.784 398,659.5C 407.789,644.587 415.455,628.587 421,611.5C 445.161,540.215 453.328,467.215 445.5,392.5C 442.206,394.667 438.873,394.834 435.5,393C 431.48,389.115 427.814,384.948 424.5,380.5C 422.235,379.353 419.902,379.186 417.5,380C 411.933,381.783 406.599,384.117 401.5,387C 391.142,408.24 383.476,430.406 378.5,453.5C 387.275,451.554 391.941,446.054 392.5,437C 398.26,436.071 403.927,434.738 409.5,433C 414.391,430.943 417.724,427.443 419.5,422.5C 420.689,421.571 422.022,421.238 423.5,421.5C 422.591,435.475 422.257,449.475 422.5,463.5C 418.818,463.335 415.152,463.501 411.5,464C 410.376,464.249 409.376,464.749 408.5,465.5C 405.87,472.926 404.87,480.593 405.5,488.5C 398.482,488.254 391.482,488.087 384.5,488C 378.634,493.531 373.134,499.365 368,505.5C 366.985,509.44 366.485,513.44 366.5,517.5C 377.616,517.446 381.782,522.779 379,533.5C 378.167,534.333 377.333,535.167 376.5,536C 372.637,537.354 368.637,537.854 364.5,537.5C 364.5,540.167 364.5,542.833 364.5,545.5C 363.51,551.645 363.177,557.978 363.5,564.5C 364.5,564.5 365.5,564.5 366.5,564.5C 371.254,565.973 373.588,569.306 373.5,574.5C 373.381,580.417 370.381,583.417 364.5,583.5C 366.362,643.612 379.862,700.945 405,755.5C 405.987,759.506 404.487,761.339 400.5,761C 373.886,704.182 359.386,644.349 357,581.5C 353.222,579.388 349.722,576.888 346.5,574C 340.866,567.364 334.866,561.031 328.5,555C 317.074,554.527 305.741,553.36 294.5,551.5C 293.416,550.335 292.583,549.002 292,547.5C 291.852,541.751 291.186,536.085 290,530.5C 289.167,529.667 288.333,528.833 287.5,528C 284.167,527.667 280.833,527.333 277.5,527C 277,526.5 276.5,526 276,525.5C 276.062,517.449 276.896,509.449 278.5,501.5C 278.333,499.833 278.167,498.167 278,496.5C 275.128,493.963 272.628,491.13 270.5,488C 271.047,487.075 271.713,486.242 272.5,485.5C 274.65,487.149 276.65,488.982 278.5,491C 285.437,492.656 292.437,493.99 299.5,495C 302.244,495.803 304.911,496.803 307.5,498C 310.98,503.926 314.313,509.926 317.5,516C 322.489,518.747 327.822,520.247 333.5,520.5C 331.675,530.767 330.842,541.101 331,551.5C 337.984,559.651 345.484,567.317 353.5,574.5C 354.223,571.93 355.39,569.597 357,567.5C 357.23,555.801 357.73,544.134 358.5,532.5C 347.994,531.504 343.16,525.837 344,515.5C 348.444,510.077 353.777,509.077 360,512.5C 360.49,511.207 360.657,509.873 360.5,508.5C 361.451,507.081 361.784,505.415 361.5,503.5C 359.833,503.5 358.167,503.5 356.5,503.5C 349.72,500.379 347.22,495.045 349,487.5C 352.676,481.306 357.676,479.973 364,483.5C 368.66,463.533 373.827,443.699 379.5,424C 377.703,413.644 375.203,403.477 372,393.5C 369.379,383.896 363.379,377.563 354,374.5C 346.78,378.388 340.114,383.055 334,388.5C 330.388,384.78 326.888,380.947 323.5,377C 317.742,376.436 312.075,376.936 306.5,378.5C 308.28,373.901 307.78,369.567 305,365.5C 298.434,356.095 290.934,347.429 282.5,339.5C 286.269,338.573 289.936,339.073 293.5,341C 296.167,341.667 298.833,341.667 301.5,341C 305.289,338.873 308.789,336.373 312,333.5C 315.1,337.933 318.933,341.766 323.5,345C 326.598,345.918 329.765,346.418 333,346.5C 336.842,345.94 340.676,345.773 344.5,346C 345.211,348.796 345.878,351.63 346.5,354.5C 348.341,355.23 350.175,355.897 352,356.5C 353.642,361.066 354.975,365.732 356,370.5C 358.07,372.787 360.57,374.453 363.5,375.5C 364.044,369.717 365.044,364.05 366.5,358.5C 363.535,351.041 359.535,344.207 354.5,338C 342.846,336.168 331.18,334.502 319.5,333C 318.667,332.167 317.833,331.333 317,330.5C 316.399,327.363 315.399,324.363 314,321.5C 309.667,318.833 305.333,316.167 301,313.5C 300.333,312.167 300.333,310.833 301,309.5C 303.611,306.28 305.111,302.613 305.5,298.5C 304.232,293.03 302.565,287.697 300.5,282.5C 301.552,282.351 302.552,282.517 303.5,283C 309.822,290.048 317.489,294.381 326.5,296C 328.355,294.145 330.188,292.312 332,290.5C 335.368,295.391 338.868,300.225 342.5,305C 347.012,307.503 351.845,309.003 357,309.5C 357.333,319.167 357.667,328.833 358,338.5C 360.333,341.833 362.667,345.167 365,348.5C 367.417,342.215 371.917,339.381 378.5,340C 389.836,352.316 387.169,359.316 370.5,361C 373.59,367.935 376.09,375.102 378,382.5C 378.674,387.767 378.174,392.934 376.5,398C 378.283,404.567 380.117,411.067 382,417.5C 387.837,400.826 394.504,384.492 402,368.5C 402.646,353.983 401.313,339.65 398,325.5C 389.934,322.7 381.934,319.7 374,316.5C 373.667,309.5 373.333,302.5 373,295.5C 371.207,292.705 369.04,290.205 366.5,288C 361.857,285.019 357.524,281.685 353.5,278C 358.746,273.425 363.246,268.258 367,262.5C 366.908,254.462 365.074,246.795 361.5,239.5C 362.5,238.167 363.5,238.167 364.5,239.5C 369.948,246.451 375.948,252.951 382.5,259C 384.199,259.958 386.033,260.458 388,260.5C 391.484,259.667 394.984,259.501 398.5,260C 399.052,267.525 399.885,275.025 401,282.5C 405.806,285.82 410.973,288.487 416.5,290.5C 416.833,291.167 417.167,291.833 417.5,292.5C 412.232,300.945 406.732,309.278 401,317.5C 400.873,320.604 400.707,323.604 400.5,326.5C 403.448,337.637 405.281,348.97 406,360.5C 416.092,341.305 426.925,322.638 438.5,304.5C 430.409,266.227 417.743,229.561 400.5,194.5C 395.6,193.096 390.6,192.429 385.5,192.5C 384.357,201.921 379.024,205.755 369.5,204C 361.623,199.699 359.79,193.533 364,185.5C 369.181,182.083 374.681,181.583 380.5,184C 383.033,185.033 384.699,186.867 385.5,189.5C 389.795,190.661 394.129,190.828 398.5,190C 394.045,181.586 389.211,173.419 384,165.5C 377.109,174.635 370.442,174.635 364,165.5C 362.528,159.924 363.695,155.091 367.5,151C 369.392,150.027 371.392,149.36 373.5,149C 369.409,142.408 364.743,136.241 359.5,130.5C 357.167,132.167 355.167,134.167 353.5,136.5C 361.866,141.693 363.699,148.693 359,157.5C 355.319,160.36 351.152,161.193 346.5,160C 339.132,154.932 337.632,148.432 342,140.5C 344.808,138.179 347.975,136.512 351.5,135.5C 353.356,132.81 355.689,130.644 358.5,129C 357.5,128 356.5,127 355.5,126C 348.528,124.835 341.528,124.502 334.5,125C 331.354,127.312 328.354,129.812 325.5,132.5C 323.96,130.613 322.293,128.78 320.5,127C 316.579,126.797 312.745,126.297 309,125.5C 307.971,121.111 306.138,117.111 303.5,113.5C 308.841,112.277 313.841,110.277 318.5,107.5C 320.359,109.192 322.359,110.692 324.5,112C 327.614,112.123 330.614,112.29 333.5,112.5C 335.3,116.129 337.3,119.629 339.5,123C 344.513,123.669 349.513,124.003 354.5,124C 351.5,120.333 348.5,116.667 345.5,113C 338.732,113.192 333.232,110.692 329,105.5C 328.667,103.5 328.333,101.5 328,99.5C 322.587,101.698 318.253,100.364 315,95.5C 313.964,92.2473 313.297,88.914 313,85.5C 309.398,83.6299 307.898,80.6299 308.5,76.5C 309.694,66.0682 315.028,63.2348 324.5,68C 326.715,72.3234 327.048,76.8234 325.5,81.5C 329.587,83.6612 332.253,86.9945 333.5,91.5C 340.556,90.462 345.389,93.462 348,100.5C 357.078,99.2564 360.745,103.256 359,112.5C 357.978,113.354 357.145,114.354 356.5,115.5C 364.192,125.359 371.692,135.359 379,145.5C 379.667,143.833 379.667,142.167 379,140.5C 370.106,135.037 368.273,127.871 373.5,119C 379.514,113.975 385.014,114.475 390,120.5C 392.095,129.31 389.429,136.31 382,141.5C 381.333,144.5 381.333,147.5 382,150.5C 387.583,158.664 392.916,166.997 398,175.5C 400.104,172.242 399.77,169.242 397,166.5C 396.333,162.833 396.333,159.167 397,155.5C 401.588,150.257 406.255,150.257 411,155.5C 412.782,163.936 409.782,169.936 402,173.5C 401.167,175.167 400.333,176.833 399.5,178.5C 408.882,196.834 417.382,215.5 425,234.5C 425.565,226.491 426.231,218.491 427,210.5C 427.309,209.234 427.809,208.067 428.5,207C 421.605,200.776 416.271,193.443 412.5,185C 412.645,184.228 412.978,183.561 413.5,183C 417.951,182.384 421.784,180.551 425,177.5C 425.898,171.341 425.398,165.341 423.5,159.5C 428.535,160.498 432.702,159.165 436,155.5C 437.986,149.695 438.986,143.695 439,137.5C 440,136.167 441,136.167 442,137.5C 442.916,145.914 445.249,153.914 449,161.5C 452.321,165.047 456.154,167.881 460.5,170C 459.056,172.449 457.222,174.615 455,176.5C 453.221,179.613 452.055,182.946 451.5,186.5C 453.018,192.949 455.352,198.949 458.5,204.5C 450.012,203.989 441.679,204.822 433.5,207C 431.707,210.949 430.54,215.115 430,219.5C 428.766,228.809 428.433,238.142 429,247.5C 434.884,263.934 439.884,280.601 444,297.5C 450.309,289.023 456.809,280.69 463.5,272.5C 455.96,271.291 452.626,266.791 453.5,259C 453.739,251.097 457.739,246.764 465.5,246C 469.291,250.034 471.125,254.867 471,260.5C 473.667,258.5 476.333,256.5 479,254.5C 479.043,246.291 483.21,242.291 491.5,242.5C 493.212,228.892 492.545,215.392 489.5,202C 489.645,201.228 489.978,200.561 490.5,200C 505.711,198.287 512.711,189.787 511.5,174.5C 521.53,175.998 531.53,175.832 541.5,174C 546.988,170.982 551.988,167.482 556.5,163.5C 553.985,175.742 551.985,188.075 550.5,200.5C 550.667,203.167 550.833,205.833 551,208.5C 552.685,210.017 554.185,211.684 555.5,213.5C 554.975,214.192 554.308,214.692 553.5,215C 550.167,215.333 546.833,215.667 543.5,216C 541.714,216.785 540.214,217.951 539,219.5C 536.432,227.386 535.932,235.386 537.5,243.5C 531.173,241.781 524.839,239.948 518.5,238C 508.482,235.246 500.482,237.913 494.5,246C 497.36,249.681 498.193,253.848 497,258.5C 493.03,261.938 488.53,263.105 483.5,262C 487.183,269.95 484.849,275.283 476.5,278C 473.571,278.777 470.737,278.61 468,277.5C 463.5,283.167 459,288.833 454.5,294.5C 462.91,295.159 471.243,294.326 479.5,292C 484.937,286.287 489.77,280.12 494,273.5C 494.804,272.196 495.971,271.529 497.5,271.5C 499.958,273.455 502.291,275.622 504.5,278C 506.768,279.552 509.268,280.385 512,280.5C 518.923,278.984 525.757,277.484 532.5,276C 537.143,285.767 543.81,293.933 552.5,300.5C 546.938,302.941 541.271,305.441 535.5,308C 530.373,310.962 526.04,314.795 522.5,319.5C 517.14,315.485 511.14,313.152 504.5,312.5C 499.219,313.497 494.219,314.997 489.5,317C 484.027,309.194 477.527,302.361 470,296.5C 463.835,297.273 457.668,298.106 451.5,299C 449.093,301.738 447.093,304.738 445.5,308C 449.28,323.961 451.613,340.127 452.5,356.5C 454.655,356.628 456.655,356.128 458.5,355C 461.053,350.946 464.386,347.779 468.5,345.5C 480.377,352.024 492.21,358.69 504,365.5C 504.456,366.744 503.956,367.577 502.5,368C 493.408,368.804 485.575,372.304 479,378.5C 476.765,383.223 475.931,388.223 476.5,393.5C 472.089,392.307 467.756,390.807 463.5,389C 460.183,388.502 456.85,388.335 453.5,388.5C 456.153,422.166 456.153,455.833 453.5,489.5 Z"/></g>
<g><path style="opacity:1" fill="#f1f1f1" d="M 317.5,109.5 C 319.95,110.777 322.283,112.277 324.5,114C 327.2,114.253 329.867,114.253 332.5,114C 333.833,116.333 335.167,118.667 336.5,121C 330.088,120.146 323.755,118.646 317.5,116.5C 317.167,116.833 316.833,117.167 316.5,117.5C 321.432,119.366 326.432,121.033 331.5,122.5C 332.521,123.002 332.688,123.668 332,124.5C 330.281,126.557 328.281,128.224 326,129.5C 324.404,128.503 322.904,127.337 321.5,126C 317.848,125.501 314.182,125.335 310.5,125.5C 309.705,121.28 308.038,117.447 305.5,114C 308.529,113.461 311.529,112.794 314.5,112C 315.942,111.623 316.942,110.79 317.5,109.5 Z"/></g>
<g><path style="opacity:1" fill="#f7f7f7" d="M 440.5,154.5 C 442.808,158.31 445.142,162.31 447.5,166.5C 449.493,168.499 451.827,169.999 454.5,171C 447.682,179.435 446.682,188.602 451.5,198.5C 451.291,199.086 450.957,199.586 450.5,200C 444.443,200.512 438.443,201.345 432.5,202.5C 433.368,195.491 435.368,188.824 438.5,182.5C 438.167,182.167 437.833,181.833 437.5,181.5C 433.929,188.118 431.429,195.118 430,202.5C 425.109,197.71 420.942,192.377 417.5,186.5C 420.988,184.602 424.488,182.602 428,180.5C 429.707,175.005 429.873,169.505 428.5,164C 431.785,163.241 434.785,161.908 437.5,160C 439.16,158.512 440.16,156.679 440.5,154.5 Z"/></g>
<g><path style="opacity:1" fill="#fbfbfb" d="M 496.5,237.5 C 495.566,236.432 495.232,235.099 495.5,233.5C 496.071,222.991 495.071,212.657 492.5,202.5C 506.927,200.407 514.26,192.073 514.5,177.5C 525.406,179.457 536.072,178.624 546.5,175C 548.609,173.859 550.442,172.359 552,170.5C 550.832,180.507 549.332,190.507 547.5,200.5C 547.186,204.748 548.186,208.581 550.5,212C 545.948,212.069 541.782,213.236 538,215.5C 534.427,223.078 532.593,231.078 532.5,239.5C 527.535,237.901 522.535,236.401 517.5,235C 511.36,234.347 505.36,234.681 499.5,236C 507.777,221.382 518.61,208.882 532,198.5C 532.688,197.668 532.521,197.002 531.5,196.5C 516.525,207.465 504.859,221.131 496.5,237.5 Z"/></g>
<g><path style="opacity:1" fill="#626262" d="M 495.5,233.5 C 495.232,235.099 495.566,236.432 496.5,237.5C 496.013,238.473 495.513,239.473 495,240.5C 494.204,237.961 494.371,235.628 495.5,233.5 Z"/></g>
<g><path style="opacity:1" fill="#f9f9f9" d="M 367.5,247.5 C 371.936,252.438 376.603,257.271 381.5,262C 383.034,262.923 384.701,263.423 386.5,263.5C 389.799,262.79 393.133,262.457 396.5,262.5C 396.815,269.931 397.648,277.265 399,284.5C 403.926,287.714 409.093,290.548 414.5,293C 409.21,300.413 404.043,307.913 399,315.5C 397.033,306.647 393.7,298.314 389,290.5C 383.381,288.184 383.047,289.184 388,293.5C 393.195,302.225 395.362,311.559 394.5,321.5C 388.571,320.024 382.904,317.857 377.5,315C 376.946,307.808 376.112,300.642 375,293.5C 369.812,287.648 363.979,282.481 357.5,278C 361.702,274.133 365.535,269.967 369,265.5C 370.184,259.523 369.684,253.523 367.5,247.5 Z"/></g>
<g><path style="opacity:1" fill="#f8f8f8" d="M 490.5,293.5 C 487.941,293.802 485.607,293.468 483.5,292.5C 487.752,286.401 492.252,280.401 497,274.5C 499.537,277.372 502.37,279.872 505.5,282C 513.827,283.085 521.827,281.919 529.5,278.5C 534.408,286.419 540.408,293.586 547.5,300C 537.404,302.807 528.904,307.974 522,315.5C 516.584,312.205 510.751,310.205 504.5,309.5C 499.552,309.888 495.052,311.554 491,314.5C 486.911,308.407 482.078,302.907 476.5,298C 476.833,297.667 477.167,297.333 477.5,297C 489.493,296.09 501.493,295.257 513.5,294.5C 505.862,293.503 498.196,293.169 490.5,293.5 Z"/></g>
<g><path style="opacity:1" fill="#f8f8f8" d="M 305.5,290.5 C 305.56,289.957 305.893,289.624 306.5,289.5C 311.941,293.886 317.941,297.219 324.5,299.5C 327.622,298.897 330.122,297.23 332,294.5C 334.771,301.233 339.271,306.399 345.5,310C 348.482,310.498 351.482,310.665 354.5,310.5C 354.5,318.5 354.5,326.5 354.5,334.5C 343.123,333.041 331.79,331.541 320.5,330C 320,329.5 319.5,329 319,328.5C 318.667,325.833 318.333,323.167 318,320.5C 313.667,317.833 309.333,315.167 305,312.5C 305.823,307.82 306.99,303.153 308.5,298.5C 308.579,295.342 307.579,292.675 305.5,290.5 Z"/></g>
<g><path style="opacity:1" fill="#868686" d="M 483.5,292.5 C 485.607,293.468 487.941,293.802 490.5,293.5C 487.696,294.638 484.696,294.805 481.5,294C 482.044,293.283 482.711,292.783 483.5,292.5 Z"/></g>
<g><path style="opacity:1" fill="#252525" d="M 313.5,308.5 C 313.56,307.957 313.893,307.624 314.5,307.5C 322.455,311.144 330.121,315.311 337.5,320C 339.007,320.837 339.507,322.004 339,323.5C 331.133,317.476 322.633,312.476 313.5,308.5 Z"/></g>
<g><path style="opacity:1" fill="#f9f9f9" d="M 439.5,315.5 C 441.011,317.476 441.844,319.809 442,322.5C 444.125,333.109 445.458,343.776 446,354.5C 443.551,352.854 441.051,351.687 438.5,351C 434.485,358.698 430.485,366.365 426.5,374C 418.67,377.087 410.837,380.254 403,383.5C 413.195,359.797 425.362,337.13 439.5,315.5 Z"/></g>
<g><path style="opacity:1" fill="#f8f8f8" d="M 311.5,336.5 C 313.533,341.373 316.866,345.206 321.5,348C 328.524,348.169 335.524,348.669 342.5,349.5C 343.423,352.447 344.089,355.447 344.5,358.5C 346.467,358.261 348.301,358.594 350,359.5C 351.669,363.125 352.169,366.791 351.5,370.5C 344.523,365.011 336.857,361.178 328.5,359C 333.341,361.921 338.341,364.588 343.5,367C 346.001,368.673 348.334,370.507 350.5,372.5C 344.884,376.115 339.55,380.115 334.5,384.5C 331.342,381.172 328.342,377.672 325.5,374C 320.149,374.034 314.816,374.534 309.5,375.5C 309.816,372.022 309.316,368.688 308,365.5C 302.589,357.418 296.422,349.918 289.5,343C 295.677,344.182 301.677,343.515 307.5,341C 309.041,339.629 310.375,338.129 311.5,336.5 Z"/></g>
<g><path style="opacity:1" fill="#f9f9f9" d="M 467.5,349.5 C 470.425,349.46 473.091,350.293 475.5,352C 482.833,356.333 490.167,360.667 497.5,365C 483.338,367.329 475.005,375.496 472.5,389.5C 465.83,386.248 458.83,385.081 451.5,386C 448.107,388.363 444.44,390.196 440.5,391.5C 439.062,391.281 437.729,390.781 436.5,390C 432.797,386.633 429.464,382.966 426.5,379C 436.752,374.77 447.418,372.437 458.5,372C 458.957,371.586 459.291,371.086 459.5,370.5C 449.898,369.618 440.564,370.951 431.5,374.5C 431.167,374.167 430.833,373.833 430.5,373.5C 433.606,367.621 436.44,361.621 439,355.5C 439.414,355.043 439.914,354.709 440.5,354.5C 445.463,358.655 451.13,360.488 457.5,360C 461.037,356.631 464.371,353.131 467.5,349.5 Z"/></g>
<g><path style="opacity:1" fill="#ebebeb" d="M 368.5,364.5 C 373.43,373.138 375.597,382.471 375,392.5C 369.858,383.895 367.691,374.562 368.5,364.5 Z"/></g>
<g><path style="opacity:1" fill="#f9f9f9" d="M 372.5,494.5 C 374.373,481.315 381.04,470.815 392.5,463C 386.651,464.488 382.151,467.988 379,473.5C 376.633,477.853 374.3,482.187 372,486.5C 371.517,485.552 371.351,484.552 371.5,483.5C 372.654,475.394 374.321,467.394 376.5,459.5C 386.894,456.806 393.561,450.306 396.5,440C 404.392,439.407 411.558,436.907 418,432.5C 418.5,441.494 418.666,450.494 418.5,459.5C 408.936,457.896 403.436,461.896 402,471.5C 401.501,475.821 401.334,480.154 401.5,484.5C 395.166,483.932 388.833,483.766 382.5,484C 378.831,487.161 375.498,490.661 372.5,494.5 Z"/></g>
<g><path style="opacity:1" fill="#2a2a2a" d="M 372.5,494.5 C 371.781,496.317 370.781,496.984 369.5,496.5C 369.129,492.02 369.795,487.687 371.5,483.5C 371.351,484.552 371.517,485.552 372,486.5C 374.3,482.187 376.633,477.853 379,473.5C 382.151,467.988 386.651,464.488 392.5,463C 381.04,470.815 374.373,481.315 372.5,494.5 Z"/></g>
<g><path style="opacity:1" fill="#929292" d="M 453.5,489.5 C 453.198,492.059 453.532,494.393 454.5,496.5C 454.217,497.289 453.717,497.956 453,498.5C 452.195,495.304 452.362,492.304 453.5,489.5 Z"/></g>
<g><path style="opacity:1" fill="#686868" d="M 285.5,496.5 C 283.972,497.802 282.972,499.469 282.5,501.5C 282.5,499.5 282.5,497.5 282.5,495.5C 283.791,495.263 284.791,495.596 285.5,496.5 Z"/></g>
<g><path style="opacity:1" fill="#f9f9f9" d="M 285.5,496.5 C 291.933,497.525 298.267,499.025 304.5,501C 307.833,507 311.167,513 314.5,519C 319.068,521.817 324.068,523.317 329.5,523.5C 328.195,531.801 327.029,540.134 326,548.5C 319.752,539.581 312.752,531.248 305,523.5C 304.833,524 304.667,524.5 304.5,525C 311.495,533.315 318.495,541.649 325.5,550C 316.089,550.306 306.756,549.639 297.5,548C 296.137,546.055 295.303,543.888 295,541.5C 294.891,536.386 294.224,531.386 293,526.5C 288.679,524.626 284.345,522.959 280,521.5C 280.827,514.884 281.66,508.217 282.5,501.5C 282.972,499.469 283.972,497.802 285.5,496.5 Z"/></g>
<g><path style="opacity:1" fill="#6c6c6c" d="M 356.5,503.5 C 358.167,503.5 359.833,503.5 361.5,503.5C 361.784,505.415 361.451,507.081 360.5,508.5C 360.5,507.167 360.5,505.833 360.5,504.5C 358.901,504.768 357.568,504.434 356.5,503.5 Z"/></g>
<g><path style="opacity:1" fill="#adadad" d="M 364.5,545.5 C 363.94,552.121 364.607,558.455 366.5,564.5C 365.5,564.5 364.5,564.5 363.5,564.5C 363.177,557.978 363.51,551.645 364.5,545.5 Z"/></g>
</svg>
