<?xml version="1.0" encoding="UTF-8"?>
<!DOCTYPE svg PUBLIC "-//W3C//DTD SVG 1.1//EN" "http://www.w3.org/Graphics/SVG/1.1/DTD/svg11.dtd">
<svg xmlns="http://www.w3.org/2000/svg" version="1.1" width="828px" height="827px" style="shape-rendering:geometricPrecision; text-rendering:geometricPrecision; image-rendering:optimizeQuality; fill-rule:evenodd; clip-rule:evenodd" xmlns:xlink="http://www.w3.org/1999/xlink">
<g><path style="opacity:1" fill="#fefefe" d="M -0.5,-0.5 C 275.5,-0.5 551.5,-0.5 827.5,-0.5C 827.5,275.167 827.5,550.833 827.5,826.5C 551.5,826.5 275.5,826.5 -0.5,826.5C -0.5,550.833 -0.5,275.167 -0.5,-0.5 Z"/></g>
<g><path style="opacity:1" fill="#0e0e0e" d="M 473.5,123.5 C 474.157,124.316 475.49,124.983 477.5,125.5C 473.733,124.926 470.733,126.093 468.5,129C 471.311,130.644 473.644,132.81 475.5,135.5C 486.823,138.812 489.99,145.812 485,156.5C 481.257,160.259 476.757,161.426 471.5,160C 468.337,158.52 466.504,156.02 466,152.5C 464.961,145.575 467.461,140.242 473.5,136.5C 471.981,133.44 469.648,131.94 466.5,132C 461.682,137.307 457.348,142.973 453.5,149C 457.965,149.313 461.132,151.479 463,155.5C 465.471,168.023 460.637,173.19 448.5,171C 446.333,169.5 444.5,167.667 443,165.5C 437.789,173.419 432.955,181.586 428.5,190C 432.871,190.828 437.205,190.661 441.5,189.5C 445.338,182.953 451.004,180.787 458.5,183C 465.895,187.144 467.395,192.977 463,200.5C 456.021,206.121 449.355,205.788 443,199.5C 442.338,197.187 441.838,194.854 441.5,192.5C 436.4,192.429 431.4,193.096 426.5,194.5C 409.257,229.561 396.591,266.227 388.5,304.5C 400.075,322.638 410.908,341.305 421,360.5C 421.719,348.97 423.552,337.637 426.5,326.5C 426.293,323.604 426.127,320.604 426,317.5C 420.268,309.278 414.768,300.945 409.5,292.5C 409.833,291.833 410.167,291.167 410.5,290.5C 416.027,288.487 421.194,285.82 426,282.5C 427.115,275.025 427.948,267.525 428.5,260C 432.016,259.501 435.516,259.667 439,260.5C 440.967,260.458 442.801,259.958 444.5,259C 451.052,252.951 457.052,246.451 462.5,239.5C 463.5,238.167 464.5,238.167 465.5,239.5C 461.926,246.795 460.092,254.462 460,262.5C 463.754,268.258 468.254,273.425 473.5,278C 469.476,281.685 465.143,285.019 460.5,288C 457.96,290.205 455.793,292.705 454,295.5C 453.667,302.5 453.333,309.5 453,316.5C 444.934,319.3 436.934,322.3 429,325.5C 425.687,339.65 424.354,353.983 425,368.5C 432.496,384.492 439.163,400.826 445,417.5C 446.883,411.067 448.717,404.567 450.5,398C 448.826,392.934 448.326,387.767 449,382.5C 450.91,375.102 453.41,367.935 456.5,361C 439.831,359.316 437.164,352.316 448.5,340C 454.563,339.452 459.063,341.952 462,347.5C 464.575,344.681 466.908,341.681 469,338.5C 469.333,328.833 469.667,319.167 470,309.5C 475.106,309.003 479.939,307.503 484.5,305C 488.132,300.225 491.632,295.391 495,290.5C 496.812,292.312 498.645,294.145 500.5,296C 509.129,294.68 516.463,290.68 522.5,284C 524.089,282.457 525.423,282.457 526.5,284C 523.025,289.753 521.525,295.919 522,302.5C 523.08,304.996 524.414,307.33 526,309.5C 526.667,310.833 526.667,312.167 526,313.5C 522.41,316.046 518.577,318.213 514.5,320C 512.036,323.049 510.536,326.549 510,330.5C 509.097,331.701 507.931,332.535 506.5,333C 495.13,334.386 483.797,336.053 472.5,338C 468.271,343.901 464.437,350.068 461,356.5C 461.155,359.84 461.655,363.174 462.5,366.5C 462.335,369.85 462.502,373.183 463,376.5C 463.717,375.956 464.217,375.289 464.5,374.5C 467.195,374.067 469.362,372.734 471,370.5C 472.025,365.732 473.358,361.066 475,356.5C 476.825,355.897 478.659,355.23 480.5,354.5C 481.122,351.63 481.789,348.796 482.5,346C 489.531,346.999 496.531,346.665 503.5,345C 508.067,341.766 511.9,337.933 515,333.5C 518.211,336.373 521.711,338.873 525.5,341C 528.167,341.667 530.833,341.667 533.5,341C 536.982,338.751 540.649,338.251 544.5,339.5C 536.066,347.429 528.566,356.095 522,365.5C 519.22,369.567 518.72,373.901 520.5,378.5C 514.925,376.936 509.258,376.436 503.5,377C 500.112,380.947 496.612,384.78 493,388.5C 486.886,383.055 480.22,378.388 473,374.5C 465.18,376.32 459.847,380.987 457,388.5C 453.101,400.133 449.934,411.966 447.5,424C 453.173,443.699 458.34,463.533 463,483.5C 469.324,479.973 474.324,481.306 478,487.5C 479.93,495.633 477.097,500.966 469.5,503.5C 468.167,503.5 466.833,503.5 465.5,503.5C 465.216,505.415 465.549,507.081 466.5,508.5C 466.343,509.873 466.51,511.207 467,512.5C 473.141,509.184 478.474,510.184 483,515.5C 484.581,521.062 483.081,525.562 478.5,529C 474.918,530.375 471.585,532.042 468.5,534C 469.301,545.133 469.801,556.3 470,567.5C 471.61,569.597 472.777,571.93 473.5,574.5C 481.516,567.317 489.016,559.651 496,551.5C 496.158,541.101 495.325,530.767 493.5,520.5C 499.032,519.694 504.365,518.194 509.5,516C 512.687,509.926 516.02,503.926 519.5,498C 528.152,494.618 537.152,492.618 546.5,492C 549.312,490.023 551.978,487.856 554.5,485.5C 555.287,486.242 555.953,487.075 556.5,488C 554.372,491.13 551.872,493.963 549,496.5C 548.833,498.167 548.667,499.833 548.5,501.5C 550.104,509.449 550.938,517.449 551,525.5C 547.397,527.128 543.563,527.962 539.5,528C 538.667,528.833 537.833,529.667 537,530.5C 535.814,536.085 535.148,541.751 535,547.5C 534.417,549.002 533.584,550.335 532.5,551.5C 521.267,553.415 509.933,554.582 498.5,555C 492.134,561.031 486.134,567.364 480.5,574C 477.278,576.888 473.778,579.388 470,581.5C 467.614,644.349 453.114,704.182 426.5,761C 422.513,761.339 421.013,759.506 422,755.5C 447.138,700.945 460.638,643.612 462.5,583.5C 456.619,583.417 453.619,580.417 453.5,574.5C 453.412,569.306 455.746,565.973 460.5,564.5C 461.5,564.5 462.5,564.5 463.5,564.5C 463.823,557.978 463.49,551.645 462.5,545.5C 462.5,542.833 462.5,540.167 462.5,537.5C 450.144,539.316 445.31,534.316 448,522.5C 450.978,518.012 455.145,516.345 460.5,517.5C 460.515,513.44 460.015,509.44 459,505.5C 453.866,499.365 448.366,493.531 442.5,488C 435.518,488.087 428.518,488.254 421.5,488.5C 422.13,480.593 421.13,472.926 418.5,465.5C 417.624,464.749 416.624,464.249 415.5,464C 411.848,463.501 408.182,463.335 404.5,463.5C 404.743,449.475 404.409,435.475 403.5,421.5C 407.038,421.215 408.871,422.882 409,426.5C 416.015,433.39 424.515,436.89 434.5,437C 435.059,446.054 439.725,451.554 448.5,453.5C 443.524,430.406 435.858,408.24 425.5,387C 418.362,382.447 410.695,380.281 402.5,380.5C 399.186,384.948 395.52,389.115 391.5,393C 387.975,395.088 384.642,394.921 381.5,392.5C 372.566,477.794 384.399,560.127 417,639.5C 420.795,646.929 424.962,654.095 429.5,661C 429.355,661.772 429.022,662.439 428.5,663C 426.833,663.667 425.167,663.667 423.5,663C 410.626,643.077 401.126,621.577 395,598.5C 386.072,567.602 379.072,536.268 374,504.5C 370.869,500.367 367.369,496.534 363.5,493C 353.412,495.708 347.912,491.875 347,481.5C 340.662,486.053 334.996,485.386 330,479.5C 328.699,471.117 332.366,466.451 341,465.5C 343.145,465.396 344.979,466.063 346.5,467.5C 347.406,465.614 348.406,463.78 349.5,462C 347.36,461.027 345.693,459.527 344.5,457.5C 337.025,458.014 331.525,455.014 328,448.5C 327.567,441.756 330.734,437.756 337.5,436.5C 341.768,437.275 345.101,439.441 347.5,443C 350.833,443.333 354.167,443.667 357.5,444C 363.098,447.986 363.765,452.653 359.5,458C 367.381,463.121 368.381,469.287 362.5,476.5C 364.183,480.236 365.016,484.236 365,488.5C 368.37,491.535 371.37,494.868 374,498.5C 372.614,478.55 371.781,458.55 371.5,438.5C 371.585,421.806 372.252,405.139 373.5,388.5C 370.15,388.335 366.817,388.502 363.5,389C 359.244,390.807 354.911,392.307 350.5,393.5C 352.246,383.49 348.579,376.323 339.5,372C 334.625,370.198 329.625,368.865 324.5,368C 323.044,367.577 322.544,366.744 323,365.5C 334.79,358.69 346.623,352.024 358.5,345.5C 362.614,347.779 365.947,350.946 368.5,355C 370.345,356.128 372.345,356.628 374.5,356.5C 375.387,340.127 377.72,323.961 381.5,308C 379.907,304.738 377.907,301.738 375.5,299C 368.812,298.105 362.145,297.438 355.5,297C 348.76,303.07 342.76,309.737 337.5,317C 332.54,314.717 327.207,313.217 321.5,312.5C 315.292,313.435 309.625,315.768 304.5,319.5C 300.96,314.795 296.627,310.962 291.5,308C 286.008,305.755 280.508,303.588 275,301.5C 278.123,297.36 281.79,293.36 286,289.5C 288.958,285.084 291.792,280.584 294.5,276C 301.234,277.556 308.067,279.056 315,280.5C 317.732,280.385 320.232,279.552 322.5,278C 324.709,275.622 327.042,273.455 329.5,271.5C 331.029,271.529 332.196,272.196 333,273.5C 337.23,280.12 342.063,286.287 347.5,292C 355.716,294.487 364.049,295.321 372.5,294.5C 368.046,289.091 363.713,283.591 359.5,278C 353.16,279.683 347.66,278.183 343,273.5C 340.856,269.518 341.022,265.685 343.5,262C 338.289,263.549 333.789,262.382 330,258.5C 328.807,253.848 329.64,249.681 332.5,246C 326.12,237.869 317.786,235.202 307.5,238C 301.564,240.14 295.564,241.973 289.5,243.5C 291.068,235.386 290.568,227.386 288,219.5C 286.442,217.232 284.276,216.066 281.5,216C 278.183,215.502 274.85,215.335 271.5,215.5C 271.918,212.561 273.418,210.228 276,208.5C 276.167,205.833 276.333,203.167 276.5,200.5C 275.257,188.707 273.257,177.041 270.5,165.5C 270.833,164.833 271.167,164.167 271.5,163.5C 274.317,165.817 276.984,168.317 279.5,171C 282.215,172.908 285.215,174.241 288.5,175C 297.519,175.642 306.519,175.475 315.5,174.5C 314.315,189.81 321.315,198.31 336.5,200C 337.022,200.561 337.355,201.228 337.5,202C 334.455,215.392 333.788,228.892 335.5,242.5C 343.79,242.291 347.957,246.291 348,254.5C 350.667,256.5 353.333,258.5 356,260.5C 355.875,254.867 357.709,250.034 361.5,246C 369.261,246.764 373.261,251.097 373.5,259C 374.374,266.791 371.04,271.291 363.5,272.5C 370.191,280.69 376.691,289.023 383,297.5C 387.116,280.601 392.116,263.934 398,247.5C 398.567,238.142 398.234,228.809 397,219.5C 396.46,215.115 395.293,210.949 393.5,207C 385.372,205.291 377.206,204.125 369,203.5C 369.292,200.479 370.625,197.812 373,195.5C 376.454,188.978 376.121,182.644 372,176.5C 369.778,174.615 367.944,172.449 366.5,170C 370.846,167.881 374.679,165.047 378,161.5C 381.751,153.914 384.084,145.914 385,137.5C 386,136.167 387,136.167 388,137.5C 388.014,143.695 389.014,149.695 391,155.5C 394.298,159.165 398.465,160.498 403.5,159.5C 401.602,165.341 401.102,171.341 402,177.5C 405.182,180.596 409.016,182.429 413.5,183C 414.022,183.561 414.355,184.228 414.5,185C 410.729,193.443 405.395,200.776 398.5,207C 399.191,208.067 399.691,209.234 400,210.5C 400.769,218.491 401.435,226.491 402,234.5C 409.618,215.5 418.118,196.834 427.5,178.5C 425.866,173.699 422.699,170.366 418,168.5C 415.66,164.445 414.993,160.111 416,155.5C 420.667,150.167 425.333,150.167 430,155.5C 431.166,161.222 430.333,166.556 427.5,171.5C 427.719,172.938 428.219,174.271 429,175.5C 434.084,166.997 439.417,158.664 445,150.5C 445.667,147.5 445.667,144.5 445,141.5C 437.571,136.31 434.905,129.31 437,120.5C 444.005,113.694 450.338,114.361 456,122.5C 457.687,130.458 455.02,136.458 448,140.5C 447.333,142.167 447.333,143.833 448,145.5C 455.308,135.359 462.808,125.359 470.5,115.5C 466.042,109.664 466.709,104.497 472.5,100C 474.769,99.2419 476.936,99.4086 479,100.5C 481.611,93.462 486.444,90.462 493.5,91.5C 494.843,86.9745 497.51,83.4745 501.5,81C 497.958,71.5689 501.125,66.4023 511,65.5C 518.078,68.5789 520.411,73.9123 518,81.5C 517.333,83.5 516,84.8333 514,85.5C 514.334,91.5112 512.168,96.3446 507.5,100C 504.571,100.777 501.737,100.61 499,99.5C 498.482,106.029 494.982,110.196 488.5,112C 486.167,112.333 483.833,112.667 481.5,113C 478.617,116.376 475.951,119.876 473.5,123.5 Z"/></g>
<g><path style="opacity:1" fill="#1b1b1b" d="M 484.5,124.5 C 482.901,124.768 481.568,124.434 480.5,123.5C 482.857,123.663 485.19,123.497 487.5,123C 489.886,119.052 492.386,115.219 495,111.5C 500.47,113.503 504.97,112.17 508.5,107.5C 513.05,110.558 518.05,112.558 523.5,113.5C 520.829,117.348 518.829,121.515 517.5,126C 513.833,126.333 510.167,126.667 506.5,127C 504.707,128.78 503.04,130.613 501.5,132.5C 498.646,129.812 495.646,127.312 492.5,125C 489.854,124.503 487.187,124.336 484.5,124.5 Z"/></g>
<g><path style="opacity:1" fill="#f2f2f2" d="M 508.5,109.5 C 512.329,112.277 516.662,113.777 521.5,114C 519.136,117.559 517.469,121.392 516.5,125.5C 512.818,125.335 509.152,125.501 505.5,126C 504.096,127.337 502.596,128.503 501,129.5C 498.719,128.224 496.719,126.557 495,124.5C 494.544,123.256 495.044,122.423 496.5,122C 501.217,120.56 505.883,119.06 510.5,117.5C 510,117.167 509.5,116.833 509,116.5C 502.91,118.648 496.743,120.148 490.5,121C 491.833,118.667 493.167,116.333 494.5,114C 500.179,115.567 504.846,114.067 508.5,109.5 Z"/></g>
<g><path style="opacity:1" fill="#5a5a5a" d="M 473.5,123.5 C 475.833,123.5 478.167,123.5 480.5,123.5C 481.568,124.434 482.901,124.768 484.5,124.5C 482.393,125.468 480.059,125.802 477.5,125.5C 475.49,124.983 474.157,124.316 473.5,123.5 Z"/></g>
<g><path style="opacity:1" fill="#f7f7f7" d="M 384.5,154.5 C 387.861,159.365 392.528,162.532 398.5,164C 397.127,169.505 397.293,175.005 399,180.5C 402.059,183.302 405.559,185.302 409.5,186.5C 406.058,192.377 401.891,197.71 397,202.5C 395.701,194.961 393.034,187.961 389,181.5C 391.589,188.184 393.422,195.184 394.5,202.5C 387.917,201.219 381.25,200.385 374.5,200C 380.407,189.8 379.741,180.133 372.5,171C 379.714,167.938 383.714,162.438 384.5,154.5 Z"/></g>
<g><path style="opacity:1" fill="#fbfbfb" d="M 331.5,233.5 C 331.768,235.099 331.434,236.432 330.5,237.5C 322.141,221.131 310.475,207.465 295.5,196.5C 294.479,197.002 294.312,197.668 295,198.5C 308.294,208.958 319.127,221.458 327.5,236C 316.144,233.253 305.144,234.42 294.5,239.5C 294.407,231.078 292.573,223.078 289,215.5C 285.051,213.707 280.885,212.54 276.5,212C 278.814,208.581 279.814,204.748 279.5,200.5C 277.668,190.507 276.168,180.507 275,170.5C 279.294,174.714 284.461,177.214 290.5,178C 297.844,178.452 305.177,178.285 312.5,177.5C 312.803,192.131 320.136,200.464 334.5,202.5C 331.929,212.657 330.929,222.991 331.5,233.5 Z"/></g>
<g><path style="opacity:1" fill="#626262" d="M 331.5,233.5 C 332.629,235.628 332.796,237.961 332,240.5C 331.487,239.473 330.987,238.473 330.5,237.5C 331.434,236.432 331.768,235.099 331.5,233.5 Z"/></g>
<g><path style="opacity:1" fill="#f9f9f9" d="M 458.5,247.5 C 459.043,247.56 459.376,247.893 459.5,248.5C 457.208,254.177 456.708,259.844 458,265.5C 461.465,269.967 465.298,274.133 469.5,278C 463.021,282.481 457.188,287.648 452,293.5C 450.888,300.642 450.054,307.808 449.5,315C 443.793,317.568 437.96,319.735 432,321.5C 431.597,309.543 435.097,298.876 442.5,289.5C 440.741,288.246 439.241,288.579 438,290.5C 433.3,298.314 429.967,306.647 428,315.5C 422.957,307.913 417.79,300.413 412.5,293C 417.875,290.562 423.042,287.729 428,284.5C 429.352,277.265 430.185,269.931 430.5,262.5C 433.867,262.457 437.201,262.79 440.5,263.5C 442.299,263.423 443.966,262.923 445.5,262C 450.411,257.594 454.745,252.76 458.5,247.5 Z"/></g>
<g><path style="opacity:1" fill="#f8f8f8" d="M 343.5,292.5 C 341.393,293.468 339.059,293.802 336.5,293.5C 328.804,293.169 321.138,293.503 313.5,294.5C 325.952,294.95 338.286,296.117 350.5,298C 344.918,303.077 339.918,308.577 335.5,314.5C 329.939,309.884 323.606,308.384 316.5,310C 312.727,311.97 308.894,313.803 305,315.5C 301.541,312.001 297.707,308.834 293.5,306C 288.799,303.992 284.133,301.992 279.5,300C 286.592,293.586 292.592,286.419 297.5,278.5C 304.782,282.125 312.449,283.292 320.5,282C 324.241,280.262 327.408,277.762 330,274.5C 334.748,280.401 339.248,286.401 343.5,292.5 Z"/></g>
<g><path style="opacity:1" fill="#f9f9f9" d="M 519.5,289.5 C 520.239,289.369 520.906,289.536 521.5,290C 519.509,292.483 518.509,295.316 518.5,298.5C 520.01,303.153 521.177,307.82 522,312.5C 517.667,315.167 513.333,317.833 509,320.5C 508.667,323.167 508.333,325.833 508,328.5C 507.5,329 507,329.5 506.5,330C 495.196,331.46 483.863,332.96 472.5,334.5C 472.5,326.5 472.5,318.5 472.5,310.5C 477.08,310.887 481.414,310.053 485.5,308C 489.445,304.054 492.611,299.554 495,294.5C 496.5,296 498,297.5 499.5,299C 501.5,299.667 503.5,299.667 505.5,299C 510.752,296.552 515.419,293.386 519.5,289.5 Z"/></g>
<g><path style="opacity:1" fill="#939393" d="M 343.5,292.5 C 344.289,292.783 344.956,293.283 345.5,294C 342.304,294.805 339.304,294.638 336.5,293.5C 339.059,293.802 341.393,293.468 343.5,292.5 Z"/></g>
<g><path style="opacity:1" fill="#252525" d="M 510.5,307.5 C 511.873,307.343 513.207,307.51 514.5,308C 504.927,312.032 496.094,317.198 488,323.5C 487.493,322.004 487.993,320.837 489.5,320C 496.563,315.807 503.563,311.641 510.5,307.5 Z"/></g>
<g><path style="opacity:1" fill="#f8f8f8" d="M 386.5,315.5 C 394.392,326.262 401.558,337.596 408,349.5C 413.94,360.705 419.273,372.038 424,383.5C 416.07,380.524 408.236,377.358 400.5,374C 396.721,366.943 393.054,359.776 389.5,352.5C 386.38,351.451 383.547,352.118 381,354.5C 381.984,341.406 383.817,328.406 386.5,315.5 Z"/></g>
<g><path style="opacity:1" fill="#f7f7f7" d="M 514.5,336.5 C 517.003,338.833 519.669,340.999 522.5,343C 527.535,343.418 532.535,343.418 537.5,343C 530.578,349.918 524.411,357.418 519,365.5C 517.684,368.688 517.184,372.022 517.5,375.5C 512.184,374.534 506.851,374.034 501.5,374C 498.658,377.672 495.658,381.172 492.5,384.5C 487.45,380.115 482.116,376.115 476.5,372.5C 483.329,367.249 490.662,362.749 498.5,359C 490.112,361.194 482.445,365.027 475.5,370.5C 475.167,369.833 474.833,369.167 474.5,368.5C 475.488,365.218 476.154,361.885 476.5,358.5C 478.5,358.5 480.5,358.5 482.5,358.5C 482.911,355.447 483.577,352.447 484.5,349.5C 492.22,348.899 499.886,348.066 507.5,347C 511.219,344.388 513.552,340.888 514.5,336.5 Z"/></g>
<g><path style="opacity:1" fill="#fafafa" d="M 355.5,349.5 C 357.655,349.372 359.655,349.872 361.5,351C 363.853,354.349 366.52,357.349 369.5,360C 371.5,360.667 373.5,360.667 375.5,360C 379.641,358.25 383.641,356.584 387.5,355C 390.4,361.192 393.4,367.359 396.5,373.5C 393.758,374.218 391.091,373.718 388.5,372C 381.566,369.975 374.566,369.475 367.5,370.5C 367.667,370.833 367.833,371.167 368,371.5C 373.39,372.767 378.89,373.601 384.5,374C 389.905,375.469 395.239,377.135 400.5,379C 397.536,382.966 394.203,386.633 390.5,390C 389.271,390.781 387.938,391.281 386.5,391.5C 382.56,390.196 378.893,388.363 375.5,386C 368.17,385.081 361.17,386.248 354.5,389.5C 353.741,382.481 350.741,376.648 345.5,372C 340.404,369.081 335.07,366.747 329.5,365C 338.395,360.059 347.062,354.892 355.5,349.5 Z"/></g>
<g><path style="opacity:1" fill="#eaeaea" d="M 457.5,364.5 C 459.383,374.407 457.55,383.741 452,392.5C 451.333,388.833 451.333,385.167 452,381.5C 453.94,375.846 455.774,370.18 457.5,364.5 Z"/></g>
<g><path style="opacity:1" fill="#939393" d="M 462.5,366.5 C 463.167,369.167 463.833,371.833 464.5,374.5C 464.217,375.289 463.717,375.956 463,376.5C 462.502,373.183 462.335,369.85 462.5,366.5 Z"/></g>
<g><path style="opacity:1" fill="#f9f9f9" d="M 455.5,483.5 C 455.737,484.791 455.404,485.791 454.5,486.5C 451.111,476.117 444.777,468.117 435.5,462.5C 439.47,466.676 443.637,471.343 448,476.5C 451.511,482.166 453.845,488.166 455,494.5C 451.597,490.818 448.097,487.318 444.5,484C 438.167,483.766 431.834,483.932 425.5,484.5C 426.232,477.156 425.066,470.156 422,463.5C 418.265,459.904 413.765,458.571 408.5,459.5C 408.334,450.494 408.5,441.494 409,432.5C 415.442,436.907 422.608,439.407 430.5,440C 433.397,450.296 440.064,456.796 450.5,459.5C 452.679,467.394 454.346,475.394 455.5,483.5 Z"/></g>
<g><path style="opacity:1" fill="#7e7e7e" d="M 455.5,483.5 C 456.82,486.28 457.32,489.28 457,492.5C 456.062,490.512 455.228,488.512 454.5,486.5C 455.404,485.791 455.737,484.791 455.5,483.5 Z"/></g>
<g><path style="opacity:1" fill="#f9f9f9" d="M 541.5,496.5 C 543.028,497.802 544.028,499.469 544.5,501.5C 545.34,508.217 546.173,514.884 547,521.5C 542.593,522.81 538.26,524.476 534,526.5C 533.121,533.58 531.788,540.58 530,547.5C 528.933,548.191 527.766,548.691 526.5,549C 521.511,549.499 516.511,549.666 511.5,549.5C 508.615,549.806 505.948,549.473 503.5,548.5C 509.23,540.222 515.564,532.388 522.5,525C 522.333,524.5 522.167,524 522,523.5C 514.248,531.248 507.248,539.581 501,548.5C 499.972,540.135 498.805,531.802 497.5,523.5C 502.818,523.087 507.818,521.587 512.5,519C 515.833,513 519.167,507 522.5,501C 528.583,498.441 534.916,496.941 541.5,496.5 Z"/></g>
<g><path style="opacity:1" fill="#686868" d="M 541.5,496.5 C 542.209,495.596 543.209,495.263 544.5,495.5C 544.5,497.5 544.5,499.5 544.5,501.5C 544.028,499.469 543.028,497.802 541.5,496.5 Z"/></g>
<g><path style="opacity:1" fill="#6a6a6a" d="M 469.5,503.5 C 468.791,504.404 467.791,504.737 466.5,504.5C 466.5,505.833 466.5,507.167 466.5,508.5C 465.549,507.081 465.216,505.415 465.5,503.5C 466.833,503.5 468.167,503.5 469.5,503.5 Z"/></g>
<g><path style="opacity:1" fill="#8d8d8d" d="M 503.5,548.5 C 505.948,549.473 508.615,549.806 511.5,549.5C 508.36,550.641 505.027,550.808 501.5,550C 502.044,549.283 502.711,548.783 503.5,548.5 Z"/></g>
<g><path style="opacity:1" fill="#adadad" d="M 462.5,545.5 C 463.49,551.645 463.823,557.978 463.5,564.5C 462.5,564.5 461.5,564.5 460.5,564.5C 462.393,558.455 463.06,552.121 462.5,545.5 Z"/></g>
</svg>
