<?xml version="1.0" encoding="UTF-8"?>
<!DOCTYPE svg PUBLIC "-//W3C//DTD SVG 1.1//EN" "http://www.w3.org/Graphics/SVG/1.1/DTD/svg11.dtd">
<svg xmlns="http://www.w3.org/2000/svg" version="1.1" width="103px" height="277px" style="shape-rendering:geometricPrecision; text-rendering:geometricPrecision; image-rendering:optimizeQuality; fill-rule:evenodd; clip-rule:evenodd" xmlns:xlink="http://www.w3.org/1999/xlink">
<g><path style="opacity:1" fill="#fefefe" d="M -0.5,-0.5 C 33.8333,-0.5 68.1667,-0.5 102.5,-0.5C 102.5,91.8333 102.5,184.167 102.5,276.5C 68.1667,276.5 33.8333,276.5 -0.5,276.5C -0.5,184.167 -0.5,91.8333 -0.5,-0.5 Z"/></g>
<g><path style="opacity:1" fill="#101010" d="M 32.5,9.5 C 36.0902,10.5878 38.5902,12.9212 40,16.5C 41.769,23.3698 44.1023,30.0365 47,36.5C 53.5486,49.5964 59.5486,62.9297 65,76.5C 69.5071,91.7026 73.5071,107.036 77,122.5C 79.5739,143.137 77.2406,163.137 70,182.5C 66.3088,204.241 60.9755,225.574 54,246.5C 50.8295,249.921 48.8295,253.921 48,258.5C 47.6667,234.833 47.3333,211.167 47,187.5C 44.3338,176.174 41.6671,164.841 39,153.5C 36.3864,133.001 33.0531,112.667 29,92.5C 27.8317,65.423 28.4983,38.423 31,11.5C 31.7172,10.9558 32.2172,10.2891 32.5,9.5 Z"/></g>
<g><path style="opacity:1" fill="#fafafa" d="M 54.5,229.5 C 53.8333,216.167 53.1667,202.833 52.5,189.5C 49.2304,175.524 46.0637,161.524 43,147.5C 42.6667,142.833 42.3333,138.167 42,133.5C 39.3368,119.511 36.6701,105.511 34,91.5C 33.0425,68.7829 33.3758,46.1163 35,23.5C 35.6667,22.1667 36.3333,22.1667 37,23.5C 45,42.1667 53,60.8333 61,79.5C 64.666,94.1641 68.3327,108.831 72,123.5C 74.2769,142.392 72.2769,160.725 66,178.5C 64.0103,187.438 62.3437,196.438 61,205.5C 58.5351,213.427 56.3684,221.427 54.5,229.5 Z"/></g>
<g><path style="opacity:1" fill="#575757" d="M 52.5,189.5 C 53.1667,202.833 53.8333,216.167 54.5,229.5C 54.1077,231.179 53.6077,232.846 53,234.5C 52.5001,219.504 52.3334,204.504 52.5,189.5 Z"/></g>
</svg>
