<?xml version="1.0" encoding="UTF-8"?>
<!DOCTYPE svg PUBLIC "-//W3C//DTD SVG 1.1//EN" "http://www.w3.org/Graphics/SVG/1.1/DTD/svg11.dtd">
<svg xmlns="http://www.w3.org/2000/svg" version="1.1" width="393px" height="686px" style="shape-rendering:geometricPrecision; text-rendering:geometricPrecision; image-rendering:optimizeQuality; fill-rule:evenodd; clip-rule:evenodd" xmlns:xlink="http://www.w3.org/1999/xlink">
<g><path style="opacity:1" fill="#fefefe" d="M -0.5,-0.5 C 130.5,-0.5 261.5,-0.5 392.5,-0.5C 392.5,228.167 392.5,456.833 392.5,685.5C 261.5,685.5 130.5,685.5 -0.5,685.5C -0.5,456.833 -0.5,228.167 -0.5,-0.5 Z"/></g>
<g><path style="opacity:1" fill="#0f0f0f" d="M 280.5,528.5 C 280.781,532.188 281.281,535.855 282,539.5C 282.827,525.66 282.661,511.994 281.5,498.5C 278.039,483.906 274.872,469.239 272,454.5C 270.017,435.969 267.017,417.636 263,399.5C 261.832,372.423 262.498,345.423 265,318.5C 267.374,316.06 269.541,316.394 271.5,319.5C 280.368,340.909 289.535,362.242 299,383.5C 303.507,398.703 307.507,414.036 311,429.5C 313.574,450.137 311.241,470.137 304,489.5C 300.146,513.92 293.646,537.587 284.5,560.5C 286.765,565.273 289.265,569.939 292,574.5C 308.762,596.925 326.595,618.425 345.5,639C 351.333,643.5 357.167,648 363,652.5C 363.601,653.965 363.101,654.965 361.5,655.5C 354.356,650.191 347.356,644.691 340.5,639C 331.661,630.16 323.161,620.993 315,611.5C 303.244,594.989 291.244,578.656 279,562.5C 271.572,551.411 264.572,540.078 258,528.5C 255.262,524.078 252.929,519.412 251,514.5C 246.65,509.813 242.65,504.813 239,499.5C 234.015,490.198 229.015,480.865 224,471.5C 223.214,466.78 222.214,462.114 221,457.5C 214.468,444.886 208.135,432.219 202,419.5C 191.809,393.262 181.809,366.929 172,340.5C 160.589,331.878 149.089,323.378 137.5,315C 134.828,307.999 129.828,303.332 122.5,301C 110.408,289.442 101.075,276.109 94.5,261C 92.5,260.333 90.5,260.333 88.5,261C 85.9823,263.756 82.9823,265.756 79.5,267C 73.1667,267.667 66.8333,267.667 60.5,267C 54.7114,263.545 49.878,259.045 46,253.5C 45.9071,250.993 45.0738,248.826 43.5,247C 37.5195,245.94 31.5195,244.94 25.5,244C 15.6504,239.182 8.15041,232.016 3,222.5C 1.14748,209.712 5.64748,199.879 16.5,193C 19.6277,192.125 22.6277,190.958 25.5,189.5C 26,188.5 26.5,187.5 27,186.5C 27.0737,179.394 27.7403,172.394 29,165.5C 33.1667,162 37.3333,158.5 41.5,155C 46.7455,153.494 52.0788,153.161 57.5,154C 60.1735,155.704 63.0068,156.871 66,157.5C 69.4388,156.699 72.6054,155.199 75.5,153C 89.1137,149.981 98.6137,154.815 104,167.5C 104.503,172.19 105.17,176.857 106,181.5C 120.793,187.29 130.293,197.79 134.5,213C 132.585,221.737 128.585,229.403 122.5,236C 116.312,240.729 109.312,243.063 101.5,243C 96.7773,246.254 95.2773,250.754 97,256.5C 102.79,269.962 110.624,282.129 120.5,293C 127.833,299.667 135.167,306.333 142.5,313C 149.115,317.281 155.448,321.947 161.5,327C 165.388,329.555 167.721,328.555 168.5,324C 164.716,314.876 162.216,305.376 161,295.5C 160.581,294.328 159.915,293.328 159,292.5C 155.733,275.951 153.066,259.285 151,242.5C 148.713,217.774 149.046,193.107 152,168.5C 154.015,166.522 153.848,164.688 151.5,163C 142.999,160.083 134.999,156.083 127.5,151C 124.035,148.537 120.869,145.704 118,142.5C 114.468,135.905 112.135,128.905 111,121.5C 110,119.833 109,118.167 108,116.5C 107.764,104.092 110.097,92.0917 115,80.5C 117.293,76.2424 120.293,72.5758 124,69.5C 125.902,65.2608 128.235,61.2608 131,57.5C 131.62,48.2932 133.953,39.6265 138,31.5C 144.044,23.7336 151.211,17.2336 159.5,12C 173.236,7.53293 187.236,6.53293 201.5,9C 207.985,11.4086 213.651,15.0753 218.5,20C 227.289,21.8108 235.122,25.6442 242,31.5C 247.335,40.332 249.168,49.832 247.5,60C 247.494,62.2998 247.994,64.4664 249,66.5C 261.755,67.0416 270.088,73.3749 274,85.5C 274.884,89.1133 275.384,92.78 275.5,96.5C 274.85,102.28 273.684,107.947 272,113.5C 266.131,125.96 261.131,138.627 257,151.5C 253.754,155.477 249.587,157.977 244.5,159C 241.443,161.723 238.11,164.056 234.5,166C 227.469,166.761 220.469,166.595 213.5,165.5C 207.947,166.943 202.947,169.443 198.5,173C 189.943,175.897 181.276,176.23 172.5,174C 168.039,169.762 162.872,168.262 157,169.5C 154.696,179.716 153.196,190.05 152.5,200.5C 153.866,220.488 155.033,240.488 156,260.5C 157.275,262.717 158.275,265.051 159,267.5C 160.241,278.126 162.574,288.46 166,298.5C 168.423,311.524 172.089,324.19 177,336.5C 188.527,347.605 199.86,358.939 211,370.5C 230.456,394.428 247.123,420.095 261,447.5C 263.677,456.181 266.343,464.847 269,473.5C 269.615,475.116 270.615,476.449 272,477.5C 273.477,489.038 275.811,500.371 279,511.5C 279.445,517.18 279.945,522.846 280.5,528.5 Z"/></g>
<g><path style="opacity:1" fill="#fcfcfc" d="M 176.5,11.5 C 183.841,11.3337 191.174,11.5003 198.5,12C 202.765,13.6186 206.431,15.9519 209.5,19C 208.224,21.2806 206.557,23.2806 204.5,25C 196.429,28.5827 188.762,32.9161 181.5,38C 173.837,47.4709 172.67,57.6376 178,68.5C 181.913,75.5764 186.413,82.2431 191.5,88.5C 190.975,89.1924 190.308,89.6924 189.5,90C 180.844,91.0937 172.177,92.0937 163.5,93C 160.107,95.2981 157.274,98.1314 155,101.5C 152.447,100.777 150.28,99.4438 148.5,97.5C 145.162,91.4875 141.328,85.8209 137,80.5C 133.226,65.2187 134.226,50.2187 140,35.5C 141.4,32.0976 143.567,29.2643 146.5,27C 151.789,23.3799 156.789,19.3799 161.5,15C 166.624,13.912 171.624,12.7454 176.5,11.5 Z"/></g>
<g><path style="opacity:1" fill="#fcfcfc" d="M 218.5,24.5 C 233.599,26.7668 242.265,35.6002 244.5,51C 243.139,55.3749 242.306,59.8749 242,64.5C 238.707,67.7869 234.873,70.2869 230.5,72C 223.192,80.9741 214.192,87.4741 203.5,91.5C 199.25,88.7575 195.417,85.4241 192,81.5C 187.403,74.6348 183.07,67.6348 179,60.5C 179.25,54.4045 180.75,48.5711 183.5,43C 190.34,39.7498 196.673,35.7498 202.5,31C 207.607,27.9354 212.94,25.7688 218.5,24.5 Z"/></g>
<g><path style="opacity:1" fill="#fbfbfb" d="M 124.5,72.5 C 127.325,72.0807 129.491,73.0807 131,75.5C 131.534,79.7684 132.867,83.7684 135,87.5C 139.712,92.5434 144.045,97.8767 148,103.5C 146.05,114.23 144.884,125.23 144.5,136.5C 144.667,138.5 144.833,140.5 145,142.5C 148.159,146.303 148.992,150.469 147.5,155C 145.833,155.667 144.167,155.667 142.5,155C 139.671,152.173 136.337,150.173 132.5,149C 129.018,145.188 125.185,141.688 121,138.5C 117.142,133.172 115.475,127.172 116,120.5C 115,119.5 114,118.5 113,117.5C 112.333,110.5 112.333,103.5 113,96.5C 116.059,88.0513 119.892,80.0513 124.5,72.5 Z"/></g>
<g><path style="opacity:1" fill="#fdfdfd" d="M 248.5,71.5 C 265.169,72.68 272.669,81.68 271,98.5C 269.667,103.828 268.334,109.162 267,114.5C 265.44,118.411 263.44,122.078 261,125.5C 259.136,132.634 257.136,139.634 255,146.5C 252.749,151.369 248.915,153.869 243.5,154C 239.656,156.422 235.99,159.089 232.5,162C 227.13,161.719 221.797,161.719 216.5,162C 212.659,158.492 209.159,154.659 206,150.5C 206.742,140.644 207.408,130.644 208,120.5C 210.758,117.664 213.758,114.997 217,112.5C 217.842,109.311 219.175,106.311 221,103.5C 221.179,98.9286 220.512,94.5953 219,90.5C 224.634,84.6786 230.134,78.8453 235.5,73C 238.869,72.3374 242.203,72.5041 245.5,73.5C 247.038,73.5466 248.038,72.8799 248.5,71.5 Z"/></g>
<g><path style="opacity:1" fill="#fcfcfc" d="M 179.5,94.5 C 185.049,94.0871 190.382,94.9204 195.5,97C 196.826,99.1584 198.493,100.992 200.5,102.5C 202.369,99.948 204.369,97.448 206.5,95C 216.65,95.1336 218.816,99.3002 213,107.5C 210.552,110.545 207.719,111.045 204.5,109C 203.274,107.365 201.941,105.865 200.5,104.5C 200.167,105.333 199.833,106.167 199.5,107C 200.554,111.104 201.887,115.104 203.5,119C 202.539,121.59 201.872,124.257 201.5,127C 202.229,139.253 203.063,151.42 204,163.5C 196.907,169.528 188.741,171.695 179.5,170C 174.294,167.753 168.961,165.753 163.5,164C 160.028,158.894 156.194,154.06 152,149.5C 149.044,141.682 148.877,133.849 151.5,126C 150.204,123.266 149.704,120.433 150,117.5C 154.699,110.613 159.533,103.78 164.5,97C 169.706,96.5633 174.706,95.73 179.5,94.5 Z"/></g>
<g><path style="opacity:1" fill="#fbfbfb" d="M 78.5,156.5 C 86.0386,154.851 92.2052,156.851 97,162.5C 100.324,167.324 101.324,172.657 100,178.5C 97.9211,182.194 96.5878,186.194 96,190.5C 91.8654,199.142 85.3654,201.476 76.5,197.5C 68.1391,201.977 63.1391,199.477 61.5,190C 62.4215,187.417 63.7549,185.083 65.5,183C 63.6843,178.659 63.1843,174.159 64,169.5C 65.3189,167.513 67.1523,166.346 69.5,166C 72.0291,162.306 75.0291,159.14 78.5,156.5 Z"/></g>
<g><path style="opacity:1" fill="#fbfbfb" d="M 42.5,157.5 C 47.8437,157.334 53.1771,157.501 58.5,158C 61.4912,160.141 62.6579,162.975 62,166.5C 55.553,169.808 54.7197,174.308 59.5,180C 58.1195,182.006 56.7862,184.006 55.5,186C 55.9212,188.185 56.4212,190.351 57,192.5C 58.7571,193.119 59.9238,194.286 60.5,196C 56.7787,204.55 51.1121,205.883 43.5,200C 38.7844,194.732 34.951,188.899 32,182.5C 31.3333,177.833 31.3333,173.167 32,168.5C 35.2403,164.489 38.7403,160.823 42.5,157.5 Z"/></g>
<g><path style="opacity:1" fill="#fbfbfb" d="M 102.5,187.5 C 105.187,187.336 107.854,187.503 110.5,188C 111.987,190.737 114.321,192.403 117.5,193C 123.946,198.391 127.946,205.225 129.5,213.5C 127.61,217.249 126.443,221.249 126,225.5C 123.725,227.866 121.559,230.366 119.5,233C 115.285,235.524 110.785,237.357 106,238.5C 103.966,238.646 102.299,237.98 101,236.5C 99.3752,230.037 97.5418,223.704 95.5,217.5C 93.5332,214.554 91.1999,214.054 88.5,216C 82.7076,217.871 79.0409,215.871 77.5,210C 77.6448,209.228 77.9781,208.561 78.5,208C 82.1667,207.667 85.8333,207.333 89.5,207C 94.0553,200.618 98.3886,194.118 102.5,187.5 Z"/></g>
<g><path style="opacity:1" fill="#fafafa" d="M 27.5,192.5 C 28.8734,192.343 30.2068,192.51 31.5,193C 36.5,198.667 41.5,204.333 46.5,210C 50.6299,210.672 54.6299,210.172 58.5,208.5C 62.1616,210.263 62.4949,212.763 59.5,216C 57.8333,216.667 56.1667,216.667 54.5,216C 50.2479,211.239 46.4146,211.739 43,217.5C 40.3015,225.449 38.8015,233.616 38.5,242C 25.3893,240.611 14.8893,234.444 7,223.5C 5.22314,211.794 9.05648,202.628 18.5,196C 21.7898,195.275 24.7898,194.108 27.5,192.5 Z"/></g>
<g><path style="opacity:1" fill="#fcfcfc" d="M 74.5,216.5 C 78.8694,219.832 83.8694,221.332 89.5,221C 94.4313,222.684 96.4313,226.184 95.5,231.5C 95.3265,235.541 94.8265,239.541 94,243.5C 91.4545,250.756 87.2879,256.923 81.5,262C 74.9265,264.725 68.2599,265.059 61.5,263C 57.3672,259.869 53.5338,256.369 50,252.5C 49.6667,250.833 49.3333,249.167 49,247.5C 47.6152,246.449 46.6152,245.116 46,243.5C 44.1905,237.942 43.5238,232.275 44,226.5C 45.5,225 47,223.5 48.5,222C 53.5,221.5 58.5,221 63.5,220.5C 66.2534,220.353 68.7534,221.02 71,222.5C 71.0072,219.69 72.1738,217.69 74.5,216.5 Z"/></g>
<g><path style="opacity:1" fill="#fafafa" d="M 288.5,536.5 C 287.833,523.167 287.167,509.833 286.5,496.5C 283.23,482.524 280.064,468.524 277,454.5C 276.667,449.833 276.333,445.167 276,440.5C 273.337,426.511 270.67,412.511 268,398.5C 267.065,375.797 267.398,353.13 269,330.5C 269.667,329.167 270.333,329.167 271,330.5C 279.609,350.051 287.942,369.718 296,389.5C 299.461,403.142 302.795,416.808 306,430.5C 308.277,449.392 306.277,467.725 300,485.5C 298.01,494.438 296.344,503.438 295,512.5C 292.535,520.427 290.368,528.427 288.5,536.5 Z"/></g>
<g><path style="opacity:1" fill="#fbfbfb" d="M 184.5,352.5 C 185.552,352.351 186.552,352.517 187.5,353C 224.358,388.426 251.191,429.926 268,477.5C 273.44,497.141 276.607,517.141 277.5,537.5C 277.476,540.421 277.143,543.254 276.5,546C 275.216,546.684 274.049,546.517 273,545.5C 252.703,511.242 233.703,476.242 216,440.5C 214.259,434.697 212.259,429.03 210,423.5C 206.625,418.048 203.625,412.382 201,406.5C 200.012,403.576 199.346,400.576 199,397.5C 196.036,392.295 193.369,386.962 191,381.5C 189.886,374.363 187.553,367.696 184,361.5C 183.264,358.408 183.431,355.408 184.5,352.5 Z"/></g>
<g><path style="opacity:1" fill="#767676" d="M 281.5,498.5 C 282.661,511.994 282.827,525.66 282,539.5C 281.281,535.855 280.781,532.188 280.5,528.5C 281.494,518.681 281.827,508.681 281.5,498.5 Z"/></g>
<g><path style="opacity:1" fill="#585858" d="M 286.5,496.5 C 287.167,509.833 287.833,523.167 288.5,536.5C 287.852,538.086 287.352,539.753 287,541.5C 286.5,526.504 286.333,511.504 286.5,496.5 Z"/></g>
</svg>
