<?xml version="1.0" encoding="UTF-8"?>
<!DOCTYPE svg PUBLIC "-//W3C//DTD SVG 1.1//EN" "http://www.w3.org/Graphics/SVG/1.1/DTD/svg11.dtd">
<svg xmlns="http://www.w3.org/2000/svg" version="1.1" width="389px" height="667px" style="shape-rendering:geometricPrecision; text-rendering:geometricPrecision; image-rendering:optimizeQuality; fill-rule:evenodd; clip-rule:evenodd" xmlns:xlink="http://www.w3.org/1999/xlink">
<g><path style="opacity:1" fill="#fefefe" d="M -0.5,-0.5 C 129.167,-0.5 258.833,-0.5 388.5,-0.5C 388.5,221.833 388.5,444.167 388.5,666.5C 258.833,666.5 129.167,666.5 -0.5,666.5C -0.5,444.167 -0.5,221.833 -0.5,-0.5 Z"/></g>
<g><path style="opacity:1" fill="#0f0f0f" d="M 178.5,2.5 C 194.07,-0.0325012 207.403,4.13417 218.5,15C 222.377,15.2565 226.043,16.2565 229.5,18C 232.502,20.503 235.835,22.503 239.5,24C 241.359,25.5578 242.859,27.3911 244,29.5C 244.72,33.7158 246.053,37.7158 248,41.5C 248.5,46.0123 248.333,50.5123 247.5,55C 247.494,57.2998 247.994,59.4664 249,61.5C 261.755,62.0416 270.088,68.3749 274,80.5C 274.884,84.1133 275.384,87.78 275.5,91.5C 274.85,97.2801 273.684,102.947 272,108.5C 266.117,120.168 261.451,132.168 258,144.5C 255.168,149.994 250.668,153.161 244.5,154C 241.443,156.723 238.11,159.056 234.5,161C 225.833,161.333 217.167,161.667 208.5,162C 203.185,165.492 197.519,168.158 191.5,170C 182.361,171.766 174.027,170.099 166.5,165C 163.312,163.617 160.146,163.451 157,164.5C 154.696,174.716 153.196,185.05 152.5,195.5C 153.866,215.488 155.033,235.488 156,255.5C 157.275,257.717 158.275,260.051 159,262.5C 160.241,273.126 162.574,283.46 166,293.5C 168.423,306.524 172.089,319.19 177,331.5C 188.527,342.605 199.86,353.939 211,365.5C 230.456,389.428 247.123,415.095 261,442.5C 263.677,451.181 266.343,459.847 269,468.5C 269.615,470.116 270.615,471.449 272,472.5C 273.477,484.038 275.811,495.371 279,506.5C 280.267,520.841 281.601,535.174 283,549.5C 283.838,554.172 285.504,558.505 288,562.5C 304.95,588.117 324.117,611.95 345.5,634C 351.691,639.025 358.024,643.858 364.5,648.5C 365.386,649.325 365.719,650.325 365.5,651.5C 362.484,651.159 359.818,649.993 357.5,648C 342.393,635.227 328.226,621.394 315,606.5C 302.333,589.167 289.667,571.833 277,554.5C 268.067,539.631 259.4,524.631 251,509.5C 239.945,495.103 228.112,481.27 215.5,468C 211.303,464.902 206.637,462.902 201.5,462C 191.758,452.254 181.425,443.254 170.5,435C 157.397,431.435 144.397,427.769 131.5,424C 126.199,421.014 120.865,418.014 115.5,415C 103.479,404.652 90.1461,396.318 75.5,390C 66.9913,381.298 57.6579,373.631 47.5,367C 42.5331,362.942 37.6997,358.775 33,354.5C 32.3333,352.833 32.3333,351.167 33,349.5C 36.6953,347.487 40.362,345.487 44,343.5C 54.7538,345.394 64.9205,348.894 74.5,354C 88.5444,354.291 100.378,359.458 110,369.5C 116.47,380.284 125.97,386.784 138.5,389C 144.825,397.151 152.825,402.818 162.5,406C 163.191,407.067 163.691,408.234 164,409.5C 177.186,420.354 189.353,432.187 200.5,445C 206.123,448.955 211.457,453.288 216.5,458C 218.217,459.559 220.217,460.392 222.5,460.5C 222.622,455.075 220.788,450.408 217,446.5C 208.834,427.635 200.501,408.969 192,390.5C 184.748,372.414 178.081,354.08 172,335.5C 160.589,326.878 149.089,318.378 137.5,310C 118.923,295.121 104.589,277.121 94.5,256C 92.5,255.333 90.5,255.333 88.5,256C 85.9823,258.756 82.9823,260.756 79.5,262C 73.1667,262.667 66.8333,262.667 60.5,262C 54.7114,258.545 49.878,254.045 46,248.5C 45.9071,245.993 45.0738,243.826 43.5,242C 37.5195,240.94 31.5195,239.94 25.5,239C 15.6504,234.182 8.15041,227.016 3,217.5C 1.14748,204.712 5.64748,194.879 16.5,188C 19.6277,187.125 22.6277,185.958 25.5,184.5C 26,183.5 26.5,182.5 27,181.5C 27.0737,174.394 27.7403,167.394 29,160.5C 33.1667,157 37.3333,153.5 41.5,150C 46.7455,148.494 52.0788,148.161 57.5,149C 60.1735,150.704 63.0068,151.871 66,152.5C 69.4388,151.699 72.6054,150.199 75.5,148C 89.1137,144.981 98.6137,149.815 104,162.5C 104.503,167.19 105.17,171.857 106,176.5C 120.793,182.29 130.293,192.79 134.5,208C 132.585,216.737 128.585,224.403 122.5,231C 116.312,235.729 109.312,238.063 101.5,238C 96.7773,241.254 95.2773,245.754 97,251.5C 101.963,262.087 107.963,272.087 115,281.5C 129.959,297.977 146.792,311.977 165.5,323.5C 168.257,321.912 169.09,319.579 168,316.5C 167,314.5 166,312.5 165,310.5C 163.852,303.799 162.519,297.132 161,290.5C 160.581,289.328 159.915,288.328 159,287.5C 157.907,280.179 156.907,272.846 156,265.5C 153.816,260.411 152.483,255.078 152,249.5C 148.799,220.804 148.799,192.138 152,163.5C 154.015,161.522 153.848,159.688 151.5,158C 142.999,155.083 134.999,151.083 127.5,146C 124.035,143.537 120.869,140.704 118,137.5C 114.468,130.905 112.135,123.905 111,116.5C 108.082,112.873 106.916,108.707 107.5,104C 108.974,94.2746 111.474,84.7746 115,75.5C 117.293,71.2424 120.293,67.5758 124,64.5C 125.902,60.2608 128.235,56.2608 131,52.5C 131.303,48.106 131.97,43.7727 133,39.5C 134.507,33.853 136.841,28.5196 140,23.5C 146.207,17.6245 152.707,12.1245 159.5,7C 165.826,4.98732 172.159,3.48732 178.5,2.5 Z"/></g>
<g><path style="opacity:1" fill="#fcfcfc" d="M 174.5,6.5 C 182.507,6.33362 190.507,6.50029 198.5,7C 202.765,8.61861 206.431,10.9519 209.5,14C 208.224,16.2806 206.557,18.2806 204.5,20C 196.985,23.6202 189.652,27.6202 182.5,32C 176.375,38.9874 173.875,47.1541 175,56.5C 177.047,59.9638 178.713,63.6305 180,67.5C 184.027,72.6938 187.86,78.0272 191.5,83.5C 190.975,84.1924 190.308,84.6924 189.5,85C 180.844,86.0937 172.177,87.0937 163.5,88C 160.107,90.2981 157.274,93.1314 155,96.5C 152.447,95.7771 150.28,94.4438 148.5,92.5C 145.162,86.4875 141.328,80.8209 137,75.5C 132.986,59.3892 134.32,43.7225 141,28.5C 147.361,21.7484 154.195,15.5817 161.5,10C 166.008,9.07621 170.342,7.90954 174.5,6.5 Z"/></g>
<g><path style="opacity:1" fill="#fcfcfc" d="M 218.5,19.5 C 233.599,21.7668 242.265,30.6002 244.5,46C 243.139,50.3749 242.306,54.8749 242,59.5C 238.707,62.7869 234.873,65.2869 230.5,67C 223.192,75.9741 214.192,82.4741 203.5,86.5C 199.25,83.7575 195.417,80.4241 192,76.5C 187.403,69.6348 183.07,62.6348 179,55.5C 179.25,49.4045 180.75,43.5711 183.5,38C 190.34,34.7498 196.673,30.7498 202.5,26C 207.607,22.9354 212.94,20.7688 218.5,19.5 Z"/></g>
<g><path style="opacity:1" fill="#fbfbfb" d="M 124.5,67.5 C 127.325,67.0807 129.491,68.0807 131,70.5C 131.534,74.7684 132.867,78.7684 135,82.5C 139.712,87.5434 144.045,92.8767 148,98.5C 146.05,109.23 144.884,120.23 144.5,131.5C 144.667,133.5 144.833,135.5 145,137.5C 148.159,141.303 148.992,145.469 147.5,150C 145.833,150.667 144.167,150.667 142.5,150C 139.671,147.173 136.337,145.173 132.5,144C 129.018,140.188 125.185,136.688 121,133.5C 117.142,128.172 115.475,122.172 116,115.5C 115,114.5 114,113.5 113,112.5C 112.333,105.5 112.333,98.5 113,91.5C 116.03,83.1072 119.863,75.1072 124.5,67.5 Z"/></g>
<g><path style="opacity:1" fill="#fdfdfd" d="M 248.5,66.5 C 265.169,67.68 272.669,76.68 271,93.5C 269.402,102.24 266.736,110.573 263,118.5C 262,119.5 261,120.5 260,121.5C 258.773,128.345 257.106,135.012 255,141.5C 252.749,146.369 248.915,148.869 243.5,149C 239.656,151.422 235.99,154.089 232.5,157C 227.13,156.719 221.797,156.719 216.5,157C 212.659,153.492 209.159,149.659 206,145.5C 206.742,135.644 207.408,125.644 208,115.5C 210.758,112.664 213.758,109.997 217,107.5C 217.842,104.311 219.175,101.311 221,98.5C 221.179,93.9286 220.512,89.5953 219,85.5C 224.634,79.6786 230.134,73.8453 235.5,68C 238.869,67.3374 242.203,67.5041 245.5,68.5C 247.038,68.5466 248.038,67.8799 248.5,66.5 Z"/></g>
<g><path style="opacity:1" fill="#fcfcfc" d="M 179.5,89.5 C 185.049,89.0871 190.382,89.9204 195.5,92C 196.826,94.1584 198.493,95.9918 200.5,97.5C 202.369,94.948 204.369,92.448 206.5,90C 216.65,90.1336 218.816,94.3002 213,102.5C 210.552,105.545 207.719,106.045 204.5,104C 203.274,102.365 201.941,100.865 200.5,99.5C 200.167,100.333 199.833,101.167 199.5,102C 200.554,106.104 201.887,110.104 203.5,114C 202.539,116.59 201.872,119.257 201.5,122C 202.724,127.827 202.724,133.66 201.5,139.5C 201.411,143.067 202.245,146.4 204,149.5C 204.667,152.5 204.667,155.5 204,158.5C 196.907,164.528 188.741,166.695 179.5,165C 174.294,162.753 168.961,160.753 163.5,159C 160.028,153.894 156.194,149.06 152,144.5C 149.044,136.682 148.877,128.849 151.5,121C 150.204,118.266 149.704,115.433 150,112.5C 154.699,105.613 159.533,98.7797 164.5,92C 169.706,91.5633 174.706,90.73 179.5,89.5 Z"/></g>
<g><path style="opacity:1" fill="#fbfbfb" d="M 78.5,151.5 C 86.0386,149.851 92.2052,151.851 97,157.5C 100.324,162.324 101.324,167.657 100,173.5C 97.9211,177.194 96.5878,181.194 96,185.5C 91.9986,193.996 85.6652,196.329 77,192.5C 68.4779,197.032 63.3112,194.532 61.5,185C 62.4215,182.417 63.7549,180.083 65.5,178C 63.6843,173.659 63.1843,169.159 64,164.5C 65.3189,162.513 67.1523,161.346 69.5,161C 72.0291,157.306 75.0291,154.14 78.5,151.5 Z"/></g>
<g><path style="opacity:1" fill="#fbfbfb" d="M 42.5,152.5 C 47.8437,152.334 53.1771,152.501 58.5,153C 61.4912,155.141 62.6579,157.975 62,161.5C 55.553,164.808 54.7197,169.308 59.5,175C 57.9474,177.048 56.6141,179.215 55.5,181.5C 56,183.5 56.5,185.5 57,187.5C 58.7571,188.119 59.9238,189.286 60.5,191C 56.7787,199.55 51.1121,200.883 43.5,195C 38.7844,189.732 34.951,183.899 32,177.5C 31.3333,173.167 31.3333,168.833 32,164.5C 36.0525,160.95 39.5525,156.95 42.5,152.5 Z"/></g>
<g><path style="opacity:1" fill="#fbfbfb" d="M 102.5,182.5 C 105.187,182.336 107.854,182.503 110.5,183C 111.987,185.737 114.321,187.403 117.5,188C 123.946,193.391 127.946,200.225 129.5,208.5C 127.61,212.249 126.443,216.249 126,220.5C 123.725,222.866 121.559,225.366 119.5,228C 115.285,230.524 110.785,232.357 106,233.5C 103.966,233.646 102.299,232.98 101,231.5C 99.3752,225.037 97.5418,218.704 95.5,212.5C 93.5332,209.554 91.1999,209.054 88.5,211C 82.7076,212.871 79.0409,210.871 77.5,205C 77.6448,204.228 77.9781,203.561 78.5,203C 82.1667,202.667 85.8333,202.333 89.5,202C 94.0553,195.618 98.3886,189.118 102.5,182.5 Z"/></g>
<g><path style="opacity:1" fill="#fafafa" d="M 27.5,187.5 C 28.8734,187.343 30.2068,187.51 31.5,188C 36.5,193.667 41.5,199.333 46.5,205C 50.6299,205.672 54.6299,205.172 58.5,203.5C 62.1616,205.263 62.4949,207.763 59.5,211C 57.8333,211.667 56.1667,211.667 54.5,211C 50.2479,206.239 46.4146,206.739 43,212.5C 40.3015,220.449 38.8015,228.616 38.5,237C 25.3893,235.611 14.8893,229.444 7,218.5C 5.80548,211.491 6.80548,204.825 10,198.5C 12.7953,196.707 15.2953,194.54 17.5,192C 21.1932,191.092 24.5266,189.592 27.5,187.5 Z"/></g>
<g><path style="opacity:1" fill="#fcfcfc" d="M 74.5,211.5 C 78.8694,214.832 83.8694,216.332 89.5,216C 94.4313,217.684 96.4313,221.184 95.5,226.5C 95.3265,230.541 94.8265,234.541 94,238.5C 91.4545,245.756 87.2879,251.923 81.5,257C 74.9265,259.725 68.2599,260.059 61.5,258C 57.3672,254.869 53.5338,251.369 50,247.5C 49.6667,245.833 49.3333,244.167 49,242.5C 47.6152,241.449 46.6152,240.116 46,238.5C 44.1905,232.942 43.5238,227.275 44,221.5C 48.203,216.015 53.3697,215.015 59.5,218.5C 61.4048,217.935 63.0715,216.935 64.5,215.5C 65.8745,216.711 67.3745,217.711 69,218.5C 70.6952,216.076 72.5285,213.742 74.5,211.5 Z"/></g>
<g><path style="opacity:1" fill="#fbfbfb" d="M 41.5,347.5 C 47.9371,348.049 54.2705,349.216 60.5,351C 63.1258,353.146 66.1258,354.479 69.5,355C 70.5,356 71.5,357 72.5,358C 76.8333,358.333 81.1667,358.667 85.5,359C 89.8155,361.773 94.4821,363.773 99.5,365C 106.163,372.663 113.163,379.996 120.5,387C 126.281,389.057 131.947,391.39 137.5,394C 140.162,397.495 143.162,400.662 146.5,403.5C 151.326,405.746 155.992,408.246 160.5,411C 165.375,417.542 171.208,423.042 178,427.5C 178.448,430.852 180.282,433.018 183.5,434C 182.975,434.692 182.308,435.192 181.5,435.5C 171.634,428.713 160.634,425.213 148.5,425C 140.5,422 132.5,419 124.5,416C 110.728,403.785 95.3946,394.118 78.5,387C 75.4142,383.243 71.7475,380.243 67.5,378C 65.8639,374.731 63.5306,372.064 60.5,370C 53.1518,365.66 46.1518,360.827 39.5,355.5C 38.3691,353.926 38.2025,352.259 39,350.5C 40.045,349.627 40.8783,348.627 41.5,347.5 Z"/></g>
<g><path style="opacity:1" fill="#fbfbfb" d="M 184.5,347.5 C 185.552,347.351 186.552,347.517 187.5,348C 224.215,383.329 251.048,424.829 268,472.5C 273.44,492.141 276.607,512.141 277.5,532.5C 277.476,535.421 277.143,538.254 276.5,541C 275.216,541.684 274.049,541.517 273,540.5C 252.703,506.242 233.703,471.242 216,435.5C 214.259,429.697 212.259,424.03 210,418.5C 206.625,413.048 203.625,407.382 201,401.5C 200.012,398.576 199.346,395.576 199,392.5C 196.036,387.295 193.369,381.962 191,376.5C 189.886,369.363 187.553,362.696 184,356.5C 183.264,353.408 183.431,350.408 184.5,347.5 Z"/></g>
<g><path style="opacity:1" fill="#e8e8e8" d="M 183.5,436.5 C 188.696,436.209 191.529,438.542 192,443.5C 186.909,444.177 184.076,441.844 183.5,436.5 Z"/></g>
<g><path style="opacity:1" fill="#cfcfcf" d="M 203.5,454.5 C 204.5,454.5 205.5,454.5 206.5,454.5C 206.5,455.5 206.5,456.5 206.5,457.5C 205.5,457.5 204.5,457.5 203.5,457.5C 203.5,456.5 203.5,455.5 203.5,454.5 Z"/></g>
<g><path style="opacity:1" fill="#181818" d="M 368.5,653.5 C 373.264,653.379 377.597,654.712 381.5,657.5C 380.307,659.384 378.641,659.884 376.5,659C 373.517,657.365 370.851,655.532 368.5,653.5 Z"/></g>
</svg>
