<?xml version="1.0" encoding="UTF-8"?>
<!DOCTYPE svg PUBLIC "-//W3C//DTD SVG 1.1//EN" "http://www.w3.org/Graphics/SVG/1.1/DTD/svg11.dtd">
<svg xmlns="http://www.w3.org/2000/svg" version="1.1" width="389px" height="667px" style="shape-rendering:geometricPrecision; text-rendering:geometricPrecision; image-rendering:optimizeQuality; fill-rule:evenodd; clip-rule:evenodd" xmlns:xlink="http://www.w3.org/1999/xlink">
<g><path style="opacity:1" fill="#fefffe" d="M -0.5,-0.5 C 129.167,-0.5 258.833,-0.5 388.5,-0.5C 388.5,221.833 388.5,444.167 388.5,666.5C 258.833,666.5 129.167,666.5 -0.5,666.5C -0.5,444.167 -0.5,221.833 -0.5,-0.5 Z"/></g>
<g><path style="opacity:1" fill="#000000" d="M 176.5,2.5 C 192.348,-0.754379 206.015,3.07895 217.5,14C 227.375,15.8694 235.875,20.3694 243,27.5C 248.163,37.6128 249.83,48.2794 248,59.5C 248.833,60.3333 249.667,61.1667 250.5,62C 263.514,63.0126 271.681,69.8459 275,82.5C 275.256,85.557 275.756,88.557 276.5,91.5C 274.719,97.4069 273.219,103.407 272,109.5C 268.348,116.122 265.681,123.122 264,130.5C 260.973,134.244 259.307,138.577 259,143.5C 257.5,145.667 256,147.833 254.5,150C 246.66,153.197 239.327,157.197 232.5,162C 225.197,161.533 217.863,161.533 210.5,162C 203.316,166.257 195.649,169.423 187.5,171.5C 183.529,170.803 179.529,170.303 175.5,170C 170.759,167.297 165.759,165.131 160.5,163.5C 158.971,163.529 157.804,164.196 157,165.5C 156.64,171.607 155.64,177.607 154,183.5C 153.552,208.217 154.552,232.884 157,257.5C 160.574,274.287 164.574,290.953 169,307.5C 171.354,317.563 174.687,327.23 179,336.5C 179.912,340.795 180.579,345.128 181,349.5C 183.034,354.254 185.368,358.921 188,363.5C 189,367.5 190,371.5 191,375.5C 193.474,381.252 196.14,386.919 199,392.5C 199.667,395.167 200.333,397.833 201,400.5C 223.954,452.747 250.287,503.08 280,551.5C 299.469,580.003 320.969,607.17 344.5,633C 350.884,638.385 357.55,643.385 364.5,648C 365.337,649.011 365.67,650.178 365.5,651.5C 362.984,651.245 360.65,650.411 358.5,649C 343.631,637.461 330.131,624.627 318,610.5C 300.882,587.733 284.216,564.733 268,541.5C 258.748,521.32 246.748,502.986 232,486.5C 228.961,478.813 225.961,471.146 223,463.5C 222.5,462.333 221.667,461.5 220.5,461C 221.308,460.692 221.975,460.192 222.5,459.5C 221.811,457.556 221.311,455.556 221,453.5C 214.148,439.955 207.481,426.288 201,412.5C 194.363,396.902 188.03,381.235 182,365.5C 180.006,354.852 176.339,344.852 171,335.5C 167.685,320.856 164.351,306.189 161,291.5C 160,289.5 159,287.5 158,285.5C 156.295,271.388 153.961,257.388 151,243.5C 147.371,215.87 147.871,188.37 152.5,161C 152.215,159.11 151.215,157.777 149.5,157C 144.859,156.181 140.525,154.514 136.5,152C 130.403,148.201 124.569,144.035 119,139.5C 113.215,128.236 109.381,116.403 107.5,104C 108.328,91.1984 112.161,79.365 119,68.5C 126.99,61.2002 131.323,52.2002 132,41.5C 134.494,36.3908 136.494,31.0574 138,25.5C 144.66,17.937 152.16,11.437 160.5,6C 165.989,4.92531 171.322,3.75864 176.5,2.5 Z"/></g>
<g><path style="opacity:1" fill="#fefffe" d="M 181.5,6.5 C 187.545,6.42835 193.545,6.92835 199.5,8C 203.194,9.50878 206.527,11.5088 209.5,14C 206.938,16.6457 204.272,19.3123 201.5,22C 195.221,24.4728 189.221,27.4728 183.5,31C 176.44,38.3834 173.607,47.2167 175,57.5C 179.264,66.523 184.43,75.023 190.5,83C 190.095,83.9454 189.428,84.6121 188.5,85C 180.13,85.7078 171.797,86.7078 163.5,88C 160.5,89.6667 158.167,92 156.5,95C 152.975,95.6579 150.141,94.4912 148,91.5C 145.443,86.2765 142.109,81.6098 138,77.5C 133.116,60.3495 134.449,43.6828 142,27.5C 148.918,20.5777 156.418,14.4111 164.5,9C 170.331,8.29031 175.998,7.45698 181.5,6.5 Z"/></g>
<g><path style="opacity:1" fill="#fefffe" d="M 222.5,19.5 C 229.057,22.3683 234.89,26.3683 240,31.5C 241.321,36.4589 242.821,41.2923 244.5,46C 243.206,50.0488 242.373,54.2155 242,58.5C 238.078,62.4121 233.578,65.5787 228.5,68C 222.071,76.4234 213.905,82.5901 204,86.5C 200.101,84.6073 196.768,81.9407 194,78.5C 188.487,70.8035 183.487,62.8035 179,54.5C 178.333,53.1667 178.333,51.8333 179,50.5C 180.791,47.0072 182.124,43.3405 183,39.5C 183.833,38.6667 184.667,37.8333 185.5,37C 193.828,32.838 201.828,28.1714 209.5,23C 213.919,21.6476 218.252,20.481 222.5,19.5 Z"/></g>
<g><path style="opacity:1" fill="#fefffe" d="M 251.5,66.5 C 264.402,68.5893 271.069,76.2559 271.5,89.5C 270.097,101.155 266.264,111.821 260,121.5C 258.32,128.184 256.653,134.851 255,141.5C 251.763,146.209 247.263,149.042 241.5,150C 238.443,152.723 235.11,155.056 231.5,157C 226.183,156.972 220.85,156.639 215.5,156C 209.954,151.494 206.62,145.828 205.5,139C 205.187,135.126 206.187,131.626 208.5,128.5C 207.331,123.827 207.497,119.16 209,114.5C 210.943,112.355 213.276,110.688 216,109.5C 217.963,104.714 220.13,100.047 222.5,95.5C 221.948,93.6666 221.115,91.9999 220,90.5C 219.333,88.5 219.333,86.5 220,84.5C 225.403,78.8176 230.903,73.3176 236.5,68C 239.694,67.4077 242.861,67.5743 246,68.5C 248.111,68.2994 249.945,67.6327 251.5,66.5 Z"/></g>
<g><path style="opacity:1" fill="#fefffe" d="M 125.5,67.5 C 127.679,67.84 129.512,68.84 131,70.5C 131.562,78.9646 135.229,85.6312 142,90.5C 144.392,93.228 146.392,96.228 148,99.5C 148.667,101.833 148.667,104.167 148,106.5C 146.249,108.49 145.249,110.823 145,113.5C 142.265,125.231 143.432,136.564 148.5,147.5C 147.904,150.246 146.237,151.08 143.5,150C 133.19,145.026 124.69,137.86 118,128.5C 117.916,122.254 116.25,116.587 113,111.5C 113.149,105.207 113.149,98.8735 113,92.5C 116.136,83.5614 120.303,75.228 125.5,67.5 Z"/></g>
<g><path style="opacity:1" fill="#fefffe" d="M 174.5,90.5 C 180.176,90.3339 185.843,90.5006 191.5,91C 192.872,91.4017 194.205,91.9017 195.5,92.5C 199.549,99.2276 202.883,98.7276 205.5,91C 209.505,89.9019 213.005,90.7352 216,93.5C 216.471,98.0718 214.637,101.572 210.5,104C 206.422,105.128 203.422,103.795 201.5,100C 200.551,99.3828 199.718,99.5494 199,100.5C 199.721,105.11 200.887,109.61 202.5,114C 202.519,117.005 201.852,119.838 200.5,122.5C 201.755,125.013 202.422,127.68 202.5,130.5C 201.577,135.483 201.41,140.483 202,145.5C 206.809,156.75 202.975,163.25 190.5,165C 181.024,165.289 172.024,163.289 163.5,159C 158.965,153.431 154.799,147.597 151,141.5C 150.547,138.16 150.047,134.826 149.5,131.5C 151.851,125.78 151.851,120.113 149.5,114.5C 154.527,107.626 159.193,100.459 163.5,93C 167.28,92.082 170.946,91.2487 174.5,90.5 Z"/></g>
</svg>
