<?xml version="1.0" encoding="UTF-8"?>
<!DOCTYPE svg PUBLIC "-//W3C//DTD SVG 1.1//EN" "http://www.w3.org/Graphics/SVG/1.1/DTD/svg11.dtd">
<svg xmlns="http://www.w3.org/2000/svg" version="1.1" width="389px" height="667px" style="shape-rendering:geometricPrecision; text-rendering:geometricPrecision; image-rendering:optimizeQuality; fill-rule:evenodd; clip-rule:evenodd" xmlns:xlink="http://www.w3.org/1999/xlink">
<g><path style="opacity:1" fill="#fefefe" d="M -0.5,-0.5 C 129.167,-0.5 258.833,-0.5 388.5,-0.5C 388.5,221.833 388.5,444.167 388.5,666.5C 258.833,666.5 129.167,666.5 -0.5,666.5C -0.5,444.167 -0.5,221.833 -0.5,-0.5 Z"/></g>
<g><path style="opacity:1" fill="#0f0f0f" d="M 191.5,2.5 C 203.337,1.97238 215.004,3.13905 226.5,6C 234.247,11.0761 241.413,16.9094 248,23.5C 251.159,28.5196 253.493,33.853 255,39.5C 256.03,43.7727 256.697,48.106 257,52.5C 259.765,56.2608 262.098,60.2608 264,64.5C 267.707,67.5758 270.707,71.2424 273,75.5C 277.903,87.0917 280.236,99.0917 280,111.5C 279,113.167 278,114.833 277,116.5C 275.865,123.905 273.532,130.905 270,137.5C 267.131,140.704 263.965,143.537 260.5,146C 255.334,148.748 250.334,151.748 245.5,155C 240.617,154.905 236.95,156.905 234.5,161C 234.63,162.059 235.13,162.892 236,163.5C 239.201,192.138 239.201,220.804 236,249.5C 235.517,255.078 234.184,260.411 232,265.5C 231.093,272.846 230.093,280.179 229,287.5C 228.085,288.328 227.419,289.328 227,290.5C 225.481,297.132 224.148,303.799 223,310.5C 220.495,313.819 219.495,317.486 220,321.5C 221.878,323.698 224.045,323.864 226.5,322C 250.667,305.833 270.833,285.667 287,261.5C 287.774,257.951 289.107,254.618 291,251.5C 291.837,247.705 291.504,244.039 290,240.5C 285.887,238.036 281.387,236.87 276.5,237C 268.754,234.39 262.921,229.557 259,222.5C 257.148,217.6 255.314,212.767 253.5,208C 257.707,192.79 267.207,182.29 282,176.5C 281.674,167.163 284.508,158.996 290.5,152C 296.845,147.704 303.845,146.37 311.5,148C 314.856,149.93 318.356,151.43 322,152.5C 324.909,152.269 327.409,151.103 329.5,149C 335.214,148.368 340.881,148.701 346.5,150C 351.353,153.855 355.853,158.022 360,162.5C 360.333,168.833 360.667,175.167 361,181.5C 363.129,185.677 366.629,187.843 371.5,188C 382.353,194.879 386.853,204.712 385,217.5C 379.26,228.569 370.426,236.069 358.5,240C 353.749,240.189 349.083,240.855 344.5,242C 342.926,243.826 342.093,245.993 342,248.5C 338.122,254.045 333.289,258.545 327.5,262C 320.833,262.667 314.167,262.667 307.5,262C 304.476,260.487 301.809,258.487 299.5,256C 297.5,255.333 295.5,255.333 293.5,256C 283.411,277.121 269.077,295.121 250.5,310C 238.911,318.378 227.411,326.878 216,335.5C 206.274,361.949 196.274,388.283 186,414.5C 179.724,427.973 173.057,441.307 166,454.5C 165.155,457.13 165.655,459.464 167.5,461.5C 165.309,465.24 163.809,469.24 163,473.5C 158.784,477.264 156.117,481.931 155,487.5C 148.97,494.858 142.97,502.191 137,509.5C 128.6,524.631 119.933,539.631 111,554.5C 98.3333,571.833 85.6667,589.167 73,606.5C 59.7738,621.394 45.6071,635.227 30.5,648C 28.1825,649.993 25.5158,651.159 22.5,651.5C 22.281,650.325 22.6143,649.325 23.5,648.5C 29.9755,643.858 36.3089,639.025 42.5,634C 63.8833,611.95 83.05,588.117 100,562.5C 102.496,558.505 104.162,554.172 105,549.5C 106.399,535.174 107.733,520.841 109,506.5C 112.189,495.371 114.523,484.038 116,472.5C 117.385,471.449 118.385,470.116 119,468.5C 121.657,459.847 124.323,451.181 127,442.5C 140.877,415.095 157.544,389.428 177,365.5C 188.14,353.939 199.473,342.605 211,331.5C 215.911,319.19 219.577,306.524 222,293.5C 225.426,283.46 227.759,273.126 229,262.5C 229.725,260.051 230.725,257.717 232,255.5C 232.967,235.488 234.134,215.488 235.5,195.5C 234.804,185.05 233.304,174.716 231,164.5C 228.599,163.398 226.099,163.231 223.5,164C 214.991,169.506 205.657,171.506 195.5,170C 189.713,167.606 184.046,164.94 178.5,162C 170.167,161.667 161.833,161.333 153.5,161C 148.081,156.624 142.081,153.29 135.5,151C 130.519,147.068 128.019,141.901 128,135.5C 127.385,133.884 126.385,132.551 125,131.5C 120.989,120.15 116.989,108.817 113,97.5C 111.568,87.649 113.568,78.649 119,70.5C 123.458,64.8556 129.292,62.3556 136.5,63C 138.333,62.5 139.5,61.3333 140,59.5C 140,53.5 140,47.5 140,41.5C 141.853,36.4002 143.853,31.4002 146,26.5C 152.897,20.6346 160.73,16.8012 169.5,15C 172.833,12.3333 176.167,9.66667 179.5,7C 183.267,4.69594 187.267,3.19594 191.5,2.5 Z"/></g>
<g><path style="opacity:1" fill="#fcfcfc" d="M 189.5,6.5 C 202.058,5.70179 214.391,6.86846 226.5,10C 233.805,15.5817 240.639,21.7484 247,28.5C 252.259,40.9764 254.259,53.9764 253,67.5C 252.28,71.7158 250.947,75.7158 249,79.5C 244.703,84.6145 240.536,89.7812 236.5,95C 235.391,95.6377 234.225,96.1377 233,96.5C 230.726,93.1314 227.893,90.2981 224.5,88C 215.249,87.1062 206.082,85.9396 197,84.5C 196.333,83.8333 196.333,83.1667 197,82.5C 204.307,74.2168 209.807,64.8834 213.5,54.5C 213.519,38.0424 205.519,27.8757 189.5,24C 185.542,21.766 182.042,18.9327 179,15.5C 178.316,14.2161 178.483,13.0495 179.5,12C 183.056,10.3924 186.389,8.55911 189.5,6.5 Z"/></g>
<g><path style="opacity:1" fill="#fcfcfc" d="M 162.5,19.5 C 168.358,19.705 174.025,20.8716 179.5,23C 187.336,28.7546 195.669,33.7546 204.5,38C 207.25,43.5711 208.75,49.4045 209,55.5C 204.93,62.6348 200.597,69.6348 196,76.5C 192.799,80.0364 189.299,83.2031 185.5,86C 180.705,85.778 176.371,84.1113 172.5,81C 167.199,76.7002 162.199,72.0336 157.5,67C 153.148,65.3177 149.314,62.8177 146,59.5C 141.243,46.1079 144.077,34.6079 154.5,25C 158.041,24.3352 160.708,22.5019 162.5,19.5 Z"/></g>
<g><path style="opacity:1" fill="#fcfcfc" d="M 134.5,66.5 C 140.477,67.1413 146.477,67.6413 152.5,68C 157.866,73.8453 163.366,79.6786 169,85.5C 167.488,89.5953 166.821,93.9286 167,98.5C 168.825,101.311 170.158,104.311 171,107.5C 174.242,109.997 177.242,112.664 180,115.5C 180.152,123.51 180.986,131.343 182.5,139C 182.333,141.167 182.167,143.333 182,145.5C 178.841,149.659 175.341,153.492 171.5,157C 166.189,156.548 160.856,156.548 155.5,157C 150.404,152.117 144.404,148.783 137.5,147C 135.622,145.457 134.122,143.624 133,141.5C 130.894,135.012 129.227,128.345 128,121.5C 127,120.5 126,119.5 125,118.5C 120.622,108.995 117.789,98.995 116.5,88.5C 117.156,76.5325 123.156,69.1991 134.5,66.5 Z"/></g>
<g><path style="opacity:1" fill="#fbfbfb" d="M 259.5,67.5 C 260.978,67.238 262.311,67.5713 263.5,68.5C 268.416,75.6654 272.249,83.3321 275,91.5C 275.667,98.5 275.667,105.5 275,112.5C 274,113.5 273,114.5 272,115.5C 272.525,122.172 270.858,128.172 267,133.5C 262.815,136.688 258.982,140.188 255.5,144C 251.663,145.173 248.329,147.173 245.5,150C 243.527,150.495 241.527,150.662 239.5,150.5C 240.531,144.104 241.864,137.771 243.5,131.5C 243.116,120.23 241.95,109.23 240,98.5C 243.955,92.8767 248.288,87.5434 253,82.5C 255.133,78.7684 256.466,74.7684 257,70.5C 258.045,69.6266 258.878,68.6266 259.5,67.5 Z"/></g>
<g><path style="opacity:1" fill="#fcfcfc" d="M 176.5,89.5 C 178.199,89.3398 179.866,89.5065 181.5,90C 183.631,92.448 185.631,94.948 187.5,97.5C 189.507,95.9918 191.174,94.1584 192.5,92C 194.392,91.0266 196.392,90.3599 198.5,90C 206.853,90.068 215.186,90.7347 223.5,92C 228.778,99.3784 233.778,106.878 238.5,114.5C 237.688,116.623 237.022,118.79 236.5,121C 238.982,127.742 239.149,134.575 237,141.5C 233.251,147.59 229.084,153.424 224.5,159C 220.234,160.087 216.234,161.754 212.5,164C 202.188,167.282 192.855,165.615 184.5,159C 183.878,157.431 183.544,155.764 183.5,154C 184.804,149.248 185.804,144.415 186.5,139.5C 185.276,133.66 185.276,127.827 186.5,122C 186.128,119.257 185.461,116.59 184.5,114C 186.542,109.708 187.875,105.208 188.5,100.5C 185.856,102.271 183.023,103.938 180,105.5C 175.669,103.67 172.836,100.503 171.5,96C 172.242,93.0946 173.909,90.928 176.5,89.5 Z"/></g>
<g><path style="opacity:1" fill="#fbfbfb" d="M 296.5,151.5 C 300.846,151.334 305.179,151.501 309.5,152C 313.693,156.856 318.526,161.023 324,164.5C 324.816,169.159 324.316,173.659 322.5,178C 327.888,183.486 327.555,188.82 321.5,194C 317.738,194.927 314.238,194.427 311,192.5C 302.003,196.839 295.67,194.506 292,185.5C 290.866,179.466 289.366,173.632 287.5,168C 287.464,165.37 287.964,162.87 289,160.5C 291.335,157.335 293.835,154.335 296.5,151.5 Z"/></g>
<g><path style="opacity:1" fill="#fbfbfb" d="M 329.5,152.5 C 335.262,152.149 340.928,152.649 346.5,154C 349.325,157.825 352.492,161.325 356,164.5C 357.281,171.543 356.281,178.21 353,184.5C 350.287,188.092 347.453,191.592 344.5,195C 341.376,196.314 338.209,197.48 335,198.5C 331.203,197.37 328.703,194.87 327.5,191C 327.954,189.378 328.954,188.212 330.5,187.5C 331.473,185.608 332.14,183.608 332.5,181.5C 331.386,179.215 330.053,177.048 328.5,175C 330.408,172.046 331.242,168.88 331,165.5C 328.69,163.801 326.857,161.801 325.5,159.5C 326.071,156.687 327.404,154.354 329.5,152.5 Z"/></g>
<g><path style="opacity:1" fill="#fbfbfb" d="M 277.5,182.5 C 280.187,182.336 282.854,182.503 285.5,183C 289.833,189.333 294.167,195.667 298.5,202C 302.167,202.333 305.833,202.667 309.5,203C 310.555,206.258 309.555,208.924 306.5,211C 303.066,211.891 299.899,211.391 297,209.5C 294.424,210.457 292.424,212.124 291,214.5C 290.201,220.299 288.867,225.966 287,231.5C 284.503,233.478 281.669,233.978 278.5,233C 274.218,230.613 270.051,228.113 266,225.5C 264.915,223.627 263.582,221.96 262,220.5C 261.557,216.249 260.39,212.249 258.5,208.5C 259.709,204.411 261.209,200.411 263,196.5C 267.102,190.895 271.935,186.228 277.5,182.5 Z"/></g>
<g><path style="opacity:1" fill="#fbfbfb" d="M 356.5,187.5 C 364.066,188.851 370.732,192.018 376.5,197C 384.394,208.668 383.06,219.001 372.5,228C 366.583,232.375 360.083,235.542 353,237.5C 351.564,237.441 350.231,237.108 349,236.5C 349.174,228.197 347.84,220.197 345,212.5C 341.585,206.739 337.752,206.239 333.5,211C 328.141,212.143 325.974,209.976 327,204.5C 327.725,203.941 328.558,203.608 329.5,203.5C 333.788,205.729 338.122,205.896 342.5,204C 347.056,198.376 351.723,192.876 356.5,187.5 Z"/></g>
<g><path style="opacity:1" fill="#fbfbfb" d="M 310.5,212.5 C 314.831,211.451 316.997,213.118 317,217.5C 317.561,218.022 318.228,218.355 319,218.5C 320.626,217.711 322.126,216.711 323.5,215.5C 324.874,216.711 326.374,217.711 328,218.5C 334.277,215.03 339.61,216.03 344,221.5C 344.476,227.275 343.81,232.942 342,238.5C 338.697,247.809 332.53,254.642 323.5,259C 313.757,261.309 305.924,258.476 300,250.5C 298.377,246.29 296.377,242.29 294,238.5C 292.213,231.777 292.213,225.11 294,218.5C 294.903,217.299 296.069,216.465 297.5,216C 300.833,215.667 304.167,215.333 307.5,215C 308.942,214.623 309.942,213.79 310.5,212.5 Z"/></g>
<g><path style="opacity:1" fill="#fbfbfb" d="M 200.5,347.5 C 201.822,347.33 202.989,347.663 204,348.5C 205.126,354.453 203.793,359.786 200,364.5C 199.126,368.535 198.126,372.535 197,376.5C 194.631,381.962 191.964,387.295 189,392.5C 188.654,395.576 187.988,398.576 187,401.5C 184.375,407.382 181.375,413.048 178,418.5C 175.741,424.03 173.741,429.697 172,435.5C 154.297,471.242 135.297,506.242 115,540.5C 113.951,541.517 112.784,541.684 111.5,541C 110.566,527.145 111.399,513.311 114,499.5C 116.158,490.535 118.158,481.535 120,472.5C 121.385,471.449 122.385,470.116 123,468.5C 124.136,460.429 126.469,452.763 130,445.5C 147.843,408.814 171.343,376.148 200.5,347.5 Z"/></g>
<g><path style="opacity:1" fill="#181818" d="M 13.5,653.5 C 15.604,653.201 17.604,653.534 19.5,654.5C 16.6806,655.743 14.0139,657.243 11.5,659C 9.35939,659.884 7.69273,659.384 6.5,657.5C 9.04986,656.396 11.3832,655.063 13.5,653.5 Z"/></g>
</svg>
