<?xml version="1.0" encoding="UTF-8"?>
<!DOCTYPE svg PUBLIC "-//W3C//DTD SVG 1.1//EN" "http://www.w3.org/Graphics/SVG/1.1/DTD/svg11.dtd">
<svg xmlns="http://www.w3.org/2000/svg" version="1.1" width="103px" height="277px" style="shape-rendering:geometricPrecision; text-rendering:geometricPrecision; image-rendering:optimizeQuality; fill-rule:evenodd; clip-rule:evenodd" xmlns:xlink="http://www.w3.org/1999/xlink">
<g><path style="opacity:1" fill="#fefefe" d="M -0.5,-0.5 C 33.8333,-0.5 68.1667,-0.5 102.5,-0.5C 102.5,91.8333 102.5,184.167 102.5,276.5C 68.1667,276.5 33.8333,276.5 -0.5,276.5C -0.5,184.167 -0.5,91.8333 -0.5,-0.5 Z"/></g>
<g><path style="opacity:1" fill="#0f0f0f" d="M 67.5,9.5 C 69.0174,9.51056 70.1841,10.1772 71,11.5C 73.5017,38.423 74.1683,65.423 73,92.5C 68.9469,112.667 65.6136,133.001 63,153.5C 60.3329,164.841 57.6662,176.174 55,187.5C 54.6667,211.167 54.3333,234.833 54,258.5C 53.1705,253.921 51.1705,249.921 48,246.5C 41.0245,225.574 35.6912,204.241 32,182.5C 24.7594,163.137 22.4261,143.137 25,122.5C 28.4929,107.036 32.4929,91.7026 37,76.5C 42.4514,62.9297 48.4514,49.5964 55,36.5C 57.8977,30.0365 60.231,23.3698 62,16.5C 63.371,13.7339 65.2043,11.4006 67.5,9.5 Z"/></g>
<g><path style="opacity:1" fill="#838383" d="M 67.5,24.5 C 66.8333,23.8333 66.1667,23.1667 65.5,22.5C 65.7086,21.0783 66.2086,19.745 67,18.5C 67.4955,20.4727 67.6621,22.4727 67.5,24.5 Z"/></g>
<g><path style="opacity:1" fill="#fafafa" d="M 65.5,22.5 C 66.1667,23.1667 66.8333,23.8333 67.5,24.5C 68.6347,46.8028 68.8014,69.1361 68,91.5C 65.3299,105.511 62.6632,119.511 60,133.5C 59.6667,138.167 59.3333,142.833 59,147.5C 55.9363,161.524 52.7696,175.524 49.5,189.5C 48.8333,202.833 48.1667,216.167 47.5,229.5C 45.6316,221.427 43.4649,213.427 41,205.5C 38.8563,189.442 35.1896,173.776 30,158.5C 29.3333,146.833 29.3333,135.167 30,123.5C 33.6673,108.831 37.334,94.1641 41,79.5C 49.1815,60.4741 57.3482,41.4741 65.5,22.5 Z"/></g>
<g><path style="opacity:1" fill="#575757" d="M 49.5,189.5 C 49.6666,204.504 49.4999,219.504 49,234.5C 48.3923,232.846 47.8923,231.179 47.5,229.5C 48.1667,216.167 48.8333,202.833 49.5,189.5 Z"/></g>
<g><path style="opacity:1" fill="#7f7f7f" d="M 50.5,237.5 C 51.905,239.225 52.405,241.225 52,243.5C 50.872,241.655 50.372,239.655 50.5,237.5 Z"/></g>
</svg>
