<?xml version="1.0" encoding="UTF-8"?>
<!DOCTYPE svg PUBLIC "-//W3C//DTD SVG 1.1//EN" "http://www.w3.org/Graphics/SVG/1.1/DTD/svg11.dtd">
<svg xmlns="http://www.w3.org/2000/svg" version="1.1" width="297px" height="663px" style="shape-rendering:geometricPrecision; text-rendering:geometricPrecision; image-rendering:optimizeQuality; fill-rule:evenodd; clip-rule:evenodd" xmlns:xlink="http://www.w3.org/1999/xlink">
<g><path style="opacity:1" fill="#fefefe" d="M -0.5,-0.5 C 25.8333,-0.5 52.1667,-0.5 78.5,-0.5C 72.1594,0.487319 65.8261,1.98732 59.5,4C 52.7066,9.12454 46.2066,14.6245 40,20.5C 36.8408,25.5196 34.5074,30.853 33,36.5C 31.9695,40.7727 31.3028,45.106 31,49.5C 28.2354,53.2608 25.9021,57.2608 24,61.5C 20.2931,64.5758 17.2931,68.2424 15,72.5C 10.0973,84.0917 7.76393,96.0917 8,108.5C 9,110.167 10,111.833 11,113.5C 12.135,120.905 14.4684,127.905 18,134.5C 20.8688,137.704 24.0354,140.537 27.5,143C 34.9987,148.083 42.9987,152.083 51.5,155C 53.8483,156.688 54.0149,158.522 52,160.5C 48.7987,189.138 48.7987,217.804 52,246.5C 52.4827,252.078 53.8161,257.411 56,262.5C 56.9066,269.846 57.9066,277.179 59,284.5C 59.9147,285.328 60.5814,286.328 61,287.5C 62.5187,294.132 63.8521,300.799 65,307.5C 67.9163,314.565 69.9163,321.899 71,329.5C 75.8059,339.778 79.4726,350.444 82,361.5C 88.2843,378.36 94.951,395.026 102,411.5C 108.135,424.219 114.468,436.886 121,449.5C 122.214,454.114 123.214,458.78 124,463.5C 129.015,472.865 134.015,482.198 139,491.5C 142.65,496.813 146.65,501.813 151,506.5C 152.929,511.412 155.262,516.078 158,520.5C 164.572,532.078 171.572,543.411 179,554.5C 191.244,570.656 203.244,586.989 215,603.5C 228.226,618.394 242.393,632.227 257.5,645C 259.818,646.993 262.484,648.159 265.5,648.5C 265.719,647.325 265.386,646.325 264.5,645.5C 258.024,640.858 251.691,636.025 245.5,631C 226.595,610.425 208.762,588.925 192,566.5C 189.265,561.939 186.765,557.273 184.5,552.5C 193.646,529.587 200.146,505.92 204,481.5C 211.241,462.137 213.574,442.137 211,421.5C 207.507,406.036 203.507,390.703 199,375.5C 193.549,361.93 187.549,348.596 181,335.5C 178.028,328.279 175.361,320.945 173,313.5C 171.641,311.308 169.808,309.641 167.5,308.5C 166.522,308.977 165.689,309.643 165,310.5C 162.498,337.423 161.832,364.423 163,391.5C 166.983,409.647 169.983,427.98 172,446.5C 174.282,460.344 177.282,474.011 181,487.5C 181.667,503.167 181.667,518.833 181,534.5C 178.754,535.553 176.754,536.886 175,538.5C 170.928,533.734 167.595,528.4 165,522.5C 162.089,519.01 159.422,515.344 157,511.5C 143.036,485.236 129.369,458.902 116,432.5C 114.259,426.697 112.259,421.03 110,415.5C 106.625,410.048 103.625,404.382 101,398.5C 100.012,395.576 99.3457,392.576 99,389.5C 96.0361,384.295 93.3695,378.962 91,373.5C 89.8862,366.363 87.5528,359.696 84,353.5C 83.6116,349.781 82.9449,346.114 82,342.5C 74.6695,325.911 69.3362,308.578 66,290.5C 62.5743,280.46 60.241,270.126 59,259.5C 58.2754,257.051 57.2754,254.717 56,252.5C 55.0327,232.488 53.8661,212.488 52.5,192.5C 53.1959,182.05 54.6959,171.716 57,161.5C 62.8722,160.262 68.0389,161.762 72.5,166C 78.7759,167.424 85.1093,167.758 91.5,167C 98.6945,163.672 106.028,160.505 113.5,157.5C 120.469,158.595 127.469,158.761 134.5,158C 139.919,153.624 145.919,150.29 152.5,148C 157.481,144.068 159.981,138.901 160,132.5C 160.615,130.884 161.615,129.551 163,128.5C 167.011,117.15 171.011,105.817 175,94.5C 176.432,84.649 174.432,75.649 169,67.5C 164.542,61.8556 158.708,59.3556 151.5,60C 149.667,59.5 148.5,58.3333 148,56.5C 148,50.5 148,44.5 148,38.5C 146.147,33.4002 144.147,28.4002 142,23.5C 135.122,17.6442 127.289,13.8108 118.5,12C 112.086,5.9666 104.753,1.79994 96.5,-0.5C 163.167,-0.5 229.833,-0.5 296.5,-0.5C 296.5,220.5 296.5,441.5 296.5,662.5C 197.5,662.5 98.5,662.5 -0.5,662.5C -0.5,441.5 -0.5,220.5 -0.5,-0.5 Z"/></g>
<g><path style="opacity:1" fill="#101010" d="M 78.5,-0.5 C 84.5,-0.5 90.5,-0.5 96.5,-0.5C 104.753,1.79994 112.086,5.9666 118.5,12C 127.289,13.8108 135.122,17.6442 142,23.5C 144.147,28.4002 146.147,33.4002 148,38.5C 148,44.5 148,50.5 148,56.5C 148.5,58.3333 149.667,59.5 151.5,60C 158.708,59.3556 164.542,61.8556 169,67.5C 174.432,75.649 176.432,84.649 175,94.5C 171.011,105.817 167.011,117.15 163,128.5C 161.615,129.551 160.615,130.884 160,132.5C 159.981,138.901 157.481,144.068 152.5,148C 145.919,150.29 139.919,153.624 134.5,158C 127.469,158.761 120.469,158.595 113.5,157.5C 106.028,160.505 98.6945,163.672 91.5,167C 85.1093,167.758 78.7759,167.424 72.5,166C 68.0389,161.762 62.8722,160.262 57,161.5C 54.6959,171.716 53.1959,182.05 52.5,192.5C 53.8661,212.488 55.0327,232.488 56,252.5C 57.2754,254.717 58.2754,257.051 59,259.5C 60.241,270.126 62.5743,280.46 66,290.5C 69.3362,308.578 74.6695,325.911 82,342.5C 82.9449,346.114 83.6116,349.781 84,353.5C 87.5528,359.696 89.8862,366.363 91,373.5C 93.3695,378.962 96.0361,384.295 99,389.5C 99.3457,392.576 100.012,395.576 101,398.5C 103.625,404.382 106.625,410.048 110,415.5C 112.259,421.03 114.259,426.697 116,432.5C 129.369,458.902 143.036,485.236 157,511.5C 159.422,515.344 162.089,519.01 165,522.5C 167.595,528.4 170.928,533.734 175,538.5C 176.754,536.886 178.754,535.553 181,534.5C 181.667,518.833 181.667,503.167 181,487.5C 177.282,474.011 174.282,460.344 172,446.5C 169.983,427.98 166.983,409.647 163,391.5C 161.832,364.423 162.498,337.423 165,310.5C 165.689,309.643 166.522,308.977 167.5,308.5C 169.808,309.641 171.641,311.308 173,313.5C 175.361,320.945 178.028,328.279 181,335.5C 187.549,348.596 193.549,361.93 199,375.5C 203.507,390.703 207.507,406.036 211,421.5C 213.574,442.137 211.241,462.137 204,481.5C 200.146,505.92 193.646,529.587 184.5,552.5C 186.765,557.273 189.265,561.939 192,566.5C 208.762,588.925 226.595,610.425 245.5,631C 251.691,636.025 258.024,640.858 264.5,645.5C 265.386,646.325 265.719,647.325 265.5,648.5C 262.484,648.159 259.818,646.993 257.5,645C 242.393,632.227 228.226,618.394 215,603.5C 203.244,586.989 191.244,570.656 179,554.5C 171.572,543.411 164.572,532.078 158,520.5C 155.262,516.078 152.929,511.412 151,506.5C 146.65,501.813 142.65,496.813 139,491.5C 134.015,482.198 129.015,472.865 124,463.5C 123.214,458.78 122.214,454.114 121,449.5C 114.468,436.886 108.135,424.219 102,411.5C 94.951,395.026 88.2843,378.36 82,361.5C 79.4726,350.444 75.8059,339.778 71,329.5C 69.9163,321.899 67.9163,314.565 65,307.5C 63.8521,300.799 62.5187,294.132 61,287.5C 60.5814,286.328 59.9147,285.328 59,284.5C 57.9066,277.179 56.9066,269.846 56,262.5C 53.8161,257.411 52.4827,252.078 52,246.5C 48.7987,217.804 48.7987,189.138 52,160.5C 54.0149,158.522 53.8483,156.688 51.5,155C 42.9987,152.083 34.9987,148.083 27.5,143C 24.0354,140.537 20.8688,137.704 18,134.5C 14.4684,127.905 12.135,120.905 11,113.5C 10,111.833 9,110.167 8,108.5C 7.76393,96.0917 10.0973,84.0917 15,72.5C 17.2931,68.2424 20.2931,64.5758 24,61.5C 25.9021,57.2608 28.2354,53.2608 31,49.5C 31.3028,45.106 31.9695,40.7727 33,36.5C 34.5074,30.853 36.8408,25.5196 40,20.5C 46.2066,14.6245 52.7066,9.12454 59.5,4C 65.8261,1.98732 72.1594,0.487319 78.5,-0.5 Z"/></g>
<g><path style="opacity:1" fill="#fcfcfc" d="M 76.5,3.5 C 83.8409,3.33368 91.1742,3.50034 98.5,4C 102.765,5.61861 106.431,7.95194 109.5,11C 108.224,13.2806 106.557,15.2806 104.5,17C 96.9852,20.6202 89.6518,24.6202 82.5,29C 73.4477,39.3565 72.2811,50.5232 79,62.5C 82.9718,68.6379 87.1384,74.6379 91.5,80.5C 90.9747,81.1924 90.3081,81.6924 89.5,82C 80.8439,83.0937 72.1772,84.0937 63.5,85C 60.107,87.2981 57.2736,90.1314 55,93.5C 52.4467,92.7771 50.28,91.4438 48.5,89.5C 45.1618,83.4875 41.3284,77.8209 37,72.5C 33.2261,57.2187 34.2261,42.2187 40,27.5C 46.7083,19.0695 54.5417,11.9028 63.5,6C 68.0756,5.72848 72.4089,4.89515 76.5,3.5 Z"/></g>
<g><path style="opacity:1" fill="#fcfcfc" d="M 118.5,16.5 C 133.599,18.7668 142.265,27.6002 144.5,43C 143.139,47.3749 142.306,51.8749 142,56.5C 138.707,59.7869 134.873,62.2869 130.5,64C 123.192,72.9741 114.192,79.4741 103.5,83.5C 99.2503,80.7575 95.4169,77.4241 92,73.5C 87.4032,66.6348 83.0698,59.6348 79,52.5C 79.2499,46.4045 80.7499,40.5711 83.5,35C 90.3398,31.7498 96.6731,27.7498 102.5,23C 107.607,19.9354 112.94,17.7688 118.5,16.5 Z"/></g>
<g><path style="opacity:1" fill="#fbfbfb" d="M 24.5,64.5 C 27.3245,64.0807 29.4912,65.0807 31,67.5C 31.5339,71.7684 32.8673,75.7684 35,79.5C 39.7121,84.5434 44.0454,89.8767 48,95.5C 46.0504,106.23 44.8838,117.23 44.5,128.5C 44.6667,130.5 44.8333,132.5 45,134.5C 48.159,138.303 48.9923,142.469 47.5,147C 45.8333,147.667 44.1667,147.667 42.5,147C 39.6706,144.173 36.3372,142.173 32.5,141C 29.0181,137.188 25.1847,133.688 21,130.5C 17.1417,125.172 15.475,119.172 16,112.5C 15,111.5 14,110.5 13,109.5C 12.0673,100.347 12.734,91.3469 15,82.5C 17.9373,76.2881 21.104,70.2881 24.5,64.5 Z"/></g>
<g><path style="opacity:1" fill="#fdfdfd" d="M 148.5,63.5 C 165.169,64.68 172.669,73.68 171,90.5C 169.402,99.2396 166.736,107.573 163,115.5C 162,116.5 161,117.5 160,118.5C 158.773,125.345 157.106,132.012 155,138.5C 152.749,143.369 148.915,145.869 143.5,146C 139.656,148.422 135.99,151.089 132.5,154C 127.13,153.719 121.797,153.719 116.5,154C 112.659,150.492 109.159,146.659 106,142.5C 106.742,132.644 107.408,122.644 108,112.5C 110.758,109.664 113.758,106.997 117,104.5C 117.842,101.311 119.175,98.3111 121,95.5C 121.179,90.9286 120.512,86.5953 119,82.5C 124.634,76.6786 130.134,70.8453 135.5,65C 138.869,64.3374 142.203,64.5041 145.5,65.5C 147.038,65.5466 148.038,64.8799 148.5,63.5 Z"/></g>
<g><path style="opacity:1" fill="#fcfcfc" d="M 79.5,86.5 C 85.0487,86.0871 90.382,86.9204 95.5,89C 96.8259,91.1584 98.4925,92.9918 100.5,94.5C 102.369,91.948 104.369,89.448 106.5,87C 116.65,87.1336 118.816,91.3002 113,99.5C 110.552,102.545 107.719,103.045 104.5,101C 103.274,99.3651 101.941,97.8651 100.5,96.5C 100.167,97.3333 99.8333,98.1667 99.5,99C 100.554,103.104 101.887,107.104 103.5,111C 102.539,113.59 101.872,116.257 101.5,119C 102.724,124.827 102.724,130.66 101.5,136.5C 101.411,140.067 102.245,143.4 104,146.5C 104.667,149.5 104.667,152.5 104,155.5C 96.9072,161.528 88.7406,163.695 79.5,162C 74.2941,159.753 68.9608,157.753 63.5,156C 60.0277,150.894 56.1944,146.06 52,141.5C 49.044,133.682 48.8773,125.849 51.5,118C 50.2042,115.266 49.7042,112.433 50,109.5C 54.6992,102.613 59.5325,95.7797 64.5,89C 69.7061,88.5633 74.7061,87.73 79.5,86.5 Z"/></g>
<g><path style="opacity:1" fill="#fafafa" d="M 188.5,528.5 C 187.833,515.167 187.167,501.833 186.5,488.5C 183.23,474.524 180.064,460.524 177,446.5C 176.667,441.833 176.333,437.167 176,432.5C 173.337,418.511 170.67,404.511 168,390.5C 167.042,367.783 167.376,345.116 169,322.5C 169.667,321.167 170.333,321.167 171,322.5C 179.609,342.051 187.942,361.718 196,381.5C 199.461,395.142 202.795,408.808 206,422.5C 208.277,441.392 206.277,459.725 200,477.5C 198.01,486.438 196.344,495.438 195,504.5C 192.535,512.427 190.368,520.427 188.5,528.5 Z"/></g>
<g><path style="opacity:1" fill="#585858" d="M 186.5,488.5 C 187.167,501.833 187.833,515.167 188.5,528.5C 187.852,530.086 187.352,531.753 187,533.5C 186.5,518.504 186.333,503.504 186.5,488.5 Z"/></g>
<g><path style="opacity:1" fill="#181818" d="M 268.5,650.5 C 273.264,650.379 277.597,651.712 281.5,654.5C 280.307,656.384 278.641,656.884 276.5,656C 273.517,654.365 270.851,652.532 268.5,650.5 Z"/></g>
</svg>
