<?xml version="1.0" encoding="UTF-8"?>
<!DOCTYPE svg PUBLIC "-//W3C//DTD SVG 1.1//EN" "http://www.w3.org/Graphics/SVG/1.1/DTD/svg11.dtd">
<svg xmlns="http://www.w3.org/2000/svg" version="1.1" width="297px" height="663px" style="shape-rendering:geometricPrecision; text-rendering:geometricPrecision; image-rendering:optimizeQuality; fill-rule:evenodd; clip-rule:evenodd" xmlns:xlink="http://www.w3.org/1999/xlink">
<g><path style="opacity:1" fill="#fefefe" d="M -0.5,-0.5 C 66.1667,-0.5 132.833,-0.5 199.5,-0.5C 195.267,0.195937 191.267,1.69594 187.5,4C 184.167,6.66667 180.833,9.33333 177.5,12C 168.73,13.8012 160.897,17.6346 154,23.5C 151.853,28.4002 149.853,33.4002 148,38.5C 148,44.5 148,50.5 148,56.5C 147.5,58.3333 146.333,59.5 144.5,60C 132.642,60.1875 125.142,66.0209 122,77.5C 120.616,83.1087 120.283,88.7753 121,94.5C 124.989,105.817 128.989,117.15 133,128.5C 134.385,129.551 135.385,130.884 136,132.5C 136.454,142.621 141.621,148.787 151.5,151C 154.557,153.723 157.89,156.056 161.5,158C 168.531,158.761 175.531,158.595 182.5,157.5C 189.794,160.149 196.794,163.316 203.5,167C 213.657,168.506 222.991,166.506 231.5,161C 234.099,160.231 236.599,160.398 239,161.5C 241.304,171.716 242.804,182.05 243.5,192.5C 242.134,212.488 240.967,232.488 240,252.5C 238.725,254.717 237.725,257.051 237,259.5C 235.759,270.126 233.426,280.46 230,290.5C 226.664,308.578 221.33,325.911 214,342.5C 213.55,349.373 211.55,355.706 208,361.5C 207.126,365.535 206.126,369.535 205,373.5C 202.631,378.962 199.964,384.295 197,389.5C 196.654,392.576 195.988,395.576 195,398.5C 192.375,404.382 189.375,410.048 186,415.5C 183.741,421.03 181.741,426.697 180,432.5C 162.297,468.242 143.297,503.242 123,537.5C 122.439,538.022 121.772,538.355 121,538.5C 119.246,536.886 117.246,535.553 115,534.5C 114.333,518.833 114.333,503.167 115,487.5C 118.718,474.011 121.718,460.344 124,446.5C 126.017,427.98 129.017,409.647 133,391.5C 134.168,364.423 133.502,337.423 131,310.5C 130.311,309.643 129.478,308.977 128.5,308.5C 126.192,309.641 124.359,311.308 123,313.5C 120.639,320.945 117.972,328.279 115,335.5C 108.451,348.596 102.451,361.93 97,375.5C 92.4929,390.703 88.4929,406.036 85,421.5C 82.4261,442.137 84.7594,462.137 92,481.5C 95.8545,505.92 102.354,529.587 111.5,552.5C 109.235,557.273 106.735,561.939 104,566.5C 87.2383,588.925 69.405,610.425 50.5,631C 44.3089,636.025 37.9755,640.858 31.5,645.5C 30.6143,646.325 30.281,647.325 30.5,648.5C 33.5158,648.159 36.1825,646.993 38.5,645C 53.6071,632.227 67.7738,618.394 81,603.5C 92.7558,586.989 104.756,570.656 117,554.5C 124.428,543.411 131.428,532.078 138,520.5C 140.738,516.078 143.071,511.412 145,506.5C 149.35,501.813 153.35,496.813 157,491.5C 161.985,482.198 166.985,472.865 172,463.5C 172.786,458.78 173.786,454.114 175,449.5C 181.532,436.886 187.865,424.219 194,411.5C 201.049,395.026 207.716,378.36 214,361.5C 216.527,350.444 220.194,339.778 225,329.5C 226.084,321.899 228.084,314.565 231,307.5C 232.148,300.799 233.481,294.132 235,287.5C 235.419,286.328 236.085,285.328 237,284.5C 238.093,277.179 239.093,269.846 240,262.5C 242.184,257.411 243.517,252.078 244,246.5C 247.201,217.804 247.201,189.138 244,160.5C 243.13,159.892 242.63,159.059 242.5,158C 244.95,153.905 248.617,151.905 253.5,152C 258.334,148.748 263.334,145.748 268.5,143C 271.965,140.537 275.131,137.704 278,134.5C 281.532,127.905 283.865,120.905 285,113.5C 287.918,109.873 289.084,105.707 288.5,101C 287.026,91.2746 284.526,81.7746 281,72.5C 278.707,68.2424 275.707,64.5758 272,61.5C 270.098,57.2608 267.765,53.2608 265,49.5C 264.697,45.106 264.03,40.7727 263,36.5C 261.493,30.853 259.159,25.5196 256,20.5C 249.793,14.6245 243.293,9.12454 236.5,4C 230.126,2.16274 223.793,0.662742 217.5,-0.5C 243.833,-0.5 270.167,-0.5 296.5,-0.5C 296.5,220.5 296.5,441.5 296.5,662.5C 197.5,662.5 98.5,662.5 -0.5,662.5C -0.5,441.5 -0.5,220.5 -0.5,-0.5 Z"/></g>
<g><path style="opacity:1" fill="#0f0f0f" d="M 199.5,-0.5 C 205.5,-0.5 211.5,-0.5 217.5,-0.5C 223.793,0.662742 230.126,2.16274 236.5,4C 243.293,9.12454 249.793,14.6245 256,20.5C 259.159,25.5196 261.493,30.853 263,36.5C 264.03,40.7727 264.697,45.106 265,49.5C 267.765,53.2608 270.098,57.2608 272,61.5C 275.707,64.5758 278.707,68.2424 281,72.5C 284.526,81.7746 287.026,91.2746 288.5,101C 289.084,105.707 287.918,109.873 285,113.5C 283.865,120.905 281.532,127.905 278,134.5C 275.131,137.704 271.965,140.537 268.5,143C 263.334,145.748 258.334,148.748 253.5,152C 248.617,151.905 244.95,153.905 242.5,158C 242.63,159.059 243.13,159.892 244,160.5C 247.201,189.138 247.201,217.804 244,246.5C 243.517,252.078 242.184,257.411 240,262.5C 239.093,269.846 238.093,277.179 237,284.5C 236.085,285.328 235.419,286.328 235,287.5C 233.481,294.132 232.148,300.799 231,307.5C 228.084,314.565 226.084,321.899 225,329.5C 220.194,339.778 216.527,350.444 214,361.5C 207.716,378.36 201.049,395.026 194,411.5C 187.865,424.219 181.532,436.886 175,449.5C 173.786,454.114 172.786,458.78 172,463.5C 166.985,472.865 161.985,482.198 157,491.5C 153.35,496.813 149.35,501.813 145,506.5C 143.071,511.412 140.738,516.078 138,520.5C 131.428,532.078 124.428,543.411 117,554.5C 104.756,570.656 92.7558,586.989 81,603.5C 67.7738,618.394 53.6071,632.227 38.5,645C 36.1825,646.993 33.5158,648.159 30.5,648.5C 30.281,647.325 30.6143,646.325 31.5,645.5C 37.9755,640.858 44.3089,636.025 50.5,631C 69.405,610.425 87.2383,588.925 104,566.5C 106.735,561.939 109.235,557.273 111.5,552.5C 102.354,529.587 95.8545,505.92 92,481.5C 84.7594,462.137 82.4261,442.137 85,421.5C 88.4929,406.036 92.4929,390.703 97,375.5C 102.451,361.93 108.451,348.596 115,335.5C 117.972,328.279 120.639,320.945 123,313.5C 124.359,311.308 126.192,309.641 128.5,308.5C 129.478,308.977 130.311,309.643 131,310.5C 133.502,337.423 134.168,364.423 133,391.5C 129.017,409.647 126.017,427.98 124,446.5C 121.718,460.344 118.718,474.011 115,487.5C 114.333,503.167 114.333,518.833 115,534.5C 117.246,535.553 119.246,536.886 121,538.5C 121.772,538.355 122.439,538.022 123,537.5C 143.297,503.242 162.297,468.242 180,432.5C 181.741,426.697 183.741,421.03 186,415.5C 189.375,410.048 192.375,404.382 195,398.5C 195.988,395.576 196.654,392.576 197,389.5C 199.964,384.295 202.631,378.962 205,373.5C 206.126,369.535 207.126,365.535 208,361.5C 211.55,355.706 213.55,349.373 214,342.5C 221.33,325.911 226.664,308.578 230,290.5C 233.426,280.46 235.759,270.126 237,259.5C 237.725,257.051 238.725,254.717 240,252.5C 240.967,232.488 242.134,212.488 243.5,192.5C 242.804,182.05 241.304,171.716 239,161.5C 236.599,160.398 234.099,160.231 231.5,161C 222.991,166.506 213.657,168.506 203.5,167C 196.794,163.316 189.794,160.149 182.5,157.5C 175.531,158.595 168.531,158.761 161.5,158C 157.89,156.056 154.557,153.723 151.5,151C 141.621,148.787 136.454,142.621 136,132.5C 135.385,130.884 134.385,129.551 133,128.5C 128.989,117.15 124.989,105.817 121,94.5C 120.283,88.7753 120.616,83.1087 122,77.5C 125.142,66.0209 132.642,60.1875 144.5,60C 146.333,59.5 147.5,58.3333 148,56.5C 148,50.5 148,44.5 148,38.5C 149.853,33.4002 151.853,28.4002 154,23.5C 160.897,17.6346 168.73,13.8012 177.5,12C 180.833,9.33333 184.167,6.66667 187.5,4C 191.267,1.69594 195.267,0.195937 199.5,-0.5 Z"/></g>
<g><path style="opacity:1" fill="#fcfcfc" d="M 197.5,3.5 C 210.008,2.97351 222.341,4.14017 234.5,7C 242.628,12.7939 249.795,19.6273 256,27.5C 260.47,39.4593 262.137,51.7926 261,64.5C 260.28,68.7158 258.947,72.7158 257,76.5C 252.703,81.6145 248.536,86.7812 244.5,92C 243.391,92.6377 242.225,93.1377 241,93.5C 238.726,90.1314 235.893,87.2981 232.5,85C 223.249,84.1062 214.082,82.9396 205,81.5C 204.333,80.8333 204.333,80.1667 205,79.5C 211.864,71.7713 217.197,63.1047 221,53.5C 222.124,36.2641 214.291,25.4308 197.5,21C 193.542,18.766 190.042,15.9327 187,12.5C 186.316,11.2161 186.483,10.0495 187.5,9C 191.056,7.39245 194.389,5.55911 197.5,3.5 Z"/></g>
<g><path style="opacity:1" fill="#fcfcfc" d="M 170.5,16.5 C 176.358,16.705 182.025,17.8716 187.5,20C 195.336,25.7546 203.669,30.7546 212.5,35C 215.25,40.5711 216.75,46.4045 217,52.5C 212.93,59.6348 208.597,66.6348 204,73.5C 200.799,77.0364 197.299,80.2031 193.5,83C 188.705,82.778 184.371,81.1113 180.5,78C 175.199,73.7002 170.199,69.0336 165.5,64C 161.148,62.3177 157.314,59.8177 154,56.5C 149.243,43.1079 152.077,31.6079 162.5,22C 166.041,21.3352 168.708,19.5019 170.5,16.5 Z"/></g>
<g><path style="opacity:1" fill="#fcfcfc" d="M 142.5,63.5 C 148.477,64.1413 154.477,64.6413 160.5,65C 165.866,70.8453 171.366,76.6786 177,82.5C 175.488,86.5953 174.821,90.9286 175,95.5C 176.825,98.3111 178.158,101.311 179,104.5C 182.242,106.997 185.242,109.664 188,112.5C 188.152,120.51 188.986,128.343 190.5,136C 190.333,138.167 190.167,140.333 190,142.5C 186.841,146.659 183.341,150.492 179.5,154C 174.189,153.548 168.856,153.548 163.5,154C 158.404,149.117 152.404,145.783 145.5,144C 143.622,142.457 142.122,140.624 141,138.5C 138.894,132.012 137.227,125.345 136,118.5C 135,117.5 134,116.5 133,115.5C 128.622,105.995 125.789,95.995 124.5,85.5C 125.156,73.5325 131.156,66.1991 142.5,63.5 Z"/></g>
<g><path style="opacity:1" fill="#fafafa" d="M 267.5,64.5 C 268.978,64.238 270.311,64.5713 271.5,65.5C 280.982,78.6489 284.815,93.3155 283,109.5C 282,110.5 281,111.5 280,112.5C 280.525,119.172 278.858,125.172 275,130.5C 270.815,133.688 266.982,137.188 263.5,141C 259.663,142.173 256.329,144.173 253.5,147C 251.527,147.495 249.527,147.662 247.5,147.5C 248.531,141.104 249.864,134.771 251.5,128.5C 251.116,117.23 249.95,106.23 248,95.5C 251.955,89.8767 256.288,84.5434 261,79.5C 263.133,75.7684 264.466,71.7684 265,67.5C 266.045,66.6266 266.878,65.6266 267.5,64.5 Z"/></g>
<g><path style="opacity:1" fill="#fcfcfc" d="M 184.5,86.5 C 186.199,86.3398 187.866,86.5065 189.5,87C 191.631,89.448 193.631,91.948 195.5,94.5C 197.507,92.9918 199.174,91.1584 200.5,89C 202.392,88.0266 204.392,87.3599 206.5,87C 214.853,87.068 223.186,87.7347 231.5,89C 236.778,96.3784 241.778,103.878 246.5,111.5C 245.688,113.623 245.022,115.79 244.5,118C 246.982,124.742 247.149,131.575 245,138.5C 241.251,144.59 237.084,150.424 232.5,156C 228.234,157.087 224.234,158.754 220.5,161C 210.188,164.282 200.855,162.615 192.5,156C 191.878,154.431 191.544,152.764 191.5,151C 192.804,146.248 193.804,141.415 194.5,136.5C 193.276,130.66 193.276,124.827 194.5,119C 194.128,116.257 193.461,113.59 192.5,111C 194.542,106.708 195.875,102.208 196.5,97.5C 193.856,99.2714 191.023,100.938 188,102.5C 183.669,100.67 180.836,97.5029 179.5,93C 180.242,90.0946 181.909,87.928 184.5,86.5 Z"/></g>
<g><path style="opacity:1" fill="#838383" d="M 127.5,323.5 C 126.833,322.833 126.167,322.167 125.5,321.5C 125.709,320.078 126.209,318.745 127,317.5C 127.495,319.473 127.662,321.473 127.5,323.5 Z"/></g>
<g><path style="opacity:1" fill="#fafafa" d="M 125.5,321.5 C 126.167,322.167 126.833,322.833 127.5,323.5C 128.635,345.803 128.801,368.136 128,390.5C 125.33,404.511 122.663,418.511 120,432.5C 119.667,437.167 119.333,441.833 119,446.5C 115.936,460.524 112.77,474.524 109.5,488.5C 108.833,501.833 108.167,515.167 107.5,528.5C 105.632,520.427 103.465,512.427 101,504.5C 98.8563,488.442 95.1896,472.776 90,457.5C 89.3333,445.833 89.3333,434.167 90,422.5C 93.2052,408.808 96.5386,395.142 100,381.5C 108.239,361.359 116.739,341.359 125.5,321.5 Z"/></g>
<g><path style="opacity:1" fill="#575757" d="M 109.5,488.5 C 109.667,503.504 109.5,518.504 109,533.5C 108.392,531.846 107.892,530.179 107.5,528.5C 108.167,515.167 108.833,501.833 109.5,488.5 Z"/></g>
<g><path style="opacity:1" fill="#7f7f7f" d="M 110.5,536.5 C 111.905,538.225 112.405,540.225 112,542.5C 110.872,540.655 110.372,538.655 110.5,536.5 Z"/></g>
<g><path style="opacity:1" fill="#181818" d="M 21.5,650.5 C 23.604,650.201 25.604,650.534 27.5,651.5C 24.6806,652.743 22.0139,654.243 19.5,656C 17.3594,656.884 15.6927,656.384 14.5,654.5C 17.0499,653.396 19.3832,652.063 21.5,650.5 Z"/></g>
</svg>
