<?xml version="1.0" encoding="UTF-8"?>
<!DOCTYPE svg PUBLIC "-//W3C//DTD SVG 1.1//EN" "http://www.w3.org/Graphics/SVG/1.1/DTD/svg11.dtd">
<svg xmlns="http://www.w3.org/2000/svg" version="1.1" width="389px" height="667px" style="shape-rendering:geometricPrecision; text-rendering:geometricPrecision; image-rendering:optimizeQuality; fill-rule:evenodd; clip-rule:evenodd" xmlns:xlink="http://www.w3.org/1999/xlink">
<g><path style="opacity:1" fill="#fefffe" d="M -0.5,-0.5 C 129.167,-0.5 258.833,-0.5 388.5,-0.5C 388.5,221.833 388.5,444.167 388.5,666.5C 258.833,666.5 129.167,666.5 -0.5,666.5C -0.5,444.167 -0.5,221.833 -0.5,-0.5 Z"/></g>
<g><path style="opacity:1" fill="#000000" d="M 188.5,2.5 C 201.678,1.80435 214.678,2.97101 227.5,6C 235.84,11.437 243.34,17.937 250,25.5C 251.506,31.0574 253.506,36.3908 256,41.5C 256.677,52.2002 261.01,61.2002 269,68.5C 276.983,81.7578 280.65,96.0911 280,111.5C 277.278,116.484 275.611,121.817 275,127.5C 273,131.5 271,135.5 269,139.5C 263.431,144.035 257.597,148.201 251.5,152C 247.475,154.514 243.141,156.181 238.5,157C 236.785,157.777 235.785,159.11 235.5,161C 240.129,188.37 240.629,215.87 237,243.5C 234.039,257.388 231.705,271.388 230,285.5C 229,287.5 228,289.5 227,291.5C 223.528,311.875 217.861,331.542 210,350.5C 209.046,355.604 207.713,360.604 206,365.5C 199.97,381.235 193.637,396.902 187,412.5C 180.519,426.288 173.852,439.955 167,453.5C 166.689,455.556 166.189,457.556 165.5,459.5C 166.025,460.192 166.692,460.692 167.5,461C 166.333,461.5 165.5,462.333 165,463.5C 162.039,471.146 159.039,478.813 156,486.5C 141.252,502.986 129.252,521.32 120,541.5C 103.784,564.733 87.1176,587.733 70,610.5C 57.869,624.627 44.369,637.461 29.5,649C 27.3496,650.411 25.0163,651.245 22.5,651.5C 22.33,650.178 22.6634,649.011 23.5,648C 30.9516,642.883 38.1183,637.383 45,631.5C 68.0334,606.168 89.0334,579.501 108,551.5C 137.713,503.08 164.046,452.747 187,400.5C 187.667,397.833 188.333,395.167 189,392.5C 191.86,386.919 194.526,381.252 197,375.5C 198,371.5 199,367.5 200,363.5C 202.632,358.921 204.966,354.254 207,349.5C 208.399,339.859 211.066,330.526 215,321.5C 218.222,311.728 220.555,301.728 222,291.5C 223.275,289.283 224.275,286.949 225,284.5C 226.11,275.279 228.11,266.279 231,257.5C 233.448,232.884 234.448,208.217 234,183.5C 232.36,177.607 231.36,171.607 231,165.5C 230.196,164.196 229.029,163.529 227.5,163.5C 222.241,165.131 217.241,167.297 212.5,170C 208.471,170.303 204.471,170.803 200.5,171.5C 192.351,169.423 184.684,166.257 177.5,162C 170.137,161.533 162.803,161.533 155.5,162C 148.673,157.197 141.34,153.197 133.5,150C 129.489,145.662 127.323,140.495 127,134.5C 124.208,131.795 122.874,128.462 123,124.5C 120.924,119.349 118.59,114.349 116,109.5C 114.781,103.407 113.281,97.4069 111.5,91.5C 112.244,88.557 112.744,85.557 113,82.5C 116.319,69.8459 124.486,63.0126 137.5,62C 138.333,61.1667 139.167,60.3333 140,59.5C 138.17,48.2794 139.837,37.6128 145,27.5C 148.718,23.7265 152.884,20.5599 157.5,18C 165.519,17.3237 172.186,13.9904 177.5,8C 181.538,6.64781 185.205,4.81448 188.5,2.5 Z"/></g>
<g><path style="opacity:1" fill="#fefffe" d="M 195.5,6.5 C 204.883,6.73821 214.216,7.57155 223.5,9C 229.191,12.5134 234.524,16.5134 239.5,21C 242.704,23.8688 245.537,27.0354 248,30.5C 251.818,42.2219 253.484,54.2219 253,66.5C 252.156,70.2106 251.156,73.8772 250,77.5C 245.891,81.6098 242.557,86.2765 240,91.5C 237.859,94.4912 235.025,95.6579 231.5,95C 229.833,92 227.5,89.6667 224.5,88C 216.203,86.7078 207.87,85.7078 199.5,85C 198.572,84.6121 197.905,83.9454 197.5,83C 203.57,75.023 208.736,66.523 213,57.5C 214.393,47.2167 211.56,38.3834 204.5,31C 198.779,27.4728 192.779,24.4728 186.5,22C 183.728,19.3123 181.062,16.6457 178.5,14C 183.525,9.816 189.192,7.316 195.5,6.5 Z"/></g>
<g><path style="opacity:1" fill="#fefffe" d="M 163.5,19.5 C 168.582,20.237 173.582,21.4037 178.5,23C 186.172,28.1714 194.172,32.838 202.5,37C 203.333,37.8333 204.167,38.6667 205,39.5C 205.876,43.3405 207.209,47.0072 209,50.5C 209.667,51.8333 209.667,53.1667 209,54.5C 203.443,65.772 196.277,75.9386 187.5,85C 186.391,85.6377 185.225,86.1377 184,86.5C 174.095,82.5901 165.929,76.4234 159.5,68C 154.422,65.5787 149.922,62.4121 146,58.5C 145.627,54.2155 144.794,50.0488 143.5,46C 145.179,41.2923 146.679,36.4589 148,31.5C 152.784,26.8752 157.951,22.8752 163.5,19.5 Z"/></g>
<g><path style="opacity:1" fill="#fefffe" d="M 135.5,66.5 C 137.545,67.4586 139.711,68.1253 142,68.5C 145.139,67.5743 148.306,67.4077 151.5,68C 157.097,73.3176 162.597,78.8176 168,84.5C 168.667,86.5 168.667,88.5 168,90.5C 166.885,91.9999 166.052,93.6666 165.5,95.5C 167.87,100.047 170.037,104.714 172,109.5C 174.724,110.688 177.057,112.355 179,114.5C 180.503,119.16 180.669,123.827 179.5,128.5C 182.797,134.27 183.297,140.27 181,146.5C 178.518,149.949 175.685,153.116 172.5,156C 167.15,156.639 161.817,156.972 156.5,157C 150.548,152.052 143.882,148.385 136.5,146C 134.951,144.786 133.785,143.286 133,141.5C 131.347,134.851 129.68,128.184 128,121.5C 121.736,111.821 117.903,101.155 116.5,89.5C 117.005,76.739 123.338,69.0723 135.5,66.5 Z"/></g>
<g><path style="opacity:1" fill="#fefffe" d="M 260.5,67.5 C 262.017,67.5106 263.184,68.1772 264,69.5C 268.458,76.7504 272.125,84.417 275,92.5C 274.851,98.8735 274.851,105.207 275,111.5C 271.75,116.587 270.084,122.254 270,128.5C 263.022,138.652 253.855,145.986 242.5,150.5C 240.5,150.5 239.5,149.5 239.5,147.5C 244.568,136.564 245.735,125.231 243,113.5C 242.751,110.823 241.751,108.49 240,106.5C 239.333,104.167 239.333,101.833 240,99.5C 243.397,93.354 247.73,88.0207 253,83.5C 255.34,79.4791 256.674,75.1457 257,70.5C 258.145,69.3636 259.312,68.3636 260.5,67.5 Z"/></g>
<g><path style="opacity:1" fill="#fefffe" d="M 175.5,90.5 C 177.857,90.3367 180.19,90.5034 182.5,91C 183.528,93.9159 185.362,96.0825 188,97.5C 192.097,91.6819 197.764,89.3486 205,90.5C 210.532,90.6489 216.032,91.1489 221.5,92C 223.848,92.3459 225.681,93.5125 227,95.5C 229.843,102.535 233.676,108.868 238.5,114.5C 236.149,120.113 236.149,125.78 238.5,131.5C 238.206,136.416 237.039,141.082 235,145.5C 231.118,149.714 227.618,154.214 224.5,159C 217.155,162.281 209.489,164.448 201.5,165.5C 194.474,165.296 188.641,162.629 184,157.5C 183.98,151.555 184.813,145.722 186.5,140C 184.932,134.016 185.266,128.183 187.5,122.5C 186.148,119.838 185.481,117.005 185.5,114C 186.501,109.973 187.834,105.973 189.5,102C 189.387,100.72 188.72,99.8869 187.5,99.5C 180.449,106.856 175.116,105.689 171.5,96C 171.901,93.44 173.234,91.6066 175.5,90.5 Z"/></g>
</svg>
