<?xml version="1.0" encoding="UTF-8"?>
<!DOCTYPE svg PUBLIC "-//W3C//DTD SVG 1.1//EN" "http://www.w3.org/Graphics/SVG/1.1/DTD/svg11.dtd">
<svg xmlns="http://www.w3.org/2000/svg" version="1.1" width="211px" height="450px" style="shape-rendering:geometricPrecision; text-rendering:geometricPrecision; image-rendering:optimizeQuality; fill-rule:evenodd; clip-rule:evenodd" xmlns:xlink="http://www.w3.org/1999/xlink">
<g><path style="opacity:1" fill="#fefefe" d="M -0.5,-0.5 C 69.8333,-0.5 140.167,-0.5 210.5,-0.5C 210.5,149.5 210.5,299.5 210.5,449.5C 140.167,449.5 69.8333,449.5 -0.5,449.5C -0.5,299.5 -0.5,149.5 -0.5,-0.5 Z"/></g>
<g><path style="opacity:1" fill="#0f0f0f" d="M 43.5,4.5 C 50.3902,5.44506 56.3902,8.2784 61.5,13C 72.5585,24.0585 83.7251,35.2251 95,46.5C 96.5843,50.6747 98.9177,54.3413 102,57.5C 106.72,70.4011 108.387,83.7345 107,97.5C 105.534,99.3249 103.701,99.8249 101.5,99C 86.5198,86.681 76.3531,71.181 71,52.5C 70.1071,42.9046 68.1071,33.5712 65,24.5C 61.8333,20.6667 58.6667,16.8333 55.5,13C 44.1092,5.80197 38.4426,8.96864 38.5,22.5C 39.7312,28.0682 40.5645,33.7348 41,39.5C 43.3284,43.4877 44.6617,47.8211 45,52.5C 51.9675,66.7642 58.6342,81.0976 65,95.5C 77.0334,115.22 88.7001,135.22 100,155.5C 102.468,158.72 105.135,161.72 108,164.5C 114.595,181.399 123.262,197.066 134,211.5C 138.331,221.155 142.831,230.488 147.5,239.5C 149.972,238.061 151.305,235.894 151.5,233C 149.169,218.225 149.003,203.392 151,188.5C 153.333,178.5 155.667,168.5 158,158.5C 166.082,141.002 174.749,123.669 184,106.5C 186.734,98.9646 189.067,91.2979 191,83.5C 192.389,81.7727 194.056,80.4394 196,79.5C 196.945,79.9054 197.612,80.572 198,81.5C 198.667,90.1667 198.667,98.8333 198,107.5C 196.404,116.129 195.071,124.796 194,133.5C 186.009,161.141 177.009,188.474 167,215.5C 167.123,220.059 165.789,224.059 163,227.5C 160.412,245.536 160.412,263.536 163,281.5C 165.371,288.959 166.704,296.626 167,304.5C 168.46,306.972 169.46,309.639 170,312.5C 176.687,349.554 178.354,386.887 175,424.5C 174,426.167 173,427.833 172,429.5C 173.399,406.206 173.732,382.873 173,359.5C 170.515,344.562 168.515,329.562 167,314.5C 160.497,290.318 153.163,266.318 145,242.5C 139.427,232.355 134.093,222.021 129,211.5C 124.416,204.668 120.083,197.668 116,190.5C 112.991,187.823 110.324,184.823 108,181.5C 105.725,174.674 103.058,168.007 100,161.5C 83.8958,135.626 68.5625,109.293 54,82.5C 47.7027,76.9314 40.536,72.7648 32.5,70C 19.5897,62.3139 12.0897,51.1472 10,36.5C 10.6891,35.6433 11.5224,34.9767 12.5,34.5C 20.4783,39.1594 28.145,44.3261 35.5,50C 37.6614,50.7216 39.328,50.0549 40.5,48C 39.5384,44.7842 38.3717,41.6175 37,38.5C 36.3333,29.5 36.3333,20.5 37,11.5C 38.6941,8.64238 40.8607,6.30904 43.5,4.5 Z"/></g>
<g><path style="opacity:1" fill="#f9f9f9" d="M 78.5,41.5 C 80.9892,41.2978 83.3225,41.7978 85.5,43C 94.5575,51.2774 100.391,61.4441 103,73.5C 103.807,79.4163 103.641,85.2496 102.5,91C 99.904,91.458 97.7373,90.6246 96,88.5C 92.3333,84.1667 88.6667,79.8333 85,75.5C 83.1713,71.1718 80.838,67.1718 78,63.5C 75.5088,57.7109 74.5088,51.7109 75,45.5C 75.6897,43.6498 76.8564,42.3164 78.5,41.5 Z"/></g>
<g><path style="opacity:1" fill="#f5f5f5" d="M 18.5,43.5 C 29.7405,48.1407 38.0738,55.974 43.5,67C 43.3552,67.772 43.0219,68.4387 42.5,69C 40.5,69.6667 38.5,69.6667 36.5,69C 29.1508,63.2634 22.6508,56.7634 17,49.5C 16.2516,47.1599 16.7516,45.1599 18.5,43.5 Z"/></g>
<g><path style="opacity:1" fill="#f9f9f9" d="M 190.5,104.5 C 191.833,104.5 193.167,104.5 194.5,104.5C 191.902,119.883 189.069,135.216 186,150.5C 175.467,175.098 167.134,200.431 161,226.5C 159.266,228.451 157.099,229.451 154.5,229.5C 153.661,210.01 154.828,190.677 158,171.5C 167.053,150.057 176.72,128.724 187,107.5C 188.145,106.364 189.312,105.364 190.5,104.5 Z"/></g>
</svg>
