<?xml version="1.0" encoding="UTF-8"?>
<!DOCTYPE svg PUBLIC "-//W3C//DTD SVG 1.1//EN" "http://www.w3.org/Graphics/SVG/1.1/DTD/svg11.dtd">
<svg xmlns="http://www.w3.org/2000/svg" version="1.1" width="211px" height="450px" style="shape-rendering:geometricPrecision; text-rendering:geometricPrecision; image-rendering:optimizeQuality; fill-rule:evenodd; clip-rule:evenodd" xmlns:xlink="http://www.w3.org/1999/xlink">
<g><path style="opacity:1" fill="#fefefe" d="M -0.5,-0.5 C 69.8333,-0.5 140.167,-0.5 210.5,-0.5C 210.5,149.5 210.5,299.5 210.5,449.5C 140.167,449.5 69.8333,449.5 -0.5,449.5C -0.5,299.5 -0.5,149.5 -0.5,-0.5 Z"/></g>
<g><path style="opacity:1" fill="#0f0f0f" d="M 161.5,4.5 C 166.952,4.14367 170.785,6.477 173,11.5C 173.667,20.5 173.667,29.5 173,38.5C 171.628,41.6175 170.462,44.7842 169.5,48C 170.672,50.0549 172.339,50.7216 174.5,50C 181.855,44.3261 189.522,39.1594 197.5,34.5C 200.144,35.741 200.977,37.741 200,40.5C 193.816,59.0158 181.316,71.1825 162.5,77C 160.04,78.4578 157.873,80.2911 156,82.5C 141.438,109.293 126.104,135.626 110,161.5C 106.942,168.007 104.275,174.674 102,181.5C 100.005,184.661 97.5046,187.328 94.5,189.5C 90.2509,197 85.7509,204.334 81,211.5C 75.9068,222.021 70.5734,232.355 65,242.5C 56.8366,266.318 49.5033,290.318 43,314.5C 41.4848,329.562 39.4848,344.562 37,359.5C 36.2543,382.542 36.5876,405.542 38,428.5C 36.6152,427.449 35.6152,426.116 35,424.5C 31.6464,386.887 33.313,349.554 40,312.5C 40.5399,309.639 41.5399,306.972 43,304.5C 43.2957,296.626 44.629,288.959 47,281.5C 49.5878,263.536 49.5878,245.536 47,227.5C 44.2108,224.059 42.8775,220.059 43,215.5C 32.9913,188.474 23.9913,161.141 16,133.5C 14.9294,124.796 13.5961,116.129 12,107.5C 11.3333,98.8333 11.3333,90.1667 12,81.5C 12.3879,80.572 13.0546,79.9054 14,79.5C 15.9439,80.4394 17.6106,81.7727 19,83.5C 20.9329,91.2979 23.2662,98.9646 26,106.5C 35.2509,123.669 43.9176,141.002 52,158.5C 54.3333,168.5 56.6667,178.5 59,188.5C 60.9974,203.392 60.8308,218.225 58.5,233C 58.5945,236.615 60.2612,238.615 63.5,239C 64.9295,235.611 66.0961,232.111 67,228.5C 70.779,223.277 73.779,217.61 76,211.5C 86.7384,197.066 95.4051,181.399 102,164.5C 104.865,161.72 107.532,158.72 110,155.5C 121.3,135.22 132.967,115.22 145,95.5C 151.366,81.0976 158.033,66.7642 165,52.5C 165.338,47.8211 166.672,43.4877 169,39.5C 169.435,33.7348 170.269,28.0682 171.5,22.5C 171.557,8.96864 165.891,5.80197 154.5,13C 151.333,16.8333 148.167,20.6667 145,24.5C 141.893,33.5712 139.893,42.9046 139,52.5C 133.647,71.181 123.48,86.681 108.5,99C 106.299,99.8249 104.466,99.3249 103,97.5C 101.613,83.7345 103.28,70.4011 108,57.5C 111.082,54.3413 113.416,50.6747 115,46.5C 122.531,39.303 129.698,31.803 136.5,24C 142.151,19.0899 147.818,14.0899 153.5,9C 156.391,7.72576 159.058,6.22576 161.5,4.5 Z"/></g>
<g><path style="opacity:1" fill="#f9f9f9" d="M 126.5,41.5 C 134.421,41.635 137.255,45.635 135,53.5C 130.716,68.5773 122.549,81.0773 110.5,91C 109.5,91.6667 108.5,91.6667 107.5,91C 106.135,83.846 106.301,76.6794 108,69.5C 110.889,64.3907 113.222,59.0574 115,53.5C 118.364,48.9715 122.197,44.9715 126.5,41.5 Z"/></g>
<g><path style="opacity:1" fill="#f5f5f5" d="M 188.5,43.5 C 191.352,43.3524 193.019,44.6857 193.5,47.5C 191.621,51.5532 189.121,55.2199 186,58.5C 182.167,61.6667 178.333,64.8333 174.5,68C 171.986,69.2525 169.32,69.7525 166.5,69.5C 166.372,67.3453 166.872,65.3453 168,63.5C 170.333,60.5 172.667,57.5 175,54.5C 179.846,51.1735 184.346,47.5068 188.5,43.5 Z"/></g>
<g><path style="opacity:1" fill="#f9f9f9" d="M 15.5,104.5 C 18.505,104.253 21.005,105.253 23,107.5C 33.2801,128.724 42.9468,150.057 52,171.5C 55.1724,190.677 56.3391,210.01 55.5,229.5C 52.9009,229.451 50.7342,228.451 49,226.5C 42.8658,200.431 34.5325,175.098 24,150.5C 20.9315,135.216 18.0981,119.883 15.5,104.5 Z"/></g>
</svg>
