<?xml version="1.0" encoding="UTF-8"?>
<!DOCTYPE svg PUBLIC "-//W3C//DTD SVG 1.1//EN" "http://www.w3.org/Graphics/SVG/1.1/DTD/svg11.dtd">
<svg xmlns="http://www.w3.org/2000/svg" version="1.1" width="334px" height="656px" style="shape-rendering:geometricPrecision; text-rendering:geometricPrecision; image-rendering:optimizeQuality; fill-rule:evenodd; clip-rule:evenodd" xmlns:xlink="http://www.w3.org/1999/xlink">
<g><path style="opacity:1" fill="#fefefe" d="M -0.5,-0.5 C 110.833,-0.5 222.167,-0.5 333.5,-0.5C 333.5,218.167 333.5,436.833 333.5,655.5C 222.167,655.5 110.833,655.5 -0.5,655.5C -0.5,436.833 -0.5,218.167 -0.5,-0.5 Z"/></g>
<g><path style="opacity:1" fill="#0f0f0f" d="M 166.5,2.5 C 169.764,3.92744 172.264,6.26077 174,9.5C 176.393,14.6783 178.393,20.0116 180,25.5C 181.574,26.9842 182.907,28.6508 184,30.5C 186.341,42.876 189.007,55.2094 192,67.5C 192.667,74.5 192.667,81.5 192,88.5C 187.622,99.4353 185.622,110.769 186,122.5C 201.73,162.528 213.064,203.861 220,246.5C 220.53,259.408 222.196,272.075 225,284.5C 228.354,340.019 226.687,395.352 220,450.5C 215.628,473.972 210.961,497.305 206,520.5C 203.138,531.624 200.138,542.624 197,553.5C 193.415,564.917 189.415,576.25 185,587.5C 184.667,590.167 184.333,592.833 184,595.5C 179.324,602.18 176.324,609.513 175,617.5C 173,620.167 171,622.833 169,625.5C 167.542,634.744 163.709,642.744 157.5,649.5C 156.386,648.277 156.219,646.944 157,645.5C 159.488,639.19 162.488,633.19 166,627.5C 172.453,612.698 178.453,597.698 184,582.5C 185.667,575.5 187.333,568.5 189,561.5C 192.447,554.495 195.114,547.162 197,539.5C 204.13,511.316 210.464,482.982 216,454.5C 216.89,441.022 218.557,427.688 221,414.5C 222.447,378.644 222.281,342.81 220.5,307C 221.395,299.51 221.562,292.01 221,284.5C 220.529,282.754 219.862,281.087 219,279.5C 216.033,246.41 210.367,213.743 202,181.5C 199.237,176.218 197.57,170.552 197,164.5C 195.023,159.255 193.356,153.922 192,148.5C 191.333,147.833 190.667,147.167 190,146.5C 189.074,139.908 187.407,133.575 185,127.5C 179,114.167 173,100.833 167,87.5C 160.589,74.3436 153.922,61.3436 147,48.5C 141.207,41.0386 135.041,33.8719 128.5,27C 112.398,19.5904 102.064,24.257 97.5,41C 98.7364,45.7798 99.7364,50.6131 100.5,55.5C 98.7672,61.394 98.2672,67.394 99,73.5C 103.105,87.0408 107.772,100.374 113,113.5C 113.667,127.833 113.667,142.167 113,156.5C 110.103,165.2 106.436,173.533 102,181.5C 99.7487,185.126 96.5821,186.293 92.5,185C 86.469,180.308 81.969,174.475 79,167.5C 77.8333,166.333 76.6667,165.167 75.5,164C 70.3941,165.688 65.0608,166.355 59.5,166C 57.3002,163.766 55.4669,161.266 54,158.5C 51.4172,152.003 49.4172,145.336 48,138.5C 47.1314,135.606 45.2981,134.439 42.5,135C 38.5897,136.907 35.2564,139.573 32.5,143C 25.7893,145.235 19.456,148.235 13.5,152C 6.93319,154.092 3.93319,151.759 4.5,145C 4.87669,140.486 5.37669,135.986 6,131.5C 16.1461,105.013 34.3128,85.8465 60.5,74C 67.1201,69.7699 73.2868,64.9366 79,59.5C 81.6779,50.825 86.6779,43.825 94,38.5C 96.0654,31.8796 99.5654,26.0463 104.5,21C 123.921,18.1269 138.421,25.2936 148,42.5C 153.388,50.6089 157.721,59.2756 161,68.5C 163.752,71.578 166.086,74.9113 168,78.5C 168.915,77.6721 169.581,76.6721 170,75.5C 170.821,58.1415 170.487,40.8082 169,23.5C 165.674,16.7278 164.841,9.72779 166.5,2.5 Z"/></g>
<g><path style="opacity:1" fill="#f3f3f3" d="M 175.5,27.5 C 176.822,27.33 177.989,27.6634 179,28.5C 186.125,47.9142 189.125,67.9142 188,88.5C 186.378,93.0322 185.378,97.6989 185,102.5C 183.413,103.727 182.079,103.394 181,101.5C 178.692,94.2707 176.692,86.9373 175,79.5C 174.182,62.0929 174.348,44.7596 175.5,27.5 Z"/></g>
<g><path style="opacity:1" fill="#efefef" d="M 90.5,47.5 C 95.1113,48.1204 97.1113,50.7871 96.5,55.5C 96.5223,57.9649 96.0223,60.2983 95,62.5C 88.882,64.721 85.7153,62.5543 85.5,56C 85.3082,52.0348 86.9749,49.2015 90.5,47.5 Z"/></g>
<g><path style="opacity:1" fill="#fbfbfb" d="M 82.5,69.5 C 85.3646,69.0548 87.8646,69.7215 90,71.5C 90.5847,76.511 91.2514,81.511 92,86.5C 92.4171,89.422 93.4171,92.0887 95,94.5C 95.7511,111.996 92.4178,128.662 85,144.5C 79.5107,152.327 72.5107,158.327 64,162.5C 62.018,162.01 60.3513,161.01 59,159.5C 51.766,145.636 49.766,130.969 53,115.5C 55.2864,110.353 56.9531,105.019 58,99.5C 62.4141,94.3441 66.0807,88.6775 69,82.5C 73.3954,77.9357 77.8954,73.6023 82.5,69.5 Z"/></g>
<g><path style="opacity:1" fill="#fafafa" d="M 60.5,77.5 C 65.1225,76.4082 66.9558,78.0748 66,82.5C 61.4262,86.9843 58.4262,92.3176 57,98.5C 56,99.5 55,100.5 54,101.5C 51.3914,109.471 48.7248,117.471 46,125.5C 36.6703,136.402 25.1703,143.568 11.5,147C 8.01774,142.918 7.51774,138.418 10,133.5C 18.2683,109.73 33.7683,92.3967 56.5,81.5C 57.5487,79.7844 58.882,78.4511 60.5,77.5 Z"/></g>
<g><path style="opacity:1" fill="#f9f9f9" d="M 102.5,96.5 C 103.793,97.842 104.626,99.5087 105,101.5C 106.333,107.5 107.667,113.5 109,119.5C 109.857,132.871 109.524,146.204 108,159.5C 107.333,160.167 106.667,160.833 106,161.5C 106.095,170.015 102.262,175.681 94.5,178.5C 92.626,178.61 91.126,177.944 90,176.5C 87,172.5 84,168.5 81,164.5C 80.2099,161.366 80.5432,158.366 82,155.5C 91.1396,144.882 96.1396,132.548 97,118.5C 97.3333,112.167 97.6667,105.833 98,99.5C 99.6516,98.6006 101.152,97.6006 102.5,96.5 Z"/></g>
</svg>
