<?xml version="1.0" encoding="UTF-8"?>
<!DOCTYPE svg PUBLIC "-//W3C//DTD SVG 1.1//EN" "http://www.w3.org/Graphics/SVG/1.1/DTD/svg11.dtd">
<svg xmlns="http://www.w3.org/2000/svg" version="1.1" width="334px" height="656px" style="shape-rendering:geometricPrecision; text-rendering:geometricPrecision; image-rendering:optimizeQuality; fill-rule:evenodd; clip-rule:evenodd" xmlns:xlink="http://www.w3.org/1999/xlink">
<g><path style="opacity:1" fill="#fefefe" d="M -0.5,-0.5 C 110.833,-0.5 222.167,-0.5 333.5,-0.5C 333.5,218.167 333.5,436.833 333.5,655.5C 222.167,655.5 110.833,655.5 -0.5,655.5C -0.5,436.833 -0.5,218.167 -0.5,-0.5 Z"/></g>
<g><path style="opacity:1" fill="#0f0f0f" d="M 164.5,2.5 C 165.496,2.41423 166.329,2.74756 167,3.5C 167.167,5.33333 167.333,7.16667 167.5,9C 165.167,17.3393 163.667,25.8393 163,34.5C 162.333,48.1667 162.333,61.8333 163,75.5C 163.419,76.6721 164.085,77.6721 165,78.5C 166.914,74.9113 169.248,71.578 172,68.5C 178.004,53.6521 186.171,40.1521 196.5,28C 206.302,20.3252 217.302,18.3252 229.5,22C 233.989,26.8027 237.156,32.3027 239,38.5C 246.322,43.825 251.322,50.825 254,59.5C 265.046,69.2775 277.212,77.4442 290.5,84C 303.953,93.4153 314.453,105.249 322,119.5C 322.697,123.928 324.363,127.928 327,131.5C 328.179,137.801 328.513,144.135 328,150.5C 325.503,152.478 322.669,152.978 319.5,152C 313.373,148.621 307.039,145.621 300.5,143C 297.114,138.488 292.781,135.821 287.5,135C 286.299,135.903 285.465,137.069 285,138.5C 283.583,145.336 281.583,152.003 279,158.5C 277.533,161.266 275.7,163.766 273.5,166C 267.939,166.355 262.606,165.688 257.5,164C 254.129,167.236 251.629,171.069 250,175.5C 246.833,178.667 243.667,181.833 240.5,185C 235.062,185.933 231.228,183.766 229,178.5C 225.805,171.247 222.805,163.914 220,156.5C 219.333,142.167 219.333,127.833 220,113.5C 225.228,100.374 229.895,87.0408 234,73.5C 234.733,67.394 234.233,61.394 232.5,55.5C 234.099,49.5618 234.932,43.5618 235,37.5C 228.494,24.1214 218.327,20.6214 204.5,27C 192.588,37.906 183.421,50.7393 177,65.5C 160.55,97.5595 146.884,130.559 136,164.5C 135.43,170.552 133.763,176.218 131,181.5C 129.742,187.941 128.075,194.275 126,200.5C 123.25,215.582 120.25,230.582 117,245.5C 116.283,261.362 114.45,277.028 111.5,292.5C 111.681,300.876 114.181,308.542 119,315.5C 123.751,323.337 128.751,331.004 134,338.5C 136.554,345.276 139.887,351.609 144,357.5C 144.147,360.571 144.98,363.404 146.5,366C 149.739,365.615 151.405,363.615 151.5,360C 149.169,345.225 149.003,330.392 151,315.5C 153.333,305.5 155.667,295.5 158,285.5C 166.082,268.002 174.749,250.669 184,233.5C 186.734,225.965 189.067,218.298 191,210.5C 192.389,208.773 194.056,207.439 196,206.5C 196.945,206.905 197.612,207.572 198,208.5C 198.667,217.167 198.667,225.833 198,234.5C 196.404,243.129 195.071,251.796 194,260.5C 186.012,288.13 177.012,315.463 167,342.5C 167.123,347.059 165.789,351.059 163,354.5C 160.412,372.536 160.412,390.536 163,408.5C 165.371,415.959 166.704,423.626 167,431.5C 168.46,433.972 169.46,436.639 170,439.5C 176.687,476.554 178.354,513.887 175,551.5C 174,553.167 173,554.833 172,556.5C 173.399,533.206 173.732,509.873 173,486.5C 170.515,471.562 168.515,456.562 167,441.5C 160.497,417.318 153.163,393.318 145,369.5C 139.427,359.355 134.093,349.021 129,338.5C 124,330.833 119,323.167 114,315.5C 112.133,317.808 111.133,320.475 111,323.5C 110.901,353.166 111.235,382.833 112,412.5C 117.613,458.766 126.613,504.433 139,549.5C 143.268,559.068 146.268,569.068 148,579.5C 152.097,588.224 155.43,597.224 158,606.5C 163.549,619.663 169.549,632.663 176,645.5C 176.781,646.944 176.614,648.277 175.5,649.5C 169.291,642.744 165.458,634.744 164,625.5C 162.71,623.208 161.043,621.208 159,619.5C 157.34,610.841 154.007,602.841 149,595.5C 148.667,592.833 148.333,590.167 148,587.5C 143.585,576.25 139.585,564.917 136,553.5C 132.862,542.624 129.862,531.624 127,520.5C 127.177,513.366 125.511,506.7 122,500.5C 118.871,483.857 115.871,467.19 113,450.5C 111.826,436.44 110.159,422.44 108,408.5C 106.833,373.512 106.167,338.512 106,303.5C 104.277,298.387 102.277,293.387 100,288.5C 83.8958,262.626 68.5625,236.293 54,209.5C 47.7027,203.931 40.536,199.765 32.5,197C 27.0769,193.581 22.2436,189.415 18,184.5C 14.502,178.522 11.6686,172.189 9.5,165.5C 10.5797,161.296 12.913,160.463 16.5,163C 23.0112,167.423 29.3446,172.089 35.5,177C 37.6614,177.722 39.328,177.055 40.5,175C 39.5384,171.784 38.3717,168.618 37,165.5C 36.3333,156.5 36.3333,147.5 37,138.5C 38.7919,134.872 41.6253,132.539 45.5,131.5C 51.5579,133.028 56.8913,135.862 61.5,140C 72.5585,151.058 83.7251,162.225 95,173.5C 96.5843,177.675 98.9177,181.341 102,184.5C 106.72,197.401 108.387,210.734 107,224.5C 105.534,226.325 103.701,226.825 101.5,226C 86.5198,213.681 76.3531,198.181 71,179.5C 70.2317,169.102 67.8983,159.102 64,149.5C 60.1126,145.613 56.2792,141.779 52.5,138C 45.6299,134.525 41.1299,136.358 39,143.5C 38.3333,147.5 38.3333,151.5 39,155.5C 40.1922,163.735 42.1922,171.735 45,179.5C 51.9675,193.764 58.6342,208.098 65,222.5C 77.0334,242.22 88.7001,262.22 100,282.5C 102.666,288.525 105.666,288.859 109,283.5C 111.889,255.609 116.222,227.943 122,200.5C 128.921,174.068 137.255,148.068 147,122.5C 147.378,110.769 145.378,99.4353 141,88.5C 140.333,81.5 140.333,74.5 141,67.5C 143.993,55.2094 146.659,42.876 149,30.5C 153.136,24.7853 156.136,18.452 158,11.5C 159.686,8.11703 161.853,5.11703 164.5,2.5 Z"/></g>
<g><path style="opacity:1" fill="#f3f3f3" d="M 154.5,27.5 C 155.822,27.33 156.989,27.6634 158,28.5C 158.667,45.5 158.667,62.5 158,79.5C 156.308,86.9373 154.308,94.2707 152,101.5C 150.921,103.394 149.587,103.727 148,102.5C 144.699,89.3685 143.699,76.0352 145,62.5C 146.643,57.3118 147.643,51.9785 148,46.5C 150.476,40.2393 152.642,33.906 154.5,27.5 Z"/></g>
<g><path style="opacity:1" fill="#efefef" d="M 239.5,47.5 C 247.064,48.7188 249.564,53.0521 247,60.5C 243.492,64.436 240.159,64.436 237,60.5C 235.743,55.6169 236.576,51.2835 239.5,47.5 Z"/></g>
<g><path style="opacity:1" fill="#fbfbfb" d="M 244.5,69.5 C 247.32,69.2475 249.986,69.7475 252.5,71C 260.972,77.4663 267.139,85.633 271,95.5C 273.043,97.208 274.71,99.208 276,101.5C 276.403,106.446 277.736,111.113 280,115.5C 283.234,130.969 281.234,145.636 274,159.5C 272.649,161.01 270.982,162.01 269,162.5C 254.868,155.701 245.868,144.701 242,129.5C 239.742,120.286 238.242,110.952 237.5,101.5C 240.258,91.7756 242.091,81.7756 243,71.5C 243.717,70.9558 244.217,70.2891 244.5,69.5 Z"/></g>
<g><path style="opacity:1" fill="#fafafa" d="M 267.5,77.5 C 289.533,85.3394 306.366,99.6727 318,120.5C 321.02,126.877 323.187,133.544 324.5,140.5C 324.444,143.111 323.444,145.278 321.5,147C 307.83,143.568 296.33,136.402 287,125.5C 284.275,117.471 281.609,109.471 279,101.5C 276.241,98.7691 274.574,95.4358 274,91.5C 271.908,88.319 269.575,85.319 267,82.5C 266.36,80.735 266.527,79.0683 267.5,77.5 Z"/></g>
<g><path style="opacity:1" fill="#f9f9f9" d="M 229.5,96.5 C 231.386,97.3606 233.22,98.3606 235,99.5C 234.938,111.658 236.271,123.658 239,135.5C 242.497,142.498 246.497,149.165 251,155.5C 252.457,158.366 252.79,161.366 252,164.5C 248.862,169.271 245.362,173.771 241.5,178C 239.5,178.667 237.5,178.667 235.5,178C 229.894,173.954 227.06,168.454 227,161.5C 224.907,158.956 223.907,155.956 224,152.5C 221.972,133.348 223.806,114.681 229.5,96.5 Z"/></g>
<g><path style="opacity:1" fill="#f9f9f9" d="M 78.5,168.5 C 80.9892,168.298 83.3225,168.798 85.5,170C 94.5575,178.277 100.391,188.444 103,200.5C 103.807,206.416 103.641,212.25 102.5,218C 99.904,218.458 97.7373,217.625 96,215.5C 92.3333,211.167 88.6667,206.833 85,202.5C 83.1713,198.172 80.838,194.172 78,190.5C 75.5088,184.711 74.5088,178.711 75,172.5C 75.6897,170.65 76.8564,169.316 78.5,168.5 Z"/></g>
<g><path style="opacity:1" fill="#f5f5f5" d="M 18.5,170.5 C 29.7405,175.141 38.0738,182.974 43.5,194C 43.3552,194.772 43.0219,195.439 42.5,196C 40.5,196.667 38.5,196.667 36.5,196C 29.1508,190.263 22.6508,183.763 17,176.5C 16.2516,174.16 16.7516,172.16 18.5,170.5 Z"/></g>
<g><path style="opacity:1" fill="#f9f9f9" d="M 190.5,231.5 C 191.833,231.5 193.167,231.5 194.5,231.5C 191.902,246.883 189.069,262.216 186,277.5C 175.467,302.098 167.134,327.431 161,353.5C 159.266,355.451 157.099,356.451 154.5,356.5C 153.661,337.01 154.828,317.677 158,298.5C 167.053,277.057 176.72,255.724 187,234.5C 188.145,233.364 189.312,232.364 190.5,231.5 Z"/></g>
</svg>
