<?xml version="1.0" encoding="UTF-8"?>
<!DOCTYPE svg PUBLIC "-//W3C//DTD SVG 1.1//EN" "http://www.w3.org/Graphics/SVG/1.1/DTD/svg11.dtd">
<svg xmlns="http://www.w3.org/2000/svg" version="1.1" width="215px" height="651px" style="shape-rendering:geometricPrecision; text-rendering:geometricPrecision; image-rendering:optimizeQuality; fill-rule:evenodd; clip-rule:evenodd" xmlns:xlink="http://www.w3.org/1999/xlink">
<g><path style="opacity:1" fill="#fefefe" d="M -0.5,-0.5 C 27.5,-0.5 55.5,-0.5 83.5,-0.5C 75.6819,2.66329 68.5152,6.99663 62,12.5C 60.1285,15.2054 59.2952,18.2054 59.5,21.5C 60.2904,28.4789 60.6237,35.4789 60.5,42.5C 51.6137,42.1461 43.2804,43.9795 35.5,48C 33.6227,50.2513 32.1227,52.7513 31,55.5C 28.5594,62.806 26.5594,70.1394 25,77.5C 27.4626,80.9646 30.2959,84.1312 33.5,87C 38.956,90.7873 44.1226,94.954 49,99.5C 50.6871,116.728 59.1871,129.228 74.5,137C 87.2963,139.867 97.7963,136.034 106,125.5C 109.67,120.829 112.837,115.829 115.5,110.5C 122.284,126.011 128.784,141.678 135,157.5C 135.995,160.126 136.328,162.793 136,165.5C 134.413,166.727 133.079,166.394 132,164.5C 128.03,154.562 123.53,144.896 118.5,135.5C 117.635,134.417 116.635,134.251 115.5,135C 100.588,143.316 93.9218,156.15 95.5,173.5C 95.371,178.742 97.0377,183.242 100.5,187C 103.167,187.667 105.833,187.667 108.5,187C 116.122,183.523 123.455,179.523 130.5,175C 134.118,174.034 137.451,174.534 140.5,176.5C 142.76,180.524 144.26,184.858 145,189.5C 154.274,231.026 160.274,273.026 163,315.5C 165.126,343.685 164.959,371.852 162.5,400C 163.763,403.538 164.429,407.204 164.5,411C 154.095,477.264 143.428,543.43 132.5,609.5C 134.071,610.309 135.738,610.643 137.5,610.5C 147.479,549.126 158.146,487.959 169.5,427C 168.103,405.096 167.436,383.096 167.5,361C 167.407,346.136 167.907,331.303 169,316.5C 170.515,309.942 173.182,303.942 177,298.5C 183.387,291.623 190.054,284.956 197,278.5C 202.594,268.529 204.594,257.862 203,246.5C 193.481,252.349 186.481,260.349 182,270.5C 181.534,281.097 177.534,290.097 170,297.5C 167.796,283.681 164.796,270.014 161,256.5C 156.647,238.59 160.314,222.59 172,208.5C 176.372,200.014 179.038,191.014 180,181.5C 182.205,184.04 184.705,186.207 187.5,188C 192.31,189.254 196.31,188.087 199.5,184.5C 211.01,184.526 214.677,179.359 210.5,169C 212.07,160.806 209.07,154.806 201.5,151C 195.687,149.923 190.02,148.423 184.5,146.5C 183.167,146.667 181.833,146.833 180.5,147C 178.323,148.515 176.156,150.015 174,151.5C 170.545,150.45 167.045,150.283 163.5,151C 161.951,152.214 160.785,153.714 160,155.5C 158.859,162.084 159.526,168.417 162,174.5C 162.833,175.333 163.667,176.167 164.5,177C 168.268,177.977 171.768,179.477 175,181.5C 175.684,186.595 174.851,191.429 172.5,196C 163.584,188.781 154.751,180.947 146,172.5C 138.963,156.898 132.796,140.898 127.5,124.5C 135.415,124.138 143.082,122.638 150.5,120C 158.086,115.73 162.586,109.23 164,100.5C 165.091,94.9031 164.424,89.5698 162,84.5C 158.61,80.6068 154.777,77.2735 150.5,74.5C 157.553,65.5411 159.386,55.5411 156,44.5C 154.617,40.0658 152.95,35.7324 151,31.5C 149.786,29.9512 148.286,28.7845 146.5,28C 136.13,27.8042 125.796,27.1375 115.5,26C 114.672,25.0853 113.672,24.4186 112.5,24C 108.664,17.1486 104.831,10.3152 101,3.5C 98.6857,2.26675 96.5191,0.933421 94.5,-0.5C 134.5,-0.5 174.5,-0.5 214.5,-0.5C 214.5,216.5 214.5,433.5 214.5,650.5C 142.833,650.5 71.1667,650.5 -0.5,650.5C -0.5,433.5 -0.5,216.5 -0.5,-0.5 Z"/></g>
<g><path style="opacity:1" fill="#0f0f0f" d="M 83.5,-0.5 C 87.1667,-0.5 90.8333,-0.5 94.5,-0.5C 96.5191,0.933421 98.6857,2.26675 101,3.5C 104.831,10.3152 108.664,17.1486 112.5,24C 113.672,24.4186 114.672,25.0853 115.5,26C 125.796,27.1375 136.13,27.8042 146.5,28C 148.286,28.7845 149.786,29.9512 151,31.5C 152.95,35.7324 154.617,40.0658 156,44.5C 159.386,55.5411 157.553,65.5411 150.5,74.5C 154.777,77.2735 158.61,80.6068 162,84.5C 164.424,89.5698 165.091,94.9031 164,100.5C 162.586,109.23 158.086,115.73 150.5,120C 143.082,122.638 135.415,124.138 127.5,124.5C 132.796,140.898 138.963,156.898 146,172.5C 154.751,180.947 163.584,188.781 172.5,196C 174.851,191.429 175.684,186.595 175,181.5C 171.768,179.477 168.268,177.977 164.5,177C 163.667,176.167 162.833,175.333 162,174.5C 159.526,168.417 158.859,162.084 160,155.5C 160.785,153.714 161.951,152.214 163.5,151C 167.045,150.283 170.545,150.45 174,151.5C 176.156,150.015 178.323,148.515 180.5,147C 181.833,146.833 183.167,146.667 184.5,146.5C 190.02,148.423 195.687,149.923 201.5,151C 209.07,154.806 212.07,160.806 210.5,169C 214.677,179.359 211.01,184.526 199.5,184.5C 196.31,188.087 192.31,189.254 187.5,188C 184.705,186.207 182.205,184.04 180,181.5C 179.038,191.014 176.372,200.014 172,208.5C 160.314,222.59 156.647,238.59 161,256.5C 164.796,270.014 167.796,283.681 170,297.5C 177.534,290.097 181.534,281.097 182,270.5C 186.481,260.349 193.481,252.349 203,246.5C 204.594,257.862 202.594,268.529 197,278.5C 190.054,284.956 183.387,291.623 177,298.5C 173.182,303.942 170.515,309.942 169,316.5C 167.907,331.303 167.407,346.136 167.5,361C 167.436,383.096 168.103,405.096 169.5,427C 158.146,487.959 147.479,549.126 137.5,610.5C 135.738,610.643 134.071,610.309 132.5,609.5C 143.428,543.43 154.095,477.264 164.5,411C 164.429,407.204 163.763,403.538 162.5,400C 164.959,371.852 165.126,343.685 163,315.5C 160.274,273.026 154.274,231.026 145,189.5C 144.26,184.858 142.76,180.524 140.5,176.5C 137.451,174.534 134.118,174.034 130.5,175C 123.455,179.523 116.122,183.523 108.5,187C 105.833,187.667 103.167,187.667 100.5,187C 97.0377,183.242 95.371,178.742 95.5,173.5C 93.9218,156.15 100.588,143.316 115.5,135C 116.635,134.251 117.635,134.417 118.5,135.5C 123.53,144.896 128.03,154.562 132,164.5C 133.079,166.394 134.413,166.727 136,165.5C 136.328,162.793 135.995,160.126 135,157.5C 128.784,141.678 122.284,126.011 115.5,110.5C 112.837,115.829 109.67,120.829 106,125.5C 97.7963,136.034 87.2963,139.867 74.5,137C 59.1871,129.228 50.6871,116.728 49,99.5C 44.1226,94.954 38.956,90.7873 33.5,87C 30.2959,84.1312 27.4626,80.9646 25,77.5C 26.5594,70.1394 28.5594,62.806 31,55.5C 32.1227,52.7513 33.6227,50.2513 35.5,48C 43.2804,43.9795 51.6137,42.1461 60.5,42.5C 60.6237,35.4789 60.2904,28.4789 59.5,21.5C 59.2952,18.2054 60.1285,15.2054 62,12.5C 68.5152,6.99663 75.6819,2.66329 83.5,-0.5 Z"/></g>
<g><path style="opacity:1" fill="#fafafa" d="M 88.5,38.5 C 88.7678,40.099 88.4345,41.4324 87.5,42.5C 87.0847,38.5991 85.0847,36.2657 81.5,35.5C 83.41,41.1563 85.7433,46.6563 88.5,52C 75.127,50.9703 66.9603,43.8037 64,30.5C 63.3333,25.5 63.3333,20.5 64,15.5C 66.2047,12.9598 68.7047,10.7932 71.5,9C 77.2621,6.91538 82.9288,4.74871 88.5,2.5C 94.8826,4.04027 99.7159,7.70693 103,13.5C 107.682,20.3155 108.682,27.6489 106,35.5C 103.521,41.1251 100.521,46.4585 97,51.5C 95.8904,53.0368 94.3904,53.7035 92.5,53.5C 92.6664,45.16 92.4997,36.8267 92,28.5C 91,27.1667 90,27.1667 89,28.5C 88.5017,31.8168 88.335,35.1501 88.5,38.5 Z"/></g>
<g><path style="opacity:1" fill="#848484" d="M 88.5,38.5 C 89.6291,40.6282 89.7958,42.9615 89,45.5C 88.4867,44.4734 87.9867,43.4734 87.5,42.5C 88.4345,41.4324 88.7678,40.099 88.5,38.5 Z"/></g>
<g><path style="opacity:1" fill="#f8f8f8" d="M 44.5,46.5 C 62.3915,45.0175 74.8915,52.3508 82,68.5C 83.434,72.4065 83.7673,76.4065 83,80.5C 67.6506,91.7734 51.4839,93.2734 34.5,85C 28.9994,81.2843 27.1661,76.451 29,70.5C 30.7834,64.9325 33.1167,59.5992 36,54.5C 38.0738,50.9231 40.9072,48.2565 44.5,46.5 Z"/></g>
<g><path style="opacity:1" fill="#292929" d="M 54.5,53.5 C 56.9053,54.6871 59.2387,56.1871 61.5,58C 64.8333,58.3333 68.1667,58.6667 71.5,59C 72.8333,60 72.8333,61 71.5,62C 65.765,63.29 60.5983,62.1234 56,58.5C 54.9914,56.9751 54.4914,55.3084 54.5,53.5 Z"/></g>
<g><path style="opacity:1" fill="#f9f9f9" d="M 90.5,58.5 C 100.659,57.1581 104.826,61.4914 103,71.5C 97.7529,79.0116 92.0863,79.3449 86,72.5C 83.9295,66.6862 85.4295,62.0196 90.5,58.5 Z"/></g>
<g><path style="opacity:1" fill="#1a1a1a" d="M 50.5,64.5 C 53.1142,64.2771 54.7809,65.4438 55.5,68C 62.4814,71.0976 69.8147,72.2643 77.5,71.5C 77.5,72.5 77.5,73.5 77.5,74.5C 68.3396,75.6684 59.8396,74.0017 52,69.5C 50.9914,67.9751 50.4914,66.3084 50.5,64.5 Z"/></g>
<g><path style="opacity:1" fill="#868686" d="M 112.5,77.5 C 118.653,76.3467 124.986,76.18 131.5,77C 128.173,77.6103 124.839,78.1103 121.5,78.5C 118.713,77.5233 115.713,77.19 112.5,77.5 Z"/></g>
<g><path style="opacity:1" fill="#f9f9f9" d="M 121.5,78.5 C 124.839,78.1103 128.173,77.6103 131.5,77C 124.986,76.18 118.653,76.3467 112.5,77.5C 111.178,77.67 110.011,77.3366 109,76.5C 104.191,65.8491 102.858,54.8491 105,43.5C 116.944,30.7088 131.277,27.0421 148,32.5C 151.397,39.4358 152.397,46.7691 151,54.5C 149.105,60.8564 146.438,66.8564 143,72.5C 139.732,74.5263 136.232,76.0263 132.5,77C 139.202,78.5402 145.869,80.2069 152.5,82C 159.666,84.8341 162.166,90.0008 160,97.5C 156.335,106.831 150.168,113.998 141.5,119C 136.959,120.114 132.959,119.114 129.5,116C 123.822,105.986 116.989,96.8198 109,88.5C 108.104,85.975 108.604,83.8083 110.5,82C 114.021,80.3262 117.687,79.1596 121.5,78.5 Z"/></g>
<g><path style="opacity:1" fill="#212121" d="M 139.5,56.5 C 140.5,56.5 141.5,56.5 142.5,56.5C 139.083,64.2254 133.083,68.5587 124.5,69.5C 124.281,68.325 124.614,67.325 125.5,66.5C 131.58,65.078 136.247,61.7447 139.5,56.5 Z"/></g>
<g><path style="opacity:1" fill="#1b1b1b" d="M 130.5,46.5 C 131.5,46.5 132.5,46.5 133.5,46.5C 133.54,49.4245 132.707,52.0912 131,54.5C 126.567,58.7757 121.734,62.4424 116.5,65.5C 115.068,65.2668 114.568,64.6001 115,63.5C 119.667,59.5 124.333,55.5 129,51.5C 130.009,49.9751 130.509,48.3084 130.5,46.5 Z"/></g>
<g><path style="opacity:1" fill="#1d1d1d" d="M 121.5,43.5 C 122.833,43.5 124.167,43.5 125.5,43.5C 124.901,46.1685 123.234,48.0018 120.5,49C 117.039,52.7803 113.705,56.6136 110.5,60.5C 109.337,58.4503 109.504,56.4503 111,54.5C 114.03,50.3053 117.53,46.6387 121.5,43.5 Z"/></g>
<g><path style="opacity:1" fill="#272727" d="M 55.5,80.5 C 60.5111,80.3341 65.5111,80.5007 70.5,81C 71.3366,82.0113 71.67,83.1779 71.5,84.5C 63.6347,84.2476 55.8014,84.5809 48,85.5C 44.9875,84.9555 44.8208,83.7888 47.5,82C 50.3647,81.8171 53.0314,81.3171 55.5,80.5 Z"/></g>
<g><path style="opacity:1" fill="#f8f8f8" d="M 98.5,84.5 C 100.5,84.5 102.5,84.5 104.5,84.5C 106.09,89.4408 107.59,94.4408 109,99.5C 111.481,118.226 103.481,129.226 85,132.5C 81.6433,132.406 78.4767,131.573 75.5,130C 69.6579,126.246 63.9913,122.246 58.5,118C 51.3322,111.99 50.6655,105.323 56.5,98C 59.5017,95.497 62.8351,93.497 66.5,92C 77.0787,88.5236 87.7454,86.0236 98.5,84.5 Z"/></g>
<g><path style="opacity:1" fill="#1f1f1f" d="M 130.5,85.5 C 136.314,85.8239 141.148,88.1573 145,92.5C 145.483,93.448 145.649,94.448 145.5,95.5C 142.561,95.082 140.228,93.582 138.5,91C 135.899,90.0797 133.232,89.413 130.5,89C 129.316,87.8545 129.316,86.6879 130.5,85.5 Z"/></g>
<g><path style="opacity:1" fill="#1c1c1c" d="M 124.5,91.5 C 130.166,92.9688 135,95.9688 139,100.5C 139.781,101.944 139.614,103.277 138.5,104.5C 134.931,100.762 130.931,97.5955 126.5,95C 125.177,94.1841 124.511,93.0174 124.5,91.5 Z"/></g>
<g><path style="opacity:1" fill="#1d1d1d" d="M 82.5,94.5 C 85.0764,94.7218 85.9098,96.0551 85,98.5C 82.8699,101.23 80.2032,103.23 77,104.5C 75.4412,106.217 74.6079,108.217 74.5,110.5C 73.5,110.5 72.5,110.5 71.5,110.5C 71.372,108.345 71.872,106.345 73,104.5C 76.5818,101.481 79.7485,98.1477 82.5,94.5 Z"/></g>
<g><path style="opacity:1" fill="#1e1e1e" d="M 92.5,96.5 C 93.4959,96.4142 94.3292,96.7476 95,97.5C 95.6667,99.1667 95.6667,100.833 95,102.5C 91.6047,107.053 88.438,111.72 85.5,116.5C 84.5,116.167 83.8333,115.5 83.5,114.5C 85.4136,110.422 87.9136,106.755 91,103.5C 92.2022,101.323 92.7022,98.9892 92.5,96.5 Z"/></g>
<g><path style="opacity:1" fill="#1d1d1d" d="M 100.5,101.5 C 102.722,101.559 103.722,102.725 103.5,105C 102.723,109.275 101.556,113.442 100,117.5C 98.7592,119.421 97.2592,119.754 95.5,118.5C 98.255,113.145 99.9217,107.479 100.5,101.5 Z"/></g>
<g><path style="opacity:1" fill="#fafafa" d="M 111.5,144.5 C 115.426,144.047 118.592,145.38 121,148.5C 131.894,165.714 127.727,177.381 108.5,183.5C 105.542,182.62 103.709,180.62 103,177.5C 99.1256,164.661 101.959,153.661 111.5,144.5 Z"/></g>
<g><path style="opacity:1" fill="#f4f4f4" d="M 181.5,150.5 C 184.271,150.421 186.937,150.921 189.5,152C 188.424,153.726 188.257,155.559 189,157.5C 191.333,163.167 193.667,168.833 196,174.5C 198.508,181.974 196.008,185.141 188.5,184C 186.333,181.833 184.167,179.667 182,177.5C 182.516,171.885 182.516,166.218 182,160.5C 181.117,157.898 179.617,155.731 177.5,154C 178.731,152.595 180.064,151.429 181.5,150.5 Z"/></g>
<g><path style="opacity:1" fill="#f6f6f6" d="M 192.5,153.5 C 202.229,153.4 207.062,158.067 207,167.5C 204.029,169.567 200.862,169.9 197.5,168.5C 196.006,163.352 194.34,158.352 192.5,153.5 Z"/></g>
<g><path style="opacity:1" fill="#f8f8f8" d="M 166.5,153.5 C 171.787,154.061 175.62,156.728 178,161.5C 178.772,166.904 178.439,172.238 177,177.5C 174.001,175.956 170.834,174.789 167.5,174C 165.951,172.786 164.785,171.286 164,169.5C 163.333,165.167 163.333,160.833 164,156.5C 164.698,155.309 165.531,154.309 166.5,153.5 Z"/></g>
<g><path style="opacity:1" fill="#e4e4e4" d="M 199.5,173.5 C 202.5,173.5 205.5,173.5 208.5,173.5C 208.503,178.815 205.836,180.815 200.5,179.5C 200.483,177.435 200.15,175.435 199.5,173.5 Z"/></g>
<g><path style="opacity:1" fill="#f4f4f4" d="M 147.5,182.5 C 169.409,191.281 172.243,204.281 156,221.5C 152.737,208.583 149.903,195.583 147.5,182.5 Z"/></g>
<g><path style="opacity:1" fill="#f4f4f4" d="M 194.5,255.5 C 196.144,255.286 197.644,255.62 199,256.5C 198.533,266.41 194.699,274.743 187.5,281.5C 186.808,280.975 186.308,280.308 186,279.5C 185.687,270.445 188.521,262.445 194.5,255.5 Z"/></g>
</svg>
