<?xml version="1.0" encoding="UTF-8"?>
<!DOCTYPE svg PUBLIC "-//W3C//DTD SVG 1.1//EN" "http://www.w3.org/Graphics/SVG/1.1/DTD/svg11.dtd">
<svg xmlns="http://www.w3.org/2000/svg" version="1.1" width="232px" height="659px" style="shape-rendering:geometricPrecision; text-rendering:geometricPrecision; image-rendering:optimizeQuality; fill-rule:evenodd; clip-rule:evenodd" xmlns:xlink="http://www.w3.org/1999/xlink">
<g><path style="opacity:1" fill="#fdfdfd" d="M -0.5,-0.5 C 76.8333,-0.5 154.167,-0.5 231.5,-0.5C 231.5,219.167 231.5,438.833 231.5,658.5C 154.167,658.5 76.8333,658.5 -0.5,658.5C -0.5,438.833 -0.5,219.167 -0.5,-0.5 Z"/></g>
<g><path style="opacity:1" fill="#0e0e0e" d="M 92.5,5.5 C 97.8832,5.73026 102.883,7.23026 107.5,10C 111.571,15.3056 114.737,21.139 117,27.5C 118.167,30 120,31.8333 122.5,33C 132.796,34.1375 143.13,34.8042 153.5,35C 157.58,37.3125 160.08,40.8125 161,45.5C 166.685,58.2839 165.518,70.2839 157.5,81.5C 173.453,92.0504 175.953,105.384 165,121.5C 161.547,125.145 157.38,127.645 152.5,129C 146.514,129.909 140.514,130.743 134.5,131.5C 139.796,147.898 145.963,163.898 153,179.5C 161.751,187.947 170.584,195.781 179.5,203C 181.851,198.429 182.684,193.595 182,188.5C 178.768,186.477 175.268,184.977 171.5,184C 169.383,182.269 167.883,180.102 167,177.5C 166.333,172.5 166.333,167.5 167,162.5C 167.785,160.714 168.951,159.214 170.5,158C 174.045,157.283 177.545,157.45 181,158.5C 183.156,157.015 185.323,155.515 187.5,154C 188.833,153.833 190.167,153.667 191.5,153.5C 197.02,155.423 202.687,156.923 208.5,158C 216.07,161.806 219.07,167.806 217.5,176C 221.677,186.359 218.01,191.526 206.5,191.5C 203.31,195.087 199.31,196.254 194.5,195C 191.705,193.207 189.205,191.04 187,188.5C 186.272,195.41 184.606,202.077 182,208.5C 177.681,216.468 173.348,224.468 169,232.5C 166.049,242.728 165.716,253.061 168,263.5C 171.796,277.014 174.796,290.681 177,304.5C 184.534,297.097 188.534,288.097 189,277.5C 193.481,267.349 200.481,259.349 210,253.5C 211.594,264.862 209.594,275.529 204,285.5C 198.635,291.199 192.969,296.533 187,301.5C 179.699,310.113 175.699,320.113 175,331.5C 174.119,360.186 174.452,388.853 176,417.5C 177.933,425.298 180.266,432.965 183,440.5C 188.883,452.264 194.216,464.264 199,476.5C 201.634,484.636 203.301,492.97 204,501.5C 205.881,523.96 207.048,546.46 207.5,569C 208.13,594.915 205.297,620.415 199,645.5C 200.855,597.859 200.855,550.193 199,502.5C 198.474,490.002 195.807,478.002 191,466.5C 186.255,456.676 181.255,447.01 176,437.5C 164.802,497.392 154.302,557.392 144.5,617.5C 141.677,617.975 139.677,616.975 138.5,614.5C 141.857,603.029 144.357,591.362 146,579.5C 153.334,533.496 160.667,487.496 168,441.5C 169.344,415.686 159.177,395.852 137.5,382C 130.905,378.468 123.905,376.135 116.5,375C 107.833,374.667 99.1667,374.333 90.5,374C 83.8205,371.32 79.1538,366.654 76.5,360C 79.9576,356.735 84.1243,355.235 89,355.5C 90.8333,355.667 92.6667,355.833 94.5,356C 103.009,360.592 111.676,364.592 120.5,368C 103.091,349.599 87.5914,329.766 74,308.5C 71.646,304.797 70.146,300.797 69.5,296.5C 59.9096,300.195 51.2429,298.695 43.5,292C 40.465,288.63 37.1317,285.63 33.5,283C 26.6758,283.312 20.3425,281.812 14.5,278.5C 13.0465,276.356 13.3799,274.523 15.5,273C 22.841,272.556 29.5077,274.556 35.5,279C 41.3181,285.154 47.9848,290.154 55.5,294C 59.2364,294.61 62.9031,294.277 66.5,293C 67.0219,292.439 67.3552,291.772 67.5,291C 65.9486,282.586 65.1152,274.086 65,265.5C 63.314,260.606 60.1474,257.106 55.5,255C 43.0064,250.391 30.673,245.391 18.5,240C 12.943,236.556 9.94304,231.556 9.5,225C 13.6175,221.85 17.4508,218.35 21,214.5C 23.4467,210.396 25.4467,206.062 27,201.5C 32.6373,192.43 39.804,191.097 48.5,197.5C 55.7856,180.16 67.4523,176.66 83.5,187C 92.034,191.558 94.8673,198.391 92,207.5C 67.4665,234.511 61.7998,265.178 75,299.5C 83.2268,312.394 92.2268,324.727 102,336.5C 124.333,360.833 146.667,385.167 169,409.5C 174.227,333.769 167.56,259.103 149,185.5C 146.089,181.723 142.256,180.556 137.5,182C 131.167,185.667 124.833,189.333 118.5,193C 109.298,197.231 104.131,194.398 103,184.5C 102.681,175.691 103.681,167.025 106,158.5C 109.739,150.427 115.739,144.76 124,141.5C 130.025,150.883 135.025,160.883 139,171.5C 140.079,173.394 141.413,173.727 143,172.5C 143.328,169.793 142.995,167.126 142,164.5C 135.784,148.678 129.284,133.011 122.5,117.5C 117.037,130.13 108.037,139.297 95.5,145C 79.7417,145.531 68.2417,138.697 61,124.5C 58.315,118.779 56.6483,112.779 56,106.5C 51.1226,101.954 45.956,97.7873 40.5,94C 37.2959,91.1312 34.4626,87.9646 32,84.5C 33.5594,77.1394 35.5594,69.806 38,62.5C 40.1932,55.9831 44.6932,52.1498 51.5,51C 56.8076,50.1697 62.1409,49.6697 67.5,49.5C 67.6237,42.4789 67.2904,35.4789 66.5,28.5C 66.5706,21.8607 69.5706,17.0274 75.5,14C 81.2585,11.1207 86.9252,8.28739 92.5,5.5 Z"/></g>
<g><path style="opacity:1" fill="#fafafa" d="M 95.5,45.5 C 95.7678,47.099 95.4345,48.4324 94.5,49.5C 94.0847,45.5991 92.0847,43.2657 88.5,42.5C 90.41,48.1563 92.7433,53.6563 95.5,59C 82.127,57.9703 73.9603,50.8037 71,37.5C 70.3333,32.5 70.3333,27.5 71,22.5C 73.2047,19.9598 75.7047,17.7932 78.5,16C 84.2621,13.9154 89.9288,11.7487 95.5,9.5C 101.883,11.0403 106.716,14.7069 110,20.5C 114.682,27.3155 115.682,34.6489 113,42.5C 110.521,48.1251 107.521,53.4585 104,58.5C 102.89,60.0368 101.39,60.7035 99.5,60.5C 99.6664,52.16 99.4997,43.8267 99,35.5C 98,34.1667 97,34.1667 96,35.5C 95.5017,38.8168 95.335,42.1501 95.5,45.5 Z"/></g>
<g><path style="opacity:1" fill="#848484" d="M 95.5,45.5 C 96.6291,47.6282 96.7958,49.9615 96,52.5C 95.4867,51.4734 94.9867,50.4734 94.5,49.5C 95.4345,48.4324 95.7678,47.099 95.5,45.5 Z"/></g>
<g><path style="opacity:1" fill="#f8f8f8" d="M 51.5,53.5 C 69.3915,52.0175 81.8915,59.3508 89,75.5C 90.434,79.4065 90.7673,83.4065 90,87.5C 74.6506,98.7734 58.4839,100.273 41.5,92C 35.9994,88.2843 34.1661,83.451 36,77.5C 37.7834,71.9325 40.1167,66.5992 43,61.5C 45.0738,57.9231 47.9072,55.2565 51.5,53.5 Z"/></g>
<g><path style="opacity:1" fill="#292929" d="M 61.5,60.5 C 63.9053,61.6871 66.2387,63.1871 68.5,65C 71.8333,65.3333 75.1667,65.6667 78.5,66C 79.8333,67 79.8333,68 78.5,69C 72.765,70.29 67.5983,69.1234 63,65.5C 61.9914,63.9751 61.4914,62.3084 61.5,60.5 Z"/></g>
<g><path style="opacity:1" fill="#f9f9f9" d="M 97.5,65.5 C 107.659,64.1581 111.826,68.4914 110,78.5C 104.753,86.0116 99.0863,86.3449 93,79.5C 90.9295,73.6862 92.4295,69.0196 97.5,65.5 Z"/></g>
<g><path style="opacity:1" fill="#1a1a1a" d="M 57.5,71.5 C 60.1142,71.2771 61.7809,72.4438 62.5,75C 69.4814,78.0976 76.8147,79.2643 84.5,78.5C 84.5,79.5 84.5,80.5 84.5,81.5C 75.3396,82.6684 66.8396,81.0017 59,76.5C 57.9914,74.9751 57.4914,73.3084 57.5,71.5 Z"/></g>
<g><path style="opacity:1" fill="#868686" d="M 119.5,84.5 C 125.653,83.3467 131.986,83.18 138.5,84C 135.173,84.6103 131.839,85.1103 128.5,85.5C 125.713,84.5233 122.713,84.19 119.5,84.5 Z"/></g>
<g><path style="opacity:1" fill="#f9f9f9" d="M 128.5,85.5 C 131.839,85.1103 135.173,84.6103 138.5,84C 131.986,83.18 125.653,83.3467 119.5,84.5C 118.178,84.67 117.011,84.3366 116,83.5C 111.191,72.8491 109.858,61.8491 112,50.5C 123.944,37.7088 138.277,34.0421 155,39.5C 158.397,46.4358 159.397,53.7691 158,61.5C 156.105,67.8564 153.438,73.8564 150,79.5C 146.732,81.5263 143.232,83.0263 139.5,84C 146.202,85.5402 152.869,87.2069 159.5,89C 166.666,91.8341 169.166,97.0008 167,104.5C 163.335,113.831 157.168,120.998 148.5,126C 143.959,127.114 139.959,126.114 136.5,123C 130.822,112.986 123.989,103.82 116,95.5C 115.104,92.975 115.604,90.8083 117.5,89C 121.021,87.3262 124.687,86.1596 128.5,85.5 Z"/></g>
<g><path style="opacity:1" fill="#212121" d="M 146.5,63.5 C 147.5,63.5 148.5,63.5 149.5,63.5C 146.083,71.2254 140.083,75.5587 131.5,76.5C 131.281,75.325 131.614,74.325 132.5,73.5C 138.58,72.078 143.247,68.7447 146.5,63.5 Z"/></g>
<g><path style="opacity:1" fill="#1b1b1b" d="M 137.5,53.5 C 138.5,53.5 139.5,53.5 140.5,53.5C 140.54,56.4245 139.707,59.0912 138,61.5C 133.567,65.7757 128.734,69.4424 123.5,72.5C 122.068,72.2668 121.568,71.6001 122,70.5C 126.667,66.5 131.333,62.5 136,58.5C 137.009,56.9751 137.509,55.3084 137.5,53.5 Z"/></g>
<g><path style="opacity:1" fill="#1d1d1d" d="M 128.5,50.5 C 129.833,50.5 131.167,50.5 132.5,50.5C 131.901,53.1685 130.234,55.0018 127.5,56C 124.039,59.7803 120.705,63.6136 117.5,67.5C 116.337,65.4503 116.504,63.4503 118,61.5C 121.03,57.3053 124.53,53.6387 128.5,50.5 Z"/></g>
<g><path style="opacity:1" fill="#272727" d="M 62.5,87.5 C 67.5111,87.3341 72.5111,87.5007 77.5,88C 78.3366,89.0113 78.67,90.1779 78.5,91.5C 70.6347,91.2476 62.8014,91.5809 55,92.5C 51.9875,91.9555 51.8208,90.7888 54.5,89C 57.3647,88.8171 60.0314,88.3171 62.5,87.5 Z"/></g>
<g><path style="opacity:1" fill="#f8f8f8" d="M 105.5,91.5 C 107.5,91.5 109.5,91.5 111.5,91.5C 113.09,96.4408 114.59,101.441 116,106.5C 118.481,125.226 110.481,136.226 92,139.5C 88.6433,139.406 85.4767,138.573 82.5,137C 76.6579,133.246 70.9913,129.246 65.5,125C 58.3322,118.99 57.6655,112.323 63.5,105C 66.5017,102.497 69.8351,100.497 73.5,99C 84.0787,95.5236 94.7454,93.0236 105.5,91.5 Z"/></g>
<g><path style="opacity:1" fill="#1f1f1f" d="M 137.5,92.5 C 143.314,92.8239 148.148,95.1573 152,99.5C 152.483,100.448 152.649,101.448 152.5,102.5C 149.561,102.082 147.228,100.582 145.5,98C 142.899,97.0797 140.232,96.413 137.5,96C 136.316,94.8545 136.316,93.6879 137.5,92.5 Z"/></g>
<g><path style="opacity:1" fill="#1c1c1c" d="M 131.5,98.5 C 137.166,99.9688 142,102.969 146,107.5C 146.781,108.944 146.614,110.277 145.5,111.5C 141.931,107.762 137.931,104.596 133.5,102C 132.177,101.184 131.511,100.017 131.5,98.5 Z"/></g>
<g><path style="opacity:1" fill="#1d1d1d" d="M 89.5,101.5 C 92.0764,101.722 92.9098,103.055 92,105.5C 89.8699,108.23 87.2032,110.23 84,111.5C 82.4412,113.217 81.6079,115.217 81.5,117.5C 80.5,117.5 79.5,117.5 78.5,117.5C 78.372,115.345 78.872,113.345 80,111.5C 83.5818,108.481 86.7485,105.148 89.5,101.5 Z"/></g>
<g><path style="opacity:1" fill="#1e1e1e" d="M 99.5,103.5 C 100.496,103.414 101.329,103.748 102,104.5C 102.667,106.167 102.667,107.833 102,109.5C 98.6047,114.053 95.438,118.72 92.5,123.5C 91.5,123.167 90.8333,122.5 90.5,121.5C 92.4136,117.422 94.9136,113.755 98,110.5C 99.2022,108.323 99.7022,105.989 99.5,103.5 Z"/></g>
<g><path style="opacity:1" fill="#1d1d1d" d="M 107.5,108.5 C 109.722,108.559 110.722,109.725 110.5,112C 109.723,116.275 108.556,120.442 107,124.5C 105.759,126.421 104.259,126.754 102.5,125.5C 105.255,120.145 106.922,114.479 107.5,108.5 Z"/></g>
<g><path style="opacity:1" fill="#fafafa" d="M 118.5,151.5 C 122.426,151.047 125.592,152.38 128,155.5C 138.894,172.714 134.727,184.381 115.5,190.5C 112.542,189.62 110.709,187.62 110,184.5C 106.126,171.661 108.959,160.661 118.5,151.5 Z"/></g>
<g><path style="opacity:1" fill="#f4f4f4" d="M 188.5,157.5 C 191.271,157.421 193.937,157.921 196.5,159C 195.424,160.726 195.257,162.559 196,164.5C 198.333,170.167 200.667,175.833 203,181.5C 205.508,188.974 203.008,192.141 195.5,191C 193.333,188.833 191.167,186.667 189,184.5C 189.516,178.885 189.516,173.218 189,167.5C 188.117,164.898 186.617,162.731 184.5,161C 185.731,159.595 187.064,158.429 188.5,157.5 Z"/></g>
<g><path style="opacity:1" fill="#f6f6f6" d="M 199.5,160.5 C 209.229,160.4 214.062,165.067 214,174.5C 211.029,176.567 207.862,176.9 204.5,175.5C 203.006,170.352 201.34,165.352 199.5,160.5 Z"/></g>
<g><path style="opacity:1" fill="#f7f7f7" d="M 173.5,160.5 C 178.787,161.061 182.62,163.728 185,168.5C 185.772,173.904 185.439,179.238 184,184.5C 171.781,182.396 167.447,175.396 171,163.5C 171.698,162.309 172.531,161.309 173.5,160.5 Z"/></g>
<g><path style="opacity:1" fill="#e4e4e4" d="M 206.5,180.5 C 209.5,180.5 212.5,180.5 215.5,180.5C 215.503,185.815 212.836,187.815 207.5,186.5C 207.483,184.435 207.15,182.435 206.5,180.5 Z"/></g>
<g><path style="opacity:1" fill="#fbfbfb" d="M 63.5,185.5 C 73.6512,185.325 81.8179,189.325 88,197.5C 90.4264,204.996 88.093,210.663 81,214.5C 76.1627,221.504 71.8294,228.837 68,236.5C 61.2333,229.962 56.2333,222.295 53,213.5C 50.7321,201.846 54.2321,192.513 63.5,185.5 Z"/></g>
<g><path style="opacity:1" fill="#f4f4f4" d="M 154.5,189.5 C 176.409,198.281 179.243,211.281 163,228.5C 159.737,215.583 156.903,202.583 154.5,189.5 Z"/></g>
<g><path style="opacity:1" fill="#f9f9f9" d="M 34.5,198.5 C 39.2309,199.778 43.7309,201.778 48,204.5C 49.2502,219.167 55.4169,231.334 66.5,241C 64.8749,243.82 62.8749,244.153 60.5,242C 50.6667,234.833 40.8333,227.667 31,220.5C 26.7275,212.156 27.8942,204.822 34.5,198.5 Z"/></g>
<g><path style="opacity:1" fill="#f6f6f6" d="M 23.5,222.5 C 34.6905,227.713 44.5239,235.046 53,244.5C 53.3742,245.416 53.8742,246.25 54.5,247C 42.8993,243.684 31.566,239.35 20.5,234C 17.8999,231.016 16.8999,227.516 17.5,223.5C 19.7354,223.795 21.7354,223.461 23.5,222.5 Z"/></g>
<g><path style="opacity:1" fill="#f4f4f4" d="M 201.5,262.5 C 203.144,262.286 204.644,262.62 206,263.5C 205.533,273.41 201.699,281.743 194.5,288.5C 193.808,287.975 193.308,287.308 193,286.5C 192.687,277.445 195.521,269.445 201.5,262.5 Z"/></g>
<g><path style="opacity:1" fill="#f3f3f3" d="M 86.5,359.5 C 93.6624,360.829 100.496,363.163 107,366.5C 107.667,367.5 107.667,368.5 107,369.5C 100.74,370.932 94.5729,370.432 88.5,368C 84.1206,365.985 83.454,363.151 86.5,359.5 Z"/></g>
</svg>
