<?xml version="1.0" encoding="UTF-8"?>
<!DOCTYPE svg PUBLIC "-//W3C//DTD SVG 1.1//EN" "http://www.w3.org/Graphics/SVG/1.1/DTD/svg11.dtd">
<svg xmlns="http://www.w3.org/2000/svg" version="1.1" width="215px" height="651px" style="shape-rendering:geometricPrecision; text-rendering:geometricPrecision; image-rendering:optimizeQuality; fill-rule:evenodd; clip-rule:evenodd" xmlns:xlink="http://www.w3.org/1999/xlink">
<g><path style="opacity:1" fill="#fefefe" d="M -0.5,-0.5 C 39.5,-0.5 79.5,-0.5 119.5,-0.5C 117.481,0.933421 115.314,2.26675 113,3.5C 109.169,10.3152 105.336,17.1486 101.5,24C 99.6079,24.9734 97.6079,25.6401 95.5,26C 86.1934,27.0162 76.8601,27.6828 67.5,28C 65.714,28.7845 64.214,29.9512 63,31.5C 57.6605,41.1906 55.6605,51.5239 57,62.5C 58.3896,66.9475 60.5562,70.9475 63.5,74.5C 47.5474,85.0504 45.0474,98.3837 56,114.5C 58.8922,117.057 62.0589,119.224 65.5,121C 72.3964,122.749 79.3964,123.916 86.5,124.5C 81.2035,140.898 75.0369,156.898 68,172.5C 59.2489,180.947 50.4155,188.781 41.5,196C 39.1489,191.429 38.3156,186.595 39,181.5C 41.2283,179.032 44.0617,177.865 47.5,178C 50.7284,176.437 52.8951,173.937 54,170.5C 54.6667,165.5 54.6667,160.5 54,155.5C 53.2155,153.714 52.0488,152.214 50.5,151C 46.9551,150.283 43.4551,150.45 40,151.5C 37.8439,150.015 35.6772,148.515 33.5,147C 32.1667,146.833 30.8333,146.667 29.5,146.5C 24.5608,147.942 19.5608,149.108 14.5,150C 5.65446,153.478 1.98779,159.811 3.5,169C -0.65814,179.375 3.00853,184.542 14.5,184.5C 15.3636,186.197 16.6969,187.363 18.5,188C 25.1245,189.346 30.2912,187.18 34,181.5C 34.9615,191.014 37.6282,200.014 42,208.5C 53.6865,222.59 57.3532,238.59 53,256.5C 49.2094,269.995 46.2094,283.662 44,297.5C 36.4662,290.097 32.4662,281.097 32,270.5C 27.5194,260.349 20.5194,252.349 11,246.5C 9.40596,257.862 11.406,268.529 17,278.5C 23.9459,284.956 30.6126,291.623 37,298.5C 40.8183,303.942 43.4849,309.942 45,316.5C 46.0934,331.303 46.5934,346.136 46.5,361C 46.5638,383.096 45.8972,405.096 44.5,427C 55.854,487.959 66.5207,549.126 76.5,610.5C 78.5,610.167 80.5,609.833 82.5,609.5C 79.0254,595.325 76.1921,580.991 74,566.5C 65.935,514.533 57.7684,462.7 49.5,411C 49.5707,407.204 50.2373,403.538 51.5,400C 48.6594,353.376 50.1594,306.876 56,260.5C 59.9155,236.754 64.2489,213.088 69,189.5C 69.74,184.858 71.24,180.524 73.5,176.5C 77.3212,174.056 81.3212,173.89 85.5,176C 91.6697,179.919 98.0031,183.586 104.5,187C 114.7,188.639 119.367,184.139 118.5,173.5C 120.078,156.15 113.412,143.316 98.5,135C 97.365,134.251 96.365,134.417 95.5,135.5C 90.4696,144.896 85.9696,154.562 82,164.5C 80.9207,166.394 79.5874,166.727 78,165.5C 77.6717,162.793 78.005,160.126 79,157.5C 85.3333,141.833 91.6667,126.167 98,110.5C 103.833,123 113,132.167 125.5,138C 140.28,138.524 151.447,132.357 159,119.5C 162.213,113.193 164.213,106.527 165,99.5C 169.877,94.954 175.044,90.7873 180.5,87C 183.704,84.1312 186.537,80.9646 189,77.5C 187.441,70.1394 185.441,62.806 183,55.5C 180.31,48.3983 175.143,44.565 167.5,44C 162.882,43.006 158.215,42.506 153.5,42.5C 153.376,35.4789 153.71,28.4789 154.5,21.5C 154.429,14.8607 151.429,10.0274 145.5,7C 140.439,4.46962 135.439,1.96962 130.5,-0.5C 158.5,-0.5 186.5,-0.5 214.5,-0.5C 214.5,216.5 214.5,433.5 214.5,650.5C 142.833,650.5 71.1667,650.5 -0.5,650.5C -0.5,433.5 -0.5,216.5 -0.5,-0.5 Z"/></g>
<g><path style="opacity:1" fill="#0f0f0f" d="M 119.5,-0.5 C 123.167,-0.5 126.833,-0.5 130.5,-0.5C 135.439,1.96962 140.439,4.46962 145.5,7C 151.429,10.0274 154.429,14.8607 154.5,21.5C 153.71,28.4789 153.376,35.4789 153.5,42.5C 158.215,42.506 162.882,43.006 167.5,44C 175.143,44.565 180.31,48.3983 183,55.5C 185.441,62.806 187.441,70.1394 189,77.5C 186.537,80.9646 183.704,84.1312 180.5,87C 175.044,90.7873 169.877,94.954 165,99.5C 164.213,106.527 162.213,113.193 159,119.5C 151.447,132.357 140.28,138.524 125.5,138C 113,132.167 103.833,123 98,110.5C 91.6667,126.167 85.3333,141.833 79,157.5C 78.005,160.126 77.6717,162.793 78,165.5C 79.5874,166.727 80.9207,166.394 82,164.5C 85.9696,154.562 90.4696,144.896 95.5,135.5C 96.365,134.417 97.365,134.251 98.5,135C 113.412,143.316 120.078,156.15 118.5,173.5C 119.367,184.139 114.7,188.639 104.5,187C 98.0031,183.586 91.6697,179.919 85.5,176C 81.3212,173.89 77.3212,174.056 73.5,176.5C 71.24,180.524 69.74,184.858 69,189.5C 64.2489,213.088 59.9155,236.754 56,260.5C 50.1594,306.876 48.6594,353.376 51.5,400C 50.2373,403.538 49.5707,407.204 49.5,411C 57.7684,462.7 65.935,514.533 74,566.5C 76.1921,580.991 79.0254,595.325 82.5,609.5C 80.5,609.833 78.5,610.167 76.5,610.5C 66.5207,549.126 55.854,487.959 44.5,427C 45.8972,405.096 46.5638,383.096 46.5,361C 46.5934,346.136 46.0934,331.303 45,316.5C 43.4849,309.942 40.8183,303.942 37,298.5C 30.6126,291.623 23.9459,284.956 17,278.5C 11.406,268.529 9.40596,257.862 11,246.5C 20.5194,252.349 27.5194,260.349 32,270.5C 32.4662,281.097 36.4662,290.097 44,297.5C 46.2094,283.662 49.2094,269.995 53,256.5C 57.3532,238.59 53.6865,222.59 42,208.5C 37.6282,200.014 34.9615,191.014 34,181.5C 30.2912,187.18 25.1245,189.346 18.5,188C 16.6969,187.363 15.3636,186.197 14.5,184.5C 3.00853,184.542 -0.65814,179.375 3.5,169C 1.98779,159.811 5.65446,153.478 14.5,150C 19.5608,149.108 24.5608,147.942 29.5,146.5C 30.8333,146.667 32.1667,146.833 33.5,147C 35.6772,148.515 37.8439,150.015 40,151.5C 43.4551,150.45 46.9551,150.283 50.5,151C 52.0488,152.214 53.2155,153.714 54,155.5C 54.6667,160.5 54.6667,165.5 54,170.5C 52.8951,173.937 50.7284,176.437 47.5,178C 44.0617,177.865 41.2283,179.032 39,181.5C 38.3156,186.595 39.1489,191.429 41.5,196C 50.4155,188.781 59.2489,180.947 68,172.5C 75.0369,156.898 81.2035,140.898 86.5,124.5C 79.3964,123.916 72.3964,122.749 65.5,121C 62.0589,119.224 58.8922,117.057 56,114.5C 45.0474,98.3837 47.5474,85.0504 63.5,74.5C 60.5562,70.9475 58.3896,66.9475 57,62.5C 55.6605,51.5239 57.6605,41.1906 63,31.5C 64.214,29.9512 65.714,28.7845 67.5,28C 76.8601,27.6828 86.1934,27.0162 95.5,26C 97.6079,25.6401 99.6079,24.9734 101.5,24C 105.336,17.1486 109.169,10.3152 113,3.5C 115.314,2.26675 117.481,0.933421 119.5,-0.5 Z"/></g>
<g><path style="opacity:1" fill="#fafafa" d="M 126.5,42.5 C 125.566,41.4324 125.232,40.099 125.5,38.5C 125.5,34.8333 125.5,31.1667 125.5,27.5C 124.178,27.33 123.011,27.6634 122,28.5C 121.5,36.8267 121.334,45.16 121.5,53.5C 119.61,53.7035 118.11,53.0368 117,51.5C 113.479,46.4585 110.479,41.1251 108,35.5C 105.043,23.2209 108.543,13.0542 118.5,5C 120.639,3.59609 122.972,2.76276 125.5,2.5C 132.15,5.22172 138.817,8.05505 145.5,11C 147,12.5 148.5,14 150,15.5C 153.043,31.912 147.21,43.7454 132.5,51C 130.179,51.8365 127.845,52.1699 125.5,52C 128.257,46.6563 130.59,41.1563 132.5,35.5C 128.915,36.2657 126.915,38.5991 126.5,42.5 Z"/></g>
<g><path style="opacity:1" fill="#848484" d="M 125.5,38.5 C 125.232,40.099 125.566,41.4324 126.5,42.5C 126.013,43.4734 125.513,44.4734 125,45.5C 124.204,42.9615 124.371,40.6282 125.5,38.5 Z"/></g>
<g><path style="opacity:1" fill="#f8f8f8" d="M 156.5,46.5 C 162.402,45.962 168.068,46.7953 173.5,49C 180.11,57.055 184.443,66.2216 186.5,76.5C 182.323,83.9312 175.989,88.4312 167.5,90C 153.954,92.072 141.787,88.9053 131,80.5C 131.015,62.8048 139.515,51.4715 156.5,46.5 Z"/></g>
<g><path style="opacity:1" fill="#2a2a2a" d="M 156.5,53.5 C 157.5,53.5 158.5,53.5 159.5,53.5C 159.528,55.5824 158.861,57.4157 157.5,59C 152.94,62.1737 147.94,63.1737 142.5,62C 141.167,61 141.167,60 142.5,59C 145.833,58.6667 149.167,58.3333 152.5,58C 154.751,57.2525 156.084,55.7525 156.5,53.5 Z"/></g>
<g><path style="opacity:1" fill="#fafafa" d="M 115.5,58.5 C 126.406,57.5584 130.573,62.225 128,72.5C 122.853,78.4807 117.519,78.814 112,73.5C 109.206,67.4076 110.373,62.4076 115.5,58.5 Z"/></g>
<g><path style="opacity:1" fill="#1b1b1b" d="M 160.5,64.5 C 161.5,64.5 162.5,64.5 163.5,64.5C 163.531,68.5971 161.531,71.0971 157.5,72C 150.692,74.2219 143.692,75.0552 136.5,74.5C 136.5,73.5 136.5,72.5 136.5,71.5C 144.135,71.9575 151.469,70.7909 158.5,68C 159.305,66.8873 159.972,65.7206 160.5,64.5 Z"/></g>
<g><path style="opacity:1" fill="#848484" d="M 101.5,77.5 C 98.2869,77.19 95.2869,77.5233 92.5,78.5C 89.1606,78.1103 85.8273,77.6103 82.5,77C 89.0137,76.18 95.3471,76.3467 101.5,77.5 Z"/></g>
<g><path style="opacity:1" fill="#f9f9f9" d="M 101.5,77.5 C 95.3471,76.3467 89.0137,76.18 82.5,77C 85.8273,77.6103 89.1606,78.1103 92.5,78.5C 96.9725,79.4889 101.139,81.1555 105,83.5C 105.667,85.1667 105.667,86.8333 105,88.5C 97.0112,96.8198 90.1779,105.986 84.5,116C 78.8333,120.667 73.1667,120.667 67.5,116C 44.7416,93.1653 49.4083,80.1653 81.5,77C 77.7047,76.1856 74.2047,74.6856 71,72.5C 64.15,62.1389 61.4833,50.8056 63,38.5C 64.1227,35.7513 65.6227,33.2513 67.5,31C 76.9893,29.8956 86.3226,30.5623 95.5,33C 104.135,36.4457 109.135,42.6124 110.5,51.5C 110.374,60.2202 108.541,68.5535 105,76.5C 103.989,77.3366 102.822,77.67 101.5,77.5 Z"/></g>
<g><path style="opacity:1" fill="#212121" d="M 71.5,56.5 C 75.1311,57.6076 78.1311,59.7742 80.5,63C 83.3093,64.7411 86.3093,65.9078 89.5,66.5C 89.5,67.5 89.5,68.5 89.5,69.5C 82.3769,68.5683 76.5436,65.235 72,59.5C 71.5172,58.552 71.3505,57.552 71.5,56.5 Z"/></g>
<g><path style="opacity:1" fill="#1b1b1b" d="M 80.5,46.5 C 81.5,46.5 82.5,46.5 83.5,46.5C 83.4914,48.3084 83.9914,49.9751 85,51.5C 89.6667,55.5 94.3333,59.5 99,63.5C 99.4317,64.6001 98.9317,65.2668 97.5,65.5C 92.2663,62.4424 87.433,58.7757 83,54.5C 81.2932,52.0912 80.4598,49.4245 80.5,46.5 Z"/></g>
<g><path style="opacity:1" fill="#1d1d1d" d="M 88.5,43.5 C 95.5603,45.3793 100.727,49.7126 104,56.5C 104.781,57.9437 104.614,59.277 103.5,60.5C 99.8607,54.8607 95.194,50.194 89.5,46.5C 88.6143,45.675 88.281,44.675 88.5,43.5 Z"/></g>
<g><path style="opacity:1" fill="#282828" d="M 143.5,80.5 C 151.208,80.3583 158.875,80.8583 166.5,82C 167.357,82.6891 168.023,83.5224 168.5,84.5C 159.893,84.7519 151.226,84.7519 142.5,84.5C 142.433,83.0413 142.766,81.7079 143.5,80.5 Z"/></g>
<g><path style="opacity:1" fill="#f9f9f9" d="M 109.5,84.5 C 124.79,85.4894 139.456,88.9894 153.5,95C 160.923,99.3417 163.09,105.508 160,113.5C 152.06,121.549 142.893,127.715 132.5,132C 111.551,131.315 102.385,120.481 105,99.5C 106.41,94.4408 107.91,89.4408 109.5,84.5 Z"/></g>
<g><path style="opacity:1" fill="#212121" d="M 78.5,85.5 C 80.1992,85.3398 81.8659,85.5065 83.5,86C 84.4506,86.7175 84.6172,87.5509 84,88.5C 78.8232,88.6721 74.6565,90.8388 71.5,95C 70.552,95.4828 69.552,95.6495 68.5,95.5C 68.3505,94.448 68.5172,93.448 69,92.5C 71.7901,89.535 74.9567,87.2016 78.5,85.5 Z"/></g>
<g><path style="opacity:1" fill="#1c1c1c" d="M 85.5,91.5 C 86.9778,91.238 88.3112,91.5713 89.5,92.5C 84.8736,96.4899 80.2069,100.49 75.5,104.5C 74.3861,103.277 74.2195,101.944 75,100.5C 78.6646,97.6005 82.1646,94.6005 85.5,91.5 Z"/></g>
<g><path style="opacity:1" fill="#1d1d1d" d="M 129.5,94.5 C 132.458,97.4387 135.791,100.105 139.5,102.5C 141.623,104.745 142.623,107.412 142.5,110.5C 141.5,110.5 140.5,110.5 139.5,110.5C 139.392,108.217 138.559,106.217 137,104.5C 133.797,103.23 131.13,101.23 129,98.5C 128.421,97.0715 128.588,95.7382 129.5,94.5 Z"/></g>
<g><path style="opacity:1" fill="#1e1e1e" d="M 119.5,96.5 C 122.969,102.373 126.636,108.373 130.5,114.5C 130.167,115.5 129.5,116.167 128.5,116.5C 125.562,111.72 122.395,107.053 119,102.5C 118.322,100.402 118.489,98.4024 119.5,96.5 Z"/></g>
<g><path style="opacity:1" fill="#1b1b1b" d="M 110.5,102.5 C 111.5,102.5 112.5,102.5 113.5,102.5C 114.238,108.116 115.905,113.45 118.5,118.5C 116.741,119.754 115.241,119.421 114,117.5C 112.042,112.671 110.876,107.671 110.5,102.5 Z"/></g>
<g><path style="opacity:1" fill="#fafafa" d="M 97.5,144.5 C 102.029,144.496 105.529,146.496 108,150.5C 113.552,160.673 113.885,171.006 109,181.5C 108.196,182.804 107.029,183.471 105.5,183.5C 86.2731,177.381 82.1065,165.714 93,148.5C 94.3968,146.93 95.8968,145.596 97.5,144.5 Z"/></g>
<g><path style="opacity:1" fill="#f3f3f3" d="M 26.5,150.5 C 30.4952,149.883 33.8285,151.049 36.5,154C 34.3834,155.731 32.8834,157.898 32,160.5C 31.4835,166.218 31.4835,171.885 32,177.5C 29.4771,180.877 26.3104,183.21 22.5,184.5C 18.6831,184.347 17.0165,182.347 17.5,178.5C 19.8123,171.452 22.3123,164.452 25,157.5C 25.7429,155.559 25.5762,153.726 24.5,152C 25.4158,151.722 26.0825,151.222 26.5,150.5 Z"/></g>
<g><path style="opacity:1" fill="#f2f2f2" d="M 15.5,153.5 C 17.5,153.5 19.5,153.5 21.5,153.5C 19.6604,158.352 17.9938,163.352 16.5,168.5C 13.0968,171.199 9.93008,170.866 7,167.5C 6.33333,165.5 6.33333,163.5 7,161.5C 9.1565,158.024 11.9898,155.357 15.5,153.5 Z"/></g>
<g><path style="opacity:1" fill="#f8f8f8" d="M 44.5,153.5 C 46.9928,153.329 48.8261,154.329 50,156.5C 50.6667,160.833 50.6667,165.167 50,169.5C 49.2155,171.286 48.0488,172.786 46.5,174C 43.1662,174.789 39.9995,175.956 37,177.5C 35.5615,172.238 35.2282,166.904 36,161.5C 38.0738,157.923 40.9072,155.256 44.5,153.5 Z"/></g>
<g><path style="opacity:1" fill="#e4e4e4" d="M 5.5,173.5 C 8.57186,173.183 11.5719,173.516 14.5,174.5C 13.6906,176.071 13.3573,177.738 13.5,179.5C 8.16402,180.815 5.49736,178.815 5.5,173.5 Z"/></g>
<g><path style="opacity:1" fill="#f4f4f4" d="M 64.5,182.5 C 65.4972,182.47 66.1639,182.97 66.5,184C 63.9344,196.56 61.1011,209.06 58,221.5C 42.2418,205.382 44.4085,192.382 64.5,182.5 Z"/></g>
<g><path style="opacity:1" fill="#f4f4f4" d="M 15.5,255.5 C 18.3245,255.081 20.4912,256.081 22,258.5C 24,262.5 26,266.5 28,270.5C 28.6667,273.5 28.6667,276.5 28,279.5C 27.6924,280.308 27.1924,280.975 26.5,281.5C 19.8682,275.318 15.8682,267.652 14.5,258.5C 14.685,257.416 15.0183,256.416 15.5,255.5 Z"/></g>
</svg>
