<?xml version="1.0" encoding="UTF-8"?>
<!DOCTYPE svg PUBLIC "-//W3C//DTD SVG 1.1//EN" "http://www.w3.org/Graphics/SVG/1.1/DTD/svg11.dtd">
<svg xmlns="http://www.w3.org/2000/svg" version="1.1" width="232px" height="659px" style="shape-rendering:geometricPrecision; text-rendering:geometricPrecision; image-rendering:optimizeQuality; fill-rule:evenodd; clip-rule:evenodd" xmlns:xlink="http://www.w3.org/1999/xlink">
<g><path style="opacity:1" fill="#fdfdfd" d="M -0.5,-0.5 C 76.8333,-0.5 154.167,-0.5 231.5,-0.5C 231.5,219.167 231.5,438.833 231.5,658.5C 154.167,658.5 76.8333,658.5 -0.5,658.5C -0.5,438.833 -0.5,219.167 -0.5,-0.5 Z"/></g>
<g><path style="opacity:1" fill="#0f0f0f" d="M 135.5,5.5 C 145.399,8.25116 154.232,12.9178 162,19.5C 163.872,22.2054 164.705,25.2054 164.5,28.5C 163.71,35.4789 163.376,42.4789 163.5,49.5C 172.318,49.411 180.651,51.2444 188.5,55C 190.377,57.2513 191.877,59.7513 193,62.5C 195.441,69.806 197.441,77.1394 199,84.5C 196.537,87.9646 193.704,91.1312 190.5,94C 185.044,97.7873 179.877,101.954 175,106.5C 173.314,122.723 165.481,134.89 151.5,143C 143.109,146.827 135.109,146.161 127.5,141C 119.551,134.383 113.051,126.55 108,117.5C 101.667,133.167 95.3333,148.833 89,164.5C 88.005,167.126 87.6717,169.793 88,172.5C 89.5874,173.727 90.9207,173.394 92,171.5C 95.9749,160.883 100.975,150.883 107,141.5C 118.188,146.205 124.854,154.538 127,166.5C 129.111,174.985 128.778,183.319 126,191.5C 122.743,194.428 118.909,195.262 114.5,194C 107.147,189.967 99.8134,185.967 92.5,182C 86.3409,180.161 82.5076,182.328 81,188.5C 71.8551,227.37 65.5218,266.703 62,306.5C 58.985,340.854 58.985,375.187 62,409.5C 84.3333,385.167 106.667,360.833 129,336.5C 136.333,327.167 143.667,317.833 151,308.5C 161.236,291.207 164.903,272.54 162,252.5C 160.749,244.492 158.415,236.826 155,229.5C 150.44,221.607 145.107,214.273 139,207.5C 136.028,199.936 137.861,193.769 144.5,189C 148.674,186.412 153.007,184.079 157.5,182C 164.564,180.255 170.731,181.755 176,186.5C 178.167,190.167 180.333,193.833 182.5,197.5C 191.145,191.246 198.312,192.579 204,201.5C 205.553,206.062 207.553,210.396 210,214.5C 213.549,218.35 217.383,221.85 221.5,225C 221.057,231.556 218.057,236.556 212.5,240C 200.28,245.277 187.947,250.277 175.5,255C 170.853,257.106 167.686,260.606 166,265.5C 165.663,274.589 164.996,283.589 164,292.5C 167.595,294.456 171.428,294.956 175.5,294C 183.015,290.154 189.682,285.154 195.5,279C 199.038,276.731 202.705,274.731 206.5,273C 209.5,272.333 212.5,272.333 215.5,273C 218.172,275.679 217.838,278.012 214.5,280C 209.029,281.954 203.362,282.954 197.5,283C 191.592,289.582 184.592,294.582 176.5,298C 171.673,298.884 167.006,298.384 162.5,296.5C 157.614,307.943 151.447,318.61 144,328.5C 133.189,341.945 122.023,355.112 110.5,368C 118.449,365.195 126.115,361.528 133.5,357C 141.116,354.391 148.116,355.391 154.5,360C 151.754,367.079 146.754,371.746 139.5,374C 105.073,369.955 80.573,383.455 66,414.5C 62.8824,423.263 61.8824,432.263 63,441.5C 70.333,487.496 77.6663,533.496 85,579.5C 86.8589,591.993 89.3589,604.326 92.5,616.5C 90.5,616.833 88.5,617.167 86.5,617.5C 76.6984,557.392 66.1984,497.392 55,437.5C 45.5148,452.8 38.5148,469.133 34,486.5C 33.3333,491.833 32.6667,497.167 32,502.5C 30.1454,550.193 30.1454,597.859 32,645.5C 25.7031,620.415 22.8698,594.915 23.5,569C 23.9518,546.46 25.1185,523.96 27,501.5C 27.6994,492.97 29.3661,484.636 32,476.5C 36.7841,464.264 42.1175,452.264 48,440.5C 50.7338,432.965 53.0671,425.298 55,417.5C 56.5477,388.853 56.881,360.186 56,331.5C 55.3014,320.113 51.3014,310.113 44,301.5C 38.0315,296.533 32.3648,291.199 27,285.5C 21.406,275.529 19.406,264.862 21,253.5C 30.5194,259.349 37.5194,267.349 42,277.5C 42.4662,288.097 46.4662,297.097 54,304.5C 56.2094,290.662 59.2094,276.995 63,263.5C 65.2845,253.061 64.9512,242.728 62,232.5C 57.6521,224.468 53.3188,216.468 49,208.5C 46.3942,202.077 44.7275,195.41 44,188.5C 40.2912,194.18 35.1245,196.346 28.5,195C 26.6969,194.363 25.3636,193.197 24.5,191.5C 13.0085,191.542 9.34186,186.375 13.5,176C 11.9878,166.811 15.6545,160.478 24.5,157C 29.5608,156.108 34.5608,154.942 39.5,153.5C 40.8333,153.667 42.1667,153.833 43.5,154C 45.6772,155.515 47.8439,157.015 50,158.5C 53.4551,157.45 56.9551,157.283 60.5,158C 62.0488,159.214 63.2155,160.714 64,162.5C 65.1411,169.084 64.4744,175.417 62,181.5C 59.2689,184.712 55.7689,186.212 51.5,186C 48.6508,188.559 47.8175,191.726 49,195.5C 49.4523,198.149 50.2857,200.649 51.5,203C 60.4155,195.781 69.2489,187.947 78,179.5C 85.0369,163.898 91.2035,147.898 96.5,131.5C 86.4389,131.486 77.1056,128.986 68.5,124C 59.7335,114.441 57.5668,103.608 62,91.5C 65.39,87.6068 69.2233,84.2735 73.5,81.5C 66.4472,72.5411 64.6139,62.5411 68,51.5C 69.5523,45.8253 72.0523,40.6586 75.5,36C 85.4242,34.756 95.4242,33.756 105.5,33C 107.608,32.6401 109.608,31.9734 111.5,31C 115.336,24.1486 119.169,17.3152 123,10.5C 126.888,7.79409 131.055,6.12742 135.5,5.5 Z"/></g>
<g><path style="opacity:1" fill="#fafafa" d="M 136.5,49.5 C 135.566,48.4324 135.232,47.099 135.5,45.5C 135.5,41.8333 135.5,38.1667 135.5,34.5C 134.178,34.33 133.011,34.6634 132,35.5C 131.5,43.8267 131.334,52.16 131.5,60.5C 129.61,60.7035 128.11,60.0368 127,58.5C 123.479,53.4585 120.479,48.1251 118,42.5C 115.043,30.2209 118.543,20.0542 128.5,12C 130.639,10.5961 132.972,9.76276 135.5,9.5C 142.15,12.2217 148.817,15.055 155.5,18C 157,19.5 158.5,21 160,22.5C 163.043,38.912 157.21,50.7454 142.5,58C 140.179,58.8365 137.845,59.1699 135.5,59C 138.257,53.6563 140.59,48.1563 142.5,42.5C 138.915,43.2657 136.915,45.5991 136.5,49.5 Z"/></g>
<g><path style="opacity:1" fill="#848484" d="M 135.5,45.5 C 135.232,47.099 135.566,48.4324 136.5,49.5C 136.013,50.4734 135.513,51.4734 135,52.5C 134.204,49.9615 134.371,47.6282 135.5,45.5 Z"/></g>
<g><path style="opacity:1" fill="#f8f8f8" d="M 166.5,53.5 C 172.402,52.962 178.068,53.7953 183.5,56C 190.11,64.055 194.443,73.2216 196.5,83.5C 192.323,90.9312 185.989,95.4312 177.5,97C 163.954,99.072 151.787,95.9053 141,87.5C 141.015,69.8048 149.515,58.4715 166.5,53.5 Z"/></g>
<g><path style="opacity:1" fill="#2a2a2a" d="M 166.5,60.5 C 167.5,60.5 168.5,60.5 169.5,60.5C 169.528,62.5824 168.861,64.4157 167.5,66C 162.94,69.1737 157.94,70.1737 152.5,69C 151.167,68 151.167,67 152.5,66C 155.833,65.6667 159.167,65.3333 162.5,65C 164.751,64.2525 166.084,62.7525 166.5,60.5 Z"/></g>
<g><path style="opacity:1" fill="#fafafa" d="M 125.5,65.5 C 136.406,64.5584 140.573,69.225 138,79.5C 132.853,85.4807 127.519,85.814 122,80.5C 119.206,74.4076 120.373,69.4076 125.5,65.5 Z"/></g>
<g><path style="opacity:1" fill="#1b1b1b" d="M 170.5,71.5 C 171.5,71.5 172.5,71.5 173.5,71.5C 173.531,75.5971 171.531,78.0971 167.5,79C 160.692,81.2219 153.692,82.0552 146.5,81.5C 146.5,80.5 146.5,79.5 146.5,78.5C 154.135,78.9575 161.469,77.7909 168.5,75C 169.305,73.8873 169.972,72.7206 170.5,71.5 Z"/></g>
<g><path style="opacity:1" fill="#848484" d="M 111.5,84.5 C 108.287,84.19 105.287,84.5233 102.5,85.5C 99.1606,85.1103 95.8273,84.6103 92.5,84C 99.0137,83.18 105.347,83.3467 111.5,84.5 Z"/></g>
<g><path style="opacity:1" fill="#f9f9f9" d="M 111.5,84.5 C 105.347,83.3467 99.0137,83.18 92.5,84C 95.8273,84.6103 99.1606,85.1103 102.5,85.5C 106.973,86.4889 111.139,88.1555 115,90.5C 115.667,92.1667 115.667,93.8333 115,95.5C 107.011,103.82 100.178,112.986 94.5,123C 88.8333,127.667 83.1667,127.667 77.5,123C 54.7416,100.165 59.4083,87.1653 91.5,84C 87.7047,83.1856 84.2047,81.6856 81,79.5C 74.15,69.1389 71.4833,57.8056 73,45.5C 74.1227,42.7513 75.6227,40.2513 77.5,38C 86.9893,36.8956 96.3226,37.5623 105.5,40C 114.135,43.4457 119.135,49.6124 120.5,58.5C 120.374,67.2202 118.541,75.5535 115,83.5C 113.989,84.3366 112.822,84.67 111.5,84.5 Z"/></g>
<g><path style="opacity:1" fill="#212121" d="M 81.5,63.5 C 85.1311,64.6076 88.1311,66.7742 90.5,70C 93.3093,71.7411 96.3093,72.9078 99.5,73.5C 99.5,74.5 99.5,75.5 99.5,76.5C 92.3769,75.5683 86.5436,72.235 82,66.5C 81.5172,65.552 81.3505,64.552 81.5,63.5 Z"/></g>
<g><path style="opacity:1" fill="#1b1b1b" d="M 90.5,53.5 C 91.5,53.5 92.5,53.5 93.5,53.5C 93.4914,55.3084 93.9914,56.9751 95,58.5C 99.6667,62.5 104.333,66.5 109,70.5C 109.432,71.6001 108.932,72.2668 107.5,72.5C 102.266,69.4424 97.433,65.7757 93,61.5C 91.2932,59.0912 90.4598,56.4245 90.5,53.5 Z"/></g>
<g><path style="opacity:1" fill="#1d1d1d" d="M 98.5,50.5 C 105.56,52.3793 110.727,56.7126 114,63.5C 114.781,64.9437 114.614,66.277 113.5,67.5C 109.861,61.8607 105.194,57.194 99.5,53.5C 98.6143,52.675 98.281,51.675 98.5,50.5 Z"/></g>
<g><path style="opacity:1" fill="#282828" d="M 153.5,87.5 C 161.208,87.3583 168.875,87.8583 176.5,89C 177.357,89.6891 178.023,90.5224 178.5,91.5C 169.893,91.7519 161.226,91.7519 152.5,91.5C 152.433,90.0413 152.766,88.7079 153.5,87.5 Z"/></g>
<g><path style="opacity:1" fill="#f9f9f9" d="M 119.5,91.5 C 134.79,92.4894 149.456,95.9894 163.5,102C 170.923,106.342 173.09,112.508 170,120.5C 162.06,128.549 152.893,134.715 142.5,139C 121.551,138.315 112.385,127.481 115,106.5C 116.41,101.441 117.91,96.4408 119.5,91.5 Z"/></g>
<g><path style="opacity:1" fill="#212121" d="M 88.5,92.5 C 90.1992,92.3398 91.8659,92.5065 93.5,93C 94.4506,93.7175 94.6172,94.5509 94,95.5C 88.8232,95.6721 84.6565,97.8388 81.5,102C 80.552,102.483 79.552,102.649 78.5,102.5C 78.3505,101.448 78.5172,100.448 79,99.5C 81.7901,96.535 84.9567,94.2016 88.5,92.5 Z"/></g>
<g><path style="opacity:1" fill="#1c1c1c" d="M 95.5,98.5 C 96.9778,98.238 98.3112,98.5713 99.5,99.5C 94.8736,103.49 90.2069,107.49 85.5,111.5C 84.3861,110.277 84.2195,108.944 85,107.5C 88.6646,104.601 92.1646,101.601 95.5,98.5 Z"/></g>
<g><path style="opacity:1" fill="#1d1d1d" d="M 139.5,101.5 C 142.458,104.439 145.791,107.105 149.5,109.5C 151.623,111.745 152.623,114.412 152.5,117.5C 151.5,117.5 150.5,117.5 149.5,117.5C 149.392,115.217 148.559,113.217 147,111.5C 143.797,110.23 141.13,108.23 139,105.5C 138.421,104.072 138.588,102.738 139.5,101.5 Z"/></g>
<g><path style="opacity:1" fill="#1e1e1e" d="M 129.5,103.5 C 132.969,109.373 136.636,115.373 140.5,121.5C 140.167,122.5 139.5,123.167 138.5,123.5C 135.562,118.72 132.395,114.053 129,109.5C 128.322,107.402 128.489,105.402 129.5,103.5 Z"/></g>
<g><path style="opacity:1" fill="#1b1b1b" d="M 120.5,109.5 C 121.5,109.5 122.5,109.5 123.5,109.5C 124.238,115.116 125.905,120.45 128.5,125.5C 126.741,126.754 125.241,126.421 124,124.5C 122.042,119.671 120.876,114.671 120.5,109.5 Z"/></g>
<g><path style="opacity:1" fill="#fafafa" d="M 107.5,151.5 C 112.029,151.496 115.529,153.496 118,157.5C 123.552,167.673 123.885,178.006 119,188.5C 118.196,189.804 117.029,190.471 115.5,190.5C 96.2731,184.381 92.1065,172.714 103,155.5C 104.397,153.93 105.897,152.596 107.5,151.5 Z"/></g>
<g><path style="opacity:1" fill="#f3f3f3" d="M 36.5,157.5 C 40.4952,156.883 43.8285,158.049 46.5,161C 44.3834,162.731 42.8834,164.898 42,167.5C 41.4835,173.218 41.4835,178.885 42,184.5C 39.4771,187.877 36.3104,190.21 32.5,191.5C 28.6831,191.347 27.0165,189.347 27.5,185.5C 29.8123,178.452 32.3123,171.452 35,164.5C 35.7429,162.559 35.5762,160.726 34.5,159C 35.4158,158.722 36.0825,158.222 36.5,157.5 Z"/></g>
<g><path style="opacity:1" fill="#f2f2f2" d="M 25.5,160.5 C 27.5,160.5 29.5,160.5 31.5,160.5C 29.6604,165.352 27.9938,170.352 26.5,175.5C 23.0968,178.199 19.9301,177.866 17,174.5C 16.3333,172.5 16.3333,170.5 17,168.5C 19.1565,165.024 21.9898,162.357 25.5,160.5 Z"/></g>
<g><path style="opacity:1" fill="#f6f6f6" d="M 54.5,160.5 C 56.4835,160.383 58.1502,161.05 59.5,162.5C 63.8893,174.723 59.7226,182.057 47,184.5C 45.5615,179.238 45.2282,173.904 46,168.5C 48.0738,164.923 50.9072,162.256 54.5,160.5 Z"/></g>
<g><path style="opacity:1" fill="#e4e4e4" d="M 15.5,180.5 C 18.5719,180.183 21.5719,180.516 24.5,181.5C 23.6906,183.071 23.3573,184.738 23.5,186.5C 18.164,187.815 15.4974,185.815 15.5,180.5 Z"/></g>
<g><path style="opacity:1" fill="#fbfbfb" d="M 158.5,185.5 C 169.552,185.035 176.052,190.369 178,201.5C 178.984,207.693 178.318,213.693 176,219.5C 172.433,225.736 168.1,231.403 163,236.5C 158.363,226.198 152.03,217.198 144,209.5C 141.247,205.667 140.914,201.667 143,197.5C 147.423,192.391 152.59,188.391 158.5,185.5 Z"/></g>
<g><path style="opacity:1" fill="#f4f4f4" d="M 74.5,189.5 C 75.4972,189.47 76.1639,189.97 76.5,191C 73.9344,203.56 71.1011,216.06 68,228.5C 52.2418,212.382 54.4085,199.382 74.5,189.5 Z"/></g>
<g><path style="opacity:1" fill="#f9f9f9" d="M 192.5,198.5 C 196.876,199.024 200.043,201.357 202,205.5C 202.977,210.734 202.31,215.734 200,220.5C 190.167,227.667 180.333,234.833 170.5,242C 168.125,244.153 166.125,243.82 164.5,241C 175.583,231.334 181.75,219.167 183,204.5C 186.485,202.85 189.651,200.85 192.5,198.5 Z"/></g>
<g><path style="opacity:1" fill="#f7f7f7" d="M 203.5,222.5 C 206.784,222.723 209.951,223.39 213,224.5C 214.027,228.18 213.194,231.347 210.5,234C 199.278,238.958 187.944,243.291 176.5,247C 180.132,242.366 184.132,238.033 188.5,234C 193.929,230.631 198.929,226.798 203.5,222.5 Z"/></g>
<g><path style="opacity:1" fill="#f4f4f4" d="M 25.5,262.5 C 28.3245,262.081 30.4912,263.081 32,265.5C 34,269.5 36,273.5 38,277.5C 38.6667,280.5 38.6667,283.5 38,286.5C 37.6924,287.308 37.1924,287.975 36.5,288.5C 29.8682,282.318 25.8682,274.652 24.5,265.5C 24.685,264.416 25.0183,263.416 25.5,262.5 Z"/></g>
<g><path style="opacity:1" fill="#f4f4f4" d="M 138.5,359.5 C 143.993,358.178 146.493,360.178 146,365.5C 139.108,369.412 131.775,370.745 124,369.5C 123.289,367.633 123.789,366.133 125.5,365C 130.209,363.827 134.542,361.993 138.5,359.5 Z"/></g>
</svg>
