<?xml version="1.0" encoding="UTF-8"?>
<!DOCTYPE svg PUBLIC "-//W3C//DTD SVG 1.1//EN" "http://www.w3.org/Graphics/SVG/1.1/DTD/svg11.dtd">
<svg xmlns="http://www.w3.org/2000/svg" version="1.1" width="385px" height="712px" style="shape-rendering:geometricPrecision; text-rendering:geometricPrecision; image-rendering:optimizeQuality; fill-rule:evenodd; clip-rule:evenodd" xmlns:xlink="http://www.w3.org/1999/xlink">
<g><path style="opacity:1" fill="#fefffe" d="M -0.5,-0.5 C 127.833,-0.5 256.167,-0.5 384.5,-0.5C 384.5,236.833 384.5,474.167 384.5,711.5C 256.167,711.5 127.833,711.5 -0.5,711.5C -0.5,474.167 -0.5,236.833 -0.5,-0.5 Z"/></g>
<g><path style="opacity:1" fill="#000000" d="M 277.5,6.5 C 296.642,5.16945 310.142,13.1694 318,30.5C 318.75,31.1258 319.584,31.6258 320.5,32C 325.536,30.1711 330.869,29.0044 336.5,28.5C 343.278,27.6996 348.112,30.3663 351,36.5C 360.711,53.3348 364.711,71.3348 363,90.5C 361.428,96.6364 358.094,101.636 353,105.5C 355.728,125.482 349.561,141.982 334.5,155C 330.557,157.804 326.223,159.804 321.5,161C 307.485,161.457 293.485,161.457 279.5,161C 286.778,166.621 288.778,173.455 285.5,181.5C 280.415,178.876 275.582,175.876 271,172.5C 270.667,172.833 270.333,173.167 270,173.5C 263.215,195.482 256.048,217.315 248.5,239C 262.604,234.302 276.937,229.969 291.5,226C 295.563,216.923 301.563,209.256 309.5,203C 315.026,198.64 320.693,194.474 326.5,190.5C 328.683,191.692 330.016,193.525 330.5,196C 328.083,203.665 325.25,211.165 322,218.5C 318.919,221.293 315.419,223.46 311.5,225C 302.822,227.671 294.156,230.337 285.5,233C 294.395,239.616 304.061,244.95 314.5,249C 315.706,251.709 314.706,253.375 311.5,254C 301.705,257.504 292.038,257.171 282.5,253C 277.403,249.567 272.069,246.567 266.5,244C 259.245,242.78 252.412,243.946 246,247.5C 195.698,402.081 132.365,551.081 56,694.5C 54.0188,698.361 52.1855,698.361 50.5,694.5C 93.366,615.44 131.866,534.44 166,451.5C 203.145,358.904 236.645,264.904 266.5,169.5C 258.483,168.474 250.483,167.307 242.5,166C 241.483,164.951 241.316,163.784 242,162.5C 245.611,159.614 249.444,157.114 253.5,155C 249.536,154.019 246.203,152.019 243.5,149C 227.968,146.802 219.135,137.968 217,122.5C 216.225,115.962 216.391,109.462 217.5,103C 204.336,95.5064 199.169,84.3397 202,69.5C 202.667,68.1667 203.333,66.8333 204,65.5C 208,62.1667 212,58.8333 216,55.5C 219.981,45.6967 225.814,37.1967 233.5,30C 239.713,25.3748 246.713,23.3748 254.5,24C 259.246,14.2971 266.913,8.46378 277.5,6.5 Z"/></g>
<g><path style="opacity:1" fill="#fefffe" d="M 276.5,11.5 C 288.785,9.53878 299.118,13.0388 307.5,22C 289.167,20.8905 273.333,26.7239 260,39.5C 259.09,34.3356 259.59,29.3356 261.5,24.5C 260.58,21.4694 261.58,18.9694 264.5,17C 268.481,14.8381 272.481,13.0048 276.5,11.5 Z"/></g>
<g><path style="opacity:1" fill="#fefffe" d="M 294.5,26.5 C 300.654,26.1783 306.654,26.845 312.5,28.5C 313.881,33.4051 314.881,38.4051 315.5,43.5C 314.502,50.8148 313.669,58.1481 313,65.5C 310.333,68.8333 307.667,72.1667 305,75.5C 303.943,73.7806 303.11,71.9472 302.5,70C 310.072,56.0566 307.072,45.0566 293.5,37C 288.637,34.9344 283.637,33.2678 278.5,32C 283.846,29.8303 289.179,27.997 294.5,26.5 Z"/></g>
<g><path style="opacity:1" fill="#fefffe" d="M 247.5,28.5 C 249.833,28.5 252.167,28.5 254.5,28.5C 254.335,32.1817 254.501,35.8484 255,39.5C 255.5,40.6667 256.333,41.5 257.5,42C 252.997,45.7546 247.997,48.7546 242.5,51C 236.45,56.26 232.284,62.76 230,70.5C 228.729,63.853 226.562,57.5197 223.5,51.5C 227.679,39.6509 235.679,31.9842 247.5,28.5 Z"/></g>
<g><path style="opacity:1" fill="#fefffe" d="M 330.5,33.5 C 338.248,31.5849 344.082,33.9183 348,40.5C 356.603,56.5588 359.936,73.5588 358,91.5C 356.392,94.772 354.392,97.772 352,100.5C 350.48,90.4549 345.647,82.4549 337.5,76.5C 336.469,62.7021 332.802,49.7021 326.5,37.5C 327.867,36.16 329.2,34.8267 330.5,33.5 Z"/></g>
<g><path style="opacity:1" fill="#fefffe" d="M 274.5,36.5 C 284.036,37.1764 292.203,40.843 299,47.5C 303.577,53.9037 303.577,60.2371 299,66.5C 290.79,51.9087 279.29,48.4087 264.5,56C 253.818,63.8611 248.985,74.3611 250,87.5C 250.557,89.6147 251.391,91.6147 252.5,93.5C 258.273,97.4718 263.773,101.805 269,106.5C 270.233,108.866 271.066,111.366 271.5,114C 270.407,116.734 270.407,119.4 271.5,122C 267.231,122.266 263.231,121.266 259.5,119C 252.865,111.364 245.865,104.03 238.5,97C 234.892,95.7111 231.892,93.7111 229.5,91C 230.683,79.3922 234.517,68.5588 241,58.5C 245.582,54.4553 250.749,51.2886 256.5,49C 260.389,45.8643 264.055,42.5309 267.5,39C 269.927,38.0977 272.26,37.2644 274.5,36.5 Z"/></g>
<g><path style="opacity:1" fill="#fefffe" d="M 319.5,36.5 C 324.818,42.8076 328.318,50.1409 330,58.5C 331.505,67.113 331.839,75.7797 331,84.5C 321.754,98.0827 309.754,108.416 295,115.5C 294.828,111.061 296.161,107.061 299,103.5C 304,99.1667 309,94.8333 314,90.5C 315.439,88.7254 316.439,86.7254 317,84.5C 317.637,68.561 318.471,52.561 319.5,36.5 Z"/></g>
<g><path style="opacity:1" fill="#fefffe" d="M 220.5,56.5 C 222.749,60.4557 224.249,64.7891 225,69.5C 225.5,76.8258 225.666,84.1591 225.5,91.5C 222.167,90.8333 220.167,92.1667 219.5,95.5C 218.635,96.5827 217.635,96.7494 216.5,96C 206.607,89.6574 203.44,80.8241 207,69.5C 211.976,65.6913 216.476,61.358 220.5,56.5 Z"/></g>
<g><path style="opacity:1" fill="#fefffe" d="M 266.5,59.5 C 267.239,59.369 267.906,59.5357 268.5,60C 258.399,69.0521 257.066,79.0521 264.5,90C 283.658,97.9549 299.824,93.7882 313,77.5C 313.245,81.443 312.245,85.1097 310,88.5C 303.501,92.5787 297.834,97.5787 293,103.5C 291.22,107.995 290.054,112.662 289.5,117.5C 284.659,119.967 279.659,120.967 274.5,120.5C 277.2,112.011 275.2,104.844 268.5,99C 263.093,96.5842 258.593,93.0842 255,88.5C 253.823,76.8535 257.656,67.1869 266.5,59.5 Z"/></g>
<g><path style="opacity:1" fill="#fefffe" d="M 336.5,81.5 C 341.007,85.188 344.173,89.8546 346,95.5C 347.536,105.782 347.87,116.115 347,126.5C 344.369,136.481 339.202,144.981 331.5,152C 325.009,155.689 318.009,157.523 310.5,157.5C 299.335,156.82 288.168,156.153 277,155.5C 274.958,155.615 272.958,155.949 271,156.5C 264.276,154.592 257.776,152.092 251.5,149C 277.038,148.476 298.871,139.31 317,121.5C 326.431,109.638 332.931,96.3045 336.5,81.5 Z"/></g>
<g><path style="opacity:1" fill="#fefffe" d="M 323.5,101.5 C 318.21,114.291 309.544,124.124 297.5,131C 290.538,135.101 283.204,138.434 275.5,141C 265.942,141.676 256.442,142.843 247,144.5C 228.746,142.574 220.246,132.407 221.5,114C 221.393,108.057 222.059,102.224 223.5,96.5C 228.69,96.9258 233.357,98.7591 237.5,102C 243.857,109.356 250.524,116.356 257.5,123C 265.2,126.823 273.2,127.49 281.5,125C 289.075,122.586 296.408,119.586 303.5,116C 310.343,111.311 317.01,106.477 323.5,101.5 Z"/></g>
<g><path style="opacity:1" fill="#fefffe" d="M 323.5,101.5 C 323.461,100.244 323.961,99.2438 325,98.5C 325.585,99.9976 325.085,100.998 323.5,101.5 Z"/></g>
<g><path style="opacity:1" fill="#fefffe" d="M 259.5,158.5 C 262.313,158.548 264.979,159.215 267.5,160.5C 268.429,161.689 268.762,163.022 268.5,164.5C 262.438,164.055 256.438,163.222 250.5,162C 253.459,160.396 256.459,159.229 259.5,158.5 Z"/></g>
<g><path style="opacity:1" fill="#fefffe" d="M 273.5,162.5 C 278.937,164.754 281.771,168.754 282,174.5C 278.588,171.877 275.088,169.377 271.5,167C 272.267,165.53 272.933,164.03 273.5,162.5 Z"/></g>
<g><path style="opacity:1" fill="#fefffe" d="M 323.5,197.5 C 324.239,197.369 324.906,197.536 325.5,198C 323.004,204.15 320.504,210.316 318,216.5C 311.501,220.534 304.668,222.867 297.5,223.5C 304.548,213.118 313.215,204.452 323.5,197.5 Z"/></g>
<g><path style="opacity:1" fill="#fefffe" d="M 279.5,233.5 C 287.293,240.238 295.959,245.738 305.5,250C 299.936,251.85 294.269,251.85 288.5,250C 280.945,246.055 273.278,242.389 265.5,239C 270.159,236.842 274.825,235.009 279.5,233.5 Z"/></g>
</svg>
