<?xml version="1.0" encoding="UTF-8"?>
<!DOCTYPE svg PUBLIC "-//W3C//DTD SVG 1.1//EN" "http://www.w3.org/Graphics/SVG/1.1/DTD/svg11.dtd">
<svg xmlns="http://www.w3.org/2000/svg" version="1.1" width="90px" height="427px" style="shape-rendering:geometricPrecision; text-rendering:geometricPrecision; image-rendering:optimizeQuality; fill-rule:evenodd; clip-rule:evenodd" xmlns:xlink="http://www.w3.org/1999/xlink">
<g><path style="opacity:1" fill="#fdfdfd" d="M -0.5,-0.5 C 29.5,-0.5 59.5,-0.5 89.5,-0.5C 89.5,141.833 89.5,284.167 89.5,426.5C 59.5,426.5 29.5,426.5 -0.5,426.5C -0.5,284.167 -0.5,141.833 -0.5,-0.5 Z"/></g>
<g><path style="opacity:1" fill="#111111" d="M 22.5,5.5 C 35.4557,8.62131 44.6224,16.288 50,28.5C 52.5906,38.8139 51.7573,48.8139 47.5,58.5C 49.5588,70.5194 51.7255,82.5194 54,94.5C 56.9804,90.3525 60.4804,86.6859 64.5,83.5C 66.8996,75.4238 72.2329,71.0905 80.5,70.5C 80.6334,74.5991 79.4667,78.2657 77,81.5C 73.6284,84.2689 69.7951,86.1022 65.5,87C 60.5108,90.6295 57.1775,95.2962 55.5,101C 56.4268,107.154 57.2601,113.321 58,119.5C 58.2304,152.007 58.7304,184.507 59.5,217C 57.7822,255.511 55.2822,294.011 52,332.5C 48.8778,360.689 44.5445,388.689 39,416.5C 37,419.167 35,419.167 33,416.5C 36.5762,395.939 39.9096,375.273 43,354.5C 48.3083,305.643 51.3083,256.643 52,207.5C 52.6667,178.833 52.6667,150.167 52,121.5C 49.8167,104.039 46.8167,86.7058 43,69.5C 32.5997,60.3526 24.9331,49.3526 20,36.5C 19.4087,26.808 19.742,17.1413 21,7.5C 21.7172,6.9558 22.2172,6.28913 22.5,5.5 Z"/></g>
<g><path style="opacity:1" fill="#f9f9f9" d="M 26.5,13.5 C 40.4352,19.6165 46.6018,30.2832 45,45.5C 43.9797,49.4018 42.4797,53.0685 40.5,56.5C 27.48,45.1037 22.8133,30.7704 26.5,13.5 Z"/></g>
<g><path style="opacity:1" fill="#e6e6e6" d="M 75.5,73.5 C 76.4972,73.4701 77.1639,73.9701 77.5,75C 76.0108,79.7108 73.0108,81.8775 68.5,81.5C 70.1691,78.1697 72.5025,75.5031 75.5,73.5 Z"/></g>
</svg>
