<?xml version="1.0" encoding="UTF-8"?>
<!DOCTYPE svg PUBLIC "-//W3C//DTD SVG 1.1//EN" "http://www.w3.org/Graphics/SVG/1.1/DTD/svg11.dtd">
<svg xmlns="http://www.w3.org/2000/svg" version="1.1" width="385px" height="712px" style="shape-rendering:geometricPrecision; text-rendering:geometricPrecision; image-rendering:optimizeQuality; fill-rule:evenodd; clip-rule:evenodd" xmlns:xlink="http://www.w3.org/1999/xlink">
<g><path style="opacity:1" fill="#fefffe" d="M -0.5,-0.5 C 127.833,-0.5 256.167,-0.5 384.5,-0.5C 384.5,236.833 384.5,474.167 384.5,711.5C 256.167,711.5 127.833,711.5 -0.5,711.5C -0.5,474.167 -0.5,236.833 -0.5,-0.5 Z"/></g>
<g><path style="opacity:1" fill="#000000" d="M 94.5,6.5 C 107.356,5.28256 118.189,9.28256 127,18.5C 127.837,20.3506 128.671,22.1839 129.5,24C 141.362,23.5145 150.862,28.0145 158,37.5C 161.841,43.1777 165.174,49.1777 168,55.5C 184.705,65.3214 187.705,78.3214 177,94.5C 173.56,97.4618 170.06,100.295 166.5,103C 168.555,114.194 167.388,125.027 163,135.5C 157.494,143.176 149.994,147.676 140.5,149C 137.797,152.019 134.464,154.019 130.5,155C 135.275,157.045 139.275,160.045 142.5,164C 142.355,164.772 142.022,165.439 141.5,166C 133.517,167.307 125.517,168.474 117.5,169.5C 152.083,280.951 191.917,390.284 237,497.5C 266.478,564.457 298.645,630.123 333.5,694.5C 331.814,698.361 329.981,698.361 328,694.5C 251.635,551.081 188.302,402.081 138,247.5C 131.588,243.946 124.755,242.78 117.5,244C 111.931,246.567 106.597,249.567 101.5,253C 91.962,257.171 82.2954,257.504 72.5,254C 69.2945,253.375 68.2945,251.709 69.5,249C 79.9388,244.95 89.6054,239.616 98.5,233C 89.8442,230.337 81.1775,227.671 72.5,225C 68.5808,223.46 65.0808,221.293 62,218.5C 58.75,211.165 55.9166,203.665 53.5,196C 53.9842,193.525 55.3175,191.692 57.5,190.5C 67.7324,197.56 77.2324,205.56 86,214.5C 88.8136,217.96 90.9803,221.793 92.5,226C 107.063,229.969 121.396,234.302 135.5,239C 127.952,217.315 120.785,195.482 114,173.5C 113.667,173.167 113.333,172.833 113,172.5C 108.418,175.876 103.585,178.876 98.5,181.5C 95.2215,173.455 97.2215,166.621 104.5,161C 90.515,161.457 76.515,161.457 62.5,161C 49.1764,156.345 39.6764,147.512 34,134.5C 32.0795,124.94 31.0795,115.273 31,105.5C 23.3377,99.2013 19.5044,91.0346 19.5,81C 21.1753,65.3075 25.6753,50.4742 33,36.5C 35.8883,30.3663 40.7217,27.6996 47.5,28.5C 53.1308,29.0044 58.4641,30.1711 63.5,32C 66.5051,29.5166 68.6718,26.3499 70,22.5C 76.3564,14.2481 84.523,8.91477 94.5,6.5 Z"/></g>
<g><path style="opacity:1" fill="#fefffe" d="M 92.5,11.5 C 102.169,10.2398 111.169,12.0731 119.5,17C 122.42,18.9694 123.42,21.4694 122.5,24.5C 124.41,29.3356 124.91,34.3356 124,39.5C 110.667,26.7239 94.8334,20.8905 76.5,22C 80.9699,17.0023 86.3032,13.5023 92.5,11.5 Z"/></g>
<g><path style="opacity:1" fill="#fefffe" d="M 77.5,26.5 C 87.3024,25.9605 96.6358,27.7938 105.5,32C 94.9023,33.3758 86.4023,38.2091 80,46.5C 76.3436,54.6104 76.8436,62.4438 81.5,70C 80.8903,71.9472 80.0569,73.7806 79,75.5C 76.3333,72.1667 73.6667,68.8333 71,65.5C 70.331,58.1481 69.4977,50.8148 68.5,43.5C 69.119,38.4051 70.119,33.4051 71.5,28.5C 73.8984,28.7406 75.8984,28.0739 77.5,26.5 Z"/></g>
<g><path style="opacity:1" fill="#fefffe" d="M 129.5,28.5 C 145.01,29.097 155.343,36.7637 160.5,51.5C 157.438,57.5197 155.271,63.853 154,70.5C 150.262,57.762 142.096,49.262 129.5,45C 128.5,44 127.5,43 126.5,42C 127.667,41.5 128.5,40.6667 129,39.5C 129.499,35.8484 129.665,32.1817 129.5,28.5 Z"/></g>
<g><path style="opacity:1" fill="#fefffe" d="M 41.5,33.5 C 45.5138,33.3345 49.5138,33.5012 53.5,34C 55.0614,34.941 56.3947,36.1076 57.5,37.5C 51.1979,49.7021 47.5312,62.7021 46.5,76.5C 38.3529,82.4549 33.5195,90.4549 32,100.5C 25.3115,93.0847 22.9782,84.418 25,74.5C 26.9086,59.2502 32.4086,45.5836 41.5,33.5 Z"/></g>
<g><path style="opacity:1" fill="#fefffe" d="M 63.5,36.5 C 65.5006,52.3645 66.6673,68.3645 67,84.5C 67.5611,86.7254 68.5611,88.7254 70,90.5C 75,94.8333 80,99.1667 85,103.5C 87.8386,107.061 89.1719,111.061 89,115.5C 74.246,108.416 62.246,98.0827 53,84.5C 50.5798,67.0913 54.0798,51.0913 63.5,36.5 Z"/></g>
<g><path style="opacity:1" fill="#fefffe" d="M 106.5,36.5 C 109.946,36.8891 113.279,37.7225 116.5,39C 119.945,42.5309 123.611,45.8643 127.5,49C 133.251,51.2886 138.418,54.4553 143,58.5C 149.483,68.5588 153.317,79.3922 154.5,91C 152.108,93.7111 149.108,95.7111 145.5,97C 138.135,104.03 131.135,111.364 124.5,119C 120.769,121.266 116.769,122.266 112.5,122C 113.593,119.4 113.593,116.734 112.5,114C 112.934,111.366 113.767,108.866 115,106.5C 119.715,101.895 124.882,97.8953 130.5,94.5C 135.716,85.5251 135.55,76.5251 130,67.5C 125.148,59.6397 118.314,54.473 109.5,52C 98.3888,51.7636 90.2222,56.5969 85,66.5C 79.8116,58.1238 80.9783,50.6238 88.5,44C 94.1674,40.3974 100.167,37.8974 106.5,36.5 Z"/></g>
<g><path style="opacity:1" fill="#fefffe" d="M 162.5,56.5 C 167.19,61.025 172.023,65.3583 177,69.5C 180.56,80.8241 177.393,89.6574 167.5,96C 166.365,96.7494 165.365,96.5827 164.5,95.5C 163.833,92.1667 161.833,90.8333 158.5,91.5C 157.571,79.5287 158.905,67.8621 162.5,56.5 Z"/></g>
<g><path style="opacity:1" fill="#fefffe" d="M 115.5,60.5 C 115.897,59.475 116.563,59.3083 117.5,60C 126.483,67.4611 130.317,76.9611 129,88.5C 125.407,93.0842 120.907,96.5842 115.5,99C 108.8,104.844 106.8,112.011 109.5,120.5C 104.341,120.967 99.3415,119.967 94.5,117.5C 94.525,108.729 91.1916,101.562 84.5,96C 76.7623,93.0963 72.0956,87.5963 70.5,79.5C 70.6667,78.8333 70.8333,78.1667 71,77.5C 82.0108,91.3919 96.1775,96.5586 113.5,93C 123.912,88.6675 127.078,81.1675 123,70.5C 121.695,66.2027 119.195,62.8694 115.5,60.5 Z"/></g>
<g><path style="opacity:1" fill="#fefffe" d="M 46.5,81.5 C 51.4867,99.3035 60.4867,114.804 73.5,128C 82.424,134.57 92.0907,139.903 102.5,144C 112.458,145.819 122.458,147.485 132.5,149C 126.224,152.092 119.724,154.592 113,156.5C 111.042,155.949 109.042,155.615 107,155.5C 95.8317,156.153 84.665,156.82 73.5,157.5C 65.9911,157.523 58.9911,155.689 52.5,152C 44.7978,144.981 39.6312,136.481 37,126.5C 36.1303,116.115 36.4636,105.782 38,95.5C 39.836,90.178 42.6693,85.5113 46.5,81.5 Z"/></g>
<g><path style="opacity:1" fill="#fefffe" d="M 60.5,101.5 C 69.1198,108.597 78.4532,114.763 88.5,120C 98.2774,125.029 108.611,127.029 119.5,126C 121.949,125.275 124.283,124.275 126.5,123C 133.476,116.356 140.143,109.356 146.5,102C 150.643,98.7591 155.31,96.9258 160.5,96.5C 162.902,107.123 163.069,117.79 161,128.5C 156.561,139.06 148.561,144.394 137,144.5C 127.558,142.843 118.058,141.676 108.5,141C 92.6385,136.117 79.1385,127.617 68,115.5C 64.7115,111.256 62.2115,106.59 60.5,101.5 Z"/></g>
<g><path style="opacity:1" fill="#fefffe" d="M 60.5,101.5 C 58.9153,100.998 58.4153,99.9976 59,98.5C 60.0386,99.2438 60.5386,100.244 60.5,101.5 Z"/></g>
<g><path style="opacity:1" fill="#fefffe" d="M 120.5,158.5 C 125.095,158.719 129.429,159.885 133.5,162C 127.562,163.222 121.562,164.055 115.5,164.5C 115.238,163.022 115.571,161.689 116.5,160.5C 118.026,160.006 119.359,159.339 120.5,158.5 Z"/></g>
<g><path style="opacity:1" fill="#fefffe" d="M 109.5,162.5 C 110.947,163.622 111.947,165.122 112.5,167C 108.912,169.377 105.412,171.877 102,174.5C 102.209,169.114 104.709,165.114 109.5,162.5 Z"/></g>
<g><path style="opacity:1" fill="#fefffe" d="M 58.5,198.5 C 70.0266,203.655 79.36,211.988 86.5,223.5C 79.5762,222.911 72.9095,220.745 66.5,217C 63.7158,210.791 61.0491,204.624 58.5,198.5 Z"/></g>
<g><path style="opacity:1" fill="#fefffe" d="M 103.5,233.5 C 108.652,234.83 113.652,236.663 118.5,239C 110.722,242.389 103.055,246.055 95.5,250C 89.7306,251.85 84.0639,251.85 78.5,250C 87.9279,245.967 96.2612,240.467 103.5,233.5 Z"/></g>
</svg>
