<?xml version="1.0" encoding="UTF-8"?>
<!DOCTYPE svg PUBLIC "-//W3C//DTD SVG 1.1//EN" "http://www.w3.org/Graphics/SVG/1.1/DTD/svg11.dtd">
<svg xmlns="http://www.w3.org/2000/svg" version="1.1" width="90px" height="427px" style="shape-rendering:geometricPrecision; text-rendering:geometricPrecision; image-rendering:optimizeQuality; fill-rule:evenodd; clip-rule:evenodd" xmlns:xlink="http://www.w3.org/1999/xlink">
<g><path style="opacity:1" fill="#fdfdfd" d="M -0.5,-0.5 C 29.5,-0.5 59.5,-0.5 89.5,-0.5C 89.5,141.833 89.5,284.167 89.5,426.5C 59.5,426.5 29.5,426.5 -0.5,426.5C -0.5,284.167 -0.5,141.833 -0.5,-0.5 Z"/></g>
<g><path style="opacity:1" fill="#111111" d="M 62.5,5.5 C 64.7224,5.17798 66.5557,5.84464 68,7.5C 69.258,17.1413 69.5913,26.808 69,36.5C 64.0669,49.3526 56.4003,60.3526 46,69.5C 42.1833,86.7058 39.1833,104.039 37,121.5C 35.9384,176.205 36.9384,230.872 40,285.5C 41.4589,308.548 43.4589,331.548 46,354.5C 49.0904,375.273 52.4238,395.939 56,416.5C 54,419.167 52,419.167 50,416.5C 41.462,371.862 35.7953,326.862 33,281.5C 32.3373,259.934 31.1706,238.434 29.5,217C 30.2696,184.507 30.7696,152.007 31,119.5C 31.7399,113.321 32.5732,107.154 33.5,101C 31.8225,95.2962 28.4892,90.6295 23.5,87C 16.5297,85.6807 11.6963,81.8474 9,75.5C 8.50649,73.8659 8.33982,72.1992 8.5,70.5C 16.782,71.1081 22.1153,75.4414 24.5,83.5C 28.5196,86.6859 32.0196,90.3525 35,94.5C 37.2745,82.5194 39.4412,70.5194 41.5,58.5C 32.1952,34.1384 39.1952,16.4717 62.5,5.5 Z"/></g>
<g><path style="opacity:1" fill="#f9f9f9" d="M 60.5,13.5 C 66.3166,30.4047 62.3166,44.738 48.5,56.5C 39.4933,38.5216 43.4933,24.1883 60.5,13.5 Z"/></g>
<g><path style="opacity:1" fill="#e6e6e6" d="M 11.5,73.5 C 15.7251,74.7217 18.7251,77.3884 20.5,81.5C 15.1706,81.8554 12.1706,79.1887 11.5,73.5 Z"/></g>
</svg>
