<?xml version="1.0" encoding="UTF-8"?>
<!DOCTYPE svg PUBLIC "-//W3C//DTD SVG 1.1//EN" "http://www.w3.org/Graphics/SVG/1.1/DTD/svg11.dtd">
<svg xmlns="http://www.w3.org/2000/svg" version="1.1" width="385px" height="712px" style="shape-rendering:geometricPrecision; text-rendering:geometricPrecision; image-rendering:optimizeQuality; fill-rule:evenodd; clip-rule:evenodd" xmlns:xlink="http://www.w3.org/1999/xlink">
<g><path style="opacity:1" fill="#fefefe" d="M -0.5,-0.5 C 127.833,-0.5 256.167,-0.5 384.5,-0.5C 384.5,236.833 384.5,474.167 384.5,711.5C 256.167,711.5 127.833,711.5 -0.5,711.5C -0.5,474.167 -0.5,236.833 -0.5,-0.5 Z"/></g>
<g><path style="opacity:1" fill="#121212" d="M 225.5,470.5 C 225.987,471.473 226.487,472.473 227,473.5C 227.821,466.321 227.655,459.321 226.5,452.5C 226.333,423.498 226.5,394.498 227,365.5C 228.253,354.486 229.253,343.486 230,332.5C 225.481,322.643 217.981,316.476 207.5,314C 202.044,310.254 199.377,305.088 199.5,298.5C 208.765,298.937 214.599,303.603 217,312.5C 222.388,317.385 227.221,322.718 231.5,328.5C 234.289,313.756 237.289,299.09 240.5,284.5C 229.34,259.148 235.674,239.648 259.5,226C 262.063,224.921 264.729,224.421 267.5,224.5C 269.754,236.482 269.92,248.482 268,260.5C 266.388,266.391 263.721,271.725 260,276.5C 254,283.167 248,289.833 242,296.5C 238.188,314.747 234.855,333.08 232,351.5C 230.967,366.646 230.467,381.812 230.5,397C 230.946,426.501 231.446,456.001 232,485.5C 261.416,553.997 293.75,620.997 329,686.5C 331.035,689.561 332.201,692.895 332.5,696.5C 331.178,696.67 330.011,696.337 329,695.5C 294.614,631.06 262.614,565.393 233,498.5C 233.702,567.802 240.535,636.469 253.5,704.5C 251.876,704.64 250.71,703.973 250,702.5C 239.099,649.732 232.433,596.398 230,542.5C 229.486,522.799 228.486,503.132 227,483.5C 208.351,439.219 190.684,394.552 174,349.5C 161.26,315.446 149.427,281.113 138.5,246.5C 133.048,245.028 127.548,243.694 122,242.5C 115.976,243.262 110.81,245.762 106.5,250C 94.6663,256.225 82.4996,257.059 70,252.5C 69.3162,251.216 69.4829,250.049 70.5,249C 77.4455,246.194 84.1122,242.861 90.5,239C 93.3895,237.062 96.0562,234.895 98.5,232.5C 86.1873,230.01 74.5206,225.843 63.5,220C 58.4569,211.44 55.6236,202.273 55,192.5C 55.7247,191.941 56.5581,191.608 57.5,191.5C 72.9701,199.803 84.9701,211.637 93.5,227C 107.309,230.159 120.809,234.325 134,239.5C 134.5,239.167 135,238.833 135.5,238.5C 128.036,216.276 120.87,193.942 114,171.5C 110.081,173.876 106.248,176.376 102.5,179C 100.655,180.128 98.6547,180.628 96.5,180.5C 95.7698,172.57 98.4365,166.07 104.5,161C 90.8326,160.968 77.1659,160.968 63.5,161C 49.2192,156.723 39.3859,147.556 34,133.5C 32.6411,123.891 32.1411,114.224 32.5,104.5C 28.6702,103.515 25.8369,101.181 24,97.5C 21.1753,92.3573 20.0086,86.8573 20.5,81C 21.3877,64.7345 25.8877,49.5678 34,35.5C 41.0421,27.4744 49.2087,26.3077 58.5,32C 60.5,32.6667 62.5,32.6667 64.5,32C 70.4479,19.3876 80.1145,11.0543 93.5,7C 105.967,5.65426 116.8,9.15426 126,17.5C 127.562,19.9573 128.562,22.624 129,25.5C 143.309,23.9912 153.976,29.6579 161,42.5C 164.095,52.2573 170.095,59.5906 179,64.5C 186.23,80.6073 182.23,92.9406 167,101.5C 168.926,113.691 167.26,125.358 162,136.5C 159.833,138.667 157.667,140.833 155.5,143C 146.425,146.241 137.759,150.241 129.5,155C 133.852,156.682 137.686,159.182 141,162.5C 141.684,163.784 141.517,164.951 140.5,166C 132.778,166.841 125.111,168.008 117.5,169.5C 149.16,271.487 185.16,371.82 225.5,470.5 Z"/></g>
<g><path style="opacity:1" fill="#f3f3f3" d="M 103.5,233.5 C 108.922,235.03 114.255,236.863 119.5,239C 112.286,241.274 105.619,244.607 99.5,249C 91.9805,251.301 84.3138,251.968 76.5,251C 82.1469,248.034 87.8135,245.034 93.5,242C 97.0905,239.386 100.424,236.552 103.5,233.5 Z"/></g>
<g><path style="opacity:1" fill="#fafafa" d="M 260.5,229.5 C 261.833,229.5 263.167,229.5 264.5,229.5C 269.994,251.794 263.994,270.127 246.5,284.5C 243.114,280.882 240.947,276.549 240,271.5C 236.979,252.544 243.812,238.544 260.5,229.5 Z"/></g>
<g><path style="opacity:1" fill="#f1f1f1" d="M 58.5,196.5 C 70.1013,203.767 79.7679,213.1 87.5,224.5C 80.6358,223.714 73.9691,221.548 67.5,218C 65.9512,216.786 64.7845,215.286 64,213.5C 62.0558,207.835 60.2224,202.168 58.5,196.5 Z"/></g>
<g><path style="opacity:1" fill="#eaeaea" d="M 109.5,162.5 C 112.306,163.707 112.972,165.707 111.5,168.5C 108.249,170.375 105.082,172.375 102,174.5C 101.365,172.365 101.699,170.365 103,168.5C 105.063,166.266 107.229,164.266 109.5,162.5 Z"/></g>
<g><path style="opacity:1" fill="#e6e6e6" d="M 118.5,158.5 C 124.401,157.743 129.734,159.076 134.5,162.5C 128.244,163.892 121.911,164.559 115.5,164.5C 115.579,163.07 115.246,161.736 114.5,160.5C 115.949,159.828 117.282,159.161 118.5,158.5 Z"/></g>
<g><path style="opacity:1" fill="#f9f9f9" d="M 154.5,96.5 C 156.604,96.2011 158.604,96.5344 160.5,97.5C 165.376,111.091 164.209,124.091 157,136.5C 150.885,142.318 143.552,144.984 135,144.5C 110.258,144.792 88.9243,136.459 71,119.5C 65.2888,112.833 60.9555,105.5 58,97.5C 73.0784,113.623 91.5784,123.29 113.5,126.5C 118.599,126.228 123.266,124.728 127.5,122C 135.437,112.226 144.437,103.726 154.5,96.5 Z"/></g>
<g><path style="opacity:1" fill="#fafafa" d="M 47.5,80.5 C 54.3021,112.135 72.9688,133.302 103.5,144C 107.516,146.239 111.683,146.739 116,145.5C 121.83,146.666 127.663,147.833 133.5,149C 127.309,151.73 120.976,154.063 114.5,156C 97.843,157.099 81.1763,157.432 64.5,157C 60.5328,156.517 56.8662,155.184 53.5,153C 36.8786,138.076 31.3786,119.576 37,97.5C 38.977,90.8768 42.477,85.2101 47.5,80.5 Z"/></g>
<g><path style="opacity:1" fill="#f7f7f7" d="M 162.5,56.5 C 166.502,60.6576 171.002,64.3242 176,67.5C 181.312,79.5741 178.479,89.4075 167.5,97C 166.552,97.4828 165.552,97.6495 164.5,97.5C 164.167,93.8333 162.167,91.8333 158.5,91.5C 156.48,79.4274 157.814,67.7607 162.5,56.5 Z"/></g>
<g><path style="opacity:1" fill="#f7f7f7" d="M 116.5,61.5 C 116.5,60.8333 116.833,60.5 117.5,60.5C 128.116,68.1872 131.616,78.1872 128,90.5C 124.94,93.6135 121.44,96.1135 117.5,98C 109.956,103.299 107.122,110.465 109,119.5C 110.049,121.107 111.549,121.773 113.5,121.5C 110.953,113.851 112.62,107.351 118.5,102C 132.84,96.639 137.34,86.8057 132,72.5C 124.449,54.9617 111.949,49.4617 94.5,56C 90.9636,59.2012 87.7969,62.7012 85,66.5C 80.8601,60.7133 80.5268,54.7133 84,48.5C 93.5815,37.1837 105.082,34.3504 118.5,40C 123.802,46.6481 130.468,51.3147 138.5,54C 140.333,55.8333 142.167,57.6667 144,59.5C 146.836,64.9187 149.669,70.252 152.5,75.5C 153.089,81.1221 154.089,86.6221 155.5,92C 144.508,97.3213 135.674,105.155 129,115.5C 124.759,120.286 119.425,122.62 113,122.5C 106.377,121.719 99.8768,120.385 93.5,118.5C 94.2512,110.586 91.9178,103.753 86.5,98C 81.7139,94.8821 77.2139,91.3821 73,87.5C 71.0691,84.386 70.4024,81.0527 71,77.5C 83.4377,92.6397 98.9377,97.1397 117.5,91C 124.564,85.7412 126.397,78.9079 123,70.5C 121.301,67.079 119.135,64.079 116.5,61.5 Z"/></g>
<g><path style="opacity:1" fill="#939393" d="M 117.5,60.5 C 116.833,60.5 116.5,60.8333 116.5,61.5C 111.798,57.6614 106.465,56.1614 100.5,57C 106.974,54.5535 112.641,55.7201 117.5,60.5 Z"/></g>
<g><path style="opacity:1" fill="#f6f6f6" d="M 63.5,36.5 C 64.444,44.6896 65.444,53.0229 66.5,61.5C 66.3961,63.7088 66.0628,65.8755 65.5,68C 66.2595,73.1283 66.7595,78.295 67,83.5C 67.8061,86.4456 69.1395,89.1123 71,91.5C 76.8951,95.4596 82.2285,100.126 87,105.5C 89.1238,108.667 89.6238,112 88.5,115.5C 73.3406,107.842 61.174,96.8421 52,82.5C 50.3266,65.6746 54.1599,50.3413 63.5,36.5 Z"/></g>
<g><path style="opacity:1" fill="#f8f8f8" d="M 42.5,32.5 C 48.626,31.4671 53.9594,32.9671 58.5,37C 57.6667,37.8333 56.8333,38.6667 56,39.5C 50.9674,51.3273 47.9674,63.6606 47,76.5C 38.4637,82.2294 33.4637,90.2294 32,100.5C 28.846,97.3479 26.5127,93.6813 25,89.5C 23.9411,70.0109 28.6078,52.0109 39,35.5C 40.1451,34.3636 41.3117,33.3636 42.5,32.5 Z"/></g>
<g><path style="opacity:1" fill="#f8f8f8" d="M 128.5,29.5 C 140.853,27.7575 150.353,32.4241 157,43.5C 158.444,46.0546 159.611,48.7213 160.5,51.5C 157.568,57.5548 155.402,63.8882 154,70.5C 152.112,65.0552 149.445,60.0552 146,55.5C 139.419,50.6367 132.585,46.1367 125.5,42C 127.723,41.3483 128.89,39.8483 129,37.5C 129.801,34.633 129.634,31.9664 128.5,29.5 Z"/></g>
<g><path style="opacity:1" fill="#f7f7f7" d="M 76.5,26.5 C 86.7536,25.3261 96.4203,27.1595 105.5,32C 95.7831,33.7733 87.6165,38.2733 81,45.5C 76.4232,53.6922 76.5898,61.8589 81.5,70C 80.8392,72.464 80.3392,74.964 80,77.5C 76.6153,73.7829 73.6153,69.7829 71,65.5C 69.961,58.0218 69.1277,50.5218 68.5,43C 68.7735,37.6834 69.7735,32.5167 71.5,27.5C 73.4147,27.7845 75.0813,27.4511 76.5,26.5 Z"/></g>
<g><path style="opacity:1" fill="#f5f5f5" d="M 94.5,10.5 C 103.002,10.1255 111.002,11.9589 118.5,16C 120.351,17.6837 122.018,19.5171 123.5,21.5C 123.069,22.2935 122.735,23.1268 122.5,24C 125.548,28.9817 126.048,34.1484 124,39.5C 114.862,31.5135 104.362,26.0135 92.5,23C 87.1358,22.8295 81.8025,22.3295 76.5,21.5C 81.6036,16.2854 87.6036,12.6187 94.5,10.5 Z"/></g>
<g><path style="opacity:1" fill="#e9e9e9" d="M 202.5,301.5 C 208.869,303.203 212.869,307.203 214.5,313.5C 208.167,311.833 204.167,307.833 202.5,301.5 Z"/></g>
<g><path style="opacity:1" fill="#a4a4a4" d="M 226.5,452.5 C 227.655,459.321 227.821,466.321 227,473.5C 226.487,472.473 225.987,471.473 225.5,470.5C 226.49,464.69 226.823,458.69 226.5,452.5 Z"/></g>
</svg>
