<?xml version="1.0" encoding="UTF-8"?>
<!DOCTYPE svg PUBLIC "-//W3C//DTD SVG 1.1//EN" "http://www.w3.org/Graphics/SVG/1.1/DTD/svg11.dtd">
<svg xmlns="http://www.w3.org/2000/svg" version="1.1" width="385px" height="712px" style="shape-rendering:geometricPrecision; text-rendering:geometricPrecision; image-rendering:optimizeQuality; fill-rule:evenodd; clip-rule:evenodd" xmlns:xlink="http://www.w3.org/1999/xlink">
<g><path style="opacity:1" fill="#fefefe" d="M -0.5,-0.5 C 127.833,-0.5 256.167,-0.5 384.5,-0.5C 384.5,236.833 384.5,474.167 384.5,711.5C 256.167,711.5 127.833,711.5 -0.5,711.5C -0.5,474.167 -0.5,236.833 -0.5,-0.5 Z"/></g>
<g><path style="opacity:1" fill="#131313" d="M 157.5,452.5 C 156.345,459.321 156.179,466.321 157,473.5C 157.513,472.473 158.013,471.473 158.5,470.5C 199.226,371.97 235.226,271.637 266.5,169.5C 258.888,168.059 251.221,166.893 243.5,166C 242.483,164.951 242.316,163.784 243,162.5C 246.314,159.182 250.148,156.682 254.5,155C 246.349,149.925 237.682,145.925 228.5,143C 221.946,137.727 218.112,130.894 217,122.5C 216.45,115.447 216.45,108.447 217,101.5C 201.765,92.9134 197.765,80.5801 205,64.5C 209.554,61.8816 213.554,58.5482 217,54.5C 220.866,44.2418 227.033,35.7418 235.5,29C 241.294,25.3192 247.627,23.6526 254.5,24C 260.646,12.5837 270.313,6.75032 283.5,6.5C 295.048,7.02391 304.548,11.6906 312,20.5C 314.531,24.354 317.031,28.1873 319.5,32C 321.5,32.6667 323.5,32.6667 325.5,32C 332.413,27.5745 339.413,27.4078 346.5,31.5C 360.81,50.7358 365.643,72.0691 361,95.5C 359.222,100.115 356.056,103.115 351.5,104.5C 355.497,125.695 349.163,142.861 332.5,156C 328.186,158.66 323.519,160.327 318.5,161C 305.495,161.202 292.495,161.202 279.5,161C 285.564,166.07 288.23,172.57 287.5,180.5C 282.023,179.095 277.023,176.595 272.5,173C 271.365,172.251 270.365,172.417 269.5,173.5C 262.705,195.218 255.705,216.884 248.5,238.5C 249,238.833 249.5,239.167 250,239.5C 263.501,234 277.334,229.5 291.5,226C 299.697,210.97 311.364,199.47 326.5,191.5C 327.442,191.608 328.275,191.941 329,192.5C 328.188,201.948 325.521,210.948 321,219.5C 317.863,221.986 314.363,223.819 310.5,225C 302.191,227.603 293.858,230.103 285.5,232.5C 293.709,239.776 303.043,245.276 313.5,249C 314.022,249.561 314.355,250.228 314.5,251C 312.287,253.081 309.62,254.415 306.5,255C 292.823,257.469 280.823,254.136 270.5,245C 262.727,242.817 255.061,243.15 247.5,246C 246.299,246.903 245.465,248.069 245,249.5C 232.911,285.684 220.244,321.684 207,357.5C 191.117,399.818 174.45,441.818 157,483.5C 155.48,555.783 148.147,627.45 135,698.5C 135.145,701.923 133.645,703.923 130.5,704.5C 143.308,636.445 150.141,567.779 151,498.5C 121.418,565.331 89.4178,630.998 55,695.5C 53.9887,696.337 52.8221,696.67 51.5,696.5C 51.3433,695.127 51.51,693.793 52,692.5C 88.8353,624.496 122.169,554.83 152,483.5C 153.113,443.838 153.446,404.171 153,364.5C 151.01,341.552 147.343,318.885 142,296.5C 136,289.833 130,283.167 124,276.5C 117.54,267.951 114.373,258.285 114.5,247.5C 114.969,239.809 115.636,232.142 116.5,224.5C 131.622,227.171 141.789,235.838 147,250.5C 149.712,262.231 148.545,273.565 143.5,284.5C 146.239,299.194 149.239,313.861 152.5,328.5C 156.445,323.052 160.945,318.052 166,313.5C 168.756,304.24 174.923,299.24 184.5,298.5C 184.718,304.565 182.384,309.398 177.5,313C 172.5,314.771 167.833,317.104 163.5,320C 159.95,323.883 156.783,328.049 154,332.5C 154.5,342.51 155.5,352.51 157,362.5C 157.5,392.498 157.667,422.498 157.5,452.5 Z"/></g>
<g><path style="opacity:1" fill="#f2f2f2" d="M 277.5,233.5 C 282.073,235.798 286.406,238.632 290.5,242C 296.206,245.067 301.873,248.067 307.5,251C 301.833,251.667 296.167,251.667 290.5,251C 281.823,246.995 273.156,242.995 264.5,239C 268.893,237.044 273.226,235.211 277.5,233.5 Z"/></g>
<g><path style="opacity:1" fill="#fafafa" d="M 119.5,229.5 C 132.174,233.341 140.341,241.675 144,254.5C 146.309,265.883 144.142,276.216 137.5,285.5C 129.885,278.39 124.052,270.056 120,260.5C 118.234,250.202 118.068,239.868 119.5,229.5 Z"/></g>
<g><path style="opacity:1" fill="#f3f3f3" d="M 324.5,196.5 C 325.097,196.735 325.43,197.235 325.5,198C 323.333,203.833 321.167,209.667 319,215.5C 317.269,217.617 315.102,219.117 312.5,220C 307.241,221.641 302.074,223.475 297,225.5C 297.824,222.199 299.49,219.199 302,216.5C 308.914,208.994 316.414,202.327 324.5,196.5 Z"/></g>
<g><path style="opacity:1" fill="#ebebeb" d="M 272.5,162.5 C 278.552,164.369 281.719,168.369 282,174.5C 278.918,172.375 275.751,170.375 272.5,168.5C 271.481,166.54 271.481,164.54 272.5,162.5 Z"/></g>
<g><path style="opacity:1" fill="#e9e9e9" d="M 256.5,158.5 C 260.582,158.344 264.582,158.844 268.5,160C 268.966,161.299 268.966,162.799 268.5,164.5C 262.089,164.559 255.756,163.892 249.5,162.5C 251.765,160.873 254.099,159.539 256.5,158.5 Z"/></g>
<g><path style="opacity:1" fill="#f9f9f9" d="M 223.5,96.5 C 228.357,96.5077 232.69,98.0077 236.5,101C 244.184,108.752 251.85,116.419 259.5,124C 262.611,125.722 265.944,126.555 269.5,126.5C 291.854,123.574 310.687,113.907 326,97.5C 321.31,110.545 313.143,121.045 301.5,129C 293.563,133.802 285.23,137.802 276.5,141C 266.464,141.842 256.464,143.009 246.5,144.5C 234.211,144.037 226.045,138.037 222,126.5C 219.597,116.291 220.097,106.291 223.5,96.5 Z"/></g>
<g><path style="opacity:1" fill="#fafafa" d="M 335.5,81.5 C 341.504,85.1384 345.337,90.4718 347,97.5C 352.621,119.576 347.121,138.076 330.5,153C 326.768,155.133 322.768,156.466 318.5,157C 301.486,157.57 284.486,157.236 267.5,156C 261.729,153.949 256.063,151.616 250.5,149C 274.953,148.396 296.453,139.896 315,123.5C 325.314,111.206 332.147,97.206 335.5,81.5 Z"/></g>
<g><path style="opacity:1" fill="#f8f8f8" d="M 219.5,56.5 C 220.496,56.4142 221.329,56.7476 222,57.5C 226.24,68.5297 227.407,79.8631 225.5,91.5C 221.981,92.0128 219.647,94.0128 218.5,97.5C 205.966,90.7331 202.466,80.7331 208,67.5C 210.08,65.8767 212.246,64.3767 214.5,63C 216.79,61.2228 218.457,59.0562 219.5,56.5 Z"/></g>
<g><path style="opacity:1" fill="#f6f6f6" d="M 319.5,36.5 C 325.151,41.8883 328.651,48.555 330,56.5C 332.17,65.0566 332.837,73.7232 332,82.5C 322.826,96.8421 310.659,107.842 295.5,115.5C 294.149,111.934 294.649,108.601 297,105.5C 301.772,100.126 307.105,95.4596 313,91.5C 314.861,89.1123 316.194,86.4456 317,83.5C 317.028,67.8527 317.862,52.1861 319.5,36.5 Z"/></g>
<g><path style="opacity:1" fill="#f8f8f8" d="M 271.5,36.5 C 282.818,36.244 292.318,40.244 300,48.5C 303.473,54.7133 303.14,60.7133 299,66.5C 292.59,55.3777 283.09,50.8777 270.5,53C 254.123,61.5793 247.956,74.746 252,92.5C 255.887,96.5277 260.387,99.6943 265.5,102C 271.252,107.396 272.919,113.896 270.5,121.5C 272.39,121.703 273.89,121.037 275,119.5C 275.791,115.074 275.457,110.741 274,106.5C 271.537,103.035 268.704,99.8688 265.5,97C 258.585,94.757 254.585,90.0904 253.5,83C 254.802,71.0582 260.802,62.3915 271.5,57C 272.833,56.3333 274.167,56.3333 275.5,57C 267.513,59.7786 262.346,65.2786 260,73.5C 258.643,87.8694 265.31,94.536 280,93.5C 293.595,93.5357 304.595,88.2024 313,77.5C 313.598,81.0527 312.931,84.386 311,87.5C 306.786,91.3821 302.286,94.8821 297.5,98C 292.449,103.483 289.949,109.983 290,117.5C 282.271,121.312 274.105,122.812 265.5,122C 263.754,121.529 262.087,120.862 260.5,120C 253.851,113.084 247.185,106.084 240.5,99C 236.853,96.1876 232.853,94.0209 228.5,92.5C 229.572,86.859 230.572,81.1924 231.5,75.5C 234.331,70.252 237.164,64.9187 240,59.5C 244.925,54.2872 250.759,50.4539 257.5,48C 261.507,43.1406 266.173,39.3073 271.5,36.5 Z"/></g>
<g><path style="opacity:1" fill="#f9f9f9" d="M 331.5,32.5 C 334.518,32.3354 337.518,32.502 340.5,33C 342.329,33.2735 343.829,34.1068 345,35.5C 355.608,51.9301 360.274,69.9301 359,89.5C 357.487,93.6813 355.154,97.3479 352,100.5C 350.536,90.2294 345.536,82.2294 337,76.5C 336.446,62.6772 332.946,49.6772 326.5,37.5C 328.006,35.5986 329.673,33.9319 331.5,32.5 Z"/></g>
<g><path style="opacity:1" fill="#f9f9f9" d="M 245.5,28.5 C 248.85,28.335 252.183,28.5017 255.5,29C 253.915,33.8152 254.581,38.3152 257.5,42.5C 250.698,46.3787 244.198,50.712 238,55.5C 234.555,60.0552 231.888,65.0552 230,70.5C 228.764,64.5511 226.764,58.8844 224,53.5C 226.615,41.376 233.782,33.0426 245.5,28.5 Z"/></g>
<g><path style="opacity:1" fill="#f6f6f6" d="M 291.5,26.5 C 298.529,26.3769 305.529,26.7103 312.5,27.5C 314.366,32.4708 315.366,37.6375 315.5,43C 314.872,50.5218 314.039,58.0218 313,65.5C 310.385,69.7829 307.385,73.7829 304,77.5C 303.661,74.964 303.161,72.464 302.5,70C 309.922,56.7593 307.256,46.0926 294.5,38C 289.376,35.4379 284.043,33.4379 278.5,32C 282.741,29.6512 287.075,27.8179 291.5,26.5 Z"/></g>
<g><path style="opacity:1" fill="#f6f6f6" d="M 277.5,10.5 C 289.282,9.602 299.282,13.2687 307.5,21.5C 294.573,21.2315 282.573,24.3982 271.5,31C 267.756,33.9553 263.922,36.7886 260,39.5C 257.952,34.1484 258.452,28.9817 261.5,24C 260.813,22.8382 260.647,21.6716 261,20.5C 265.726,15.7277 271.226,12.3944 277.5,10.5 Z"/></g>
<g><path style="opacity:1" fill="#eeeeee" d="M 179.5,301.5 C 180.497,301.47 181.164,301.97 181.5,303C 179.209,308.838 175.209,312.005 169.5,312.5C 171.494,307.511 174.827,303.844 179.5,301.5 Z"/></g>
<g><path style="opacity:1" fill="#a3a3a3" d="M 157.5,452.5 C 157.177,458.69 157.51,464.69 158.5,470.5C 158.013,471.473 157.513,472.473 157,473.5C 156.179,466.321 156.345,459.321 157.5,452.5 Z"/></g>
</svg>
