<?xml version="1.0" encoding="UTF-8"?>
<!DOCTYPE svg PUBLIC "-//W3C//DTD SVG 1.1//EN" "http://www.w3.org/Graphics/SVG/1.1/DTD/svg11.dtd">
<svg xmlns="http://www.w3.org/2000/svg" version="1.1" width="192px" height="591px" style="shape-rendering:geometricPrecision; text-rendering:geometricPrecision; image-rendering:optimizeQuality; fill-rule:evenodd; clip-rule:evenodd" xmlns:xlink="http://www.w3.org/1999/xlink">
<g><path style="opacity:1" fill="#fefefe" d="M -0.5,-0.5 C 18.5,-0.5 37.5,-0.5 56.5,-0.5C 52.8174,1.82995 50.3174,5.16328 49,9.5C 46.4562,21.4099 45.7896,33.4099 47,45.5C 38.0577,40.9474 28.8911,36.7807 19.5,33C 13.5069,31.3317 11.0069,33.4983 12,39.5C 14.4908,49.13 16.8242,58.7966 19,68.5C 20.3019,72.2743 22.4686,75.441 25.5,78C 15.7184,87.5529 8.71838,98.8862 4.5,112C 4.43928,113.711 5.10595,115.044 6.5,116C 13.8333,121 21.1667,126 28.5,131C 33.9867,132.878 39.6533,134.044 45.5,134.5C 42.3738,144.958 40.8738,155.625 41,166.5C 42.5007,168.584 44.5007,169.917 47,170.5C 64.1607,163.997 76.8274,152.663 85,136.5C 89.1667,141.333 93.6667,145.833 98.5,150C 105.816,154.159 113.483,157.492 121.5,160C 124.128,161.626 126.461,163.626 128.5,166C 130.409,166.448 131.576,165.615 132,163.5C 134.173,144.707 134.673,126.04 133.5,107.5C 132.84,102.685 130.506,98.8515 126.5,96C 127.908,95.6848 129.241,96.0181 130.5,97C 135.229,102.956 139.062,109.456 142,116.5C 143.039,117.71 144.206,118.71 145.5,119.5C 164.286,180.214 174.619,242.214 176.5,305.5C 177.462,364.284 175.295,422.951 170,481.5C 165.397,506.389 161.73,531.389 159,556.5C 157.372,563.642 155.872,570.809 154.5,578C 154.354,580.034 155.02,581.701 156.5,583C 159.351,584.289 162.351,584.789 165.5,584.5C 166.111,577.168 166.278,569.835 166,562.5C 164.186,568.718 163.019,575.051 162.5,581.5C 160.856,581.714 159.356,581.38 158,580.5C 159.418,566.4 161.752,552.4 165,538.5C 167.246,523.534 169.246,508.534 171,493.5C 171.376,490.99 172.21,488.657 173.5,486.5C 175.167,488.167 176.167,487.833 176.5,485.5C 172.747,477.243 173.08,469.243 177.5,461.5C 176.369,460.396 175.535,460.729 175,462.5C 175.754,454.212 176.587,445.879 177.5,437.5C 176.895,433.197 176.562,428.864 176.5,424.5C 177.944,396.515 178.944,368.515 179.5,340.5C 179.512,323.315 178.846,306.315 177.5,289.5C 175.244,231.107 165.244,174.107 147.5,118.5C 148.688,117.316 149.855,117.316 151,118.5C 169.67,170.183 180.003,223.516 182,278.5C 183.638,322.513 183.805,366.513 182.5,410.5C 185.679,431.257 184.012,451.59 177.5,471.5C 179.03,473.226 180.03,475.226 180.5,477.5C 174.933,503.236 170.766,529.236 168,555.5C 177.026,515.967 183.526,476.133 187.5,436C 186.612,421.771 186.612,407.604 187.5,393.5C 186.577,389.936 186.244,386.269 186.5,382.5C 186.466,343.816 185.633,305.15 184,266.5C 181.392,212.513 170.725,160.18 152,109.5C 147.022,100.714 141.522,92.381 135.5,84.5C 139.109,70.5645 143.109,56.7312 147.5,43C 147.355,42.228 147.022,41.5613 146.5,41C 136.327,40.9655 126.327,39.6321 116.5,37C 111.167,36.3333 105.833,36.3333 100.5,37C 99.2341,37.3095 98.0674,37.8095 97,38.5C 94.5608,29.3031 89.3941,21.9697 81.5,16.5C 75.5398,9.87497 68.8731,4.2083 61.5,-0.5C 104.833,-0.5 148.167,-0.5 191.5,-0.5C 191.5,196.5 191.5,393.5 191.5,590.5C 127.5,590.5 63.5,590.5 -0.5,590.5C -0.5,393.5 -0.5,196.5 -0.5,-0.5 Z"/></g>
<g><path style="opacity:1" fill="#fafafa" d="M 81.5,19.5 C 86.5555,24.4409 90.2222,30.2742 92.5,37C 89.3049,42.7056 86.3049,48.539 83.5,54.5C 82.2237,56.5625 81.3903,58.8958 81,61.5C 80.8209,51.8185 77.8209,43.1518 72,35.5C 73.2208,41.1758 74.8875,46.8425 77,52.5C 78.191,57.7674 78.691,63.1007 78.5,68.5C 77.8826,68.6107 77.3826,68.944 77,69.5C 75.9321,60.9631 73.2655,52.9631 69,45.5C 70.8127,54.0952 72.646,62.7618 74.5,71.5C 74.6598,73.3545 73.9931,74.6879 72.5,75.5C 68.9007,76.64 65.234,77.14 61.5,77C 54.7305,68.366 50.8972,58.5326 50,47.5C 49.3333,37.1667 49.3333,26.8333 50,16.5C 50.6967,12.0716 52.3634,8.07157 55,4.5C 56.126,3.05644 57.626,2.38977 59.5,2.5C 62.5277,2.84731 65.1944,4.01398 67.5,6C 72.4758,10.2946 77.1425,14.7946 81.5,19.5 Z"/></g>
<g><path style="opacity:1" fill="#282828" d="M 83.5,54.5 C 83.3284,55.4916 83.6618,56.1583 84.5,56.5C 83.6463,62.1209 83.313,67.7876 83.5,73.5C 82.6787,70.3586 82.1787,67.0252 82,63.5C 81.1175,67.4295 80.6175,71.4295 80.5,75.5C 79.8319,73.0312 79.1653,70.6979 78.5,68.5C 78.691,63.1007 78.191,57.7674 77,52.5C 74.8875,46.8425 73.2208,41.1758 72,35.5C 77.8209,43.1518 80.8209,51.8185 81,61.5C 81.3903,58.8958 82.2237,56.5625 83.5,54.5 Z"/></g>
<g><path style="opacity:1" fill="#f5f5f5" d="M 80.5,77.5 C 82.433,79.9374 84.5997,82.2707 87,84.5C 88.2525,87.0135 88.7525,89.6802 88.5,92.5C 81.9883,99.1101 74.9883,105.277 67.5,111C 64.1414,113.215 61.4747,112.549 59.5,109C 61.8333,106 64.1667,103 66.5,100C 65.451,99.5078 64.451,99.6744 63.5,100.5C 62.246,98.7408 62.5794,97.2408 64.5,96C 52.4554,93.1047 52.122,90.4381 63.5,88C 59.4529,88.1813 55.4529,88.0146 51.5,87.5C 50.3318,86.0944 50.6652,84.9277 52.5,84C 51.8333,83.6667 51.1667,83.3333 50.5,83C 51.6226,81.9563 52.9559,81.2896 54.5,81C 53.1667,80.6667 51.8333,80.3333 50.5,80C 60.5631,79.6537 70.5631,78.8204 80.5,77.5 Z"/></g>
<g><path style="opacity:1" fill="#fbfbfb" d="M 95.5,94.5 C 98.8597,96.5055 102.526,98.0055 106.5,99C 112.507,99.1319 118.507,99.1319 124.5,99C 128.081,103.33 130.748,108.163 132.5,113.5C 132.351,129.327 130.684,144.994 127.5,160.5C 120.283,157.058 112.95,153.891 105.5,151C 97.1339,146.303 91.3006,139.469 88,130.5C 88.2926,123.85 88.7926,117.184 89.5,110.5C 89.6589,106.34 88.9922,102.34 87.5,98.5C 88,98.1667 88.5,97.8333 89,97.5C 100.85,104.025 109.184,113.692 114,126.5C 111.563,113.123 104.73,102.623 93.5,95C 94.0944,94.5357 94.7611,94.369 95.5,94.5 Z"/></g>
<g><path style="opacity:1" fill="#161616" d="M 81.5,16.5 C 89.3941,21.9697 94.5608,29.3031 97,38.5C 98.0674,37.8095 99.2341,37.3095 100.5,37C 105.833,36.3333 111.167,36.3333 116.5,37C 126.327,39.6321 136.327,40.9655 146.5,41C 147.022,41.5613 147.355,42.228 147.5,43C 143.109,56.7312 139.109,70.5645 135.5,84.5C 141.522,92.381 147.022,100.714 152,109.5C 170.725,160.18 181.392,212.513 184,266.5C 185.633,305.15 186.466,343.816 186.5,382.5C 185.352,386.981 185.185,391.648 186,396.5C 186.232,395.263 186.732,394.263 187.5,393.5C 186.612,407.604 186.612,421.771 187.5,436C 183.526,476.133 177.026,515.967 168,555.5C 170.766,529.236 174.933,503.236 180.5,477.5C 180.03,475.226 179.03,473.226 177.5,471.5C 184.012,451.59 185.679,431.257 182.5,410.5C 183.805,366.513 183.638,322.513 182,278.5C 180.003,223.516 169.67,170.183 151,118.5C 149.855,117.316 148.688,117.316 147.5,118.5C 146.833,118.833 146.167,119.167 145.5,119.5C 144.206,118.71 143.039,117.71 142,116.5C 139.062,109.456 135.229,102.956 130.5,97C 129.241,96.0181 127.908,95.6848 126.5,96C 130.506,98.8515 132.84,102.685 133.5,107.5C 133.795,109.735 133.461,111.735 132.5,113.5C 130.748,108.163 128.081,103.33 124.5,99C 118.507,99.1319 112.507,99.1319 106.5,99C 102.526,98.0055 98.8597,96.5055 95.5,94.5C 93.3698,92.5605 91.0365,91.8938 88.5,92.5C 88.7525,89.6802 88.2525,87.0135 87,84.5C 84.5997,82.2707 82.433,79.9374 80.5,77.5C 77.8333,76.8333 75.1667,76.1667 72.5,75.5C 73.9931,74.6879 74.6598,73.3545 74.5,71.5C 72.646,62.7618 70.8127,54.0952 69,45.5C 73.2655,52.9631 75.9321,60.9631 77,69.5C 77.3826,68.944 77.8826,68.6107 78.5,68.5C 79.1653,70.6979 79.8319,73.0312 80.5,75.5C 80.6175,71.4295 81.1175,67.4295 82,63.5C 82.1787,67.0252 82.6787,70.3586 83.5,73.5C 84.7899,72.9423 85.6232,71.9423 86,70.5C 86.3333,73.5 86.6667,76.5 87,79.5C 88.1707,77.3843 89.6707,76.7176 91.5,77.5C 90.6872,78.8139 89.6872,79.9805 88.5,81C 96.0936,80.7891 102.594,77.9557 108,72.5C 107.454,75.0933 105.954,77.2599 103.5,79C 99.3871,81.3908 95.0538,83.2241 90.5,84.5C 91.1445,85.7321 91.3112,87.0654 91,88.5C 100.047,94.0707 109.88,96.5707 120.5,96C 127.07,93.762 131.237,89.262 133,82.5C 136.411,70.0233 139.577,57.5233 142.5,45C 129.327,41.8033 115.994,40.1366 102.5,40C 93.7721,42.5626 87.7721,48.0626 84.5,56.5C 83.6618,56.1583 83.3284,55.4916 83.5,54.5C 86.3049,48.539 89.3049,42.7056 92.5,37C 90.2222,30.2742 86.5555,24.4409 81.5,19.5C 80.8843,18.2022 80.8843,17.2022 81.5,16.5 Z"/></g>
<g><path style="opacity:1" fill="#f3f3f3" d="M 132.5,88.5 C 134.903,88.393 136.736,89.393 138,91.5C 142.296,98.1157 146.13,104.949 149.5,112C 149.415,113.107 149.081,114.107 148.5,115C 146.322,115.165 144.489,114.332 143,112.5C 139.031,105.7 134.865,99.0337 130.5,92.5C 131.18,91.1401 131.847,89.8068 132.5,88.5 Z"/></g>
<g><path style="opacity:1" fill="#fbfbfb" d="M 83.5,73.5 C 83.313,67.7876 83.6463,62.1209 84.5,56.5C 87.7721,48.0626 93.7721,42.5626 102.5,40C 115.994,40.1366 129.327,41.8033 142.5,45C 139.577,57.5233 136.411,70.0233 133,82.5C 131.237,89.262 127.07,93.762 120.5,96C 109.88,96.5707 100.047,94.0707 91,88.5C 91.3112,87.0654 91.1445,85.7321 90.5,84.5C 95.0538,83.2241 99.3871,81.3908 103.5,79C 105.954,77.2599 107.454,75.0933 108,72.5C 102.594,77.9557 96.0936,80.7891 88.5,81C 89.6872,79.9805 90.6872,78.8139 91.5,77.5C 89.6707,76.7176 88.1707,77.3843 87,79.5C 86.6667,76.5 86.3333,73.5 86,70.5C 85.6232,71.9423 84.7899,72.9423 83.5,73.5 Z"/></g>
<g><path style="opacity:1" fill="#1a1a1a" d="M 56.5,-0.5 C 58.1667,-0.5 59.8333,-0.5 61.5,-0.5C 68.8731,4.2083 75.5398,9.87497 81.5,16.5C 80.8843,17.2022 80.8843,18.2022 81.5,19.5C 77.1425,14.7946 72.4758,10.2946 67.5,6C 65.1944,4.01398 62.5277,2.84731 59.5,2.5C 57.626,2.38977 56.126,3.05644 55,4.5C 52.3634,8.07157 50.6967,12.0716 50,16.5C 49.3333,26.8333 49.3333,37.1667 50,47.5C 50.8972,58.5326 54.7305,68.366 61.5,77C 65.234,77.14 68.9007,76.64 72.5,75.5C 75.1667,76.1667 77.8333,76.8333 80.5,77.5C 70.5631,78.8204 60.5631,79.6537 50.5,80C 51.8333,80.3333 53.1667,80.6667 54.5,81C 52.9559,81.2896 51.6226,81.9563 50.5,83C 51.1667,83.3333 51.8333,83.6667 52.5,84C 50.6652,84.9277 50.3318,86.0944 51.5,87.5C 55.4529,88.0146 59.4529,88.1813 63.5,88C 52.122,90.4381 52.4554,93.1047 64.5,96C 62.5794,97.2408 62.246,98.7408 63.5,100.5C 64.451,99.6744 65.451,99.5078 66.5,100C 64.1667,103 61.8333,106 59.5,109C 61.4747,112.549 64.1414,113.215 67.5,111C 74.9883,105.277 81.9883,99.1101 88.5,92.5C 91.0365,91.8938 93.3698,92.5605 95.5,94.5C 94.7611,94.369 94.0944,94.5357 93.5,95C 104.73,102.623 111.563,113.123 114,126.5C 109.184,113.692 100.85,104.025 89,97.5C 88.5,97.8333 88,98.1667 87.5,98.5C 88.9922,102.34 89.6589,106.34 89.5,110.5C 88.7926,117.184 88.2926,123.85 88,130.5C 91.3006,139.469 97.1339,146.303 105.5,151C 112.95,153.891 120.283,157.058 127.5,160.5C 130.684,144.994 132.351,129.327 132.5,113.5C 133.461,111.735 133.795,109.735 133.5,107.5C 134.673,126.04 134.173,144.707 132,163.5C 131.576,165.615 130.409,166.448 128.5,166C 126.461,163.626 124.128,161.626 121.5,160C 113.483,157.492 105.816,154.159 98.5,150C 93.6667,145.833 89.1667,141.333 85,136.5C 76.8274,152.663 64.1607,163.997 47,170.5C 44.5007,169.917 42.5007,168.584 41,166.5C 40.8738,155.625 42.3738,144.958 45.5,134.5C 39.6533,134.044 33.9867,132.878 28.5,131C 21.1667,126 13.8333,121 6.5,116C 5.10595,115.044 4.43928,113.711 4.5,112C 8.71838,98.8862 15.7184,87.5529 25.5,78C 22.4686,75.441 20.3019,72.2743 19,68.5C 16.8242,58.7966 14.4908,49.13 12,39.5C 11.0069,33.4983 13.5069,31.3317 19.5,33C 28.8911,36.7807 38.0577,40.9474 47,45.5C 45.7896,33.4099 46.4562,21.4099 49,9.5C 50.3174,5.16328 52.8174,1.82995 56.5,-0.5 Z"/></g>
<g><path style="opacity:1" fill="#fafafa" d="M 82.5,101.5 C 84.8251,102.655 85.9918,104.655 86,107.5C 87.4323,135.723 75.2657,155.557 49.5,167C 48.0563,167.781 46.723,167.614 45.5,166.5C 43.7262,151.572 45.8928,137.239 52,123.5C 60.4358,123.274 66.4358,119.274 70,111.5C 71.7103,110.055 73.5436,109.222 75.5,109C 73.4297,115.017 72.263,121.184 72,127.5C 75.5659,120.573 77.8992,113.24 79,105.5C 80.3756,104.295 81.5423,102.962 82.5,101.5 Z"/></g>
<g><path style="opacity:1" fill="#f8f8f8" d="M 31.5,78.5 C 36.43,78.1975 41.2633,78.5308 46,79.5C 46.3333,82.1667 46.6667,84.8333 47,87.5C 49.5997,90.2358 50.933,93.5692 51,97.5C 52.6994,101.205 55.5328,103.372 59.5,104C 56.075,106.285 55.575,109.118 58,112.5C 60.045,113.887 62.2117,115.054 64.5,116C 58.8274,120.863 54.4941,119.697 51.5,112.5C 49.3439,114.938 47.0106,115.105 44.5,113C 43.8803,110.527 43.2136,108.027 42.5,105.5C 38.5818,103.017 38.9151,100.851 43.5,99C 41.8333,98.6667 40.1667,98.3333 38.5,98C 33.626,93.2881 32.626,94.1214 35.5,100.5C 31.2569,103.024 26.9236,105.357 22.5,107.5C 25.3956,107.498 28.3956,106.665 31.5,105C 33.1667,104.333 34.8333,104.333 36.5,105C 39.3393,108.25 41.3393,111.916 42.5,116C 45.4262,116.218 48.2595,116.718 51,117.5C 49.2117,130.896 42.045,134.729 29.5,129C 21.525,123.683 14.1916,117.683 7.5,111C 11.6468,100.363 17.3134,90.6964 24.5,82C 26.9252,80.7874 29.2585,79.6207 31.5,78.5 Z"/></g>
<g><path style="opacity:1" fill="#141414" d="M 38.5,79.5 C 40.1765,80.1834 40.8432,81.5168 40.5,83.5C 41.675,83.281 42.675,83.6143 43.5,84.5C 41.1099,84.358 38.7765,84.858 36.5,86C 37.9825,88.573 37.4825,90.7397 35,92.5C 32.1422,86.9042 33.3089,82.5709 38.5,79.5 Z"/></g>
<g><path style="opacity:1" fill="#fafafa" d="M 16.5,35.5 C 26.5896,38.5412 36.2563,42.7079 45.5,48C 47.4875,49.3189 48.6541,51.1523 49,53.5C 48.8949,62.1939 51.7282,69.6939 57.5,76C 51.5198,73.0787 45.6865,69.5787 40,65.5C 42.2564,68.7807 45.0898,71.9473 48.5,75C 48.1667,75.3333 47.8333,75.6667 47.5,76C 40.4495,76.7968 33.4495,76.6301 26.5,75.5C 23.6071,72.381 21.7738,68.7143 21,64.5C 19.1758,57.5365 17.5091,50.5365 16,43.5C 15.2782,40.7395 15.4448,38.0728 16.5,35.5 Z"/></g>
<g><path style="opacity:1" fill="#222222" d="M 147.5,118.5 C 165.244,174.107 175.244,231.107 177.5,289.5C 176.512,294.64 176.179,299.974 176.5,305.5C 174.619,242.214 164.286,180.214 145.5,119.5C 146.167,119.167 146.833,118.833 147.5,118.5 Z"/></g>
<g><path style="opacity:1" fill="#8c8c8c" d="M 186.5,382.5 C 186.244,386.269 186.577,389.936 187.5,393.5C 186.732,394.263 186.232,395.263 186,396.5C 185.185,391.648 185.352,386.981 186.5,382.5 Z"/></g>
<g><path style="opacity:1" fill="#1a1a1a" d="M 177.5,289.5 C 178.846,306.315 179.512,323.315 179.5,340.5C 178.944,368.515 177.944,396.515 176.5,424.5C 176.562,428.864 176.895,433.197 177.5,437.5C 176.587,445.879 175.754,454.212 175,462.5C 175.535,460.729 176.369,460.396 177.5,461.5C 173.08,469.243 172.747,477.243 176.5,485.5C 176.167,487.833 175.167,488.167 173.5,486.5C 172.21,488.657 171.376,490.99 171,493.5C 169.246,508.534 167.246,523.534 165,538.5C 161.752,552.4 159.418,566.4 158,580.5C 159.356,581.38 160.856,581.714 162.5,581.5C 163.019,575.051 164.186,568.718 166,562.5C 166.278,569.835 166.111,577.168 165.5,584.5C 162.351,584.789 159.351,584.289 156.5,583C 155.02,581.701 154.354,580.034 154.5,578C 155.872,570.809 157.372,563.642 159,556.5C 161.73,531.389 165.397,506.389 170,481.5C 175.295,422.951 177.462,364.284 176.5,305.5C 176.179,299.974 176.512,294.64 177.5,289.5 Z"/></g>
</svg>
