<?xml version="1.0" encoding="UTF-8"?>
<!DOCTYPE svg PUBLIC "-//W3C//DTD SVG 1.1//EN" "http://www.w3.org/Graphics/SVG/1.1/DTD/svg11.dtd">
<svg xmlns="http://www.w3.org/2000/svg" version="1.1" width="128px" height="516px" style="shape-rendering:geometricPrecision; text-rendering:geometricPrecision; image-rendering:optimizeQuality; fill-rule:evenodd; clip-rule:evenodd" xmlns:xlink="http://www.w3.org/1999/xlink">
<g><path style="opacity:1" fill="#fefefe" d="M -0.5,-0.5 C 42.1667,-0.5 84.8333,-0.5 127.5,-0.5C 127.5,171.5 127.5,343.5 127.5,515.5C 88.8333,515.5 50.1667,515.5 11.5,515.5C 19.2832,501.583 25.7832,486.917 31,471.5C 48.975,436.886 65.3084,401.552 80,365.5C 92.0482,334.356 101.048,302.356 107,269.5C 110.641,225.77 114.974,182.103 120,138.5C 124.725,101.559 120.058,65.8921 106,31.5C 103.819,25.7872 100.652,20.7872 96.5,16.5C 95.914,16.7093 95.414,17.0426 95,17.5C 94.6357,27.5299 95.1357,37.5299 96.5,47.5C 93.1752,81.1159 88.0085,114.449 81,147.5C 73.9131,191.212 70.9131,235.212 72,279.5C 70.7688,292.887 69.1022,306.22 67,319.5C 66.1085,325.4 64.4418,331.067 62,336.5C 39.9608,371.621 25.6275,409.621 19,450.5C 17.079,458.806 14.4123,466.806 11,474.5C 9.59359,488.136 8.76025,501.803 8.5,515.5C 5.5,515.5 2.5,515.5 -0.5,515.5C -0.5,343.5 -0.5,171.5 -0.5,-0.5 Z"/></g>
<g><path style="opacity:1" fill="#171717" d="M 11.5,515.5 C 10.5,515.5 9.5,515.5 8.5,515.5C 8.76025,501.803 9.59359,488.136 11,474.5C 14.4123,466.806 17.079,458.806 19,450.5C 25.6275,409.621 39.9608,371.621 62,336.5C 64.4418,331.067 66.1085,325.4 67,319.5C 69.1022,306.22 70.7688,292.887 72,279.5C 70.9131,235.212 73.9131,191.212 81,147.5C 88.0085,114.449 93.1752,81.1159 96.5,47.5C 95.1357,37.5299 94.6357,27.5299 95,17.5C 95.414,17.0426 95.914,16.7093 96.5,16.5C 100.652,20.7872 103.819,25.7872 106,31.5C 120.058,65.8921 124.725,101.559 120,138.5C 114.974,182.103 110.641,225.77 107,269.5C 101.048,302.356 92.0482,334.356 80,365.5C 65.3084,401.552 48.975,436.886 31,471.5C 25.7832,486.917 19.2832,501.583 11.5,515.5 Z"/></g>
<g><path style="opacity:1" fill="#f8f8f8" d="M 96.5,259.5 C 95.3373,238.337 95.1706,217.004 96,195.5C 99.334,161.496 102.667,127.496 106,93.5C 106.667,82.1667 106.667,70.8333 106,59.5C 105.823,55.6437 105.323,51.977 104.5,48.5C 104.334,44.1539 104.501,39.8206 105,35.5C 112.511,54.0477 116.845,73.381 118,93.5C 117.9,149.762 110.734,205.095 96.5,259.5 Z"/></g>
<g><path style="opacity:1" fill="#f7f7f7" d="M 99.5,24.5 C 101.292,35.4088 102.625,46.4088 103.5,57.5C 103.667,72.1705 103.5,86.8371 103,101.5C 100.339,127.485 97.6726,153.485 95,179.5C 93.9574,190.143 93.4574,200.809 93.5,211.5C 92.8964,233.378 91.8964,255.378 90.5,277.5C 89.8423,276.602 89.1757,275.602 88.5,274.5C 87.7025,274.957 87.3691,275.624 87.5,276.5C 88.0323,281.949 86.8657,286.949 84,291.5C 83.6667,285.5 83.3333,279.5 83,273.5C 82.714,280.2 82.214,286.867 81.5,293.5C 80.8333,284.833 80.1667,276.167 79.5,267.5C 78.3815,281.683 77.2148,296.017 76,310.5C 74.6667,313.167 73.3333,315.833 72,318.5C 72.711,310.517 73.711,302.517 75,294.5C 72.9201,250.976 74.9201,207.643 81,164.5C 85.95,135.418 91.2833,106.418 97,77.5C 98.3453,61.5328 98.8453,45.5328 98.5,29.5C 98.2155,27.5853 98.5489,25.9187 99.5,24.5 Z"/></g>
<g><path style="opacity:1" fill="#8f8f8f" d="M 99.5,24.5 C 98.5489,25.9187 98.2155,27.5853 98.5,29.5C 97.3709,27.3718 97.2042,25.0385 98,22.5C 98.7172,23.0442 99.2172,23.7109 99.5,24.5 Z"/></g>
<g><path style="opacity:1" fill="#242424" d="M 104.5,48.5 C 105.323,51.977 105.823,55.6437 106,59.5C 106.667,70.8333 106.667,82.1667 106,93.5C 102.667,127.496 99.334,161.496 96,195.5C 95.1706,217.004 95.3373,238.337 96.5,259.5C 96.0133,260.473 95.5133,261.473 95,262.5C 94.8316,245.328 94.3316,228.328 93.5,211.5C 93.4574,200.809 93.9574,190.143 95,179.5C 97.6726,153.485 100.339,127.485 103,101.5C 103.5,86.8371 103.667,72.1705 103.5,57.5C 104.477,54.7131 104.81,51.7131 104.5,48.5 Z"/></g>
<g><path style="opacity:1" fill="#f8f8f8" d="M 107.5,225.5 C 106.273,265.476 98.7732,304.476 85,342.5C 71.4524,379.262 55.4524,414.929 37,449.5C 29.16,470.181 20.4933,490.514 11,510.5C 10.3333,507.833 10.3333,505.167 11,502.5C 21.9921,476.838 30.6588,450.505 37,423.5C 29.811,441.735 23.811,460.402 19,479.5C 17.2737,483.953 15.2737,488.286 13,492.5C 19.1364,462.379 26.1364,432.379 34,402.5C 38.7817,389.603 44.1151,376.936 50,364.5C 62.9205,341.661 75.5872,318.661 88,295.5C 97.2494,272.92 103.749,249.587 107.5,225.5 Z"/></g>
<g><path style="opacity:1" fill="#bdbdbd" d="M 79.5,267.5 C 80.1667,276.167 80.8333,284.833 81.5,293.5C 81.313,295.564 80.813,297.564 80,299.5C 79.5002,288.839 79.3335,278.172 79.5,267.5 Z"/></g>
<g><path style="opacity:1" fill="#818181" d="M 90.5,277.5 C 90.5386,278.756 90.0386,279.756 89,280.5C 88.79,278.942 88.29,277.609 87.5,276.5C 87.3691,275.624 87.7025,274.957 88.5,274.5C 89.1757,275.602 89.8423,276.602 90.5,277.5 Z"/></g>
<g><path style="opacity:1" fill="#161616" d="M 84.5,335.5 C 85.5735,336.251 85.7401,337.251 85,338.5C 77.7955,352.357 69.7955,365.691 61,378.5C 60.1627,380.007 58.9961,380.507 57.5,380C 66.8993,365.361 75.8993,350.527 84.5,335.5 Z"/></g>
</svg>
