<?xml version="1.0" encoding="UTF-8"?>
<!DOCTYPE svg PUBLIC "-//W3C//DTD SVG 1.1//EN" "http://www.w3.org/Graphics/SVG/1.1/DTD/svg11.dtd">
<svg xmlns="http://www.w3.org/2000/svg" version="1.1" width="288px" height="613px" style="shape-rendering:geometricPrecision; text-rendering:geometricPrecision; image-rendering:optimizeQuality; fill-rule:evenodd; clip-rule:evenodd" xmlns:xlink="http://www.w3.org/1999/xlink">
<g><path style="opacity:1" fill="#fefefe" d="M -0.5,-0.5 C 95.5,-0.5 191.5,-0.5 287.5,-0.5C 287.5,203.833 287.5,408.167 287.5,612.5C 191.5,612.5 95.5,612.5 -0.5,612.5C -0.5,408.167 -0.5,203.833 -0.5,-0.5 Z"/></g>
<g><path style="opacity:1" fill="#181818" d="M 166.5,509.5 C 168.388,507.012 169.055,504.012 168.5,500.5C 169.386,482.984 170.719,465.651 172.5,448.5C 173.166,452.021 173.833,455.687 174.5,459.5C 175.466,457.604 175.799,455.604 175.5,453.5C 177.628,444.906 179.461,436.239 181,427.5C 182.262,374.451 181.262,321.451 178,268.5C 174.117,223.526 164.45,179.86 149,137.5C 147.455,136.179 146.289,136.512 145.5,138.5C 163.162,193.783 173.329,250.45 176,308.5C 177.992,344.184 177.825,379.85 175.5,415.5C 174.515,411.366 174.182,407.032 174.5,402.5C 176.158,348.293 173.658,294.293 167,240.5C 161.833,205.832 153.833,171.832 143,138.5C 139.173,134.004 136.173,129.004 134,123.5C 132.167,121 130.333,118.5 128.5,116C 127.241,115.018 125.908,114.685 124.5,115C 128.381,117.928 130.881,121.761 132,126.5C 132.664,145.208 131.997,163.875 130,182.5C 129.632,183.91 128.799,184.91 127.5,185.5C 124.978,183.144 122.312,180.977 119.5,179C 110.324,176.078 101.657,172.078 93.5,167C 90.3405,162.841 86.8405,159.008 83,155.5C 74.7004,172.471 61.5338,183.637 43.5,189C 39.7623,187.601 38.0956,184.934 38.5,181C 39.4612,171.695 41.1279,162.528 43.5,153.5C 37.6533,153.044 31.9867,151.878 26.5,150C 18.404,144.869 10.5707,139.369 3,133.5C 6.02502,119.292 12.8584,107.125 23.5,97C 20.4686,94.441 18.3019,91.2743 17,87.5C 14.0135,76.2325 11.6802,64.8991 10,53.5C 12.1529,51.5561 14.6529,51.0561 17.5,52C 26.8911,55.7807 36.0577,59.9474 45,64.5C 43.7896,52.4099 44.4562,40.4099 47,28.5C 50.1413,19.3063 55.9746,16.8063 64.5,21C 72.97,28.469 81.1366,36.3023 89,44.5C 91.8345,48.4992 93.8345,52.8325 95,57.5C 96.0674,56.8095 97.2341,56.3095 98.5,56C 103.833,55.3333 109.167,55.3333 114.5,56C 124.327,58.6321 134.327,59.9655 144.5,60C 145.022,60.5613 145.355,61.228 145.5,62C 141.109,75.7312 137.109,89.5645 133.5,103.5C 139.522,111.381 145.022,119.714 150,128.5C 168.725,179.18 179.392,231.513 182,285.5C 183.633,324.15 184.466,362.816 184.5,401.5C 183.352,405.981 183.185,410.648 184,415.5C 184.41,414.099 184.91,412.766 185.5,411.5C 193.003,380.83 205.17,352.163 222,325.5C 224.442,320.067 226.108,314.4 227,308.5C 231.894,275.025 233.894,241.359 233,207.5C 234.449,183.694 237.115,160.027 241,136.5C 248.008,103.449 253.175,70.1159 256.5,36.5C 255.136,26.5299 254.636,16.5299 255,6.5C 257.091,5.5004 258.757,6.16707 260,8.5C 277.091,41.7887 284.091,77.122 281,114.5C 275.778,157.387 271.778,200.387 269,243.5C 261.541,293.877 247.208,342.21 226,388.5C 215.939,409.623 205.605,430.623 195,451.5C 190.057,463.054 185.39,474.721 181,486.5C 178.324,516.236 173.324,545.569 166,574.5C 165.888,569.5 166.221,564.5 167,559.5C 170.823,538.551 174.323,517.551 177.5,496.5C 177.333,495.5 177.167,494.5 177,493.5C 174.393,498.38 172.06,503.38 170,508.5C 166.351,537.861 161.517,567.028 155.5,596C 155.093,599.759 156.76,601.259 160.5,600.5C 161.019,594.051 162.186,587.718 164,581.5C 164.278,588.835 164.111,596.168 163.5,603.5C 160.351,603.789 157.351,603.289 154.5,602C 153.02,600.701 152.354,599.034 152.5,597C 153.872,589.809 155.372,582.642 157,575.5C 157.333,569.167 157.667,562.833 158,556.5C 161.414,540.929 164.248,525.262 166.5,509.5 Z"/></g>
<g><path style="opacity:1" fill="#f8f8f8" d="M 256.5,248.5 C 255.337,227.337 255.171,206.004 256,184.5C 258.176,157.091 261.01,129.758 264.5,102.5C 265.713,90.2141 266.379,77.8807 266.5,65.5C 265.907,51.8192 265.407,38.1526 265,24.5C 272.511,43.0477 276.845,62.381 278,82.5C 277.9,138.762 270.734,194.095 256.5,248.5 Z"/></g>
<g><path style="opacity:1" fill="#fafafa" d="M 81.5,73.5 C 80.2237,75.5625 79.3903,77.8958 79,80.5C 78.8209,70.8185 75.8209,62.1518 70,54.5C 71.2208,60.1758 72.8875,65.8425 75,71.5C 76.191,76.7674 76.691,82.1007 76.5,87.5C 75.8826,87.6107 75.3826,87.944 75,88.5C 73.9321,79.9631 71.2655,71.9631 67,64.5C 68.4881,72.1288 70.1548,79.7954 72,87.5C 72.6667,89.5 72.6667,91.5 72,93.5C 67.9548,95.1159 63.7881,95.9492 59.5,96C 52.7305,87.366 48.8972,77.5326 48,66.5C 47.3333,56.1667 47.3333,45.8333 48,35.5C 48.7029,30.2618 50.8696,25.7618 54.5,22C 57.3033,21.245 59.9699,21.5783 62.5,23C 71.6667,29.5 79.5,37.3333 86,46.5C 88.1727,49.3456 89.6727,52.5122 90.5,56C 87.3049,61.7056 84.3049,67.539 81.5,73.5 Z"/></g>
<g><path style="opacity:1" fill="#f7f7f7" d="M 259.5,13.5 C 261.256,23.3802 262.422,33.3802 263,43.5C 263.5,59.1631 263.667,74.8298 263.5,90.5C 261.52,112.751 259.02,135.084 256,157.5C 254.426,171.793 253.593,186.127 253.5,200.5C 252.896,222.378 251.896,244.378 250.5,266.5C 249.842,265.602 249.176,264.602 248.5,263.5C 247.702,263.957 247.369,264.624 247.5,265.5C 248.032,270.949 246.866,275.949 244,280.5C 243.667,274.5 243.333,268.5 243,262.5C 242.714,269.2 242.214,275.867 241.5,282.5C 240.833,273.833 240.167,265.167 239.5,256.5C 238.381,270.683 237.215,285.017 236,299.5C 234.667,302.167 233.333,304.833 232,307.5C 232.711,299.517 233.711,291.517 235,283.5C 232.92,239.976 234.92,196.643 241,153.5C 245.95,124.418 251.283,95.4177 257,66.5C 258.345,50.5328 258.845,34.5328 258.5,18.5C 258.216,16.5853 258.549,14.9187 259.5,13.5 Z"/></g>
<g><path style="opacity:1" fill="#8f8f8f" d="M 259.5,13.5 C 258.549,14.9187 258.216,16.5853 258.5,18.5C 257.371,16.3718 257.204,14.0385 258,11.5C 258.717,12.0442 259.217,12.7109 259.5,13.5 Z"/></g>
<g><path style="opacity:1" fill="#fafafa" d="M 14.5,54.5 C 24.5896,57.5412 34.2563,61.7079 43.5,67C 45.4875,68.3189 46.6541,70.1523 47,72.5C 46.8949,81.1939 49.7282,88.6939 55.5,95C 49.5198,92.0787 43.6865,88.5787 38,84.5C 40.2564,87.7807 43.0898,90.9473 46.5,94C 46.1667,94.3333 45.8333,94.6667 45.5,95C 38.4495,95.7968 31.4495,95.6301 24.5,94.5C 21.6071,91.381 19.7738,87.7143 19,83.5C 17.1758,76.5365 15.5091,69.5365 14,62.5C 13.2782,59.7395 13.4448,57.0728 14.5,54.5 Z"/></g>
<g><path style="opacity:1" fill="#fbfbfb" d="M 81.5,92.5 C 81.313,86.7876 81.6463,81.1209 82.5,75.5C 88.5381,62.1453 98.8714,56.6453 113.5,59C 122.476,60.8278 131.476,62.4945 140.5,64C 137.577,76.5233 134.411,89.0233 131,101.5C 126.111,113.86 117.278,118.026 104.5,114C 98.9568,112.601 93.7901,110.434 89,107.5C 89.3112,106.065 89.1445,104.732 88.5,103.5C 95.317,101.843 101.15,98.5095 106,93.5C 106.667,92.8333 106.667,92.1667 106,91.5C 100.594,96.9557 94.0936,99.7891 86.5,100C 88.6157,98.8293 89.2824,97.3293 88.5,95.5C 87.1861,96.3128 86.0195,97.3128 85,98.5C 84.6667,95.5 84.3333,92.5 84,89.5C 83.6232,90.9423 82.7899,91.9423 81.5,92.5 Z"/></g>
<g><path style="opacity:1" fill="#282828" d="M 81.5,73.5 C 81.3284,74.4916 81.6618,75.1583 82.5,75.5C 81.6463,81.1209 81.313,86.7876 81.5,92.5C 80.6787,89.3586 80.1787,86.0252 80,82.5C 79.1175,86.4295 78.6175,90.4295 78.5,94.5C 77.8319,92.0312 77.1653,89.6979 76.5,87.5C 76.691,82.1007 76.191,76.7674 75,71.5C 72.8875,65.8425 71.2208,60.1758 70,54.5C 75.8209,62.1518 78.8209,70.8185 79,80.5C 79.3903,77.8958 80.2237,75.5625 81.5,73.5 Z"/></g>
<g><path style="opacity:1" fill="#f5f5f5" d="M 69.5,96.5 C 72.8984,96.1796 76.2317,96.513 79.5,97.5C 81.856,100.022 84.0227,102.688 86,105.5C 87.0639,110.878 85.2306,115.044 80.5,118C 74.582,122.872 68.4154,127.372 62,131.5C 59.9144,131.081 58.4144,129.914 57.5,128C 59.8333,125 62.1667,122 64.5,119C 63.451,118.508 62.451,118.674 61.5,119.5C 60.246,117.741 60.5794,116.241 62.5,115C 50.4554,112.105 50.122,109.438 61.5,107C 57.4529,107.181 53.4529,107.015 49.5,106.5C 48.3318,105.094 48.6652,103.928 50.5,103C 49.8333,102.667 49.1667,102.333 48.5,102C 49.6226,100.956 50.9559,100.29 52.5,100C 51.1667,99.6667 49.8333,99.3333 48.5,99C 54.1667,98.6667 59.8333,98.3333 65.5,98C 67.0581,97.79 68.3915,97.29 69.5,96.5 Z"/></g>
<g><path style="opacity:1" fill="#f8f8f8" d="M 29.5,97.5 C 34.43,97.1975 39.2633,97.5308 44,98.5C 44.3333,101.167 44.6667,103.833 45,106.5C 47.5997,109.236 48.933,112.569 49,116.5C 50.6994,120.205 53.5328,122.372 57.5,123C 54.075,125.285 53.575,128.118 56,131.5C 58.045,132.887 60.2117,134.054 62.5,135C 56.8274,139.863 52.4941,138.697 49.5,131.5C 47.3439,133.938 45.0106,134.105 42.5,132C 41.8803,129.527 41.2136,127.027 40.5,124.5C 36.5818,122.017 36.9151,119.851 41.5,118C 39.8333,117.667 38.1667,117.333 36.5,117C 31.626,112.288 30.626,113.121 33.5,119.5C 29.2569,122.024 24.9236,124.357 20.5,126.5C 23.3956,126.498 26.3956,125.665 29.5,124C 31.1667,123.333 32.8333,123.333 34.5,124C 37.3393,127.25 39.3393,130.916 40.5,135C 43.4262,135.218 46.2595,135.718 49,136.5C 47.2117,149.896 40.045,153.729 27.5,148C 19.525,142.683 12.1916,136.683 5.5,130C 9.64676,119.363 15.3134,109.696 22.5,101C 24.9252,99.7874 27.2585,98.6207 29.5,97.5 Z"/></g>
<g><path style="opacity:1" fill="#141414" d="M 36.5,98.5 C 38.1765,99.1834 38.8432,100.517 38.5,102.5C 39.675,102.281 40.675,102.614 41.5,103.5C 39.1099,103.358 36.7765,103.858 34.5,105C 35.9825,107.573 35.4825,109.74 33,111.5C 30.1422,105.904 31.3089,101.571 36.5,98.5 Z"/></g>
<g><path style="opacity:1" fill="#f3f3f3" d="M 130.5,107.5 C 132.903,107.393 134.736,108.393 136,110.5C 140.296,117.116 144.13,123.949 147.5,131C 147.415,132.107 147.081,133.107 146.5,134C 144.322,134.165 142.489,133.332 141,131.5C 137.031,124.7 132.865,118.034 128.5,111.5C 129.18,110.14 129.847,108.807 130.5,107.5 Z"/></g>
<g><path style="opacity:1" fill="#262626" d="M 263.5,90.5 C 263.183,94.7016 263.517,98.7016 264.5,102.5C 261.01,129.758 258.176,157.091 256,184.5C 255.171,206.004 255.337,227.337 256.5,248.5C 256.013,249.473 255.513,250.473 255,251.5C 254.832,234.328 254.332,217.328 253.5,200.5C 253.593,186.127 254.426,171.793 256,157.5C 259.02,135.084 261.52,112.751 263.5,90.5 Z"/></g>
<g><path style="opacity:1" fill="#fbfbfb" d="M 91.5,114.5 C 91.56,113.957 91.8933,113.624 92.5,113.5C 101.985,118.349 111.985,119.849 122.5,118C 128.114,124.063 130.781,131.229 130.5,139.5C 129.704,152.944 128.037,166.277 125.5,179.5C 118.283,176.058 110.95,172.891 103.5,170C 93.8482,164.679 87.8482,156.679 85.5,146C 87.9856,136.448 87.9856,126.948 85.5,117.5C 86,117.167 86.5,116.833 87,116.5C 98.8503,123.025 107.184,132.692 112,145.5C 109.652,132.121 102.819,121.787 91.5,114.5 Z"/></g>
<g><path style="opacity:1" fill="#fafafa" d="M 80.5,120.5 C 82.8251,121.655 83.9918,123.655 84,126.5C 85.4323,154.723 73.2657,174.557 47.5,186C 46.0563,186.781 44.723,186.614 43.5,185.5C 41.7262,170.572 43.8928,156.239 50,142.5C 58.4358,142.274 64.4358,138.274 68,130.5C 69.7103,129.055 71.5436,128.222 73.5,128C 71.4297,134.017 70.263,140.184 70,146.5C 73.5659,139.573 75.8992,132.24 77,124.5C 78.3756,123.295 79.5423,121.962 80.5,120.5 Z"/></g>
<g><path style="opacity:1" fill="#eeeeee" d="M 175.5,453.5 C 174.69,441.002 174.69,428.335 175.5,415.5C 177.825,379.85 177.992,344.184 176,308.5C 173.329,250.45 163.162,193.783 145.5,138.5C 146.289,136.512 147.455,136.179 149,137.5C 164.45,179.86 174.117,223.526 178,268.5C 181.262,321.451 182.262,374.451 181,427.5C 179.461,436.239 177.628,444.906 175.5,453.5 Z"/></g>
<g><path style="opacity:1" fill="#afafaf" d="M 267.5,225.5 C 267.768,223.901 267.434,222.568 266.5,221.5C 266.838,219.146 267.338,216.813 268,214.5C 268.81,218.358 268.643,222.024 267.5,225.5 Z"/></g>
<g><path style="opacity:1" fill="#f8f8f8" d="M 266.5,221.5 C 267.434,222.568 267.768,223.901 267.5,225.5C 264.752,261.827 257.252,297.16 245,331.5C 231.452,368.262 215.452,403.929 197,438.5C 189.16,459.181 180.493,479.514 171,499.5C 170.333,496.833 170.333,494.167 171,491.5C 181.992,465.838 190.659,439.505 197,412.5C 189.811,430.735 183.811,449.402 179,468.5C 177.274,472.953 175.274,477.286 173,481.5C 179.137,451.371 186.137,421.371 194,391.5C 198.782,378.603 204.115,365.936 210,353.5C 222.92,330.661 235.587,307.661 248,284.5C 256.188,264.081 262.354,243.081 266.5,221.5 Z"/></g>
<g><path style="opacity:1" fill="#bdbdbd" d="M 239.5,256.5 C 240.167,265.167 240.833,273.833 241.5,282.5C 241.313,284.564 240.813,286.564 240,288.5C 239.5,277.839 239.333,267.172 239.5,256.5 Z"/></g>
<g><path style="opacity:1" fill="#818181" d="M 250.5,266.5 C 250.539,267.756 250.039,268.756 249,269.5C 248.79,267.942 248.29,266.609 247.5,265.5C 247.369,264.624 247.702,263.957 248.5,263.5C 249.176,264.602 249.842,265.602 250.5,266.5 Z"/></g>
<g><path style="opacity:1" fill="#161616" d="M 244.5,324.5 C 245.573,325.251 245.74,326.251 245,327.5C 237.795,341.357 229.795,354.691 221,367.5C 220.163,369.007 218.996,369.507 217.5,369C 226.899,354.361 235.899,339.527 244.5,324.5 Z"/></g>
<g><path style="opacity:1" fill="#8b8b8b" d="M 184.5,401.5 C 184.187,405.042 184.521,408.375 185.5,411.5C 184.91,412.766 184.41,414.099 184,415.5C 183.185,410.648 183.352,405.981 184.5,401.5 Z"/></g>
<g><path style="opacity:1" fill="#282828" d="M 174.5,402.5 C 174.182,407.032 174.515,411.366 175.5,415.5C 174.69,428.335 174.69,441.002 175.5,453.5C 175.799,455.604 175.466,457.604 174.5,459.5C 173.833,455.687 173.166,452.021 172.5,448.5C 172.613,432.986 173.28,417.653 174.5,402.5 Z"/></g>
<g><path style="opacity:1" fill="#505050" d="M 168.5,500.5 C 169.055,504.012 168.388,507.012 166.5,509.5C 166.42,506.219 167.087,503.219 168.5,500.5 Z"/></g>
</svg>
