<?xml version="1.0" encoding="UTF-8"?>
<!DOCTYPE svg PUBLIC "-//W3C//DTD SVG 1.1//EN" "http://www.w3.org/Graphics/SVG/1.1/DTD/svg11.dtd">
<svg xmlns="http://www.w3.org/2000/svg" version="1.1" width="192px" height="591px" style="shape-rendering:geometricPrecision; text-rendering:geometricPrecision; image-rendering:optimizeQuality; fill-rule:evenodd; clip-rule:evenodd" xmlns:xlink="http://www.w3.org/1999/xlink">
<g><path style="opacity:1" fill="#fefefe" d="M -0.5,-0.5 C 42.5,-0.5 85.5,-0.5 128.5,-0.5C 118.297,7.19372 108.797,15.8604 100,25.5C 97.1655,29.4992 95.1655,33.8325 94,38.5C 92.9326,37.8095 91.7659,37.3095 90.5,37C 79.9532,35.8265 69.6199,36.8265 59.5,40C 54.5,40.3333 49.5,40.6667 44.5,41C 43.9781,41.5613 43.6448,42.228 43.5,43C 47.8907,56.7312 51.8907,70.5645 55.5,84.5C 49.4777,92.381 43.9777,100.714 39,109.5C 20.2752,160.18 9.60849,212.513 7,266.5C 5.36709,305.15 4.53375,343.816 4.5,382.5C 4.75599,386.269 4.42266,389.936 3.5,393.5C 4.3882,407.604 4.3882,421.771 3.5,436C 7.47364,476.133 13.9736,515.967 23,555.5C 20.2335,529.236 16.0669,503.236 10.5,477.5C 10.9702,475.226 11.9702,473.226 13.5,471.5C 6.98759,451.59 5.32093,431.257 8.5,410.5C 7.19504,366.513 7.36171,322.513 9,278.5C 10.997,223.516 21.3303,170.183 40,118.5C 41.5445,117.179 42.7112,117.512 43.5,119.5C 29.9239,162.212 20.7572,205.879 16,250.5C 10.5715,308.618 10.0715,366.784 14.5,425C 13.528,437.044 14.1947,449.044 16.5,461C 16.3333,461.5 16.1667,462 16,462.5C 15.4646,460.729 14.6313,460.396 13.5,461.5C 17.92,469.243 18.2533,477.243 14.5,485.5C 14.8333,487.833 15.8333,488.167 17.5,486.5C 18.7904,488.657 19.6237,490.99 20,493.5C 22.8636,520.41 27.197,547.077 33,573.5C 33.6667,575.833 33.6667,578.167 33,580.5C 31.6439,581.38 30.1439,581.714 28.5,581.5C 27.9807,575.051 26.814,568.718 25,562.5C 24.7219,569.835 24.8885,577.168 25.5,584.5C 28.6492,584.789 31.6492,584.289 34.5,583C 35.9797,581.701 36.6464,580.034 36.5,578C 35.1284,570.809 33.6284,563.642 32,556.5C 29.2698,531.389 25.6032,506.389 21,481.5C 12.9145,399.846 12.5812,318.179 20,236.5C 24.9649,196.676 33.6315,157.676 46,119.5C 50.6667,112.167 55.3333,104.833 60,97.5C 61.3374,96.2351 62.8374,95.7351 64.5,96C 60.619,98.9276 58.119,102.761 57,107.5C 56.3361,126.208 57.0028,144.875 59,163.5C 59.4244,165.615 60.5911,166.448 62.5,166C 64.539,163.626 66.8723,161.626 69.5,160C 84.4841,156.275 96.6508,148.441 106,136.5C 114.173,152.663 126.839,163.997 144,170.5C 148.477,169.365 150.643,166.531 150.5,162C 149.539,152.695 147.872,143.528 145.5,134.5C 151.308,133.958 156.975,132.792 162.5,131C 169.833,126 177.167,121 184.5,116C 185.894,115.044 186.561,113.711 186.5,112C 182.282,98.8862 175.282,87.5529 165.5,78C 168.531,75.441 170.698,72.2743 172,68.5C 174.986,57.2325 177.32,45.8991 179,34.5C 176.503,32.5218 173.669,32.0218 170.5,33C 161.287,37.615 151.954,41.615 142.5,45C 145.938,30.7743 144.771,16.9409 139,3.5C 137.333,2.26683 135.833,0.933498 134.5,-0.5C 153.5,-0.5 172.5,-0.5 191.5,-0.5C 191.5,196.5 191.5,393.5 191.5,590.5C 127.5,590.5 63.5,590.5 -0.5,590.5C -0.5,393.5 -0.5,196.5 -0.5,-0.5 Z"/></g>
<g><path style="opacity:1" fill="#191919" d="M 128.5,-0.5 C 130.5,-0.5 132.5,-0.5 134.5,-0.5C 135.833,0.933498 137.333,2.26683 139,3.5C 144.771,16.9409 145.938,30.7743 142.5,45C 151.954,41.615 161.287,37.615 170.5,33C 173.669,32.0218 176.503,32.5218 179,34.5C 177.32,45.8991 174.986,57.2325 172,68.5C 170.698,72.2743 168.531,75.441 165.5,78C 175.282,87.5529 182.282,98.8862 186.5,112C 186.561,113.711 185.894,115.044 184.5,116C 177.167,121 169.833,126 162.5,131C 156.975,132.792 151.308,133.958 145.5,134.5C 147.872,143.528 149.539,152.695 150.5,162C 150.643,166.531 148.477,169.365 144,170.5C 126.839,163.997 114.173,152.663 106,136.5C 96.6508,148.441 84.4841,156.275 69.5,160C 66.8723,161.626 64.539,163.626 62.5,166C 60.5911,166.448 59.4244,165.615 59,163.5C 57.0028,144.875 56.3361,126.208 57,107.5C 58.119,102.761 60.619,98.9276 64.5,96C 62.8374,95.7351 61.3374,96.2351 60,97.5C 55.3333,104.833 50.6667,112.167 46,119.5C 33.6315,157.676 24.9649,196.676 20,236.5C 12.5812,318.179 12.9145,399.846 21,481.5C 25.6032,506.389 29.2698,531.389 32,556.5C 33.6284,563.642 35.1284,570.809 36.5,578C 36.6464,580.034 35.9797,581.701 34.5,583C 31.6492,584.289 28.6492,584.789 25.5,584.5C 24.8885,577.168 24.7219,569.835 25,562.5C 26.814,568.718 27.9807,575.051 28.5,581.5C 30.1439,581.714 31.6439,581.38 33,580.5C 33.6667,578.167 33.6667,575.833 33,573.5C 27.197,547.077 22.8636,520.41 20,493.5C 19.6237,490.99 18.7904,488.657 17.5,486.5C 15.8333,488.167 14.8333,487.833 14.5,485.5C 18.2533,477.243 17.92,469.243 13.5,461.5C 14.6313,460.396 15.4646,460.729 16,462.5C 16.1667,462 16.3333,461.5 16.5,461C 14.1947,449.044 13.528,437.044 14.5,425C 10.0715,366.784 10.5715,308.618 16,250.5C 20.7572,205.879 29.9239,162.212 43.5,119.5C 42.7112,117.512 41.5445,117.179 40,118.5C 21.3303,170.183 10.997,223.516 9,278.5C 7.36171,322.513 7.19504,366.513 8.5,410.5C 5.32093,431.257 6.98759,451.59 13.5,471.5C 11.9702,473.226 10.9702,475.226 10.5,477.5C 16.0669,503.236 20.2335,529.236 23,555.5C 13.9736,515.967 7.47364,476.133 3.5,436C 4.3882,421.771 4.3882,407.604 3.5,393.5C 4.26791,394.263 4.76791,395.263 5,396.5C 5.81508,391.648 5.64841,386.981 4.5,382.5C 4.53375,343.816 5.36709,305.15 7,266.5C 9.60849,212.513 20.2752,160.18 39,109.5C 43.9777,100.714 49.4777,92.381 55.5,84.5C 51.8907,70.5645 47.8907,56.7312 43.5,43C 43.6448,42.228 43.9781,41.5613 44.5,41C 49.5,40.6667 54.5,40.3333 59.5,40C 69.6199,36.8265 79.9532,35.8265 90.5,37C 91.7659,37.3095 92.9326,37.8095 94,38.5C 95.1655,33.8325 97.1655,29.4992 100,25.5C 108.797,15.8604 118.297,7.19372 128.5,-0.5 Z"/></g>
<g><path style="opacity:1" fill="#fafafa" d="M 106.5,101.5 C 108.716,102.203 110.549,103.536 112,105.5C 113.101,113.24 115.434,120.573 119,127.5C 118.737,121.184 117.57,115.017 115.5,109C 117.456,109.222 119.29,110.055 121,111.5C 124.564,119.274 130.564,123.274 139,123.5C 145.107,137.239 147.274,151.572 145.5,166.5C 143.926,167.631 142.259,167.798 140.5,167C 113.133,153.432 101.8,131.598 106.5,101.5 Z"/></g>
<g><path style="opacity:1" fill="#fbfbfb" d="M 95.5,94.5 C 96.2389,94.369 96.9056,94.5357 97.5,95C 86.2702,102.623 79.4368,113.123 77,126.5C 80.295,119.944 83.9617,113.611 88,107.5C 92.1556,103.425 96.8223,100.091 102,97.5C 102.5,97.8333 103,98.1667 103.5,98.5C 101.014,107.948 101.014,117.448 103.5,127C 101.305,136.203 96.3054,143.537 88.5,149C 80.209,152.93 71.8756,156.763 63.5,160.5C 61.5657,149.561 60.0657,138.561 59,127.5C 56.6164,116.66 59.1164,107.16 66.5,99C 71.8333,99 77.1667,99 82.5,99C 87.2427,98.3649 91.5761,96.8649 95.5,94.5 Z"/></g>
<g><path style="opacity:1" fill="#f3f3f3" d="M 55.5,88.5 C 58.3213,88.3159 59.9879,89.6493 60.5,92.5C 56.1355,99.0337 51.9688,105.7 48,112.5C 43.1469,117.074 41.1469,116.074 42,109.5C 46.0119,102.132 50.5119,95.132 55.5,88.5 Z"/></g>
<g><path style="opacity:1" fill="#f9f9f9" d="M 145.5,78.5 C 157.161,76.3551 166.328,80.0218 173,89.5C 176.636,96.6053 180.136,103.772 183.5,111C 182.899,112.605 181.899,113.938 180.5,115C 173.044,121.118 165.044,126.451 156.5,131C 152.739,131.738 149.072,131.405 145.5,130C 142.046,126.135 140.38,121.802 140.5,117C 143.167,116.667 145.833,116.333 148.5,116C 149.661,111.916 151.661,108.25 154.5,105C 159.219,105.125 163.719,106.292 168,108.5C 168.688,107.668 168.521,107.002 167.5,106.5C 163.221,105.027 159.221,103.027 155.5,100.5C 158.374,94.1214 157.374,93.2881 152.5,98C 150.833,98.3333 149.167,98.6667 147.5,99C 152.085,100.851 152.418,103.017 148.5,105.5C 147.786,108.027 147.12,110.527 146.5,113C 143.989,115.105 141.656,114.938 139.5,112.5C 136.506,119.697 132.173,120.863 126.5,116C 131.144,115.356 133.81,112.69 134.5,108C 133.899,106.395 132.899,105.062 131.5,104C 135.467,103.372 138.301,101.205 140,97.5C 140.067,93.5692 141.4,90.2358 144,87.5C 144.259,84.4133 144.759,81.4133 145.5,78.5 Z"/></g>
<g><path style="opacity:1" fill="#161616" d="M 150.5,79.5 C 157.517,81.473 159.35,85.8063 156,92.5C 153.517,90.7397 153.017,88.573 154.5,86C 152.1,85.8142 149.766,85.3142 147.5,84.5C 148.325,83.6143 149.325,83.281 150.5,83.5C 150.5,82.1667 150.5,80.8333 150.5,79.5 Z"/></g>
<g><path style="opacity:1" fill="#f6f6f6" d="M 109.5,77.5 C 119.757,78.8485 130.09,79.6818 140.5,80C 139.167,80.3333 137.833,80.6667 136.5,81C 138.044,81.2896 139.377,81.9563 140.5,83C 138.109,83.6914 138.109,84.6914 140.5,86C 140.043,86.414 139.709,86.914 139.5,87.5C 135.514,88.3328 131.514,88.4994 127.5,88C 130.44,89.1524 133.44,90.1524 136.5,91C 133.385,93.1171 130.052,94.7837 126.5,96C 128.421,97.2408 128.754,98.7408 127.5,100.5C 126.549,99.6744 125.549,99.5078 124.5,100C 126.833,103 129.167,106 131.5,109C 129.525,112.549 126.859,113.215 123.5,111C 117.093,105.381 110.593,99.8813 104,94.5C 102.627,92.3046 102.294,89.9712 103,87.5C 104.992,84.0172 107.158,80.6839 109.5,77.5 Z"/></g>
<g><path style="opacity:1" fill="#282828" d="M 112.5,68.5 C 111.678,70.3885 110.845,72.3885 110,74.5C 109.313,72.4325 109.48,70.4325 110.5,68.5C 109.846,66.8849 109.346,65.2182 109,63.5C 108.821,67.0252 108.321,70.3586 107.5,73.5C 107.687,67.7876 107.354,62.1209 106.5,56.5C 107.338,56.1583 107.672,55.4916 107.5,54.5C 108.776,56.5625 109.61,58.8958 110,61.5C 110.179,51.8185 113.179,43.1518 119,35.5C 117.779,41.1758 116.112,46.8425 114,52.5C 112.809,57.7674 112.309,63.1007 112.5,68.5 Z"/></g>
<g><path style="opacity:1" fill="#fcfcfc" d="M 106.5,56.5 C 107.354,62.1209 107.687,67.7876 107.5,73.5C 106.21,72.9423 105.377,71.9423 105,70.5C 104.667,73.5 104.333,76.5 104,79.5C 102.829,77.3843 101.329,76.7176 99.5,77.5C 100.313,78.8139 101.313,79.9805 102.5,81C 94.9064,80.7891 88.4064,77.9557 83,72.5C 83.5465,75.0933 85.0465,77.2599 87.5,79C 91.7136,81.2737 96.0469,83.2737 100.5,85C 100.018,86.0084 99.8516,87.175 100,88.5C 90.8868,93.7898 81.0535,96.2898 70.5,96C 63.9299,93.762 59.7633,89.262 58,82.5C 54.5893,70.0233 51.4226,57.5233 48.5,45C 57.2351,43.7197 65.9018,42.053 74.5,40C 89.5164,37.34 100.183,42.84 106.5,56.5 Z"/></g>
<g><path style="opacity:1" fill="#fafafa" d="M 167.5,36.5 C 170.167,36.5 172.833,36.5 175.5,36.5C 174.24,48.8746 171.406,60.8746 167,72.5C 166.167,74 165,75.1667 163.5,76C 160.167,76.1667 156.833,76.3333 153.5,76.5C 149.651,76.6323 145.984,76.1323 142.5,75C 145.037,72.128 147.87,69.628 151,67.5C 151.667,66.8333 151.667,66.1667 151,65.5C 145.314,69.5787 139.48,73.0787 133.5,76C 136.106,74.0616 137.939,71.5616 139,68.5C 140.518,62.5364 141.852,56.5364 143,50.5C 150.985,45.4268 159.152,40.7602 167.5,36.5 Z"/></g>
<g><path style="opacity:1" fill="#fafafa" d="M 112.5,68.5 C 112.309,63.1007 112.809,57.7674 114,52.5C 116.112,46.8425 117.779,41.1758 119,35.5C 113.179,43.1518 110.179,51.8185 110,61.5C 109.61,58.8958 108.776,56.5625 107.5,54.5C 104.695,48.539 101.695,42.7056 98.5,37C 99.7955,32.3737 101.962,28.207 105,24.5C 111.708,16.0695 119.542,8.90281 128.5,3C 133.97,1.77941 137.47,3.94608 139,9.5C 139.822,11.7885 140.489,14.1218 141,16.5C 141.667,26.8333 141.667,37.1667 141,47.5C 140.103,58.5326 136.269,68.366 129.5,77C 125.112,77.3622 120.945,76.5289 117,74.5C 116.333,72.5 116.333,70.5 117,68.5C 118.85,60.7795 120.516,53.1128 122,45.5C 117.735,52.9631 115.068,60.9631 114,69.5C 113.617,68.944 113.117,68.6107 112.5,68.5 Z"/></g>
<g><path style="opacity:1" fill="#8d8d8d" d="M 4.5,382.5 C 5.64841,386.981 5.81508,391.648 5,396.5C 4.76791,395.263 4.26791,394.263 3.5,393.5C 4.42266,389.936 4.75599,386.269 4.5,382.5 Z"/></g>
</svg>
