<?xml version="1.0" encoding="UTF-8"?>
<!DOCTYPE svg PUBLIC "-//W3C//DTD SVG 1.1//EN" "http://www.w3.org/Graphics/SVG/1.1/DTD/svg11.dtd">
<svg xmlns="http://www.w3.org/2000/svg" version="1.1" width="128px" height="516px" style="shape-rendering:geometricPrecision; text-rendering:geometricPrecision; image-rendering:optimizeQuality; fill-rule:evenodd; clip-rule:evenodd" xmlns:xlink="http://www.w3.org/1999/xlink">
<g><path style="opacity:1" fill="#fefefe" d="M -0.5,-0.5 C 42.1667,-0.5 84.8333,-0.5 127.5,-0.5C 127.5,171.5 127.5,343.5 127.5,515.5C 124.5,515.5 121.5,515.5 118.5,515.5C 118.24,501.803 117.406,488.136 116,474.5C 109.686,459.165 105.686,443.165 104,426.5C 95.0779,394.734 82.0779,364.734 65,336.5C 62.5582,331.067 60.8915,325.4 60,319.5C 55.1061,286.025 53.1061,252.359 54,218.5C 52.5514,194.693 49.8847,171.027 46,147.5C 38.9915,114.449 33.8248,81.1159 30.5,47.5C 31.8643,37.5299 32.3643,27.5299 32,17.5C 29.9093,16.5004 28.2426,17.1671 27,19.5C 14.2303,43.5776 7.23027,69.2443 6,96.5C 5.2996,110.523 5.63294,124.523 7,138.5C 12.0259,182.103 16.3593,225.77 20,269.5C 29.3913,317.673 44.3913,364.007 65,408.5C 75.6052,429.377 85.9386,450.377 96,471.5C 101.217,486.917 107.717,501.583 115.5,515.5C 76.8333,515.5 38.1667,515.5 -0.5,515.5C -0.5,343.5 -0.5,171.5 -0.5,-0.5 Z"/></g>
<g><path style="opacity:1" fill="#171717" d="M 118.5,515.5 C 117.5,515.5 116.5,515.5 115.5,515.5C 107.717,501.583 101.217,486.917 96,471.5C 85.9386,450.377 75.6052,429.377 65,408.5C 44.3913,364.007 29.3913,317.673 20,269.5C 16.3593,225.77 12.0259,182.103 7,138.5C 5.63294,124.523 5.2996,110.523 6,96.5C 7.23027,69.2443 14.2303,43.5776 27,19.5C 28.2426,17.1671 29.9093,16.5004 32,17.5C 32.3643,27.5299 31.8643,37.5299 30.5,47.5C 33.8248,81.1159 38.9915,114.449 46,147.5C 49.8847,171.027 52.5514,194.693 54,218.5C 53.1061,252.359 55.1061,286.025 60,319.5C 60.8915,325.4 62.5582,331.067 65,336.5C 82.0779,364.734 95.0779,394.734 104,426.5C 105.686,443.165 109.686,459.165 116,474.5C 117.406,488.136 118.24,501.803 118.5,515.5 Z"/></g>
<g><path style="opacity:1" fill="#f8f8f8" d="M 22.5,48.5 C 21.6773,51.977 21.1773,55.6437 21,59.5C 20.3333,70.8333 20.3333,82.1667 21,93.5C 24.3327,127.496 27.666,161.496 31,195.5C 31.8294,217.004 31.6627,238.337 30.5,259.5C 16.2663,205.095 9.09966,149.762 9,93.5C 10.1555,73.381 14.4888,54.0477 22,35.5C 22.499,39.8206 22.6657,44.1539 22.5,48.5 Z"/></g>
<g><path style="opacity:1" fill="#8f8f8f" d="M 28.5,29.5 C 28.7845,27.5853 28.4511,25.9187 27.5,24.5C 27.7828,23.7109 28.2828,23.0442 29,22.5C 29.7958,25.0385 29.6291,27.3718 28.5,29.5 Z"/></g>
<g><path style="opacity:1" fill="#f7f7f7" d="M 27.5,24.5 C 28.4511,25.9187 28.7845,27.5853 28.5,29.5C 28.1547,45.5328 28.6547,61.5328 30,77.5C 35.7167,106.418 41.05,135.418 46,164.5C 52.0799,207.643 54.0799,250.976 52,294.5C 53.289,302.517 54.289,310.517 55,318.5C 53.6667,315.833 52.3333,313.167 51,310.5C 49.7852,296.017 48.6185,281.683 47.5,267.5C 46.8333,276.167 46.1667,284.833 45.5,293.5C 44.786,286.867 44.286,280.2 44,273.5C 43.6667,279.5 43.3333,285.5 43,291.5C 40.1343,286.949 38.9677,281.949 39.5,276.5C 39.6309,275.624 39.2975,274.957 38.5,274.5C 37.8243,275.602 37.1577,276.602 36.5,277.5C 35.1036,255.378 34.1036,233.378 33.5,211.5C 33.5426,200.809 33.0426,190.143 32,179.5C 29.3274,153.485 26.6607,127.485 24,101.5C 23.5001,86.8371 23.3334,72.1705 23.5,57.5C 24.375,46.4088 25.7084,35.4088 27.5,24.5 Z"/></g>
<g><path style="opacity:1" fill="#242424" d="M 22.5,48.5 C 22.19,51.7131 22.5233,54.7131 23.5,57.5C 23.3334,72.1705 23.5001,86.8371 24,101.5C 26.6607,127.485 29.3274,153.485 32,179.5C 33.0426,190.143 33.5426,200.809 33.5,211.5C 32.6684,228.328 32.1684,245.328 32,262.5C 31.4867,261.473 30.9867,260.473 30.5,259.5C 31.6627,238.337 31.8294,217.004 31,195.5C 27.666,161.496 24.3327,127.496 21,93.5C 20.3333,82.1667 20.3333,70.8333 21,59.5C 21.1773,55.6437 21.6773,51.977 22.5,48.5 Z"/></g>
<g><path style="opacity:1" fill="#f8f8f8" d="M 18.5,225.5 C 23.1638,249.339 29.9972,272.673 39,295.5C 51.4128,318.661 64.0795,341.661 77,364.5C 82.8849,376.936 88.2183,389.603 93,402.5C 100.863,432.371 107.863,462.371 114,492.5C 111.726,488.286 109.726,483.953 108,479.5C 103.189,460.402 97.189,441.735 90,423.5C 96.3412,450.505 105.008,476.838 116,502.5C 116.667,505.167 116.667,507.833 116,510.5C 106.507,490.514 97.84,470.181 90,449.5C 65.9808,405.127 46.6474,358.794 32,310.5C 24.4753,282.662 19.9753,254.329 18.5,225.5 Z"/></g>
<g><path style="opacity:1" fill="#bdbdbd" d="M 47.5,267.5 C 47.6665,278.172 47.4998,288.839 47,299.5C 46.187,297.564 45.687,295.564 45.5,293.5C 46.1667,284.833 46.8333,276.167 47.5,267.5 Z"/></g>
<g><path style="opacity:1" fill="#818181" d="M 39.5,276.5 C 38.71,277.609 38.21,278.942 38,280.5C 36.9614,279.756 36.4614,278.756 36.5,277.5C 37.1577,276.602 37.8243,275.602 38.5,274.5C 39.2975,274.957 39.6309,275.624 39.5,276.5 Z"/></g>
<g><path style="opacity:1" fill="#161616" d="M 41.5,335.5 C 50.9336,350.185 60.267,365.018 69.5,380C 68.0039,380.507 66.8373,380.007 66,378.5C 59.3333,367.833 52.6667,357.167 46,346.5C 43.9281,343.029 42.4281,339.362 41.5,335.5 Z"/></g>
</svg>
