<?xml version="1.0" encoding="UTF-8"?>
<!DOCTYPE svg PUBLIC "-//W3C//DTD SVG 1.1//EN" "http://www.w3.org/Graphics/SVG/1.1/DTD/svg11.dtd">
<svg xmlns="http://www.w3.org/2000/svg" version="1.1" width="288px" height="613px" style="shape-rendering:geometricPrecision; text-rendering:geometricPrecision; image-rendering:optimizeQuality; fill-rule:evenodd; clip-rule:evenodd" xmlns:xlink="http://www.w3.org/1999/xlink">
<g><path style="opacity:1" fill="#fefefe" d="M -0.5,-0.5 C 95.5,-0.5 191.5,-0.5 287.5,-0.5C 287.5,203.833 287.5,408.167 287.5,612.5C 191.5,612.5 95.5,612.5 -0.5,612.5C -0.5,408.167 -0.5,203.833 -0.5,-0.5 Z"/></g>
<g><path style="opacity:1" fill="#fafafa" d="M 239.5,37.5 C 239.861,49.2144 239.361,60.8811 238,72.5C 236.652,80.5263 233.652,87.8596 229,94.5C 228.044,95.8941 226.711,96.5607 225,96.5C 221.503,95.9602 218.17,94.9602 215,93.5C 214.333,91.5 214.333,89.5 215,87.5C 216.85,79.7795 218.516,72.1128 220,64.5C 215.735,71.9631 213.068,79.9631 212,88.5C 210.412,84.6908 210.078,80.6908 211,76.5C 213.041,69.0627 215.041,61.7294 217,54.5C 211.179,62.1518 208.179,70.8185 208,80.5C 207.61,77.8958 206.776,75.5625 205.5,73.5C 202.695,67.539 199.695,61.7056 196.5,56C 196.909,53.6793 197.743,51.5126 199,49.5C 205.572,39.8728 213.405,31.3728 222.5,24C 228.081,19.9552 232.581,20.7885 236,26.5C 237.632,30.0325 238.799,33.6992 239.5,37.5 Z"/></g>
<g><path style="opacity:1" fill="#171717" d="M 101.5,411.5 C 102.09,412.766 102.59,414.099 103,415.5C 103.815,410.648 103.648,405.981 102.5,401.5C 102.534,362.816 103.367,324.15 105,285.5C 107.608,231.513 118.275,179.18 137,128.5C 141.978,119.714 147.478,111.381 153.5,103.5C 149.492,89.1298 145.659,74.7965 142,60.5C 151.623,60.0985 161.123,58.5985 170.5,56C 176.5,55.3333 182.5,55.3333 188.5,56C 189.766,56.3095 190.933,56.8095 192,57.5C 193.165,52.8325 195.165,48.4992 198,44.5C 206.606,34.8878 216.106,26.3878 226.5,19C 235.904,18.9071 240.571,23.7404 240.5,33.5C 240.768,35.099 240.434,36.4324 239.5,37.5C 238.799,33.6992 237.632,30.0325 236,26.5C 232.581,20.7885 228.081,19.9552 222.5,24C 213.405,31.3728 205.572,39.8728 199,49.5C 197.743,51.5126 196.909,53.6793 196.5,56C 199.695,61.7056 202.695,67.539 205.5,73.5C 205.672,74.4916 205.338,75.1583 204.5,75.5C 198.183,61.84 187.516,56.34 172.5,59C 163.902,61.053 155.235,62.7197 146.5,64C 149.644,78.743 153.644,93.243 158.5,107.5C 158.672,108.492 158.338,109.158 157.5,109.5C 156.686,107.727 155.352,107.227 153.5,108C 148.379,114.405 143.879,121.238 140,128.5C 138.735,134.413 140.568,135.746 145.5,132.5C 145.5,133.833 145.5,135.167 145.5,136.5C 131.953,175.054 122.786,214.721 118,255.5C 113.091,304.374 111.258,353.374 112.5,402.5C 112.818,407.032 112.485,411.366 111.5,415.5C 106.212,339.436 111.379,264.103 127,189.5C 130.927,172.221 135.761,155.221 141.5,138.5C 140.711,136.512 139.545,136.179 138,137.5C 116.208,199.251 105.541,262.918 106,328.5C 105.333,361.5 105.333,394.5 106,427.5C 107.539,436.239 109.372,444.906 111.5,453.5C 111.201,455.604 111.534,457.604 112.5,459.5C 113.167,455.687 113.834,452.021 114.5,448.5C 116.281,465.651 117.614,482.984 118.5,500.5C 117.945,504.012 118.612,507.012 120.5,509.5C 122.752,525.262 125.586,540.929 129,556.5C 129.333,562.833 129.667,569.167 130,575.5C 131.628,582.642 133.128,589.809 134.5,597C 134.646,599.034 133.98,600.701 132.5,602C 129.649,603.289 126.649,603.789 123.5,603.5C 122.889,596.168 122.722,588.835 123,581.5C 124.814,587.718 125.981,594.051 126.5,600.5C 130.24,601.259 131.907,599.759 131.5,596C 125.483,567.028 120.649,537.861 117,508.5C 114.94,503.38 112.607,498.38 110,493.5C 109.833,494.5 109.667,495.5 109.5,496.5C 112.677,517.551 116.177,538.551 120,559.5C 120.779,564.5 121.112,569.5 121,574.5C 113.676,545.569 108.676,516.236 106,486.5C 101.61,474.721 96.9435,463.054 92,451.5C 66.2579,404.268 45.5912,354.935 30,303.5C 24.7168,283.751 20.7168,263.751 18,243.5C 15.222,200.387 11.222,157.387 6,114.5C 2.90881,77.122 9.90881,41.7887 27,8.5C 28.2426,6.16707 29.9093,5.5004 32,6.5C 32.3643,16.5299 31.8643,26.5299 30.5,36.5C 33.8248,70.1159 38.9915,103.449 46,136.5C 53.2024,180.203 56.2024,224.203 55,268.5C 56.2312,281.887 57.8978,295.22 60,308.5C 60.8915,314.4 62.5582,320.067 65,325.5C 81.83,352.163 93.9967,380.83 101.5,411.5 Z"/></g>
<g><path style="opacity:1" fill="#f8f8f8" d="M 22.5,37.5 C 21.6773,40.977 21.1773,44.6437 21,48.5C 20.3333,59.8333 20.3333,71.1667 21,82.5C 24.3327,116.496 27.666,150.496 31,184.5C 31.8294,206.004 31.6627,227.337 30.5,248.5C 16.2663,194.095 9.09966,138.762 9,82.5C 10.1555,62.381 14.4888,43.0477 22,24.5C 22.499,28.8206 22.6657,33.1539 22.5,37.5 Z"/></g>
<g><path style="opacity:1" fill="#8f8f8f" d="M 28.5,18.5 C 28.7845,16.5853 28.4511,14.9187 27.5,13.5C 27.7828,12.7109 28.2828,12.0442 29,11.5C 29.7958,14.0385 29.6291,16.3718 28.5,18.5 Z"/></g>
<g><path style="opacity:1" fill="#f7f7f7" d="M 27.5,13.5 C 28.4511,14.9187 28.7845,16.5853 28.5,18.5C 28.1547,34.5328 28.6547,50.5328 30,66.5C 35.7167,95.4177 41.05,124.418 46,153.5C 52.0799,196.643 54.0799,239.976 52,283.5C 53.289,291.517 54.289,299.517 55,307.5C 53.6667,304.833 52.3333,302.167 51,299.5C 49.7852,285.017 48.6185,270.683 47.5,256.5C 46.8333,265.167 46.1667,273.833 45.5,282.5C 44.786,275.867 44.286,269.2 44,262.5C 43.6667,268.5 43.3333,274.5 43,280.5C 40.1343,275.949 38.9677,270.949 39.5,265.5C 39.6309,264.624 39.2975,263.957 38.5,263.5C 37.8243,264.602 37.1577,265.602 36.5,266.5C 35.1036,244.378 34.1036,222.378 33.5,200.5C 33.5426,189.809 33.0426,179.143 32,168.5C 29.3274,142.485 26.6607,116.485 24,90.5C 23.5001,75.8371 23.3334,61.1705 23.5,46.5C 24.375,35.4088 25.7084,24.4088 27.5,13.5 Z"/></g>
<g><path style="opacity:1" fill="#fcfcfc" d="M 204.5,75.5 C 205.521,81.1296 205.687,86.7963 205,92.5C 204.085,91.6721 203.419,90.6721 203,89.5C 202.667,92.5 202.333,95.5 202,98.5C 200.829,96.3843 199.329,95.7176 197.5,96.5C 198.313,97.8139 199.313,98.9805 200.5,100C 192.906,99.7891 186.406,96.9557 181,91.5C 181.546,94.0933 183.046,96.2599 185.5,98C 189.714,100.274 194.047,102.274 198.5,104C 198.384,105.268 198.051,106.602 197.5,108C 189.857,112.102 181.69,114.602 173,115.5C 166.862,115.018 162.029,112.351 158.5,107.5C 153.644,93.243 149.644,78.743 146.5,64C 155.235,62.7197 163.902,61.053 172.5,59C 187.516,56.34 198.183,61.84 204.5,75.5 Z"/></g>
<g><path style="opacity:1" fill="#f3f3f3" d="M 157.5,109.5 C 158.686,111.194 158.519,112.861 157,114.5C 152.906,120.359 149.073,126.359 145.5,132.5C 140.568,135.746 138.735,134.413 140,128.5C 143.879,121.238 148.379,114.405 153.5,108C 155.352,107.227 156.686,107.727 157.5,109.5 Z"/></g>
<g><path style="opacity:1" fill="#242424" d="M 22.5,37.5 C 22.19,40.7131 22.5233,43.7131 23.5,46.5C 23.3334,61.1705 23.5001,75.8371 24,90.5C 26.6607,116.485 29.3274,142.485 32,168.5C 33.0426,179.143 33.5426,189.809 33.5,200.5C 32.6684,217.328 32.1684,234.328 32,251.5C 31.4867,250.473 30.9867,249.473 30.5,248.5C 31.6627,227.337 31.8294,206.004 31,184.5C 27.666,150.496 24.3327,116.496 21,82.5C 20.3333,71.1667 20.3333,59.8333 21,48.5C 21.1773,44.6437 21.6773,40.977 22.5,37.5 Z"/></g>
<g><path style="opacity:1" fill="#1b1b1b" d="M 240.5,33.5 C 243.12,43.5628 243.12,53.7294 240.5,64C 249.954,60.615 259.287,56.615 268.5,52C 274.979,49.8319 277.812,51.9986 277,58.5C 274.509,68.13 272.176,77.7966 270,87.5C 268.698,91.2743 266.531,94.441 263.5,97C 273.282,106.553 280.282,117.886 284.5,131C 284.561,132.711 283.894,134.044 282.5,135C 275.167,140 267.833,145 260.5,150C 254.975,151.792 249.308,152.958 243.5,153.5C 246.626,163.958 248.126,174.625 248,185.5C 246.499,187.584 244.499,188.917 242,189.5C 224.839,182.997 212.173,171.663 204,155.5C 194.651,167.441 182.484,175.275 167.5,179C 164.688,180.977 162.022,183.144 159.5,185.5C 158.201,184.91 157.368,183.91 157,182.5C 155.003,163.875 154.336,145.208 155,126.5C 156.119,121.761 158.619,117.928 162.5,115C 160.837,114.735 159.337,115.235 158,116.5C 153.558,123.063 149.391,129.729 145.5,136.5C 145.5,135.167 145.5,133.833 145.5,132.5C 149.073,126.359 152.906,120.359 157,114.5C 158.519,112.861 158.686,111.194 157.5,109.5C 158.338,109.158 158.672,108.492 158.5,107.5C 162.029,112.351 166.862,115.018 173,115.5C 181.69,114.602 189.857,112.102 197.5,108C 198.051,106.602 198.384,105.268 198.5,104C 194.047,102.274 189.714,100.274 185.5,98C 183.046,96.2599 181.546,94.0933 181,91.5C 186.406,96.9557 192.906,99.7891 200.5,100C 199.313,98.9805 198.313,97.8139 197.5,96.5C 199.329,95.7176 200.829,96.3843 202,98.5C 202.333,95.5 202.667,92.5 203,89.5C 203.419,90.6721 204.085,91.6721 205,92.5C 205.687,86.7963 205.521,81.1296 204.5,75.5C 205.338,75.1583 205.672,74.4916 205.5,73.5C 206.776,75.5625 207.61,77.8958 208,80.5C 208.179,70.8185 211.179,62.1518 217,54.5C 215.041,61.7294 213.041,69.0627 211,76.5C 210.078,80.6908 210.412,84.6908 212,88.5C 213.068,79.9631 215.735,71.9631 220,64.5C 218.516,72.1128 216.85,79.7795 215,87.5C 214.333,89.5 214.333,91.5 215,93.5C 218.17,94.9602 221.503,95.9602 225,96.5C 226.711,96.5607 228.044,95.8941 229,94.5C 233.652,87.8596 236.652,80.5263 238,72.5C 239.361,60.8811 239.861,49.2144 239.5,37.5C 240.434,36.4324 240.768,35.099 240.5,33.5 Z"/></g>
<g><path style="opacity:1" fill="#fbfbfb" d="M 193.5,113.5 C 194.239,113.369 194.906,113.536 195.5,114C 184.27,121.623 177.437,132.123 175,145.5C 178.295,138.944 181.962,132.611 186,126.5C 190.156,122.425 194.822,119.091 200,116.5C 200.5,116.833 201,117.167 201.5,117.5C 199.014,126.948 199.014,136.448 201.5,146C 199.305,155.203 194.305,162.537 186.5,168C 178.209,171.93 169.876,175.763 161.5,179.5C 159.566,168.561 158.066,157.561 157,146.5C 154.616,135.66 157.116,126.16 164.5,118C 169.833,118 175.167,118 180.5,118C 185.243,117.365 189.576,115.865 193.5,113.5 Z"/></g>
<g><path style="opacity:1" fill="#f9f9f9" d="M 243.5,97.5 C 255.161,95.3551 264.328,99.0218 271,108.5C 274.636,115.605 278.136,122.772 281.5,130C 280.899,131.605 279.899,132.938 278.5,134C 271.044,140.118 263.044,145.451 254.5,150C 250.739,150.738 247.072,150.405 243.5,149C 240.046,145.135 238.38,140.802 238.5,136C 241.167,135.667 243.833,135.333 246.5,135C 247.661,130.916 249.661,127.25 252.5,124C 257.219,124.125 261.719,125.292 266,127.5C 266.688,126.668 266.521,126.002 265.5,125.5C 261.221,124.027 257.221,122.027 253.5,119.5C 256.374,113.121 255.374,112.288 250.5,117C 248.833,117.333 247.167,117.667 245.5,118C 250.085,119.851 250.418,122.017 246.5,124.5C 245.786,127.027 245.12,129.527 244.5,132C 241.989,134.105 239.656,133.938 237.5,131.5C 234.506,138.697 230.173,139.863 224.5,135C 229.144,134.356 231.81,131.69 232.5,127C 231.899,125.395 230.899,124.062 229.5,123C 233.467,122.372 236.301,120.205 238,116.5C 238.067,112.569 239.4,109.236 242,106.5C 242.259,103.413 242.759,100.413 243.5,97.5 Z"/></g>
<g><path style="opacity:1" fill="#161616" d="M 248.5,98.5 C 255.517,100.473 257.35,104.806 254,111.5C 251.517,109.74 251.017,107.573 252.5,105C 250.1,104.814 247.766,104.314 245.5,103.5C 246.325,102.614 247.325,102.281 248.5,102.5C 248.5,101.167 248.5,99.8333 248.5,98.5 Z"/></g>
<g><path style="opacity:1" fill="#f6f6f6" d="M 207.5,96.5 C 217.757,97.8485 228.09,98.6818 238.5,99C 237.167,99.3333 235.833,99.6667 234.5,100C 236.044,100.29 237.377,100.956 238.5,102C 236.109,102.691 236.109,103.691 238.5,105C 238.043,105.414 237.709,105.914 237.5,106.5C 233.514,107.333 229.514,107.499 225.5,107C 228.44,108.152 231.44,109.152 234.5,110C 231.385,112.117 228.052,113.784 224.5,115C 226.421,116.241 226.754,117.741 225.5,119.5C 224.549,118.674 223.549,118.508 222.5,119C 224.833,122 227.167,125 229.5,128C 227.525,131.549 224.859,132.215 221.5,130C 215.093,124.381 208.593,118.881 202,113.5C 200.627,111.305 200.294,108.971 201,106.5C 202.992,103.017 205.158,99.6839 207.5,96.5 Z"/></g>
<g><path style="opacity:1" fill="#fafafa" d="M 265.5,55.5 C 268.167,55.5 270.833,55.5 273.5,55.5C 272.24,67.8746 269.406,79.8746 265,91.5C 264.167,93 263,94.1667 261.5,95C 258.167,95.1667 254.833,95.3333 251.5,95.5C 247.651,95.6323 243.984,95.1323 240.5,94C 243.037,91.128 245.87,88.628 249,86.5C 249.667,85.8333 249.667,85.1667 249,84.5C 243.314,88.5787 237.48,92.0787 231.5,95C 234.106,93.0616 235.939,90.5616 237,87.5C 238.518,81.5364 239.852,75.5364 241,69.5C 248.985,64.4268 257.152,59.7602 265.5,55.5 Z"/></g>
<g><path style="opacity:1" fill="#fafafa" d="M 204.5,120.5 C 206.716,121.203 208.549,122.536 210,124.5C 211.101,132.24 213.434,139.573 217,146.5C 216.737,140.184 215.57,134.017 213.5,128C 215.456,128.222 217.29,129.055 219,130.5C 222.564,138.274 228.564,142.274 237,142.5C 243.107,156.239 245.274,170.572 243.5,185.5C 241.926,186.631 240.259,186.798 238.5,186C 211.133,172.432 199.8,150.598 204.5,120.5 Z"/></g>
<g><path style="opacity:1" fill="#eeeeee" d="M 111.5,415.5 C 112.31,428.335 112.31,441.002 111.5,453.5C 109.372,444.906 107.539,436.239 106,427.5C 105.333,394.5 105.333,361.5 106,328.5C 105.541,262.918 116.208,199.251 138,137.5C 139.545,136.179 140.711,136.512 141.5,138.5C 135.761,155.221 130.927,172.221 127,189.5C 111.379,264.103 106.212,339.436 111.5,415.5 Z"/></g>
<g><path style="opacity:1" fill="#afafaf" d="M 20.5,221.5 C 19.5655,222.568 19.2322,223.901 19.5,225.5C 18.3567,222.024 18.1901,218.358 19,214.5C 19.662,216.813 20.162,219.146 20.5,221.5 Z"/></g>
<g><path style="opacity:1" fill="#f8f8f8" d="M 20.5,221.5 C 24.6458,243.081 30.8125,264.081 39,284.5C 51.4128,307.661 64.0795,330.661 77,353.5C 82.8849,365.936 88.2183,378.603 93,391.5C 100.863,421.371 107.863,451.371 114,481.5C 111.726,477.286 109.726,472.953 108,468.5C 103.189,449.402 97.189,430.735 90,412.5C 96.3412,439.505 105.008,465.838 116,491.5C 116.667,494.167 116.667,496.833 116,499.5C 106.507,479.514 97.84,459.181 90,438.5C 65.9808,394.127 46.6474,347.794 32,299.5C 25.5491,275.23 21.3825,250.563 19.5,225.5C 19.2322,223.901 19.5655,222.568 20.5,221.5 Z"/></g>
<g><path style="opacity:1" fill="#bdbdbd" d="M 47.5,256.5 C 47.6665,267.172 47.4998,277.839 47,288.5C 46.187,286.564 45.687,284.564 45.5,282.5C 46.1667,273.833 46.8333,265.167 47.5,256.5 Z"/></g>
<g><path style="opacity:1" fill="#818181" d="M 39.5,265.5 C 38.71,266.609 38.21,267.942 38,269.5C 36.9614,268.756 36.4614,267.756 36.5,266.5C 37.1577,265.602 37.8243,264.602 38.5,263.5C 39.2975,263.957 39.6309,264.624 39.5,265.5 Z"/></g>
<g><path style="opacity:1" fill="#161616" d="M 41.5,324.5 C 50.9336,339.185 60.267,354.018 69.5,369C 68.0039,369.507 66.8373,369.007 66,367.5C 59.3333,356.833 52.6667,346.167 46,335.5C 43.9281,332.029 42.4281,328.362 41.5,324.5 Z"/></g>
<g><path style="opacity:1" fill="#8c8c8c" d="M 102.5,401.5 C 103.648,405.981 103.815,410.648 103,415.5C 102.59,414.099 102.09,412.766 101.5,411.5C 102.479,408.375 102.813,405.042 102.5,401.5 Z"/></g>
<g><path style="opacity:1" fill="#282828" d="M 112.5,402.5 C 113.72,417.653 114.387,432.986 114.5,448.5C 113.834,452.021 113.167,455.687 112.5,459.5C 111.534,457.604 111.201,455.604 111.5,453.5C 112.31,441.002 112.31,428.335 111.5,415.5C 112.485,411.366 112.818,407.032 112.5,402.5 Z"/></g>
<g><path style="opacity:1" fill="#505050" d="M 118.5,500.5 C 119.913,503.219 120.58,506.219 120.5,509.5C 118.612,507.012 117.945,504.012 118.5,500.5 Z"/></g>
</svg>
