<?xml version="1.0" encoding="UTF-8"?>
<!DOCTYPE svg PUBLIC "-//W3C//DTD SVG 1.1//EN" "http://www.w3.org/Graphics/SVG/1.1/DTD/svg11.dtd">
<svg xmlns="http://www.w3.org/2000/svg" version="1.1" width="221px" height="608px" style="shape-rendering:geometricPrecision; text-rendering:geometricPrecision; image-rendering:optimizeQuality; fill-rule:evenodd; clip-rule:evenodd" xmlns:xlink="http://www.w3.org/1999/xlink">
<g><path style="opacity:1" fill="#fdfdfd" d="M -0.5,-0.5 C 73.1667,-0.5 146.833,-0.5 220.5,-0.5C 220.5,202.167 220.5,404.833 220.5,607.5C 146.833,607.5 73.1667,607.5 -0.5,607.5C -0.5,404.833 -0.5,202.167 -0.5,-0.5 Z"/></g>
<g><path style="opacity:1" fill="#0d0d0d" d="M 53.5,228.5 C 51.3926,227.532 49.0593,227.198 46.5,227.5C 46.2627,228.791 46.596,229.791 47.5,230.5C 67.3003,304.756 97.967,374.09 139.5,438.5C 139.783,439.289 140.283,439.956 141,440.5C 141.5,432.507 141.666,424.507 141.5,416.5C 143.797,386.649 148.964,357.315 157,328.5C 159.992,312.884 162.658,297.217 165,281.5C 166.726,280.424 168.559,280.257 170.5,281C 177.003,290.844 180.503,301.677 181,313.5C 183.213,334.659 182.213,355.659 178,376.5C 176.864,380.243 175.53,383.91 174,387.5C 161.129,406.944 153.295,428.278 150.5,451.5C 150.515,453.634 151.015,455.634 152,457.5C 164.812,473.445 174.812,491.112 182,510.5C 189.792,534.461 197.459,558.461 205,582.5C 207.835,588.338 209.835,594.338 211,600.5C 207.583,602.133 205.25,601.133 204,597.5C 198.138,582.415 192.972,567.082 188.5,551.5C 175.517,546.011 163.85,538.511 153.5,529C 136.491,510.698 118.158,494.032 98.5,479C 81.314,463.097 67.1474,444.93 56,424.5C 36.6051,386.152 19.4384,346.819 4.5,306.5C 6.89903,302.562 9.39903,302.562 12,306.5C 27.7842,331.618 45.1175,355.618 64,378.5C 92.6049,410.94 122.438,442.273 153.5,472.5C 108.016,406.53 72.8498,335.197 48,258.5C 42.3117,256.159 37.3117,252.826 33,248.5C 30.5987,243.768 29.932,238.768 31,233.5C 32.6946,230.305 35.1946,227.972 38.5,226.5C 38.8333,225.333 39.1667,224.167 39.5,223C 34.4109,184.573 35.9109,146.407 44,108.5C 51.1674,76.7094 66.6674,49.876 90.5,28C 92.5,26.6667 94.5,25.3333 96.5,24C 99.5951,19.8153 102.928,15.8153 106.5,12C 116.419,5.74425 126.086,6.07758 135.5,13C 147.529,13.6692 159.196,16.0025 170.5,20C 176.365,22.8599 181.365,26.8599 185.5,32C 191.978,31.9902 197.145,34.4902 201,39.5C 202.289,44.9651 200.789,49.4651 196.5,53C 191.589,54.4924 186.589,54.8257 181.5,54C 178.08,52.2809 176.414,49.4476 176.5,45.5C 177.15,42.0356 178.483,38.8689 180.5,36C 174.737,29.1145 167.404,24.7812 158.5,23C 152.856,21.7794 147.189,21.1128 141.5,21C 147.363,27.8964 152.863,35.063 158,42.5C 162.391,46.6121 167.224,50.1121 172.5,53C 178.583,59.518 180.083,67.018 177,75.5C 172.225,80.3255 166.392,82.3255 159.5,81.5C 150.649,81.6663 142.816,78.9996 136,73.5C 134.837,66.9904 136.504,61.3238 141,56.5C 146.118,53.0284 151.285,49.6951 156.5,46.5C 149.45,38.1185 142.784,29.4518 136.5,20.5C 120.689,18.4918 106.689,22.6584 94.5,33C 80.6086,45.7197 69.6086,60.553 61.5,77.5C 75.273,74.7963 86.773,78.7963 96,89.5C 102.038,84.7685 108.871,83.2685 116.5,85C 121.62,87.06 126.62,89.3933 131.5,92C 141.26,99.7227 141.927,108.056 133.5,117C 130.13,119.078 126.463,119.911 122.5,119.5C 122.312,124.863 119.645,127.03 114.5,126C 112.783,124.441 110.783,123.608 108.5,123.5C 107.411,130.42 103.411,133.253 96.5,132C 94.9738,124.788 91.4738,118.621 86,113.5C 81.7641,105.036 83.7641,98.3695 92,93.5C 89.8848,88.3948 86.0514,84.8948 80.5,83C 73.0503,79.5575 65.8837,80.0575 59,84.5C 51.517,101.764 47.1837,119.764 46,138.5C 49.0492,136.036 52.5492,134.536 56.5,134C 73.9176,131.271 89.5843,135.271 103.5,146C 108.105,150.715 112.105,155.882 115.5,161.5C 136.599,153.293 151.766,159.626 161,180.5C 163.87,192.115 164.203,203.782 162,215.5C 159.293,219.035 155.793,220.202 151.5,219C 146.729,215.862 142.229,212.362 138,208.5C 134.833,212.333 131.667,216.167 128.5,220C 125.819,218.887 123.153,217.387 120.5,215.5C 116.868,220.57 112.868,225.403 108.5,230C 104.122,233.487 99.9553,233.32 96,229.5C 95.6667,223.5 95.3333,217.5 95,211.5C 89.2549,206.013 85.5883,199.346 84,191.5C 83.9111,173.253 93.0778,163.753 111.5,163C 103.783,149.303 92.1165,140.97 76.5,138C 65.0566,134.763 54.5566,136.597 45,143.5C 41.4583,170.211 41.7917,196.878 46,223.5C 51.2586,224.088 56.4253,225.255 61.5,227C 69.995,231.413 78.3283,236.08 86.5,241C 91.6493,240.737 96.816,240.237 102,239.5C 118.59,240.073 125.59,248.406 123,264.5C 120.993,267.336 118.826,270.003 116.5,272.5C 119.555,282.105 116.222,287.438 106.5,288.5C 102.756,288.252 99.0892,287.585 95.5,286.5C 92.5527,286.93 90.2194,288.43 88.5,291C 79.7514,291.292 73.918,287.126 71,278.5C 68.0497,264.584 72.2164,253.418 83.5,245C 74.506,237.67 64.506,232.17 53.5,228.5 Z"/></g>
<g><path style="opacity:1" fill="#e2e2e2" d="M 114.5,11.5 C 119.248,11.2748 123.915,11.7748 128.5,13C 120.963,14.3042 113.63,15.9709 106.5,18C 108.776,15.2111 111.443,13.0444 114.5,11.5 Z"/></g>
<g><path style="opacity:1" fill="#f7f7f7" d="M 184.5,35.5 C 189.12,36.0942 193.287,37.7609 197,40.5C 198.293,44.5821 197.126,47.7487 193.5,50C 189.833,50.6667 186.167,50.6667 182.5,50C 180.604,48.1917 180.104,46.025 181,43.5C 182.993,41.1825 184.159,38.5158 184.5,35.5 Z"/></g>
<g><path style="opacity:1" fill="#f9f9f9" d="M 158.5,50.5 C 170.316,53.1286 175.483,60.462 174,72.5C 172.457,74.3783 170.624,75.8783 168.5,77C 162.833,77.6667 157.167,77.6667 151.5,77C 147.205,76.1022 143.372,74.2689 140,71.5C 138.98,67.2898 139.98,63.6232 143,60.5C 147.806,56.5193 152.973,53.186 158.5,50.5 Z"/></g>
<g><path style="opacity:1" fill="#f5f5f5" d="M 107.5,89.5 C 118.211,88.2617 127.044,91.9284 134,100.5C 136.926,109.979 133.426,114.979 123.5,115.5C 123.144,105.619 119.144,97.4528 111.5,91C 110.255,90.2086 108.922,89.7086 107.5,89.5 Z"/></g>
<g><path style="opacity:1" fill="#f7f7f7" d="M 99.5,92.5 C 102.649,92.2114 105.649,92.7114 108.5,94C 118.202,101.357 121.202,110.69 117.5,122C 114.281,121.498 111.448,119.998 109,117.5C 106.27,111.707 103.27,106.04 100,100.5C 98.7876,97.7839 98.621,95.1172 99.5,92.5 Z"/></g>
<g><path style="opacity:1" fill="#f5f5f5" d="M 92.5,97.5 C 93.4959,97.4142 94.3292,97.7476 95,98.5C 97.7304,104.293 100.73,109.96 104,115.5C 104.667,118.833 104.667,122.167 104,125.5C 102.981,126.687 101.814,127.687 100.5,128.5C 99.6112,125.721 98.4445,123.055 97,120.5C 93.6153,116.783 90.6153,112.783 88,108.5C 87.3333,106.833 87.3333,105.167 88,103.5C 89.332,101.34 90.832,99.34 92.5,97.5 Z"/></g>
<g><path style="opacity:1" fill="#f7f7f7" d="M 127.5,162.5 C 139.436,161.052 148.603,165.719 155,176.5C 156.725,179.674 158.058,183.007 159,186.5C 159.667,195.167 159.667,203.833 159,212.5C 158.626,213.416 158.126,214.25 157.5,215C 154.581,215.552 151.914,214.885 149.5,213C 146.963,210.128 144.13,207.628 141,205.5C 142.867,199.53 144.367,193.363 145.5,187C 145.778,178.559 142.778,171.559 136.5,166C 133.691,164.259 130.691,163.092 127.5,162.5 Z"/></g>
<g><path style="opacity:1" fill="#fafafa" d="M 119.5,165.5 C 135.815,166.416 142.981,175.083 141,191.5C 138.384,200.738 133.717,208.738 127,215.5C 121.699,211.2 116.699,206.534 112,201.5C 101.233,186.376 103.733,174.376 119.5,165.5 Z"/></g>
<g><path style="opacity:1" fill="#f8f8f8" d="M 102.5,167.5 C 104.527,167.338 106.527,167.505 108.5,168C 99.7419,178.707 99.2419,189.874 107,201.5C 110.18,205.345 113.347,209.178 116.5,213C 113.388,219.779 108.555,224.945 102,228.5C 101.228,228.355 100.561,228.022 100,227.5C 101.834,216.455 98.8345,207.122 91,199.5C 84.0272,184.917 87.8605,174.25 102.5,167.5 Z"/></g>
<g><path style="opacity:1" fill="#939393" d="M 53.5,228.5 C 50.9179,228.025 48.9179,228.692 47.5,230.5C 46.596,229.791 46.2627,228.791 46.5,227.5C 49.0593,227.198 51.3926,227.532 53.5,228.5 Z"/></g>
<g><path style="opacity:1" fill="#f2f2f2" d="M 38.5,230.5 C 39.4959,230.414 40.3292,230.748 41,231.5C 42.2632,237.719 43.7632,243.886 45.5,250C 45.1667,250.833 44.8333,251.667 44.5,252.5C 33.7865,247.318 31.7865,239.985 38.5,230.5 Z"/></g>
<g><path style="opacity:1" fill="#f3f3f3" d="M 95.5,243.5 C 106.025,241.486 114.192,244.82 120,253.5C 120.817,256.964 120.483,260.298 119,263.5C 118.586,263.957 118.086,264.291 117.5,264.5C 111.503,256.679 104.17,250.512 95.5,246C 94.4019,245.23 94.4019,244.397 95.5,243.5 Z"/></g>
<g><path style="opacity:1" fill="#f8f8f8" d="M 90.5,248.5 C 99.3142,252.335 106.814,258.001 113,265.5C 112.283,269.468 112.45,273.468 113.5,277.5C 113.91,282.256 111.743,284.59 107,284.5C 102.392,283.945 97.8925,282.945 93.5,281.5C 89.5464,270.735 88.5464,259.735 90.5,248.5 Z"/></g>
<g><path style="opacity:1" fill="#f5f5f5" d="M 84.5,249.5 C 85.1667,255.167 85.8333,260.833 86.5,266.5C 86.5373,272.186 87.5373,277.686 89.5,283C 87.0451,288.485 83.5451,288.985 79,284.5C 70.4551,271.19 72.2885,259.523 84.5,249.5 Z"/></g>
<g><path style="opacity:1" fill="#545454" d="M 86.5,266.5 C 85.8333,260.833 85.1667,255.167 84.5,249.5C 84.7828,248.711 85.2828,248.044 86,247.5C 86.4995,253.825 86.6662,260.158 86.5,266.5 Z"/></g>
<g><path style="opacity:1" fill="#f7f7f7" d="M 169.5,294.5 C 172.713,301.014 174.547,308.014 175,315.5C 175.872,332.199 175.539,348.865 174,365.5C 172.798,371.309 171.131,376.976 169,382.5C 160.09,397.319 153.09,412.986 148,429.5C 147.27,416.765 147.937,404.099 150,391.5C 156.695,359.189 163.195,326.856 169.5,294.5 Z"/></g>
<g><path style="opacity:1" fill="#fbfbfb" d="M 26.5,341.5 C 43.7137,363.559 61.547,385.226 80,406.5C 109.97,438.137 140.303,469.471 171,500.5C 177.466,514.058 181.966,528.058 184.5,542.5C 177.329,539.084 170.662,534.918 164.5,530C 144.03,508.856 122.363,489.189 99.5,471C 75.9715,446.806 57.8048,418.972 45,387.5C 38.3346,372.33 32.1679,356.997 26.5,341.5 Z"/></g>
<g><path style="opacity:1" fill="#5a5a5a" d="M 141.5,416.5 C 141.666,424.507 141.5,432.507 141,440.5C 140.283,439.956 139.783,439.289 139.5,438.5C 140.167,431.167 140.833,423.833 141.5,416.5 Z"/></g>
<g><path style="opacity:1" fill="#727272" d="M 153.5,472.5 C 155.074,472.937 156.241,473.937 157,475.5C 157.667,476.167 157.667,476.833 157,477.5C 155.331,476.154 154.164,474.487 153.5,472.5 Z"/></g>
</svg>
