<?xml version="1.0" encoding="UTF-8"?>
<!DOCTYPE svg PUBLIC "-//W3C//DTD SVG 1.1//EN" "http://www.w3.org/Graphics/SVG/1.1/DTD/svg11.dtd">
<svg xmlns="http://www.w3.org/2000/svg" version="1.1" width="199px" height="601px" style="shape-rendering:geometricPrecision; text-rendering:geometricPrecision; image-rendering:optimizeQuality; fill-rule:evenodd; clip-rule:evenodd" xmlns:xlink="http://www.w3.org/1999/xlink">
<g><path style="opacity:1" fill="#fefefe" d="M -0.5,-0.5 C 65.8333,-0.5 132.167,-0.5 198.5,-0.5C 198.5,199.833 198.5,400.167 198.5,600.5C 132.167,600.5 65.8333,600.5 -0.5,600.5C -0.5,400.167 -0.5,199.833 -0.5,-0.5 Z"/></g>
<g><path style="opacity:1" fill="#0f0f0f" d="M 171.5,87.5 C 171.565,87.9382 171.399,88.2716 171,88.5C 169.007,87.086 166.84,86.086 164.5,85.5C 162.623,80.0318 158.623,77.1985 152.5,77C 142.314,76.2594 134.314,80.0927 128.5,88.5C 136.692,93.7876 138.858,100.788 135,109.5C 131.615,113.217 128.615,117.217 126,121.5C 126.088,128.544 122.921,130.378 116.5,127C 113.976,125.117 112.642,122.617 112.5,119.5C 110.217,119.608 108.217,120.441 106.5,122C 101.355,123.03 98.6881,120.863 98.5,115.5C 86.5858,115.418 81.0858,109.418 82,97.5C 86.2462,89.6118 92.7462,84.4452 101.5,82C 109.982,79.262 117.815,80.4286 125,85.5C 134.158,74.6147 145.658,70.6147 159.5,73.5C 150.406,53.573 137.073,37.073 119.5,24C 108.769,17.068 97.1024,14.7346 84.5,17C 78.0241,25.6434 71.3574,34.1434 64.5,42.5C 69.7152,45.6951 74.8819,49.0284 80,52.5C 84.4965,57.3238 86.1631,62.9904 85,69.5C 80.2488,73.5332 74.7488,76.0332 68.5,77C 62.8333,77.6667 57.1667,77.6667 51.5,77C 43.2756,73.0289 40.4422,66.5289 43,57.5C 44.4394,54.3974 46.2728,51.5641 48.5,49C 53.7755,46.1121 58.6089,42.6121 63,38.5C 68.1366,31.063 73.6366,23.8964 79.5,17C 65.1057,16.4281 52.439,20.7614 41.5,30C 40.9781,30.5613 40.6448,31.228 40.5,32C 48.1311,47.0603 43.4644,53.0603 26.5,50C 19.0706,45.3131 17.7373,39.3131 22.5,32C 26.409,29.2982 30.7423,27.9649 35.5,28C 40.0286,22.1331 45.6953,17.7998 52.5,15C 63.2717,11.8156 74.2717,9.81564 85.5,9C 93.5209,2.94098 102.188,1.94098 111.5,6C 122.589,17.4201 134.089,28.5867 146,39.5C 157.376,53.9156 165.876,69.9156 171.5,87.5 Z"/></g>
<g><path style="opacity:1" fill="#e0e0e0" d="M 94.5,7.5 C 102.369,6.2941 109.036,8.46077 114.5,14C 107.337,12.0447 100.003,10.3781 92.5,9C 93.4158,8.72158 94.0825,8.22158 94.5,7.5 Z"/></g>
<g><path style="opacity:1" fill="#f6f6f6" d="M 33.5,31.5 C 34.5,31.5 35.5,31.5 36.5,31.5C 36.8406,34.5158 38.0073,37.1825 40,39.5C 41.0897,45.0776 38.7564,47.4109 33,46.5C 27.6895,47.0177 24.5228,44.6843 23.5,39.5C 23.4062,37.0884 24.4062,35.255 26.5,34C 28.9269,33.0977 31.2603,32.2644 33.5,31.5 Z"/></g>
<g><path style="opacity:1" fill="#fafafa" d="M 58.5,46.5 C 68.284,48.1376 75.784,53.1376 81,61.5C 81.6667,63.5 81.6667,65.5 81,67.5C 77.6284,70.2689 73.7951,72.1022 69.5,73C 63.0559,73.9148 56.7226,73.5815 50.5,72C 46.6326,68.3398 45.466,63.8398 47,58.5C 49.6907,53.3111 53.5241,49.3111 58.5,46.5 Z"/></g>
<g><path style="opacity:1" fill="#f5f5f5" d="M 104.5,84.5 C 107.518,84.3354 110.518,84.502 113.5,85C 103.169,90.8296 97.8361,99.663 97.5,111.5C 88.5999,111.717 84.7666,107.384 86,98.5C 87.1667,96.6667 88.3333,94.8333 89.5,93C 94.4309,89.87 99.4309,87.0367 104.5,84.5 Z"/></g>
<g><path style="opacity:1" fill="#f8f8f8" d="M 114.5,88.5 C 122.092,86.9189 124.259,89.5856 121,96.5C 117.73,102.04 114.73,107.707 112,113.5C 109.47,116.471 106.47,117.804 103,117.5C 100.151,105.196 103.984,95.5297 114.5,88.5 Z"/></g>
<g><path style="opacity:1" fill="#111115" d="M 165.5,87.5 C 168.681,88.3485 171.348,90.0152 173.5,92.5C 173.629,94.2161 173.962,95.8828 174.5,97.5C 174.468,100.994 173.135,103.661 170.5,105.5C 168.835,99.5166 167.169,93.5166 165.5,87.5 Z"/></g>
<g><path style="opacity:1" fill="#636366" d="M 164.5,85.5 C 166.84,86.086 169.007,87.086 171,88.5C 171.399,88.2716 171.565,87.9382 171.5,87.5C 172.537,88.9303 173.204,90.597 173.5,92.5C 171.348,90.0152 168.681,88.3485 165.5,87.5C 164.662,87.1583 164.328,86.4916 164.5,85.5 Z"/></g>
<g><path style="opacity:1" fill="#f3f3f3" d="M 125.5,92.5 C 133.32,95.8017 135.153,101.135 131,108.5C 126.088,112.911 122.588,118.244 120.5,124.5C 119.186,123.687 118.019,122.687 117,121.5C 116.333,118.167 116.333,114.833 117,111.5C 119.333,107.5 121.667,103.5 124,99.5C 124.977,97.26 125.477,94.9267 125.5,92.5 Z"/></g>
<g><path style="opacity:1" fill="#0d0d0d" d="M 176.5,102.5 C 185.056,141.008 186.723,179.841 181.5,219C 181.833,220.167 182.167,221.333 182.5,222.5C 190.066,226.254 192.566,232.254 190,240.5C 189.117,243.102 187.617,245.269 185.5,247C 181.582,249.877 177.415,252.377 173,254.5C 154.69,310.781 130.69,364.448 101,415.5C 85.5502,440.09 69.8835,464.423 54,488.5C 44.7716,506.514 38.105,525.514 34,545.5C 28.5443,561.531 22.8776,577.531 17,593.5C 15.9932,596.803 13.8265,597.97 10.5,597C 9.94149,596.275 9.60816,595.442 9.5,594.5C 20.9521,561.93 32.1187,529.263 43,496.5C 50.9977,479.154 60.9977,463.154 73,448.5C 108.253,394.327 136.919,336.66 159,275.5C 164.545,259.367 169.378,243.034 173.5,226.5C 174.404,225.791 174.737,224.791 174.5,223.5C 171.941,223.198 169.607,223.532 167.5,224.5C 156.505,228.165 146.505,233.665 137.5,241C 151.113,251.58 154.279,264.746 147,280.5C 144.795,283.04 142.295,285.207 139.5,287C 134.785,288.473 131.119,287.14 128.5,283C 123.442,282.678 118.442,283.178 113.5,284.5C 108.479,284.642 105.312,282.308 104,277.5C 103.362,274.464 103.528,271.464 104.5,268.5C 92.8227,256.419 94.156,245.919 108.5,237C 111.575,235.993 114.742,235.493 118,235.5C 123.514,236.259 129.014,236.759 134.5,237C 143.339,231.746 152.339,226.746 161.5,222C 166.004,221.002 170.504,220.169 175,219.5C 179.208,192.878 179.542,166.211 176,139.5C 163.55,131.506 150.383,130.339 136.5,136C 124.409,140.095 115.409,147.762 109.5,159C 130.222,160.372 139.055,171.205 136,191.5C 133.489,197.345 130.156,202.678 126,207.5C 125.667,213.5 125.333,219.5 125,225.5C 121.045,229.32 116.878,229.487 112.5,226C 108.132,221.403 104.132,216.57 100.5,211.5C 97.8474,213.387 95.1808,214.887 92.5,216C 89.3333,212.167 86.1667,208.333 83,204.5C 78.7714,208.362 74.2714,211.862 69.5,215C 64.1862,216.26 60.3529,214.426 58,209.5C 56.5972,197.253 57.5972,185.253 61,173.5C 70.8574,154.16 85.6908,148.826 105.5,157.5C 113.991,142.738 126.658,133.571 143.5,130C 150.5,129.333 157.5,129.333 164.5,130C 168.451,130.536 171.951,132.036 175,134.5C 174.496,125.786 173.663,117.119 172.5,108.5C 172.87,105.733 174.204,103.733 176.5,102.5 Z"/></g>
<g><path style="opacity:1" fill="#5a5b5f" d="M 174.5,97.5 C 175.309,99.0276 175.976,100.694 176.5,102.5C 174.204,103.733 172.87,105.733 172.5,108.5C 171.599,107.71 170.932,106.71 170.5,105.5C 173.135,103.661 174.468,100.994 174.5,97.5 Z"/></g>
<g><path style="opacity:1" fill="#f7f7f7" d="M 83.5,157.5 C 86.5184,157.335 89.5184,157.502 92.5,158C 79.368,163.42 73.868,173.254 76,187.5C 76.8688,192.403 78.7021,196.903 81.5,201C 77.5897,202.907 74.2564,205.573 71.5,209C 69.0859,210.885 66.4192,211.552 63.5,211C 62.8742,210.25 62.3742,209.416 62,208.5C 57.4253,190.148 61.9253,174.648 75.5,162C 78.3911,160.726 81.0578,159.226 83.5,157.5 Z"/></g>
<g><path style="opacity:1" fill="#fafafa" d="M 92.5,161.5 C 111.662,162.497 118.495,172.164 113,190.5C 108.089,198.747 101.755,205.747 94,211.5C 85.9679,203.436 81.1346,193.769 79.5,182.5C 80.0373,173.082 84.3707,166.082 92.5,161.5 Z"/></g>
<g><path style="opacity:1" fill="#f8f8f8" d="M 112.5,164.5 C 122.517,163.951 129.35,168.618 133,178.5C 134.162,184.557 133.162,190.223 130,195.5C 122.166,203.122 119.166,212.455 121,223.5C 119.132,224.672 117.298,224.505 115.5,223C 110.675,219.183 107.008,214.516 104.5,209C 110.925,202.565 115.758,195.065 119,186.5C 120.74,177.897 118.574,170.564 112.5,164.5 Z"/></g>
<g><path style="opacity:1" fill="#969696" d="M 167.5,224.5 C 169.607,223.532 171.941,223.198 174.5,223.5C 174.737,224.791 174.404,225.791 173.5,226.5C 172.082,224.692 170.082,224.025 167.5,224.5 Z"/></g>
<g><path style="opacity:1" fill="#f2f2f2" d="M 180.5,226.5 C 186.064,229.064 187.898,233.397 186,239.5C 183.642,243.358 180.475,246.358 176.5,248.5C 176.167,247.667 175.833,246.833 175.5,246C 177.286,239.485 178.953,232.985 180.5,226.5 Z"/></g>
<g><path style="opacity:1" fill="#f3f3f3" d="M 111.5,239.5 C 116.628,239.112 121.628,239.612 126.5,241C 117.679,246.086 110.013,252.586 103.5,260.5C 102.201,259.91 101.368,258.91 101,257.5C 100.333,254.833 100.333,252.167 101,249.5C 103.738,245.26 107.238,241.926 111.5,239.5 Z"/></g>
<g><path style="opacity:1" fill="#f9f9f9" d="M 127.5,244.5 C 128.822,244.33 129.989,244.663 131,245.5C 132.289,256.076 131.289,266.409 128,276.5C 124.791,278.215 121.291,279.382 117.5,280C 115.167,280.667 112.833,280.667 110.5,280C 109.333,279.5 108.5,278.667 108,277.5C 108.026,272.102 108.026,266.768 108,261.5C 109.62,259.759 111.12,257.925 112.5,256C 117.685,252.303 122.685,248.47 127.5,244.5 Z"/></g>
<g><path style="opacity:1" fill="#f5f5f5" d="M 136.5,245.5 C 148.712,255.523 150.545,267.19 142,280.5C 137.455,284.985 133.955,284.485 131.5,279C 133.463,273.686 134.463,268.186 134.5,262.5C 135.167,256.833 135.833,251.167 136.5,245.5 Z"/></g>
<g><path style="opacity:1" fill="#545454" d="M 136.5,245.5 C 135.833,251.167 135.167,256.833 134.5,262.5C 134.334,256.158 134.5,249.825 135,243.5C 135.717,244.044 136.217,244.711 136.5,245.5 Z"/></g>
</svg>
