<?xml version="1.0" encoding="UTF-8"?>
<!DOCTYPE svg PUBLIC "-//W3C//DTD SVG 1.1//EN" "http://www.w3.org/Graphics/SVG/1.1/DTD/svg11.dtd">
<svg xmlns="http://www.w3.org/2000/svg" version="1.1" width="242px" height="601px" style="shape-rendering:geometricPrecision; text-rendering:geometricPrecision; image-rendering:optimizeQuality; fill-rule:evenodd; clip-rule:evenodd" xmlns:xlink="http://www.w3.org/1999/xlink">
<g><path style="opacity:1" fill="#fefefe" d="M -0.5,-0.5 C 80.1667,-0.5 160.833,-0.5 241.5,-0.5C 241.5,199.833 241.5,400.167 241.5,600.5C 160.833,600.5 80.1667,600.5 -0.5,600.5C -0.5,400.167 -0.5,199.833 -0.5,-0.5 Z"/></g>
<g><path style="opacity:1" fill="#0d0d0d" d="M 98.5,412.5 C 98.3336,420.507 98.5003,428.507 99,436.5C 99.7172,435.956 100.217,435.289 100.5,434.5C 142.033,370.09 172.7,300.756 192.5,226.5C 193.404,225.791 193.737,224.791 193.5,223.5C 190.941,223.198 188.607,223.532 186.5,224.5C 175.505,228.165 165.505,233.665 156.5,241C 170.113,251.58 173.279,264.746 166,280.5C 163.795,283.04 161.295,285.207 158.5,287C 153.785,288.473 150.119,287.14 147.5,283C 142.442,282.678 137.442,283.178 132.5,284.5C 127.479,284.642 124.312,282.308 123,277.5C 122.362,274.464 122.528,271.464 123.5,268.5C 111.823,256.419 113.156,245.919 127.5,237C 130.575,235.993 133.742,235.493 137,235.5C 142.514,236.259 148.014,236.759 153.5,237C 162.339,231.746 171.339,226.746 180.5,222C 185.004,221.002 189.504,220.169 194,219.5C 198.208,192.878 198.542,166.211 195,139.5C 182.559,131.507 169.393,130.34 155.5,136C 143.409,140.095 134.409,147.762 128.5,159C 150.661,161.182 159.161,173.016 154,194.5C 151.247,199.008 148.247,203.341 145,207.5C 144.667,213.5 144.333,219.5 144,225.5C 140.045,229.32 135.878,229.487 131.5,226C 127.132,221.403 123.132,216.57 119.5,211.5C 116.847,213.387 114.181,214.887 111.5,216C 108.333,212.167 105.167,208.333 102,204.5C 97.7714,208.362 93.2714,211.862 88.5,215C 84.2071,216.202 80.7071,215.035 78,211.5C 75.7966,199.782 76.13,188.115 79,176.5C 85.7802,159.374 98.2802,151.874 116.5,154C 119.284,154.892 121.95,156.058 124.5,157.5C 132.991,142.738 145.658,133.571 162.5,130C 169.5,129.333 176.5,129.333 183.5,130C 187.451,130.536 190.951,132.036 194,134.5C 192.874,115.496 188.374,97.3296 180.5,80C 167.857,74.4629 157.024,76.9629 148,87.5C 147.333,88.1667 147.333,88.8333 148,89.5C 156.236,94.3695 158.236,101.036 154,109.5C 150.615,113.217 147.615,117.217 145,121.5C 145.088,128.544 141.921,130.378 135.5,127C 132.976,125.117 131.642,122.617 131.5,119.5C 129.217,119.608 127.217,120.441 125.5,122C 120.355,123.03 117.688,120.863 117.5,115.5C 105.586,115.418 100.086,109.418 101,97.5C 105.246,89.6118 111.746,84.4452 120.5,82C 128.982,79.262 136.815,80.4286 144,85.5C 153.158,74.6147 164.658,70.6147 178.5,73.5C 170.391,56.553 159.391,41.7197 145.5,29C 133.301,18.7312 119.301,14.5645 103.5,16.5C 97.2162,25.4518 90.5496,34.1185 83.5,42.5C 88.7152,45.6951 93.8819,49.0284 99,52.5C 108.55,64.4486 106.05,72.2819 91.5,76C 84.5667,77.5058 77.5667,77.8391 70.5,77C 62.2756,73.0289 59.4422,66.5289 62,57.5C 63.4394,54.3974 65.2728,51.5641 67.5,49C 72.7755,46.1121 77.6089,42.6121 82,38.5C 87.1366,31.063 92.6366,23.8964 98.5,17C 84.1057,16.4281 71.439,20.7614 60.5,30C 59.9781,30.5613 59.6448,31.228 59.5,32C 61.5172,34.8689 62.8505,38.0356 63.5,41.5C 63.7353,46.0268 61.7353,48.8601 57.5,50C 44.6937,53.1689 38.527,48.3356 39,35.5C 42.855,30.4902 48.0217,27.9902 54.5,28C 59.0286,22.1331 64.6953,17.7998 71.5,15C 82.2717,11.8156 93.2717,9.81564 104.5,9C 119.541,-0.564821 131.707,2.26851 141,17.5C 169.657,39.7793 187.99,68.7793 196,104.5C 204.089,142.407 205.589,180.573 200.5,219C 200.833,220.167 201.167,221.333 201.5,222.5C 206.832,225.003 209.498,229.17 209.5,235C 209.733,238.459 208.899,241.626 207,244.5C 202.688,248.826 197.688,252.159 192,254.5C 166.179,335.145 128.512,409.479 79,477.5C 78.0266,479.392 77.3599,481.392 77,483.5C 73.2308,488.915 69.8974,494.582 67,500.5C 58.349,526.128 50.0157,551.795 42,577.5C 39.5,583.833 37,590.167 34.5,596.5C 29.9811,598.588 28.1477,597.254 29,592.5C 31,587.833 33,583.167 35,578.5C 42.5413,554.461 50.2079,530.461 58,506.5C 65.1876,487.112 75.1876,469.445 88,453.5C 88.9847,451.634 89.4847,449.634 89.5,447.5C 86.7048,424.278 78.8715,402.944 66,383.5C 59.4381,365.955 56.6047,347.788 57.5,329C 57.8311,316.687 59.3311,304.52 62,292.5C 64.06,287.38 66.3933,282.38 69,277.5C 71,276.167 73,276.167 75,277.5C 77.3417,293.217 80.0084,308.884 83,324.5C 91.0363,353.315 96.203,382.649 98.5,412.5 Z"/></g>
<g><path style="opacity:1" fill="#e0e0e0" d="M 113.5,7.5 C 121.369,6.2941 128.036,8.46077 133.5,14C 126.337,12.0447 119.003,10.3781 111.5,9C 112.416,8.72158 113.082,8.22158 113.5,7.5 Z"/></g>
<g><path style="opacity:1" fill="#f6f6f6" d="M 52.5,31.5 C 53.5,31.5 54.5,31.5 55.5,31.5C 55.8406,34.5158 57.0073,37.1825 59,39.5C 60.0897,45.0776 57.7564,47.4109 52,46.5C 46.6895,47.0177 43.5228,44.6843 42.5,39.5C 42.4062,37.0884 43.4062,35.255 45.5,34C 47.9269,33.0977 50.2603,32.2644 52.5,31.5 Z"/></g>
<g><path style="opacity:1" fill="#fafafa" d="M 77.5,46.5 C 87.284,48.1376 94.784,53.1376 100,61.5C 100.667,63.5 100.667,65.5 100,67.5C 96.6284,70.2689 92.7951,72.1022 88.5,73C 82.0559,73.9148 75.7226,73.5815 69.5,72C 65.6326,68.3398 64.466,63.8398 66,58.5C 68.6907,53.3111 72.5241,49.3111 77.5,46.5 Z"/></g>
<g><path style="opacity:1" fill="#f5f5f5" d="M 123.5,84.5 C 126.518,84.3354 129.518,84.502 132.5,85C 122.169,90.8296 116.836,99.663 116.5,111.5C 107.6,111.717 103.767,107.384 105,98.5C 106.167,96.6667 107.333,94.8333 108.5,93C 113.431,89.87 118.431,87.0367 123.5,84.5 Z"/></g>
<g><path style="opacity:1" fill="#f7f7f7" d="M 133.5,88.5 C 141.092,86.9189 143.259,89.5856 140,96.5C 136.73,102.04 133.73,107.707 131,113.5C 128.636,115.363 126.136,117.029 123.5,118.5C 122.029,117.619 121.196,116.286 121,114.5C 120.06,103.379 124.227,94.7126 133.5,88.5 Z"/></g>
<g><path style="opacity:1" fill="#f3f3f3" d="M 144.5,92.5 C 152.32,95.8017 154.153,101.135 150,108.5C 145.088,112.911 141.588,118.244 139.5,124.5C 138.186,123.687 137.019,122.687 136,121.5C 135.333,118.167 135.333,114.833 136,111.5C 138.333,107.5 140.667,103.5 143,99.5C 143.977,97.26 144.477,94.9267 144.5,92.5 Z"/></g>
<g><path style="opacity:1" fill="#f7f7f7" d="M 102.5,157.5 C 105.518,157.335 108.518,157.502 111.5,158C 100.342,162.508 94.6749,170.841 94.5,183C 95.6331,189.363 97.1331,195.53 99,201.5C 95.8699,203.628 93.0366,206.128 90.5,209C 88.0859,210.885 85.4192,211.552 82.5,211C 81.8742,210.25 81.3742,209.416 81,208.5C 76.4253,190.148 80.9253,174.648 94.5,162C 97.3911,160.726 100.058,159.226 102.5,157.5 Z"/></g>
<g><path style="opacity:1" fill="#fafafa" d="M 111.5,161.5 C 130.662,162.497 137.495,172.164 132,190.5C 127.089,198.747 120.755,205.747 113,211.5C 104.968,203.436 100.135,193.769 98.5,182.5C 99.0373,173.082 103.371,166.082 111.5,161.5 Z"/></g>
<g><path style="opacity:1" fill="#f8f8f8" d="M 131.5,164.5 C 141.517,163.951 148.35,168.618 152,178.5C 153.162,184.557 152.162,190.223 149,195.5C 141.166,203.122 138.166,212.455 140,223.5C 138.132,224.672 136.298,224.505 134.5,223C 129.675,219.183 126.008,214.516 123.5,209C 129.925,202.565 134.758,195.065 138,186.5C 139.74,177.897 137.574,170.564 131.5,164.5 Z"/></g>
<g><path style="opacity:1" fill="#969696" d="M 186.5,224.5 C 188.607,223.532 190.941,223.198 193.5,223.5C 193.737,224.791 193.404,225.791 192.5,226.5C 191.082,224.692 189.082,224.025 186.5,224.5 Z"/></g>
<g><path style="opacity:1" fill="#f1f1f1" d="M 199.5,226.5 C 205.064,229.064 206.898,233.397 205,239.5C 202.642,243.358 199.475,246.358 195.5,248.5C 195.167,247.667 194.833,246.833 194.5,246C 196.254,239.484 197.92,232.984 199.5,226.5 Z"/></g>
<g><path style="opacity:1" fill="#f3f3f3" d="M 130.5,239.5 C 135.628,239.112 140.628,239.612 145.5,241C 136.679,246.086 129.013,252.586 122.5,260.5C 121.201,259.91 120.368,258.91 120,257.5C 119.333,254.833 119.333,252.167 120,249.5C 122.738,245.26 126.238,241.926 130.5,239.5 Z"/></g>
<g><path style="opacity:1" fill="#f9f9f9" d="M 146.5,244.5 C 147.822,244.33 148.989,244.663 150,245.5C 151.289,256.076 150.289,266.409 147,276.5C 143.791,278.215 140.291,279.382 136.5,280C 134.167,280.667 131.833,280.667 129.5,280C 128.333,279.5 127.5,278.667 127,277.5C 127.026,272.102 127.026,266.768 127,261.5C 128.62,259.759 130.12,257.925 131.5,256C 136.685,252.303 141.685,248.47 146.5,244.5 Z"/></g>
<g><path style="opacity:1" fill="#f5f5f5" d="M 155.5,245.5 C 167.712,255.523 169.545,267.19 161,280.5C 156.455,284.985 152.955,284.485 150.5,279C 152.463,273.686 153.463,268.186 153.5,262.5C 154.167,256.833 154.833,251.167 155.5,245.5 Z"/></g>
<g><path style="opacity:1" fill="#545454" d="M 155.5,245.5 C 154.833,251.167 154.167,256.833 153.5,262.5C 153.334,256.158 153.5,249.825 154,243.5C 154.717,244.044 155.217,244.711 155.5,245.5 Z"/></g>
<g><path style="opacity:1" fill="#f7f7f7" d="M 69.5,290.5 C 75.579,318.717 81.7457,347.05 88,375.5C 91.0313,392.046 92.3647,408.713 92,425.5C 86.91,408.986 79.91,393.319 71,378.5C 68.8688,372.976 67.2021,367.309 66,361.5C 64.4611,344.865 64.1278,328.199 65,311.5C 65.7135,304.315 67.2135,297.315 69.5,290.5 Z"/></g>
<g><path style="opacity:1" fill="#5a5a5a" d="M 98.5,412.5 C 99.1667,419.833 99.8333,427.167 100.5,434.5C 100.217,435.289 99.7172,435.956 99,436.5C 98.5003,428.507 98.3336,420.507 98.5,412.5 Z"/></g>
</svg>
