<?xml version="1.0" encoding="UTF-8"?>
<!DOCTYPE svg PUBLIC "-//W3C//DTD SVG 1.1//EN" "http://www.w3.org/Graphics/SVG/1.1/DTD/svg11.dtd">
<svg xmlns="http://www.w3.org/2000/svg" version="1.1" width="221px" height="608px" style="shape-rendering:geometricPrecision; text-rendering:geometricPrecision; image-rendering:optimizeQuality; fill-rule:evenodd; clip-rule:evenodd" xmlns:xlink="http://www.w3.org/1999/xlink">
<g><path style="opacity:1" fill="#fdfdfd" d="M -0.5,-0.5 C 73.1667,-0.5 146.833,-0.5 220.5,-0.5C 220.5,202.167 220.5,404.833 220.5,607.5C 146.833,607.5 73.1667,607.5 -0.5,607.5C -0.5,404.833 -0.5,202.167 -0.5,-0.5 Z"/></g>
<g><path style="opacity:1" fill="#0d0d0d" d="M 78.5,416.5 C 78.3336,424.507 78.5003,432.507 79,440.5C 79.7172,439.956 80.2172,439.289 80.5,438.5C 122.033,374.09 152.7,304.756 172.5,230.5C 173.404,229.791 173.737,228.791 173.5,227.5C 170.941,227.198 168.607,227.532 166.5,228.5C 155.505,232.165 145.505,237.665 136.5,245C 150.113,255.58 153.279,268.746 146,284.5C 143.795,287.04 141.295,289.207 138.5,291C 133.785,292.473 130.119,291.14 127.5,287C 122.442,286.678 117.442,287.178 112.5,288.5C 107.479,288.642 104.312,286.308 103,281.5C 102.362,278.464 102.528,275.464 103.5,272.5C 91.8227,260.419 93.156,249.919 107.5,241C 110.575,239.993 113.742,239.493 117,239.5C 122.514,240.259 128.014,240.759 133.5,241C 142.339,235.746 151.339,230.746 160.5,226C 165.004,225.002 169.504,224.169 174,223.5C 178.208,196.878 178.542,170.211 175,143.5C 162.559,135.507 149.393,134.34 135.5,140C 123.409,144.095 114.409,151.762 108.5,163C 130.661,165.182 139.161,177.016 134,198.5C 131.247,203.008 128.247,207.341 125,211.5C 124.667,217.5 124.333,223.5 124,229.5C 120.045,233.32 115.878,233.487 111.5,230C 107.132,225.403 103.132,220.57 99.5,215.5C 96.8474,217.387 94.1808,218.887 91.5,220C 88.3333,216.167 85.1667,212.333 82,208.5C 77.7714,212.362 73.2714,215.862 68.5,219C 64.2071,220.202 60.7071,219.035 58,215.5C 55.7966,203.782 56.13,192.115 59,180.5C 65.7802,163.374 78.2802,155.874 96.5,158C 99.2837,158.892 101.95,160.058 104.5,161.5C 112.991,146.738 125.658,137.571 142.5,134C 149.5,133.333 156.5,133.333 163.5,134C 167.451,134.536 170.951,136.036 174,138.5C 172.874,119.496 168.374,101.33 160.5,84C 147.857,78.4629 137.024,80.9629 128,91.5C 127.333,92.1667 127.333,92.8333 128,93.5C 136.236,98.3695 138.236,105.036 134,113.5C 130.615,117.217 127.615,121.217 125,125.5C 125.088,132.544 121.921,134.378 115.5,131C 112.976,129.117 111.642,126.617 111.5,123.5C 109.217,123.608 107.217,124.441 105.5,126C 100.355,127.03 97.6881,124.863 97.5,119.5C 85.5858,119.418 80.0858,113.418 81,101.5C 85.2462,93.6118 91.7462,88.4452 100.5,86C 108.982,83.262 116.815,84.4286 124,89.5C 133.158,78.6147 144.658,74.6147 158.5,77.5C 150.391,60.553 139.391,45.7197 125.5,33C 113.301,22.7312 99.3009,18.5645 83.5,20.5C 77.2162,29.4518 70.5496,38.1185 63.5,46.5C 68.7152,49.6951 73.8819,53.0284 79,56.5C 88.5495,68.4486 86.0495,76.2819 71.5,80C 64.5667,81.5058 57.5667,81.8391 50.5,81C 42.2756,77.0289 39.4422,70.5289 42,61.5C 43.4394,58.3974 45.2728,55.5641 47.5,53C 52.7755,50.1121 57.6089,46.6121 62,42.5C 67.1366,35.063 72.6366,27.8964 78.5,21C 64.1057,20.4281 51.439,24.7614 40.5,34C 39.9781,34.5613 39.6448,35.228 39.5,36C 41.5172,38.8689 42.8505,42.0356 43.5,45.5C 43.7353,50.0268 41.7353,52.8601 37.5,54C 24.6937,57.1689 18.527,52.3356 19,39.5C 22.855,34.4902 28.0217,31.9902 34.5,32C 39.0286,26.1331 44.6953,21.7998 51.5,19C 62.2717,15.8156 73.2717,13.8156 84.5,13C 99.5407,3.43518 111.707,6.26851 121,21.5C 149.657,43.7793 167.99,72.7793 176,108.5C 184.089,146.407 185.589,184.573 180.5,223C 180.833,224.167 181.167,225.333 181.5,226.5C 186.832,229.003 189.498,233.17 189.5,239C 189.733,242.459 188.899,245.626 187,248.5C 182.688,252.826 177.688,256.159 172,258.5C 147.595,334.641 112.595,405.308 67,470.5C 66.3333,471.167 66.3333,471.833 67,472.5C 111.039,430.481 151.372,385.481 188,337.5C 194.916,327.337 201.583,317.003 208,306.5C 210.601,302.562 213.101,302.562 215.5,306.5C 200.562,346.819 183.395,386.152 164,424.5C 152.853,444.93 138.686,463.097 121.5,479C 101.842,494.032 83.5088,510.698 66.5,529C 56.1497,538.511 44.483,546.011 31.5,551.5C 26.677,568.142 21.0103,584.475 14.5,600.5C 9.98105,602.588 8.14772,601.254 9,596.5C 11,591.833 13,587.167 15,582.5C 22.5413,558.461 30.2079,534.461 38,510.5C 45.1876,491.112 55.1876,473.445 68,457.5C 68.9847,455.634 69.4847,453.634 69.5,451.5C 66.7048,428.278 58.8715,406.944 46,387.5C 39.4381,369.955 36.6047,351.788 37.5,333C 37.8311,320.687 39.3311,308.52 42,296.5C 44.0994,291.135 46.5994,285.968 49.5,281C 51.4406,280.257 53.2739,280.424 55,281.5C 57.3417,297.217 60.0084,312.884 63,328.5C 71.0363,357.315 76.203,386.649 78.5,416.5 Z"/></g>
<g><path style="opacity:1" fill="#e0e0e0" d="M 93.5,11.5 C 101.369,10.2941 108.036,12.4608 113.5,18C 106.337,16.0447 99.0034,14.3781 91.5,13C 92.4158,12.7216 93.0825,12.2216 93.5,11.5 Z"/></g>
<g><path style="opacity:1" fill="#f6f6f6" d="M 32.5,35.5 C 33.5,35.5 34.5,35.5 35.5,35.5C 35.8406,38.5158 37.0073,41.1825 39,43.5C 40.0897,49.0776 37.7564,51.4109 32,50.5C 26.6895,51.0177 23.5228,48.6843 22.5,43.5C 22.4062,41.0884 23.4062,39.255 25.5,38C 27.9269,37.0977 30.2603,36.2644 32.5,35.5 Z"/></g>
<g><path style="opacity:1" fill="#fafafa" d="M 57.5,50.5 C 67.284,52.1376 74.784,57.1376 80,65.5C 80.6667,67.5 80.6667,69.5 80,71.5C 76.6284,74.2689 72.7951,76.1022 68.5,77C 62.0559,77.9148 55.7226,77.5815 49.5,76C 45.6326,72.3398 44.466,67.8398 46,62.5C 48.6907,57.3111 52.5241,53.3111 57.5,50.5 Z"/></g>
<g><path style="opacity:1" fill="#f5f5f5" d="M 103.5,88.5 C 106.518,88.3354 109.518,88.502 112.5,89C 102.169,94.8296 96.8361,103.663 96.5,115.5C 87.5999,115.717 83.7666,111.384 85,102.5C 86.1667,100.667 87.3333,98.8333 88.5,97C 93.4309,93.87 98.4309,91.0367 103.5,88.5 Z"/></g>
<g><path style="opacity:1" fill="#f7f7f7" d="M 113.5,92.5 C 121.092,90.9189 123.259,93.5856 120,100.5C 116.73,106.04 113.73,111.707 111,117.5C 108.636,119.363 106.136,121.029 103.5,122.5C 102.029,121.619 101.196,120.286 101,118.5C 100.06,107.379 104.227,98.7126 113.5,92.5 Z"/></g>
<g><path style="opacity:1" fill="#f3f3f3" d="M 124.5,96.5 C 132.32,99.8017 134.153,105.135 130,112.5C 125.088,116.911 121.588,122.244 119.5,128.5C 118.186,127.687 117.019,126.687 116,125.5C 115.333,122.167 115.333,118.833 116,115.5C 118.333,111.5 120.667,107.5 123,103.5C 123.977,101.26 124.477,98.9267 124.5,96.5 Z"/></g>
<g><path style="opacity:1" fill="#f7f7f7" d="M 82.5,161.5 C 85.5184,161.335 88.5184,161.502 91.5,162C 78.368,167.42 72.868,177.254 75,191.5C 75.8688,196.403 77.7021,200.903 80.5,205C 76.5897,206.907 73.2564,209.573 70.5,213C 68.0859,214.885 65.4192,215.552 62.5,215C 61.8742,214.25 61.3742,213.416 61,212.5C 56.4253,194.148 60.9253,178.648 74.5,166C 77.3911,164.726 80.0578,163.226 82.5,161.5 Z"/></g>
<g><path style="opacity:1" fill="#fafafa" d="M 91.5,165.5 C 110.662,166.497 117.495,176.164 112,194.5C 107.089,202.747 100.755,209.747 93,215.5C 84.9679,207.436 80.1346,197.769 78.5,186.5C 79.0373,177.082 83.3707,170.082 91.5,165.5 Z"/></g>
<g><path style="opacity:1" fill="#f8f8f8" d="M 111.5,168.5 C 121.517,167.951 128.35,172.618 132,182.5C 133.162,188.557 132.162,194.223 129,199.5C 121.166,207.122 118.166,216.455 120,227.5C 118.132,228.672 116.298,228.505 114.5,227C 109.675,223.183 106.008,218.516 103.5,213C 109.925,206.565 114.758,199.065 118,190.5C 119.74,181.897 117.574,174.564 111.5,168.5 Z"/></g>
<g><path style="opacity:1" fill="#969696" d="M 166.5,228.5 C 168.607,227.532 170.941,227.198 173.5,227.5C 173.737,228.791 173.404,229.791 172.5,230.5C 171.082,228.692 169.082,228.025 166.5,228.5 Z"/></g>
<g><path style="opacity:1" fill="#f2f2f2" d="M 179.5,230.5 C 185.064,233.064 186.898,237.397 185,243.5C 182.642,247.358 179.475,250.358 175.5,252.5C 175.167,251.667 174.833,250.833 174.5,250C 176.286,243.485 177.953,236.985 179.5,230.5 Z"/></g>
<g><path style="opacity:1" fill="#f3f3f3" d="M 110.5,243.5 C 115.628,243.112 120.628,243.612 125.5,245C 116.679,250.086 109.013,256.586 102.5,264.5C 101.201,263.91 100.368,262.91 100,261.5C 99.3333,258.833 99.3333,256.167 100,253.5C 102.738,249.26 106.238,245.926 110.5,243.5 Z"/></g>
<g><path style="opacity:1" fill="#f9f9f9" d="M 126.5,248.5 C 127.822,248.33 128.989,248.663 130,249.5C 131.289,260.076 130.289,270.409 127,280.5C 123.791,282.215 120.291,283.382 116.5,284C 114.167,284.667 111.833,284.667 109.5,284C 108.333,283.5 107.5,282.667 107,281.5C 107.026,276.102 107.026,270.768 107,265.5C 108.62,263.759 110.12,261.925 111.5,260C 116.685,256.303 121.685,252.47 126.5,248.5 Z"/></g>
<g><path style="opacity:1" fill="#f5f5f5" d="M 135.5,249.5 C 147.712,259.523 149.545,271.19 141,284.5C 136.455,288.985 132.955,288.485 130.5,283C 132.463,277.686 133.463,272.186 133.5,266.5C 134.167,260.833 134.833,255.167 135.5,249.5 Z"/></g>
<g><path style="opacity:1" fill="#545454" d="M 135.5,249.5 C 134.833,255.167 134.167,260.833 133.5,266.5C 133.334,260.158 133.5,253.825 134,247.5C 134.717,248.044 135.217,248.711 135.5,249.5 Z"/></g>
<g><path style="opacity:1" fill="#f7f7f7" d="M 49.5,294.5 C 55.579,322.717 61.7457,351.05 68,379.5C 71.0313,396.046 72.3647,412.713 72,429.5C 66.91,412.986 59.91,397.319 51,382.5C 48.8688,376.976 47.2021,371.309 46,365.5C 44.4611,348.865 44.1278,332.199 45,315.5C 45.7135,308.315 47.2135,301.315 49.5,294.5 Z"/></g>
<g><path style="opacity:1" fill="#fbfbfb" d="M 192.5,341.5 C 182.355,373.485 168.522,404.151 151,433.5C 142.151,447.009 131.984,459.509 120.5,471C 97.637,489.189 75.9704,508.856 55.5,530C 49.3379,534.918 42.6713,539.084 35.5,542.5C 38.0342,528.058 42.5342,514.058 49,500.5C 79.6968,469.471 110.03,438.137 140,406.5C 158.471,385.538 175.971,363.871 192.5,341.5 Z"/></g>
<g><path style="opacity:1" fill="#5a5a5a" d="M 78.5,416.5 C 79.1667,423.833 79.8333,431.167 80.5,438.5C 80.2172,439.289 79.7172,439.956 79,440.5C 78.5003,432.507 78.3336,424.507 78.5,416.5 Z"/></g>
</svg>
