<?xml version="1.0" encoding="UTF-8"?>
<!DOCTYPE svg PUBLIC "-//W3C//DTD SVG 1.1//EN" "http://www.w3.org/Graphics/SVG/1.1/DTD/svg11.dtd">
<svg xmlns="http://www.w3.org/2000/svg" version="1.1" width="242px" height="601px" style="shape-rendering:geometricPrecision; text-rendering:geometricPrecision; image-rendering:optimizeQuality; fill-rule:evenodd; clip-rule:evenodd" xmlns:xlink="http://www.w3.org/1999/xlink">
<g><path style="opacity:1" fill="#fefefe" d="M -0.5,-0.5 C 80.1667,-0.5 160.833,-0.5 241.5,-0.5C 241.5,199.833 241.5,400.167 241.5,600.5C 160.833,600.5 80.1667,600.5 -0.5,600.5C -0.5,400.167 -0.5,199.833 -0.5,-0.5 Z"/></g>
<g><path style="opacity:1" fill="#0d0d0d" d="M 54.5,224.5 C 52.3926,223.532 50.0593,223.198 47.5,223.5C 47.2627,224.791 47.596,225.791 48.5,226.5C 68.3003,300.756 98.967,370.09 140.5,434.5C 140.783,435.289 141.283,435.956 142,436.5C 142.5,428.507 142.666,420.507 142.5,412.5C 144.797,382.649 149.964,353.315 158,324.5C 160.992,308.884 163.658,293.217 166,277.5C 168,276.167 170,276.167 172,277.5C 178.115,287.291 181.448,297.957 182,309.5C 184.213,330.659 183.213,351.659 179,372.5C 177.864,376.243 176.53,379.91 175,383.5C 162.129,402.944 154.295,424.278 151.5,447.5C 151.515,449.634 152.015,451.634 153,453.5C 165.812,469.445 175.812,487.112 183,506.5C 190.792,530.461 198.459,554.461 206,578.5C 208.835,584.338 210.835,590.338 212,596.5C 210.186,597.76 208.353,597.76 206.5,596.5C 204,590.167 201.5,583.833 199,577.5C 190.984,551.795 182.651,526.128 174,500.5C 163.634,481.151 151.967,462.484 139,444.5C 100.961,385.088 70.9609,321.755 49,254.5C 43.3117,252.159 38.3117,248.826 34,244.5C 31.5987,239.768 30.932,234.768 32,229.5C 33.6946,226.305 36.1946,223.972 39.5,222.5C 39.8333,221.333 40.1667,220.167 40.5,219C 35.4109,180.573 36.9109,142.407 45,104.5C 52.1674,72.7094 67.6674,45.876 91.5,24C 93.5,22.6667 95.5,21.3333 97.5,20C 100.595,15.8153 103.928,11.8153 107.5,8C 117.419,1.74425 127.086,2.07758 136.5,9C 148.529,9.66921 160.196,12.0025 171.5,16C 177.365,18.8599 182.365,22.8599 186.5,28C 192.978,27.9902 198.145,30.4902 202,35.5C 203.289,40.9651 201.789,45.4651 197.5,49C 192.589,50.4924 187.589,50.8257 182.5,50C 179.08,48.2809 177.414,45.4476 177.5,41.5C 178.15,38.0356 179.483,34.8689 181.5,32C 175.737,25.1145 168.404,20.7812 159.5,19C 153.856,17.7794 148.189,17.1128 142.5,17C 148.363,23.8964 153.863,31.063 159,38.5C 163.391,42.6121 168.224,46.1121 173.5,49C 179.583,55.518 181.083,63.018 178,71.5C 173.225,76.3255 167.392,78.3255 160.5,77.5C 151.649,77.6663 143.816,74.9996 137,69.5C 135.837,62.9904 137.504,57.3238 142,52.5C 147.118,49.0284 152.285,45.6951 157.5,42.5C 150.45,34.1185 143.784,25.4518 137.5,16.5C 121.689,14.4918 107.689,18.6584 95.5,29C 81.6086,41.7197 70.6086,56.553 62.5,73.5C 76.273,70.7963 87.773,74.7963 97,85.5C 103.038,80.7685 109.871,79.2685 117.5,81C 122.62,83.06 127.62,85.3933 132.5,88C 142.26,95.7227 142.927,104.056 134.5,113C 131.13,115.078 127.463,115.911 123.5,115.5C 123.312,120.863 120.645,123.03 115.5,122C 113.783,120.441 111.783,119.608 109.5,119.5C 108.411,126.42 104.411,129.253 97.5,128C 95.9738,120.788 92.4738,114.621 87,109.5C 82.7641,101.036 84.7641,94.3695 93,89.5C 90.8848,84.3948 87.0514,80.8948 81.5,79C 74.0503,75.5575 66.8837,76.0575 60,80.5C 52.517,97.7645 48.1837,115.764 47,134.5C 50.0492,132.036 53.5492,130.536 57.5,130C 74.9176,127.271 90.5843,131.271 104.5,142C 109.105,146.715 113.105,151.882 116.5,157.5C 137.599,149.293 152.766,155.626 162,176.5C 164.87,188.115 165.203,199.782 163,211.5C 160.293,215.035 156.793,216.202 152.5,215C 147.729,211.862 143.229,208.362 139,204.5C 135.833,208.333 132.667,212.167 129.5,216C 126.819,214.887 124.153,213.387 121.5,211.5C 117.868,216.57 113.868,221.403 109.5,226C 105.122,229.487 100.955,229.32 97,225.5C 96.6667,219.5 96.3333,213.5 96,207.5C 90.2549,202.013 86.5883,195.346 85,187.5C 84.9111,169.253 94.0778,159.753 112.5,159C 104.783,145.303 93.1165,136.97 77.5,134C 66.0566,130.763 55.5566,132.597 46,139.5C 42.4583,166.211 42.7917,192.878 47,219.5C 52.2586,220.088 57.4253,221.255 62.5,223C 70.995,227.413 79.3283,232.08 87.5,237C 92.6493,236.737 97.816,236.237 103,235.5C 119.59,236.073 126.59,244.406 124,260.5C 121.993,263.336 119.826,266.003 117.5,268.5C 120.555,278.105 117.222,283.438 107.5,284.5C 103.756,284.252 100.089,283.585 96.5,282.5C 93.5527,282.93 91.2194,284.43 89.5,287C 80.7514,287.292 74.918,283.126 72,274.5C 69.0497,260.584 73.2164,249.418 84.5,241C 75.506,233.67 65.506,228.17 54.5,224.5 Z"/></g>
<g><path style="opacity:1" fill="#e2e2e2" d="M 115.5,7.5 C 120.248,7.27478 124.915,7.77478 129.5,9C 121.963,10.3042 114.63,11.9709 107.5,14C 109.776,11.2111 112.443,9.0444 115.5,7.5 Z"/></g>
<g><path style="opacity:1" fill="#f7f7f7" d="M 185.5,31.5 C 190.12,32.0942 194.287,33.7609 198,36.5C 199.293,40.5821 198.126,43.7487 194.5,46C 190.833,46.6667 187.167,46.6667 183.5,46C 181.604,44.1917 181.104,42.025 182,39.5C 183.993,37.1825 185.159,34.5158 185.5,31.5 Z"/></g>
<g><path style="opacity:1" fill="#f9f9f9" d="M 159.5,46.5 C 171.316,49.1286 176.483,56.462 175,68.5C 173.457,70.3783 171.624,71.8783 169.5,73C 163.833,73.6667 158.167,73.6667 152.5,73C 148.205,72.1022 144.372,70.2689 141,67.5C 139.98,63.2898 140.98,59.6232 144,56.5C 148.806,52.5193 153.973,49.186 159.5,46.5 Z"/></g>
<g><path style="opacity:1" fill="#f5f5f5" d="M 108.5,85.5 C 119.211,84.2617 128.044,87.9284 135,96.5C 137.926,105.979 134.426,110.979 124.5,111.5C 124.144,101.619 120.144,93.4528 112.5,87C 111.255,86.2086 109.922,85.7086 108.5,85.5 Z"/></g>
<g><path style="opacity:1" fill="#f7f7f7" d="M 100.5,88.5 C 103.649,88.2114 106.649,88.7114 109.5,90C 119.202,97.3568 122.202,106.69 118.5,118C 115.281,117.498 112.448,115.998 110,113.5C 107.27,107.707 104.27,102.04 101,96.5C 99.7876,93.7839 99.621,91.1172 100.5,88.5 Z"/></g>
<g><path style="opacity:1" fill="#f5f5f5" d="M 93.5,93.5 C 94.4959,93.4142 95.3292,93.7476 96,94.5C 98.7304,100.293 101.73,105.96 105,111.5C 105.667,114.833 105.667,118.167 105,121.5C 103.981,122.687 102.814,123.687 101.5,124.5C 100.611,121.721 99.4445,119.055 98,116.5C 94.6153,112.783 91.6153,108.783 89,104.5C 88.3333,102.833 88.3333,101.167 89,99.5C 90.332,97.34 91.832,95.34 93.5,93.5 Z"/></g>
<g><path style="opacity:1" fill="#f7f7f7" d="M 128.5,158.5 C 140.436,157.052 149.603,161.719 156,172.5C 157.725,175.674 159.058,179.007 160,182.5C 160.667,191.167 160.667,199.833 160,208.5C 159.626,209.416 159.126,210.25 158.5,211C 155.581,211.552 152.914,210.885 150.5,209C 147.963,206.128 145.13,203.628 142,201.5C 143.867,195.53 145.367,189.363 146.5,183C 146.778,174.559 143.778,167.559 137.5,162C 134.691,160.259 131.691,159.092 128.5,158.5 Z"/></g>
<g><path style="opacity:1" fill="#fafafa" d="M 120.5,161.5 C 136.815,162.416 143.981,171.083 142,187.5C 139.384,196.738 134.717,204.738 128,211.5C 122.699,207.2 117.699,202.534 113,197.5C 102.233,182.376 104.733,170.376 120.5,161.5 Z"/></g>
<g><path style="opacity:1" fill="#f8f8f8" d="M 103.5,163.5 C 105.527,163.338 107.527,163.505 109.5,164C 100.742,174.707 100.242,185.874 108,197.5C 111.18,201.345 114.347,205.178 117.5,209C 114.388,215.779 109.555,220.945 103,224.5C 102.228,224.355 101.561,224.022 101,223.5C 102.834,212.455 99.8345,203.122 92,195.5C 85.0272,180.917 88.8605,170.25 103.5,163.5 Z"/></g>
<g><path style="opacity:1" fill="#939393" d="M 54.5,224.5 C 51.9179,224.025 49.9179,224.692 48.5,226.5C 47.596,225.791 47.2627,224.791 47.5,223.5C 50.0593,223.198 52.3926,223.532 54.5,224.5 Z"/></g>
<g><path style="opacity:1" fill="#f1f1f1" d="M 39.5,226.5 C 40.4959,226.414 41.3292,226.748 42,227.5C 43.2651,233.727 44.7651,239.893 46.5,246C 46.1667,246.833 45.8333,247.667 45.5,248.5C 34.7865,243.318 32.7865,235.985 39.5,226.5 Z"/></g>
<g><path style="opacity:1" fill="#f3f3f3" d="M 96.5,239.5 C 107.025,237.486 115.192,240.82 121,249.5C 121.817,252.964 121.483,256.298 120,259.5C 119.586,259.957 119.086,260.291 118.5,260.5C 112.503,252.679 105.17,246.512 96.5,242C 95.4019,241.23 95.4019,240.397 96.5,239.5 Z"/></g>
<g><path style="opacity:1" fill="#f8f8f8" d="M 91.5,244.5 C 100.314,248.335 107.814,254.001 114,261.5C 113.283,265.468 113.45,269.468 114.5,273.5C 114.91,278.256 112.743,280.59 108,280.5C 103.392,279.945 98.8925,278.945 94.5,277.5C 90.5464,266.735 89.5464,255.735 91.5,244.5 Z"/></g>
<g><path style="opacity:1" fill="#f5f5f5" d="M 85.5,245.5 C 86.1667,251.167 86.8333,256.833 87.5,262.5C 87.5373,268.186 88.5373,273.686 90.5,279C 88.0451,284.485 84.5451,284.985 80,280.5C 71.4551,267.19 73.2885,255.523 85.5,245.5 Z"/></g>
<g><path style="opacity:1" fill="#545454" d="M 87.5,262.5 C 86.8333,256.833 86.1667,251.167 85.5,245.5C 85.7828,244.711 86.2828,244.044 87,243.5C 87.4995,249.825 87.6662,256.158 87.5,262.5 Z"/></g>
<g><path style="opacity:1" fill="#f7f7f7" d="M 170.5,290.5 C 173.713,297.014 175.547,304.014 176,311.5C 176.872,328.199 176.539,344.865 175,361.5C 173.798,367.309 172.131,372.976 170,378.5C 161.09,393.319 154.09,408.986 149,425.5C 148.27,412.765 148.937,400.099 151,387.5C 157.695,355.189 164.195,322.856 170.5,290.5 Z"/></g>
<g><path style="opacity:1" fill="#5a5a5a" d="M 142.5,412.5 C 142.666,420.507 142.5,428.507 142,436.5C 141.283,435.956 140.783,435.289 140.5,434.5C 141.167,427.167 141.833,419.833 142.5,412.5 Z"/></g>
</svg>
