<?xml version="1.0" encoding="UTF-8"?>
<!DOCTYPE svg PUBLIC "-//W3C//DTD SVG 1.1//EN" "http://www.w3.org/Graphics/SVG/1.1/DTD/svg11.dtd">
<svg xmlns="http://www.w3.org/2000/svg" version="1.1" width="199px" height="601px" style="shape-rendering:geometricPrecision; text-rendering:geometricPrecision; image-rendering:optimizeQuality; fill-rule:evenodd; clip-rule:evenodd" xmlns:xlink="http://www.w3.org/1999/xlink">
<g><path style="opacity:1" fill="#fefefe" d="M -0.5,-0.5 C 65.8333,-0.5 132.167,-0.5 198.5,-0.5C 198.5,199.833 198.5,400.167 198.5,600.5C 132.167,600.5 65.8333,600.5 -0.5,600.5C -0.5,400.167 -0.5,199.833 -0.5,-0.5 Z"/></g>
<g><path style="opacity:1" fill="#0f0f0f" d="M 33.5,85.5 C 31.1602,86.086 28.9935,87.086 27,88.5C 26.6012,88.2716 26.4346,87.9382 26.5,87.5C 32.1242,69.9156 40.6242,53.9156 52,39.5C 63.9108,28.5867 75.4108,17.4201 86.5,6C 95.8124,1.94098 104.479,2.94098 112.5,9C 124.529,9.66921 136.196,12.0025 147.5,16C 153.365,18.8599 158.365,22.8599 162.5,28C 167.258,27.9649 171.591,29.2982 175.5,32C 179.808,38.1892 179.141,43.8559 173.5,49C 168.589,50.4924 163.589,50.8257 158.5,50C 155.08,48.2809 153.414,45.4476 153.5,41.5C 154.15,38.0356 155.483,34.8689 157.5,32C 151.737,25.1145 144.404,20.7812 135.5,19C 129.856,17.7794 124.189,17.1128 118.5,17C 124.363,23.8964 129.863,31.063 135,38.5C 139.391,42.6121 144.224,46.1121 149.5,49C 155.059,54.4026 156.892,60.9026 155,68.5C 153.427,73.0709 150.26,75.9043 145.5,77C 133.435,79.4141 122.601,76.9141 113,69.5C 111.837,62.9904 113.504,57.3238 118,52.5C 123.118,49.0284 128.285,45.6951 133.5,42.5C 126.643,34.1434 119.976,25.6434 113.5,17C 97.6107,14.5201 83.6107,18.5201 71.5,29C 57.6086,41.7197 46.6086,56.553 38.5,73.5C 52.273,70.7963 63.773,74.7963 73,85.5C 79.038,80.7685 85.8713,79.2685 93.5,81C 98.6203,83.06 103.62,85.3933 108.5,88C 118.26,95.7227 118.927,104.056 110.5,113C 107.13,115.078 103.463,115.911 99.5,115.5C 99.3119,120.863 96.6452,123.03 91.5,122C 89.7834,120.441 87.7834,119.608 85.5,119.5C 84.2633,126.864 80.0967,129.53 73,127.5C 72.6667,125.5 72.3333,123.5 72,121.5C 69.3847,117.217 66.3847,113.217 63,109.5C 59.1416,100.788 61.3083,93.7876 69.5,88.5C 60.3284,77.0813 49.1618,74.4146 36,80.5C 35.2432,82.3146 34.4098,83.9812 33.5,85.5 Z"/></g>
<g><path style="opacity:1" fill="#e2e2e2" d="M 91.5,7.5 C 96.248,7.27478 100.915,7.77478 105.5,9C 97.9629,10.3042 90.6296,11.9709 83.5,14C 85.7761,11.2111 88.4427,9.0444 91.5,7.5 Z"/></g>
<g><path style="opacity:1" fill="#f7f7f7" d="M 161.5,31.5 C 166.12,32.0942 170.287,33.7609 174,36.5C 175.293,40.5821 174.126,43.7487 170.5,46C 166.833,46.6667 163.167,46.6667 159.5,46C 157.604,44.1917 157.104,42.025 158,39.5C 159.993,37.1825 161.159,34.5158 161.5,31.5 Z"/></g>
<g><path style="opacity:1" fill="#fafafa" d="M 135.5,46.5 C 147.316,49.1286 152.483,56.462 151,68.5C 149.457,70.3783 147.624,71.8783 145.5,73C 139.833,73.6667 134.167,73.6667 128.5,73C 124.195,72.0968 120.361,70.2635 117,67.5C 115.98,63.2898 116.98,59.6232 120,56.5C 124.806,52.5193 129.973,49.186 135.5,46.5 Z"/></g>
<g><path style="opacity:1" fill="#f5f5f5" d="M 84.5,85.5 C 95.2106,84.2617 104.044,87.9284 111,96.5C 113.926,105.979 110.426,110.979 100.5,111.5C 100.144,101.619 96.1437,93.4528 88.5,87C 87.255,86.2086 85.9217,85.7086 84.5,85.5 Z"/></g>
<g><path style="opacity:1" fill="#111115" d="M 32.5,87.5 C 30.8313,93.5166 29.1646,99.5166 27.5,105.5C 24.8653,103.661 23.5319,100.994 23.5,97.5C 24.038,95.8828 24.3713,94.2161 24.5,92.5C 26.6523,90.0152 29.3189,88.3485 32.5,87.5 Z"/></g>
<g><path style="opacity:1" fill="#f8f8f8" d="M 76.5,88.5 C 85.5715,89.0434 91.7382,93.7101 95,102.5C 97.1471,107.789 96.9805,112.956 94.5,118C 91.2813,117.498 88.4479,115.998 86,113.5C 83.2696,107.707 80.2696,102.04 77,96.5C 75.7876,93.7839 75.621,91.1172 76.5,88.5 Z"/></g>
<g><path style="opacity:1" fill="#626367" d="M 33.5,85.5 C 33.6716,86.4916 33.3382,87.1583 32.5,87.5C 29.3189,88.3485 26.6523,90.0152 24.5,92.5C 24.7959,90.597 25.4625,88.9303 26.5,87.5C 26.4346,87.9382 26.6012,88.2716 27,88.5C 28.9935,87.086 31.1602,86.086 33.5,85.5 Z"/></g>
<g><path style="opacity:1" fill="#f5f5f5" d="M 69.5,93.5 C 70.4959,93.4142 71.3292,93.7476 72,94.5C 74.7304,100.293 77.7304,105.96 81,111.5C 81.6667,114.833 81.6667,118.167 81,121.5C 79.9805,122.687 78.8139,123.687 77.5,124.5C 76.6112,121.721 75.4445,119.055 74,116.5C 70.6153,112.783 67.6153,108.783 65,104.5C 64.3333,102.833 64.3333,101.167 65,99.5C 66.332,97.34 67.832,95.34 69.5,93.5 Z"/></g>
<g><path style="opacity:1" fill="#0e0e0e" d="M 21.5,102.5 C 23.7964,103.733 25.1298,105.733 25.5,108.5C 24.3371,117.119 23.5038,125.786 23,134.5C 26.0492,132.036 29.5492,130.536 33.5,130C 50.9176,127.271 66.5843,131.271 80.5,142C 85.1047,146.715 89.1047,151.882 92.5,157.5C 111.951,149.597 126.785,154.93 137,173.5C 140.403,185.253 141.403,197.253 140,209.5C 137.647,214.426 133.814,216.26 128.5,215C 123.729,211.862 119.229,208.362 115,204.5C 111.833,208.333 108.667,212.167 105.5,216C 102.819,214.887 100.153,213.387 97.5,211.5C 93.8684,216.57 89.8684,221.403 85.5,226C 81.122,229.487 76.9553,229.32 73,225.5C 72.6667,219.5 72.3333,213.5 72,207.5C 67.8439,202.678 64.5106,197.345 62,191.5C 58.9655,171.187 67.7989,160.354 88.5,159C 82.9895,148.491 74.6561,141.158 63.5,137C 52.3547,132.228 41.0214,131.561 29.5,135C 26.7513,136.123 24.2513,137.623 22,139.5C 18.4583,166.211 18.7917,192.878 23,219.5C 28.2586,220.088 33.4253,221.255 38.5,223C 46.995,227.413 55.3283,232.08 63.5,237C 68.6493,236.737 73.816,236.237 79,235.5C 95.5901,236.073 102.59,244.406 100,260.5C 97.9926,263.336 95.8259,266.003 93.5,268.5C 96.555,278.105 93.2217,283.438 83.5,284.5C 79.7559,284.252 76.0892,283.585 72.5,282.5C 69.5527,282.93 67.2194,284.43 65.5,287C 56.7514,287.292 50.918,283.126 48,274.5C 45.0497,260.584 49.2164,249.418 60.5,241C 51.506,233.67 41.506,228.17 30.5,224.5C 28.3926,223.532 26.0593,223.198 23.5,223.5C 23.2627,224.791 23.596,225.791 24.5,226.5C 49.0766,316.31 88.5766,398.643 143,473.5C 147.255,481.009 151.255,488.676 155,496.5C 165.881,529.263 177.048,561.93 188.5,594.5C 188.426,596.739 187.259,597.739 185,597.5C 182.786,597.089 181.453,595.755 181,593.5C 171.527,565.924 162.527,538.258 154,510.5C 151.176,502.857 147.842,495.524 144,488.5C 128.125,464.447 112.459,440.114 97,415.5C 67.3101,364.448 43.3101,310.781 25,254.5C 20.5847,252.377 16.418,249.877 12.5,247C 7.79809,242.078 6.29809,236.245 8,229.5C 9.69456,226.305 12.1946,223.972 15.5,222.5C 15.8333,221.333 16.1667,220.167 16.5,219C 11.277,179.841 12.9437,141.008 21.5,102.5 Z"/></g>
<g><path style="opacity:1" fill="#5a5a5e" d="M 23.5,97.5 C 23.5319,100.994 24.8653,103.661 27.5,105.5C 27.0679,106.71 26.4013,107.71 25.5,108.5C 25.1298,105.733 23.7964,103.733 21.5,102.5C 22.0241,100.694 22.6908,99.0276 23.5,97.5 Z"/></g>
<g><path style="opacity:1" fill="#f6f6f6" d="M 104.5,158.5 C 116.436,157.052 125.603,161.719 132,172.5C 133.725,175.674 135.058,179.007 136,182.5C 136.667,191.167 136.667,199.833 136,208.5C 135.626,209.416 135.126,210.25 134.5,211C 131.581,211.552 128.914,210.885 126.5,209C 123.744,205.573 120.41,202.907 116.5,201C 125.179,187.139 124.179,174.139 113.5,162C 110.691,160.259 107.691,159.092 104.5,158.5 Z"/></g>
<g><path style="opacity:1" fill="#fafafa" d="M 96.5,161.5 C 112.815,162.416 119.981,171.083 118,187.5C 115.384,196.738 110.717,204.738 104,211.5C 98.6988,207.2 93.6988,202.534 89,197.5C 78.2327,182.376 80.7327,170.376 96.5,161.5 Z"/></g>
<g><path style="opacity:1" fill="#f8f8f8" d="M 79.5,163.5 C 81.5273,163.338 83.5273,163.505 85.5,164C 76.7419,174.707 76.2419,185.874 84,197.5C 87.1802,201.345 90.3469,205.178 93.5,209C 90.3881,215.779 85.5548,220.945 79,224.5C 78.228,224.355 77.5613,224.022 77,223.5C 78.8345,212.455 75.8345,203.122 68,195.5C 61.0272,180.917 64.8605,170.25 79.5,163.5 Z"/></g>
<g><path style="opacity:1" fill="#939393" d="M 30.5,224.5 C 27.9179,224.025 25.9179,224.692 24.5,226.5C 23.596,225.791 23.2627,224.791 23.5,223.5C 26.0593,223.198 28.3926,223.532 30.5,224.5 Z"/></g>
<g><path style="opacity:1" fill="#f2f2f2" d="M 15.5,226.5 C 16.4959,226.414 17.3292,226.748 18,227.5C 19.2632,233.719 20.7632,239.886 22.5,246C 22.1667,246.833 21.8333,247.667 21.5,248.5C 10.7865,243.318 8.78653,235.985 15.5,226.5 Z"/></g>
<g><path style="opacity:1" fill="#f3f3f3" d="M 72.5,239.5 C 83.025,237.486 91.1916,240.82 97,249.5C 97.8166,252.964 97.4833,256.298 96,259.5C 95.586,259.957 95.086,260.291 94.5,260.5C 88.5029,252.679 81.1695,246.512 72.5,242C 71.4019,241.23 71.4019,240.397 72.5,239.5 Z"/></g>
<g><path style="opacity:1" fill="#f8f8f8" d="M 67.5,244.5 C 76.3142,248.335 83.8142,254.001 90,261.5C 89.283,265.468 89.4497,269.468 90.5,273.5C 90.9097,278.256 88.7431,280.59 84,280.5C 79.3925,279.945 74.8925,278.945 70.5,277.5C 66.5464,266.735 65.5464,255.735 67.5,244.5 Z"/></g>
<g><path style="opacity:1" fill="#f5f5f5" d="M 61.5,245.5 C 62.1667,251.167 62.8333,256.833 63.5,262.5C 63.5373,268.186 64.5373,273.686 66.5,279C 64.0451,284.485 60.5451,284.985 56,280.5C 47.4551,267.19 49.2885,255.523 61.5,245.5 Z"/></g>
<g><path style="opacity:1" fill="#545454" d="M 63.5,262.5 C 62.8333,256.833 62.1667,251.167 61.5,245.5C 61.7828,244.711 62.2828,244.044 63,243.5C 63.4995,249.825 63.6662,256.158 63.5,262.5 Z"/></g>
</svg>
