<?xml version="1.0" encoding="UTF-8"?>
<!DOCTYPE svg PUBLIC "-//W3C//DTD SVG 1.1//EN" "http://www.w3.org/Graphics/SVG/1.1/DTD/svg11.dtd">
<svg xmlns="http://www.w3.org/2000/svg" version="1.1" width="687px" height="1699px" style="shape-rendering:geometricPrecision; text-rendering:geometricPrecision; image-rendering:optimizeQuality; fill-rule:evenodd; clip-rule:evenodd" xmlns:xlink="http://www.w3.org/1999/xlink">
<g><path style="opacity:1" fill="#fefefe" d="M -0.5,-0.5 C 228.5,-0.5 457.5,-0.5 686.5,-0.5C 686.5,565.833 686.5,1132.17 686.5,1698.5C 457.5,1698.5 228.5,1698.5 -0.5,1698.5C -0.5,1132.17 -0.5,565.833 -0.5,-0.5 Z"/></g>
<g><path style="opacity:1" fill="#070707" d="M 220.5,412.5 C 205.744,431.755 187.744,447.255 166.5,459C 158.459,461.063 152.959,458.23 150,450.5C 148.105,440.127 146.105,429.794 144,419.5C 137.445,426.857 129.612,432.357 120.5,436C 106.022,438.855 100.189,433.022 103,418.5C 108.43,405.8 115.264,393.966 123.5,383C 109.116,387.902 94.4494,392.235 79.5,396C 72.1667,396.667 64.8333,396.667 57.5,396C 47.4985,394.312 39.9985,389.145 35,380.5C 31.8408,372.812 33.3408,366.312 39.5,361C 51.5707,355.579 62.5707,348.579 72.5,340C 53.5144,340.004 35.1811,336.671 17.5,330C 12.9489,325.159 12.4489,319.993 16,314.5C 20.6384,310.54 25.805,307.373 31.5,305C 24.0955,299.419 22.5955,292.585 27,284.5C 40.5613,273.305 54.3947,262.471 68.5,252C 54.9354,246.885 41.602,241.218 28.5,235C 22.3483,229.878 20.1817,223.378 22,215.5C 24.0306,207.473 28.8639,201.973 36.5,199C 48.9992,199.1 61.4992,199.6 74,200.5C 77.5,200.167 81,199.833 84.5,199.5C 78.8076,192.308 73.3076,184.975 68,177.5C 61.4119,166.904 63.9119,159.404 75.5,155C 86.2078,154.646 96.8745,153.813 107.5,152.5C 103.849,148.348 100.016,144.348 96,140.5C 76.2692,115.976 81.9358,101.976 113,98.5C 119.248,98.3599 125.081,99.8599 130.5,103C 137.867,103.273 145.2,103.773 152.5,104.5C 149.547,94.3625 148.047,84.0292 148,73.5C 149.593,65.9201 153.926,60.9201 161,58.5C 165.363,59.3991 169.529,60.8991 173.5,63C 179.678,67.8473 185.844,72.6806 192,77.5C 196.605,69.1886 203.105,67.3552 211.5,72C 220.333,80.8333 229.167,89.6667 238,98.5C 238.981,84.995 240.981,71.6617 244,58.5C 247.717,52.4124 253.217,49.7457 260.5,50.5C 262.858,42.787 266.025,35.4536 270,28.5C 277.859,21.4782 285.192,22.1448 292,30.5C 298.536,39.0712 304.703,47.9046 310.5,57C 311.167,57.6667 311.833,57.6667 312.5,57C 315.921,51.1317 320.921,48.1317 327.5,48C 332.7,52.8915 336.534,58.7248 339,65.5C 345.887,53.9477 353.554,42.9477 362,32.5C 375.477,22.6183 386.144,24.9517 394,39.5C 394.088,45.6098 394.755,51.6098 396,57.5C 402.569,50.261 409.735,43.761 417.5,38C 424.704,34.8504 430.538,36.3504 435,42.5C 436.795,46.0516 438.295,49.7183 439.5,53.5C 449.995,46.0553 459.495,47.0553 468,56.5C 471.886,67.8124 474.053,79.4791 474.5,91.5C 482.772,88.5758 491.105,85.7425 499.5,83C 517.273,80.0233 526.94,87.3567 528.5,105C 527.03,115.913 524.03,126.413 519.5,136.5C 520.333,136.833 521.167,137.167 522,137.5C 532.144,135.337 542.311,133.337 552.5,131.5C 563.76,132.001 567.593,137.667 564,148.5C 559.126,156.877 553.293,164.544 546.5,171.5C 547.167,171.833 547.833,172.167 548.5,172.5C 567.712,165.288 573.879,171.288 567,190.5C 564.322,195.188 561.156,199.521 557.5,203.5C 570.123,214.285 582.623,225.285 595,236.5C 607.875,253.237 604.041,263.737 583.5,268C 579.5,268.667 575.5,268.667 571.5,268C 561,266.366 550.667,264.366 540.5,262C 550.138,266.657 560.138,270.324 570.5,273C 584.979,277.83 596.146,286.663 604,299.5C 606.556,305.563 605.722,311.063 601.5,316C 591.418,321.188 580.751,323.188 569.5,322C 562.141,320.772 554.808,319.772 547.5,319C 566.824,337.956 573.324,360.456 567,386.5C 563.395,390.721 558.895,393.554 553.5,395C 545.123,395.212 536.79,394.879 528.5,394C 538.687,421.826 529.02,433.492 499.5,429C 477.771,423.97 460.104,412.637 446.5,395C 443.443,394.744 440.443,394.244 437.5,393.5C 436.667,408.822 436.167,424.156 436,439.5C 434.837,451.322 431.837,462.655 427,473.5C 420.437,484.7 410.937,488.534 398.5,485C 393.902,482.73 389.569,480.063 385.5,477C 375.266,467.436 365.766,457.269 357,446.5C 355.243,448.408 353.743,450.408 352.5,452.5C 359.756,475.855 365.922,499.522 371,523.5C 376.785,556.877 382.785,590.21 389,623.5C 392.53,614.268 397.696,606.102 404.5,599C 417.161,591.33 429.494,591.997 441.5,601C 452.297,612.452 462.297,624.452 471.5,637C 469.277,642.63 466.277,642.963 462.5,638C 449.803,633.571 436.803,631.238 423.5,631C 411.204,635.299 400.871,642.299 392.5,652C 396.711,682.071 400.211,712.237 403,742.5C 407.193,789.839 411.193,837.172 415,884.5C 415.784,894.528 415.618,904.528 414.5,914.5C 416.695,936.794 417.028,959.127 415.5,981.5C 415.774,994.462 417.107,1007.3 419.5,1020C 417.786,1063.84 415.952,1107.67 414,1151.5C 412.669,1160.82 411.502,1170.15 410.5,1179.5C 411.032,1194.83 410.532,1210.16 409,1225.5C 403.912,1258.7 399.912,1292.03 397,1325.5C 394.874,1336.21 392.541,1346.88 390,1357.5C 384.439,1395.97 378.106,1434.3 371,1472.5C 368.667,1480.17 366.333,1487.83 364,1495.5C 362.582,1507.6 360.582,1519.6 358,1531.5C 356.259,1536.64 354.259,1541.64 352,1546.5C 345.537,1578.94 338.537,1611.27 331,1643.5C 327.277,1653.94 323.277,1664.28 319,1674.5C 316.46,1675.88 314.46,1675.21 313,1672.5C 311.543,1669.63 311.21,1666.63 312,1663.5C 314.573,1659.46 316.573,1655.12 318,1650.5C 319.431,1635.57 323.097,1621.24 329,1607.5C 334.585,1581.58 339.918,1555.58 345,1529.5C 346.543,1522.87 348.877,1516.54 352,1510.5C 356.943,1475.56 363.276,1440.9 371,1406.5C 376.313,1377.6 380.979,1348.6 385,1319.5C 391,1267.5 397,1215.5 403,1163.5C 405.765,1116.38 407.265,1069.21 407.5,1022C 407.141,1002.29 406.141,982.628 404.5,963C 404.658,958.818 404.991,954.652 405.5,950.5C 400.484,930.271 392.65,911.271 382,893.5C 378.088,888.917 373.588,885.083 368.5,882C 365.833,881.333 363.167,881.333 360.5,882C 354.772,886.614 348.272,889.448 341,890.5C 339.5,890.333 338,890.167 336.5,890C 334.317,887.65 331.984,885.483 329.5,883.5C 325.162,895.004 320.329,906.337 315,917.5C 301.511,938.32 282.345,946.82 257.5,943C 251.229,942.475 245.396,940.642 240,937.5C 240.4,924.536 240.567,911.536 240.5,898.5C 237.685,898.892 235.185,899.892 233,901.5C 230.624,901.457 229.124,900.291 228.5,898C 229.517,891.599 230.85,885.265 232.5,879C 226.451,864.4 230.784,853.733 245.5,847C 250.769,845.894 256.103,845.227 261.5,845C 267.567,844.555 272.067,841.722 275,836.5C 275.57,831.057 273.07,827.89 267.5,827C 263.833,826.333 260.167,826.333 256.5,827C 243.99,830.488 232.323,835.488 221.5,842C 217.803,843.154 215.803,841.821 215.5,838C 216.579,833.797 217.412,829.63 218,825.5C 204.091,819.925 192.091,811.592 182,800.5C 177.014,792.02 172.18,783.52 167.5,775C 168.687,770.245 171.187,769.411 175,772.5C 178.351,778.438 183.518,781.771 190.5,782.5C 192.299,782.423 193.966,781.923 195.5,781C 189.096,774.026 184.929,765.859 183,756.5C 182.333,746.5 182.333,736.5 183,726.5C 187.622,724.597 190.456,726.097 191.5,731C 199.12,733.618 203.954,731.118 206,723.5C 209.866,718.456 214.699,714.789 220.5,712.5C 225.296,714.634 230.296,716.134 235.5,717C 245.623,723.456 254.123,731.623 261,741.5C 262.415,737.984 264.749,735.317 268,733.5C 275.386,735.882 281.386,740.215 286,746.5C 292.047,759.3 297.714,772.3 303,785.5C 312.096,794.901 316.43,793.234 316,780.5C 312.903,777.911 310.403,774.911 308.5,771.5C 309.856,769.073 311.356,766.739 313,764.5C 313.333,759.167 313.667,753.833 314,748.5C 314.881,743.072 317.548,738.739 322,735.5C 322.803,732.756 323.803,730.089 325,727.5C 326.419,728.46 327.919,729.293 329.5,730C 333.395,734.806 337.728,739.14 342.5,743C 345.648,744.605 348.981,745.605 352.5,746C 355.402,748.24 357.569,751.073 359,754.5C 360.502,759.178 362.002,763.845 363.5,768.5C 365.839,767.276 368.172,767.276 370.5,768.5C 376.352,779.801 377.019,791.468 372.5,803.5C 376.085,808.499 378.418,813.999 379.5,820C 376.946,833.157 374.779,846.323 373,859.5C 377.77,873.195 384.77,885.528 394,896.5C 397.779,903.172 400.779,910.172 403,917.5C 402.257,901.193 401.591,884.86 401,868.5C 398.959,853.543 397.292,838.543 396,823.5C 395.999,799.453 394.999,775.453 393,751.5C 388.471,703.662 382.638,655.996 375.5,608.5C 374.127,608.657 372.793,608.49 371.5,608C 354.833,595.667 338.167,583.333 321.5,571C 313.641,564.294 308.974,555.794 307.5,545.5C 308.19,542.453 310.024,540.453 313,539.5C 337.684,543.885 356.684,556.552 370,577.5C 363.74,537.124 355.573,497.124 345.5,457.5C 339.463,457.998 333.797,456.498 328.5,453C 324.272,449.726 320.272,446.226 316.5,442.5C 296.021,466.814 275.354,490.98 254.5,515C 243.98,522.838 236.48,520.671 232,508.5C 231.333,504.167 231.333,499.833 232,495.5C 233.549,489.871 234.549,484.204 235,478.5C 227.349,484.575 218.849,488.908 209.5,491.5C 203.266,491.101 199.766,487.767 199,481.5C 196.629,463.656 199.963,446.989 209,431.5C 212.856,425.111 216.689,418.778 220.5,412.5 Z"/></g>
<g><path style="opacity:1" fill="#f9f9f9" d="M 277.5,31.5 C 281.853,32.3186 285.353,34.652 288,38.5C 294,47.1667 300,55.8333 306,64.5C 306.667,65.8333 306.667,67.1667 306,68.5C 303.412,72.674 301.079,77.0074 299,81.5C 290.874,70.7093 280.874,62.0426 269,55.5C 269.938,46.853 272.772,38.853 277.5,31.5 Z"/></g>
<g><path style="opacity:1" fill="#f8f8f8" d="M 373.5,34.5 C 379.347,33.8399 383.513,36.1733 386,41.5C 387.368,50.1302 387.702,58.7968 387,67.5C 386.022,69.4751 384.689,71.1418 383,72.5C 372.486,64.6865 363.486,66.0199 356,76.5C 352.081,82.6697 348.414,89.0031 345,95.5C 341.716,87.4854 341.716,79.4854 345,71.5C 352.543,57.4821 362.043,45.1488 373.5,34.5 Z"/></g>
<g><path style="opacity:1" fill="#f6f6f6" d="M 421.5,44.5 C 425.182,43.7253 427.682,45.0586 429,48.5C 430.546,52.5633 431.712,56.7299 432.5,61C 432.01,62.982 431.01,64.6487 429.5,66C 424.57,65.9554 419.903,66.9554 415.5,69C 405.958,79.5399 396.791,90.3733 388,101.5C 385.349,93.1455 386.016,85.1455 390,77.5C 398.991,65.0104 409.491,54.0104 421.5,44.5 Z"/></g>
<g><path style="opacity:1" fill="#f8f8f8" d="M 323.5,56.5 C 326.346,58.4747 328.513,61.1413 330,64.5C 333.538,72.1131 335.205,80.1131 335,88.5C 337.399,94.9646 338.899,101.631 339.5,108.5C 339.419,113.323 338.585,117.99 337,122.5C 334.667,118.5 332.333,114.5 330,110.5C 326.5,107 323,103.5 319.5,100C 318.167,99.3333 316.833,99.3333 315.5,100C 313.877,102.08 312.377,104.246 311,106.5C 308.328,101.678 305.495,97.0114 302.5,92.5C 308.486,79.8538 315.486,67.8538 323.5,56.5 Z"/></g>
<g><path style="opacity:1" fill="#f8f8f8" d="M 449.5,56.5 C 455.204,55.4361 459.371,57.4361 462,62.5C 464.604,73.3973 466.271,84.3973 467,95.5C 453.192,102.317 440.692,110.984 429.5,121.5C 429.167,120.5 428.833,119.5 428.5,118.5C 432.257,103.698 434.757,88.6981 436,73.5C 438.146,65.865 442.646,60.1983 449.5,56.5 Z"/></g>
<g><path style="opacity:1" fill="#f9f9f9" d="M 253.5,59.5 C 271.188,63.8589 284.855,73.8589 294.5,89.5C 288.524,91.9783 284.357,96.3117 282,102.5C 280.97,106.773 280.303,111.106 280,115.5C 273.833,106.667 266.333,99.1667 257.5,93C 254.232,91.8497 250.899,91.0164 247.5,90.5C 247.039,79.5815 249.039,69.2482 253.5,59.5 Z"/></g>
<g><path style="opacity:1" fill="#f9f9f9" d="M 160.5,66.5 C 171.527,71.6732 181.36,78.6732 190,87.5C 190.132,98.9515 188.965,110.285 186.5,121.5C 178.986,116.24 170.986,111.74 162.5,108C 161.874,107.25 161.374,106.416 161,105.5C 159.005,96.5234 157.172,87.5234 155.5,78.5C 156.073,74.0239 157.739,70.0239 160.5,66.5 Z"/></g>
<g><path style="opacity:1" fill="#f9f9f9" d="M 420.5,74.5 C 422.833,74.5 425.167,74.5 427.5,74.5C 425.842,93.7812 422.675,112.781 418,131.5C 408.667,144.833 399.333,158.167 390,171.5C 390.475,159.519 390.475,147.519 390,135.5C 388.961,129.97 387.794,124.47 386.5,119C 389.258,113.907 392.425,109.073 396,104.5C 404.001,94.3357 412.167,84.3357 420.5,74.5 Z"/></g>
<g><path style="opacity:1" fill="#f6f6f6" d="M 367.5,75.5 C 371.587,75.2935 375.087,76.6269 378,79.5C 378.348,88.3803 379.181,97.2136 380.5,106C 380.167,107.167 379.833,108.333 379.5,109.5C 368.42,102.151 360.92,104.817 357,117.5C 353.99,133.571 350.99,149.571 348,165.5C 339.375,132.021 345.875,102.021 367.5,75.5 Z"/></g>
<g><path style="opacity:1" fill="#f9f9f9" d="M 202.5,77.5 C 203.552,77.3505 204.552,77.5172 205.5,78C 218.38,90.3782 230.713,103.212 242.5,116.5C 239.167,117.015 235.834,116.515 232.5,115C 221.963,114.192 216.296,119.192 215.5,130C 215.873,136.247 217.206,142.247 219.5,148C 212.375,145.444 205.375,142.277 198.5,138.5C 197.828,135.103 196.995,131.77 196,128.5C 196.118,115.159 196.785,101.825 198,88.5C 198.414,84.3459 199.914,80.6793 202.5,77.5 Z"/></g>
<g><path style="opacity:1" fill="#fafafa" d="M 501.5,90.5 C 518.226,90.2342 524.059,98.2342 519,114.5C 515.611,124.277 511.944,133.944 508,143.5C 506.14,145.36 504.306,147.194 502.5,149C 486.173,151.886 471.006,157.719 457,166.5C 463.102,156.346 469.769,146.346 477,136.5C 479.588,132.326 481.921,127.993 484,123.5C 485.124,120.558 485.458,117.558 485,114.5C 482.91,109.496 480.577,104.829 478,100.5C 479.579,98.9588 481.413,97.7922 483.5,97C 489.706,95.0482 495.706,92.8815 501.5,90.5 Z"/></g>
<g><path style="opacity:1" fill="#f9f9f9" d="M 246.5,98.5 C 250.97,98.7827 254.97,100.283 258.5,103C 266.039,110.87 273.206,119.037 280,127.5C 285.265,138.795 289.431,150.462 292.5,162.5C 288.818,162.665 285.152,162.499 281.5,162C 274.516,150.342 266.016,139.842 256,130.5C 252.216,125.482 250.216,119.815 250,113.5C 248.667,111.5 247.333,109.5 246,107.5C 245.505,104.469 245.671,101.469 246.5,98.5 Z"/></g>
<g><path style="opacity:1" fill="#f7f7f7" d="M 294.5,98.5 C 297.422,100.594 299.922,103.261 302,106.5C 309.545,122.442 312.545,139.109 311,156.5C 306.898,163.118 302.898,163.118 299,156.5C 295.057,145.004 291.723,133.337 289,121.5C 288.333,116.833 288.333,112.167 289,107.5C 289.843,103.8 291.676,100.8 294.5,98.5 Z"/></g>
<g><path style="opacity:1" fill="#fcfcfc" d="M 466.5,104.5 C 467.552,104.351 468.552,104.517 469.5,105C 472,108.167 474.5,111.333 477,114.5C 477.667,116.167 477.667,117.833 477,119.5C 467.08,136.346 456.413,152.679 445,168.5C 438.676,184.49 427.842,196.323 412.5,204C 405.167,206.667 397.833,209.333 390.5,212C 385.268,213.715 379.935,214.382 374.5,214C 388.973,186.871 405.807,161.371 425,137.5C 437.005,123.973 450.838,112.973 466.5,104.5 Z"/></g>
<g><path style="opacity:1" fill="#f9f9f9" d="M 105.5,106.5 C 110.511,106.334 115.511,106.501 120.5,107C 122.167,107.833 123.833,108.667 125.5,109.5C 128.413,123.66 134.746,135.994 144.5,146.5C 139.26,146.574 133.926,146.741 128.5,147C 125.421,148.248 122.754,150.081 120.5,152.5C 113.514,146.015 106.681,139.348 100,132.5C 97.3977,128.294 95.0643,123.961 93,119.5C 91.9432,115.114 93.4432,111.947 97.5,110C 100.309,108.907 102.976,107.74 105.5,106.5 Z"/></g>
<g><path style="opacity:1" fill="#f9f9f9" d="M 135.5,111.5 C 144.227,110.879 152.56,112.379 160.5,116C 169.661,120.746 178.661,125.746 187.5,131C 189.155,132.444 189.822,134.278 189.5,136.5C 186.315,136.02 183.481,136.686 181,138.5C 180.044,145.163 180.544,151.663 182.5,158C 175.15,156.445 167.817,154.445 160.5,152C 158.04,150.542 155.873,148.709 154,146.5C 149.667,140.5 145.333,134.5 141,128.5C 137.453,123.36 135.62,117.693 135.5,111.5 Z"/></g>
<g><path style="opacity:1" fill="#f6f6f6" d="M 318.5,110.5 C 324.985,117.518 330.152,125.518 334,134.5C 336.331,146.145 338.665,157.811 341,169.5C 341.667,172.167 341.667,174.833 341,177.5C 335.788,169.282 329.455,161.948 322,155.5C 319.788,143.066 317.622,130.566 315.5,118C 316.093,115.317 317.093,112.817 318.5,110.5 Z"/></g>
<g><path style="opacity:1" fill="#f9f9f9" d="M 367.5,113.5 C 371.266,113.715 374.6,115.049 377.5,117.5C 381.654,128.093 383.321,139.093 382.5,150.5C 382.634,159.069 381.967,167.569 380.5,176C 381.939,183.419 380.439,190.252 376,196.5C 366.696,212.095 355.696,226.428 343,239.5C 345.251,222.261 347.585,204.928 350,187.5C 350.589,184.103 351.922,181.103 354,178.5C 357.549,159.873 360.882,141.207 364,122.5C 364.881,119.353 366.047,116.353 367.5,113.5 Z"/></g>
<g><path style="opacity:1" fill="#fafafa" d="M 226.5,122.5 C 232.618,122.946 238.285,124.779 243.5,128C 249.595,136.099 256.428,143.599 264,150.5C 266.5,154.333 269,158.167 271.5,162C 263.881,162.393 257.714,165.559 253,171.5C 250.833,175.167 248.667,178.833 246.5,182.5C 233.932,167.362 226.266,150.029 223.5,130.5C 223.55,127.459 224.55,124.792 226.5,122.5 Z"/></g>
<g><path style="opacity:1" fill="#f7f7f7" d="M 549.5,139.5 C 557.857,138.379 559.69,141.379 555,148.5C 547.754,157.803 539.921,166.637 531.5,175C 526.206,177.53 520.706,179.363 515,180.5C 517.303,173.734 519.137,166.734 520.5,159.5C 520.41,154.91 518.41,151.41 514.5,149C 514.833,148.5 515.167,148 515.5,147.5C 526.922,144.686 538.255,142.02 549.5,139.5 Z"/></g>
<g><path style="opacity:1" fill="#fafafa" d="M 188.5,144.5 C 201.158,148.412 212.991,154.079 224,161.5C 229.54,172.361 235.873,182.695 243,192.5C 242.811,198.805 242.645,205.138 242.5,211.5C 241.448,211.649 240.448,211.483 239.5,211C 237.129,208.294 234.463,205.961 231.5,204C 220,191.833 208.5,179.667 197,167.5C 190.801,161.099 187.968,153.432 188.5,144.5 Z"/></g>
<g><path style="opacity:1" fill="#fbfbfb" d="M 241.5,221.5 C 235.355,222.49 229.022,222.823 222.5,222.5C 213.64,221.285 204.974,219.118 196.5,216C 182.469,209.317 168.469,202.651 154.5,196C 144.147,187.32 135.647,177.153 129,165.5C 127.876,162.558 127.542,159.558 128,156.5C 128.5,156 129,155.5 129.5,155C 131.5,154.833 133.5,154.667 135.5,154.5C 152.287,158.224 168.954,162.39 185.5,167C 200.472,182.64 215.472,198.307 230.5,214C 234.233,216.523 237.899,219.023 241.5,221.5 Z"/></g>
<g><path style="opacity:1" fill="#fafafa" d="M 503.5,156.5 C 506.249,156.274 508.916,156.607 511.5,157.5C 512.326,161.574 511.826,165.574 510,169.5C 507.667,174.833 505.333,180.167 503,185.5C 496.812,190.69 490.979,196.19 485.5,202C 477.701,206.311 469.701,206.645 461.5,203C 451.958,201.4 442.958,202.9 434.5,207.5C 433.345,204.554 433.179,201.554 434,198.5C 439.46,194.24 443.46,188.906 446,182.5C 463.371,169.898 482.538,161.232 503.5,156.5 Z"/></g>
<g><path style="opacity:1" fill="#fbfbfb" d="M 107.5,160.5 C 111.437,160.207 115.27,160.54 119,161.5C 123.626,174.583 131.126,185.749 141.5,195C 126.66,195.758 111.827,196.591 97,197.5C 95.5,197.167 94,196.833 92.5,196.5C 86.4748,188.975 80.6415,181.309 75,173.5C 71.105,168.855 71.9383,165.355 77.5,163C 87.6867,162.575 97.6867,161.742 107.5,160.5 Z"/></g>
<g><path style="opacity:1" fill="#efefef" d="M 314.5,161.5 C 318.439,164.262 322.272,167.262 326,170.5C 330.721,176.221 335.054,182.221 339,188.5C 339.738,199.199 339.404,209.866 338,220.5C 336.196,204.423 331.196,189.423 323,175.5C 320.705,172.203 318.038,169.203 315,166.5C 314.506,164.866 314.34,163.199 314.5,161.5 Z"/></g>
<g><path style="opacity:1" fill="#f6f6f6" d="M 300.5,168.5 C 305.212,168.773 309.045,170.773 312,174.5C 318.775,182.717 323.442,192.051 326,202.5C 329.957,215.906 331.624,229.573 331,243.5C 329.807,245.605 328.14,247.272 326,248.5C 324.137,238.713 321.803,229.047 319,219.5C 312.398,207.961 306.065,196.295 300,184.5C 299.267,179.115 299.433,173.782 300.5,168.5 Z"/></g>
<g><path style="opacity:1" fill="#f3f3f3" d="M 266.5,170.5 C 268.857,170.337 271.19,170.503 273.5,171C 259.059,190.939 256.559,212.439 266,235.5C 270.055,244.44 274.221,253.273 278.5,262C 274.867,261.578 271.2,260.911 267.5,260C 249.271,235.985 245.438,209.818 256,181.5C 258.357,176.645 261.857,172.979 266.5,170.5 Z"/></g>
<g><path style="opacity:1" fill="#f3f3f3" d="M 286.5,170.5 C 288.167,170.5 289.833,170.5 291.5,170.5C 291.827,175.214 291.493,179.88 290.5,184.5C 282.398,187.536 278.731,193.369 279.5,202C 282.328,222.147 286.661,241.981 292.5,261.5C 292.048,263.312 290.882,264.312 289,264.5C 282.506,252.175 276.506,239.508 271,226.5C 263.568,204.004 268.735,185.338 286.5,170.5 Z"/></g>
<g><path style="opacity:1" fill="#f9f9f9" d="M 554.5,178.5 C 556.833,178.5 559.167,178.5 561.5,178.5C 561.561,182.049 560.727,185.382 559,188.5C 546.328,204.666 530.661,216.999 512,225.5C 502.058,221.946 492.558,217.446 483.5,212C 491.999,207.841 498.999,201.841 504.5,194C 508.007,191.746 511.673,189.746 515.5,188C 528.663,184.958 541.663,181.792 554.5,178.5 Z"/></g>
<g><path style="opacity:1" fill="#f2f2f2" d="M 291.5,192.5 C 292.822,192.33 293.989,192.663 295,193.5C 297.936,198.373 300.603,203.373 303,208.5C 303.199,224.003 304.365,239.503 306.5,255C 307.038,258.418 305.872,260.918 303,262.5C 301.739,262.241 300.739,261.574 300,260.5C 295.039,242.656 290.706,224.656 287,206.5C 285.452,200.706 286.952,196.04 291.5,192.5 Z"/></g>
<g><path style="opacity:1" fill="#f4f4f4" d="M 123.5,203.5 C 133.506,203.334 143.506,203.5 153.5,204C 169.658,212.745 186.324,220.412 203.5,227C 216.965,230.185 230.632,231.351 244.5,230.5C 245.512,234.515 246.512,238.515 247.5,242.5C 240.08,242.464 232.747,241.631 225.5,240C 197.4,229.48 168.4,222.98 138.5,220.5C 127.858,220.814 121.525,226.147 119.5,236.5C 110.069,232.238 101.902,226.238 95,218.5C 93.3674,216.547 92.2007,214.38 91.5,212C 92.0767,209.863 92.41,207.696 92.5,205.5C 103.006,205.145 113.339,204.478 123.5,203.5 Z"/></g>
<g><path style="opacity:1" fill="#fbfbfb" d="M 78.5,208.5 C 79.5676,209.434 80.901,209.768 82.5,209.5C 82.5,210.5 82.5,211.5 82.5,212.5C 82.7553,215.016 83.5886,217.35 85,219.5C 94.6651,230.673 106.165,239.34 119.5,245.5C 104.889,250.558 90.2221,250.725 75.5,246C 60.927,240.312 46.5937,234.145 32.5,227.5C 29.693,224.722 28.8596,221.389 30,217.5C 31.3957,213.208 33.8957,209.708 37.5,207C 51.1521,207.432 64.8187,207.932 78.5,208.5 Z"/></g>
<g><path style="opacity:1" fill="#f8f8f8" d="M 424.5,205.5 C 426.927,208.81 427.093,212.477 425,216.5C 417.1,225.069 408.6,232.903 399.5,240C 388.543,242.322 377.543,244.489 366.5,246.5C 361.034,246.318 355.7,245.484 350.5,244C 355.599,237.812 360.932,231.812 366.5,226C 372.796,223.041 379.463,221.374 386.5,221C 392.167,219.333 397.833,217.667 403.5,216C 411.119,213.524 418.119,210.024 424.5,205.5 Z"/></g>
<g><path style="opacity:1" fill="#8b8b8b" d="M 78.5,208.5 C 80.1667,208.5 81.8333,208.5 83.5,208.5C 83.7678,210.099 83.4345,211.432 82.5,212.5C 82.5,211.5 82.5,210.5 82.5,209.5C 80.901,209.768 79.5676,209.434 78.5,208.5 Z"/></g>
<g><path style="opacity:1" fill="#fafafa" d="M 519.5,251.5 C 517.265,251.795 515.265,251.461 513.5,250.5C 516.982,247.516 519.482,243.849 521,239.5C 521.725,236.623 521.225,233.957 519.5,231.5C 530.447,225.114 540.947,218.114 551,210.5C 562.61,219.106 573.944,228.106 585,237.5C 588.053,240.887 590.72,244.553 593,248.5C 594.643,253.428 593.143,256.928 588.5,259C 584.736,259.985 580.903,260.485 577,260.5C 563.422,258.938 550.089,256.271 537,252.5C 531.144,253.612 525.31,253.278 519.5,251.5 Z"/></g>
<g><path style="opacity:1" fill="#f8f8f8" d="M 448.5,210.5 C 456.674,210.202 464.674,211.202 472.5,213.5C 472.54,216.425 471.707,219.091 470,221.5C 466.419,225.752 462.252,229.252 457.5,232C 447.512,237.161 437.178,241.494 426.5,245C 420.437,246.032 414.77,245.032 409.5,242C 419.464,234.37 428.464,225.704 436.5,216C 440.284,213.471 444.284,211.638 448.5,210.5 Z"/></g>
<g><path style="opacity:1" fill="#fafafa" d="M 479.5,219.5 C 490.754,225.043 501.92,230.71 513,236.5C 513.667,237.5 513.667,238.5 513,239.5C 509.833,242.667 506.667,245.833 503.5,249C 489.812,253.73 476.145,258.563 462.5,263.5C 453.902,257.903 444.569,253.736 434.5,251C 449.092,246.291 462.258,239.124 474,229.5C 476.619,226.594 478.453,223.261 479.5,219.5 Z"/></g>
<g><path style="opacity:1" fill="#888888" d="M 241.5,221.5 C 242.043,221.56 242.376,221.893 242.5,222.5C 235.678,223.818 229.011,223.818 222.5,222.5C 229.022,222.823 235.355,222.49 241.5,221.5 Z"/></g>
<g><path style="opacity:1" fill="#fcfcfc" d="M 222.5,247.5 C 219.15,247.335 215.817,247.502 212.5,248C 207.574,250.353 205.74,254.186 207,259.5C 209.501,264.506 212.501,269.173 216,273.5C 216.749,274.635 216.583,275.635 215.5,276.5C 190.219,284.879 166.886,281.046 145.5,265C 137.045,257.218 131.045,247.885 127.5,237C 128.842,231.313 132.509,228.48 138.5,228.5C 151.921,229.713 165.254,231.547 178.5,234C 193.431,238.035 208.097,242.535 222.5,247.5 Z"/></g>
<g><path style="opacity:1" fill="#e0e0e0" d="M 311.5,224.5 C 313.749,228.456 315.249,232.789 316,237.5C 316.763,242.725 317.597,247.892 318.5,253C 317.421,253.956 316.255,254.789 315,255.5C 312.898,245.275 311.731,234.942 311.5,224.5 Z"/></g>
<g><path style="opacity:1" fill="#8f8f8f" d="M 222.5,247.5 C 226.387,247.646 230.054,248.313 233.5,249.5C 232.209,249.263 231.209,249.596 230.5,250.5C 227.748,249.488 225.081,248.488 222.5,247.5 Z"/></g>
<g><path style="opacity:1" fill="#fafafa" d="M 391.5,248.5 C 396.913,248.229 402.246,248.729 407.5,250C 422.309,254.936 436.975,260.27 451.5,266C 457.829,270.487 461.162,276.654 461.5,284.5C 452.642,285.305 443.809,286.305 435,287.5C 422.702,286.754 410.536,285.254 398.5,283C 392.318,272.482 384.985,262.815 376.5,254C 381.571,252.035 386.571,250.202 391.5,248.5 Z"/></g>
<g><path style="opacity:1" fill="#e8e8e8" d="M 230.5,250.5 C 231.209,249.596 232.209,249.263 233.5,249.5C 239.509,249.334 245.509,249.501 251.5,250C 253.248,253.499 255.248,256.832 257.5,260C 254.406,260.652 251.406,260.318 248.5,259C 242.599,255.882 236.599,253.049 230.5,250.5 Z"/></g>
<g><path style="opacity:1" fill="#fbfbfb" d="M 336.5,250.5 C 346.977,251.629 357.31,253.462 367.5,256C 377.818,266.324 386.151,277.99 392.5,291C 391.688,295.15 389.354,298.15 385.5,300C 379.151,303.742 372.484,304.409 365.5,302C 352.542,296.706 340.875,289.373 330.5,280C 327.628,277.463 325.128,274.63 323,271.5C 322.333,267.833 322.333,264.167 323,260.5C 327.479,257.024 331.979,253.69 336.5,250.5 Z"/></g>
<g><path style="opacity:1" fill="#737373" d="M 513.5,250.5 C 515.265,251.461 517.265,251.795 519.5,251.5C 517.034,252.634 514.367,252.801 511.5,252C 512.044,251.283 512.711,250.783 513.5,250.5 Z"/></g>
<g><path style="opacity:1" fill="#fafafa" d="M 123.5,252.5 C 124.496,252.414 125.329,252.748 126,253.5C 129.212,259.549 133.379,264.883 138.5,269.5C 121.726,279.502 103.726,282.335 84.5,278C 77.0044,275.67 72.0044,270.837 69.5,263.5C 71.4239,260.343 74.0906,257.843 77.5,256C 92.2335,258.311 106.9,257.644 121.5,254C 122.416,253.722 123.082,253.222 123.5,252.5 Z"/></g>
<g><path style="opacity:1" fill="#f8f8f8" d="M 215.5,255.5 C 220.034,255.267 224.368,256.1 228.5,258C 234.5,261 240.5,264 246.5,267C 253.469,268.665 260.469,268.999 267.5,268C 271.587,268.925 275.254,270.591 278.5,273C 277.233,275.936 275.233,278.269 272.5,280C 266.833,282.333 261.167,284.667 255.5,287C 248.525,286.275 241.525,285.275 234.5,284C 228.285,276.786 222.451,269.286 217,261.5C 215.872,259.655 215.372,257.655 215.5,255.5 Z"/></g>
<g><path style="opacity:1" fill="#fafafa" d="M 512.5,259.5 C 516.182,259.335 519.848,259.501 523.5,260C 535.109,267.706 541.776,278.539 543.5,292.5C 525.903,297.71 508.903,296.21 492.5,288C 484.926,286.287 477.426,284.454 470,282.5C 469.535,278.607 468.369,274.94 466.5,271.5C 481.184,264.663 496.517,260.663 512.5,259.5 Z"/></g>
<g><path style="opacity:1" fill="#fbfbfb" d="M 311.5,266.5 C 312.75,266.577 313.583,267.244 314,268.5C 320.024,287.577 327.024,306.243 335,324.5C 336.672,330.658 334.838,335.491 329.5,339C 320.932,344.62 311.599,346.62 301.5,345C 296.706,341.248 293.539,336.415 292,330.5C 291.754,320.126 292.421,309.792 294,299.5C 298,290.167 302,280.833 306,271.5C 307.812,269.7 309.645,268.033 311.5,266.5 Z"/></g>
<g><path style="opacity:1" fill="#f8f8f8" d="M 61.5,267.5 C 65.7041,275.533 72.0374,281.367 80.5,285C 87.1017,286.434 93.7683,287.434 100.5,288C 82.4038,298.064 63.0705,302.73 42.5,302C 39.0589,300.224 35.8922,298.057 33,295.5C 32.3653,293.365 32.6986,291.365 34,289.5C 43.3543,282.303 52.521,274.969 61.5,267.5 Z"/></g>
<g><path style="opacity:1" fill="#fafafa" d="M 294.5,270.5 C 295.675,270.281 296.675,270.614 297.5,271.5C 294.802,279.229 291.302,286.562 287,293.5C 273.905,309.266 260.071,324.432 245.5,339C 240.071,342.313 234.237,344.48 228,345.5C 217.468,343.663 213.468,337.663 216,327.5C 229.547,316.285 243.38,305.452 257.5,295C 265.036,292.047 272.369,288.713 279.5,285C 282.598,282.572 284.931,279.572 286.5,276C 289.07,273.913 291.737,272.08 294.5,270.5 Z"/></g>
<g><path style="opacity:1" fill="#f8f8f8" d="M 547.5,274.5 C 561.623,277.373 574.623,282.873 586.5,291C 603.573,306.839 600.24,314.672 576.5,314.5C 564.421,313.209 552.421,311.376 540.5,309C 536.056,307.611 531.723,305.944 527.5,304C 535.354,303.842 542.52,301.675 549,297.5C 550.022,295.298 550.522,292.965 550.5,290.5C 549.816,285.099 548.816,279.765 547.5,274.5 Z"/></g>
<g><path style="opacity:1" fill="#f7f7f7" d="M 143.5,275.5 C 150.871,278.347 158.205,281.513 165.5,285C 153.717,286.445 142.384,289.445 131.5,294C 127.701,296.797 124.201,299.964 121,303.5C 117.768,308.788 113.935,313.622 109.5,318C 102.585,314.117 96.4188,308.95 91,302.5C 90.4092,301.517 90.7425,300.85 92,300.5C 98.5,297.667 105,294.833 111.5,292C 113.213,290.622 114.547,288.955 115.5,287C 125.792,285.189 135.126,281.355 143.5,275.5 Z"/></g>
<g><path style="opacity:1" fill="#f8f8f8" d="M 218.5,283.5 C 220.604,283.201 222.604,283.534 224.5,284.5C 192.747,292.7 167.08,309.867 147.5,336C 138.984,338.438 130.317,339.438 121.5,339C 115.575,336.763 112.409,332.597 112,326.5C 118.792,320.714 124.459,314.048 129,306.5C 134.639,300.764 141.472,297.264 149.5,296C 172.714,292.244 195.714,288.077 218.5,283.5 Z"/></g>
<g><path style="opacity:1" fill="#fafafa" d="M 223.5,292.5 C 230.615,292.075 237.615,292.575 244.5,294C 233.787,303.048 222.787,311.714 211.5,320C 207.426,325.727 202.093,330.06 195.5,333C 183.694,343.794 174.194,356.294 167,370.5C 153.007,361.195 150.007,349.195 158,334.5C 175.94,314.289 197.774,300.289 223.5,292.5 Z"/></g>
<g><path style="opacity:1" fill="#fafafa" d="M 329.5,289.5 C 341.734,300.784 356.067,308.118 372.5,311.5C 373.53,317.419 374.864,323.252 376.5,329C 376.124,336.805 375.957,344.638 376,352.5C 371.874,358.97 366.041,361.137 358.5,359C 350.521,355.197 343.855,349.697 338.5,342.5C 342.033,337.366 343.533,331.7 343,325.5C 338.599,313.465 334.099,301.465 329.5,289.5 Z"/></g>
<g><path style="opacity:1" fill="#fbfbfb" d="M 400.5,292.5 C 411.611,293.211 422.611,294.711 433.5,297C 438.146,300.642 441.646,305.142 444,310.5C 445.063,316.022 446.73,321.356 449,326.5C 450.636,332.73 448.469,336.897 442.5,339C 433.167,339.667 423.833,339.667 414.5,339C 413.016,337.426 411.349,336.093 409.5,335C 401.998,332.054 394.665,328.721 387.5,325C 382.256,321.364 380.256,316.531 381.5,310.5C 391.148,307.848 397.482,301.848 400.5,292.5 Z"/></g>
<g><path style="opacity:1" fill="#fafafa" d="M 456.5,291.5 C 464.547,291.277 472.547,291.777 480.5,293C 491.754,296.711 502.254,301.877 512,308.5C 515.257,314.654 515.091,320.487 511.5,326C 492.796,328.606 474.462,326.939 456.5,321C 455.572,320.612 454.905,319.945 454.5,319C 453.431,315.557 452.598,312.057 452,308.5C 449.201,303.896 446.701,299.229 444.5,294.5C 448.614,293.49 452.614,292.49 456.5,291.5 Z"/></g>
<g><path style="opacity:1" fill="#f9f9f9" d="M 73.5,306.5 C 77.747,306.178 81.747,307.011 85.5,309C 90.9824,313.315 95.9824,318.149 100.5,323.5C 94.7367,326.479 88.7367,328.979 82.5,331C 62.3,332.971 42.6333,330.638 23.5,324C 20.9364,321.724 21.2697,319.724 24.5,318C 28.0066,315.746 31.6733,313.746 35.5,312C 45.5,311 55.5,310 65.5,309C 68.4568,308.721 71.1234,307.887 73.5,306.5 Z"/></g>
<g><path style="opacity:1" fill="#eaeaea" d="M 284.5,308.5 C 285.613,309.946 285.78,311.613 285,313.5C 280.944,320.888 276.111,327.722 270.5,334C 268.254,335.039 266.087,336.206 264,337.5C 259.333,344.833 254.667,352.167 250,359.5C 252.444,351.595 255.778,343.928 260,336.5C 268.003,326.999 276.17,317.666 284.5,308.5 Z"/></g>
<g><path style="opacity:1" fill="#fbfbfb" d="M 521.5,311.5 C 549.669,324.861 563.169,347.194 562,378.5C 558.51,384.998 553.01,387.998 545.5,387.5C 540.117,386.992 534.784,386.158 529.5,385C 516.686,380.898 504.352,375.731 492.5,369.5C 491.672,365.204 491.172,360.871 491,356.5C 487.799,349.437 484.632,342.437 481.5,335.5C 488.508,335.666 495.508,335.5 502.5,335C 519.41,335.597 525.744,327.764 521.5,311.5 Z"/></g>
<g><path style="opacity:1" fill="#fcfcfc" d="M 457.5,330.5 C 463.982,330.606 469.149,333.273 473,338.5C 476.603,344.707 479.936,351.04 483,357.5C 485.483,370.037 480.65,378.204 468.5,382C 458.009,386.845 447.343,387.512 436.5,384C 435.789,382.745 434.956,381.579 434,380.5C 430.817,369.285 426.651,358.452 421.5,348C 428.833,347.667 436.167,347.333 443.5,347C 452.651,345.346 457.318,339.846 457.5,330.5 Z"/></g>
<g><path style="opacity:1" fill="#fbfbfb" d="M 102.5,331.5 C 105.505,336.021 109.172,340.187 113.5,344C 117.741,346.07 122.241,347.237 127,347.5C 133.142,346.545 139.309,345.878 145.5,345.5C 146.85,350.258 146.684,354.924 145,359.5C 138.595,364.621 131.762,369.121 124.5,373C 106.839,380.83 88.5058,385.996 69.5,388.5C 58.9647,389.475 50.1314,386.142 43,378.5C 40.4595,373.903 41.2929,370.07 45.5,367C 61.4058,359.217 75.7391,349.217 88.5,337C 93.5815,335.95 98.2481,334.116 102.5,331.5 Z"/></g>
<g><path style="opacity:1" fill="#f9f9f9" d="M 314.5,353.5 C 316.369,355.635 317.036,358.302 316.5,361.5C 308.323,376.528 297.99,390.028 285.5,402C 281.167,402.667 276.833,402.667 272.5,402C 271.54,400.581 270.707,399.081 270,397.5C 268.965,378.079 271.298,359.079 277,340.5C 279.084,336.664 281.417,332.997 284,329.5C 286.418,347.424 296.585,355.424 314.5,353.5 Z"/></g>
<g><path style="opacity:1" fill="#fbfbfb" d="M 383.5,332.5 C 390.814,335.665 398.147,338.832 405.5,342C 409.7,344.567 412.867,348.067 415,352.5C 423.489,369.943 427.823,388.276 428,407.5C 420.13,412.948 412.296,412.781 404.5,407C 393.131,400.961 383.631,392.794 376,382.5C 373.378,377.967 371.545,373.134 370.5,368C 375.978,365.189 380.144,361.022 383,355.5C 383.935,353.091 384.435,350.591 384.5,348C 383.775,342.857 383.441,337.69 383.5,332.5 Z"/></g>
<g><path style="opacity:1" fill="#fafafa" d="M 205.5,335.5 C 213.525,353.454 226.359,357.787 244,348.5C 243.484,354.967 239.984,359.134 233.5,361C 220.204,374.613 204.537,384.613 186.5,391C 183.5,391.667 180.5,391.667 177.5,391C 175.477,387.768 173.977,384.268 173,380.5C 172.333,378.833 172.333,377.167 173,375.5C 178.273,366.563 183.94,357.897 190,349.5C 194.765,344.228 199.931,339.561 205.5,335.5 Z"/></g>
<g><path style="opacity:1" fill="#fcfcfc" d="M 329.5,347.5 C 330.552,347.351 331.552,347.517 332.5,348C 339.79,358.811 349.79,365.311 362.5,367.5C 364.432,374.036 365.765,380.703 366.5,387.5C 366.505,392.643 365.671,397.643 364,402.5C 358.668,414.999 353.835,427.665 349.5,440.5C 345.256,442.417 341.589,445.083 338.5,448.5C 329.228,445.062 322.728,438.729 319,429.5C 315.314,416.627 311.481,403.793 307.5,391C 313.349,381.823 319.182,372.656 325,363.5C 325.172,358.798 325.672,354.132 326.5,349.5C 327.739,349.058 328.739,348.391 329.5,347.5 Z"/></g>
<g><path style="opacity:1" fill="#fafafa" d="M 264.5,351.5 C 265.139,352.097 265.472,352.93 265.5,354C 261.993,368.992 260.827,384.159 262,399.5C 265.868,409.167 273.035,413.167 283.5,411.5C 275.325,425.179 264.158,435.512 250,442.5C 245.797,441.966 243.13,439.632 242,435.5C 240.595,425.329 239.095,415.162 237.5,405C 244.535,386.095 253.535,368.262 264.5,351.5 Z"/></g>
<g><path style="opacity:1" fill="#939393" d="M 314.5,353.5 C 315.209,352.596 316.209,352.263 317.5,352.5C 317.81,355.713 317.477,358.713 316.5,361.5C 317.036,358.302 316.369,355.635 314.5,353.5 Z"/></g>
<g><path style="opacity:1" fill="#fafafa" d="M 148.5,366.5 C 153.087,368.839 157.087,372.173 160.5,376.5C 154.363,393.943 144.363,408.776 130.5,421C 126.759,423.732 122.759,426.066 118.5,428C 111.333,430.167 108.833,427.667 111,420.5C 118.155,404.844 126.821,390.178 137,376.5C 141.026,373.302 144.859,369.968 148.5,366.5 Z"/></g>
<g><path style="opacity:1" fill="#fafafa" d="M 234.5,370.5 C 220.367,404.386 197.367,431.22 165.5,451C 162.364,452.041 159.864,451.207 158,448.5C 154.235,435.42 152.569,422.087 153,408.5C 157.962,400.909 162.129,392.909 165.5,384.5C 168.646,398.408 176.979,402.908 190.5,398C 207.319,392.1 221.986,382.933 234.5,370.5 Z"/></g>
<g><path style="opacity:1" fill="#fbfbfb" d="M 487.5,377.5 C 490.271,377.421 492.937,377.921 495.5,379C 502.79,383.561 510.29,387.728 518,391.5C 523.902,398.878 525.902,407.211 524,416.5C 522.891,418.815 521.057,420.315 518.5,421C 493.897,423.021 473.73,414.521 458,395.5C 457.544,394.256 458.044,393.423 459.5,393C 466.879,391.318 473.879,388.652 480.5,385C 483.739,383.264 486.073,380.764 487.5,377.5 Z"/></g>
<g><path style="opacity:1" fill="#fbfbfb" d="M 373.5,394.5 C 383.904,404.045 395.57,411.878 408.5,418C 415.189,418.609 421.856,418.443 428.5,417.5C 430.182,436.88 426.682,455.213 418,472.5C 413.207,478.098 407.374,479.598 400.5,477C 394.967,474.066 389.967,470.4 385.5,466C 377,456.833 368.5,447.667 360,438.5C 360.146,434.041 361.146,429.708 363,425.5C 368.236,415.708 371.736,405.375 373.5,394.5 Z"/></g>
<g><path style="opacity:1" fill="#cfcfcf" d="M 220.5,412.5 C 224.977,404.888 229.477,397.222 234,389.5C 233.914,392.702 232.914,395.702 231,398.5C 227.723,403.414 224.223,408.08 220.5,412.5 Z"/></g>
<g><path style="opacity:1" fill="#f9f9f9" d="M 300.5,398.5 C 301.117,398.611 301.617,398.944 302,399.5C 305.067,410.202 308.234,420.869 311.5,431.5C 308.909,434.466 305.909,436.966 302.5,439C 298.047,440.726 293.714,442.726 289.5,445C 281.539,448.641 275.872,446.474 272.5,438.5C 282.416,429.663 289.583,418.997 294,406.5C 296.415,403.986 298.581,401.319 300.5,398.5 Z"/></g>
<g><path style="opacity:1" fill="#f9f9f9" d="M 229.5,413.5 C 230.649,413.791 231.316,414.624 231.5,416C 232.708,423.827 233.874,431.66 235,439.5C 237.562,445.061 241.728,448.894 247.5,451C 243.726,455.88 240.726,461.213 238.5,467C 229.446,473.528 219.78,479.028 209.5,483.5C 208.353,483.182 207.519,482.516 207,481.5C 205.012,466.761 207.345,452.761 214,439.5C 218.938,430.613 224.104,421.946 229.5,413.5 Z"/></g>
<g><path style="opacity:1" fill="#f9f9f9" d="M 264.5,443.5 C 267.148,445.566 269.482,448.066 271.5,451C 280.637,455.796 289.637,455.296 298.5,449.5C 298.833,449.833 299.167,450.167 299.5,450.5C 282.726,470.777 265.392,490.611 247.5,510C 243.409,512.54 240.909,511.373 240,506.5C 239.581,498.674 240.581,491.007 243,483.5C 246.58,471.68 251.246,460.347 257,449.5C 259.688,447.636 262.188,445.636 264.5,443.5 Z"/></g>
<g><path style="opacity:1" fill="#f7f7f7" d="M 317.5,549.5 C 329.873,552.353 340.873,557.853 350.5,566C 355.454,572.076 360.287,578.243 365,584.5C 368.252,589.023 370.918,593.69 373,598.5C 355.431,586.267 338.431,573.267 322,559.5C 319.676,556.52 318.176,553.187 317.5,549.5 Z"/></g>
<g><path style="opacity:1" fill="#f8f8f8" d="M 415.5,601.5 C 426.504,601.333 435.671,605.333 443,613.5C 446.045,617.756 449.212,621.923 452.5,626C 447.192,625.241 441.859,624.241 436.5,623C 420.112,621.694 406.112,626.86 394.5,638.5C 395.908,628.631 399.408,619.298 405,610.5C 408.103,606.886 411.603,603.886 415.5,601.5 Z"/></g>
<g><path style="opacity:1" fill="#f8f8f8" d="M 219.5,721.5 C 220.75,721.577 221.583,722.244 222,723.5C 228.751,746.518 240.251,766.684 256.5,784C 240.364,776.59 225.03,767.59 210.5,757C 204.946,751.949 199.946,746.449 195.5,740.5C 199.235,739.847 202.901,739.014 206.5,738C 209.904,731.763 214.238,726.263 219.5,721.5 Z"/></g>
<g><path style="opacity:1" fill="#f7f7f7" d="M 230.5,724.5 C 234.024,724.929 237.024,726.429 239.5,729C 246.881,736.446 253.548,744.446 259.5,753C 260.833,753.667 262.167,753.667 263.5,753C 265.967,749.884 268.301,746.718 270.5,743.5C 276.25,746.75 280.416,751.416 283,757.5C 286.412,768.069 290.412,778.402 295,788.5C 300.776,797.976 308.943,801.142 319.5,798C 324.088,792.265 325.588,785.765 324,778.5C 323.047,776.545 321.713,774.878 320,773.5C 319.833,772.5 319.667,771.5 319.5,770.5C 320.947,763.241 321.781,755.908 322,748.5C 322.748,746.668 323.748,745.001 325,743.5C 328.239,764.509 331.573,785.509 335,806.5C 336.36,813.913 338.527,821.08 341.5,828C 341.167,828.5 340.833,829 340.5,829.5C 334.243,824.413 327.576,819.913 320.5,816C 303.658,806.745 286.658,797.745 269.5,789C 260.614,777.782 252.114,766.282 244,754.5C 238.665,744.834 234.165,734.834 230.5,724.5 Z"/></g>
<g><path style="opacity:1" fill="#f6f6f6" d="M 334.5,747.5 C 339.138,750.653 344.138,752.986 349.5,754.5C 351.952,759.954 353.952,765.621 355.5,771.5C 347.29,781.625 343.123,793.291 343,806.5C 339.115,786.976 336.281,767.309 334.5,747.5 Z"/></g>
<g><path style="opacity:1" fill="#f7f7f7" d="M 190.5,748.5 C 196.675,755.84 203.675,762.34 211.5,768C 226.01,777.425 241.01,786.091 256.5,794C 251.442,795.116 246.275,795.616 241,795.5C 226.501,794.967 212.001,794.467 197.5,794C 193.713,793.84 190.046,793.174 186.5,792C 186.167,791.667 185.833,791.333 185.5,791C 191.163,790.918 196.496,789.584 201.5,787C 203.677,785.503 205.01,783.503 205.5,781C 200.608,775.42 196.441,769.253 193,762.5C 191.026,758.049 190.193,753.382 190.5,748.5 Z"/></g>
<g><path style="opacity:1" fill="#f7f7f7" d="M 364.5,776.5 C 365.79,777.058 366.623,778.058 367,779.5C 367.667,784.833 367.667,790.167 367,795.5C 364.71,801.922 361.543,807.755 357.5,813C 357.8,815.32 359.133,816.487 361.5,816.5C 363.775,815.402 365.942,814.068 368,812.5C 371.114,815.959 372.114,819.959 371,824.5C 368.907,834.15 366.907,843.817 365,853.5C 361.702,849.2 358.035,845.2 354,841.5C 352.151,834.114 349.984,826.781 347.5,819.5C 347.808,818.692 348.308,818.025 349,817.5C 350.342,808.095 352.008,798.762 354,789.5C 356.257,784.085 359.757,779.751 364.5,776.5 Z"/></g>
<g><path style="opacity:1" fill="#f8f8f8" d="M 194.5,802.5 C 195.274,801.853 196.274,801.52 197.5,801.5C 220.183,803.768 242.85,803.768 265.5,801.5C 269.569,801.504 273.569,802.004 277.5,803C 301.116,813.467 323.116,826.467 343.5,842C 348.201,846.366 352.534,851.033 356.5,856C 348.145,852.508 339.478,849.508 330.5,847C 316.012,843.312 302.679,845.645 290.5,854C 286.167,858.333 281.833,862.667 277.5,867C 269.857,866.571 262.191,866.571 254.5,867C 248.97,868.873 243.303,870.039 237.5,870.5C 237.632,861.754 241.965,856.254 250.5,854C 256.485,853.201 262.485,852.535 268.5,852C 280.526,847.77 285.026,839.604 282,827.5C 277.083,821.125 270.583,818.125 262.5,818.5C 249.453,819.015 237.62,823.015 227,830.5C 227.251,828.045 227.751,825.545 228.5,823C 228.415,821.893 228.081,820.893 227.5,820C 215.585,815.712 204.585,809.878 194.5,802.5 Z"/></g>
<g><path style="opacity:1" fill="#fcfcfc" d="M 369.5,871.5 C 366.5,872.167 363.5,872.833 360.5,873.5C 355.41,875.212 350.744,877.712 346.5,881C 343.366,881.79 340.366,881.457 337.5,880C 335.402,877.146 333.069,874.479 330.5,872C 328.765,871.349 327.098,871.515 325.5,872.5C 320.322,883.196 315.822,894.196 312,905.5C 298.965,932.242 278.132,941.242 249.5,932.5C 262.013,912.816 273.513,892.482 284,871.5C 298.86,852.607 317.36,848.107 339.5,858C 349.709,862.275 359.709,866.775 369.5,871.5 Z"/></g>
<g><path style="opacity:1" fill="#b1b1b1" d="M 369.5,871.5 C 371.09,871.628 372.423,872.295 373.5,873.5C 373,873.833 372.5,874.167 372,874.5C 368.224,873.606 364.39,873.272 360.5,873.5C 363.5,872.833 366.5,872.167 369.5,871.5 Z"/></g>
<g><path style="opacity:1" fill="#f6f6f6" d="M 255.5,874.5 C 261.167,874.5 266.833,874.5 272.5,874.5C 266.174,889.659 258.341,903.992 249,917.5C 248.667,908.5 248.333,899.5 248,890.5C 245.199,889.205 242.366,889.205 239.5,890.5C 239.167,890 238.833,889.5 238.5,889C 239.578,885.851 240.578,882.684 241.5,879.5C 246.054,877.205 250.721,875.539 255.5,874.5 Z"/></g>
</svg>
