<?xml version="1.0" encoding="UTF-8"?>
<!DOCTYPE svg PUBLIC "-//W3C//DTD SVG 1.1//EN" "http://www.w3.org/Graphics/SVG/1.1/DTD/svg11.dtd">
<svg xmlns="http://www.w3.org/2000/svg" version="1.1" width="687px" height="1699px" style="shape-rendering:geometricPrecision; text-rendering:geometricPrecision; image-rendering:optimizeQuality; fill-rule:evenodd; clip-rule:evenodd" xmlns:xlink="http://www.w3.org/1999/xlink">
<g><path style="opacity:1" fill="#fefefe" d="M -0.5,-0.5 C 228.5,-0.5 457.5,-0.5 686.5,-0.5C 686.5,565.833 686.5,1132.17 686.5,1698.5C 457.5,1698.5 228.5,1698.5 -0.5,1698.5C -0.5,1132.17 -0.5,565.833 -0.5,-0.5 Z"/></g>
<g><path style="opacity:1" fill="#070707" d="M 465.5,412.5 C 473.491,424.346 479.991,437.012 485,450.5C 487.429,460.697 488.096,471.03 487,481.5C 483.661,491.572 477.161,494.072 467.5,489C 461.915,485.625 456.415,482.125 451,478.5C 451.451,484.204 452.451,489.871 454,495.5C 456.493,505.018 453.993,512.852 446.5,519C 440.909,519.915 435.909,518.581 431.5,515C 410.646,490.98 389.979,466.814 369.5,442.5C 363.002,449.92 355.002,455.087 345.5,458C 343.765,458.651 342.098,458.485 340.5,457.5C 330.427,497.124 322.26,537.124 316,577.5C 329.819,555.348 349.652,543.014 375.5,540.5C 376.935,541.929 377.935,543.595 378.5,545.5C 377.026,555.794 372.359,564.294 364.5,571C 349.167,582.333 333.833,593.667 318.5,605C 316.182,606.993 313.516,608.159 310.5,608.5C 303.362,655.996 297.529,703.662 293,751.5C 291.001,775.453 290.001,799.453 290,823.5C 288.708,838.543 287.041,853.543 285,868.5C 284.409,884.86 283.743,901.193 283,917.5C 287.088,903.983 293.755,891.983 303,881.5C 306.333,874.167 309.667,866.833 313,859.5C 311.221,846.323 309.054,833.157 306.5,820C 307.582,813.999 309.915,808.499 313.5,803.5C 308.981,791.468 309.648,779.801 315.5,768.5C 317.828,767.276 320.161,767.276 322.5,768.5C 324.193,761.418 326.859,754.751 330.5,748.5C 331.5,747.667 332.5,746.833 333.5,746C 337.009,745.578 340.343,744.578 343.5,743C 348.272,739.14 352.605,734.806 356.5,730C 358.081,729.293 359.581,728.46 361,727.5C 362.01,732.876 364.676,737.209 369,740.5C 370.562,742.957 371.562,745.624 372,748.5C 372.333,753.833 372.667,759.167 373,764.5C 374.644,766.739 376.144,769.073 377.5,771.5C 375.597,774.911 373.097,777.911 370,780.5C 369.57,793.234 373.904,794.901 383,785.5C 388.286,772.3 393.953,759.3 400,746.5C 404.614,740.215 410.614,735.882 418,733.5C 421.251,735.317 423.585,737.984 425,741.5C 431.877,731.623 440.377,723.456 450.5,717C 455.631,716.247 460.465,714.747 465,712.5C 473.728,716.226 480.228,722.393 484.5,731C 487.833,731.667 491.167,731.667 494.5,731C 495.544,726.097 498.378,724.597 503,726.5C 503.667,736.5 503.667,746.5 503,756.5C 501.071,765.859 496.904,774.026 490.5,781C 496.532,782.75 502.199,781.75 507.5,778C 509.041,776.421 510.208,774.587 511,772.5C 514.813,769.411 517.313,770.245 518.5,775C 512.613,789.231 503.947,801.564 492.5,812C 484.543,816.895 476.376,821.395 468,825.5C 468.588,829.63 469.421,833.797 470.5,838C 470.197,841.821 468.197,843.154 464.5,842C 453.126,835.086 440.793,830.086 427.5,827C 421.684,825.591 416.517,826.758 412,830.5C 409.771,835.242 410.938,839.075 415.5,842C 425.935,844.212 436.269,846.879 446.5,850C 456.897,857.886 459.23,867.552 453.5,879C 455.15,885.265 456.483,891.599 457.5,898C 456.876,900.291 455.376,901.457 453,901.5C 450.59,900.252 448.09,899.252 445.5,898.5C 445.433,911.536 445.6,924.536 446,937.5C 432.737,943.112 418.904,944.945 404.5,943C 389.843,939.001 378.676,930.501 371,917.5C 365.671,906.337 360.838,895.004 356.5,883.5C 354.016,885.483 351.683,887.65 349.5,890C 345.496,890.144 341.496,889.811 337.5,889C 333.241,887.066 329.241,884.732 325.5,882C 322.833,881.333 320.167,881.333 317.5,882C 307.116,888.384 299.616,897.217 295,908.5C 289.66,922.356 284.826,936.356 280.5,950.5C 281.009,954.652 281.342,958.818 281.5,963C 279.859,982.628 278.859,1002.29 278.5,1022C 278.933,1064.52 280.099,1107.02 282,1149.5C 288.836,1220.02 297.169,1290.35 307,1360.5C 316.644,1410.39 325.644,1460.39 334,1510.5C 337.123,1516.54 339.457,1522.87 341,1529.5C 346.082,1555.58 351.415,1581.58 357,1607.5C 362.903,1621.24 366.569,1635.57 368,1650.5C 369.427,1655.12 371.427,1659.46 374,1663.5C 375.297,1668.12 374.13,1671.95 370.5,1675C 368.112,1675.87 366.612,1675.03 366,1672.5C 362.056,1662.94 358.389,1653.28 355,1643.5C 347.463,1611.27 340.463,1578.94 334,1546.5C 331.741,1541.64 329.741,1536.64 328,1531.5C 325.418,1519.6 323.418,1507.6 322,1495.5C 319.667,1487.83 317.333,1480.17 315,1472.5C 307.894,1434.3 301.561,1395.97 296,1357.5C 289.302,1330.92 285.302,1303.92 284,1276.5C 279.128,1247.65 275.794,1218.65 274,1189.5C 264.771,1166.84 250.605,1148.01 231.5,1133C 223.999,1127.17 215.499,1123.67 206,1122.5C 196.798,1123.1 189.465,1127.1 184,1134.5C 180.586,1141 176.919,1147.33 173,1153.5C 170.595,1148.79 168.095,1144.12 165.5,1139.5C 161.162,1142.75 156.329,1144.75 151,1145.5C 148.7,1145.51 146.534,1145.01 144.5,1144C 141.833,1142 139.167,1140 136.5,1138C 119.101,1137.96 101.767,1137.29 84.5,1136C 77.933,1131.98 75.433,1126.15 77,1118.5C 78.0285,1115.61 79.1952,1112.78 80.5,1110C 75.051,1106.77 69.3844,1103.77 63.5,1101C 61.4148,1099.96 59.7481,1098.46 58.5,1096.5C 61.2304,1089.6 66.2304,1085.44 73.5,1084C 77.8134,1083.26 82.1467,1082.76 86.5,1082.5C 86.1744,1078.12 86.5078,1073.78 87.5,1069.5C 96.6635,1074.42 105.997,1078.75 115.5,1082.5C 129.405,1081.77 131.405,1076.27 121.5,1066C 105.501,1054 87.5012,1047.67 67.5,1047C 60.4923,1044.66 56.3256,1039.82 55,1032.5C 49.3998,1012.27 43.5664,992.099 37.5,972C 37.7591,970.739 38.4258,969.739 39.5,969C 45.5,968.667 51.5,968.333 57.5,968C 62.7481,963.125 68.9148,960.292 76,959.5C 80.3081,959.619 84.4748,960.452 88.5,962C 93.2983,964.635 97.9649,967.468 102.5,970.5C 102.706,965.964 102.706,961.298 102.5,956.5C 111.67,957.335 119.504,961.002 126,967.5C 130.424,973.342 134.091,979.676 137,986.5C 141.705,1001.24 148.038,1015.24 156,1028.5C 159.396,1032.2 163.563,1033.37 168.5,1032C 173.28,1023.46 173.78,1014.62 170,1005.5C 166.586,999.003 162.919,992.67 159,986.5C 155.692,974.928 158.859,965.428 168.5,958C 170.167,957.333 171.833,957.333 173.5,958C 175.135,961.599 177.135,964.933 179.5,968C 184.177,967.993 188.677,967.16 193,965.5C 195.3,965.494 197.466,965.994 199.5,967C 205.336,973.52 209.503,981.02 212,989.5C 215.167,983.667 219.667,979.167 225.5,976C 228.429,975.223 231.263,975.39 234,976.5C 239.241,984.742 240.908,993.742 239,1003.5C 234.881,1016.97 231.548,1030.64 229,1044.5C 226.915,1068.08 231.249,1090.41 242,1111.5C 252.455,1134.41 263.455,1157.08 275,1179.5C 274.5,1170.16 273.5,1160.83 272,1151.5C 270.048,1107.67 268.214,1063.84 266.5,1020C 268.893,1007.3 270.226,994.462 270.5,981.5C 269.62,953.787 269.62,926.12 270.5,898.5C 276.336,815.264 283.669,732.264 292.5,649.5C 286.985,645.575 281.652,641.408 276.5,637C 266.602,630.52 255.935,628.853 244.5,632C 237.833,633.667 231.167,635.333 224.5,637C 222.898,639.111 220.898,640.611 218.5,641.5C 216.149,640.999 214.816,639.499 214.5,637C 223.703,624.452 233.703,612.452 244.5,601C 262.676,588.701 277.842,591.535 290,609.5C 292.349,614.198 294.682,618.864 297,623.5C 303.215,590.21 309.215,556.877 315,523.5C 320.078,499.522 326.244,475.855 333.5,452.5C 332.257,450.408 330.757,448.408 329,446.5C 318.128,460.372 305.628,472.539 291.5,483C 277.844,489.56 267.011,486.393 259,473.5C 254.163,462.655 251.163,451.322 250,439.5C 249.5,424.17 249.333,408.837 249.5,393.5C 246.161,393.89 242.827,394.39 239.5,395C 225.365,413.802 206.699,425.135 183.5,429C 161.179,433.669 151.345,424.836 154,402.5C 154.479,399.376 155.646,396.543 157.5,394C 150.993,394.023 144.493,394.523 138,395.5C 119.662,393.197 112.329,382.864 116,364.5C 118.32,346.693 125.82,331.526 138.5,319C 130.25,319.986 121.916,320.986 113.5,322C 103.146,323.328 93.4797,321.328 84.5,316C 80.2776,311.063 79.4442,305.563 82,299.5C 88.9902,288.517 98.4902,280.35 110.5,275C 122.178,270.663 133.844,266.33 145.5,262C 135.275,264.176 124.942,266.176 114.5,268C 105.684,269.445 97.3505,268.112 89.5,264C 84.4073,259.983 82.5739,254.816 84,248.5C 85.8287,244.172 88.162,240.172 91,236.5C 103.377,225.285 115.877,214.285 128.5,203.5C 119.96,195.713 115.794,186.047 116,174.5C 117.529,173.271 118.696,171.771 119.5,170C 125.642,169.634 131.642,170.467 137.5,172.5C 138.167,172.167 138.833,171.833 139.5,171.5C 132.707,164.544 126.874,156.877 122,148.5C 118.46,138.561 121.794,132.894 132,131.5C 142.519,133.337 153.019,135.337 163.5,137.5C 164.5,137.167 165.5,136.833 166.5,136.5C 160.493,124.478 157.66,111.811 158,98.5C 162.464,86.0138 171.297,80.8471 184.5,83C 193.56,85.7427 202.56,88.5761 211.5,91.5C 211.947,79.4791 214.114,67.8124 218,56.5C 226.409,46.9179 235.909,45.9179 246.5,53.5C 247.951,46.749 251.284,41.249 256.5,37C 263.37,35.6244 269.37,37.2911 274.5,42C 279.667,47.1667 284.833,52.3333 290,57.5C 291.245,51.6098 291.912,45.6098 292,39.5C 299.812,24.9537 310.479,22.6203 324,32.5C 332.446,42.9477 340.113,53.9477 347,65.5C 349.466,58.7248 353.3,52.8915 358.5,48C 365.13,48.1534 370.13,51.1534 373.5,57C 374.167,57.6667 374.833,57.6667 375.5,57C 381.297,47.9046 387.464,39.0712 394,30.5C 400.728,22.0473 408.061,21.3806 416,28.5C 419.975,35.4536 423.142,42.787 425.5,50.5C 432.783,49.7457 438.283,52.4124 442,58.5C 445.019,71.6617 447.019,84.995 448,98.5C 457.564,88.2664 467.731,78.7664 478.5,70C 481.167,69.3333 483.833,69.3333 486.5,70C 489.689,71.8555 492.189,74.3555 494,77.5C 500.156,72.6806 506.322,67.8473 512.5,63C 517.359,59.5994 522.692,58.2661 528.5,59C 535.98,65.1225 539.147,72.9559 538,82.5C 536.605,89.875 535.105,97.2083 533.5,104.5C 540.809,103.816 548.142,103.316 555.5,103C 568.544,96.8509 581.544,97.1843 594.5,104C 602.011,110.216 603.511,117.716 599,126.5C 593.728,136.782 586.561,145.615 577.5,153C 587.831,153.708 598.164,154.375 608.5,155C 621.496,158.334 624.663,165.834 618,177.5C 612.692,184.975 607.192,192.308 601.5,199.5C 603.833,199.833 606.167,200.167 608.5,200.5C 621.813,199.179 635.146,198.679 648.5,199C 656.711,201.547 661.878,207.047 664,215.5C 666.216,226.57 662.049,234.07 651.5,238C 639.908,242.132 628.575,246.799 617.5,252C 631.605,262.471 645.439,273.305 659,284.5C 663.404,292.585 661.904,299.419 654.5,305C 661.378,307.842 667.211,312.009 672,317.5C 673.304,325.39 670.137,330.557 662.5,333C 646.421,337.149 630.088,339.483 613.5,340C 623.429,348.579 634.429,355.579 646.5,361C 653.617,367.99 654.45,375.823 649,384.5C 642.965,391.101 635.465,394.935 626.5,396C 619.167,396.667 611.833,396.667 604.5,396C 590.208,392.234 576.208,387.9 562.5,383C 570.736,393.966 577.57,405.8 583,418.5C 585.811,433.022 579.978,438.855 565.5,436C 556.388,432.357 548.555,426.857 542,419.5C 539.895,429.794 537.895,440.127 536,450.5C 532.757,458.538 526.923,461.371 518.5,459C 497.845,446.841 480.179,431.341 465.5,412.5 Z"/></g>
<g><path style="opacity:1" fill="#f9f9f9" d="M 404.5,31.5 C 407.522,31.4282 409.688,32.7615 411,35.5C 414.238,41.8744 416.238,48.5411 417,55.5C 405.126,62.0426 395.126,70.7093 387,81.5C 384.921,77.0074 382.588,72.674 380,68.5C 379.333,67.1667 379.333,65.8333 380,64.5C 387.613,53.0587 395.78,42.0587 404.5,31.5 Z"/></g>
<g><path style="opacity:1" fill="#f8f8f8" d="M 306.5,34.5 C 311.297,34.6504 315.464,36.3171 319,39.5C 328.258,51.0146 336.258,63.3479 343,76.5C 344.221,82.846 343.387,88.846 340.5,94.5C 337.252,88.3359 333.752,82.3359 330,76.5C 322.397,66.1736 313.397,64.8402 303,72.5C 301.779,71.7282 300.779,70.7282 300,69.5C 298.215,60.2281 298.215,50.8948 300,41.5C 301.694,38.6424 303.861,36.309 306.5,34.5 Z"/></g>
<g><path style="opacity:1" fill="#f7f7f7" d="M 259.5,44.5 C 262.425,44.4598 265.091,45.2932 267.5,47C 277.37,55.2027 286.203,64.3694 294,74.5C 299.814,82.737 301.148,91.737 298,101.5C 289.209,90.3733 280.042,79.5399 270.5,69C 266.097,66.9554 261.43,65.9554 256.5,66C 253.448,58.388 254.448,51.2213 259.5,44.5 Z"/></g>
<g><path style="opacity:1" fill="#f8f8f8" d="M 229.5,56.5 C 238.866,57.1057 245.366,61.7724 249,70.5C 250.948,86.628 253.781,102.628 257.5,118.5C 257.167,119.5 256.833,120.5 256.5,121.5C 245.308,110.984 232.808,102.317 219,95.5C 219.604,83.6105 221.604,71.9439 225,60.5C 226.397,58.9297 227.897,57.5964 229.5,56.5 Z"/></g>
<g><path style="opacity:1" fill="#f8f8f8" d="M 360.5,56.5 C 363.764,57.9274 366.264,60.2608 368,63.5C 373.693,72.8857 378.86,82.5524 383.5,92.5C 380.505,97.0114 377.672,101.678 375,106.5C 373.623,104.246 372.123,102.08 370.5,100C 369.167,99.3333 367.833,99.3333 366.5,100C 363,103.5 359.5,107 356,110.5C 353.667,114.5 351.333,118.5 349,122.5C 346.792,116.007 346.125,109.341 347,102.5C 350.257,94.1375 351.924,85.4708 352,76.5C 353.785,69.2908 356.618,62.6241 360.5,56.5 Z"/></g>
<g><path style="opacity:1" fill="#f9f9f9" d="M 427.5,59.5 C 431.182,58.7253 433.682,60.0586 435,63.5C 437.473,72.3356 438.639,81.3356 438.5,90.5C 432.878,90.6568 427.878,92.4901 423.5,96C 416.926,101.904 411.092,108.404 406,115.5C 406.05,108.699 404.383,102.366 401,96.5C 398.205,93.5334 395.038,91.2 391.5,89.5C 400.231,75.4233 412.231,65.4233 427.5,59.5 Z"/></g>
<g><path style="opacity:1" fill="#f9f9f9" d="M 523.5,66.5 C 527.838,69.1565 530.172,73.1565 530.5,78.5C 528.828,87.5234 526.995,96.5234 525,105.5C 524.626,106.416 524.126,107.25 523.5,108C 515.014,111.74 507.014,116.24 499.5,121.5C 497.035,110.285 495.868,98.9515 496,87.5C 504.461,79.3779 513.628,72.3779 523.5,66.5 Z"/></g>
<g><path style="opacity:1" fill="#f9f9f9" d="M 258.5,74.5 C 263.874,73.9369 268.041,75.9369 271,80.5C 280.717,92.5497 290.051,104.883 299,117.5C 298.402,123.499 297.402,129.499 296,135.5C 295.525,147.519 295.525,159.519 296,171.5C 286.667,158.167 277.333,144.833 268,131.5C 263.325,112.781 260.158,93.7812 258.5,74.5 Z"/></g>
<g><path style="opacity:1" fill="#f6f6f6" d="M 313.5,75.5 C 315.199,75.3398 316.866,75.5065 318.5,76C 333.698,93.7538 341.364,114.421 341.5,138C 341.333,142.5 341.167,147 341,151.5C 339.617,156.08 338.617,160.747 338,165.5C 335.01,149.571 332.01,133.571 329,117.5C 325.064,104.816 317.564,102.149 306.5,109.5C 306.167,108.333 305.833,107.167 305.5,106C 306.819,97.2136 307.652,88.3803 308,79.5C 310.015,78.3034 311.849,76.9701 313.5,75.5 Z"/></g>
<g><path style="opacity:1" fill="#f9f9f9" d="M 480.5,77.5 C 482.39,77.2965 483.89,77.9632 485,79.5C 486.75,82.2464 487.75,85.2464 488,88.5C 489.215,101.825 489.882,115.159 490,128.5C 489.005,131.77 488.172,135.103 487.5,138.5C 480.625,142.277 473.625,145.444 466.5,148C 468.794,142.247 470.127,136.247 470.5,130C 470.193,121.035 465.693,115.868 457,114.5C 452.452,115.219 448.118,116.552 444,118.5C 443.582,116.212 444.249,114.212 446,112.5C 457.702,100.965 469.202,89.2985 480.5,77.5 Z"/></g>
<g><path style="opacity:1" fill="#fafafa" d="M 173.5,90.5 C 185.848,90.8935 197.348,94.2268 208,100.5C 205.423,104.829 203.09,109.496 201,114.5C 200.542,117.558 200.876,120.558 202,123.5C 209.757,138.023 218.757,151.69 229,164.5C 229.667,165.167 229.667,165.833 229,166.5C 215.576,158.246 201.076,152.746 185.5,150C 182.476,148.468 179.976,146.301 178,143.5C 172.523,131.235 168.356,118.569 165.5,105.5C 165.312,98.8704 167.979,93.8704 173.5,90.5 Z"/></g>
<g><path style="opacity:1" fill="#f9f9f9" d="M 434.5,98.5 C 436.167,98.5 437.833,98.5 439.5,98.5C 440.329,101.469 440.495,104.469 440,107.5C 436.37,112.157 434.37,117.49 434,123.5C 430.13,130.376 425.13,136.376 419,141.5C 414.167,148.333 409.333,155.167 404.5,162C 400.848,162.499 397.182,162.665 393.5,162.5C 396.569,150.462 400.735,138.795 406,127.5C 411.044,122.124 415.711,116.458 420,110.5C 424.149,105.503 428.983,101.503 434.5,98.5 Z"/></g>
<g><path style="opacity:1" fill="#f7f7f7" d="M 389.5,98.5 C 393.853,99.8307 396.353,102.831 397,107.5C 397.667,112.167 397.667,116.833 397,121.5C 394.277,133.337 390.943,145.004 387,156.5C 385.915,159.25 383.915,160.917 381,161.5C 378.013,159.846 375.679,157.513 374,154.5C 374.046,140.135 376.38,126.135 381,112.5C 383.593,107.639 386.427,102.972 389.5,98.5 Z"/></g>
<g><path style="opacity:1" fill="#fbfbfb" d="M 216.5,104.5 C 223.544,107.189 230.21,110.689 236.5,115C 245.267,121.763 253.433,129.263 261,137.5C 280.193,161.371 297.027,186.871 311.5,214C 294.758,212.561 279.091,207.561 264.5,199C 254.148,190.806 246.314,180.639 241,168.5C 229.587,152.679 218.92,136.346 209,119.5C 208.333,117.833 208.333,116.167 209,114.5C 211.717,111.29 214.217,107.956 216.5,104.5 Z"/></g>
<g><path style="opacity:1" fill="#fafafa" d="M 565.5,106.5 C 574.818,105.498 583.484,107.331 591.5,112C 594.01,116.181 593.843,120.348 591,124.5C 583.747,135.089 575.08,144.422 565,152.5C 563.062,149.894 560.562,148.061 557.5,147C 552.446,146.219 547.446,146.386 542.5,147.5C 541.479,146.998 541.312,146.332 542,145.5C 551.587,135.328 557.754,123.328 560.5,109.5C 562.396,108.725 564.063,107.725 565.5,106.5 Z"/></g>
<g><path style="opacity:1" fill="#f6f6f6" d="M 366.5,110.5 C 368.723,112.441 370.056,114.941 370.5,118C 368.378,130.566 366.212,143.066 364,155.5C 356.545,161.948 350.212,169.282 345,177.5C 344.333,174.833 344.333,172.167 345,169.5C 347.41,159.963 349.077,150.296 350,140.5C 353.707,129.412 359.207,119.412 366.5,110.5 Z"/></g>
<g><path style="opacity:1" fill="#f9f9f9" d="M 536.5,111.5 C 541.167,111.5 545.833,111.5 550.5,111.5C 550.38,117.693 548.547,123.36 545,128.5C 540.667,134.5 536.333,140.5 532,146.5C 530.127,148.709 527.96,150.542 525.5,152C 518.355,153.728 511.355,155.895 504.5,158.5C 504.167,158.333 503.833,158.167 503.5,158C 505.456,151.663 505.956,145.163 505,138.5C 503.08,135.562 500.58,134.895 497.5,136.5C 496.386,135.277 496.219,133.944 497,132.5C 509.261,123.786 522.427,116.786 536.5,111.5 Z"/></g>
<g><path style="opacity:1" fill="#f9f9f9" d="M 314.5,113.5 C 316.144,113.286 317.644,113.62 319,114.5C 320.197,117.089 321.197,119.756 322,122.5C 324.774,138.146 327.441,153.813 330,169.5C 331.07,175.868 333.07,181.868 336,187.5C 338.415,204.928 340.749,222.261 343,239.5C 326.753,223.595 314.086,205.262 305,184.5C 303.712,167.924 303.379,151.258 304,134.5C 304.722,128.612 306.222,122.945 308.5,117.5C 310.813,116.5 312.813,115.166 314.5,113.5 Z"/></g>
<g><path style="opacity:1" fill="#fafafa" d="M 453.5,122.5 C 457.49,121.616 460.323,122.949 462,126.5C 460.909,147.689 453.409,166.356 439.5,182.5C 436.467,176.3 432.467,170.8 427.5,166C 423.354,164.063 419.021,162.729 414.5,162C 417,158.167 419.5,154.333 422,150.5C 428.408,144.762 434.075,138.429 439,131.5C 443.053,127.066 447.886,124.066 453.5,122.5 Z"/></g>
<g><path style="opacity:1" fill="#f7f7f7" d="M 129.5,139.5 C 143.291,141.612 156.957,144.279 170.5,147.5C 170.833,148 171.167,148.5 171.5,149C 167.59,151.41 165.59,154.91 165.5,159.5C 166.391,166.339 168.391,172.839 171.5,179C 165.779,179.493 160.112,178.16 154.5,175C 146.596,167.766 139.429,159.933 133,151.5C 129.857,147.921 128.69,143.921 129.5,139.5 Z"/></g>
<g><path style="opacity:1" fill="#fafafa" d="M 493.5,144.5 C 494.833,144.5 496.167,144.5 497.5,144.5C 498.032,153.432 495.199,161.099 489,167.5C 477.5,179.667 466,191.833 454.5,204C 451.308,206.692 447.975,209.192 444.5,211.5C 443.361,205.189 442.861,198.856 443,192.5C 450.127,182.695 456.46,172.361 462,161.5C 472.195,155.154 482.695,149.488 493.5,144.5 Z"/></g>
<g><path style="opacity:1" fill="#fbfbfb" d="M 463.5,222.5 C 456.978,222.823 450.645,222.49 444.5,221.5C 448.101,219.023 451.767,216.523 455.5,214C 470.528,198.307 485.528,182.64 500.5,167C 513.612,163.741 526.612,160.074 539.5,156C 542.948,155.141 546.448,154.641 550,154.5C 558.471,154.054 560.804,157.721 557,165.5C 550.353,177.153 541.853,187.32 531.5,196C 517.297,202.935 502.964,209.601 488.5,216C 480.553,219.706 472.22,221.872 463.5,222.5 Z"/></g>
<g><path style="opacity:1" fill="#fafafa" d="M 175.5,156.5 C 183.386,156.91 191.052,158.41 198.5,161C 211.263,165.884 223.597,171.551 235.5,178C 239.528,181.887 242.694,186.387 245,191.5C 247.333,193.833 249.667,196.167 252,198.5C 252.821,201.554 252.655,204.554 251.5,207.5C 243.51,203.917 235.177,202.417 226.5,203C 221.751,203.551 217.084,204.384 212.5,205.5C 208.179,205.449 204.179,204.282 200.5,202C 195.021,196.19 189.188,190.69 183,185.5C 179.124,177.251 175.958,168.751 173.5,160C 173.862,158.566 174.528,157.399 175.5,156.5 Z"/></g>
<g><path style="opacity:1" fill="#f0f0f0" d="M 369.5,161.5 C 370.649,161.791 371.316,162.624 371.5,164C 369.107,168.074 366.274,171.907 363,175.5C 354.811,189.399 349.811,204.399 348,220.5C 346.596,209.866 346.262,199.199 347,188.5C 353.264,178.408 360.764,169.408 369.5,161.5 Z"/></g>
<g><path style="opacity:1" fill="#fbfbfb" d="M 566.5,161.5 C 580.51,161.667 594.51,162.167 608.5,163C 610.846,164.013 612.513,165.679 613.5,168C 612.389,171.055 610.889,173.888 609,176.5C 603.642,183.024 598.475,189.69 593.5,196.5C 577.147,197.333 560.814,196.833 544.5,195C 554.987,185.848 562.32,174.681 566.5,161.5 Z"/></g>
<g><path style="opacity:1" fill="#f6f6f6" d="M 381.5,168.5 C 383.451,168.227 384.951,168.893 386,170.5C 386.667,175.167 386.667,179.833 386,184.5C 379.935,196.295 373.602,207.961 367,219.5C 364.197,229.047 361.863,238.713 360,248.5C 355.098,245.6 353.265,241.267 354.5,235.5C 355.371,217.682 359.538,200.682 367,184.5C 370.711,178.024 375.544,172.691 381.5,168.5 Z"/></g>
<g><path style="opacity:1" fill="#f3f3f3" d="M 412.5,171.5 C 417.74,169.673 422.24,171.006 426,175.5C 433.322,185.976 436.489,197.643 435.5,210.5C 435.474,228.413 430.14,244.579 419.5,259C 415.458,260.245 411.458,261.245 407.5,262C 413.603,250.622 418.77,238.788 423,226.5C 428.946,206.149 425.446,187.815 412.5,171.5 Z"/></g>
<g><path style="opacity:1" fill="#f3f3f3" d="M 394.5,170.5 C 397.794,170.259 400.794,171.092 403.5,173C 417.78,188.438 421.613,206.271 415,226.5C 409.562,239.705 403.395,252.372 396.5,264.5C 394.5,264.5 393.5,263.5 393.5,261.5C 399.339,241.981 403.672,222.147 406.5,202C 407.294,193.081 403.461,187.247 395,184.5C 394.501,179.845 394.334,175.179 394.5,170.5 Z"/></g>
<g><path style="opacity:1" fill="#fafafa" d="M 124.5,178.5 C 140.759,180.785 156.759,184.285 172.5,189C 175.661,190.413 178.661,192.08 181.5,194C 186.922,201.424 193.588,207.424 201.5,212C 192.356,218.578 182.356,222.912 171.5,225C 160.956,219.118 150.956,212.451 141.5,205C 135.922,200.093 131.089,194.593 127,188.5C 125.273,185.382 124.439,182.049 124.5,178.5 Z"/></g>
<g><path style="opacity:1" fill="#f2f2f2" d="M 391.5,192.5 C 396.974,193.396 399.641,196.729 399.5,202.5C 395.945,222.054 391.445,241.387 386,260.5C 383.478,263.326 381.478,262.993 380,259.5C 380.503,245.798 381.67,232.131 383.5,218.5C 382.091,214.106 382.258,209.772 384,205.5C 387.017,201.466 389.517,197.133 391.5,192.5 Z"/></g>
<g><path style="opacity:1" fill="#f8f8f8" d="M 531.5,203.5 C 552.194,203.503 572.861,204.169 593.5,205.5C 593.59,207.696 593.923,209.863 594.5,212C 590.981,218.86 585.981,224.527 579.5,229C 575.691,232.238 571.358,234.404 566.5,235.5C 563.654,224.894 556.654,219.894 545.5,220.5C 530.76,222.176 516.093,224.342 501.5,227C 486.193,231.657 470.86,236.324 455.5,241C 449.843,241.499 444.176,241.666 438.5,241.5C 439.199,238.427 440.199,235.427 441.5,232.5C 463.64,232.548 484.64,227.715 504.5,218C 513.848,213.661 522.848,208.828 531.5,203.5 Z"/></g>
<g><path style="opacity:1" fill="#f9f9f9" d="M 259.5,205.5 C 266.645,209.277 273.978,212.777 281.5,216C 294.029,219.974 306.696,223.308 319.5,226C 325.068,231.812 330.401,237.812 335.5,244C 330.252,245.375 324.918,246.208 319.5,246.5C 308.479,244.495 297.479,242.329 286.5,240C 277.4,232.903 268.9,225.069 261,216.5C 259.663,212.974 259.163,209.308 259.5,205.5 Z"/></g>
<g><path style="opacity:1" fill="#fafafa" d="M 603.5,212.5 C 603.5,211.5 603.5,210.5 603.5,209.5C 605.099,209.768 606.432,209.434 607.5,208.5C 620.812,207.268 634.146,206.768 647.5,207C 655.17,211.798 657.503,218.298 654.5,226.5C 638.016,234.722 621.016,241.889 603.5,248C 591.758,250.189 580.091,249.856 568.5,247C 566.729,246.465 566.396,245.631 567.5,244.5C 580.507,238.735 591.673,230.402 601,219.5C 602.411,217.35 603.245,215.016 603.5,212.5 Z"/></g>
<g><path style="opacity:1" fill="#fbfbfb" d="M 172.5,250.5 C 170.735,251.461 168.735,251.795 166.5,251.5C 162.248,251.713 158.082,252.38 154,253.5C 151.803,253.349 149.636,253.015 147.5,252.5C 134.633,256.675 121.466,259.342 108,260.5C 102.212,260.975 97.2116,259.308 93,255.5C 92.3333,253.167 92.3333,250.833 93,248.5C 95.2798,244.553 97.9465,240.887 101,237.5C 112.333,228.167 123.667,218.833 135,209.5C 144.714,217.942 155.214,225.275 166.5,231.5C 163.936,235.883 164.102,240.216 167,244.5C 169.04,246.37 170.873,248.37 172.5,250.5 Z"/></g>
<g><path style="opacity:1" fill="#888888" d="M 607.5,208.5 C 606.432,209.434 605.099,209.768 603.5,209.5C 603.5,210.5 603.5,211.5 603.5,212.5C 602.566,211.432 602.232,210.099 602.5,208.5C 604.167,208.5 605.833,208.5 607.5,208.5 Z"/></g>
<g><path style="opacity:1" fill="#f8f8f8" d="M 225.5,210.5 C 234.199,209.509 242.199,211.342 249.5,216C 257.536,225.704 266.536,234.37 276.5,242C 270.794,244.905 264.794,245.905 258.5,245C 248.088,241.64 238.088,237.306 228.5,232C 223.748,229.252 219.581,225.752 216,221.5C 214.092,218.794 213.259,215.794 213.5,212.5C 217.764,212.656 221.764,211.989 225.5,210.5 Z"/></g>
<g><path style="opacity:1" fill="#fafafa" d="M 204.5,219.5 C 207.202,222.518 209.702,225.851 212,229.5C 223.742,239.124 236.908,246.291 251.5,251C 241.303,253.834 231.803,258 223,263.5C 209.366,259.05 195.866,254.216 182.5,249C 179.333,245.833 176.167,242.667 173,239.5C 172.37,237.097 173.203,235.263 175.5,234C 185.785,230.191 195.452,225.357 204.5,219.5 Z"/></g>
<g><path style="opacity:1" fill="#898989" d="M 444.5,221.5 C 450.645,222.49 456.978,222.823 463.5,222.5C 456.989,223.818 450.322,223.818 443.5,222.5C 443.624,221.893 443.957,221.56 444.5,221.5 Z"/></g>
<g><path style="opacity:1" fill="#fbfbfb" d="M 463.5,247.5 C 491.626,235.971 520.959,229.805 551.5,229C 555.632,230.13 557.966,232.797 558.5,237C 552.772,255.064 541.106,267.73 523.5,275C 513.785,279.076 503.785,281.076 493.5,281C 485.778,279.713 478.111,278.213 470.5,276.5C 469.417,275.635 469.251,274.635 470,273.5C 473.499,269.173 476.499,264.506 479,259.5C 480.202,255.207 479.035,251.707 475.5,249C 471.605,247.734 467.605,247.234 463.5,247.5 Z"/></g>
<g><path style="opacity:1" fill="#e0e0e0" d="M 373.5,224.5 C 374.283,234.777 373.45,245.11 371,255.5C 369.745,254.789 368.579,253.956 367.5,253C 368.584,243.333 370.584,233.833 373.5,224.5 Z"/></g>
<g><path style="opacity:1" fill="#fafafa" d="M 282.5,248.5 C 291.957,248.091 300.957,249.925 309.5,254C 301.015,262.815 293.682,272.482 287.5,283C 275.424,285.095 263.258,286.595 251,287.5C 242.191,286.305 233.358,285.305 224.5,284.5C 224.838,276.654 228.171,270.487 234.5,266C 250.499,259.819 266.499,253.985 282.5,248.5 Z"/></g>
<g><path style="opacity:1" fill="#8b8b8b" d="M 463.5,247.5 C 460.919,248.488 458.252,249.488 455.5,250.5C 454.791,249.596 453.791,249.263 452.5,249.5C 455.946,248.313 459.613,247.646 463.5,247.5 Z"/></g>
<g><path style="opacity:1" fill="#e8e8e8" d="M 452.5,249.5 C 453.791,249.263 454.791,249.596 455.5,250.5C 448.522,253.655 441.522,256.821 434.5,260C 432.5,260.667 430.5,260.667 428.5,260C 430.752,256.832 432.752,253.499 434.5,250C 440.491,249.501 446.491,249.334 452.5,249.5 Z"/></g>
<g><path style="opacity:1" fill="#fbfbfb" d="M 340.5,250.5 C 343.518,250.335 346.518,250.502 349.5,251C 354,254.167 358.5,257.333 363,260.5C 363.867,264.956 363.534,269.289 362,273.5C 350.663,284.753 337.83,293.919 323.5,301C 311.551,306.279 301.718,303.779 294,293.5C 293.333,291.833 293.333,290.167 294,288.5C 300.99,275.847 309.824,264.68 320.5,255C 327.438,254.145 334.105,252.645 340.5,250.5 Z"/></g>
<g><path style="opacity:1" fill="#808080" d="M 172.5,250.5 C 173.289,250.783 173.956,251.283 174.5,252C 171.633,252.801 168.966,252.634 166.5,251.5C 168.735,251.795 170.735,251.461 172.5,250.5 Z"/></g>
<g><path style="opacity:1" fill="#f9f9f9" d="M 560.5,252.5 C 576.215,257.517 592.215,258.683 608.5,256C 611.909,257.843 614.576,260.343 616.5,263.5C 613.895,271.269 608.561,276.102 600.5,278C 584.752,281.011 569.419,279.678 554.5,274C 552.167,272.5 549.833,271 547.5,269.5C 553.008,264.668 557.341,259.002 560.5,252.5 Z"/></g>
<g><path style="opacity:1" fill="#f8f8f8" d="M 462.5,255.5 C 465.167,255.5 467.833,255.5 470.5,255.5C 470.628,257.655 470.128,259.655 469,261.5C 463.549,269.286 457.715,276.786 451.5,284C 445.121,284.087 438.954,285.254 433,287.5C 423.212,285.774 414.878,281.441 408,274.5C 407.251,273.365 407.417,272.365 408.5,271.5C 414.975,267.837 421.808,266.837 429,268.5C 432.207,268.259 435.374,267.759 438.5,267C 446.713,263.392 454.713,259.558 462.5,255.5 Z"/></g>
<g><path style="opacity:1" fill="#fbfbfb" d="M 162.5,259.5 C 182.355,259.67 201.355,263.67 219.5,271.5C 217.66,275.189 216.326,279.022 215.5,283C 210.255,284.43 204.922,285.43 199.5,286C 190.882,289.206 182.215,292.206 173.5,295C 165.833,295.667 158.167,295.667 150.5,295C 147.136,294.511 144.469,293.011 142.5,290.5C 144.933,277.268 151.6,266.935 162.5,259.5 Z"/></g>
<g><path style="opacity:1" fill="#fbfbfb" d="M 372.5,266.5 C 375.372,267.526 377.872,269.192 380,271.5C 384,280.833 388,290.167 392,299.5C 393.579,309.792 394.246,320.126 394,330.5C 389.212,345.776 379.379,349.942 364.5,343C 358.564,341.289 354.064,337.789 351,332.5C 350.333,329.833 350.333,327.167 351,324.5C 359.249,305.59 366.415,286.256 372.5,266.5 Z"/></g>
<g><path style="opacity:1" fill="#f9f9f9" d="M 623.5,267.5 C 633.124,274.618 642.624,281.951 652,289.5C 653.301,291.365 653.635,293.365 653,295.5C 649.889,298.944 646.056,301.111 641.5,302C 628.319,303.364 615.652,301.364 603.5,296C 597.333,293.722 591.333,291.055 585.5,288C 599.677,288.615 611.511,283.781 621,273.5C 622.122,271.593 622.955,269.593 623.5,267.5 Z"/></g>
<g><path style="opacity:1" fill="#fafafa" d="M 388.5,270.5 C 394.58,271.752 399.08,275.085 402,280.5C 408.225,286.865 415.725,291.031 424.5,293C 440.518,303.348 455.685,314.848 470,327.5C 472.482,337.882 468.316,343.882 457.5,345.5C 451.426,344.42 445.76,342.253 440.5,339C 424.889,323.728 410.389,307.561 397,290.5C 393.673,284.014 390.84,277.347 388.5,270.5 Z"/></g>
<g><path style="opacity:1" fill="#f8f8f8" d="M 135.5,274.5 C 136.5,274.5 137.5,274.5 138.5,274.5C 137.184,279.765 136.184,285.099 135.5,290.5C 135.533,297.053 138.866,300.886 145.5,302C 149.531,302.481 153.531,303.147 157.5,304C 153.503,306.445 149.169,308.112 144.5,309C 132.803,310.774 121.136,312.607 109.5,314.5C 85.7601,314.672 82.4268,306.839 99.5,291C 110.704,283.562 122.704,278.062 135.5,274.5 Z"/></g>
<g><path style="opacity:1" fill="#f6f6f6" d="M 538.5,275.5 C 544.323,277.406 549.99,279.906 555.5,283C 560.396,284.713 565.396,286.046 570.5,287C 571.453,288.955 572.787,290.622 574.5,292C 581.621,295.061 588.621,298.394 595.5,302C 589.95,308.053 583.95,313.553 577.5,318.5C 572.391,314.279 568.224,309.279 565,303.5C 559.773,297.138 553.273,292.638 545.5,290C 537.076,288.652 528.742,286.986 520.5,285C 526.973,282.598 532.973,279.432 538.5,275.5 Z"/></g>
<g><path style="opacity:1" fill="#f9f9f9" d="M 461.5,283.5 C 489.918,288.217 518.252,293.384 546.5,299C 554,302.5 559.5,308 563,315.5C 566.667,319.167 570.333,322.833 574,326.5C 573.591,332.597 570.425,336.763 564.5,339C 555.612,339.963 546.945,338.963 538.5,336C 519.578,310.262 494.578,293.428 463.5,285.5C 462.287,285.253 461.62,284.586 461.5,283.5 Z"/></g>
<g><path style="opacity:1" fill="#fafafa" d="M 210.5,291.5 C 221.044,290.584 231.211,291.917 241,295.5C 238.856,299.721 236.523,304.054 234,308.5C 233.163,312.514 232.329,316.514 231.5,320.5C 214.591,325.987 197.258,328.154 179.5,327C 176.881,326.849 174.547,326.015 172.5,324.5C 170.473,317.54 171.806,311.374 176.5,306C 187.43,299.868 198.763,295.035 210.5,291.5 Z"/></g>
<g><path style="opacity:1" fill="#fafafa" d="M 273.5,292.5 C 277.5,292.5 281.5,292.5 285.5,292.5C 288.518,301.848 294.852,307.848 304.5,310.5C 305.744,316.531 303.744,321.364 298.5,325C 291.167,328.333 283.833,331.667 276.5,335C 274.651,336.093 272.984,337.426 271.5,339C 261.833,339.667 252.167,339.667 242.5,339C 237.268,336.367 235.435,332.201 237,326.5C 239.27,321.356 240.937,316.022 242,310.5C 244.354,305.142 247.854,300.642 252.5,297C 259.585,295.27 266.585,293.77 273.5,292.5 Z"/></g>
<g><path style="opacity:1" fill="#fafafa" d="M 355.5,289.5 C 352.976,299.962 349.143,310.295 344,320.5C 343.436,323.155 342.936,325.821 342.5,328.5C 343.35,333.868 344.85,338.868 347,343.5C 342.468,348.367 337.634,352.867 332.5,357C 326.139,360.272 319.806,360.272 313.5,357C 312.213,355.59 311.046,354.09 310,352.5C 310.043,344.638 309.876,336.805 309.5,329C 310.987,323.197 312.487,317.364 314,311.5C 330.088,308.208 343.922,300.875 355.5,289.5 Z"/></g>
<g><path style="opacity:1" fill="#fafafa" d="M 442.5,292.5 C 479.482,294.075 508.982,309.741 531,339.5C 535.299,353.306 531.133,363.139 518.5,369C 511.342,355.372 502.008,343.372 490.5,333C 483.907,330.06 478.574,325.727 474.5,320C 463.213,311.714 452.213,303.048 441.5,294C 442.056,293.617 442.389,293.117 442.5,292.5 Z"/></g>
<g><path style="opacity:1" fill="#f9f9f9" d="M 604.5,306.5 C 619.355,309.437 634.355,311.27 649.5,312C 655.518,313.669 660.518,316.836 664.5,321.5C 662.851,323.995 660.517,325.495 657.5,326C 639.479,331.058 621.146,332.725 602.5,331C 596.508,329.172 590.841,326.672 585.5,323.5C 590.96,316.699 597.293,311.032 604.5,306.5 Z"/></g>
<g><path style="opacity:1" fill="#e8e8e8" d="M 400.5,308.5 C 409.503,317.338 418.003,326.672 426,336.5C 430.554,344.593 434.221,352.927 437,361.5C 432,353.5 427,345.5 422,337.5C 419.913,336.206 417.746,335.039 415.5,334C 409.889,327.722 405.056,320.888 401,313.5C 400.506,311.866 400.34,310.199 400.5,308.5 Z"/></g>
<g><path style="opacity:1" fill="#fbfbfb" d="M 163.5,311.5 C 163.681,315.635 163.848,319.968 164,324.5C 164.232,327.738 165.732,330.238 168.5,332C 173.277,333.98 178.277,334.98 183.5,335C 190.492,335.5 197.492,335.666 204.5,335.5C 201.368,342.437 198.201,349.437 195,356.5C 194.501,360.821 194.334,365.154 194.5,369.5C 185.776,373.019 177.109,376.853 168.5,381C 157.167,385.201 145.5,387.201 133.5,387C 126.96,384.576 123.627,379.909 123.5,373C 124.933,344.607 138.266,324.107 163.5,311.5 Z"/></g>
<g><path style="opacity:1" fill="#fbfbfb" d="M 226.5,329.5 C 228.617,333.148 230.45,337.148 232,341.5C 234.08,343.123 236.246,344.623 238.5,346C 247.091,347.244 255.758,347.911 264.5,348C 259.485,357.711 255.652,367.877 253,378.5C 251.5,382 249,384.5 245.5,386C 232.498,387.749 220.498,385.082 209.5,378C 203.148,372.607 200.981,365.773 203,357.5C 206.53,348.268 211.696,340.102 218.5,333C 221.309,331.907 223.976,330.74 226.5,329.5 Z"/></g>
<g><path style="opacity:1" fill="#f9f9f9" d="M 369.5,361.5 C 368.964,358.302 369.631,355.635 371.5,353.5C 389.434,355.402 399.601,347.402 402,329.5C 406.915,335.33 410.248,341.996 412,349.5C 415.594,365.323 416.928,381.323 416,397.5C 415.293,399.081 414.46,400.581 413.5,402C 409.167,402.667 404.833,402.667 400.5,402C 388.01,390.028 377.677,376.528 369.5,361.5 Z"/></g>
<g><path style="opacity:1" fill="#fbfbfb" d="M 581.5,331.5 C 587.702,334.29 594.035,336.79 600.5,339C 612.174,350.669 625.507,360.002 640.5,367C 646.083,372.875 645.417,378.208 638.5,383C 631.645,387.24 624.145,389.073 616,388.5C 596.956,386.53 578.789,381.363 561.5,373C 554.238,369.121 547.405,364.621 541,359.5C 539.316,354.924 539.15,350.258 540.5,345.5C 546.192,345.904 551.858,346.571 557.5,347.5C 569.561,348.085 577.561,342.752 581.5,331.5 Z"/></g>
<g><path style="opacity:1" fill="#fbfbfb" d="M 300.5,332.5 C 301.787,333.871 302.453,335.705 302.5,338C 298.944,351.544 303.277,361.544 315.5,368C 313.077,378.749 307.744,387.749 299.5,395C 290.507,402.33 280.507,407.83 269.5,411.5C 265.266,411.155 261.432,409.821 258,407.5C 258.177,388.276 262.511,369.943 271,352.5C 273.045,349.577 275.212,346.743 277.5,344C 285.017,339.674 292.683,335.841 300.5,332.5 Z"/></g>
<g><path style="opacity:1" fill="#fafafa" d="M 478.5,335.5 C 485.305,338.789 491.138,343.456 496,349.5C 502.06,357.897 507.727,366.563 513,375.5C 513.667,377.167 513.667,378.833 513,380.5C 512.023,384.268 510.523,387.768 508.5,391C 505.5,391.667 502.5,391.667 499.5,391C 481.463,384.613 465.796,374.613 452.5,361C 446.016,359.134 442.516,354.967 442,348.5C 450.905,353.204 460.072,353.704 469.5,350C 474.807,346.541 477.807,341.707 478.5,335.5 Z"/></g>
<g><path style="opacity:1" fill="#fcfcfc" d="M 353.5,347.5 C 355.677,347.586 357.677,348.253 359.5,349.5C 360.328,354.132 360.828,358.798 361,363.5C 366.818,372.656 372.651,381.823 378.5,391C 374.519,403.793 370.686,416.627 367,429.5C 363.272,438.729 356.772,445.062 347.5,448.5C 345.376,446.879 343.376,445.046 341.5,443C 338.809,443.054 336.976,441.887 336,439.5C 330.388,424.607 325.055,409.607 320,394.5C 319.333,389.833 319.333,385.167 320,380.5C 321.863,376.351 323.03,372.018 323.5,367.5C 336.434,365.232 346.434,358.565 353.5,347.5 Z"/></g>
<g><path style="opacity:1" fill="#939393" d="M 371.5,353.5 C 369.631,355.635 368.964,358.302 369.5,361.5C 368.523,358.713 368.19,355.713 368.5,352.5C 369.791,352.263 370.791,352.596 371.5,353.5 Z"/></g>
<g><path style="opacity:1" fill="#f9f9f9" d="M 420.5,351.5 C 432.284,367.897 441.618,385.73 448.5,405C 446.905,415.162 445.405,425.329 444,435.5C 442.143,441.178 438.309,443.345 432.5,442C 420.311,433.978 410.311,423.811 402.5,411.5C 412.787,412.779 419.954,408.779 424,399.5C 424.667,391.833 424.667,384.167 424,376.5C 422.785,368.163 421.619,359.83 420.5,351.5 Z"/></g>
<g><path style="opacity:1" fill="#fafafa" d="M 534.5,366.5 C 539.956,368.766 544.789,372.099 549,376.5C 559.179,390.178 567.845,404.844 575,420.5C 575.769,423.099 575.602,425.599 574.5,428C 571.072,428.701 567.738,428.368 564.5,427C 545.7,414.693 532.7,397.86 525.5,376.5C 528.579,373.095 531.579,369.762 534.5,366.5 Z"/></g>
<g><path style="opacity:1" fill="#fbfbfb" d="M 450.5,370.5 C 465.731,385.534 483.898,395.201 505,399.5C 510.153,399.784 514.153,397.784 517,393.5C 518.016,390.432 519.183,387.432 520.5,384.5C 523.871,392.909 528.038,400.909 533,408.5C 533.431,422.087 531.765,435.42 528,448.5C 526.136,451.207 523.636,452.041 520.5,451C 498.047,437.547 479.88,419.714 466,397.5C 460.81,388.445 455.643,379.445 450.5,370.5 Z"/></g>
<g><path style="opacity:1" fill="#fbfbfb" d="M 193.5,377.5 C 195.288,377.215 196.955,377.548 198.5,378.5C 206.339,386.089 215.672,391.089 226.5,393.5C 227.932,393.733 228.432,394.4 228,395.5C 212.107,414.131 191.94,422.631 167.5,421C 164.943,420.315 163.109,418.815 162,416.5C 160.098,407.211 162.098,398.878 168,391.5C 176.666,386.969 185.166,382.303 193.5,377.5 Z"/></g>
<g><path style="opacity:1" fill="#fbfbfb" d="M 310.5,394.5 C 313.985,404.847 318.152,415.181 323,425.5C 324.854,429.708 325.854,434.041 326,438.5C 317.5,447.667 309,456.833 300.5,466C 295.155,471.004 289.155,475.004 282.5,478C 272.788,478.65 266.621,474.15 264,464.5C 258.866,449.283 256.699,433.616 257.5,417.5C 264.877,418.953 272.211,418.786 279.5,417C 291.415,411.571 301.748,404.071 310.5,394.5 Z"/></g>
<g><path style="opacity:1" fill="#cccccc" d="M 465.5,412.5 C 461.777,408.08 458.277,403.414 455,398.5C 453.086,395.702 452.086,392.702 452,389.5C 456.523,397.222 461.023,404.888 465.5,412.5 Z"/></g>
<g><path style="opacity:1" fill="#f9f9f9" d="M 384.5,398.5 C 387.215,400.902 389.715,403.568 392,406.5C 396.417,418.997 403.584,429.663 413.5,438.5C 408.805,446.935 402.138,448.768 393.5,444C 390.446,441.806 387.112,440.139 383.5,439C 380.091,436.966 377.091,434.466 374.5,431.5C 377.844,420.472 381.177,409.472 384.5,398.5 Z"/></g>
<g><path style="opacity:1" fill="#f9f9f9" d="M 454.5,413.5 C 465.122,425.724 472.955,439.724 478,455.5C 479.464,464.12 479.798,472.787 479,481.5C 478.481,482.516 477.647,483.182 476.5,483.5C 466.22,479.028 456.554,473.528 447.5,467C 445.274,461.213 442.274,455.88 438.5,451C 444.272,448.894 448.438,445.061 451,439.5C 452.332,430.847 453.498,422.181 454.5,413.5 Z"/></g>
<g><path style="opacity:1" fill="#f9f9f9" d="M 419.5,443.5 C 423.032,444.854 426.198,446.854 429,449.5C 438.024,465.906 443.858,483.406 446.5,502C 446.656,505.848 445.323,509.014 442.5,511.5C 438.652,510.161 435.486,507.828 433,504.5C 417.02,485.686 400.853,467.019 384.5,448.5C 384.667,448.167 384.833,447.833 385,447.5C 394.16,455.209 403.993,456.376 414.5,451C 416.808,448.872 418.474,446.372 419.5,443.5 Z"/></g>
<g><path style="opacity:1" fill="#f6f6f6" d="M 365.5,549.5 C 366.5,549.5 367.5,549.5 368.5,549.5C 366.732,556.186 363.065,561.686 357.5,566C 342.667,576.833 327.833,587.667 313,598.5C 315.082,593.69 317.748,589.023 321,584.5C 327.846,573.989 336.346,565.156 346.5,558C 352.81,554.852 359.143,552.019 365.5,549.5 Z"/></g>
<g><path style="opacity:1" fill="#f7f7f7" d="M 261.5,601.5 C 269.787,600.559 276.287,603.559 281,610.5C 286.592,619.298 290.092,628.631 291.5,638.5C 274.72,622.639 255.386,618.472 233.5,626C 237.455,620.377 241.788,615.043 246.5,610C 250.978,606.098 255.978,603.265 261.5,601.5 Z"/></g>
<g><path style="opacity:1" fill="#f8f8f8" d="M 464.5,721.5 C 468.067,723.557 471.234,726.223 474,729.5C 477.047,737.288 482.38,741.288 490,741.5C 483.462,749.706 475.962,756.872 467.5,763C 455.296,771.096 442.629,778.096 429.5,784C 446.203,766.105 457.869,745.272 464.5,721.5 Z"/></g>
<g><path style="opacity:1" fill="#f7f7f7" d="M 452.5,724.5 C 453.675,724.281 454.675,724.614 455.5,725.5C 451.547,735.407 447.047,745.074 442,754.5C 433.886,766.282 425.386,777.782 416.5,789C 401.833,796.667 387.167,804.333 372.5,812C 363.159,817.335 354.159,823.168 345.5,829.5C 345.167,829 344.833,828.5 344.5,828C 347.473,821.08 349.64,813.913 351,806.5C 354.427,785.509 357.761,764.509 361,743.5C 362.252,745.001 363.252,746.668 364,748.5C 364.219,755.908 365.053,763.241 366.5,770.5C 366.333,771.5 366.167,772.5 366,773.5C 361.699,777.967 360.365,783.3 362,789.5C 363.77,798.137 368.936,801.304 377.5,799C 383.457,797.377 387.957,793.877 391,788.5C 395.588,778.402 399.588,768.069 403,757.5C 405.584,751.416 409.75,746.75 415.5,743.5C 417.699,746.718 420.033,749.884 422.5,753C 423.833,753.667 425.167,753.667 426.5,753C 434.011,742.328 442.678,732.828 452.5,724.5 Z"/></g>
<g><path style="opacity:1" fill="#f6f6f6" d="M 350.5,747.5 C 349.728,767.162 347.228,786.828 343,806.5C 342.877,793.291 338.71,781.625 330.5,771.5C 332.048,765.621 334.048,759.954 336.5,754.5C 341.61,752.917 346.276,750.584 350.5,747.5 Z"/></g>
<g><path style="opacity:1" fill="#f7f7f7" d="M 494.5,748.5 C 495.156,749.622 495.489,750.955 495.5,752.5C 494.97,755.898 494.137,759.232 493,762.5C 489.559,769.253 485.392,775.42 480.5,781C 482.189,785.684 485.523,788.684 490.5,790C 493.833,790.333 497.167,790.667 500.5,791C 496.804,792.969 492.804,793.969 488.5,794C 473.999,794.467 459.499,794.967 445,795.5C 439.725,795.616 434.558,795.116 429.5,794C 449.006,784.421 467.339,773.088 484.5,760C 488.416,756.59 491.749,752.757 494.5,748.5 Z"/></g>
<g><path style="opacity:1" fill="#f7f7f7" d="M 320.5,776.5 C 325.896,779.399 329.73,783.733 332,789.5C 333.992,798.762 335.658,808.095 337,817.5C 337.692,818.025 338.192,818.692 338.5,819.5C 336.016,826.781 333.849,834.114 332,841.5C 327.965,845.2 324.298,849.2 321,853.5C 318.214,841.577 316.214,829.577 315,817.5C 316,815.833 317,814.167 318,812.5C 320.058,814.068 322.225,815.402 324.5,816.5C 326.867,816.487 328.2,815.32 328.5,813C 324.457,807.755 321.29,801.922 319,795.5C 317.97,788.959 318.47,782.626 320.5,776.5 Z"/></g>
<g><path style="opacity:1" fill="#f9f9f9" d="M 481.5,802.5 C 484.385,802.194 487.052,802.527 489.5,803.5C 480.566,810.469 470.566,815.635 459.5,819C 458.106,819.956 457.439,821.289 457.5,823C 458.249,825.545 458.749,828.045 459,830.5C 448.247,823.416 436.414,819.416 423.5,818.5C 414.436,818.114 407.602,821.781 403,829.5C 401.619,840.886 406.452,848.386 417.5,852C 423.627,853.08 429.794,853.914 436,854.5C 443.061,856.061 447.228,860.394 448.5,867.5C 448.523,869.067 448.023,870.4 447,871.5C 434.491,867.249 421.658,865.749 408.5,867C 402.762,860.592 396.429,854.925 389.5,850C 377.837,845.314 365.837,844.314 353.5,847C 345.299,849.839 337.299,852.839 329.5,856C 340.745,842.417 354.079,831.417 369.5,823C 382.062,815.552 395.062,808.885 408.5,803C 412.097,802.028 415.764,801.528 419.5,801.5C 427.624,802.659 435.791,803.326 444,803.5C 456.491,802.795 468.991,802.462 481.5,802.5 Z"/></g>
<g><path style="opacity:1" fill="#999999" d="M 481.5,802.5 C 484.64,801.359 487.973,801.192 491.5,802C 490.956,802.717 490.289,803.217 489.5,803.5C 487.052,802.527 484.385,802.194 481.5,802.5 Z"/></g>
<g><path style="opacity:1" fill="#fbfbfb" d="M 324.5,873.5 C 321.833,872.833 319.167,872.167 316.5,871.5C 330.046,864.811 344.046,858.978 358.5,854C 370.641,851.534 381.641,853.867 391.5,861C 395,864.5 398.5,868 402,871.5C 412.487,892.482 423.987,912.816 436.5,932.5C 407.824,941.408 386.991,932.408 374,905.5C 371.028,898.279 368.361,890.945 366,883.5C 364.199,879.391 362.032,875.558 359.5,872C 358.167,871.333 356.833,871.333 355.5,872C 352.931,874.479 350.598,877.146 348.5,880C 346.801,880.958 344.967,881.458 343,881.5C 336.964,878.657 330.798,875.991 324.5,873.5 Z"/></g>
<g><path style="opacity:1" fill="#b3b3b3" d="M 316.5,871.5 C 319.167,872.167 321.833,872.833 324.5,873.5C 320.941,873.284 317.441,873.618 314,874.5C 313.5,874.167 313,873.833 312.5,873.5C 313.577,872.295 314.91,871.628 316.5,871.5 Z"/></g>
<g><path style="opacity:1" fill="#f6f6f6" d="M 412.5,875.5 C 423.486,873.377 434.152,874.71 444.5,879.5C 445.422,882.684 446.422,885.851 447.5,889C 447.167,889.5 446.833,890 446.5,890.5C 443.634,889.205 440.801,889.205 438,890.5C 437.667,899.5 437.333,908.5 437,917.5C 428.172,903.85 420.005,889.85 412.5,875.5 Z"/></g>
<g><path style="opacity:1" fill="#fafafa" d="M 109.5,965.5 C 114.671,967.346 119.171,970.346 123,974.5C 131.333,992.5 139.667,1010.5 148,1028.5C 150.281,1034.57 154.448,1038.74 160.5,1041C 169.966,1040.21 175.8,1035.05 178,1025.5C 178.667,1019.83 178.667,1014.17 178,1008.5C 175.388,1000.61 171.721,993.276 167,986.5C 165.693,982.717 164.526,978.884 163.5,975C 163.85,973.743 164.517,973.409 165.5,974C 196.726,1007.67 210.893,1047.51 208,1093.5C 183.389,1076.55 159.055,1059.22 135,1041.5C 133.725,1039.28 132.725,1036.95 132,1034.5C 131.26,1024.13 128.26,1014.46 123,1005.5C 118.817,999.138 114.15,993.138 109,987.5C 103.126,981.957 96.9592,976.79 90.5,972C 91.1667,971.333 91.8333,971.333 92.5,972C 98.9129,976.623 105.413,981.123 112,985.5C 111.827,978.782 110.994,972.116 109.5,965.5 Z"/></g>
<g><path style="opacity:1" fill="#f9f9f9" d="M 68.5,968.5 C 72.8191,967.799 76.4858,968.966 79.5,972C 91.971,983.47 104.138,995.304 116,1007.5C 119.732,1013.04 122.065,1019.04 123,1025.5C 101.167,1009 79.3333,992.5 57.5,976C 61.2326,973.477 64.8992,970.977 68.5,968.5 Z"/></g>
<g><path style="opacity:1" fill="#f8f8f8" d="M 190.5,972.5 C 194.273,971.822 197.106,973.156 199,976.5C 207.984,990.058 209.651,1004.39 204,1019.5C 195.041,1005.08 186.208,990.583 177.5,976C 182.046,975.151 186.379,973.985 190.5,972.5 Z"/></g>
<g><path style="opacity:1" fill="#f7f7f7" d="M 48.5,981.5 C 70.8135,991.82 90.4802,1005.82 107.5,1023.5C 107.167,1023.83 106.833,1024.17 106.5,1024.5C 91.3835,1018.18 75.7168,1014.02 59.5,1012C 55.9295,1001.79 52.2628,991.621 48.5,981.5 Z"/></g>
<g><path style="opacity:1" fill="#f9f9f9" d="M 226.5,981.5 C 228.39,981.297 229.89,981.963 231,983.5C 231.824,993.212 231.491,1002.88 230,1012.5C 222.102,1035.71 220.435,1059.38 225,1083.5C 227.383,1093.05 230.049,1102.38 233,1111.5C 225.827,1107.17 220.494,1101.17 217,1093.5C 216.513,1076.33 214.513,1059.33 211,1042.5C 209.018,1025.08 211.684,1008.41 219,992.5C 221.33,988.678 223.83,985.012 226.5,981.5 Z"/></g>
<g><path style="opacity:1" fill="#9e9e9e" d="M 69.5,1020.5 C 66.8333,1020.5 64.1667,1020.5 61.5,1020.5C 61.5,1023.83 61.5,1027.17 61.5,1030.5C 60.5184,1027.04 60.185,1023.37 60.5,1019.5C 63.7131,1019.19 66.7131,1019.52 69.5,1020.5 Z"/></g>
<g><path style="opacity:1" fill="#fafafa" d="M 69.5,1020.5 C 86.4699,1024.99 102.803,1031.16 118.5,1039C 132.856,1048.85 146.856,1059.18 160.5,1070C 175.567,1080.06 190.9,1089.73 206.5,1099C 183.812,1107.07 162.146,1104.74 141.5,1092C 139.667,1090.17 137.833,1088.33 136,1086.5C 135.428,1079.21 133.762,1072.21 131,1065.5C 112.883,1049.7 91.7159,1040.87 67.5,1039C 63.7241,1037.39 61.7241,1034.56 61.5,1030.5C 61.5,1027.17 61.5,1023.83 61.5,1020.5C 64.1667,1020.5 66.8333,1020.5 69.5,1020.5 Z"/></g>
<g><path style="opacity:1" fill="#f6f6f6" d="M 162.5,1108.5 C 161.081,1109.45 159.415,1109.78 157.5,1109.5C 127.242,1109.85 98.2416,1104.18 70.5,1092.5C 75.1526,1089.41 80.1526,1088.74 85.5,1090.5C 90.0078,1090.67 93.0078,1088.67 94.5,1084.5C 95.3333,1084.17 96.1667,1083.83 97,1083.5C 107.124,1085.87 117.29,1088.04 127.5,1090C 139.194,1096.18 150.86,1102.35 162.5,1108.5 Z"/></g>
<g><path style="opacity:1" fill="#f9f9f9" d="M 207.5,1105.5 C 210.518,1105.34 213.518,1105.5 216.5,1106C 223.167,1112.67 229.833,1119.33 236.5,1126C 227.461,1122.5 218.128,1119.5 208.5,1117C 200.365,1115.28 193.031,1116.95 186.5,1122C 181.611,1126.39 177.278,1131.22 173.5,1136.5C 172.375,1133.55 170.375,1131.55 167.5,1130.5C 162.112,1133.73 156.612,1136.73 151,1139.5C 147.051,1138.56 143.885,1136.4 141.5,1133C 139.608,1132.03 137.608,1131.36 135.5,1131C 120.494,1130.74 105.494,1130.74 90.5,1131C 81.6647,1126.96 80.8313,1122.13 88,1116.5C 89.6863,1113.91 89.8529,1111.25 88.5,1108.5C 89.3333,1108.17 90.1667,1107.83 91,1107.5C 120.101,1115.7 149.601,1117.86 179.5,1114C 189.327,1112.38 198.661,1109.55 207.5,1105.5 Z"/></g>
<g><path style="opacity:1" fill="#7b7b7b" d="M 162.5,1108.5 C 163.289,1108.78 163.956,1109.28 164.5,1110C 161.961,1110.8 159.628,1110.63 157.5,1109.5C 159.415,1109.78 161.081,1109.45 162.5,1108.5 Z"/></g>
</svg>
