<?xml version="1.0" encoding="UTF-8"?>
<!DOCTYPE svg PUBLIC "-//W3C//DTD SVG 1.1//EN" "http://www.w3.org/Graphics/SVG/1.1/DTD/svg11.dtd">
<svg xmlns="http://www.w3.org/2000/svg" version="1.1" width="748px" height="1648px" style="shape-rendering:geometricPrecision; text-rendering:geometricPrecision; image-rendering:optimizeQuality; fill-rule:evenodd; clip-rule:evenodd" xmlns:xlink="http://www.w3.org/1999/xlink">
<g><path style="opacity:1" fill="#fefefe" d="M -0.5,-0.5 C 248.833,-0.5 498.167,-0.5 747.5,-0.5C 747.5,548.833 747.5,1098.17 747.5,1647.5C 498.167,1647.5 248.833,1647.5 -0.5,1647.5C -0.5,1098.17 -0.5,548.833 -0.5,-0.5 Z"/></g>
<g><path style="opacity:1" fill="#070707" d="M 582.5,249.5 C 581.566,250.568 581.232,251.901 581.5,253.5C 583.167,253.5 584.833,253.5 586.5,253.5C 610.303,253.477 624.136,265.143 628,288.5C 628.667,297.833 628.667,307.167 628,316.5C 625.835,325.159 623.669,333.826 621.5,342.5C 623.226,348.847 625.059,355.181 627,361.5C 628.936,371.418 626.936,380.418 621,388.5C 608.221,403.289 593.055,414.789 575.5,423C 569.621,424.907 563.621,426.074 557.5,426.5C 556.489,430.856 554.656,434.856 552,438.5C 548.167,442.333 544.333,446.167 540.5,450C 529.5,457 518.5,464 507.5,471C 505,473.5 502.5,476 500,478.5C 496.165,485.508 491.831,492.174 487,498.5C 481.397,503.784 475.564,508.617 469.5,513C 488.281,587.976 496.948,664.143 495.5,741.5C 493.1,1021.09 428.6,1285.09 302,1533.5C 287.259,1561.32 271.759,1588.65 255.5,1615.5C 253.004,1614.42 250.67,1613.09 248.5,1611.5C 247.417,1610.64 247.251,1609.64 248,1608.5C 364.782,1408.5 438.782,1193.5 470,963.5C 483.647,864.561 487.98,765.227 483,665.5C 479.747,615.473 472.08,566.139 460,517.5C 459.439,516.978 458.772,516.645 458,516.5C 453.953,518.053 449.787,519.053 445.5,519.5C 448.506,530.744 449.006,542.077 447,553.5C 437.793,565.707 426.96,576.207 414.5,585C 411.756,585.803 409.089,586.803 406.5,588C 396.542,589.165 386.542,589.832 376.5,590C 362.788,594.354 348.788,595.688 334.5,594C 327.829,596.002 321.162,598.002 314.5,600C 310.095,600.696 305.761,600.363 301.5,599C 287.126,592.656 272.126,588.656 256.5,587C 253.705,585.207 251.205,583.04 249,580.5C 243.463,573.261 238.296,565.761 233.5,558C 219.87,559.077 206.203,559.744 192.5,560C 175.674,548.088 157.341,539.088 137.5,533C 127.411,529.21 120.245,522.377 116,512.5C 109.072,494.715 102.738,476.715 97,458.5C 96.2667,448.14 96.4334,437.806 97.5,427.5C 94.3926,427.649 91.3926,427.149 88.5,426C 70.6537,416.826 55.1537,404.66 42,389.5C 39.5651,386.066 37.5651,382.4 36,378.5C 34.4223,371.543 33.0889,364.543 32,357.5C 28.3888,351.556 24.3888,345.889 20,340.5C 17.0671,332.964 16.7338,325.297 19,317.5C 24.2095,308.414 28.8762,299.081 33,289.5C 33.0442,279.832 33.0442,270.165 33,260.5C 40.7663,243.484 51.5996,228.651 65.5,216C 74.5757,208.796 84.909,204.963 96.5,204.5C 96.0603,188.11 96.5603,171.776 98,155.5C 100.911,149.082 105.744,145.082 112.5,143.5C 116.226,143.823 119.893,143.489 123.5,142.5C 123.376,141.893 123.043,141.56 122.5,141.5C 120.194,133.414 118.194,125.247 116.5,117C 116.78,113.048 117.613,109.215 119,105.5C 124.002,94.7967 129.002,84.1301 134,73.5C 141.123,67.3831 147.123,60.3831 152,52.5C 159.502,42.9993 169.335,38.166 181.5,38C 192.929,30.5181 205.429,27.6848 219,29.5C 229.176,29.0431 239.176,30.0431 249,32.5C 264.268,30.7635 279.434,31.2635 294.5,34C 296.909,35.2007 298.909,36.8674 300.5,39C 305.112,40.6394 309.446,42.8061 313.5,45.5C 315.958,34.5989 320.958,25.0989 328.5,17C 337.847,9.66534 347.847,8.66534 358.5,14C 367.218,21.0522 376.218,27.7189 385.5,34C 396.833,34 408.167,34 419.5,34C 430.12,39.9236 440.787,45.9236 451.5,52C 458.578,54.4703 465.578,57.137 472.5,60C 474.667,62.1667 476.833,64.3333 479,66.5C 482.008,73.5341 485.008,80.5341 488,87.5C 492.926,90.7142 498.093,93.5475 503.5,96C 508.913,100.655 512.413,106.488 514,113.5C 529.167,95.5461 545.834,93.8794 564,108.5C 566.667,112.5 569.333,116.5 572,120.5C 591.445,136.368 605.778,156.034 615,179.5C 613.565,207.362 602.731,230.695 582.5,249.5 Z"/></g>
<g><path style="opacity:1" fill="#fdfdfd" d="M 340.5,21.5 C 346.275,20.7745 351.608,21.9412 356.5,25C 364.325,32.4929 372.992,38.8262 382.5,44C 385.764,44.9389 389.097,45.4389 392.5,45.5C 400.437,43.9022 408.437,43.4022 416.5,44C 422.834,47.1647 428.834,50.8313 434.5,55C 445.838,60.5866 457.338,65.7533 469,70.5C 472.473,78.5844 476.14,86.5844 480,94.5C 485.092,98.2984 490.592,101.465 496.5,104C 498,105.5 499.5,107 501,108.5C 503.137,114.579 505.471,120.579 508,126.5C 512.712,131.543 517.045,136.877 521,142.5C 521.667,144.167 521.667,145.833 521,147.5C 518.467,153.432 516.134,159.432 514,165.5C 516.515,179.288 512.682,190.788 502.5,200C 498.769,202.266 494.769,203.266 490.5,203C 486.033,197.532 481.2,192.365 476,187.5C 474.065,184.448 472.732,181.115 472,177.5C 471.812,169.782 471.146,162.115 470,154.5C 465.161,141.159 455.661,135.659 441.5,138C 433.467,140.183 426.467,144.183 420.5,150C 396.517,173.975 374.017,199.142 353,225.5C 354.572,202.385 355.739,179.218 356.5,156C 357.926,138.39 355.093,121.556 348,105.5C 343,98.8333 338,92.1667 333,85.5C 330.514,77.8909 328.181,70.2242 326,62.5C 324.961,60.2537 323.794,58.087 322.5,56C 323.68,47.4518 326.18,39.2851 330,31.5C 332.738,27.2595 336.238,23.9262 340.5,21.5 Z"/></g>
<g><path style="opacity:1" fill="#fcfcfc" d="M 256.5,42.5 C 261.363,42.1805 266.03,42.5139 270.5,43.5C 266.992,46.087 263.326,48.4203 259.5,50.5C 246.069,44.983 234.903,47.983 226,59.5C 209.265,82.7022 200.265,108.702 199,137.5C 194.167,132.667 189.333,127.833 184.5,123C 174.638,116.646 165.305,117.312 156.5,125C 152.286,129.546 148.453,134.379 145,139.5C 139.173,145.461 134.84,144.461 132,136.5C 130.872,131.448 129.538,126.448 128,121.5C 127.333,118.167 127.333,114.833 128,111.5C 132.551,102.399 136.551,93.0654 140,83.5C 148.833,73.3333 157.667,63.1667 166.5,53C 168.5,52 170.5,51 172.5,50C 182.186,48.9936 191.186,45.9936 199.5,41C 206.973,40.1011 214.473,39.6011 222,39.5C 233.475,40.8256 244.975,41.8256 256.5,42.5 Z"/></g>
<g><path style="opacity:1" fill="#525252" d="M 256.5,42.5 C 261.65,41.3493 266.984,41.1826 272.5,42C 271.956,42.7172 271.289,43.2172 270.5,43.5C 266.03,42.5139 261.363,42.1805 256.5,42.5 Z"/></g>
<g><path style="opacity:1" fill="#fdfdfd" d="M 283.5,48.5 C 298.251,46.9566 309.085,52.6233 316,65.5C 317.924,74.8667 320.924,83.8667 325,92.5C 329.333,98.1667 333.667,103.833 338,109.5C 339.941,113.048 341.607,116.714 343,120.5C 346.932,143.716 347.598,167.049 345,190.5C 344.205,203.569 342.871,216.569 341,229.5C 336.355,227.501 331.522,226.001 326.5,225C 319.159,218.001 310.492,215.668 300.5,218C 290.801,221.362 283.134,227.362 277.5,236C 276.833,236.667 276.167,236.667 275.5,236C 260,220.5 244.5,205 229,189.5C 223.672,181.874 219.672,173.541 217,164.5C 214.839,159.508 212.172,154.841 209,150.5C 208.548,121.638 215.881,94.9718 231,70.5C 234.214,65.6184 238.381,61.7851 243.5,59C 250.452,59.7537 257.452,60.087 264.5,60C 270.499,55.4769 276.832,51.6436 283.5,48.5 Z"/></g>
<g><path style="opacity:1" fill="#fdfdfd" d="M 535.5,109.5 C 544.043,107.797 551.21,110.131 557,116.5C 559.333,120.167 561.667,123.833 564,127.5C 572.333,134.5 580,142.167 587,150.5C 593.173,160.175 598.84,170.175 604,180.5C 603.885,189.746 602.218,198.746 599,207.5C 593.824,218.162 587.658,228.162 580.5,237.5C 579.562,238.553 578.395,239.22 577,239.5C 571.501,234.981 566.335,230.148 561.5,225C 550.658,221.243 539.658,218.077 528.5,215.5C 519.533,217.713 511.2,216.379 503.5,211.5C 520.179,201.705 527.013,187.039 524,167.5C 525.393,163.714 527.059,160.048 529,156.5C 532.164,149.098 532.164,141.764 529,134.5C 525.82,130.655 522.653,126.822 519.5,123C 524.316,117.777 529.649,113.277 535.5,109.5 Z"/></g>
<g><path style="opacity:1" fill="#fefefe" d="M 167.5,129.5 C 170.978,129.184 174.312,129.684 177.5,131C 187.827,139.985 196.66,150.151 204,161.5C 207.058,168.007 209.725,174.674 212,181.5C 214.245,186.997 217.245,191.997 221,196.5C 237.167,212.667 253.333,228.833 269.5,245C 261.457,253.335 258.79,263.169 261.5,274.5C 257.447,275.35 253.447,276.516 249.5,278C 230.891,288.525 210.891,294.525 189.5,296C 180.199,297.349 170.866,297.683 161.5,297C 150.167,288.333 138.833,279.667 127.5,271C 118.464,262.431 112.964,251.931 111,239.5C 106.892,212.9 105.892,186.233 108,159.5C 109.122,157.376 110.622,155.543 112.5,154C 119.362,153.837 126.195,154.337 133,155.5C 137.838,155.666 142.338,154.499 146.5,152C 153.855,144.753 160.855,137.253 167.5,129.5 Z"/></g>
<g><path style="opacity:1" fill="#989898" d="M 122.5,141.5 C 123.043,141.56 123.376,141.893 123.5,142.5C 119.893,143.489 116.226,143.823 112.5,143.5C 115.833,142.833 119.167,142.167 122.5,141.5 Z"/></g>
<g><path style="opacity:1" fill="#fdfdfd" d="M 443.5,147.5 C 450.265,146.469 455.432,148.802 459,154.5C 460.935,163.376 461.935,172.376 462,181.5C 463.196,186.223 465.196,190.557 468,194.5C 477.516,203.234 485.849,212.901 493,223.5C 497.146,235.42 495.813,246.754 489,257.5C 478.299,273.442 463.466,283.276 444.5,287C 421.92,290.712 399.253,291.378 376.5,289C 371.418,287.986 366.418,286.653 361.5,285C 360.715,282.557 360.881,280.057 362,277.5C 362.667,273.5 362.667,269.5 362,265.5C 359.885,256.985 357.551,248.652 355,240.5C 377.735,211.26 402.235,183.426 428.5,157C 433.16,153.149 438.16,149.982 443.5,147.5 Z"/></g>
<g><path style="opacity:1" fill="#fdfdfd" d="M 88.5,215.5 C 91.5,215.5 94.5,215.5 97.5,215.5C 98.1933,225.943 99.6933,236.276 102,246.5C 104.856,258.716 110.689,269.216 119.5,278C 124.987,282.576 130.653,286.909 136.5,291C 109.225,288.213 89.7253,299.047 78,323.5C 76.1454,332.616 78.9787,339.782 86.5,345C 95.057,348.306 103.724,351.306 112.5,354C 120.167,359 127.833,364 135.5,369C 142.784,370.624 150.118,371.957 157.5,373C 155.999,374.252 154.332,375.252 152.5,376C 141.35,377.159 131.85,381.659 124,389.5C 118.833,398.99 112.333,407.49 104.5,415C 100.625,416.52 96.6251,416.854 92.5,416C 75.6993,408.202 61.5326,397.035 50,382.5C 48.0797,379.661 46.4131,376.661 45,373.5C 45.2305,358.972 40.2305,346.639 30,336.5C 26.754,330.53 26.754,324.53 30,318.5C 36.0021,309.495 40.6688,299.829 44,289.5C 44.7977,282.704 44.2977,276.038 42.5,269.5C 42.6916,264.425 44.1916,259.758 47,255.5C 54.7016,241.135 65.2016,229.301 78.5,220C 81.8932,218.38 85.2265,216.88 88.5,215.5 Z"/></g>
<g><path style="opacity:1" fill="#fdfdfd" d="M 504.5,224.5 C 506.179,224.892 507.846,225.392 509.5,226C 518.167,226.333 526.833,226.667 535.5,227C 541.812,230.326 548.479,232.66 555.5,234C 560.313,239.144 565.48,243.977 571,248.5C 569.771,266.884 567.771,285.217 565,303.5C 558.996,321.523 551.829,339.023 543.5,356C 535.712,357.484 528.379,360.151 521.5,364C 507.62,365.592 494.954,362.425 483.5,354.5C 483.583,345.673 481.083,337.673 476,330.5C 466.535,318.701 456.035,307.868 444.5,298C 476.439,292.057 496.939,273.557 506,242.5C 506.899,236.353 506.399,230.353 504.5,224.5 Z"/></g>
<g><path style="opacity:1" fill="#d6d6d6" d="M 303.5,227.5 C 306.518,227.335 309.518,227.502 312.5,228C 312.957,228.414 313.291,228.914 313.5,229.5C 309.541,230.327 305.541,230.827 301.5,231C 299.919,231.707 298.419,232.54 297,233.5C 296.383,232.551 296.549,231.718 297.5,231C 299.727,230.059 301.727,228.892 303.5,227.5 Z"/></g>
<g><path style="opacity:1" fill="#e1e1e1" d="M 302.5,236.5 C 305.85,236.335 309.183,236.502 312.5,237C 312.957,237.414 313.291,237.914 313.5,238.5C 310.339,241.894 306.672,242.394 302.5,240C 301.316,238.855 301.316,237.688 302.5,236.5 Z"/></g>
<g><path style="opacity:1" fill="#ebebeb" d="M 290.5,236.5 C 291.665,237.496 292.332,238.829 292.5,240.5C 291.67,242.828 290.837,245.162 290,247.5C 284.582,249.199 280.582,252.532 278,257.5C 277.251,263.991 277.584,270.324 279,276.5C 275.558,274.13 272.891,271.13 271,267.5C 270.926,262.295 272.593,257.628 276,253.5C 281.044,247.961 285.877,242.294 290.5,236.5 Z"/></g>
<g><path style="opacity:1" fill="#eeeeee" d="M 329.5,236.5 C 335.396,237.227 340.229,239.893 344,244.5C 344.667,245.167 344.667,245.833 344,246.5C 336.849,242.077 329.349,241.411 321.5,244.5C 320.526,242.257 320.192,239.924 320.5,237.5C 323.713,237.81 326.713,237.477 329.5,236.5 Z"/></g>
<g><path style="opacity:1" fill="#d7d7d7" d="M 297.5,244.5 C 299.983,244.73 300.483,245.397 299,246.5C 297.97,246.164 297.47,245.497 297.5,244.5 Z"/></g>
<g><path style="opacity:1" fill="#ededed" d="M 302.5,247.5 C 305.979,247.611 309.646,247.444 313.5,247C 311.774,250.967 309.44,254.467 306.5,257.5C 305.682,254.893 305.182,252.226 305,249.5C 304.292,248.619 303.458,247.953 302.5,247.5 Z"/></g>
<g><path style="opacity:1" fill="#f1f1f1" d="M 327.5,248.5 C 340.89,247.699 345.056,253.365 340,265.5C 338.667,266.833 337.333,268.167 336,269.5C 336.714,259.03 332.38,256.03 323,260.5C 321.255,259.044 319.422,257.711 317.5,256.5C 320.011,252.64 323.344,249.974 327.5,248.5 Z"/></g>
<g><path style="opacity:1" fill="#7d7d7d" d="M 582.5,249.5 C 582.5,250.5 582.5,251.5 582.5,252.5C 584.099,252.232 585.432,252.566 586.5,253.5C 584.833,253.5 583.167,253.5 581.5,253.5C 581.232,251.901 581.566,250.568 582.5,249.5 Z"/></g>
<g><path style="opacity:1" fill="#d3d3d3" d="M 295.5,252.5 C 296.833,252.5 298.167,252.5 299.5,252.5C 300.52,257.463 298.687,260.796 294,262.5C 293.537,259.02 294.037,255.686 295.5,252.5 Z"/></g>
<g><path style="opacity:1" fill="#f1f1f1" d="M 348.5,257.5 C 350.89,261.558 351.89,266.058 351.5,271C 352.527,276.414 350.861,280.747 346.5,284C 340.681,284.827 335.014,285.827 329.5,287C 332.463,284.125 334.296,280.625 335,276.5C 343.416,273.018 347.916,266.684 348.5,257.5 Z"/></g>
<g><path style="opacity:1" fill="#fcfcfc" d="M 580.5,263.5 C 589.671,263.083 598.338,264.916 606.5,269C 613.929,275.025 617.762,282.859 618,292.5C 618.667,298.833 618.667,305.167 618,311.5C 615.731,321.474 613.565,331.474 611.5,341.5C 612.404,349.38 614.237,357.047 617,364.5C 617.931,370.705 616.598,376.372 613,381.5C 601.893,393.951 589.059,404.118 574.5,412C 568.738,414.61 562.738,415.61 556.5,415C 554.576,404.819 549.576,396.485 541.5,390C 533.828,384.829 525.828,380.162 517.5,376C 527.315,372.091 537.315,368.758 547.5,366C 549.96,364.542 552.127,362.709 554,360.5C 561.591,342.725 568.591,324.725 575,306.5C 577.528,292.246 579.361,277.912 580.5,263.5 Z"/></g>
<g><path style="opacity:1" fill="#efefef" d="M 286.5,255.5 C 287.497,255.47 288.164,255.97 288.5,257C 286.836,262.19 287.503,267.023 290.5,271.5C 296.001,273.842 300.001,272.342 302.5,267C 305.102,266.023 307.602,264.856 310,263.5C 311.69,270.012 315.69,272.012 322,269.5C 323.333,272.167 325.333,274.167 328,275.5C 326.923,283.215 322.423,286.382 314.5,285C 314.017,280.66 312.851,276.493 311,272.5C 301.554,268.934 297.888,272.267 300,282.5C 301.344,284.342 302.844,286.008 304.5,287.5C 300.934,288.851 297.601,288.351 294.5,286C 284.285,277.564 281.619,267.397 286.5,255.5 Z"/></g>
<g><path style="opacity:1" fill="#949494" d="M 293.5,264.5 C 295.337,264.639 295.67,265.306 294.5,266.5C 293.702,266.043 293.369,265.376 293.5,264.5 Z"/></g>
<g><path style="opacity:1" fill="#c1c1c1" d="M 305.5,277.5 C 307.273,278.314 307.773,279.648 307,281.5C 305.812,280.437 305.312,279.103 305.5,277.5 Z"/></g>
<g><path style="opacity:1" fill="#fdfdfd" d="M 264.5,283.5 C 267.649,283.211 270.649,283.711 273.5,285C 279.145,290.977 285.145,296.643 291.5,302C 295.221,304.527 299.221,306.527 303.5,308C 304.404,319.283 300.904,329.117 293,337.5C 285.367,345.472 276.867,352.305 267.5,358C 245.971,358.694 224.971,362.361 204.5,369C 199.5,369.667 194.5,369.667 189.5,369C 172.884,365.41 156.217,362.077 139.5,359C 131.362,352.874 122.696,347.54 113.5,343C 105.553,341.098 97.8862,338.431 90.5,335C 87.9035,332.683 87.0701,329.85 88,326.5C 98.9226,305.292 116.089,297.459 139.5,303C 154.888,307.281 170.555,308.614 186.5,307C 200.665,305.195 214.665,302.528 228.5,299C 240.653,293.903 252.653,288.737 264.5,283.5 Z"/></g>
<g><path style="opacity:1" fill="#e0e0e0" d="M 311.5,290.5 C 315.772,291.301 320.105,291.468 324.5,291C 320.342,294.829 315.509,297.329 310,298.5C 298.84,296.805 298.34,294.972 308.5,293C 309.942,292.623 310.942,291.79 311.5,290.5 Z"/></g>
<g><path style="opacity:1" fill="#fdfdfd" d="M 348.5,293.5 C 356.922,294.855 365.255,296.688 373.5,299C 392.172,301.941 410.839,302.274 429.5,300C 445.708,311.874 459.541,326.041 471,342.5C 471.667,345.833 471.667,349.167 471,352.5C 460,362.833 449,373.167 438,383.5C 432,391.5 426,399.5 420,407.5C 406.819,420.735 392.652,421.902 377.5,411C 367.736,402.559 361.236,392.059 358,379.5C 356.622,364.503 355.289,349.503 354,334.5C 351.79,320.997 348.956,307.664 345.5,294.5C 346.791,294.737 347.791,294.404 348.5,293.5 Z"/></g>
<g><path style="opacity:1" fill="#fdfdfd" d="M 332.5,297.5 C 334.776,297.756 335.943,299.09 336,301.5C 343.182,325.288 346.682,349.622 346.5,374.5C 343.211,395.206 335.711,414.206 324,431.5C 312.29,445.105 297.457,452.438 279.5,453.5C 267.879,452.063 256.213,451.229 244.5,451C 240.534,448.036 236.867,444.703 233.5,441C 231.283,439.725 228.949,438.725 226.5,438C 219.327,437.524 212.16,437.691 205,438.5C 195.682,440.184 192.348,436.517 195,427.5C 200.272,417.218 207.439,408.385 216.5,401C 235.427,390.399 254.094,379.399 272.5,368C 282.46,360.764 291.96,352.93 301,344.5C 310.113,334.267 314.78,322.267 315,308.5C 321.786,306.187 327.62,302.521 332.5,297.5 Z"/></g>
<g><path style="opacity:1" fill="#fdfdfd" d="M 475.5,362.5 C 482.556,367.361 490.222,371.194 498.5,374C 501.167,376.667 503.833,379.333 506.5,382C 515.833,387.333 525.167,392.667 534.5,398C 542.369,405.24 546.869,414.073 548,424.5C 544.298,431.208 539.465,437.041 533.5,442C 522.5,449 511.5,456 500.5,463C 497.667,465.833 494.833,468.667 492,471.5C 482.109,493.385 465.276,506.218 441.5,510C 435.5,513.333 429.5,516.667 423.5,520C 414.886,521.942 408.386,519.108 404,511.5C 401.067,505.439 398.901,499.106 397.5,492.5C 402.399,489.777 406.899,486.443 411,482.5C 417.854,463.74 416.354,445.573 406.5,428C 414.129,425.522 420.796,421.522 426.5,416C 433.364,407.77 439.864,399.27 446,390.5C 456.031,381.3 465.865,371.967 475.5,362.5 Z"/></g>
<g><path style="opacity:1" fill="#6f6f6f" d="M 240.5,371.5 C 242.628,370.371 244.961,370.204 247.5,371C 246.956,371.717 246.289,372.217 245.5,372.5C 244.081,371.549 242.415,371.216 240.5,371.5 Z"/></g>
<g><path style="opacity:1" fill="#fdfdfd" d="M 240.5,371.5 C 242.415,371.216 244.081,371.549 245.5,372.5C 226.509,380.243 210.009,391.576 196,406.5C 191.831,412.166 188.165,418.166 185,424.5C 180.798,436.597 184.631,444.763 196.5,449C 205.899,449.299 215.232,448.965 224.5,448C 228.132,450.63 231.465,453.63 234.5,457C 236.67,458.586 239.004,459.92 241.5,461C 251.819,462.028 262.152,463.028 272.5,464C 265.056,476.326 259.556,489.493 256,503.5C 255.737,508.851 255.737,514.184 256,519.5C 250.78,528.107 244.947,536.274 238.5,544C 236.61,545.112 234.61,545.946 232.5,546.5C 221.339,547.859 210.173,549.192 199,550.5C 197.112,550.204 195.278,549.704 193.5,549C 176.189,536.439 157.189,527.106 136.5,521C 130.132,516.284 125.632,510.117 123,502.5C 118,488.167 113,473.833 108,459.5C 105.782,447.753 106.116,436.087 109,424.5C 113.3,421.202 117.3,417.535 121,413.5C 124.418,407.663 128.084,401.996 132,396.5C 134.383,393.727 137.217,391.561 140.5,390C 151.581,387.96 161.915,383.96 171.5,378C 183.448,379.187 195.448,379.521 207.5,379C 214.558,377.203 221.558,375.203 228.5,373C 232.44,371.985 236.44,371.485 240.5,371.5 Z"/></g>
<g><path style="opacity:1" fill="#fdfdfd" d="M 352.5,395.5 C 360.927,414.257 375.261,425.59 395.5,429.5C 404.349,443.767 406.849,459.101 403,475.5C 397.253,479.959 391.086,483.793 384.5,487C 377.084,494.42 369.084,501.087 360.5,507C 351.771,508.996 343.104,508.663 334.5,506C 330.833,505.333 327.167,505.333 323.5,506C 312.833,510.333 302.167,514.667 291.5,519C 284.439,520.732 277.439,520.732 270.5,519C 268.951,517.786 267.785,516.286 267,514.5C 266.276,504.321 268.276,494.654 273,485.5C 276.337,477.478 280.671,470.145 286,463.5C 304.141,461.265 319.141,453.265 331,439.5C 341.099,426.301 348.266,411.635 352.5,395.5 Z"/></g>
<g><path style="opacity:1" fill="#fdfdfd" d="M 387.5,497.5 C 389.726,505.994 393.226,513.994 398,521.5C 409.377,533.247 421.877,534.58 435.5,525.5C 438.6,533.691 439.1,542.025 437,550.5C 427.674,560.396 417.508,569.229 406.5,577C 397.217,578.187 387.883,578.853 378.5,579C 371.447,580.513 364.447,582.18 357.5,584C 348.505,583.867 339.505,583.867 330.5,584C 322.221,587.905 313.554,589.572 304.5,589C 290.412,582.812 275.745,578.812 260.5,577C 253.865,569.866 248.199,562.032 243.5,553.5C 245.817,551.684 247.984,549.684 250,547.5C 254.677,540.803 259.343,534.137 264,527.5C 268.634,529.964 273.634,530.964 279,530.5C 284.213,530.454 289.38,529.954 294.5,529C 304.281,525.276 313.948,521.276 323.5,517C 334.545,517.198 345.545,517.865 356.5,519C 369.147,515.189 379.481,508.022 387.5,497.5 Z"/></g>
</svg>
