<?xml version="1.0" encoding="UTF-8"?>
<!DOCTYPE svg PUBLIC "-//W3C//DTD SVG 1.1//EN" "http://www.w3.org/Graphics/SVG/1.1/DTD/svg11.dtd">
<svg xmlns="http://www.w3.org/2000/svg" version="1.1" width="299px" height="477px" style="shape-rendering:geometricPrecision; text-rendering:geometricPrecision; image-rendering:optimizeQuality; fill-rule:evenodd; clip-rule:evenodd" xmlns:xlink="http://www.w3.org/1999/xlink">
<g><path style="opacity:1" fill="#fefefe" d="M -0.5,-0.5 C 99.1667,-0.5 198.833,-0.5 298.5,-0.5C 298.5,158.5 298.5,317.5 298.5,476.5C 198.833,476.5 99.1667,476.5 -0.5,476.5C -0.5,317.5 -0.5,158.5 -0.5,-0.5 Z"/></g>
<g><path style="opacity:1" fill="#070707" d="M 241.5,11.5 C 246.677,10.7031 251.177,12.0364 255,15.5C 263.428,13.2146 269.095,16.2146 272,24.5C 271.55,31.7145 274.717,36.5478 281.5,39C 287.751,43.5717 290.251,49.7384 289,57.5C 294.263,64.2035 296.596,71.8702 296,80.5C 297.797,126.384 282.297,165.217 249.5,197C 231.756,212.415 211.089,219.582 187.5,218.5C 180.321,244.863 169.821,269.863 156,293.5C 136.407,325.768 113.74,355.768 88,383.5C 63.2754,408.893 37.9421,433.559 12,457.5C 12.8043,452.273 13.4709,446.939 14,441.5C 46.7622,411.073 77.7622,379.073 107,345.5C 133.929,313.001 155.262,277.001 171,237.5C 173.889,230.004 176.056,222.337 177.5,214.5C 158.339,207.508 144.839,194.508 137,175.5C 131.647,161.988 129.647,147.988 131,133.5C 134.154,115.729 137.821,98.0628 142,80.5C 144.221,74.3898 147.221,68.7231 151,63.5C 158.191,55.3105 165.691,47.4772 173.5,40C 180.581,35.7142 188.248,33.0476 196.5,32C 200.5,25.3333 205.833,20 212.5,16C 219.516,13.8179 226.349,14.3179 233,17.5C 235.971,15.6065 238.804,13.6065 241.5,11.5 Z"/></g>
<g><path style="opacity:1" fill="#f5f5f5" d="M 243.5,22.5 C 246.226,22.2639 248.559,23.0972 250.5,25C 254.152,25.4986 257.818,25.6653 261.5,25.5C 262.509,28.5274 262.509,31.5274 261.5,34.5C 257.304,33.0488 252.971,32.3821 248.5,32.5C 241.825,32.8896 235.158,33.3896 228.5,34C 219.255,36.2439 212.755,41.7439 209,50.5C 205.935,47.938 203.435,44.938 201.5,41.5C 205.472,36.4248 209.806,31.5915 214.5,27C 218.833,23.6667 223.167,23.6667 227.5,27C 233.885,28.6841 239.219,27.1841 243.5,22.5 Z"/></g>
<g><path style="opacity:1" fill="#f6f6f6" d="M 243.5,42.5 C 249.605,41.651 255.105,42.9843 260,46.5C 261.322,50.7897 262.489,55.123 263.5,59.5C 261.969,66.0444 257.969,68.2111 251.5,66C 242.462,58.9812 232.462,53.8145 221.5,50.5C 223.091,47.7443 225.424,45.911 228.5,45C 233.681,44.3998 238.681,43.5665 243.5,42.5 Z"/></g>
<g><path style="opacity:1" fill="#fcfcfc" d="M 186.5,44.5 C 187.873,44.3433 189.207,44.51 190.5,45C 194.643,50.6436 198.976,56.1436 203.5,61.5C 185.632,81.216 171.799,103.549 162,128.5C 160.266,132.017 159.599,135.684 160,139.5C 162.706,142.978 165.706,143.311 169,140.5C 178.857,109.77 195.524,83.4363 219,61.5C 225.797,62.1506 231.631,64.8172 236.5,69.5C 234.144,79.7811 231.977,90.1144 230,100.5C 228.171,104.828 225.838,108.828 223,112.5C 222.333,118.161 224.833,120.328 230.5,119C 235.337,114.498 238.503,108.998 240,102.5C 242.226,93.7021 244.059,84.8688 245.5,76C 248.306,76.1 250.972,76.9333 253.5,78.5C 259.188,93.8531 260.022,109.52 256,125.5C 252.002,140.827 245.335,154.827 236,167.5C 234.5,174 237,176.5 243.5,175C 262.181,150.287 270.348,122.454 268,91.5C 267.047,86.4464 265.88,81.4464 264.5,76.5C 268.058,73.0647 270.891,69.0647 273,64.5C 273.363,57.6739 272.696,51.0072 271,44.5C 273.978,46.311 276.478,48.6443 278.5,51.5C 277.438,54.1029 277.272,56.7695 278,59.5C 280,62.8333 282,66.1667 284,69.5C 289.249,109.849 279.249,145.849 254,177.5C 241.219,192.304 225.386,202.137 206.5,207C 170.654,208.182 149.154,191.015 142,155.5C 140.17,144.789 140.503,134.123 143,123.5C 145.593,107.46 149.593,91.793 155,76.5C 159.947,68.9505 165.614,61.9505 172,55.5C 176.45,51.2019 181.283,47.5352 186.5,44.5 Z"/></g>
</svg>
