<?xml version="1.0" encoding="UTF-8"?>
<!DOCTYPE svg PUBLIC "-//W3C//DTD SVG 1.1//EN" "http://www.w3.org/Graphics/SVG/1.1/DTD/svg11.dtd">
<svg xmlns="http://www.w3.org/2000/svg" version="1.1" width="299px" height="477px" style="shape-rendering:geometricPrecision; text-rendering:geometricPrecision; image-rendering:optimizeQuality; fill-rule:evenodd; clip-rule:evenodd" xmlns:xlink="http://www.w3.org/1999/xlink">
<g><path style="opacity:1" fill="#fefefe" d="M -0.5,-0.5 C 99.1667,-0.5 198.833,-0.5 298.5,-0.5C 298.5,158.5 298.5,317.5 298.5,476.5C 198.833,476.5 99.1667,476.5 -0.5,476.5C -0.5,317.5 -0.5,158.5 -0.5,-0.5 Z"/></g>
<g><path style="opacity:1" fill="#070707" d="M 48.5,11.5 C 51.941,11.3011 55.2744,11.8011 58.5,13C 62.0337,17.472 66.0337,18.1387 70.5,15C 77.7935,13.4906 84.4602,14.824 90.5,19C 95.2489,23.0779 99.2489,27.7446 102.5,33C 113.953,33.4791 123.62,37.8124 131.5,46C 140.874,55.3705 148.707,65.8705 155,77.5C 159.767,96.0001 163.767,114.667 167,133.5C 169.364,160.75 160.864,183.917 141.5,203C 135.142,208.679 127.809,212.512 119.5,214.5C 130.907,252.98 148.407,288.314 172,320.5C 186.244,339.414 201.244,357.748 217,375.5C 239.028,397.862 261.361,419.862 284,441.5C 284.529,446.939 285.196,452.273 286,457.5C 251.635,426.135 218.969,393.135 188,358.5C 157.743,323.351 134.076,284.018 117,240.5C 114.318,233.291 112.151,225.957 110.5,218.5C 80.8287,219.082 56.3287,208.082 37,185.5C 9.53911,151.673 -1.79423,113.006 3,69.5C 3.94045,64.9524 5.94045,60.9524 9,57.5C 7.74922,49.7384 10.2492,43.5717 16.5,39C 23.2834,36.5478 26.45,31.7145 26,24.5C 29.2238,15.6107 35.3904,12.444 44.5,15C 45.7305,13.5952 47.0639,12.4286 48.5,11.5 Z"/></g>
<g><path style="opacity:1" fill="#f4f4f4" d="M 50.5,22.5 C 54.1397,23.15 57.473,24.65 60.5,27C 66.3048,28.0372 71.8048,27.2039 77,24.5C 79.3207,24.9095 81.4874,25.7428 83.5,27C 88.1945,31.5915 92.5278,36.4248 96.5,41.5C 94.5652,44.938 92.0652,47.938 89,50.5C 85.1299,41.2946 78.2966,35.7946 68.5,34C 61.5,33.5 54.5,33 47.5,32.5C 43.6703,32.3669 40.0037,33.0336 36.5,34.5C 35.4911,31.5274 35.4911,28.5274 36.5,25.5C 40.1817,25.6653 43.8484,25.4986 47.5,25C 48.9423,24.6232 49.9423,23.7899 50.5,22.5 Z"/></g>
<g><path style="opacity:1" fill="#f7f7f7" d="M 43.5,42.5 C 53.7669,42.4358 63.7669,43.9358 73.5,47C 74.6872,48.0195 75.6872,49.1861 76.5,50.5C 65.5571,53.805 55.5571,58.9717 46.5,66C 40.0315,68.2111 36.0315,66.0444 34.5,59.5C 35.5109,55.123 36.6775,50.7897 38,46.5C 39.8121,45.0229 41.6455,43.6896 43.5,42.5 Z"/></g>
<g><path style="opacity:1" fill="#fcfcfc" d="M 26.5,44.5 C 27.0967,44.7352 27.4301,45.2352 27.5,46C 21.8588,57.8159 23.8588,67.9826 33.5,76.5C 26.5388,101.952 28.7055,126.619 40,150.5C 44.2035,159.079 49.0368,167.246 54.5,175C 59.1407,176.651 61.8074,175.151 62.5,170.5C 58.6234,162.76 54.4567,155.094 50,147.5C 41.7889,131.111 38.4556,113.778 40,95.5C 40.6526,89.2102 42.3193,83.2102 45,77.5C 47.557,75.6858 50.2236,75.3525 53,76.5C 54.1406,88.2048 56.8072,99.5382 61,110.5C 62.5605,113.783 64.7272,116.617 67.5,119C 71.8319,120.336 74.4985,118.836 75.5,114.5C 72.7627,110.029 70.2627,105.363 68,100.5C 66.023,90.1144 63.8563,79.7811 61.5,69.5C 66.4833,64.5611 72.4833,62.0611 79.5,62C 102.688,83.8598 119.188,110.026 129,140.5C 133.776,143.809 136.942,142.642 138.5,137C 129.339,108.497 114.673,83.3301 94.5,61.5C 98.8575,56.3099 103.024,50.9766 107,45.5C 110.755,44.5914 114.255,45.4248 117.5,48C 127.055,56.5549 135.555,66.0549 143,76.5C 145.399,82.3634 147.399,88.3634 149,94.5C 152.79,110.326 155.623,126.326 157.5,142.5C 157.116,163.843 149.116,181.677 133.5,196C 112.863,210.232 91.5293,211.232 69.5,199C 47.4415,184.603 31.6082,165.103 22,140.5C 12.8957,117.545 10.229,93.8783 14,69.5C 16,66.1667 18,62.8333 20,59.5C 20.7284,56.7695 20.5617,54.1029 19.5,51.5C 21.5482,48.785 23.8816,46.4517 26.5,44.5 Z"/></g>
</svg>
