<?xml version="1.0" encoding="UTF-8"?>
<!DOCTYPE svg PUBLIC "-//W3C//DTD SVG 1.1//EN" "http://www.w3.org/Graphics/SVG/1.1/DTD/svg11.dtd">
<svg xmlns="http://www.w3.org/2000/svg" version="1.1" width="748px" height="1648px" style="shape-rendering:geometricPrecision; text-rendering:geometricPrecision; image-rendering:optimizeQuality; fill-rule:evenodd; clip-rule:evenodd" xmlns:xlink="http://www.w3.org/1999/xlink">
<g><path style="opacity:1" fill="#fefefe" d="M -0.5,-0.5 C 248.833,-0.5 498.167,-0.5 747.5,-0.5C 747.5,548.833 747.5,1098.17 747.5,1647.5C 498.167,1647.5 248.833,1647.5 -0.5,1647.5C -0.5,1098.17 -0.5,548.833 -0.5,-0.5 Z"/></g>
<g><path style="opacity:1" fill="#070707" d="M 624.5,141.5 C 623.957,141.56 623.624,141.893 623.5,142.5C 627.107,143.489 630.774,143.823 634.5,143.5C 641.264,145.092 646.098,149.092 649,155.5C 650.44,171.776 650.94,188.11 650.5,204.5C 661.915,205.471 672.248,209.304 681.5,216C 695.4,228.651 706.234,243.484 714,260.5C 713.956,270.165 713.956,279.832 714,289.5C 718.124,299.081 722.791,308.414 728,317.5C 730.266,325.297 729.933,332.964 727,340.5C 722.611,345.889 718.611,351.556 715,357.5C 713.911,364.543 712.578,371.543 711,378.5C 706.062,388.116 699.562,396.616 691.5,404C 681.86,412.492 671.193,419.492 659.5,425C 656.382,426.727 653.049,427.561 649.5,427.5C 650.567,437.806 650.733,448.14 650,458.5C 644.262,476.715 637.928,494.715 631,512.5C 627.052,521.57 620.552,528.07 611.5,532C 599.041,535.896 587.041,540.896 575.5,547C 568.464,551.851 561.131,556.184 553.5,560C 540.121,559.935 526.787,559.268 513.5,558C 507.809,567.713 501.142,576.713 493.5,585C 483.547,587.424 473.547,589.757 463.5,592C 456.048,595.262 448.381,597.929 440.5,600C 436.112,600.577 431.779,600.244 427.5,599C 422.489,597.33 417.489,595.663 412.5,594C 397.55,595.719 382.883,594.386 368.5,590C 359.124,589.816 349.791,589.15 340.5,588C 337.756,587.197 335.089,586.197 332.5,585C 321.484,576.886 311.317,567.72 302,557.5C 299.338,552.685 298.172,547.518 298.5,542C 298.709,535.037 299.709,528.204 301.5,521.5C 301.291,520.914 300.957,520.414 300.5,520C 296.302,518.821 292.135,517.654 288,516.5C 279.095,547.919 272.761,579.919 269,612.5C 260.153,694.724 259.153,777.057 266,859.5C 284.639,1099.4 349.306,1326.07 460,1539.5C 472.747,1562.66 485.747,1585.66 499,1608.5C 499.749,1609.64 499.583,1610.64 498.5,1611.5C 496.33,1613.09 493.996,1614.42 491.5,1615.5C 433.783,1518.73 386.283,1417.06 349,1310.5C 335.51,1270.03 322.843,1229.37 311,1188.5C 312.097,1176.22 309.43,1164.89 303,1154.5C 263.203,996.283 246.536,835.616 253,672.5C 256.128,618.533 264.295,565.367 277.5,513C 271.436,508.617 265.603,503.784 260,498.5C 255.169,492.174 250.835,485.508 247,478.5C 244.5,476 242,473.5 239.5,471C 228.5,464 217.5,457 206.5,450C 202.667,446.167 198.833,442.333 195,438.5C 192.344,434.856 190.511,430.856 189.5,426.5C 175.441,425.303 162.774,420.47 151.5,412C 142.4,404.903 133.9,397.069 126,388.5C 120.064,380.418 118.064,371.418 120,361.5C 121.941,355.181 123.774,348.847 125.5,342.5C 123.331,333.826 121.165,325.159 119,316.5C 117.885,304.046 118.551,291.713 121,279.5C 127.999,261.734 141.166,253.068 160.5,253.5C 162.167,253.5 163.833,253.5 165.5,253.5C 165.768,251.901 165.434,250.568 164.5,249.5C 144.269,230.695 133.435,207.362 132,179.5C 141.222,156.034 155.555,136.368 175,120.5C 185.563,99.4245 201.396,93.9245 222.5,104C 226.299,106.797 229.799,109.964 233,113.5C 234.587,106.488 238.087,100.655 243.5,96C 248.907,93.5475 254.074,90.7142 259,87.5C 261.992,80.5341 264.992,73.5341 268,66.5C 270.167,64.3333 272.333,62.1667 274.5,60C 282.02,56.6049 289.687,53.6049 297.5,51C 307.243,44.9331 317.243,39.2664 327.5,34C 336.011,33.3952 344.511,33.5618 353,34.5C 356.57,34.4565 360.07,33.9565 363.5,33C 370.408,28.762 376.741,23.762 382.5,18C 400.479,5.88508 415.312,9.05175 427,27.5C 430.003,33.51 432.003,39.8433 433,46.5C 436.968,43.0982 441.468,40.5982 446.5,39C 449.802,34.8474 454.136,32.5141 459.5,32C 472.183,31.2456 484.849,31.4123 497.5,32.5C 514.389,29.1246 531.389,28.6246 548.5,31C 554.499,32.4986 560.166,34.8319 565.5,38C 577.618,38.2574 587.451,43.0908 595,52.5C 599.877,60.3831 605.877,67.3831 613,73.5C 617.998,84.1301 622.998,94.7967 628,105.5C 629.387,109.215 630.22,113.048 630.5,117C 628.806,125.247 626.806,133.414 624.5,141.5 Z"/></g>
<g><path style="opacity:1" fill="#fdfdfd" d="M 396.5,21.5 C 404.126,20.0658 410.292,22.3992 415,28.5C 420.237,36.9477 423.404,46.1144 424.5,56C 423.206,58.087 422.039,60.2537 421,62.5C 418.819,70.2242 416.486,77.8909 414,85.5C 409,92.1667 404,98.8333 399,105.5C 391.907,121.556 389.074,138.39 390.5,156C 391.261,179.218 392.428,202.385 394,225.5C 372.983,199.142 350.483,173.975 326.5,150C 320.565,144.198 313.565,140.198 305.5,138C 291.375,135.642 281.875,141.142 277,154.5C 275.854,162.115 275.188,169.782 275,177.5C 274.268,181.115 272.935,184.448 271,187.5C 265.8,192.365 260.967,197.532 256.5,203C 252.091,203.805 248.091,202.805 244.5,200C 234.318,190.788 230.485,179.288 233,165.5C 230.866,159.432 228.533,153.432 226,147.5C 225.333,145.833 225.333,144.167 226,142.5C 229.955,136.877 234.288,131.543 239,126.5C 241.529,120.579 243.863,114.579 246,108.5C 247.5,107 249,105.5 250.5,104C 256.408,101.465 261.908,98.2984 267,94.5C 270.86,86.5844 274.527,78.5844 278,70.5C 289.616,65.733 301.116,60.5664 312.5,55C 318.166,50.8313 324.166,47.1647 330.5,44C 338.534,43.694 346.534,44.194 354.5,45.5C 362.201,44.9905 369.201,42.4905 375.5,38C 381.843,31.5154 388.843,26.0154 396.5,21.5 Z"/></g>
<g><path style="opacity:1" fill="#fcfcfc" d="M 512.5,39.5 C 524.917,39.3024 537.25,40.1358 549.5,42C 557.108,46.8691 565.441,49.5358 574.5,50C 579.519,52.0152 583.685,55.1818 587,59.5C 592.913,68.0842 599.58,76.0842 607,83.5C 610.449,93.0654 614.449,102.399 619,111.5C 619.667,114.833 619.667,118.167 619,121.5C 617.462,126.448 616.128,131.448 615,136.5C 613.939,139.562 612.106,142.062 609.5,144C 607.369,143.602 605.369,142.602 603.5,141C 598.151,133.32 591.818,126.653 584.5,121C 576.757,117.268 569.423,117.935 562.5,123C 557.667,127.833 552.833,132.667 548,137.5C 546.735,108.702 537.735,82.7022 521,59.5C 511.83,48.1071 500.497,45.1071 487,50.5C 483.253,48.3737 479.753,45.8737 476.5,43C 485.833,42.6667 495.167,42.3333 504.5,42C 507.31,41.2177 509.977,40.3844 512.5,39.5 Z"/></g>
<g><path style="opacity:1" fill="#fdfdfd" d="M 450.5,48.5 C 462.723,47.2795 473.056,51.1129 481.5,60C 488.833,59.6667 496.167,59.3333 503.5,59C 510.7,63.2337 516.2,69.067 520,76.5C 532.103,99.6844 538.103,124.351 538,150.5C 531.802,159.75 527.135,169.75 524,180.5C 522.248,183.672 520.248,186.672 518,189.5C 502.5,205 487,220.5 471.5,236C 470.833,236.667 470.167,236.667 469.5,236C 463.422,226.801 455.088,220.801 444.5,218C 435.109,215.702 427.109,218.035 420.5,225C 415.415,225.956 410.415,227.123 405.5,228.5C 402.809,204.755 401.143,180.922 400.5,157C 400.452,146.1 401.285,135.266 403,124.5C 405.428,114.306 410.428,105.639 418,98.5C 420.732,94.7594 423.066,90.7594 425,86.5C 427.339,78.8177 429.672,71.1511 432,63.5C 436.541,56.4553 442.708,51.4553 450.5,48.5 Z"/></g>
<g><path style="opacity:1" fill="#fdfdfd" d="M 199.5,109.5 C 204.267,109.191 208.934,109.691 213.5,111C 218.776,114.275 223.442,118.275 227.5,123C 222.91,127.592 219.077,132.759 216,138.5C 215.333,142.167 215.333,145.833 216,149.5C 217.773,155.713 220.106,161.713 223,167.5C 219.987,187.039 226.821,201.705 243.5,211.5C 239.425,214.248 234.925,215.915 230,216.5C 223.854,215.49 217.687,215.324 211.5,216C 203.761,219.468 195.761,222.135 187.5,224C 185.833,225 184.167,226 182.5,227C 178.988,231.846 174.821,236.012 170,239.5C 155.267,225.374 146.267,208.04 143,187.5C 142.333,185.167 142.333,182.833 143,180.5C 148.658,168.508 155.325,157.175 163,146.5C 169.364,139.801 176.031,133.468 183,127.5C 186.467,119.511 191.967,113.511 199.5,109.5 Z"/></g>
<g><path style="opacity:1" fill="#fdfdfd" d="M 571.5,129.5 C 576.05,128.884 580.05,130.051 583.5,133C 587.362,137.229 590.862,141.729 594,146.5C 598.924,152.045 605.091,155.045 612.5,155.5C 619.105,154.011 625.772,153.511 632.5,154C 636.742,155.245 639.242,158.078 640,162.5C 640.993,188.288 639.66,213.954 636,239.5C 634.036,251.931 628.536,262.431 619.5,271C 608.167,279.667 596.833,288.333 585.5,297C 565.891,297.799 546.557,295.799 527.5,291C 514.137,285.648 500.803,280.315 487.5,275C 486.422,274.326 485.755,273.326 485.5,272C 487.798,261.524 485.131,252.524 477.5,245C 496.061,227.107 513.894,208.607 531,189.5C 534.586,182.408 537.586,175.075 540,167.5C 547.754,152.577 558.254,139.911 571.5,129.5 Z"/></g>
<g><path style="opacity:1" fill="#999999" d="M 624.5,141.5 C 627.833,142.167 631.167,142.833 634.5,143.5C 630.774,143.823 627.107,143.489 623.5,142.5C 623.624,141.893 623.957,141.56 624.5,141.5 Z"/></g>
<g><path style="opacity:1" fill="#fdfdfd" d="M 295.5,147.5 C 299.273,147.263 302.94,147.763 306.5,149C 310.844,151.171 314.844,153.837 318.5,157C 344.765,183.426 369.265,211.26 392,240.5C 389.449,248.652 387.115,256.985 385,265.5C 384.149,271.453 384.649,277.286 386.5,283C 386.167,283.5 385.833,284 385.5,284.5C 371.54,288.978 357.207,290.978 342.5,290.5C 324.867,290.629 307.534,288.463 290.5,284C 271.047,276.217 258.214,262.384 252,242.5C 250.017,231.81 252.683,222.477 260,214.5C 267,206.833 274,199.167 281,191.5C 282.725,188.326 284.058,184.993 285,181.5C 285.277,173.464 285.943,165.464 287,157.5C 288.261,152.745 291.095,149.412 295.5,147.5 Z"/></g>
<g><path style="opacity:1" fill="#fcfcfc" d="M 649.5,215.5 C 658.745,215.637 667.078,218.471 674.5,224C 687.005,235.513 696.839,249.013 704,264.5C 704.167,266.167 704.333,267.833 704.5,269.5C 701.668,278.535 701.835,287.535 705,296.5C 709,303.833 713,311.167 717,318.5C 720.246,324.53 720.246,330.53 717,336.5C 706.77,346.639 701.77,358.972 702,373.5C 692.449,390.051 679.283,402.884 662.5,412C 658.392,414.388 654.059,416.221 649.5,417.5C 643.131,415.646 637.964,411.979 634,406.5C 629.619,397.226 623.452,389.393 615.5,383C 609.357,380.397 603.023,378.397 596.5,377C 594.004,375.92 591.67,374.586 589.5,373C 597.25,371.703 604.917,370.036 612.5,368C 619.833,363.333 627.167,358.667 634.5,354C 643.057,350.694 651.724,347.694 660.5,345C 668.021,339.782 670.855,332.616 669,323.5C 657.291,299.054 637.791,288.221 610.5,291C 620.64,284.192 629.473,276.025 637,266.5C 640.78,260.274 643.447,253.607 645,246.5C 647.307,236.276 648.807,225.943 649.5,215.5 Z"/></g>
<g><path style="opacity:1" fill="#fdfdfd" d="M 239.5,224.5 C 239.431,256.151 254.431,278.984 284.5,293C 290.416,294.979 296.416,296.646 302.5,298C 290.965,307.868 280.465,318.701 271,330.5C 265.917,337.673 263.417,345.673 263.5,354.5C 247.974,365.878 231.64,367.378 214.5,359C 206.636,359.328 201.47,355.828 199,348.5C 193.049,333.6 187.383,318.6 182,303.5C 179.229,285.217 177.229,266.884 176,248.5C 181.167,244.667 185.667,240.167 189.5,235C 197.039,232.897 204.372,230.23 211.5,227C 220.167,226.667 228.833,226.333 237.5,226C 238.416,225.722 239.082,225.222 239.5,224.5 Z"/></g>
<g><path style="opacity:1" fill="#d7d7d7" d="M 434.5,227.5 C 440.605,227.021 445.938,228.687 450.5,232.5C 450.333,232.833 450.167,233.167 450,233.5C 448.352,232.283 446.519,231.45 444.5,231C 440.789,230.825 437.122,230.325 433.5,229.5C 433.863,228.817 434.196,228.15 434.5,227.5 Z"/></g>
<g><path style="opacity:1" fill="#dfdfdf" d="M 434.5,236.5 C 437.85,236.335 441.183,236.502 444.5,237C 444.957,237.414 445.291,237.914 445.5,238.5C 441.973,241.902 438.14,242.235 434,239.5C 433.53,238.423 433.697,237.423 434.5,236.5 Z"/></g>
<g><path style="opacity:1" fill="#ededed" d="M 413.5,236.5 C 417.798,237.2 422.131,237.533 426.5,237.5C 426.5,239.833 426.5,242.167 426.5,244.5C 418.302,241.28 410.469,241.947 403,246.5C 403.195,244.255 404.362,242.422 406.5,241C 408.898,239.476 411.231,237.976 413.5,236.5 Z"/></g>
<g><path style="opacity:1" fill="#ebebeb" d="M 455.5,236.5 C 460.801,241.971 465.967,247.638 471,253.5C 473.505,257.011 475.339,260.844 476.5,265C 476.091,267.321 475.257,269.487 474,271.5C 471.708,272.79 469.708,274.457 468,276.5C 469.416,270.324 469.749,263.991 469,257.5C 466.504,252.17 462.337,249.17 456.5,248.5C 456.429,245.689 455.762,243.022 454.5,240.5C 454.846,239.151 455.179,237.817 455.5,236.5 Z"/></g>
<g><path style="opacity:1" fill="#d2d2d2" d="M 445.5,246.5 C 446.635,244.912 447.969,244.579 449.5,245.5C 448.311,246.429 446.978,246.762 445.5,246.5 Z"/></g>
<g><path style="opacity:1" fill="#ececec" d="M 445.5,246.5 C 444.312,247.364 443.145,248.364 442,249.5C 441.818,252.226 441.318,254.893 440.5,257.5C 437.56,254.467 435.226,250.967 433.5,247C 437.493,247.823 441.493,247.656 445.5,246.5 Z"/></g>
<g><path style="opacity:1" fill="#f1f1f1" d="M 411.5,248.5 C 419.19,247.503 425.19,250.17 429.5,256.5C 427.578,257.711 425.745,259.044 424,260.5C 414.62,256.03 410.286,259.03 411,269.5C 406.239,265.218 404.239,259.885 405,253.5C 406.965,251.45 409.132,249.783 411.5,248.5 Z"/></g>
<g><path style="opacity:1" fill="#7d7d7d" d="M 164.5,249.5 C 165.434,250.568 165.768,251.901 165.5,253.5C 163.833,253.5 162.167,253.5 160.5,253.5C 161.568,252.566 162.901,252.232 164.5,252.5C 164.5,251.5 164.5,250.5 164.5,249.5 Z"/></g>
<g><path style="opacity:1" fill="#d3d3d3" d="M 447.5,252.5 C 449.144,252.286 450.644,252.62 452,253.5C 453.124,256.442 453.458,259.442 453,262.5C 448.313,260.796 446.48,257.463 447.5,252.5 Z"/></g>
<g><path style="opacity:1" fill="#f2f2f2" d="M 397.5,257.5 C 398.826,261.959 400.66,266.293 403,270.5C 405.346,273.505 408.346,275.505 412,276.5C 412.704,280.625 414.537,284.125 417.5,287C 411.951,285.908 406.285,284.908 400.5,284C 396.139,280.747 394.473,276.414 395.5,271C 395.44,266.37 396.107,261.87 397.5,257.5 Z"/></g>
<g><path style="opacity:1" fill="#fcfcfc" d="M 158.5,263.5 C 161.167,263.5 163.833,263.5 166.5,263.5C 167.639,277.912 169.472,292.246 172,306.5C 178.409,324.725 185.409,342.725 193,360.5C 196.927,365.547 202.094,368.047 208.5,368C 215.193,371.515 222.193,374.182 229.5,376C 221.172,380.162 213.172,384.829 205.5,390C 197.459,396.245 192.626,404.412 191,414.5C 185.383,415.956 179.883,415.456 174.5,413C 158.998,405.175 145.498,394.675 134,381.5C 130.402,376.372 129.069,370.705 130,364.5C 132.763,357.047 134.596,349.38 135.5,341.5C 133.435,331.474 131.269,321.474 129,311.5C 128.024,301.713 128.69,292.046 131,282.5C 136.007,270.084 145.174,263.751 158.5,263.5 Z"/></g>
<g><path style="opacity:1" fill="#f0f0f0" d="M 458.5,255.5 C 460.752,255.916 462.252,257.249 463,259.5C 464.733,273.898 458.9,283.564 445.5,288.5C 444.5,288.167 443.5,287.833 442.5,287.5C 447.63,283.514 448.797,278.514 446,272.5C 442.667,269.833 439.333,269.833 436,272.5C 434.149,276.493 432.983,280.66 432.5,285C 424.577,286.382 420.077,283.215 419,275.5C 421.667,274.167 423.667,272.167 425,269.5C 431.31,272.012 435.31,270.012 437,263.5C 439.068,265.562 441.568,266.728 444.5,267C 446.999,272.342 450.999,273.842 456.5,271.5C 459.622,266.52 460.289,261.187 458.5,255.5 Z"/></g>
<g><path style="opacity:1" fill="#979797" d="M 451.5,264.5 C 453.337,264.639 453.67,265.306 452.5,266.5C 451.702,266.043 451.369,265.376 451.5,264.5 Z"/></g>
<g><path style="opacity:1" fill="#c1c1c1" d="M 440.5,277.5 C 441.797,278.849 441.63,280.182 440,281.5C 439.421,280.072 439.588,278.738 440.5,277.5 Z"/></g>
<g><path style="opacity:1" fill="#fdfdfd" d="M 475.5,283.5 C 481.684,284.057 487.684,285.557 493.5,288C 511.435,298.32 530.768,304.32 551.5,306C 572.145,309.035 592.478,307.702 612.5,302C 633.984,298.99 649.484,307.157 659,326.5C 659.503,332.622 656.669,336.456 650.5,338C 640.989,339.921 631.989,343.254 623.5,348C 618.442,352.057 613.108,355.724 607.5,359C 590.481,362.171 573.481,365.504 556.5,369C 551.167,369.667 545.833,369.667 540.5,369C 520.772,362.18 500.439,358.514 479.5,358C 465.399,350.198 454.232,339.365 446,325.5C 442.997,319.878 442.164,314.044 443.5,308C 447.779,306.527 451.779,304.527 455.5,302C 462.077,295.612 468.744,289.446 475.5,283.5 Z"/></g>
<g><path style="opacity:1" fill="#e6e6e6" d="M 422.5,291.5 C 426.165,291.62 429.998,291.286 434,290.5C 435.901,291.536 437.735,292.702 439.5,294C 448.322,293.942 448.656,295.275 440.5,298C 438.167,298.667 435.833,298.667 433.5,298C 429.778,295.81 426.111,293.644 422.5,291.5 Z"/></g>
<g><path style="opacity:1" fill="#fdfdfd" d="M 393.5,292.5 C 396.006,293.75 398.673,294.416 401.5,294.5C 398.044,307.664 395.21,320.997 393,334.5C 391.711,349.503 390.378,364.503 389,379.5C 385.11,394.712 376.61,406.545 363.5,415C 350.407,421.06 338.74,419.06 328.5,409C 321.636,400.77 315.136,392.27 309,383.5C 298,373.167 287,362.833 276,352.5C 275.333,349.167 275.333,345.833 276,342.5C 287.421,326.411 300.921,312.244 316.5,300C 336.572,302.543 356.572,301.876 376.5,298C 382.497,296.833 388.164,295 393.5,292.5 Z"/></g>
<g><path style="opacity:1" fill="#fdfdfd" d="M 412.5,297.5 C 418.502,301.311 424.668,304.978 431,308.5C 432.828,325.991 440.328,340.491 453.5,352C 463.888,360.054 474.554,367.721 485.5,375C 500.663,383.414 515.663,392.081 530.5,401C 539.561,408.385 546.728,417.218 552,427.5C 554.652,436.517 551.318,440.184 542,438.5C 534.507,437.667 527.007,437.5 519.5,438C 513.973,440.522 509.306,444.189 505.5,449C 503.913,449.862 502.246,450.529 500.5,451C 453.823,462.253 422.656,445.419 407,400.5C 404.797,393.558 402.797,386.558 401,379.5C 399.76,351.414 403.594,324.08 412.5,297.5 Z"/></g>
<g><path style="opacity:1" fill="#fdfdfd" d="M 269.5,362.5 C 280.406,371.232 290.906,380.565 301,390.5C 308.537,403.089 318.037,413.922 329.5,423C 333.048,424.941 336.714,426.607 340.5,428C 330.646,445.573 329.146,463.74 336,482.5C 340.101,486.443 344.601,489.777 349.5,492.5C 348.397,501.869 344.73,510.035 338.5,517C 334.018,520.287 329.018,521.287 323.5,520C 318.167,517 312.833,514 307.5,511C 282.785,507.269 265.285,494.102 255,471.5C 252.167,468.667 249.333,465.833 246.5,463C 235.5,456 224.5,449 213.5,442C 207.535,437.041 202.702,431.208 199,424.5C 200.131,414.073 204.631,405.24 212.5,398C 221.833,392.667 231.167,387.333 240.5,382C 243.5,379 246.5,376 249.5,373C 257.24,371.299 263.907,367.799 269.5,362.5 Z"/></g>
<g><path style="opacity:1" fill="#fdfdfd" d="M 499.5,371.5 C 500.097,370.861 500.93,370.528 502,370.5C 514.134,372.101 525.967,374.934 537.5,379C 548.566,379.874 559.566,379.374 570.5,377.5C 578.585,379.539 586.251,382.705 593.5,387C 599.877,387.855 605.877,389.855 611.5,393C 617.111,399.278 621.944,406.112 626,413.5C 629.7,417.535 633.7,421.202 638,424.5C 640.884,436.087 641.218,447.753 639,459.5C 634,473.833 629,488.167 624,502.5C 620.993,510.828 615.826,517.328 608.5,522C 588.382,527.56 570.049,536.56 553.5,549C 551.722,549.704 549.888,550.204 548,550.5C 536.858,549.128 525.691,547.961 514.5,547C 510.242,545.616 506.742,543.116 504,539.5C 500.06,532.564 495.727,525.897 491,519.5C 492.31,510.273 491.31,501.273 488,492.5C 484.261,482.605 479.761,473.105 474.5,464C 485.561,463.164 496.561,461.83 507.5,460C 512.789,456.38 517.789,452.38 522.5,448C 531.786,448.989 541.119,449.322 550.5,449C 562.369,444.763 566.202,436.597 562,424.5C 556.129,412.281 547.963,401.781 537.5,393C 525.265,385.05 512.599,377.883 499.5,371.5 Z"/></g>
<g><path style="opacity:1" fill="#fdfdfd" d="M 393.5,395.5 C 397.339,405.144 401.506,414.81 406,424.5C 418.224,447.04 437.057,460.373 462.5,464.5C 470.216,476.268 476.049,488.934 480,502.5C 482.304,518.513 475.471,524.347 459.5,520C 446.833,515.333 434.167,510.667 421.5,506C 410.506,506.799 399.506,507.466 388.5,508C 384.664,505.916 380.997,503.583 377.5,501C 372.801,495.966 367.801,491.3 362.5,487C 355.914,483.793 349.747,479.959 344,475.5C 340.151,459.101 342.651,443.767 351.5,429.5C 371.774,425.891 385.774,414.557 393.5,395.5 Z"/></g>
<g><path style="opacity:1" fill="#fdfdfd" d="M 358.5,497.5 C 363.664,502.496 368.997,507.329 374.5,512C 378.919,514.876 383.586,517.21 388.5,519C 399.811,518.116 411.145,517.449 422.5,517C 430.304,520.07 437.97,523.403 445.5,527C 458.065,531.268 470.565,531.434 483,527.5C 487.657,534.137 492.323,540.803 497,547.5C 499.016,549.684 501.183,551.684 503.5,553.5C 498.801,562.032 493.135,569.866 486.5,577C 471.044,578.197 456.377,582.197 442.5,589C 438.5,589.667 434.5,589.667 430.5,589C 416.628,583.541 402.294,581.874 387.5,584C 372.137,579.536 356.47,577.203 340.5,577C 329.492,569.229 319.326,560.396 310,550.5C 307.9,542.025 308.4,533.691 311.5,525.5C 328.515,535.666 342.348,532.333 353,515.5C 355.546,509.697 357.379,503.697 358.5,497.5 Z"/></g>
</svg>
