<?xml version="1.0" encoding="UTF-8"?>
<!DOCTYPE svg PUBLIC "-//W3C//DTD SVG 1.1//EN" "http://www.w3.org/Graphics/SVG/1.1/DTD/svg11.dtd">
<svg xmlns="http://www.w3.org/2000/svg" version="1.1" width="227px" height="656px" style="shape-rendering:geometricPrecision; text-rendering:geometricPrecision; image-rendering:optimizeQuality; fill-rule:evenodd; clip-rule:evenodd" xmlns:xlink="http://www.w3.org/1999/xlink">
<g><path style="opacity:1" fill="#fefefe" d="M -0.5,-0.5 C 75.1667,-0.5 150.833,-0.5 226.5,-0.5C 226.5,218.167 226.5,436.833 226.5,655.5C 150.833,655.5 75.1667,655.5 -0.5,655.5C -0.5,436.833 -0.5,218.167 -0.5,-0.5 Z"/></g>
<g><path style="opacity:1" fill="#090909" d="M 206.5,36.5 C 195.164,30.4873 184.83,22.9873 175.5,14C 173.167,13.3333 170.833,13.3333 168.5,14C 162.767,18.1362 156.434,19.8028 149.5,19C 146.305,17.3054 143.972,14.8054 142.5,11.5C 144.396,10.5344 146.396,10.2011 148.5,10.5C 155.679,10.4754 162.846,10.142 170,9.5C 188.402,10.1136 200.568,19.1136 206.5,36.5 Z"/></g>
<g><path style="opacity:1" fill="#fafafa" d="M 137.5,8.5 C 141.312,9.02643 144.979,9.6931 148.5,10.5C 146.396,10.2011 144.396,10.5344 142.5,11.5C 143.972,14.8054 146.305,17.3054 149.5,19C 156.434,19.8028 162.767,18.1362 168.5,14C 170.833,13.3333 173.167,13.3333 175.5,14C 184.83,22.9873 195.164,30.4873 206.5,36.5C 207.974,37.4363 208.974,38.7697 209.5,40.5C 208.957,40.56 208.624,40.8933 208.5,41.5C 213.558,50.8162 213.725,60.1495 209,69.5C 206.257,71.7879 203.423,73.9545 200.5,76C 198.244,80.5919 194.911,84.2586 190.5,87C 182.686,90.4505 174.686,93.2838 166.5,95.5C 164.597,95.7959 162.93,96.4625 161.5,97.5C 159.833,98.1667 158.167,98.8333 156.5,99.5C 142.709,107.568 129.376,116.401 116.5,126C 102.554,136.114 87.3871,138.614 71,133.5C 67.3876,135.969 63.3876,137.636 59,138.5C 56.2682,138.385 53.7682,137.552 51.5,136C 47.4989,132.666 43.1656,129.832 38.5,127.5C 42.4041,123.352 46.0708,119.019 49.5,114.5C 47.9255,113.369 46.2588,113.202 44.5,114C 39.9797,115.8 35.313,117.3 30.5,118.5C 28.1524,113.552 27.9857,108.552 30,103.5C 38.667,93.9175 49.5003,88.7509 62.5,88C 63.6148,85.1057 62.4481,83.939 59,84.5C 50.8502,85.9972 42.6835,87.3306 34.5,88.5C 33.1261,74.0346 39.4594,68.2013 53.5,71C 56.5285,71.539 59.5285,72.2057 62.5,73C 64.3501,75.0176 66.3501,76.8509 68.5,78.5C 69.5827,77.635 69.7494,76.635 69,75.5C 65.3328,70.7497 60.4995,68.2497 54.5,68C 52.6951,67.028 51.0284,65.8613 49.5,64.5C 62.0199,50.4812 74.3532,36.3145 86.5,22C 90.0257,20.6632 93.6924,20.1632 97.5,20.5C 97.3505,21.552 97.5172,22.552 98,23.5C 102.786,28.0932 106.286,33.4266 108.5,39.5C 109.631,37.9255 109.798,36.2588 109,34.5C 105.751,29.1865 103.251,23.5198 101.5,17.5C 112.377,14.6983 123.377,12.365 134.5,10.5C 136.03,10.3601 137.03,9.69348 137.5,8.5 Z"/></g>
<g><path style="opacity:1" fill="#191919" d="M 174.5,21.5 C 175.978,21.238 177.311,21.5713 178.5,22.5C 175.696,24.1381 173.029,25.9715 170.5,28C 168.66,30.6687 166.66,33.1687 164.5,35.5C 164.167,35 163.833,34.5 163.5,34C 165.618,28.387 169.285,24.2203 174.5,21.5 Z"/></g>
<g><path style="opacity:1" fill="#191919" d="M 119.5,20.5 C 120.497,20.4701 121.164,20.9701 121.5,22C 119.727,26.6483 119.061,31.4816 119.5,36.5C 118.5,36.5 117.5,36.5 116.5,36.5C 115.93,30.8183 116.93,25.485 119.5,20.5 Z"/></g>
<g><path style="opacity:1" fill="#1d1d1d" d="M 136.5,24.5 C 137.756,24.4614 138.756,24.9614 139.5,26C 136.217,29.397 133.551,33.2303 131.5,37.5C 130.675,38.3857 129.675,38.719 128.5,38.5C 130.124,33.253 132.791,28.5863 136.5,24.5 Z"/></g>
<g><path style="opacity:1" fill="#1e1e1e" d="M 151.5,25.5 C 152.5,25.5 153.5,25.5 154.5,25.5C 152.718,31.1258 149.218,35.4591 144,38.5C 142.743,38.1501 142.409,37.4835 143,36.5C 146.839,33.5088 149.672,29.8422 151.5,25.5 Z"/></g>
<g><path style="opacity:1" fill="#181818" d="M 191.5,33.5 C 192.978,33.238 194.311,33.5713 195.5,34.5C 188.511,37.6536 182.177,41.8203 176.5,47C 175.275,47.5628 174.275,47.2295 173.5,46C 178.729,40.5662 184.729,36.3995 191.5,33.5 Z"/></g>
<g><path style="opacity:1" fill="#1b1b1b" d="M 86.5,33.5 C 88.371,33.8588 89.871,34.8588 91,36.5C 93.422,40.3438 96.0887,44.0105 99,47.5C 99.6667,48.8333 99.6667,50.1667 99,51.5C 94.7597,46.6825 90.7597,41.6825 87,36.5C 86.5172,35.552 86.3505,34.552 86.5,33.5 Z"/></g>
<g><path style="opacity:1" fill="#0e0e0e" d="M 209.5,40.5 C 213.168,45.0067 216.668,49.6734 220,54.5C 220.505,58.514 219.505,62.1806 217,65.5C 212.273,73.5616 206.773,81.0616 200.5,88C 193.9,93.6295 186.234,96.4628 177.5,96.5C 173.629,96.815 169.962,96.4816 166.5,95.5C 174.686,93.2838 182.686,90.4505 190.5,87C 194.911,84.2586 198.244,80.5919 200.5,76C 203.423,73.9545 206.257,71.7879 209,69.5C 213.725,60.1495 213.558,50.8162 208.5,41.5C 208.624,40.8933 208.957,40.56 209.5,40.5 Z"/></g>
<g><path style="opacity:1" fill="#161616" d="M 66.5,49.5 C 73.2823,49.475 79.1157,51.8083 84,56.5C 84.7805,57.9437 84.6139,59.277 83.5,60.5C 81.9757,58.1421 79.9757,56.3088 77.5,55C 73.4878,53.4145 69.8211,51.5811 66.5,49.5 Z"/></g>
<g><path style="opacity:1" fill="#1e1e1e" d="M 190.5,54.5 C 195.691,54.0585 200.691,54.5585 205.5,56C 198.864,56.9714 192.197,58.1381 185.5,59.5C 184.167,58.5 184.167,57.5 185.5,56.5C 187.336,55.9724 189.003,55.3058 190.5,54.5 Z"/></g>
<g><path style="opacity:1" fill="#202020" d="M 141.5,59.5 C 142.586,59.62 143.253,60.2867 143.5,61.5C 142.953,65.8472 142.286,70.1805 141.5,74.5C 140.914,74.2907 140.414,73.9574 140,73.5C 139.119,68.6423 139.619,63.9756 141.5,59.5 Z"/></g>
<g><path style="opacity:1" fill="#1c1c1c" d="M 57.5,59.5 C 64.419,59.4582 69.7523,62.2915 73.5,68C 73.1667,68.5 72.8333,69 72.5,69.5C 68.248,64.7447 62.9147,62.0781 56.5,61.5C 56.8627,60.8165 57.1961,60.1499 57.5,59.5 Z"/></g>
<g><path style="opacity:1" fill="#1c1c1c" d="M 123.5,60.5 C 124.497,60.4701 125.164,60.9701 125.5,62C 123.751,66.3114 123.084,70.8114 123.5,75.5C 122.5,75.5 121.5,75.5 120.5,75.5C 119.867,70.1085 120.867,65.1085 123.5,60.5 Z"/></g>
<g><path style="opacity:1" fill="#181818" d="M 103.5,67.5 C 105.407,72.2838 107.907,76.9505 111,81.5C 111.749,82.635 111.583,83.635 110.5,84.5C 105.146,80.1203 102.813,74.4536 103.5,67.5 Z"/></g>
<g><path style="opacity:1" fill="#222222" d="M 177.5,67.5 C 180.518,67.3354 183.518,67.502 186.5,68C 188.813,68.6409 190.48,69.9743 191.5,72C 191.167,72.5 190.833,73 190.5,73.5C 186.935,71.0456 182.935,69.879 178.5,70C 177.748,69.3292 177.414,68.4959 177.5,67.5 Z"/></g>
<g><path style="opacity:1" fill="#1f1f1f" d="M 164.5,70.5 C 170.688,72.6886 174.354,77.022 175.5,83.5C 174.5,83.5 173.5,83.5 172.5,83.5C 172.509,81.6916 172.009,80.0249 171,78.5C 168.218,76.2295 166.051,73.5628 164.5,70.5 Z"/></g>
<g><path style="opacity:1" fill="#202020" d="M 156.5,66.5 C 157.497,66.4701 158.164,66.9701 158.5,68C 154.283,72.2716 152.116,77.4382 152,83.5C 151.586,83.9574 151.086,84.2907 150.5,84.5C 149.041,77.4029 151.041,71.4029 156.5,66.5 Z"/></g>
<g><path style="opacity:1" fill="#0c0c0c" d="M 134.5,79.5 C 135.496,79.4142 136.329,79.7476 137,80.5C 140.129,85.9261 143.629,91.0928 147.5,96C 129.447,105.529 111.114,114.196 92.5,122C 91.2888,121.107 91.2888,120.274 92.5,119.5C 99.99,117.507 106.49,113.841 112,108.5C 115.745,103.126 117.412,97.1263 117,90.5C 117.915,89.6721 118.581,88.6721 119,87.5C 124.181,84.6609 129.347,81.9943 134.5,79.5 Z"/></g>
<g><path style="opacity:1" fill="#191919" d="M 83.5,85.5 C 90.6651,85.9564 97.3318,87.9564 103.5,91.5C 102.833,91.8333 102.167,92.1667 101.5,92.5C 95.9584,90.5313 90.2917,89.0313 84.5,88C 83.7476,87.3292 83.4142,86.4959 83.5,85.5 Z"/></g>
<g><path style="opacity:1" fill="#efefef" d="M 125.5,86.5 C 133.164,85.6662 136.664,88.9995 136,96.5C 130.818,103.09 125.818,103.09 121,96.5C 120.333,94.8333 120.333,93.1667 121,91.5C 122.366,89.6383 123.866,87.9717 125.5,86.5 Z"/></g>
<g><path style="opacity:1" fill="#4b4b4b" d="M 166.5,95.5 C 169.962,96.4816 173.629,96.815 177.5,96.5C 172.36,97.4881 167.026,97.8214 161.5,97.5C 162.93,96.4625 164.597,95.7959 166.5,95.5 Z"/></g>
<g><path style="opacity:1" fill="#0c0c0c" d="M 137.5,8.5 C 137.03,9.69348 136.03,10.3601 134.5,10.5C 123.377,12.365 112.377,14.6983 101.5,17.5C 103.251,23.5198 105.751,29.1865 109,34.5C 109.798,36.2588 109.631,37.9255 108.5,39.5C 106.286,33.4266 102.786,28.0932 98,23.5C 97.5172,22.552 97.3505,21.552 97.5,20.5C 93.6924,20.1632 90.0257,20.6632 86.5,22C 74.3532,36.3145 62.0199,50.4812 49.5,64.5C 51.0284,65.8613 52.6951,67.028 54.5,68C 60.4995,68.2497 65.3328,70.7497 69,75.5C 69.7494,76.635 69.5827,77.635 68.5,78.5C 66.3501,76.8509 64.3501,75.0176 62.5,73C 59.5285,72.2057 56.5285,71.539 53.5,71C 39.4594,68.2013 33.1261,74.0346 34.5,88.5C 42.6835,87.3306 50.8502,85.9972 59,84.5C 62.4481,83.939 63.6148,85.1057 62.5,88C 49.5003,88.7509 38.667,93.9175 30,103.5C 27.9857,108.552 28.1524,113.552 30.5,118.5C 35.313,117.3 39.9797,115.8 44.5,114C 46.2588,113.202 47.9255,113.369 49.5,114.5C 46.0708,119.019 42.4041,123.352 38.5,127.5C 43.1656,129.832 47.4989,132.666 51.5,136C 53.7682,137.552 56.2682,138.385 59,138.5C 63.3876,137.636 67.3876,135.969 71,133.5C 87.3871,138.614 102.554,136.114 116.5,126C 129.376,116.401 142.709,107.568 156.5,99.5C 155.013,102.473 153.513,105.473 152,108.5C 152.25,145.001 154.917,181.334 160,217.5C 162.955,225.075 165.622,232.741 168,240.5C 172.223,257.932 170.889,274.932 164,291.5C 162.168,313.818 160.668,336.151 159.5,358.5C 159.55,367.859 160.05,377.192 161,386.5C 163.981,397.756 166.647,409.089 169,420.5C 169.087,467.455 165.42,514.122 158,560.5C 153.98,573.589 149.814,586.589 145.5,599.5C 144.833,599.5 144.5,599.167 144.5,598.5C 150.559,567.147 156.726,535.813 163,504.5C 168.742,468.734 166.742,433.4 157,398.5C 140.29,485.133 114.79,569.133 80.5,650.5C 80.1667,649.667 79.8333,648.833 79.5,648C 105.048,581.69 125.548,513.857 141,444.5C 144.465,427.243 147.465,409.91 150,392.5C 153.178,368.553 148.178,346.553 135,326.5C 126.864,315.064 118.364,303.897 109.5,293C 105.78,291.987 102.114,290.82 98.5,289.5C 98.584,301.157 93.2506,309.324 82.5,314C 76.3746,314.352 71.5413,311.852 68,306.5C 63.728,294.533 67.5614,286.033 79.5,281C 91.4863,278.55 101.32,282.05 109,291.5C 110.266,285.405 109.266,279.738 106,274.5C 91.1513,252.918 71.4846,237.585 47,228.5C 34.1491,229.668 22.8158,234.334 13,242.5C 11.0486,242.112 9.54861,241.112 8.5,239.5C 10.4987,231.168 14.332,223.835 20,217.5C 22.1973,210.773 25.1973,204.439 29,198.5C 39.8673,187.964 51.034,177.798 62.5,168C 67.1548,167.501 71.8215,167.334 76.5,167.5C 73.8302,183.012 69.8302,198.179 64.5,213C 68.4522,212.566 72.4522,212.566 76.5,213C 77.5786,213.956 78.7453,214.789 80,215.5C 82.7934,225.135 85.4601,234.802 88,244.5C 113.895,274.263 134.229,307.596 149,344.5C 150.715,347.397 153.215,348.731 156.5,348.5C 156.667,318.831 156.5,289.165 156,259.5C 149.335,264.996 142.335,269.996 135,274.5C 128.87,267.251 125.87,258.917 126,249.5C 130.805,244.666 135.972,240.166 141.5,236C 130.182,235.093 118.849,234.593 107.5,234.5C 106.653,231.84 106.153,229.174 106,226.5C 108.833,223 111.667,219.5 114.5,216C 119.278,212.741 123.944,213.074 128.5,217C 132.826,220.326 136.826,223.993 140.5,228C 144.599,230.09 148.933,231.256 153.5,231.5C 154.878,227.999 155.545,224.332 155.5,220.5C 153.156,203.073 150.322,185.74 147,168.5C 145.357,166.023 143.524,163.69 141.5,161.5C 144.195,157.97 146.695,154.304 149,150.5C 150.951,143.848 150.951,137.181 149,130.5C 147.383,124.978 145.383,119.645 143,114.5C 138.5,117.667 134,120.833 129.5,124C 126.568,126.423 124.235,129.257 122.5,132.5C 126.18,142.023 131.513,150.523 138.5,158C 138.167,158.167 137.833,158.333 137.5,158.5C 129.647,151.479 121.647,144.646 113.5,138C 96.5742,139.772 79.5742,141.272 62.5,142.5C 45.5268,142.098 33.0268,134.431 25,119.5C 23.9447,99.7124 28.2781,81.0457 38,63.5C 43.148,56.0166 49.8146,50.3499 58,46.5C 61.8501,34.9825 69.0167,26.1492 79.5,20C 97.4365,9.17693 116.77,5.3436 137.5,8.5 Z"/></g>
<g><path style="opacity:1" fill="#1d1d1d" d="M 63.5,122.5 C 65.3547,122.272 66.1881,122.939 66,124.5C 63.3116,127.188 60.6449,129.855 58,132.5C 56.4574,131.423 56.4574,130.089 58,128.5C 59.6993,126.304 61.5327,124.304 63.5,122.5 Z"/></g>
<g><path style="opacity:1" fill="#1b1b1b" d="M 65.5,102.5 C 67.288,102.215 68.9547,102.548 70.5,103.5C 65.2856,105.106 60.2856,107.272 55.5,110C 54.0563,110.781 52.723,110.614 51.5,109.5C 55.862,106.39 60.5286,104.057 65.5,102.5 Z"/></g>
<g><path style="opacity:1" fill="#f7f7f7" d="M 66.5,173.5 C 68.604,173.201 70.604,173.534 72.5,174.5C 58.5891,191.735 57.9225,209.401 70.5,227.5C 68.9255,228.631 67.2588,228.798 65.5,228C 57.4547,225.096 49.288,222.596 41,220.5C 35.3054,221.348 30.6388,224.015 27,228.5C 26.1332,223.303 26.7998,218.303 29,213.5C 36.9372,195.734 49.4372,182.401 66.5,173.5 Z"/></g>
<g><path style="opacity:1" fill="#1c1c1c" d="M 56.5,184.5 C 57.3764,184.369 58.0431,184.702 58.5,185.5C 57.9258,188.177 57.2592,190.843 56.5,193.5C 55.2588,190.463 55.2588,187.463 56.5,184.5 Z"/></g>
<g><path style="opacity:1" fill="#131313" d="M 48.5,193.5 C 49.7647,194.514 50.4313,196.014 50.5,198C 50.1667,199.5 49.8333,201 49.5,202.5C 48.5159,199.572 48.1826,196.572 48.5,193.5 Z"/></g>
<g><path style="opacity:1" fill="#101010" d="M 42.5,199.5 C 43.8032,202.355 43.8032,205.355 42.5,208.5C 41.2588,205.463 41.2588,202.463 42.5,199.5 Z"/></g>
<g><path style="opacity:1" fill="#2a2a2a" d="M 36.5,206.5 C 38.0265,207.492 38.6932,208.992 38.5,211C 38.1667,212.167 37.8333,213.333 37.5,214.5C 35.8301,211.887 35.4968,209.221 36.5,206.5 Z"/></g>
<g><path style="opacity:1" fill="#1a1a1a" d="M 32.5,213.5 C 33.6491,213.791 34.3158,214.624 34.5,216C 34.6125,217.662 33.9458,218.829 32.5,219.5C 32.0798,217.674 32.0798,215.674 32.5,213.5 Z"/></g>
<g><path style="opacity:1" fill="#f5f5f5" d="M 119.5,217.5 C 127.612,217.115 131.445,220.782 131,228.5C 130.692,229.308 130.192,229.975 129.5,230.5C 124.644,232.021 120.144,231.354 116,228.5C 113.35,223.562 114.517,219.895 119.5,217.5 Z"/></g>
<g><path style="opacity:1" fill="#f7f7f7" d="M 142.5,240.5 C 151.889,239.387 155.389,243.387 153,252.5C 152.293,254.081 151.46,255.581 150.5,257C 145.62,259.357 140.786,261.857 136,264.5C 133.285,260.404 131.119,256.071 129.5,251.5C 132.974,246.683 137.307,243.017 142.5,240.5 Z"/></g>
<g><path style="opacity:1" fill="#f4f4f4" d="M 73.5,290.5 C 77.1573,291.162 80.824,291.829 84.5,292.5C 89.046,290.272 92.046,291.605 93.5,296.5C 91.0617,300.442 88.0617,303.942 84.5,307C 82.3046,308.373 79.9712,308.706 77.5,308C 74.3333,306.167 71.8333,303.667 70,300.5C 69.1822,296.469 70.3489,293.136 73.5,290.5 Z"/></g>
<g><path style="opacity:1" fill="#8b8b8b" d="M 144.5,598.5 C 144.5,599.167 144.833,599.5 145.5,599.5C 145.108,601.179 144.608,602.846 144,604.5C 143.211,602.288 143.378,600.288 144.5,598.5 Z"/></g>
</svg>
