<?xml version="1.0" encoding="UTF-8"?>
<!DOCTYPE svg PUBLIC "-//W3C//DTD SVG 1.1//EN" "http://www.w3.org/Graphics/SVG/1.1/DTD/svg11.dtd">
<svg xmlns="http://www.w3.org/2000/svg" version="1.1" width="204px" height="659px" style="shape-rendering:geometricPrecision; text-rendering:geometricPrecision; image-rendering:optimizeQuality; fill-rule:evenodd; clip-rule:evenodd" xmlns:xlink="http://www.w3.org/1999/xlink">
<g><path style="opacity:1" fill="#fefefe" d="M -0.5,-0.5 C 67.5,-0.5 135.5,-0.5 203.5,-0.5C 203.5,219.167 203.5,438.833 203.5,658.5C 135.5,658.5 67.5,658.5 -0.5,658.5C -0.5,438.833 -0.5,219.167 -0.5,-0.5 Z"/></g>
<g><path style="opacity:1" fill="#0a0a0a" d="M 77.5,7.5 C 79.604,7.2011 81.604,7.53443 83.5,8.5C 80.3568,15.5708 75.0234,18.0708 67.5,16C 62.3593,12.2473 56.6926,10.5806 50.5,11C 41.1697,19.9873 30.8364,27.4873 19.5,33.5C 25.4872,16.0945 37.6539,7.09452 56,6.5C 63.1544,7.14203 70.321,7.47536 77.5,7.5 Z"/></g>
<g><path style="opacity:1" fill="#fafafa" d="M 77.5,7.5 C 80.2869,6.52333 83.2869,6.19 86.5,6.5C 99.0709,9.01547 111.738,11.6821 124.5,14.5C 122.749,20.5198 120.249,26.1865 117,31.5C 116.202,33.2588 116.369,34.9255 117.5,36.5C 119.714,30.4266 123.214,25.0932 128,20.5C 128.483,19.552 128.649,18.552 128.5,17.5C 132.308,17.1632 135.974,17.6632 139.5,19C 151.294,33.1299 163.461,46.9632 176,60.5C 176.089,62.1134 175.255,63.2801 173.5,64C 166.836,64.5821 161.336,67.4154 157,72.5C 156.251,73.635 156.417,74.635 157.5,75.5C 160.102,72.7231 163.102,70.5564 166.5,69C 183.125,62.6202 191.459,68.1202 191.5,85.5C 183.29,84.4917 175.123,83.1583 167,81.5C 163.552,80.939 162.385,82.1057 163.5,85C 172.286,86.2619 180.619,88.9285 188.5,93C 191.704,95.8688 194.537,99.0354 197,102.5C 197.534,106.859 197.368,111.192 196.5,115.5C 190.237,114.768 184.237,113.101 178.5,110.5C 177.833,110.833 177.167,111.167 176.5,111.5C 179.929,116.019 183.596,120.352 187.5,124.5C 181.615,128.223 175.615,131.723 169.5,135C 167.5,135.667 165.5,135.667 163.5,135C 160.57,133.205 157.57,131.705 154.5,130.5C 140.432,135.509 127.099,134.009 114.5,126C 99.8702,115.525 84.8702,105.691 69.5,96.5C 67.5786,95.6373 65.5786,94.9707 63.5,94.5C 62.3285,93.6554 60.9952,92.9887 59.5,92.5C 46.8646,90.6856 36.0313,85.3522 27,76.5C 26.6905,75.2341 26.1905,74.0674 25.5,73C 17.2897,69.0775 13.2897,62.5775 13.5,53.5C 13.7143,48.3149 14.7143,43.3149 16.5,38.5C 16.7497,36.326 17.7497,34.6594 19.5,33.5C 30.8364,27.4873 41.1697,19.9873 50.5,11C 56.6926,10.5806 62.3593,12.2473 67.5,16C 75.0234,18.0708 80.3568,15.5708 83.5,8.5C 81.604,7.53443 79.604,7.2011 77.5,7.5 Z"/></g>
<g><path style="opacity:1" fill="#191919" d="M 47.5,18.5 C 54.031,19.8569 58.8643,23.5235 62,29.5C 62.7494,30.635 62.5827,31.635 61.5,32.5C 59.7684,30.7173 58.2684,28.7173 57,26.5C 53.5981,23.9163 50.4315,21.2496 47.5,18.5 Z"/></g>
<g><path style="opacity:1" fill="#1e1e1e" d="M 71.5,22.5 C 75.6943,26.0275 79.6943,30.0275 83.5,34.5C 82.635,35.5827 81.635,35.7494 80.5,35C 76.0528,31.7429 73.0528,27.5762 71.5,22.5 Z"/></g>
<g><path style="opacity:1" fill="#1d1d1d" d="M 87.5,21.5 C 89.371,21.8588 90.871,22.8588 92,24.5C 94.3928,27.9522 96.2261,31.6189 97.5,35.5C 96.325,35.719 95.325,35.3857 94.5,34.5C 92.4495,30.2303 89.7828,26.397 86.5,23C 87.056,22.6174 87.3893,22.1174 87.5,21.5 Z"/></g>
<g><path style="opacity:1" fill="#191919" d="M 104.5,17.5 C 107.168,18.4567 108.668,20.4567 109,23.5C 109.498,26.8168 109.665,30.1501 109.5,33.5C 108.5,33.5 107.5,33.5 106.5,33.5C 106.85,27.9964 106.183,22.6631 104.5,17.5 Z"/></g>
<g><path style="opacity:1" fill="#1b1b1b" d="M 30.5,30.5 C 39.1335,32.2834 46.4668,36.45 52.5,43C 51.7248,44.2295 50.7248,44.5628 49.5,44C 44.4357,38.8012 38.4357,35.1345 31.5,33C 30.7476,32.3292 30.4142,31.4959 30.5,30.5 Z"/></g>
<g><path style="opacity:1" fill="#191919" d="M 137.5,30.5 C 139.225,30.8425 139.725,31.8425 139,33.5C 135.395,38.3903 131.562,43.0569 127.5,47.5C 126.417,46.635 126.251,45.635 127,44.5C 130.332,39.6734 133.832,35.0067 137.5,30.5 Z"/></g>
<g><path style="opacity:1" fill="#0d0d0d" d="M 16.5,38.5 C 14.7143,43.3149 13.7143,48.3149 13.5,53.5C 13.2897,62.5775 17.2897,69.0775 25.5,73C 26.1905,74.0674 26.6905,75.2341 27,76.5C 36.0313,85.3522 46.8646,90.6856 59.5,92.5C 56.0381,93.4816 52.3714,93.815 48.5,93.5C 39.5789,94.0386 31.9122,91.2052 25.5,85C 17.3938,76.6283 10.8938,67.1283 6,56.5C 5.33333,54.8333 5.33333,53.1667 6,51.5C 8.98495,46.6888 12.4849,42.3555 16.5,38.5 Z"/></g>
<g><path style="opacity:1" fill="#161616" d="M 152.5,46.5 C 154.924,46.1924 157.257,46.5258 159.5,47.5C 152.72,49.0523 147.054,52.3857 142.5,57.5C 141.386,56.277 141.219,54.9437 142,53.5C 145.308,50.7711 148.808,48.4377 152.5,46.5 Z"/></g>
<g><path style="opacity:1" fill="#1e1e1e" d="M 21.5,51.5 C 28.3007,51.1278 34.9674,51.7944 41.5,53.5C 41.5,54.5 41.5,55.5 41.5,56.5C 34.9537,54.9593 28.2871,54.126 21.5,54C 20.4019,53.2303 20.4019,52.397 21.5,51.5 Z"/></g>
<g><path style="opacity:1" fill="#202020" d="M 82.5,56.5 C 84.7761,56.7565 85.9428,58.0898 86,60.5C 86.6667,63.8333 86.6667,67.1667 86,70.5C 85.586,70.9574 85.086,71.2907 84.5,71.5C 83.5934,66.5234 82.9267,61.5234 82.5,56.5 Z"/></g>
<g><path style="opacity:1" fill="#1c1c1c" d="M 162.5,56.5 C 164.527,56.3379 166.527,56.5045 168.5,57C 168.957,57.414 169.291,57.914 169.5,58.5C 163.086,59.0405 157.752,61.7072 153.5,66.5C 152.417,65.635 152.251,64.635 153,63.5C 155.825,60.524 158.992,58.1907 162.5,56.5 Z"/></g>
<g><path style="opacity:1" fill="#1c1c1c" d="M 100.5,57.5 C 102.888,58.2187 104.388,59.8854 105,62.5C 105.498,65.8168 105.665,69.1501 105.5,72.5C 104.5,72.5 103.5,72.5 102.5,72.5C 102.817,67.3284 102.151,62.3284 100.5,57.5 Z"/></g>
<g><path style="opacity:1" fill="#1e1e1e" d="M 38.5,64.5 C 41.8984,64.1796 45.2317,64.513 48.5,65.5C 43.8914,66.549 39.5581,68.2157 35.5,70.5C 34.4173,69.635 34.2506,68.635 35,67.5C 36.5185,66.8366 37.6851,65.8366 38.5,64.5 Z"/></g>
<g><path style="opacity:1" fill="#171717" d="M 120.5,64.5 C 123.427,71.1057 121.76,76.7724 115.5,81.5C 115.167,81 114.833,80.5 114.5,80C 118.301,75.559 120.301,70.3923 120.5,64.5 Z"/></g>
<g><path style="opacity:1" fill="#202020" d="M 58.5,67.5 C 59.675,67.281 60.675,67.6143 61.5,68.5C 57.3379,72.1539 54.1712,76.4872 52,81.5C 50.5596,80.0696 50.2263,78.403 51,76.5C 53.3347,73.3347 55.8347,70.3347 58.5,67.5 Z"/></g>
<g><path style="opacity:1" fill="#1c1c1c" d="M 67.5,63.5 C 71.8843,65.3935 74.7176,68.7269 76,73.5C 76.4966,75.8098 76.6633,78.1432 76.5,80.5C 75.5,80.5 74.5,80.5 73.5,80.5C 74.1691,74.8399 72.3358,70.1732 68,66.5C 67.5172,65.552 67.3505,64.552 67.5,63.5 Z"/></g>
<g><path style="opacity:1" fill="#0c0c0c" d="M 89.5,76.5 C 97.0384,78.5141 103.538,82.1808 109,87.5C 108.179,98.6975 112.679,106.864 122.5,112C 126.046,113.793 129.713,115.293 133.5,116.5C 134.687,117.824 134.354,118.824 132.5,119.5C 114.46,110.813 96.4603,102.146 78.5,93.5C 82.4263,87.9752 86.093,82.3086 89.5,76.5 Z"/></g>
<g><path style="opacity:1" fill="#1e1e1e" d="M 135.5,82.5 C 137.924,82.1924 140.257,82.5258 142.5,83.5C 142.291,84.086 141.957,84.586 141.5,85C 135.636,85.8053 129.969,87.3053 124.5,89.5C 123.833,89.1667 123.167,88.8333 122.5,88.5C 126.574,85.7084 130.908,83.7084 135.5,82.5 Z"/></g>
<g><path style="opacity:1" fill="#efefef" d="M 94.5,83.5 C 101.831,83.0001 105.331,86.3335 105,93.5C 100.182,100.09 95.182,100.09 90,93.5C 89.0769,89.0165 90.5769,85.6832 94.5,83.5 Z"/></g>
<g><path style="opacity:1" fill="#484848" d="M 59.5,92.5 C 60.9952,92.9887 62.3285,93.6554 63.5,94.5C 58.3054,94.8205 53.3054,94.4872 48.5,93.5C 52.3714,93.815 56.0381,93.4816 59.5,92.5 Z"/></g>
<g><path style="opacity:1" fill="#0d0d0d" d="M 69.5,96.5 C 84.8702,105.691 99.8702,115.525 114.5,126C 127.099,134.009 140.432,135.509 154.5,130.5C 157.57,131.705 160.57,133.205 163.5,135C 165.5,135.667 167.5,135.667 169.5,135C 175.615,131.723 181.615,128.223 187.5,124.5C 183.596,120.352 179.929,116.019 176.5,111.5C 177.167,111.167 177.833,110.833 178.5,110.5C 184.237,113.101 190.237,114.768 196.5,115.5C 197.368,111.192 197.534,106.859 197,102.5C 194.537,99.0354 191.704,95.8688 188.5,93C 180.619,88.9285 172.286,86.2619 163.5,85C 162.385,82.1057 163.552,80.939 167,81.5C 175.123,83.1583 183.29,84.4917 191.5,85.5C 191.459,68.1202 183.125,62.6202 166.5,69C 163.102,70.5564 160.102,72.7231 157.5,75.5C 156.417,74.635 156.251,73.635 157,72.5C 161.336,67.4154 166.836,64.5821 173.5,64C 175.255,63.2801 176.089,62.1134 176,60.5C 163.461,46.9632 151.294,33.1299 139.5,19C 135.974,17.6632 132.308,17.1632 128.5,17.5C 128.649,18.552 128.483,19.552 128,20.5C 123.214,25.0932 119.714,30.4266 117.5,36.5C 116.369,34.9255 116.202,33.2588 117,31.5C 120.249,26.1865 122.749,20.5198 124.5,14.5C 111.738,11.6821 99.0709,9.01547 86.5,6.5C 110.978,1.70022 133.312,6.86689 153.5,22C 160.321,27.8222 165.155,34.9888 168,43.5C 182.31,51.0887 191.644,62.7553 196,78.5C 198.879,87.849 201.046,97.349 202.5,107C 200.918,120.467 193.918,130.133 181.5,136C 174.738,138.607 167.738,139.774 160.5,139.5C 144.438,138.235 128.438,136.735 112.5,135C 104.353,141.646 96.3529,148.479 88.5,155.5C 88.1667,155.333 87.8333,155.167 87.5,155C 94.4871,147.523 99.8204,139.023 103.5,129.5C 101.765,126.257 99.4319,123.423 96.5,121C 92,117.833 87.5,114.667 83,111.5C 78.8826,119.855 76.3826,128.688 75.5,138C 75.4933,141.258 75.9933,144.425 77,147.5C 79.3045,151.304 81.8045,154.97 84.5,158.5C 82.476,160.69 80.6427,163.023 79,165.5C 75.6778,182.74 72.8445,200.073 70.5,217.5C 70.4548,221.332 71.1215,224.999 72.5,228.5C 76.9512,227.851 81.2845,226.684 85.5,225C 91.1713,218.988 97.6713,214.154 105,210.5C 107.321,210.909 109.487,211.743 111.5,213C 114.749,216.839 117.749,220.839 120.5,225C 120.071,228.063 118.404,229.897 115.5,230.5C 105.174,231.375 94.8408,232.208 84.5,233C 90.0283,237.166 95.195,241.666 100,246.5C 100.13,255.917 97.1297,264.251 91,271.5C 83.665,266.996 76.665,261.996 70,256.5C 69.3333,286.167 69.3333,315.833 70,345.5C 70.346,347.218 70.846,348.885 71.5,350.5C 70.2447,354.145 70.2447,357.811 71.5,361.5C 70.3934,363.881 69.7267,366.381 69.5,369C 70.2435,376.335 72.4102,383.168 76,389.5C 87.5277,459.277 104.861,527.61 128,594.5C 134.245,611.322 140.412,628.156 146.5,645C 146.167,645.833 145.833,646.667 145.5,647.5C 120.636,589.074 100.469,529.074 85,467.5C 78.7701,438.67 72.4368,410.003 66,381.5C 66.4892,367.184 66.4892,352.85 66,338.5C 64.5649,321.843 63.2315,305.177 62,288.5C 55.1106,271.932 53.7772,254.932 58,237.5C 60.3783,229.741 63.0449,222.075 66,214.5C 71.0833,178.334 73.7499,142.001 74,105.5C 72.4867,102.473 70.9867,99.4734 69.5,96.5 Z"/></g>
<g><path style="opacity:1" fill="#1d1d1d" d="M 159.5,119.5 C 164.31,120.718 167.643,123.718 169.5,128.5C 168.5,129.833 167.5,129.833 166.5,128.5C 163.737,125.748 161.403,122.748 159.5,119.5 Z"/></g>
<g><path style="opacity:1" fill="#1f1f1f" d="M 155.5,99.5 C 162.581,99.8765 168.914,102.21 174.5,106.5C 173.833,106.833 173.167,107.167 172.5,107.5C 167.469,104.819 162.136,102.986 156.5,102C 155.748,101.329 155.414,100.496 155.5,99.5 Z"/></g>
<g><path style="opacity:1" fill="#f8f8f8" d="M 99.5,215.5 C 102.518,215.335 105.518,215.502 108.5,216C 112.393,219.588 112.393,223.254 108.5,227C 105.845,227.564 103.179,228.064 100.5,228.5C 95.1429,227.801 93.3096,224.801 95,219.5C 96.3968,217.93 97.8968,216.596 99.5,215.5 Z"/></g>
<g><path style="opacity:1" fill="#f7f7f7" d="M 75.5,237.5 C 84.5437,237.199 91.5437,240.866 96.5,248.5C 94.8814,253.071 92.7147,257.404 90,261.5C 84.9685,258.819 79.9685,256.152 75,253.5C 71.528,247.907 71.6947,242.574 75.5,237.5 Z"/></g>
</svg>
