<?xml version="1.0" encoding="UTF-8"?>
<!DOCTYPE svg PUBLIC "-//W3C//DTD SVG 1.1//EN" "http://www.w3.org/Graphics/SVG/1.1/DTD/svg11.dtd">
<svg xmlns="http://www.w3.org/2000/svg" version="1.1" width="227px" height="656px" style="shape-rendering:geometricPrecision; text-rendering:geometricPrecision; image-rendering:optimizeQuality; fill-rule:evenodd; clip-rule:evenodd" xmlns:xlink="http://www.w3.org/1999/xlink">
<g><path style="opacity:1" fill="#fefefe" d="M -0.5,-0.5 C 75.1667,-0.5 150.833,-0.5 226.5,-0.5C 226.5,218.167 226.5,436.833 226.5,655.5C 150.833,655.5 75.1667,655.5 -0.5,655.5C -0.5,436.833 -0.5,218.167 -0.5,-0.5 Z"/></g>
<g><path style="opacity:1" fill="#0a0a0a" d="M 77.5,10.5 C 79.604,10.2011 81.604,10.5344 83.5,11.5C 80.3568,18.5708 75.0234,21.0708 67.5,19C 62.3593,15.2473 56.6926,13.5806 50.5,14C 41.1697,22.9873 30.8364,30.4873 19.5,36.5C 25.4872,19.0945 37.6539,10.0945 56,9.5C 63.1544,10.142 70.321,10.4754 77.5,10.5 Z"/></g>
<g><path style="opacity:1" fill="#fafafa" d="M 77.5,10.5 C 80.2869,9.52333 83.2869,9.19 86.5,9.5C 99.0709,12.0155 111.738,14.6821 124.5,17.5C 122.749,23.5198 120.249,29.1865 117,34.5C 116.202,36.2588 116.369,37.9255 117.5,39.5C 119.714,33.4266 123.214,28.0932 128,23.5C 128.483,22.552 128.649,21.552 128.5,20.5C 132.308,20.1632 135.974,20.6632 139.5,22C 151.294,36.1299 163.461,49.9632 176,63.5C 176.089,65.1134 175.255,66.2801 173.5,67C 166.836,67.5821 161.336,70.4154 157,75.5C 156.251,76.635 156.417,77.635 157.5,78.5C 160.102,75.7231 163.102,73.5564 166.5,72C 183.125,65.6202 191.459,71.1202 191.5,88.5C 183.29,87.4917 175.123,86.1583 167,84.5C 163.552,83.939 162.385,85.1057 163.5,88C 172.286,89.2619 180.619,91.9285 188.5,96C 191.704,98.8688 194.537,102.035 197,105.5C 197.534,109.859 197.368,114.192 196.5,118.5C 190.237,117.768 184.237,116.101 178.5,113.5C 177.833,113.833 177.167,114.167 176.5,114.5C 179.929,119.019 183.596,123.352 187.5,127.5C 181.615,131.223 175.615,134.723 169.5,138C 167.5,138.667 165.5,138.667 163.5,138C 160.57,136.205 157.57,134.705 154.5,133.5C 140.432,138.509 127.099,137.009 114.5,129C 99.8702,118.525 84.8702,108.691 69.5,99.5C 67.5786,98.6373 65.5786,97.9707 63.5,97.5C 62.3285,96.6554 60.9952,95.9887 59.5,95.5C 46.8646,93.6856 36.0313,88.3522 27,79.5C 26.6905,78.2341 26.1905,77.0674 25.5,76C 17.2897,72.0775 13.2897,65.5775 13.5,56.5C 13.7143,51.3149 14.7143,46.3149 16.5,41.5C 16.7497,39.326 17.7497,37.6594 19.5,36.5C 30.8364,30.4873 41.1697,22.9873 50.5,14C 56.6926,13.5806 62.3593,15.2473 67.5,19C 75.0234,21.0708 80.3568,18.5708 83.5,11.5C 81.604,10.5344 79.604,10.2011 77.5,10.5 Z"/></g>
<g><path style="opacity:1" fill="#191919" d="M 47.5,21.5 C 54.031,22.8569 58.8643,26.5235 62,32.5C 62.7494,33.635 62.5827,34.635 61.5,35.5C 59.7684,33.7173 58.2684,31.7173 57,29.5C 53.5981,26.9163 50.4315,24.2496 47.5,21.5 Z"/></g>
<g><path style="opacity:1" fill="#1e1e1e" d="M 71.5,25.5 C 75.6943,29.0275 79.6943,33.0275 83.5,37.5C 82.635,38.5827 81.635,38.7494 80.5,38C 76.0528,34.7429 73.0528,30.5762 71.5,25.5 Z"/></g>
<g><path style="opacity:1" fill="#1d1d1d" d="M 87.5,24.5 C 89.371,24.8588 90.871,25.8588 92,27.5C 94.3928,30.9522 96.2261,34.6189 97.5,38.5C 96.325,38.719 95.325,38.3857 94.5,37.5C 92.4495,33.2303 89.7828,29.397 86.5,26C 87.056,25.6174 87.3893,25.1174 87.5,24.5 Z"/></g>
<g><path style="opacity:1" fill="#191919" d="M 104.5,20.5 C 107.168,21.4567 108.668,23.4567 109,26.5C 109.498,29.8168 109.665,33.1501 109.5,36.5C 108.5,36.5 107.5,36.5 106.5,36.5C 106.85,30.9964 106.183,25.6631 104.5,20.5 Z"/></g>
<g><path style="opacity:1" fill="#1b1b1b" d="M 30.5,33.5 C 39.1335,35.2834 46.4668,39.45 52.5,46C 51.7248,47.2295 50.7248,47.5628 49.5,47C 44.4357,41.8012 38.4357,38.1345 31.5,36C 30.7476,35.3292 30.4142,34.4959 30.5,33.5 Z"/></g>
<g><path style="opacity:1" fill="#191919" d="M 137.5,33.5 C 139.225,33.8425 139.725,34.8425 139,36.5C 135.395,41.3903 131.562,46.0569 127.5,50.5C 126.417,49.635 126.251,48.635 127,47.5C 130.332,42.6734 133.832,38.0067 137.5,33.5 Z"/></g>
<g><path style="opacity:1" fill="#0d0d0d" d="M 16.5,41.5 C 14.7143,46.3149 13.7143,51.3149 13.5,56.5C 13.2897,65.5775 17.2897,72.0775 25.5,76C 26.1905,77.0674 26.6905,78.2341 27,79.5C 36.0313,88.3522 46.8646,93.6856 59.5,95.5C 56.0381,96.4816 52.3714,96.815 48.5,96.5C 39.5789,97.0386 31.9122,94.2052 25.5,88C 17.3938,79.6283 10.8938,70.1283 6,59.5C 5.33333,57.8333 5.33333,56.1667 6,54.5C 8.98495,49.6888 12.4849,45.3555 16.5,41.5 Z"/></g>
<g><path style="opacity:1" fill="#161616" d="M 152.5,49.5 C 154.924,49.1924 157.257,49.5258 159.5,50.5C 152.72,52.0523 147.054,55.3857 142.5,60.5C 141.386,59.277 141.219,57.9437 142,56.5C 145.308,53.7711 148.808,51.4377 152.5,49.5 Z"/></g>
<g><path style="opacity:1" fill="#1e1e1e" d="M 21.5,54.5 C 28.3007,54.1278 34.9674,54.7944 41.5,56.5C 41.5,57.5 41.5,58.5 41.5,59.5C 34.9537,57.9593 28.2871,57.126 21.5,57C 20.4019,56.2303 20.4019,55.397 21.5,54.5 Z"/></g>
<g><path style="opacity:1" fill="#202020" d="M 82.5,59.5 C 84.7761,59.7565 85.9428,61.0898 86,63.5C 86.6667,66.8333 86.6667,70.1667 86,73.5C 85.586,73.9574 85.086,74.2907 84.5,74.5C 83.5934,69.5234 82.9267,64.5234 82.5,59.5 Z"/></g>
<g><path style="opacity:1" fill="#1c1c1c" d="M 162.5,59.5 C 164.527,59.3379 166.527,59.5045 168.5,60C 168.957,60.414 169.291,60.914 169.5,61.5C 163.086,62.0405 157.752,64.7072 153.5,69.5C 152.417,68.635 152.251,67.635 153,66.5C 155.825,63.524 158.992,61.1907 162.5,59.5 Z"/></g>
<g><path style="opacity:1" fill="#1c1c1c" d="M 100.5,60.5 C 102.888,61.2187 104.388,62.8854 105,65.5C 105.498,68.8168 105.665,72.1501 105.5,75.5C 104.5,75.5 103.5,75.5 102.5,75.5C 102.817,70.3284 102.151,65.3284 100.5,60.5 Z"/></g>
<g><path style="opacity:1" fill="#1e1e1e" d="M 38.5,67.5 C 41.8984,67.1796 45.2317,67.513 48.5,68.5C 43.8914,69.549 39.5581,71.2157 35.5,73.5C 34.4173,72.635 34.2506,71.635 35,70.5C 36.5185,69.8366 37.6851,68.8366 38.5,67.5 Z"/></g>
<g><path style="opacity:1" fill="#171717" d="M 120.5,67.5 C 123.427,74.1057 121.76,79.7724 115.5,84.5C 115.167,84 114.833,83.5 114.5,83C 118.301,78.559 120.301,73.3923 120.5,67.5 Z"/></g>
<g><path style="opacity:1" fill="#202020" d="M 58.5,70.5 C 59.675,70.281 60.675,70.6143 61.5,71.5C 57.3379,75.1539 54.1712,79.4872 52,84.5C 50.5596,83.0696 50.2263,81.403 51,79.5C 53.3347,76.3347 55.8347,73.3347 58.5,70.5 Z"/></g>
<g><path style="opacity:1" fill="#1c1c1c" d="M 67.5,66.5 C 71.8843,68.3935 74.7176,71.7269 76,76.5C 76.4966,78.8098 76.6633,81.1432 76.5,83.5C 75.5,83.5 74.5,83.5 73.5,83.5C 74.1691,77.8399 72.3358,73.1732 68,69.5C 67.5172,68.552 67.3505,67.552 67.5,66.5 Z"/></g>
<g><path style="opacity:1" fill="#0c0c0c" d="M 89.5,79.5 C 97.0384,81.5141 103.538,85.1808 109,90.5C 108.179,101.698 112.679,109.864 122.5,115C 126.046,116.793 129.713,118.293 133.5,119.5C 134.687,120.824 134.354,121.824 132.5,122.5C 114.46,113.813 96.4603,105.146 78.5,96.5C 82.4263,90.9752 86.093,85.3086 89.5,79.5 Z"/></g>
<g><path style="opacity:1" fill="#1e1e1e" d="M 135.5,85.5 C 137.924,85.1924 140.257,85.5258 142.5,86.5C 142.291,87.086 141.957,87.586 141.5,88C 135.636,88.8053 129.969,90.3053 124.5,92.5C 123.833,92.1667 123.167,91.8333 122.5,91.5C 126.574,88.7084 130.908,86.7084 135.5,85.5 Z"/></g>
<g><path style="opacity:1" fill="#efefef" d="M 94.5,86.5 C 101.831,86.0001 105.331,89.3335 105,96.5C 100.182,103.09 95.182,103.09 90,96.5C 89.0769,92.0165 90.5769,88.6832 94.5,86.5 Z"/></g>
<g><path style="opacity:1" fill="#484848" d="M 59.5,95.5 C 60.9952,95.9887 62.3285,96.6554 63.5,97.5C 58.3054,97.8205 53.3054,97.4872 48.5,96.5C 52.3714,96.815 56.0381,96.4816 59.5,95.5 Z"/></g>
<g><path style="opacity:1" fill="#0c0c0c" d="M 81.5,598.5 C 81.5,599.167 81.1667,599.5 80.5,599.5C 74.3542,582.893 69.5209,565.893 66,548.5C 59.906,506.04 56.906,463.374 57,420.5C 59.3527,409.089 62.0194,397.756 65,386.5C 65.9503,377.192 66.4503,367.859 66.5,358.5C 65.3323,336.151 63.8323,313.818 62,291.5C 55.1106,274.932 53.7772,257.932 58,240.5C 60.3783,232.741 63.0449,225.075 66,217.5C 71.0833,181.334 73.7499,145.001 74,108.5C 72.4867,105.473 70.9867,102.473 69.5,99.5C 84.8702,108.691 99.8702,118.525 114.5,129C 127.099,137.009 140.432,138.509 154.5,133.5C 157.57,134.705 160.57,136.205 163.5,138C 165.5,138.667 167.5,138.667 169.5,138C 175.615,134.723 181.615,131.223 187.5,127.5C 183.596,123.352 179.929,119.019 176.5,114.5C 177.167,114.167 177.833,113.833 178.5,113.5C 184.237,116.101 190.237,117.768 196.5,118.5C 197.368,114.192 197.534,109.859 197,105.5C 194.537,102.035 191.704,98.8688 188.5,96C 180.619,91.9285 172.286,89.2619 163.5,88C 162.385,85.1057 163.552,83.939 167,84.5C 175.123,86.1583 183.29,87.4917 191.5,88.5C 191.459,71.1202 183.125,65.6202 166.5,72C 163.102,73.5564 160.102,75.7231 157.5,78.5C 156.417,77.635 156.251,76.635 157,75.5C 161.336,70.4154 166.836,67.5821 173.5,67C 175.255,66.2801 176.089,65.1134 176,63.5C 163.461,49.9632 151.294,36.1299 139.5,22C 135.974,20.6632 132.308,20.1632 128.5,20.5C 128.649,21.552 128.483,22.552 128,23.5C 123.214,28.0932 119.714,33.4266 117.5,39.5C 116.369,37.9255 116.202,36.2588 117,34.5C 120.249,29.1865 122.749,23.5198 124.5,17.5C 111.738,14.6821 99.0709,12.0155 86.5,9.5C 110.978,4.70022 133.312,9.86689 153.5,25C 160.321,30.8222 165.155,37.9888 168,46.5C 182.31,54.0887 191.644,65.7553 196,81.5C 198.879,90.849 201.046,100.349 202.5,110C 200.918,123.467 193.918,133.133 181.5,139C 174.738,141.607 167.738,142.774 160.5,142.5C 144.438,141.235 128.438,139.735 112.5,138C 104.353,144.646 96.3529,151.479 88.5,158.5C 88.1667,158.333 87.8333,158.167 87.5,158C 94.4871,150.523 99.8204,142.023 103.5,132.5C 101.765,129.257 99.4319,126.423 96.5,124C 92,120.833 87.5,117.667 83,114.5C 78.8826,122.855 76.3826,131.688 75.5,141C 75.4933,144.258 75.9933,147.425 77,150.5C 79.3045,154.304 81.8045,157.97 84.5,161.5C 82.476,163.69 80.6427,166.023 79,168.5C 75.6778,185.74 72.8445,203.073 70.5,220.5C 70.4548,224.332 71.1215,227.999 72.5,231.5C 76.9512,230.851 81.2845,229.684 85.5,228C 91.1713,221.988 97.6713,217.154 105,213.5C 107.321,213.909 109.487,214.743 111.5,216C 114.749,219.839 117.749,223.839 120.5,228C 120.071,231.063 118.404,232.897 115.5,233.5C 105.174,234.375 94.8408,235.208 84.5,236C 90.0283,240.166 95.195,244.666 100,249.5C 100.13,258.917 97.1297,267.251 91,274.5C 83.665,269.996 76.665,264.996 70,259.5C 69.5,289.165 69.3334,318.831 69.5,348.5C 72.7845,348.731 75.2845,347.397 77,344.5C 91.7713,307.596 112.105,274.263 138,244.5C 140.54,234.802 143.207,225.135 146,215.5C 147.255,214.789 148.421,213.956 149.5,213C 153.548,212.566 157.548,212.566 161.5,213C 156.17,198.179 152.17,183.012 149.5,167.5C 154.179,167.334 158.845,167.501 163.5,168C 174.966,177.798 186.133,187.964 197,198.5C 200.803,204.439 203.803,210.773 206,217.5C 211.668,223.835 215.501,231.168 217.5,239.5C 216.451,241.112 214.951,242.112 213,242.5C 202.008,233.836 189.508,229.336 175.5,229C 157.277,237.196 141.443,248.696 128,263.5C 123.586,268.656 119.919,274.323 117,280.5C 116.333,284.167 116.333,287.833 117,291.5C 126.032,280.271 137.199,277.438 150.5,283C 162.787,291.974 163.453,301.641 152.5,312C 147.24,315.512 142.24,315.179 137.5,311C 134.296,308.131 131.463,304.965 129,301.5C 128.501,297.514 128.334,293.514 128.5,289.5C 122.496,290.087 117.33,292.42 113,296.5C 102.011,310.473 92.011,325.14 83,340.5C 76.2448,357.206 73.9115,374.539 76,392.5C 87.5277,462.277 104.861,530.61 128,597.5C 134.245,614.322 140.412,631.156 146.5,648C 146.167,648.833 145.833,649.667 145.5,650.5C 111.218,569.155 85.7182,485.155 69,398.5C 59.2582,433.4 57.2582,468.734 63,504.5C 69.2744,535.813 75.4411,567.147 81.5,598.5 Z"/></g>
<g><path style="opacity:1" fill="#1d1d1d" d="M 159.5,122.5 C 164.31,123.718 167.643,126.718 169.5,131.5C 168.5,132.833 167.5,132.833 166.5,131.5C 163.737,128.748 161.403,125.748 159.5,122.5 Z"/></g>
<g><path style="opacity:1" fill="#1f1f1f" d="M 155.5,102.5 C 162.581,102.877 168.914,105.21 174.5,109.5C 173.833,109.833 173.167,110.167 172.5,110.5C 167.469,107.819 162.136,105.986 156.5,105C 155.748,104.329 155.414,103.496 155.5,102.5 Z"/></g>
<g><path style="opacity:1" fill="#f7f7f7" d="M 153.5,173.5 C 159.278,173.882 164.611,175.715 169.5,179C 183.582,189.414 193.415,202.914 199,219.5C 199.667,222.5 199.667,225.5 199,228.5C 195.361,224.015 190.695,221.348 185,220.5C 176.591,222.192 168.425,224.692 160.5,228C 158.741,228.798 157.074,228.631 155.5,227.5C 164.177,215.948 166.344,203.282 162,189.5C 159.396,183.954 156.563,178.621 153.5,173.5 Z"/></g>
<g><path style="opacity:1" fill="#131313" d="M 167.5,184.5 C 168.496,184.414 169.329,184.748 170,185.5C 170.814,187.902 170.647,190.235 169.5,192.5C 168.619,189.87 167.952,187.203 167.5,184.5 Z"/></g>
<g><path style="opacity:1" fill="#050505" d="M 175.5,193.5 C 176.748,194.334 177.415,195.667 177.5,197.5C 177.167,198.833 176.833,200.167 176.5,201.5C 175.52,198.914 175.187,196.247 175.5,193.5 Z"/></g>
<g><path style="opacity:1" fill="#101010" d="M 182.5,199.5 C 183.117,199.611 183.617,199.944 184,200.5C 184.818,203.227 184.652,205.894 183.5,208.5C 182.516,205.572 182.183,202.572 182.5,199.5 Z"/></g>
<g><path style="opacity:1" fill="#232323" d="M 188.5,206.5 C 190.86,208.59 190.86,210.923 188.5,213.5C 187.286,211.141 187.286,208.808 188.5,206.5 Z"/></g>
<g><path style="opacity:1" fill="#1a1a1a" d="M 191.5,213.5 C 192.586,213.62 193.253,214.287 193.5,215.5C 194.309,216.986 194.309,218.319 193.5,219.5C 191.717,217.977 191.051,215.977 191.5,213.5 Z"/></g>
<g><path style="opacity:1" fill="#f8f8f8" d="M 99.5,218.5 C 102.518,218.335 105.518,218.502 108.5,219C 112.393,222.588 112.393,226.254 108.5,230C 105.845,230.564 103.179,231.064 100.5,231.5C 95.1429,230.801 93.3096,227.801 95,222.5C 96.3968,220.93 97.8968,219.596 99.5,218.5 Z"/></g>
<g><path style="opacity:1" fill="#f7f7f7" d="M 75.5,240.5 C 84.5437,240.199 91.5437,243.866 96.5,251.5C 94.8814,256.071 92.7147,260.404 90,264.5C 84.9685,261.819 79.9685,259.152 75,256.5C 71.528,250.907 71.6947,245.574 75.5,240.5 Z"/></g>
<g><path style="opacity:1" fill="#f4f4f4" d="M 148.5,290.5 C 154.568,291.076 157.068,294.409 156,300.5C 153.327,305.744 149.161,308.244 143.5,308C 138.977,304.977 135.31,301.144 132.5,296.5C 133.807,291.762 136.64,290.429 141,292.5C 143.76,292.354 146.26,291.687 148.5,290.5 Z"/></g>
<g><path style="opacity:1" fill="#8b8b8b" d="M 81.5,598.5 C 82.6225,600.288 82.7891,602.288 82,604.5C 81.3923,602.846 80.8923,601.179 80.5,599.5C 81.1667,599.5 81.5,599.167 81.5,598.5 Z"/></g>
</svg>
