<?xml version="1.0" encoding="UTF-8"?>
<!DOCTYPE svg PUBLIC "-//W3C//DTD SVG 1.1//EN" "http://www.w3.org/Graphics/SVG/1.1/DTD/svg11.dtd">
<svg xmlns="http://www.w3.org/2000/svg" version="1.1" width="204px" height="659px" style="shape-rendering:geometricPrecision; text-rendering:geometricPrecision; image-rendering:optimizeQuality; fill-rule:evenodd; clip-rule:evenodd" xmlns:xlink="http://www.w3.org/1999/xlink">
<g><path style="opacity:1" fill="#fefefe" d="M -0.5,-0.5 C 67.5,-0.5 135.5,-0.5 203.5,-0.5C 203.5,219.167 203.5,438.833 203.5,658.5C 135.5,658.5 67.5,658.5 -0.5,658.5C -0.5,438.833 -0.5,219.167 -0.5,-0.5 Z"/></g>
<g><path style="opacity:1" fill="#090909" d="M 183.5,33.5 C 172.164,27.4873 161.83,19.9873 152.5,11C 150.167,10.3333 147.833,10.3333 145.5,11C 139.767,15.1362 133.434,16.8028 126.5,16C 123.305,14.3054 120.972,11.8054 119.5,8.5C 121.396,7.53443 123.396,7.2011 125.5,7.5C 132.679,7.47536 139.846,7.14203 147,6.5C 165.402,7.11357 177.568,16.1136 183.5,33.5 Z"/></g>
<g><path style="opacity:1" fill="#fafafa" d="M 114.5,5.5 C 118.312,6.02643 121.979,6.6931 125.5,7.5C 123.396,7.2011 121.396,7.53443 119.5,8.5C 120.972,11.8054 123.305,14.3054 126.5,16C 133.434,16.8028 139.767,15.1362 145.5,11C 147.833,10.3333 150.167,10.3333 152.5,11C 161.83,19.9873 172.164,27.4873 183.5,33.5C 184.974,34.4363 185.974,35.7697 186.5,37.5C 185.957,37.56 185.624,37.8933 185.5,38.5C 190.558,47.8162 190.725,57.1495 186,66.5C 183.257,68.7879 180.423,70.9545 177.5,73C 175.244,77.5919 171.911,81.2586 167.5,84C 159.686,87.4505 151.686,90.2838 143.5,92.5C 141.597,92.7959 139.93,93.4625 138.5,94.5C 136.833,95.1667 135.167,95.8333 133.5,96.5C 119.709,104.568 106.376,113.401 93.5,123C 79.5538,133.114 64.3871,135.614 48,130.5C 44.3876,132.969 40.3876,134.636 36,135.5C 33.2682,135.385 30.7682,134.552 28.5,133C 24.4989,129.666 20.1656,126.832 15.5,124.5C 19.4041,120.352 23.0708,116.019 26.5,111.5C 24.9255,110.369 23.2588,110.202 21.5,111C 16.9797,112.8 12.313,114.3 7.5,115.5C 5.1524,110.552 4.98574,105.552 7,100.5C 15.667,90.9175 26.5003,85.7509 39.5,85C 40.6148,82.1057 39.4481,80.939 36,81.5C 27.8502,82.9972 19.6835,84.3306 11.5,85.5C 10.1261,71.0346 16.4594,65.2013 30.5,68C 33.5285,68.539 36.5285,69.2057 39.5,70C 41.3501,72.0176 43.3501,73.8509 45.5,75.5C 46.5827,74.635 46.7494,73.635 46,72.5C 42.3328,67.7497 37.4995,65.2497 31.5,65C 29.6951,64.028 28.0284,62.8613 26.5,61.5C 39.0199,47.4812 51.3532,33.3145 63.5,19C 67.0257,17.6632 70.6924,17.1632 74.5,17.5C 74.3505,18.552 74.5172,19.552 75,20.5C 79.7857,25.0932 83.2857,30.4266 85.5,36.5C 86.6309,34.9255 86.7975,33.2588 86,31.5C 82.7513,26.1865 80.2513,20.5198 78.5,14.5C 89.3769,11.6983 100.377,9.36497 111.5,7.5C 113.03,7.36015 114.03,6.69348 114.5,5.5 Z"/></g>
<g><path style="opacity:1" fill="#191919" d="M 151.5,18.5 C 152.978,18.238 154.311,18.5713 155.5,19.5C 152.696,21.1381 150.029,22.9715 147.5,25C 145.66,27.6687 143.66,30.1687 141.5,32.5C 141.167,32 140.833,31.5 140.5,31C 142.618,25.387 146.285,21.2203 151.5,18.5 Z"/></g>
<g><path style="opacity:1" fill="#191919" d="M 96.5,17.5 C 97.4972,17.4701 98.1639,17.9701 98.5,19C 96.7275,23.6483 96.0608,28.4816 96.5,33.5C 95.5,33.5 94.5,33.5 93.5,33.5C 92.9304,27.8183 93.9304,22.485 96.5,17.5 Z"/></g>
<g><path style="opacity:1" fill="#1d1d1d" d="M 113.5,21.5 C 114.756,21.4614 115.756,21.9614 116.5,23C 113.217,26.397 110.551,30.2303 108.5,34.5C 107.675,35.3857 106.675,35.719 105.5,35.5C 107.124,30.253 109.791,25.5863 113.5,21.5 Z"/></g>
<g><path style="opacity:1" fill="#1e1e1e" d="M 128.5,22.5 C 129.5,22.5 130.5,22.5 131.5,22.5C 129.718,28.1258 126.218,32.4591 121,35.5C 119.743,35.1501 119.409,34.4835 120,33.5C 123.839,30.5088 126.672,26.8422 128.5,22.5 Z"/></g>
<g><path style="opacity:1" fill="#1b1b1b" d="M 63.5,30.5 C 65.371,30.8588 66.871,31.8588 68,33.5C 70.422,37.3438 73.0887,41.0105 76,44.5C 76.6667,45.8333 76.6667,47.1667 76,48.5C 71.7597,43.6825 67.7597,38.6825 64,33.5C 63.5172,32.552 63.3505,31.552 63.5,30.5 Z"/></g>
<g><path style="opacity:1" fill="#1a1a1a" d="M 168.5,30.5 C 169.978,30.238 171.311,30.5713 172.5,31.5C 165.511,34.6536 159.177,38.8203 153.5,44C 152.275,44.5628 151.275,44.2295 150.5,43C 155.729,37.5662 161.729,33.3995 168.5,30.5 Z"/></g>
<g><path style="opacity:1" fill="#0e0e0e" d="M 186.5,37.5 C 190.168,42.0067 193.668,46.6734 197,51.5C 197.505,55.514 196.505,59.1806 194,62.5C 189.273,70.5616 183.773,78.0616 177.5,85C 170.9,90.6295 163.234,93.4628 154.5,93.5C 150.629,93.815 146.962,93.4816 143.5,92.5C 151.686,90.2838 159.686,87.4505 167.5,84C 171.911,81.2586 175.244,77.5919 177.5,73C 180.423,70.9545 183.257,68.7879 186,66.5C 190.725,57.1495 190.558,47.8162 185.5,38.5C 185.624,37.8933 185.957,37.56 186.5,37.5 Z"/></g>
<g><path style="opacity:1" fill="#161616" d="M 43.5,46.5 C 50.2823,46.475 56.1157,48.8083 61,53.5C 61.7805,54.9437 61.6139,56.277 60.5,57.5C 58.9757,55.1421 56.9757,53.3088 54.5,52C 50.4878,50.4145 46.8211,48.5811 43.5,46.5 Z"/></g>
<g><path style="opacity:1" fill="#1e1e1e" d="M 167.5,51.5 C 172.691,51.0585 177.691,51.5585 182.5,53C 175.864,53.9714 169.197,55.1381 162.5,56.5C 161.167,55.5 161.167,54.5 162.5,53.5C 164.336,52.9724 166.003,52.3058 167.5,51.5 Z"/></g>
<g><path style="opacity:1" fill="#202020" d="M 118.5,56.5 C 119.586,56.62 120.253,57.2867 120.5,58.5C 119.953,62.8472 119.286,67.1805 118.5,71.5C 117.914,71.2907 117.414,70.9574 117,70.5C 116.119,65.6423 116.619,60.9756 118.5,56.5 Z"/></g>
<g><path style="opacity:1" fill="#1c1c1c" d="M 34.5,56.5 C 41.419,56.4582 46.7523,59.2915 50.5,65C 50.1667,65.5 49.8333,66 49.5,66.5C 45.248,61.7447 39.9147,59.0781 33.5,58.5C 33.8627,57.8165 34.1961,57.1499 34.5,56.5 Z"/></g>
<g><path style="opacity:1" fill="#1c1c1c" d="M 100.5,57.5 C 101.497,57.4701 102.164,57.9701 102.5,59C 100.751,63.3114 100.084,67.8114 100.5,72.5C 99.5,72.5 98.5,72.5 97.5,72.5C 96.8665,67.1085 97.8665,62.1085 100.5,57.5 Z"/></g>
<g><path style="opacity:1" fill="#181818" d="M 80.5,64.5 C 82.4067,69.2838 84.9067,73.9505 88,78.5C 88.7494,79.635 88.5827,80.635 87.5,81.5C 82.1463,77.1203 79.813,71.4536 80.5,64.5 Z"/></g>
<g><path style="opacity:1" fill="#222222" d="M 154.5,64.5 C 157.518,64.3354 160.518,64.502 163.5,65C 165.813,65.6409 167.48,66.9743 168.5,69C 168.167,69.5 167.833,70 167.5,70.5C 163.935,68.0456 159.935,66.879 155.5,67C 154.748,66.3292 154.414,65.4959 154.5,64.5 Z"/></g>
<g><path style="opacity:1" fill="#1f1f1f" d="M 141.5,67.5 C 147.688,69.6886 151.354,74.022 152.5,80.5C 151.5,80.5 150.5,80.5 149.5,80.5C 149.509,78.6916 149.009,77.0249 148,75.5C 145.218,73.2295 143.051,70.5628 141.5,67.5 Z"/></g>
<g><path style="opacity:1" fill="#202020" d="M 133.5,63.5 C 134.497,63.4701 135.164,63.9701 135.5,65C 131.283,69.2716 129.116,74.4382 129,80.5C 128.586,80.9574 128.086,81.2907 127.5,81.5C 126.041,74.4029 128.041,68.4029 133.5,63.5 Z"/></g>
<g><path style="opacity:1" fill="#0c0c0c" d="M 111.5,76.5 C 112.496,76.4142 113.329,76.7476 114,77.5C 117.129,82.9261 120.629,88.0928 124.5,93C 106.447,102.529 88.1138,111.196 69.5,119C 68.2888,118.107 68.2888,117.274 69.5,116.5C 76.99,114.507 83.49,110.841 89,105.5C 92.745,100.126 94.4117,94.1263 94,87.5C 94.9147,86.6721 95.5814,85.6721 96,84.5C 101.181,81.6609 106.347,78.9943 111.5,76.5 Z"/></g>
<g><path style="opacity:1" fill="#191919" d="M 60.5,82.5 C 67.6651,82.9564 74.3318,84.9564 80.5,88.5C 79.8333,88.8333 79.1667,89.1667 78.5,89.5C 72.9584,87.5313 67.2917,86.0313 61.5,85C 60.7476,84.3292 60.4142,83.4959 60.5,82.5 Z"/></g>
<g><path style="opacity:1" fill="#efefef" d="M 102.5,83.5 C 110.164,82.6662 113.664,85.9995 113,93.5C 107.818,100.09 102.818,100.09 98,93.5C 97.3333,91.8333 97.3333,90.1667 98,88.5C 99.3657,86.6383 100.866,84.9717 102.5,83.5 Z"/></g>
<g><path style="opacity:1" fill="#4b4b4b" d="M 143.5,92.5 C 146.962,93.4816 150.629,93.815 154.5,93.5C 149.36,94.4881 144.026,94.8214 138.5,94.5C 139.93,93.4625 141.597,92.7959 143.5,92.5 Z"/></g>
<g><path style="opacity:1" fill="#0c0c0c" d="M 114.5,5.5 C 114.03,6.69348 113.03,7.36015 111.5,7.5C 100.377,9.36497 89.3769,11.6983 78.5,14.5C 80.2513,20.5198 82.7513,26.1865 86,31.5C 86.7975,33.2588 86.6309,34.9255 85.5,36.5C 83.2857,30.4266 79.7857,25.0932 75,20.5C 74.5172,19.552 74.3505,18.552 74.5,17.5C 70.6924,17.1632 67.0257,17.6632 63.5,19C 51.3532,33.3145 39.0199,47.4812 26.5,61.5C 28.0284,62.8613 29.6951,64.028 31.5,65C 37.4995,65.2497 42.3328,67.7497 46,72.5C 46.7494,73.635 46.5827,74.635 45.5,75.5C 43.3501,73.8509 41.3501,72.0176 39.5,70C 36.5285,69.2057 33.5285,68.539 30.5,68C 16.4594,65.2013 10.1261,71.0346 11.5,85.5C 19.6835,84.3306 27.8502,82.9972 36,81.5C 39.4481,80.939 40.6148,82.1057 39.5,85C 26.5003,85.7509 15.667,90.9175 7,100.5C 4.98574,105.552 5.1524,110.552 7.5,115.5C 12.313,114.3 16.9797,112.8 21.5,111C 23.2588,110.202 24.9255,110.369 26.5,111.5C 23.0708,116.019 19.4041,120.352 15.5,124.5C 20.1656,126.832 24.4989,129.666 28.5,133C 30.7682,134.552 33.2682,135.385 36,135.5C 40.3876,134.636 44.3876,132.969 48,130.5C 64.3871,135.614 79.5538,133.114 93.5,123C 106.376,113.401 119.709,104.568 133.5,96.5C 132.013,99.4734 130.513,102.473 129,105.5C 129.25,142.001 131.917,178.334 137,214.5C 139.955,222.075 142.622,229.741 145,237.5C 149.223,254.932 147.889,271.932 141,288.5C 139.768,305.177 138.435,321.843 137,338.5C 136.255,351.348 136.422,364.181 137.5,377C 120.931,469.39 94.5974,559.057 58.5,646C 58.1667,646.5 57.8333,647 57.5,647.5C 56.3691,645.926 56.2025,644.259 57,642.5C 89.8083,560.794 113.142,476.46 127,389.5C 130.59,383.168 132.756,376.335 133.5,369C 133.273,366.381 132.607,363.881 131.5,361.5C 132.755,357.811 132.755,354.145 131.5,350.5C 132.154,348.885 132.654,347.218 133,345.5C 133.667,315.833 133.667,286.167 133,256.5C 126.335,261.996 119.335,266.996 112,271.5C 105.87,264.251 102.87,255.917 103,246.5C 107.805,241.666 112.972,237.166 118.5,233C 107.182,232.093 95.8491,231.593 84.5,231.5C 83.6529,228.84 83.1529,226.174 83,223.5C 85.8333,220 88.6667,216.5 91.5,213C 96.2776,209.741 100.944,210.074 105.5,214C 109.826,217.326 113.826,220.993 117.5,225C 121.599,227.09 125.933,228.256 130.5,228.5C 131.878,224.999 132.545,221.332 132.5,217.5C 130.156,200.073 127.322,182.74 124,165.5C 122.357,163.023 120.524,160.69 118.5,158.5C 121.195,154.97 123.695,151.304 126,147.5C 127.951,140.848 127.951,134.181 126,127.5C 124.383,121.978 122.383,116.645 120,111.5C 115.5,114.667 111,117.833 106.5,121C 103.568,123.423 101.235,126.257 99.5,129.5C 103.18,139.023 108.513,147.523 115.5,155C 115.167,155.167 114.833,155.333 114.5,155.5C 106.647,148.479 98.6471,141.646 90.5,135C 73.5742,136.772 56.5742,138.272 39.5,139.5C 22.5268,139.098 10.0268,131.431 2,116.5C 0.944741,96.7124 5.27807,78.0457 15,60.5C 20.148,53.0166 26.8146,47.3499 35,43.5C 38.8501,31.9825 46.0167,23.1492 56.5,17C 74.4365,6.17693 93.7699,2.3436 114.5,5.5 Z"/></g>
<g><path style="opacity:1" fill="#1d1d1d" d="M 40.5,119.5 C 42.3547,119.272 43.1881,119.939 43,121.5C 40.3116,124.188 37.6449,126.855 35,129.5C 33.4574,128.423 33.4574,127.089 35,125.5C 36.6993,123.304 38.5327,121.304 40.5,119.5 Z"/></g>
<g><path style="opacity:1" fill="#1b1b1b" d="M 42.5,99.5 C 44.288,99.2148 45.9547,99.5481 47.5,100.5C 42.2856,102.106 37.2856,104.272 32.5,107C 31.0563,107.781 29.723,107.614 28.5,106.5C 32.862,103.39 37.5286,101.057 42.5,99.5 Z"/></g>
<g><path style="opacity:1" fill="#f5f5f5" d="M 96.5,214.5 C 104.612,214.115 108.445,217.782 108,225.5C 107.692,226.308 107.192,226.975 106.5,227.5C 101.644,229.021 97.1444,228.354 93,225.5C 90.3502,220.562 91.5169,216.895 96.5,214.5 Z"/></g>
<g><path style="opacity:1" fill="#f7f7f7" d="M 119.5,237.5 C 128.889,236.387 132.389,240.387 130,249.5C 129.293,251.081 128.46,252.581 127.5,254C 122.62,256.357 117.786,258.857 113,261.5C 110.285,257.404 108.119,253.071 106.5,248.5C 109.974,243.683 114.307,240.017 119.5,237.5 Z"/></g>
</svg>
