<?xml version="1.0" encoding="UTF-8"?>
<svg xmlns="http://www.w3.org/2000/svg" viewBox="0 0 726 1711" width="726" height="1711">
  <path d="M577.00,314.00 C573.00,316.83 557.33,325.83 553.00,331.00 C548.67,336.17 552.67,340.50 551.00,345.00 C549.33,349.50 545.83,351.50 543.00,358.00 C540.17,364.50 536.00,375.00 534.00,384.00 C532.00,393.00 531.00,406.67 531.00,412.00 C531.00,417.33 532.33,415.50 534.00,416.00 C535.67,416.50 537.83,417.17 541.00,415.00 C544.17,412.83 549.00,405.50 553.00,403.00 C557.00,400.50 561.50,402.00 565.00,400.00 C568.50,398.00 569.50,393.83 574.00,391.00 C578.50,388.17 586.00,384.50 592.00,383.00 C598.00,381.50 604.83,381.83 610.00,382.00 C615.17,382.17 620.83,383.67 623.00,384.00" fill="none" stroke="black" stroke-width="12.17" stroke-linecap="round" stroke-linejoin="round"/>
  <path d="M674.00,429.00 C674.17,431.00 675.33,438.00 675.00,441.00 C674.67,444.00 674.50,444.83 672.00,447.00 C669.50,449.17 662.83,451.67 660.00,454.00 C657.17,456.33 654.67,457.17 655.00,461.00 C655.33,464.83 660.83,472.83 662.00,477.00 C663.17,481.17 663.17,482.67 662.00,486.00 C660.83,489.33 656.50,493.17 655.00,497.00 C653.50,500.83 652.67,506.33 653.00,509.00 C653.33,511.67 655.17,513.33 657.00,513.00 C658.83,512.67 660.83,508.00 664.00,507.00 C667.17,506.00 673.50,506.50 676.00,507.00 C678.50,507.50 678.50,508.33 679.00,510.00 C679.50,511.67 679.67,515.17 679.00,517.00 C678.33,518.83 677.67,520.33 675.00,521.00 C672.33,521.67 666.00,521.83 663.00,521.00 C660.00,520.17 658.50,516.33 657.00,516.00 C655.50,515.67 654.83,516.00 654.00,519.00 C653.17,522.00 650.83,528.50 652.00,534.00 C653.17,539.50 659.33,547.67 661.00,552.00 C662.67,556.33 662.50,558.00 662.00,560.00 C661.50,562.00 661.17,562.67 658.00,564.00 C654.83,565.33 646.83,566.00 643.00,568.00 C639.17,570.00 637.17,572.33 635.00,576.00 C632.83,579.67 631.17,585.17 630.00,590.00 C628.83,594.83 628.83,602.00 628.00,605.00 C627.17,608.00 627.17,608.33 625.00,608.00 C622.83,607.67 624.33,616.67 615.00,603.00 C605.67,589.33 578.33,541.17 569.00,526.00 C559.67,510.83 561.83,514.83 559.00,512.00 C556.17,509.17 553.17,509.50 552.00,509.00" fill="none" stroke="black" stroke-width="10.77" stroke-linecap="round" stroke-linejoin="round"/>
  <path d="M309.00,439.00 C313.50,436.83 326.33,429.67 336.00,426.00 C345.67,422.33 357.83,419.17 367.00,417.00 C376.17,414.83 381.67,413.67 391.00,413.00 C400.33,412.33 413.83,412.33 423.00,413.00 C432.17,413.67 437.83,415.00 446.00,417.00 C454.17,419.00 463.83,421.67 472.00,425.00 C480.17,428.33 490.17,433.50 495.00,437.00 C499.83,440.50 501.00,443.83 501.00,446.00 C501.00,448.17 499.50,449.83 495.00,450.00 C490.50,450.17 484.17,447.33 474.00,447.00 C463.83,446.67 446.67,446.33 434.00,448.00 C421.33,449.67 407.83,453.67 398.00,457.00 C388.17,460.33 378.83,466.17 375.00,468.00" fill="none" stroke="black" stroke-width="10.77" stroke-linecap="round" stroke-linejoin="round"/>
  <path d="M439.00,621.00 C438.83,615.67 436.83,600.83 438.00,589.00 C439.17,577.17 443.83,558.67 446.00,550.00 C448.17,541.33 448.50,539.83 451.00,537.00 C453.50,534.17 457.67,536.33 461.00,533.00 C464.33,529.67 467.17,521.83 471.00,517.00 C474.83,512.17 480.00,506.33 484.00,504.00 C488.00,501.67 493.00,502.33 495.00,503.00 C497.00,503.67 494.50,505.83 496.00,508.00 C497.50,510.17 500.33,513.67 504.00,516.00 C507.67,518.33 512.67,521.33 518.00,522.00 C523.33,522.67 530.00,522.50 536.00,520.00 C542.00,517.50 550.50,511.50 554.00,507.00 C557.50,502.50 556.50,498.17 557.00,493.00 C557.50,487.83 557.67,481.00 557.00,476.00 C556.33,471.00 554.83,467.17 553.00,463.00 C551.17,458.83 547.17,453.00 546.00,451.00" fill="none" stroke="black" stroke-width="11.31" stroke-linecap="round" stroke-linejoin="round"/>
  <path d="M472.00,1067.00 C471.33,1064.33 468.67,1056.33 468.00,1051.00 C467.33,1045.67 466.67,1040.83 468.00,1035.00 C469.33,1029.17 474.67,1021.17 476.00,1016.00 C477.33,1010.83 478.67,1009.50 476.00,1004.00 C473.33,998.50 462.83,988.00 460.00,983.00 C457.17,978.00 458.83,976.50 459.00,974.00 C459.17,971.50 458.33,971.17 461.00,968.00 C463.67,964.83 472.50,958.33 475.00,955.00 C477.50,951.67 476.67,950.17 476.00,948.00 C475.33,945.83 474.17,944.00 471.00,942.00 C467.83,940.00 460.67,938.17 457.00,936.00 C453.33,933.83 450.67,931.33 449.00,929.00 C447.33,926.67 447.17,924.83 447.00,922.00 C446.83,919.17 446.33,916.17 448.00,912.00 C449.67,907.83 453.67,901.33 457.00,897.00 C460.33,892.67 461.50,889.83 468.00,886.00 C474.50,882.17 489.67,877.67 496.00,874.00 C502.33,870.33 503.17,868.00 506.00,864.00 C508.83,860.00 511.50,855.17 513.00,850.00 C514.50,844.83 517.33,836.50 515.00,833.00 C512.67,829.50 503.33,831.83 499.00,829.00 C494.67,826.17 490.83,819.83 489.00,816.00 C487.17,812.17 487.33,808.83 488.00,806.00 C488.67,803.17 490.17,800.00 493.00,799.00 C495.83,798.00 502.00,798.33 505.00,800.00 C508.00,801.67 508.67,806.50 511.00,809.00 C513.33,811.50 518.33,811.00 519.00,815.00 C519.67,819.00 515.67,830.00 515.00,833.00" fill="none" stroke="black" stroke-width="10.77" stroke-linecap="round" stroke-linejoin="round"/>
  <path d="M668.00,1699.00 C671.83,1617.83 686.00,1326.00 691.00,1212.00 C696.00,1098.00 696.83,1061.17 698.00,1015.00 C699.17,968.83 699.17,963.67 698.00,935.00 C696.83,906.33 694.33,870.50 691.00,843.00 C687.67,815.50 680.83,784.83 678.00,770.00 C675.17,755.17 676.50,760.17 674.00,754.00 C671.50,747.83 664.50,737.17 663.00,733.00 C661.50,728.83 664.83,731.17 665.00,729.00 C665.17,726.83 665.50,725.50 664.00,720.00 C662.50,714.50 661.83,710.67 656.00,696.00 C650.17,681.33 634.17,646.67 629.00,632.00 C623.83,617.33 626.00,612.00 625.00,608.00 C624.00,604.00 623.33,608.00 623.00,608.00" fill="none" stroke="black" stroke-width="10.20" stroke-linecap="round" stroke-linejoin="round"/>
  <path d="M302.00,49.00 C302.50,47.17 302.50,41.67 305.00,38.00 C307.50,34.33 311.67,30.00 317.00,27.00 C322.33,24.00 330.17,21.67 337.00,20.00 C343.83,18.33 339.83,17.00 358.00,17.00 C376.17,17.00 422.67,18.17 446.00,20.00 C469.33,21.83 485.33,25.67 498.00,28.00 C510.67,30.33 510.00,29.67 522.00,34.00 C534.00,38.33 556.83,47.00 570.00,54.00 C583.17,61.00 593.33,69.67 601.00,76.00 C608.67,82.33 610.83,85.33 616.00,92.00 C621.17,98.67 628.50,109.67 632.00,116.00 C635.50,122.33 636.00,124.67 637.00,130.00 C638.00,135.33 638.33,144.17 638.00,148.00 C637.67,151.83 640.67,154.00 635.00,153.00 C629.33,152.00 614.50,144.50 604.00,142.00 C593.50,139.50 580.83,137.83 572.00,138.00 C563.17,138.17 559.67,139.17 551.00,143.00 C542.33,146.83 527.33,157.50 520.00,161.00 C512.67,164.50 511.17,163.83 507.00,164.00 C502.83,164.17 500.17,164.67 495.00,162.00 C489.83,159.33 480.83,150.83 476.00,148.00 C471.17,145.17 471.33,144.50 466.00,145.00 C460.67,145.50 449.67,150.17 444.00,151.00 C438.33,151.83 441.67,153.67 432.00,150.00 C422.33,146.33 395.50,134.50 386.00,129.00 C376.50,123.50 380.00,125.00 375.00,117.00 C370.00,109.00 361.67,89.67 356.00,81.00 C350.33,72.33 347.33,69.83 341.00,65.00 C334.67,60.17 324.33,54.83 318.00,52.00 C311.67,49.17 306.00,48.00 303.00,48.00 C300.00,48.00 300.33,47.17 300.00,52.00 C299.67,56.83 298.50,62.17 301.00,77.00 C303.50,91.83 310.50,123.33 315.00,141.00 C319.50,158.67 325.67,173.83 328.00,183.00 C330.33,192.17 330.50,194.00 329.00,196.00 C327.50,198.00 326.50,197.50 319.00,195.00 C311.50,192.50 294.83,184.50 284.00,181.00 C273.17,177.50 264.00,175.83 254.00,174.00 C244.00,172.17 241.17,171.33 224.00,170.00 C206.83,168.67 166.17,167.67 151.00,166.00 C135.83,164.33 142.00,164.33 133.00,160.00 C124.00,155.67 104.83,143.83 97.00,140.00 C89.17,136.17 92.17,137.67 86.00,137.00 C79.83,136.33 65.67,135.83 60.00,136.00 C54.33,136.17 53.83,137.00 52.00,138.00 C50.17,139.00 51.33,141.17 49.00,142.00 C46.67,142.83 42.00,140.50 38.00,143.00 C34.00,145.50 28.17,150.50 25.00,157.00 C21.83,163.50 20.00,176.33 19.00,182.00 C18.00,187.67 18.67,187.83 19.00,191.00 C19.33,194.17 18.33,194.17 21.00,201.00 C23.67,207.83 32.00,223.33 35.00,232.00 C38.00,240.67 37.17,247.17 39.00,253.00 C40.83,258.83 42.83,262.00 46.00,267.00 C49.17,272.00 54.00,275.17 58.00,283.00 C62.00,290.83 67.50,302.00 70.00,314.00 C72.50,326.00 73.83,338.67 73.00,355.00 C72.17,371.33 65.33,400.00 65.00,412.00 C64.67,424.00 66.83,420.83 71.00,427.00 C75.17,433.17 86.50,443.33 90.00,449.00 C93.50,454.67 92.17,456.17 92.00,461.00 C91.83,465.83 88.67,472.83 89.00,478.00 C89.33,483.17 91.50,488.00 94.00,492.00 C96.50,496.00 100.17,499.00 104.00,502.00 C107.83,505.00 110.00,507.83 117.00,510.00 C124.00,512.17 134.50,515.00 146.00,515.00 C157.50,515.00 170.33,513.50 186.00,510.00 C201.67,506.50 230.33,499.17 240.00,494.00 C249.67,488.83 243.33,484.50 244.00,479.00 C244.67,473.50 246.50,469.50 244.00,461.00 C241.50,452.50 232.33,436.33 229.00,428.00 C225.67,419.67 225.00,419.67 224.00,411.00 C223.00,402.33 222.17,385.83 223.00,376.00 C223.83,366.17 226.50,358.33 229.00,352.00 C231.50,345.67 234.50,342.17 238.00,338.00 C241.50,333.83 245.17,330.33 250.00,327.00 C254.83,323.67 259.67,320.50 267.00,318.00 C274.33,315.50 283.67,313.17 294.00,312.00 C304.33,310.83 315.00,309.33 329.00,311.00 C343.00,312.67 361.83,316.17 378.00,322.00 C394.17,327.83 412.67,338.17 426.00,346.00 C439.33,353.83 446.83,359.83 458.00,369.00 C469.17,378.17 485.17,394.83 493.00,401.00 C500.83,407.17 503.00,411.50 505.00,406.00 C507.00,400.50 503.17,375.17 505.00,368.00 C506.83,360.83 510.00,368.67 516.00,363.00 C522.00,357.33 534.67,339.17 541.00,334.00 C547.33,328.83 551.83,332.33 554.00,332.00" fill="none" stroke="black" stroke-width="10.77" stroke-linecap="round" stroke-linejoin="round"/>
  <path d="M49.00,142.00 C49.33,143.33 48.17,143.83 51.00,150.00 C53.83,156.17 58.17,166.33 66.00,179.00 C73.83,191.67 88.33,213.83 98.00,226.00 C107.67,238.17 115.33,245.00 124.00,252.00 C132.67,259.00 142.50,264.33 150.00,268.00 C157.50,271.67 161.33,273.00 169.00,274.00 C176.67,275.00 187.83,275.00 196.00,274.00 C204.17,273.00 207.00,271.83 218.00,268.00 C229.00,264.17 248.83,255.17 262.00,251.00 C275.17,246.83 283.83,244.67 297.00,243.00 C310.17,241.33 327.67,240.50 341.00,241.00 C354.33,241.50 370.00,245.17 377.00,246.00 C384.00,246.83 381.67,246.50 383.00,246.00 C384.33,245.50 380.50,241.50 385.00,243.00 C389.50,244.50 399.33,247.00 410.00,255.00 C420.67,263.00 438.17,279.33 449.00,291.00 C459.83,302.67 468.00,314.17 475.00,325.00 C482.00,335.83 486.67,349.83 491.00,356.00 C495.33,362.17 498.67,359.83 501.00,362.00 C503.33,364.17 504.33,367.83 505.00,369.00" fill="none" stroke="black" stroke-width="10.77" stroke-linecap="round" stroke-linejoin="round"/>
  <path d="M636.00,152.00 C635.67,154.00 635.33,160.00 634.00,164.00 C632.67,168.00 631.33,170.83 628.00,176.00 C624.67,181.17 623.83,184.50 614.00,195.00 C604.17,205.50 582.17,227.17 569.00,239.00 C555.83,250.83 542.83,258.83 535.00,266.00 C527.17,273.17 526.00,275.17 522.00,282.00 C518.00,288.83 513.83,297.50 511.00,307.00 C508.17,316.50 506.00,330.50 505.00,339.00 C504.00,347.50 505.67,354.00 505.00,358.00 C504.33,362.00 501.67,362.17 501.00,363.00" fill="none" stroke="black" stroke-width="10.77" stroke-linecap="round" stroke-linejoin="round"/>
  <path d="M328.00,196.00 C329.33,197.33 327.67,198.17 336.00,204.00 C344.33,209.83 369.67,224.33 378.00,231.00 C386.33,237.67 384.67,241.83 386.00,244.00" fill="none" stroke="black" stroke-width="10.77" stroke-linecap="round" stroke-linejoin="round"/>
  <path d="M565.00,400.00 C564.67,402.33 566.00,406.33 563.00,414.00 C560.00,421.67 549.83,439.67 547.00,446.00 C544.17,452.33 547.67,450.83 546.00,452.00 C544.33,453.17 540.50,451.67 537.00,453.00 C533.50,454.33 528.17,459.50 525.00,460.00 C521.83,460.50 520.67,458.33 518.00,456.00 C515.33,453.67 510.50,447.67 509.00,446.00" fill="none" stroke="black" stroke-width="10.77" stroke-linecap="round" stroke-linejoin="round"/>
  <path d="M505.00,406.00 C506.00,408.67 509.67,416.00 511.00,422.00 C512.33,428.00 513.33,437.83 513.00,442.00 C512.67,446.17 511.00,446.33 509.00,447.00 C507.00,447.67 502.33,446.17 501.00,446.00" fill="none" stroke="black" stroke-width="14.00" stroke-linecap="round" stroke-linejoin="round"/>
  <path d="M525.00,460.00 C524.33,462.00 524.83,468.50 521.00,472.00 C517.17,475.50 507.33,479.33 502.00,481.00 C496.67,482.67 494.00,480.50 489.00,482.00 C484.00,483.50 478.00,485.83 472.00,490.00 C466.00,494.17 456.83,500.17 453.00,507.00 C449.17,513.83 449.33,525.83 449.00,531.00 C448.67,536.17 450.67,536.83 451.00,538.00" fill="none" stroke="black" stroke-width="13.42" stroke-linecap="round" stroke-linejoin="round"/>
  <path d="M500.00,481.00 C500.33,481.00 502.00,479.17 502.00,481.00 C502.00,482.83 501.33,488.33 500.00,492.00 C498.67,495.67 495.00,501.17 494.00,503.00" fill="none" stroke="black" stroke-width="10.77" stroke-linecap="round" stroke-linejoin="round"/>
  <path d="M239.00,495.00 C239.50,497.50 239.17,503.17 242.00,510.00 C244.83,516.83 253.83,525.00 256.00,536.00 C258.17,547.00 254.67,566.83 255.00,576.00 C255.33,585.17 255.83,585.17 258.00,591.00 C260.17,596.83 264.50,606.33 268.00,611.00 C271.50,615.67 274.83,618.00 279.00,619.00 C283.17,620.00 287.17,619.17 293.00,617.00 C298.83,614.83 302.33,613.67 314.00,606.00 C325.67,598.33 342.83,586.33 363.00,571.00 C383.17,555.67 420.17,524.67 435.00,514.00 C449.83,503.33 449.17,508.17 452.00,507.00" fill="none" stroke="black" stroke-width="10.77" stroke-linecap="round" stroke-linejoin="round"/>
  <path d="M657.00,513.00 C656.83,513.67 655.83,516.33 656.00,517.00 C656.17,517.67 657.67,517.00 658.00,517.00" fill="none" stroke="black" stroke-width="18.11" stroke-linecap="round" stroke-linejoin="round"/>
  <path d="M664.00,734.00 C656.33,729.33 627.83,711.17 618.00,706.00 C608.17,700.83 610.00,703.50 605.00,703.00 C600.00,702.50 593.83,702.00 588.00,703.00 C582.17,704.00 575.17,706.50 570.00,709.00 C564.83,711.50 560.50,715.00 557.00,718.00 C553.50,721.00 550.67,723.00 549.00,727.00 C547.33,731.00 547.33,739.50 547.00,742.00" fill="none" stroke="black" stroke-width="10.77" stroke-linecap="round" stroke-linejoin="round"/>
  <path d="M542.00,761.00 C542.67,761.50 544.67,761.83 546.00,764.00 C547.33,766.17 548.33,771.17 550.00,774.00 C551.67,776.83 552.83,779.67 556.00,781.00 C559.17,782.33 565.17,783.17 569.00,782.00 C572.83,780.83 576.67,776.83 579.00,774.00 C581.33,771.17 582.33,768.33 583.00,765.00 C583.67,761.67 583.67,757.33 583.00,754.00 C582.33,750.67 581.17,747.67 579.00,745.00 C576.83,742.33 572.33,739.33 570.00,738.00 C567.67,736.67 568.67,736.50 565.00,737.00 C561.33,737.50 551.50,739.50 548.00,741.00 C544.50,742.50 545.00,742.67 544.00,746.00 C543.00,749.33 543.50,758.00 542.00,761.00 C540.50,764.00 536.83,762.50 535.00,764.00 C533.17,765.50 532.50,765.67 531.00,770.00 C529.50,774.33 527.17,783.17 526.00,790.00 C524.83,796.83 525.17,806.83 524.00,811.00 C522.83,815.17 519.83,814.33 519.00,815.00" fill="none" stroke="black" stroke-width="10.77" stroke-linecap="round" stroke-linejoin="round"/>
</svg>
