<?xml version="1.0" encoding="UTF-8"?>
<svg xmlns="http://www.w3.org/2000/svg" viewBox="0 0 723 1721" width="723" height="1721">
  <path d="M146.00,317.00 C150.00,319.83 165.83,329.00 170.00,334.00 C174.17,339.00 169.50,342.67 171.00,347.00 C172.50,351.33 176.17,353.83 179.00,360.00 C181.83,366.17 186.00,377.83 188.00,384.00 C190.00,390.17 190.50,391.67 191.00,397.00 C191.50,402.33 191.50,412.33 191.00,416.00 C190.50,419.67 189.50,418.67 188.00,419.00 C186.50,419.33 185.00,420.17 182.00,418.00 C179.00,415.83 174.17,408.67 170.00,406.00 C165.83,403.33 161.00,404.33 157.00,402.00 C153.00,399.67 150.33,394.67 146.00,392.00 C141.67,389.33 136.50,387.17 131.00,386.00 C125.50,384.83 118.67,384.67 113.00,385.00 C107.33,385.33 99.67,387.50 97.00,388.00" fill="none" stroke="black" stroke-width="12.17" stroke-linecap="round" stroke-linejoin="round"/>
  <path d="M49.00,432.00 C48.67,433.17 46.83,436.17 47.00,439.00 C47.17,441.83 47.33,446.00 50.00,449.00 C52.67,452.00 60.00,454.67 63.00,457.00 C66.00,459.33 68.50,458.17 68.00,463.00 C67.50,467.83 61.00,481.00 60.00,486.00 C59.00,491.00 60.83,490.83 62.00,493.00 C63.17,495.17 65.67,495.83 67.00,499.00 C68.33,502.17 70.33,509.50 70.00,512.00 C69.67,514.50 66.83,514.33 65.00,514.00 C63.17,513.67 62.00,510.67 59.00,510.00 C56.00,509.33 49.50,509.33 47.00,510.00 C44.50,510.67 44.50,512.50 44.00,514.00 C43.50,515.50 43.33,517.33 44.00,519.00 C44.67,520.67 45.33,523.17 48.00,524.00 C50.67,524.83 57.00,524.83 60.00,524.00 C63.00,523.17 64.50,519.17 66.00,519.00 C67.50,518.83 68.17,519.83 69.00,523.00 C69.83,526.17 72.17,532.83 71.00,538.00 C69.83,543.17 63.67,550.00 62.00,554.00 C60.33,558.00 60.50,559.83 61.00,562.00 C61.50,564.17 61.83,565.50 65.00,567.00 C68.17,568.50 76.33,569.17 80.00,571.00 C83.67,572.83 84.83,574.33 87.00,578.00 C89.17,581.67 91.83,588.33 93.00,593.00 C94.17,597.67 93.00,603.00 94.00,606.00 C95.00,609.00 98.83,606.83 99.00,611.00 C99.17,615.17 100.67,615.67 95.00,631.00 C89.33,646.33 71.00,687.50 65.00,703.00 C59.00,718.50 60.17,719.00 59.00,724.00 C57.83,729.00 57.83,731.17 58.00,733.00 C58.17,734.83 61.17,732.00 60.00,735.00 C58.83,738.00 53.50,744.67 51.00,751.00 C48.50,757.33 48.17,757.67 45.00,773.00 C41.83,788.33 35.33,818.33 32.00,843.00 C28.67,867.67 26.17,888.33 25.00,921.00 C23.83,953.67 24.00,991.50 25.00,1039.00 C26.00,1086.50 27.50,1121.83 31.00,1206.00 C34.50,1290.17 41.83,1461.33 46.00,1544.00 C50.17,1626.67 54.33,1675.67 56.00,1702.00" fill="none" stroke="black" stroke-width="10.20" stroke-linecap="round" stroke-linejoin="round"/>
  <path d="M414.00,442.00 C407.00,439.00 385.67,428.33 372.00,424.00 C358.33,419.67 344.00,417.33 332.00,416.00 C320.00,414.67 311.67,414.67 300.00,416.00 C288.33,417.33 273.50,420.33 262.00,424.00 C250.50,427.67 237.67,433.83 231.00,438.00 C224.33,442.17 225.00,447.00 222.00,449.00 C219.00,451.00 215.00,450.50 213.00,450.00 C211.00,449.50 210.50,448.50 210.00,446.00 C209.50,443.50 209.50,439.50 210.00,435.00 C210.50,430.50 211.33,423.67 213.00,419.00 C214.67,414.33 217.17,409.50 220.00,407.00 C222.83,404.50 224.50,408.17 230.00,404.00 C235.50,399.83 243.83,389.83 253.00,382.00 C262.17,374.17 273.50,364.83 285.00,357.00 C296.50,349.17 310.50,340.83 322.00,335.00 C333.50,329.17 343.33,325.33 354.00,322.00 C364.67,318.67 375.17,316.33 386.00,315.00 C396.83,313.67 409.83,313.67 419.00,314.00 C428.17,314.33 434.83,315.83 441.00,317.00 C447.17,318.17 450.00,318.33 456.00,321.00 C462.00,323.67 471.00,327.83 477.00,333.00 C483.00,338.17 488.33,345.33 492.00,352.00 C495.67,358.67 497.67,364.33 499.00,373.00 C500.33,381.67 500.17,396.50 500.00,404.00 C499.83,411.50 500.83,410.17 498.00,418.00 C495.17,425.83 486.33,442.67 483.00,451.00 C479.67,459.33 478.67,462.67 478.00,468.00 C477.33,473.33 478.17,478.17 479.00,483.00 C479.83,487.83 480.33,494.33 483.00,497.00 C485.67,499.67 488.00,496.83 495.00,499.00 C502.00,501.17 513.83,507.00 525.00,510.00 C536.17,513.00 551.00,515.83 562.00,517.00 C573.00,518.17 583.00,518.00 591.00,517.00 C599.00,516.00 603.83,514.50 610.00,511.00 C616.17,507.50 624.17,500.33 628.00,496.00 C631.83,491.67 632.33,492.17 633.00,485.00 C633.67,477.83 629.00,462.00 632.00,453.00 C635.00,444.00 646.83,436.67 651.00,431.00 C655.17,425.33 656.00,423.50 657.00,419.00 C658.00,414.50 658.17,412.67 657.00,404.00 C655.83,395.33 651.17,379.00 650.00,367.00 C648.83,355.00 649.67,339.67 650.00,332.00 C650.33,324.33 650.50,326.83 652.00,321.00 C653.50,315.17 653.83,307.67 659.00,297.00 C664.17,286.33 677.83,268.67 683.00,257.00 C688.17,245.33 686.83,236.00 690.00,227.00 C693.17,218.00 699.83,210.50 702.00,203.00 C704.17,195.50 703.83,189.33 703.00,182.00 C702.17,174.67 699.50,164.67 697.00,159.00 C694.50,153.33 691.83,150.33 688.00,148.00 C684.17,145.67 676.50,146.00 674.00,145.00 C671.50,144.00 674.00,142.83 673.00,142.00 C672.00,141.17 673.00,140.50 668.00,140.00 C663.00,139.50 650.00,138.50 643.00,139.00 C636.00,139.50 634.83,139.00 626.00,143.00 C617.17,147.00 599.00,158.67 590.00,163.00 C581.00,167.33 591.17,166.83 572.00,169.00 C552.83,171.17 497.17,173.50 475.00,176.00 C452.83,178.50 450.83,180.33 439.00,184.00 C427.17,187.67 411.50,195.67 404.00,198.00 C396.50,200.33 395.67,198.00 394.00,198.00" fill="none" stroke="black" stroke-width="10.77" stroke-linecap="round" stroke-linejoin="round"/>
  <path d="M348.00,471.00 C344.17,469.17 334.83,463.33 325.00,460.00 C315.17,456.67 301.67,452.67 289.00,451.00 C276.33,449.33 259.17,449.67 249.00,450.00 C238.83,450.33 232.50,453.17 228.00,453.00 C223.50,452.83 223.00,449.67 222.00,449.00" fill="none" stroke="black" stroke-width="10.77" stroke-linecap="round" stroke-linejoin="round"/>
  <path d="M283.00,626.00 C283.00,618.33 284.83,594.33 283.00,580.00 C281.17,565.67 275.50,547.33 272.00,540.00 C268.50,532.67 265.50,539.50 262.00,536.00 C258.50,532.50 254.83,523.83 251.00,519.00 C247.17,514.17 242.67,509.17 239.00,507.00 C235.33,504.83 231.67,507.67 229.00,506.00 C226.33,504.33 224.00,500.67 223.00,497.00 C222.00,493.33 226.83,488.00 223.00,484.00 C219.17,480.00 204.17,476.50 200.00,473.00 C195.83,469.50 195.83,466.67 198.00,463.00 C200.17,459.33 210.50,453.00 213.00,451.00" fill="none" stroke="black" stroke-width="14.56" stroke-linecap="round" stroke-linejoin="round"/>
  <path d="M236.00,881.00 C234.50,880.33 230.67,880.00 227.00,877.00 C223.33,874.00 217.00,867.33 214.00,863.00 C211.00,858.67 210.00,855.67 209.00,851.00 C208.00,846.33 208.83,839.67 208.00,835.00 C207.17,830.33 204.67,825.83 204.00,823.00 C203.33,820.17 202.83,819.67 204.00,818.00 C205.17,816.33 208.67,815.50 211.00,813.00 C213.33,810.50 214.83,804.83 218.00,803.00 C221.17,801.17 227.33,801.50 230.00,802.00 C232.67,802.50 233.33,803.33 234.00,806.00 C234.67,808.67 234.67,814.67 234.00,818.00 C233.33,821.33 232.00,823.50 230.00,826.00 C228.00,828.50 225.67,831.33 222.00,833.00 C218.33,834.67 210.33,835.50 208.00,836.00" fill="none" stroke="black" stroke-width="10.77" stroke-linecap="round" stroke-linejoin="round"/>
  <path d="M88.00,156.00 C87.50,155.33 85.50,155.17 85.00,152.00 C84.50,148.83 84.33,142.00 85.00,137.00 C85.67,132.00 87.50,126.00 89.00,122.00 C90.50,118.00 91.17,117.33 94.00,113.00 C96.83,108.67 101.33,101.67 106.00,96.00 C110.67,90.33 114.17,85.50 122.00,79.00 C129.83,72.50 142.83,63.00 153.00,57.00 C163.17,51.00 171.00,47.33 183.00,43.00 C195.00,38.67 209.33,34.33 225.00,31.00 C240.67,27.67 259.50,24.83 277.00,23.00 C294.50,21.17 313.67,20.33 330.00,20.00 C346.33,19.67 363.00,19.67 375.00,21.00 C387.00,22.33 394.83,24.67 402.00,28.00 C409.17,31.33 415.17,37.00 418.00,41.00 C420.83,45.00 418.17,49.17 419.00,52.00 C419.83,54.83 423.33,49.00 423.00,58.00 C422.67,67.00 419.67,91.17 417.00,106.00 C414.33,120.83 410.67,134.00 407.00,147.00 C403.33,160.00 397.17,175.33 395.00,184.00 C392.83,192.67 395.50,195.00 394.00,199.00 C392.50,203.00 394.17,202.17 386.00,208.00 C377.83,213.83 352.83,228.00 345.00,234.00 C337.17,240.00 340.17,241.83 339.00,244.00 C337.83,246.17 337.83,246.17 338.00,247.00 C338.17,247.83 332.67,249.50 340.00,249.00 C347.33,248.50 368.83,244.67 382.00,244.00 C395.17,243.33 405.83,243.33 419.00,245.00 C432.17,246.67 443.83,248.83 461.00,254.00 C478.17,259.17 506.50,272.17 522.00,276.00 C537.50,279.83 547.33,277.17 554.00,277.00 C560.67,276.83 557.17,276.83 562.00,275.00 C566.83,273.17 577.50,268.83 583.00,266.00 C588.50,263.17 588.17,264.00 595.00,258.00 C601.83,252.00 613.83,242.50 624.00,230.00 C634.17,217.50 647.67,197.17 656.00,183.00 C664.33,168.83 671.00,151.33 674.00,145.00" fill="none" stroke="black" stroke-width="10.77" stroke-linecap="round" stroke-linejoin="round"/>
  <path d="M419.00,52.00 C416.67,52.50 411.17,52.33 405.00,55.00 C398.83,57.67 388.50,63.00 382.00,68.00 C375.50,73.00 371.83,76.17 366.00,85.00 C360.17,93.83 351.83,113.17 347.00,121.00 C342.17,128.83 346.33,126.67 337.00,132.00 C327.67,137.33 300.67,149.33 291.00,153.00 C281.33,156.67 284.67,154.83 279.00,154.00 C273.33,153.17 262.33,148.50 257.00,148.00 C251.67,147.50 251.83,148.17 247.00,151.00 C242.17,153.83 233.17,162.33 228.00,165.00 C222.83,167.67 220.17,167.17 216.00,167.00 C211.83,166.83 210.33,167.50 203.00,164.00 C195.67,160.50 180.67,149.83 172.00,146.00 C163.33,142.17 156.50,141.83 151.00,141.00 C145.50,140.17 145.50,140.00 139.00,141.00 C132.50,142.00 120.50,144.50 112.00,147.00 C103.50,149.50 91.83,152.50 88.00,156.00 C84.17,159.50 85.67,161.17 89.00,168.00 C92.33,174.83 97.17,184.67 108.00,197.00 C118.83,209.33 140.67,230.00 154.00,242.00 C167.33,254.00 180.33,262.00 188.00,269.00 C195.67,276.00 196.00,277.00 200.00,284.00 C204.00,291.00 209.17,301.83 212.00,311.00 C214.83,320.17 216.17,331.00 217.00,339.00 C217.83,347.00 216.33,354.67 217.00,359.00 C217.67,363.33 218.50,365.00 221.00,365.00 C223.50,365.00 227.67,365.00 232.00,359.00 C236.33,353.00 240.17,339.67 247.00,329.00 C253.83,318.33 262.17,306.67 273.00,295.00 C283.83,283.33 301.17,267.00 312.00,259.00 C322.83,251.00 333.67,249.00 338.00,247.00" fill="none" stroke="black" stroke-width="10.77" stroke-linecap="round" stroke-linejoin="round"/>
  <path d="M170.00,334.00 C172.00,334.50 178.00,334.50 182.00,337.00 C186.00,339.50 190.00,344.17 194.00,349.00 C198.00,353.83 201.83,362.33 206.00,366.00 C210.17,369.67 216.33,371.17 219.00,371.00 C221.67,370.83 221.50,366.00 222.00,365.00" fill="none" stroke="black" stroke-width="11.31" stroke-linecap="round" stroke-linejoin="round"/>
  <path d="M217.00,371.00 C217.33,371.00 218.83,364.67 219.00,371.00 C219.17,377.33 218.17,402.67 218.00,409.00" fill="none" stroke="black" stroke-width="16.49" stroke-linecap="round" stroke-linejoin="round"/>
  <path d="M157.00,403.00 C157.33,405.17 155.50,407.50 159.00,416.00 C162.50,424.50 176.33,445.50 178.00,454.00 C179.67,462.50 171.17,462.17 169.00,467.00 C166.83,471.83 165.00,475.67 165.00,483.00 C165.00,490.33 168.33,506.33 169.00,511.00" fill="none" stroke="black" stroke-width="10.77" stroke-linecap="round" stroke-linejoin="round"/>
  <path d="M178.00,454.00 C179.33,454.33 182.83,454.50 186.00,456.00 C189.17,457.50 195.17,461.83 197.00,463.00" fill="none" stroke="black" stroke-width="10.77" stroke-linecap="round" stroke-linejoin="round"/>
  <path d="M221.00,484.00 C223.17,484.17 229.00,483.50 234.00,485.00 C239.00,486.50 245.17,488.67 251.00,493.00 C256.83,497.33 263.83,507.67 269.00,511.00 C274.17,514.33 278.83,512.00 282.00,513.00 C285.17,514.00 269.83,503.00 288.00,517.00 C306.17,531.00 368.83,580.50 391.00,597.00 C413.17,613.50 413.50,611.83 421.00,616.00 C428.50,620.17 432.17,621.00 436.00,622.00 C439.83,623.00 441.67,622.50 444.00,622.00 C446.33,621.50 447.67,621.17 450.00,619.00 C452.33,616.83 455.83,612.50 458.00,609.00 C460.17,605.50 461.33,603.67 463.00,598.00 C464.67,592.33 467.50,584.00 468.00,575.00 C468.50,566.00 465.83,551.17 466.00,544.00 C466.17,536.83 466.50,537.33 469.00,532.00 C471.50,526.67 478.67,517.83 481.00,512.00 C483.33,506.17 482.67,499.50 483.00,497.00" fill="none" stroke="black" stroke-width="10.77" stroke-linecap="round" stroke-linejoin="round"/>
  <path d="M230.00,506.00 C228.17,508.17 223.17,515.83 219.00,519.00 C214.83,522.17 210.33,524.33 205.00,525.00 C199.67,525.67 192.50,525.17 187.00,523.00 C181.50,520.83 175.50,513.67 172.00,512.00 C168.50,510.33 172.33,505.17 166.00,513.00 C159.67,520.83 143.67,543.50 134.00,559.00 C124.33,574.50 113.83,597.33 108.00,606.00 C102.17,614.67 100.50,610.17 99.00,611.00" fill="none" stroke="black" stroke-width="10.77" stroke-linecap="round" stroke-linejoin="round"/>
  <path d="M269.00,511.00 C269.83,514.67 273.50,528.00 274.00,533.00 C274.50,538.00 272.33,539.67 272.00,541.00" fill="none" stroke="black" stroke-width="13.03" stroke-linecap="round" stroke-linejoin="round"/>
  <path d="M65.00,514.00 C65.33,514.00 66.83,513.17 67.00,514.00 C67.17,514.83 66.17,518.17 66.00,519.00" fill="none" stroke="black" stroke-width="18.44" stroke-linecap="round" stroke-linejoin="round"/>
  <path d="M175.00,744.00 C174.83,741.83 175.50,734.83 174.00,731.00 C172.50,727.17 169.50,724.17 166.00,721.00 C162.50,717.83 158.17,714.50 153.00,712.00 C147.83,709.50 140.83,707.00 135.00,706.00 C129.17,705.00 123.00,705.50 118.00,706.00 C113.00,706.50 109.83,707.17 105.00,709.00 C100.17,710.83 94.83,713.17 89.00,717.00 C83.17,720.83 75.00,728.83 70.00,732.00 C65.00,735.17 60.83,735.33 59.00,736.00" fill="none" stroke="black" stroke-width="10.77" stroke-linecap="round" stroke-linejoin="round"/>
  <path d="M180.00,763.00 C179.50,760.17 178.17,749.33 177.00,746.00 C175.83,742.67 176.17,744.00 173.00,743.00 C169.83,742.00 162.00,740.00 158.00,740.00 C154.00,740.00 151.50,741.50 149.00,743.00 C146.50,744.50 144.67,745.83 143.00,749.00 C141.33,752.17 139.00,757.50 139.00,762.00 C139.00,766.50 140.50,772.17 143.00,776.00 C145.50,779.83 150.00,783.67 154.00,785.00 C158.00,786.33 162.67,787.67 167.00,784.00 C171.33,780.33 176.83,766.00 180.00,763.00 C183.17,760.00 184.33,764.83 186.00,766.00 C187.67,767.17 188.50,767.00 190.00,770.00 C191.50,773.00 193.67,777.00 195.00,784.00 C196.33,791.00 196.50,806.33 198.00,812.00 C199.50,817.67 203.00,817.00 204.00,818.00" fill="none" stroke="black" stroke-width="10.77" stroke-linecap="round" stroke-linejoin="round"/>
</svg>
