<?xml version="1.0" encoding="UTF-8" standalone="no"?>
<svg
   viewBox="0 0 723 1721"
   width="723"
   height="1721"
   version="1.1"
   id="svg18"
   sodipodi:docname="april_left.svg"
   inkscape:version="1.4.2 (f4327f4, 2025-05-13)"
   xmlns:inkscape="http://www.inkscape.org/namespaces/inkscape"
   xmlns:sodipodi="http://sodipodi.sourceforge.net/DTD/sodipodi-0.dtd"
   xmlns="http://www.w3.org/2000/svg"
   xmlns:svg="http://www.w3.org/2000/svg">
  <defs
     id="defs18" />
  <sodipodi:namedview
     id="namedview18"
     pagecolor="#ffffff"
     bordercolor="#000000"
     borderopacity="0.25"
     inkscape:showpageshadow="2"
     inkscape:pageopacity="0.0"
     inkscape:pagecheckerboard="0"
     inkscape:deskcolor="#d1d1d1"
     inkscape:zoom="0.33157186"
     inkscape:cx="336.27703"
     inkscape:cy="1038.9905"
     inkscape:window-width="1920"
     inkscape:window-height="1009"
     inkscape:window-x="-8"
     inkscape:window-y="-8"
     inkscape:window-maximized="1"
     inkscape:current-layer="svg18" />
  <path
     d="M576.00,317.00 C572.00,319.83 556.33,328.83 552.00,334.00 C547.67,339.17 551.67,343.50 550.00,348.00 C548.33,352.50 544.83,354.50 542.00,361.00 C539.17,367.50 535.00,378.00 533.00,387.00 C531.00,396.00 530.00,409.67 530.00,415.00 C530.00,420.33 531.33,418.50 533.00,419.00 C534.67,419.50 536.83,420.17 540.00,418.00 C543.17,415.83 548.00,408.50 552.00,406.00 C556.00,403.50 560.50,405.00 564.00,403.00 C567.50,401.00 568.50,396.83 573.00,394.00 C577.50,391.17 585.00,387.50 591.00,386.00 C597.00,384.50 603.83,384.83 609.00,385.00 C614.17,385.17 619.83,386.67 622.00,387.00"
     fill="none"
     stroke="black"
     stroke-width="12.17"
     stroke-linecap="round"
     stroke-linejoin="round"
     id="path1" />
  <path
     d="M673.00,432.00 C673.17,434.00 674.33,441.00 674.00,444.00 C673.67,447.00 673.50,447.83 671.00,450.00 C668.50,452.17 661.83,454.67 659.00,457.00 C656.17,459.33 653.67,460.17 654.00,464.00 C654.33,467.83 659.83,475.83 661.00,480.00 C662.17,484.17 662.17,485.67 661.00,489.00 C659.83,492.33 655.50,496.17 654.00,500.00 C652.50,503.83 651.67,509.33 652.00,512.00 C652.33,514.67 654.17,516.33 656.00,516.00 C657.83,515.67 659.83,511.00 663.00,510.00 C666.17,509.00 672.50,509.50 675.00,510.00 C677.50,510.50 677.50,511.33 678.00,513.00 C678.50,514.67 678.67,518.17 678.00,520.00 C677.33,521.83 676.67,523.33 674.00,524.00 C671.33,524.67 665.00,524.83 662.00,524.00 C659.00,523.17 657.50,519.33 656.00,519.00 C654.50,518.67 653.83,519.00 653.00,522.00 C652.17,525.00 649.83,531.50 651.00,537.00 C652.17,542.50 658.33,550.67 660.00,555.00 C661.67,559.33 661.50,561.00 661.00,563.00 C660.50,565.00 660.17,565.67 657.00,567.00 C653.83,568.33 645.83,569.00 642.00,571.00 C638.17,573.00 636.17,575.33 634.00,579.00 C631.83,582.67 630.17,588.17 629.00,593.00 C627.83,597.83 627.83,605.00 627.00,608.00 C626.17,611.00 626.17,611.33 624.00,611.00 C621.83,610.67 623.33,619.67 614.00,606.00 C604.67,592.33 577.33,544.17 568.00,529.00 C558.67,513.83 560.83,517.83 558.00,515.00 C555.17,512.17 552.17,512.50 551.00,512.00"
     fill="none"
     stroke="black"
     stroke-width="10.77"
     stroke-linecap="round"
     stroke-linejoin="round"
     id="path2" />
  <path
     d="M308.00,442.00 C312.50,439.83 325.33,432.67 335.00,429.00 C344.67,425.33 356.83,422.17 366.00,420.00 C375.17,417.83 380.67,416.67 390.00,416.00 C399.33,415.33 412.83,415.33 422.00,416.00 C431.17,416.67 436.83,418.00 445.00,420.00 C453.17,422.00 462.83,424.67 471.00,428.00 C479.17,431.33 489.17,436.50 494.00,440.00 C498.83,443.50 500.00,446.83 500.00,449.00 C500.00,451.17 498.50,452.83 494.00,453.00 C489.50,453.17 483.17,450.33 473.00,450.00 C462.83,449.67 445.67,449.33 433.00,451.00 C420.33,452.67 406.83,456.67 397.00,460.00 C387.17,463.33 377.83,469.17 374.00,471.00"
     fill="none"
     stroke="black"
     stroke-width="10.77"
     stroke-linecap="round"
     stroke-linejoin="round"
     id="path3" />
  <path
     d="M438.00,624.00 C437.83,618.67 435.83,603.83 437.00,592.00 C438.17,580.17 442.83,561.67 445.00,553.00 C447.17,544.33 447.50,542.83 450.00,540.00 C452.50,537.17 456.67,539.33 460.00,536.00 C463.33,532.67 466.17,524.83 470.00,520.00 C473.83,515.17 479.00,509.33 483.00,507.00 C487.00,504.67 492.00,505.33 494.00,506.00 C496.00,506.67 493.50,508.83 495.00,511.00 C496.50,513.17 499.33,516.67 503.00,519.00 C506.67,521.33 511.67,524.33 517.00,525.00 C522.33,525.67 529.00,525.50 535.00,523.00 C541.00,520.50 549.50,514.50 553.00,510.00 C556.50,505.50 555.50,501.17 556.00,496.00 C556.50,490.83 556.67,484.00 556.00,479.00 C555.33,474.00 553.83,470.17 552.00,466.00 C550.17,461.83 546.17,456.00 545.00,454.00"
     fill="none"
     stroke="black"
     stroke-width="11.31"
     stroke-linecap="round"
     stroke-linejoin="round"
     id="path4" />
  <path
     d="M486.00,881.00 C487.50,880.33 491.83,879.33 495.00,877.00 C498.17,874.67 501.83,872.00 505.00,867.00 C508.17,862.00 512.50,852.17 514.00,847.00 C515.50,841.83 516.67,838.50 514.00,836.00 C511.33,833.50 502.33,834.83 498.00,832.00 C493.67,829.17 489.83,822.83 488.00,819.00 C486.17,815.17 486.33,811.83 487.00,809.00 C487.67,806.17 489.17,803.00 492.00,802.00 C494.83,801.00 501.00,801.33 504.00,803.00 C507.00,804.67 507.67,809.50 510.00,812.00 C512.33,814.50 517.33,814.00 518.00,818.00 C518.67,822.00 514.67,833.00 514.00,836.00"
     fill="none"
     stroke="black"
     stroke-width="10.77"
     stroke-linecap="round"
     stroke-linejoin="round"
     id="path5" />
  <path
     d="M667.00,1702.00 C670.83,1620.83 685.00,1329.00 690.00,1215.00 C695.00,1101.00 695.83,1064.17 697.00,1018.00 C698.17,971.83 698.17,966.67 697.00,938.00 C695.83,909.33 693.33,873.50 690.00,846.00 C686.67,818.50 679.83,787.83 677.00,773.00 C674.17,758.17 675.50,763.17 673.00,757.00 C670.50,750.83 663.50,740.17 662.00,736.00 C660.50,731.83 663.83,734.17 664.00,732.00 C664.17,729.83 664.50,728.50 663.00,723.00 C661.50,717.50 660.83,713.67 655.00,699.00 C649.17,684.33 633.17,649.67 628.00,635.00 C622.83,620.33 625.00,615.00 624.00,611.00 C623.00,607.00 622.33,611.00 622.00,611.00"
     fill="none"
     stroke="black"
     stroke-width="10.20"
     stroke-linecap="round"
     stroke-linejoin="round"
     id="path6" />
  <path
     d="M301.00,52.00 C301.50,50.17 301.50,44.67 304.00,41.00 C306.50,37.33 310.67,33.00 316.00,30.00 C321.33,27.00 329.17,24.67 336.00,23.00 C342.83,21.33 338.83,20.00 357.00,20.00 C375.17,20.00 421.67,21.17 445.00,23.00 C468.33,24.83 484.33,28.67 497.00,31.00 C509.67,33.33 509.00,32.67 521.00,37.00 C533.00,41.33 555.83,50.00 569.00,57.00 C582.17,64.00 592.33,72.67 600.00,79.00 C607.67,85.33 609.83,88.33 615.00,95.00 C620.17,101.67 627.50,112.67 631.00,119.00 C634.50,125.33 635.00,127.67 636.00,133.00 C637.00,138.33 637.33,147.17 637.00,151.00 C636.67,154.83 639.67,157.00 634.00,156.00 C628.33,155.00 613.50,147.50 603.00,145.00 C592.50,142.50 579.83,140.83 571.00,141.00 C562.17,141.17 558.67,142.17 550.00,146.00 C541.33,149.83 526.33,160.50 519.00,164.00 C511.67,167.50 510.17,166.83 506.00,167.00 C501.83,167.17 499.17,167.67 494.00,165.00 C488.83,162.33 479.83,153.83 475.00,151.00 C470.17,148.17 470.33,147.50 465.00,148.00 C459.67,148.50 448.67,153.17 443.00,154.00 C437.33,154.83 440.67,156.67 431.00,153.00 C421.33,149.33 394.50,137.50 385.00,132.00 C375.50,126.50 379.00,128.00 374.00,120.00 C369.00,112.00 360.67,92.67 355.00,84.00 C349.33,75.33 346.33,72.83 340.00,68.00 C333.67,63.17 323.33,57.83 317.00,55.00 C310.67,52.17 305.00,51.00 302.00,51.00 C299.00,51.00 299.33,50.17 299.00,55.00 C298.67,59.83 297.50,65.17 300.00,80.00 C302.50,94.83 309.50,126.33 314.00,144.00 C318.50,161.67 324.67,176.83 327.00,186.00 C329.33,195.17 329.50,197.00 328.00,199.00 C326.50,201.00 325.50,200.50 318.00,198.00 C310.50,195.50 293.83,187.50 283.00,184.00 C272.17,180.50 263.00,178.83 253.00,177.00 C243.00,175.17 240.17,174.33 223.00,173.00 C205.83,171.67 165.17,170.67 150.00,169.00 C134.83,167.33 141.00,167.33 132.00,163.00 C123.00,158.67 103.83,146.83 96.00,143.00 C88.17,139.17 91.17,140.67 85.00,140.00 C78.83,139.33 64.67,138.83 59.00,139.00 C53.33,139.17 52.83,140.00 51.00,141.00 C49.17,142.00 50.33,144.17 48.00,145.00 C45.67,145.83 41.00,143.50 37.00,146.00 C33.00,148.50 27.17,153.50 24.00,160.00 C20.83,166.50 19.00,179.33 18.00,185.00 C17.00,190.67 17.67,190.83 18.00,194.00 C18.33,197.17 17.33,197.17 20.00,204.00 C22.67,210.83 31.00,226.33 34.00,235.00 C37.00,243.67 36.17,250.17 38.00,256.00 C39.83,261.83 41.83,265.00 45.00,270.00 C48.17,275.00 53.00,278.17 57.00,286.00 C61.00,293.83 66.50,305.00 69.00,317.00 C71.50,329.00 72.83,341.67 72.00,358.00 C71.17,374.33 64.33,403.00 64.00,415.00 C63.67,427.00 65.83,423.83 70.00,430.00 C74.17,436.17 85.50,446.33 89.00,452.00 C92.50,457.67 91.17,459.17 91.00,464.00 C90.83,468.83 87.67,475.83 88.00,481.00 C88.33,486.17 90.50,491.00 93.00,495.00 C95.50,499.00 99.17,502.00 103.00,505.00 C106.83,508.00 109.00,510.83 116.00,513.00 C123.00,515.17 133.50,518.00 145.00,518.00 C156.50,518.00 169.33,516.50 185.00,513.00 C200.67,509.50 229.33,502.17 239.00,497.00 C248.67,491.83 242.33,487.50 243.00,482.00 C243.67,476.50 245.50,472.50 243.00,464.00 C240.50,455.50 231.33,439.33 228.00,431.00 C224.67,422.67 224.00,422.67 223.00,414.00 C222.00,405.33 221.17,388.83 222.00,379.00 C222.83,369.17 225.50,361.33 228.00,355.00 C230.50,348.67 233.50,345.17 237.00,341.00 C240.50,336.83 244.17,333.33 249.00,330.00 C253.83,326.67 258.67,323.50 266.00,321.00 C273.33,318.50 282.67,316.17 293.00,315.00 C303.33,313.83 314.00,312.33 328.00,314.00 C342.00,315.67 360.83,319.17 377.00,325.00 C393.17,330.83 411.67,341.17 425.00,349.00 C438.33,356.83 445.83,362.83 457.00,372.00 C468.17,381.17 484.17,397.83 492.00,404.00 C499.83,410.17 502.00,414.50 504.00,409.00 C506.00,403.50 502.17,378.17 504.00,371.00 C505.83,363.83 509.00,371.67 515.00,366.00 C521.00,360.33 533.67,342.17 540.00,337.00 C546.33,331.83 550.83,335.33 553.00,335.00"
     fill="none"
     stroke="black"
     stroke-width="10.77"
     stroke-linecap="round"
     stroke-linejoin="round"
     id="path7" />
  <path
     d="M48.00,145.00 C48.33,146.33 47.17,146.83 50.00,153.00 C52.83,159.17 57.17,169.33 65.00,182.00 C72.83,194.67 87.33,216.83 97.00,229.00 C106.67,241.17 114.33,248.00 123.00,255.00 C131.67,262.00 141.50,267.33 149.00,271.00 C156.50,274.67 160.33,276.00 168.00,277.00 C175.67,278.00 186.83,278.00 195.00,277.00 C203.17,276.00 206.00,274.83 217.00,271.00 C228.00,267.17 247.83,258.17 261.00,254.00 C274.17,249.83 282.83,247.67 296.00,246.00 C309.17,244.33 326.67,243.50 340.00,244.00 C353.33,244.50 369.00,248.17 376.00,249.00 C383.00,249.83 380.67,249.50 382.00,249.00 C383.33,248.50 379.50,244.50 384.00,246.00 C388.50,247.50 398.33,250.00 409.00,258.00 C419.67,266.00 437.17,282.33 448.00,294.00 C458.83,305.67 467.00,317.17 474.00,328.00 C481.00,338.83 485.67,352.83 490.00,359.00 C494.33,365.17 497.67,362.83 500.00,365.00 C502.33,367.17 503.33,370.83 504.00,372.00"
     fill="none"
     stroke="black"
     stroke-width="10.77"
     stroke-linecap="round"
     stroke-linejoin="round"
     id="path8" />
  <path
     d="M635.00,155.00 C634.67,157.00 634.33,163.00 633.00,167.00 C631.67,171.00 630.33,173.83 627.00,179.00 C623.67,184.17 622.83,187.50 613.00,198.00 C603.17,208.50 581.17,230.17 568.00,242.00 C554.83,253.83 541.83,261.83 534.00,269.00 C526.17,276.17 525.00,278.17 521.00,285.00 C517.00,291.83 512.83,300.50 510.00,310.00 C507.17,319.50 505.00,333.50 504.00,342.00 C503.00,350.50 504.67,357.00 504.00,361.00 C503.33,365.00 500.67,365.17 500.00,366.00"
     fill="none"
     stroke="black"
     stroke-width="10.77"
     stroke-linecap="round"
     stroke-linejoin="round"
     id="path9" />
  <path
     d="M327.00,199.00 C328.33,200.33 326.67,201.17 335.00,207.00 C343.33,212.83 368.67,227.33 377.00,234.00 C385.33,240.67 383.67,244.83 385.00,247.00"
     fill="none"
     stroke="black"
     stroke-width="10.77"
     stroke-linecap="round"
     stroke-linejoin="round"
     id="path10" />
  <path
     d="M564.00,403.00 C563.67,405.33 565.00,409.33 562.00,417.00 C559.00,424.67 548.83,442.67 546.00,449.00 C543.17,455.33 546.67,453.83 545.00,455.00 C543.33,456.17 539.50,454.67 536.00,456.00 C532.50,457.33 527.17,462.50 524.00,463.00 C520.83,463.50 519.67,461.33 517.00,459.00 C514.33,456.67 509.50,450.67 508.00,449.00"
     fill="none"
     stroke="black"
     stroke-width="10.77"
     stroke-linecap="round"
     stroke-linejoin="round"
     id="path11" />
  <path
     d="M504.00,409.00 C505.00,411.67 508.67,419.00 510.00,425.00 C511.33,431.00 512.33,440.83 512.00,445.00 C511.67,449.17 510.00,449.33 508.00,450.00 C506.00,450.67 501.33,449.17 500.00,449.00"
     fill="none"
     stroke="black"
     stroke-width="14.00"
     stroke-linecap="round"
     stroke-linejoin="round"
     id="path12" />
  <path
     d="M524.00,463.00 C523.33,465.00 523.83,471.50 520.00,475.00 C516.17,478.50 506.33,482.33 501.00,484.00 C495.67,485.67 493.00,483.50 488.00,485.00 C483.00,486.50 477.00,488.83 471.00,493.00 C465.00,497.17 455.83,503.17 452.00,510.00 C448.17,516.83 448.33,528.83 448.00,534.00 C447.67,539.17 449.67,539.83 450.00,541.00"
     fill="none"
     stroke="black"
     stroke-width="13.42"
     stroke-linecap="round"
     stroke-linejoin="round"
     id="path13" />
  <path
     d="M499.00,484.00 C499.33,484.00 501.00,482.17 501.00,484.00 C501.00,485.83 500.33,491.33 499.00,495.00 C497.67,498.67 494.00,504.17 493.00,506.00"
     fill="none"
     stroke="black"
     stroke-width="10.77"
     stroke-linecap="round"
     stroke-linejoin="round"
     id="path14" />
  <path
     d="M238.00,498.00 C238.50,500.50 238.17,506.17 241.00,513.00 C243.83,519.83 252.83,528.00 255.00,539.00 C257.17,550.00 253.67,569.83 254.00,579.00 C254.33,588.17 254.83,588.17 257.00,594.00 C259.17,599.83 263.50,609.33 267.00,614.00 C270.50,618.67 273.83,621.00 278.00,622.00 C282.17,623.00 286.17,622.17 292.00,620.00 C297.83,617.83 301.33,616.67 313.00,609.00 C324.67,601.33 341.83,589.33 362.00,574.00 C382.17,558.67 419.17,527.67 434.00,517.00 C448.83,506.33 448.17,511.17 451.00,510.00"
     fill="none"
     stroke="black"
     stroke-width="10.77"
     stroke-linecap="round"
     stroke-linejoin="round"
     id="path15" />
  <path
     d="M656.00,516.00 C655.83,516.67 654.83,519.33 655.00,520.00 C655.17,520.67 656.67,520.00 657.00,520.00"
     fill="none"
     stroke="black"
     stroke-width="18.11"
     stroke-linecap="round"
     stroke-linejoin="round"
     id="path16" />
  <path
     d="M663.00,737.00 C655.33,732.33 626.83,714.17 617.00,709.00 C607.17,703.83 609.00,706.50 604.00,706.00 C599.00,705.50 592.83,705.00 587.00,706.00 C581.17,707.00 574.17,709.50 569.00,712.00 C563.83,714.50 559.50,718.00 556.00,721.00 C552.50,724.00 549.67,726.00 548.00,730.00 C546.33,734.00 546.33,742.50 546.00,745.00"
     fill="none"
     stroke="black"
     stroke-width="10.77"
     stroke-linecap="round"
     stroke-linejoin="round"
     id="path17" />
  <path
     d="M541.00,764.00 C541.67,764.50 543.67,764.83 545.00,767.00 C546.33,769.17 547.33,774.17 549.00,777.00 C550.67,779.83 551.83,782.67 555.00,784.00 C558.17,785.33 564.17,786.17 568.00,785.00 C571.83,783.83 575.67,779.83 578.00,777.00 C580.33,774.17 581.33,771.33 582.00,768.00 C582.67,764.67 582.67,760.33 582.00,757.00 C581.33,753.67 580.17,750.67 578.00,748.00 C575.83,745.33 571.33,742.33 569.00,741.00 C566.67,739.67 567.67,739.50 564.00,740.00 C560.33,740.50 550.50,742.50 547.00,744.00 C543.50,745.50 544.00,745.67 543.00,749.00 C542.00,752.33 542.50,761.00 541.00,764.00 C539.50,767.00 535.83,765.50 534.00,767.00 C532.17,768.50 531.50,768.67 530.00,773.00 C528.50,777.33 526.17,786.17 525.00,793.00 C523.83,799.83 524.17,809.83 523.00,814.00 C521.83,818.17 518.83,817.33 518.00,818.00"
     fill="none"
     stroke="black"
     stroke-width="10.77"
     stroke-linecap="round"
     stroke-linejoin="round"
     id="path18" />
</svg>
