<?xml version="1.0" encoding="UTF-8" standalone="no"?>
<svg
   viewBox="0 0 874 2200"
   width="874"
   height="2200"
   version="1.1"
   id="svg61"
   sodipodi:docname="august_right.svg"
   inkscape:version="1.4.3 (0d15f75, 2025-12-25)"
   xmlns:inkscape="http://www.inkscape.org/namespaces/inkscape"
   xmlns:sodipodi="http://sodipodi.sourceforge.net/DTD/sodipodi-0.dtd"
   xmlns="http://www.w3.org/2000/svg"
   xmlns:svg="http://www.w3.org/2000/svg">
  <defs
     id="defs61" />
  <sodipodi:namedview
     id="namedview61"
     pagecolor="#ffffff"
     bordercolor="#000000"
     borderopacity="0.25"
     inkscape:showpageshadow="2"
     inkscape:pageopacity="0.0"
     inkscape:pagecheckerboard="0"
     inkscape:deskcolor="#d1d1d1"
     inkscape:zoom="0.36681818"
     inkscape:cx="-1296.2825"
     inkscape:cy="2116.8526"
     inkscape:window-width="1920"
     inkscape:window-height="1009"
     inkscape:window-x="1912"
     inkscape:window-y="-8"
     inkscape:window-maximized="1"
     inkscape:current-layer="svg61" />
  <path
     d="M444.00,123.00 C445.67,118.83 450.50,105.17 454.00,98.00 C457.50,90.83 459.33,86.83 465.00,80.00 C470.67,73.17 482.50,62.00 488.00,57.00 C493.50,52.00 496.00,52.17 498.00,50.00 C500.00,47.83 500.50,45.67 500.00,44.00 C499.50,42.33 501.50,42.00 495.00,40.00 C488.50,38.00 467.50,33.83 461.00,32.00 C454.50,30.17 462.83,30.50 456.00,29.00 C449.17,27.50 433.67,24.00 420.00,23.00 C406.33,22.00 383.83,22.50 374.00,23.00 C364.17,23.50 364.67,24.67 361.00,26.00 C357.33,27.33 353.50,30.17 352.00,31.00"
     fill="none"
     stroke="black"
     stroke-width="8.00"
     stroke-linecap="round"
     stroke-linejoin="round"
     id="path1"
     style="stroke-width:8;stroke-dasharray:none" />
  <path
     d="M317.00,218.00 C317.00,210.67 316.33,189.17 317.00,174.00 C317.67,158.83 319.00,140.83 321.00,127.00 C323.00,113.17 324.83,104.50 329.00,91.00 C333.17,77.50 342.67,54.00 346.00,46.00 C349.33,38.00 348.17,45.50 349.00,43.00 C349.83,40.50 354.33,32.67 351.00,31.00 C347.67,29.33 345.67,28.83 329.00,33.00 C312.33,37.17 265.50,51.00 251.00,56.00 C236.50,61.00 244.00,58.17 242.00,63.00 C240.00,67.83 239.50,81.33 239.00,85.00"
     fill="none"
     stroke="black"
     stroke-width="10.00"
     stroke-linecap="round"
     stroke-linejoin="round"
     id="path2"
     style="stroke-width:8;stroke-dasharray:none" />
  <path
     d="M156.00,222.00 C155.67,219.83 154.17,218.00 154.00,209.00 C153.83,200.00 154.17,177.83 155.00,168.00 C155.83,158.17 156.67,156.33 159.00,150.00 C161.33,143.67 166.00,134.83 169.00,130.00 C172.00,125.17 172.17,125.17 177.00,121.00 C181.83,116.83 190.83,109.17 198.00,105.00 C205.17,100.83 213.17,99.33 220.00,96.00 C226.83,92.67 235.17,86.33 239.00,85.00 C242.83,83.67 242.33,86.33 243.00,88.00 C243.67,89.67 244.50,85.67 243.00,95.00 C241.50,104.33 235.67,124.83 234.00,144.00 C232.33,163.17 231.83,190.83 233.00,210.00 C234.17,229.17 238.83,248.67 241.00,259.00 C243.17,269.33 245.17,269.83 246.00,272.00"
     fill="none"
     stroke="black"
     stroke-width="8.00"
     stroke-linecap="round"
     stroke-linejoin="round"
     id="path3"
     style="stroke-width:8;stroke-dasharray:none" />
  <path
     d="M160.00,227.00 C159.83,234.50 160.17,263.33 159.00,272.00 C157.83,280.67 158.33,282.17 153.00,279.00 C147.67,275.83 133.67,258.50 127.00,253.00 C120.33,247.50 119.67,247.33 113.00,246.00 C106.33,244.67 94.50,243.83 87.00,245.00 C79.50,246.17 72.67,250.50 68.00,253.00 C63.33,255.50 63.83,255.83 59.00,260.00 C54.17,264.17 43.83,272.83 39.00,278.00 C34.17,283.17 31.67,287.83 30.00,291.00 C28.33,294.17 28.67,295.50 29.00,297.00 C29.33,298.50 28.17,299.50 32.00,300.00 C35.83,300.50 48.67,300.00 52.00,300.00"
     fill="none"
     stroke="black"
     stroke-width="10.00"
     stroke-linecap="round"
     stroke-linejoin="round"
     id="path4"
     style="stroke-width:8;stroke-dasharray:none" />
  <path
     d="M633.00,258.00 C634.00,257.83 634.83,259.67 639.00,257.00 C643.17,254.33 653.67,245.00 658.00,242.00 C662.33,239.00 661.50,242.00 665.00,239.00 C668.50,236.00 677.83,227.67 679.00,224.00 C680.17,220.33 677.50,218.50 672.00,217.00 C666.50,215.50 657.50,215.00 646.00,215.00 C634.50,215.00 612.50,208.67 603.00,217.00 C593.50,225.33 591.83,256.50 589.00,265.00 C586.17,273.50 587.50,264.67 586.00,268.00 C584.50,271.33 584.00,278.33 580.00,285.00 C576.00,291.67 567.17,302.33 562.00,308.00 C556.83,313.67 553.17,314.67 549.00,319.00 C544.83,323.33 540.67,330.33 537.00,334.00 C533.33,337.67 528.67,339.83 527.00,341.00"
     fill="none"
     stroke="black"
     stroke-width="8.49"
     stroke-linecap="round"
     stroke-linejoin="round"
     id="path5"
     style="stroke-width:8;stroke-dasharray:none" />
  <path
     d="M500.00,265.00 C506.00,254.50 527.00,221.67 536.00,202.00 C545.00,182.33 549.17,157.33 554.00,147.00 C558.83,136.67 564.50,146.83 565.00,140.00 C565.50,133.17 560.67,115.33 557.00,106.00 C553.33,96.67 550.67,93.50 543.00,84.00 C535.33,74.50 518.17,55.67 511.00,49.00 C503.83,42.33 501.83,44.83 500.00,44.00"
     fill="none"
     stroke="black"
     stroke-width="10.00"
     stroke-linecap="round"
     stroke-linejoin="round"
     id="path6"
     style="stroke-width:8;stroke-dasharray:none" />
  <path
     d="M231.00,322.00 C232.50,324.33 231.67,326.33 240.00,336.00 C248.33,345.67 272.00,372.17 281.00,380.00 C290.00,387.83 287.83,383.00 294.00,383.00 C300.17,383.00 310.67,377.00 318.00,380.00 C325.33,383.00 332.50,398.33 338.00,401.00 C343.50,403.67 346.83,397.00 351.00,396.00 C355.17,395.00 357.83,397.00 363.00,395.00 C368.17,393.00 378.83,385.83 382.00,384.00"
     fill="none"
     stroke="black"
     stroke-width="33.94"
     stroke-linecap="round"
     stroke-linejoin="round"
     id="path7"
     style="stroke-width:8;stroke-dasharray:none" />
  <path
     d="M382.00,323.00 C383.00,327.50 385.50,343.00 388.00,350.00 C390.50,357.00 395.50,361.33 397.00,365.00 C398.50,368.67 399.00,368.83 397.00,372.00 C395.00,375.17 387.50,382.00 385.00,384.00 C382.50,386.00 389.83,391.33 382.00,384.00 C374.17,376.67 345.50,348.17 338.00,340.00 C330.50,331.83 337.17,335.83 337.00,335.00"
     fill="none"
     stroke="black"
     stroke-width="33.94"
     stroke-linecap="round"
     stroke-linejoin="round"
     id="path8"
     style="stroke-width:8;stroke-dasharray:none" />
  <path
     d="M703.00,338.00 C704.67,337.50 710.50,336.17 713.00,335.00 C715.50,333.83 715.50,332.00 718.00,331.00 C720.50,330.00 725.83,329.83 728.00,329.00 C730.17,328.17 728.50,326.83 731.00,326.00 C733.50,325.17 739.67,325.17 743.00,324.00 C746.33,322.83 748.00,320.00 751.00,319.00 C754.00,318.00 759.17,320.17 761.00,318.00 C762.83,315.83 761.50,308.33 762.00,306.00 C762.50,303.67 763.67,308.17 764.00,304.00 C764.33,299.83 764.83,286.50 764.00,281.00 C763.17,275.50 766.50,278.67 759.00,271.00 C751.50,263.33 729.00,242.50 719.00,235.00 C709.00,227.50 703.67,227.83 699.00,226.00 C694.33,224.17 694.00,224.00 691.00,224.00 C688.00,224.00 683.00,226.00 681.00,226.00 C679.00,226.00 679.33,224.33 679.00,224.00"
     fill="none"
     stroke="black"
     stroke-width="10.00"
     stroke-linecap="round"
     stroke-linejoin="round"
     id="path9"
     style="stroke-width:8;stroke-dasharray:none" />
  <path
     d="M550.00,353.00 C547.50,356.67 538.83,370.00 535.00,375.00 C531.17,380.00 529.33,381.33 527.00,383.00 C524.67,384.67 527.33,379.67 521.00,385.00 C514.67,390.33 493.17,408.17 489.00,415.00 C484.83,421.83 493.67,424.00 496.00,426.00 C498.33,428.00 501.00,426.00 503.00,427.00 C505.00,428.00 506.67,431.17 508.00,432.00 C509.33,432.83 505.33,437.17 511.00,432.00 C516.67,426.83 532.33,409.50 542.00,401.00 C551.67,392.50 562.17,385.17 569.00,381.00 C575.83,376.83 580.00,377.50 583.00,376.00 C586.00,374.50 586.33,372.67 587.00,372.00"
     fill="none"
     stroke="black"
     stroke-width="15.62"
     stroke-linecap="round"
     stroke-linejoin="round"
     id="path10"
     style="stroke-width:8;stroke-dasharray:none" />
  <path
     d="M753.00,353.00 C755.17,353.17 763.50,354.17 766.00,354.00 C768.50,353.83 768.67,357.83 768.00,352.00 C767.33,346.17 763.33,324.67 762.00,319.00 C760.67,313.33 760.33,318.17 760.00,318.00"
     fill="none"
     stroke="black"
     stroke-width="10.00"
     stroke-linecap="round"
     stroke-linejoin="round"
     id="path11"
     style="stroke-width:8;stroke-dasharray:none" />
  <path
     d="M128.00,356.00 C134.50,359.00 158.50,370.83 167.00,374.00 C175.50,377.17 176.67,375.33 179.00,375.00 C181.33,374.67 180.33,372.33 181.00,372.00 C181.67,371.67 179.00,369.67 183.00,373.00 C187.00,376.33 200.83,388.83 205.00,392.00 C209.17,395.17 206.17,390.00 208.00,392.00 C209.83,394.00 216.50,401.00 216.00,404.00 C215.50,407.00 208.00,409.33 205.00,410.00 C202.00,410.67 199.17,408.33 198.00,408.00"
     fill="none"
     stroke="black"
     stroke-width="11.04"
     stroke-linecap="round"
     stroke-linejoin="round"
     id="path12"
     style="stroke-width:8;stroke-dasharray:none" />
  <path
     d="M591.00,394.00 C589.67,395.00 587.33,397.83 583.00,400.00 C578.67,402.17 570.50,403.50 565.00,407.00 C559.50,410.50 553.83,418.17 550.00,421.00 C546.17,423.83 546.83,420.00 542.00,424.00 C537.17,428.00 525.67,442.33 521.00,445.00 C516.33,447.67 515.67,442.17 514.00,440.00 C512.33,437.83 511.83,433.33 511.00,432.00 C510.17,430.67 509.33,432.00 509.00,432.00"
     fill="none"
     stroke="black"
     stroke-width="8.49"
     stroke-linecap="round"
     stroke-linejoin="round"
     id="path13"
     style="stroke-width:8;stroke-dasharray:none" />
  <path
     d="M767.00,422.00 C769.00,422.17 776.00,423.50 779.00,423.00 C782.00,422.50 783.33,421.67 785.00,419.00 C786.67,416.33 787.83,412.83 789.00,407.00 C790.17,401.17 792.33,390.50 792.00,384.00 C791.67,377.50 789.50,372.33 787.00,368.00 C784.50,363.67 780.33,360.50 777.00,358.00 C773.67,355.50 768.67,353.83 767.00,353.00"
     fill="none"
     stroke="black"
     stroke-width="9.47"
     stroke-linecap="round"
     stroke-linejoin="round"
     id="path14"
     style="stroke-width:8;stroke-dasharray:none" />
  <path
     d="M240.00,438.00 C241.17,437.67 244.33,437.67 247.00,436.00 C249.67,434.33 254.50,429.33 256.00,428.00"
     fill="none"
     stroke="black"
     stroke-width="13.99"
     stroke-linecap="round"
     stroke-linejoin="round"
     id="path15"
     style="stroke-width:8;stroke-dasharray:none" />
  <path
     d="M427.00,455.00 C427.50,451.83 424.50,444.33 430.00,436.00 C435.50,427.67 451.83,409.50 460.00,405.00 C468.17,400.50 473.83,407.33 479.00,409.00 C484.17,410.67 489.00,414.00 491.00,415.00"
     fill="none"
     stroke="black"
     stroke-width="33.94"
     stroke-linecap="round"
     stroke-linejoin="round"
     id="path16"
     style="stroke-width:8;stroke-dasharray:none" />
  <path
     d="M283.00,466.00 C285.67,465.33 293.83,464.83 299.00,462.00 C304.17,459.17 311.67,451.67 314.00,449.00 C316.33,446.33 312.33,448.83 313.00,446.00 C313.67,443.17 317.33,435.00 318.00,432.00 C318.67,429.00 317.17,428.67 317.00,428.00"
     fill="none"
     stroke="black"
     stroke-width="33.94"
     stroke-linecap="round"
     stroke-linejoin="round"
     id="path17"
     style="stroke-width:8;stroke-dasharray:none" />
  <path
     d="M849.00,514.00 C846.50,515.00 840.00,518.50 834.00,520.00 C828.00,521.50 817.50,523.50 813.00,523.00 C808.50,522.50 813.00,519.00 807.00,517.00 C801.00,515.00 783.33,512.83 777.00,511.00 C770.67,509.17 775.00,503.17 769.00,506.00 C763.00,508.83 752.50,518.00 741.00,528.00 C729.50,538.00 709.00,558.33 700.00,566.00 C691.00,573.67 691.50,571.83 687.00,574.00 C682.50,576.17 675.33,578.17 673.00,579.00"
     fill="none"
     stroke="black"
     stroke-width="8.49"
     stroke-linecap="round"
     stroke-linejoin="round"
     id="path18"
     style="stroke-width:8;stroke-dasharray:none" />
  <path
     d="M693.00,532.00 C693.17,531.17 689.17,532.00 694.00,527.00 C698.83,522.00 716.17,508.00 722.00,502.00 C727.83,496.00 728.67,493.67 729.00,491.00 C729.33,488.33 727.67,487.33 724.00,486.00 C720.33,484.67 710.67,484.00 707.00,483.00 C703.33,482.00 709.00,481.17 702.00,480.00 C695.00,478.83 673.00,476.50 665.00,476.00 C657.00,475.50 657.50,477.83 654.00,477.00 C650.50,476.17 647.83,472.67 644.00,471.00 C640.17,469.33 633.17,467.67 631.00,467.00"
     fill="none"
     stroke="black"
     stroke-width="12.00"
     stroke-linecap="round"
     stroke-linejoin="round"
     id="path19"
     style="stroke-width:8;stroke-dasharray:none" />
  <path
     d="M520.00,539.00 C520.17,537.83 519.50,535.50 521.00,532.00 C522.50,528.50 527.67,521.67 529.00,518.00 C530.33,514.33 528.00,512.83 529.00,510.00 C530.00,507.17 533.00,506.50 535.00,501.00 C537.00,495.50 540.33,483.33 541.00,477.00 C541.67,470.67 542.50,468.33 539.00,463.00 C535.50,457.67 523.17,448.00 520.00,445.00"
     fill="none"
     stroke="black"
     stroke-width="12.00"
     stroke-linecap="round"
     stroke-linejoin="round"
     id="path20"
     style="stroke-width:8;stroke-dasharray:none" />
  <path
     d="M600.00,543.00 C602.00,540.67 608.33,534.50 612.00,529.00 C615.67,523.50 619.67,515.83 622.00,510.00 C624.33,504.17 625.33,499.67 626.00,494.00 C626.67,488.33 625.17,480.67 626.00,476.00 C626.83,471.33 636.17,471.50 631.00,466.00 C625.83,460.50 602.50,447.17 595.00,443.00 C587.50,438.83 589.00,441.17 586.00,441.00 C583.00,440.83 581.67,439.50 577.00,442.00 C572.33,444.50 564.50,452.33 558.00,456.00 C551.50,459.67 541.33,462.67 538.00,464.00"
     fill="none"
     stroke="black"
     stroke-width="10.77"
     stroke-linecap="round"
     stroke-linejoin="round"
     id="path21"
     style="stroke-width:8;stroke-dasharray:none" />
  <path
     d="M336.00,579.00 C338.17,573.00 347.50,550.50 349.00,543.00 C350.50,535.50 347.33,536.83 345.00,534.00 C342.67,531.17 337.50,530.17 335.00,526.00 C332.50,521.83 332.17,512.83 330.00,509.00 C327.83,505.17 324.17,512.33 322.00,503.00 C319.83,493.67 318.67,462.00 317.00,453.00 C315.33,444.00 312.83,449.67 312.00,449.00"
     fill="none"
     stroke="black"
     stroke-width="16.00"
     stroke-linecap="round"
     stroke-linejoin="round"
     id="path22"
     style="stroke-width:8;stroke-dasharray:none" />
  <path
     d="M504.00,601.00 C505.33,602.83 511.00,609.67 512.00,612.00 C513.00,614.33 515.17,614.83 510.00,615.00 C504.83,615.17 486.50,613.83 481.00,613.00 C475.50,612.17 480.33,611.00 477.00,610.00 C473.67,609.00 464.33,608.00 461.00,607.00 C457.67,606.00 462.83,606.00 457.00,604.00 C451.17,602.00 432.83,596.33 426.00,595.00 C419.17,593.67 420.17,597.83 416.00,596.00 C411.83,594.17 406.67,587.83 401.00,584.00 C395.33,580.17 389.50,578.83 382.00,573.00 C374.50,567.17 361.67,553.33 356.00,549.00 C350.33,544.67 349.33,547.33 348.00,547.00"
     fill="none"
     stroke="black"
     stroke-width="12.81"
     stroke-linecap="round"
     stroke-linejoin="round"
     id="path23"
     style="stroke-width:8;stroke-dasharray:none" />
  <path
     d="M655.00,640.00 C659.33,646.00 675.33,669.50 681.00,676.00 C686.67,682.50 686.67,679.67 689.00,679.00 C691.33,678.33 691.83,674.00 695.00,672.00 C698.17,670.00 704.67,668.83 708.00,667.00 C711.33,665.17 713.83,668.00 715.00,661.00 C716.17,654.00 712.83,635.67 715.00,625.00 C717.17,614.33 723.83,604.33 728.00,597.00 C732.17,589.67 738.00,585.50 740.00,581.00 C742.00,576.50 737.17,574.00 740.00,570.00 C742.83,566.00 750.00,560.67 757.00,557.00 C764.00,553.33 774.00,551.67 782.00,548.00 C790.00,544.33 799.83,539.17 805.00,535.00 C810.17,530.83 811.67,525.00 813.00,523.00"
     fill="none"
     stroke="black"
     stroke-width="8.00"
     stroke-linecap="round"
     stroke-linejoin="round"
     id="path24"
     style="stroke-width:8;stroke-dasharray:none" />
  <path
     d="M422.00,684.00 C421.83,686.00 424.67,694.00 421.00,696.00 C417.33,698.00 403.50,696.50 400.00,696.00 C396.50,695.50 401.00,694.33 400.00,693.00 C399.00,691.67 398.17,690.17 394.00,688.00 C389.83,685.83 385.67,683.50 375.00,680.00 C364.33,676.50 342.67,669.83 330.00,667.00 C317.33,664.17 306.17,664.83 299.00,663.00 C291.83,661.17 292.83,657.83 287.00,656.00 C281.17,654.17 268.50,653.17 264.00,652.00 C259.50,650.83 263.33,650.17 260.00,649.00 C256.67,647.83 250.50,647.83 244.00,645.00 C237.50,642.17 228.67,637.00 221.00,632.00 C213.33,627.00 205.50,621.67 198.00,615.00 C190.50,608.33 183.00,600.33 176.00,592.00 C169.00,583.67 161.33,573.50 156.00,565.00 C150.67,556.50 148.33,552.50 144.00,541.00 C139.67,529.50 133.67,506.17 130.00,496.00 C126.33,485.83 129.17,489.00 122.00,480.00 C114.83,471.00 95.00,451.67 87.00,442.00 C79.00,432.33 77.33,429.83 74.00,422.00 C70.67,414.17 67.67,404.50 67.00,395.00 C66.33,385.50 70.50,371.50 70.00,365.00 C69.50,358.50 65.83,358.00 64.00,356.00 C62.17,354.00 62.33,353.83 59.00,353.00 C55.67,352.17 48.50,353.17 44.00,351.00 C39.50,348.83 34.67,344.67 32.00,340.00 C29.33,335.33 28.50,330.33 28.00,323.00 C27.50,315.67 28.83,300.50 29.00,296.00"
     fill="none"
     stroke="black"
     stroke-width="10.00"
     stroke-linecap="round"
     stroke-linejoin="round"
     id="path25"
     style="stroke-width:8;stroke-dasharray:none" />
  <path
     d="m 212.46992,824.63856 c 2.77104,6.29048 5.27107,11.08352 7.90323,18.20326 3.21816,8.70479 6.29588,19.7798 7.11547,22.26548 2.2612,6.85786 1.71954,7.48956 6.06917,-5.90087 4.33,-13.33 11.37461,-40.03307 22.04461,-72.36307 C 266.2724,754.51336 291.67,683.5 299,663"
     fill="none"
     stroke="#000000"
     stroke-width="13.42"
     stroke-linecap="round"
     stroke-linejoin="round"
     id="path26"
     style="stroke-width:8;stroke-dasharray:none"
     sodipodi:nodetypes="cssssc" />
  <path
     d="m 398.94618,912.5702 c -2.21581,1.50941 -39.6442,29.40307 -44.25613,32.62278 -3.02673,2.11304 -5.98176,4.1847 -8.09371,5.67722 -4.99487,3.52989 -6.82922,4.57845 -9.65922,6.74845 -2.83,2.17 -3.44827,2.68905 -9.215,7.01828 -5.47146,4.10756 -18.27028,13.98807 -23.17039,18.25557 -5.5712,4.85197 -6.02943,4.6075 -8.52943,4.1075 -2.5,-0.5 -4.5223,-3.33 -5.0223,-6 -0.5,-2.67 -0.17,-5.67 1,-10 1.17,-4.33 2.5,-9 6,-16 3.5,-7 13.33,-19 15,-26 1.67,-7 -4.17,-8.33 -5,-16 -0.83,-7.67 1,-24.17 0,-30 -1,-5.83 -4.17,-4.33 -6,-5 -1.83,-0.67 -3.17,-0.83 -5,1 -1.83,1.83 -4.17,7.83 -6,10 -1.83,2.17 -4.33,2.17 -5,3 -0.67,0.83 1.5,2 1,2 -0.5,0 -2,-2.33 -4,-2 -2,0.33 -6.5,1 -8,4 -1.5,3 -0.14354,8.7158 -0.0362,12.43376 0.13485,4.66927 -0.0215,11.30098 0.0362,16.56624 0.18415,2.35064 -5.41782,2.57512 -9,2 -3.32752,-0.53424 -4,-1.5 -6,10 -2,11.5 -5,45.67 -6,59 -1,13.33 -3.12889,18.4583 0,21 7.75426,6.299 9.21736,2.7253 12.55173,-0.6816 4.25605,-4.8748 16.93791,-14.6034 21.68154,-19.17032 4.93912,-4.75512 6.95942,-6.02982 10.3448,-9.57404"
     fill="none"
     stroke="#000000"
     stroke-width="10.00"
     stroke-linecap="round"
     stroke-linejoin="round"
     id="path27"
     style="stroke-width:8;stroke-dasharray:none"
     sodipodi:nodetypes="csssssssssssssssssssssssssssc" />
  <path
     d="M572.00,1023.00 C566.50,1028.83 545.83,1051.33 539.00,1058.00 C532.17,1064.67 532.33,1059.67 531.00,1063.00 C529.67,1066.33 530.67,1075.50 531.00,1078.00 C531.33,1080.50 532.67,1078.00 533.00,1078.00"
     fill="none"
     stroke="black"
     stroke-width="8.00"
     stroke-linecap="round"
     stroke-linejoin="round"
     id="path28"
     style="stroke-width:8;stroke-dasharray:none" />
  <path
     d="M569.00,1050.00 C567.67,1051.83 564.50,1057.17 561.00,1061.00 C557.50,1064.83 552.00,1070.00 548.00,1073.00 C544.00,1076.00 539.83,1078.17 537.00,1079.00 C534.17,1079.83 533.67,1077.33 531.00,1078.00 C528.33,1078.67 523.33,1081.67 521.00,1083.00 C518.67,1084.33 518.17,1084.33 517.00,1086.00 C515.83,1087.67 514.50,1091.83 514.00,1093.00"
     fill="none"
     stroke="black"
     stroke-width="11.31"
     stroke-linecap="round"
     stroke-linejoin="round"
     id="path29"
     style="stroke-width:8;stroke-dasharray:none" />
  <path
     d="M610.00,1089.00 C604.33,1091.50 583.50,1099.83 576.00,1104.00 C568.50,1108.17 567.67,1112.33 565.00,1114.00 C562.33,1115.67 563.67,1116.50 560.00,1114.00 C556.33,1111.50 547.00,1104.83 543.00,1099.00 C539.00,1093.17 537.17,1082.33 536.00,1079.00"
     fill="none"
     stroke="black"
     stroke-width="11.31"
     stroke-linecap="round"
     stroke-linejoin="round"
     id="path30"
     style="stroke-width:8;stroke-dasharray:none" />
  <path
     d="M639.00,1096.00 C633.83,1098.67 613.67,1108.50 608.00,1112.00 C602.33,1115.50 605.50,1116.17 605.00,1117.00"
     fill="none"
     stroke="black"
     stroke-width="7.21"
     stroke-linecap="round"
     stroke-linejoin="round"
     id="path31"
     style="stroke-width:8;stroke-dasharray:none" />
  <path
     d="m 42,2146 c 0.33,-9.5 1.305048,-45.9906 2,-57 1.805295,-28.5993 4.534459,-46.2736 7.614622,-69.3408 1.83,-12.33 4.396146,-28.2722 6.726146,-41.6022 2.33,-13.33 5.966927,-26.1347 8.636927,-41.4647 3.152869,-18.1024 9.419161,-40.2882 12.807311,-53.6227 2.33,-9.17 5.2876,-19.5245 7.192689,-27.5477 3.795078,-15.9826 10.424609,-40.0482 12.340768,-44.6369 3.249567,-7.7819 13.644447,-54.4047 13.869047,-51.2381 0.27848,3.9263 2.6652,35.9444 3.88481,64.0192 1.15522,26.5926 6.78945,91.633 8.92768,120.8317 1.39501,19.0497 5.73023,52.3902 7.68345,74.0639 2.50638,27.8118 13.24307,77.1252 27.50917,131.4298"
     fill="none"
     stroke="#000000"
     stroke-width="16.00"
     stroke-linecap="round"
     stroke-linejoin="round"
     id="path32"
     style="stroke-width:8;stroke-dasharray:none"
     sodipodi:nodetypes="csssssssssssc" />
  <path
     d="M563.00,140.00 C564.33,140.50 566.17,137.00 571.00,143.00 C575.83,149.00 587.33,167.17 592.00,176.00 C596.67,184.83 597.17,188.83 599.00,196.00 C600.83,203.17 602.33,215.17 603.00,219.00"
     fill="none"
     stroke="black"
     stroke-width="15.23"
     stroke-linecap="round"
     stroke-linejoin="round"
     id="path33"
     style="stroke-width:8;stroke-dasharray:none" />
  <path
     d="M153.00,279.00 C154.33,286.17 158.67,312.00 161.00,322.00 C163.33,332.00 164.17,333.00 167.00,339.00 C169.83,345.00 175.50,352.33 178.00,358.00 C180.50,363.67 181.33,370.50 182.00,373.00"
     fill="none"
     stroke="black"
     stroke-width="12.17"
     stroke-linecap="round"
     stroke-linejoin="round"
     id="path34"
     style="stroke-width:8;stroke-dasharray:none" />
  <path
     d="M197.00,337.00 C200.83,339.50 213.83,347.33 220.00,352.00 C226.17,356.67 225.00,355.83 234.00,365.00 C243.00,374.17 266.67,397.83 274.00,407.00 C281.33,416.17 276.00,416.50 278.00,420.00 C280.00,423.50 289.67,426.67 286.00,428.00 C282.33,429.33 262.33,429.50 256.00,428.00 C249.67,426.50 252.83,421.83 248.00,419.00 C243.17,416.17 231.33,413.17 227.00,411.00 C222.67,408.83 223.83,407.17 222.00,406.00 C220.17,404.83 217.00,404.33 216.00,404.00"
     fill="none"
     stroke="black"
     stroke-width="8.49"
     stroke-linecap="round"
     stroke-linejoin="round"
     id="path35"
     style="stroke-width:8;stroke-dasharray:none" />
  <path
     d="M386.00,383.00 C386.17,383.33 376.50,382.50 387.00,385.00 C397.50,387.50 437.67,395.50 449.00,398.00 C460.33,400.50 453.00,398.67 455.00,400.00 C457.00,401.33 460.00,405.00 461.00,406.00"
     fill="none"
     stroke="black"
     stroke-width="33.94"
     stroke-linecap="round"
     stroke-linejoin="round"
     id="path36"
     style="stroke-width:8;stroke-dasharray:none" />
  <path
     d="M339.00,401.00 C335.50,405.50 323.33,423.50 318.00,428.00 C312.67,432.50 309.33,427.67 307.00,428.00 C304.67,428.33 307.50,430.00 304.00,430.00 C300.50,430.00 289.00,428.33 286.00,428.00"
     fill="none"
     stroke="black"
     stroke-width="33.94"
     stroke-linecap="round"
     stroke-linejoin="round"
     id="path37"
     style="stroke-width:8;stroke-dasharray:none" />
  <path
     d="M783.00,423.00 C783.17,425.33 784.67,434.00 784.00,437.00 C783.33,440.00 779.33,439.17 779.00,441.00 C778.67,442.83 781.33,444.33 782.00,448.00 C782.67,451.67 783.33,458.33 783.00,463.00 C782.67,467.67 781.67,471.67 780.00,476.00 C778.33,480.33 775.17,486.00 773.00,489.00 C770.83,492.00 767.67,491.17 767.00,494.00 C766.33,496.83 768.67,504.00 769.00,506.00"
     fill="none"
     stroke="black"
     stroke-width="12.00"
     stroke-linecap="round"
     stroke-linejoin="round"
     id="path38"
     style="stroke-width:8;stroke-dasharray:none" />
  <path
     d="M729.00,491.00 C733.17,491.17 747.50,491.33 754.00,492.00 C760.50,492.67 765.67,494.50 768.00,495.00"
     fill="none"
     stroke="black"
     stroke-width="20.00"
     stroke-linecap="round"
     stroke-linejoin="round"
     id="path39"
     style="stroke-width:8;stroke-dasharray:none" />
  <path
     d="M741.00,571.00 C738.83,571.17 739.17,566.33 728.00,572.00 C716.83,577.67 685.83,598.17 674.00,605.00 C662.17,611.83 662.83,610.83 657.00,613.00 C651.17,615.17 647.00,616.83 639.00,618.00 C631.00,619.17 616.00,620.67 609.00,620.00 C602.00,619.33 610.83,614.83 597.00,614.00 C583.17,613.17 540.17,615.33 526.00,615.00 C511.83,614.67 514.33,612.50 512.00,612.00"
     fill="none"
     stroke="black"
     stroke-width="10.00"
     stroke-linecap="round"
     stroke-linejoin="round"
     id="path40"
     style="stroke-width:8;stroke-dasharray:none" />
  <path
     d="M417.00,595.00 C417.00,596.33 414.33,595.00 417.00,603.00 C419.67,611.00 428.50,630.00 433.00,643.00 C437.50,656.00 442.17,670.17 444.00,681.00 C445.83,691.83 446.17,704.00 444.00,708.00 C441.83,712.00 434.67,706.67 431.00,705.00 C427.33,703.33 423.50,699.67 422.00,698.00 C420.50,696.33 422.00,695.50 422.00,695.00"
     fill="none"
     stroke="black"
     stroke-width="11.66"
     stroke-linecap="round"
     stroke-linejoin="round"
     id="path41"
     style="stroke-width:8;stroke-dasharray:none" />
  <path
     d="M519.00,614.00 C519.33,614.00 520.83,613.00 521.00,614.00 C521.17,615.00 519.50,617.50 520.00,620.00 C520.50,622.50 517.33,621.17 524.00,629.00 C530.67,636.83 548.83,656.67 560.00,667.00 C571.17,677.33 581.83,685.00 591.00,691.00 C600.17,697.00 608.50,700.50 615.00,703.00 C621.50,705.50 621.50,705.50 630.00,706.00 C638.50,706.50 656.83,706.50 666.00,706.00 C675.17,705.50 680.83,704.83 685.00,703.00 C689.17,701.17 690.33,698.83 691.00,695.00 C691.67,691.17 689.33,682.50 689.00,680.00"
     fill="none"
     stroke="black"
     stroke-width="8.00"
     stroke-linecap="round"
     stroke-linejoin="round"
     id="path42"
     style="stroke-width:8;stroke-dasharray:none" />
  <path
     d="M401.00,695.00 C400.00,699.50 396.50,717.00 395.00,722.00 C393.50,727.00 393.33,721.83 392.00,725.00 C390.67,728.17 387.67,737.00 387.00,741.00 C386.33,745.00 387.33,747.17 388.00,749.00 C388.67,750.83 386.33,751.33 391.00,752.00 C395.67,752.67 409.17,754.17 416.00,753.00 C422.83,751.83 428.00,748.17 432.00,745.00 C436.00,741.83 438.17,739.83 440.00,734.00 C441.83,728.17 442.50,714.00 443.00,710.00"
     fill="none"
     stroke="black"
     stroke-width="12.00"
     stroke-linecap="round"
     stroke-linejoin="round"
     id="path43"
     style="stroke-width:8;stroke-dasharray:none" />
  <path
     d="m 399.37343,912.37343 c 1.5,-2 3.29657,-11.20343 5.62657,-15.37343 2.33,-4.17 3.67,-8.5 5,-13 1.33,-4.5 2.33,-3.67 3,-14 0.67,-10.33 0.33,-38.33 1,-48 0.67,-9.67 1.17,-6.5 3,-10 1.83,-3.5 4.83,-8.67 8,-11 3.17,-2.33 8.5,-3.17 11,-3 2.5,0.17 2.5,0.17 4,4 1.5,3.83 4.17,14.5 5,19 0.83,4.5 1.5,2.67 0,8 -1.5,5.33 -7.67,18.33 -9,24 -1.33,5.67 -0.67,9 1,10 1.67,1 4.33,-0.17 9,-4 4.67,-3.83 13.67,-12.83 19,-19 5.33,-6.17 10.17,-14.67 13,-18 2.83,-3.33 1.17,-2 4,-2 2.83,0 7.67,4.17 13,2 5.33,-2.17 14,-12.5 19,-15 5,-2.5 8,-1 11,0 3,1 5.5,4 7,6 1.5,2 2,3.83 2,6 0,2.17 1.83,3.5 -2,7 -3.83,3.5 -17.5,9.5 -21,14 -3.5,4.5 0.5,10 0,13 -0.5,3 3.5,2.5 -3,5 -6.5,2.5 -25,5.67 -36,10 -11,4.33 -23.67,14.67 -30,16"
     fill="none"
     stroke="#000000"
     stroke-width="10.00"
     stroke-linecap="round"
     stroke-linejoin="round"
     id="path44"
     style="stroke-width:8;stroke-dasharray:none"
     sodipodi:nodetypes="cssssssssssssssssssssssssssc" />
  <path
     d="M 231.54151,864.88848 C 228.15613,873.90001 223.5,894.17 218,922 c -5.5,27.83 -23.80169,89.0973 -29.48191,113.3133 -4.16238,17.7451 -5.00337,20.2969 -8.11695,34.4821 -3.14397,14.3236 -4.42175,22.9986 -8.2236,37.3371 -2.65584,10.0163 -4.45432,22.5312 -7.47482,34.6309 -15.79598,63.2765 -22.76721,89.4404 -35.42052,161.5551 -5.14174,29.3042 -7.5137,54.0076 -12.44137,90.646 -3.62111,26.9238 -6.59695,79.9255 -9.42695,120.7555 -2.83,40.83 -3.33,56.9469 -1.95539,100.2738 1.13639,35.8182 2.93802,77.4955 5.0873,101.66 2.24917,25.2877 1.39772,31.7333 2.39772,49.9417"
     fill="none"
     stroke="#000000"
     stroke-width="16.00"
     stroke-linecap="round"
     stroke-linejoin="round"
     id="path45"
     style="stroke-width:8;stroke-dasharray:none"
     sodipodi:nodetypes="cssssssssssc" />
  <path
     d="m 440,884 c -3.83,3.67 -18.5,17.5 -23,22 -4.5,4.5 -2.83,2.5 -4,5 -1.17,2.5 -4.5,8.5 -3,10 1.5,1.5 6.17,1.67 12,-1 5.83,-2.67 17.83,-12.33 23,-15 5.17,-2.67 5.5,-1.5 8,-1 2.5,0.5 3,4.67 7,4 4,-0.67 8.83,-7.17 17,-8 8.17,-0.83 26,1.83 32,3 6,1.17 3.33,2.67 4,4 0.67,1.33 1.17,2 0,4 -1.17,2 -4.67,6.17 -7,8 -2.33,1.83 -5.17,0.67 -7,3 -1.83,2.33 -2.5,8.5 -4,11 -1.5,2.5 0.83,3.5 -5,4 -5.83,0.5 -24.5,-1.33 -30,-1 -5.5,0.33 -2.5,1.17 -3,3 -0.5,1.83 -0.5,5.5 0,8 0.5,2.5 3,4.83 3,7 0,2.17 -1.17,5 -3,6 -1.83,1 -1.17,1.5 -8,0 -6.83,-1.5 -20.83,-6.83 -33,-9 -12.17,-2.17 -31.83,-2 -40,-4 -8.17,-2 -10.30191,-7.3378 -11.65056,-9.32528 -3.52775,-5.19879 -5.47024,-11.41744 -1.67436,-17.57823 3.71634,-4.00284 8.2579,-8.7087 11.87952,-11.18081 5.42978,-3.70636 14.94399,-6.34935 13.4454,-14.83136 -0.5,-2.83 -4.17,-6.58432 -5,-9.08432 -0.83,-2.5 -0.83,-3.33 0,-7 0.83,-3.67 4,-9.5 5,-15 1,-5.5 1.17,-14.67 1,-18 -0.17,-3.33 -0.17,-1.83 -2,-2 -1.83,-0.17 -6.67,0.17 -9,1 -2.33,0.83 -3,1 -5,4 -2,3 -5,10.83 -7,14 -2,3.17 -1.67,3.67 -5,5 -3.33,1.33 -11.67,1.33 -15,3 -3.33,1.67 -4.17,1.17 -5,7 -0.83,5.83 1.5,22.17 0,28 -1.5,5.83 -7.33,5.17 -9,7 -1.67,1.83 -1,-2.33 -1,4 0,6.33 -3.23768,25.54097 -2.40768,32.21097 0.83,6.67 5.4598,7.38537 6.1298,8.38537"
     fill="none"
     stroke="#000000"
     stroke-width="10.00"
     stroke-linecap="round"
     stroke-linejoin="round"
     id="path46"
     style="stroke-width:8;stroke-dasharray:none"
     sodipodi:nodetypes="cssssssssssssssssssssssssssssssssssssssssssc" />
  <path
     d="m 386,902 c -3.67,2.67 -18.17,11.17 -22,16 -3.83,4.83 -1.5,10.17 -1,13 0.5,2.83 3.33,3.33 4,4"
     fill="none"
     stroke="#000000"
     stroke-width="10.00"
     stroke-linecap="round"
     stroke-linejoin="round"
     id="path47"
     style="stroke-width:8;stroke-dasharray:none"
     sodipodi:nodetypes="cssc" />
  <path
     d="M592.00,965.00 C596.00,962.17 610.67,951.33 616.00,948.00 C621.33,944.67 619.67,946.17 624.00,945.00 C628.33,943.83 635.17,941.50 642.00,941.00 C648.83,940.50 660.00,942.50 665.00,942.00 C670.00,941.50 671.50,939.83 672.00,938.00 C672.50,936.17 670.17,933.17 668.00,931.00 C665.83,928.83 663.83,926.50 659.00,925.00 C654.17,923.50 646.00,922.17 639.00,922.00 C632.00,921.83 623.67,922.33 617.00,924.00 C610.33,925.67 603.50,929.17 599.00,932.00 C594.50,934.83 591.83,938.50 590.00,941.00 C588.17,943.50 588.50,944.17 588.00,947.00 C587.50,949.83 586.50,955.00 587.00,958.00 C587.50,961.00 590.50,962.67 591.00,965.00 C591.50,967.33 589.83,970.83 590.00,972.00 C590.17,973.17 593.67,971.17 592.00,972.00 C590.33,972.83 584.67,973.83 580.00,977.00 C575.33,980.17 571.50,983.17 564.00,991.00 C556.50,998.83 541.33,1015.33 535.00,1024.00 C528.67,1032.67 527.67,1038.67 526.00,1043.00 C524.33,1047.33 524.83,1047.33 525.00,1050.00 C525.17,1052.67 525.67,1056.83 527.00,1059.00 C528.33,1061.17 532.00,1062.33 533.00,1063.00"
     fill="none"
     stroke="black"
     stroke-width="10.20"
     stroke-linecap="round"
     stroke-linejoin="round"
     id="path48"
     style="stroke-width:8;stroke-dasharray:none" />
  <path
     d="M672.00,938.00 C673.17,938.33 677.17,938.50 679.00,940.00 C680.83,941.50 683.83,944.17 683.00,947.00 C682.17,949.83 679.67,954.67 674.00,957.00 C668.33,959.33 656.50,959.33 649.00,961.00 C641.50,962.67 634.17,964.67 629.00,967.00 C623.83,969.33 621.17,972.00 618.00,975.00 C614.83,978.00 612.83,983.67 610.00,985.00 C607.17,986.33 604.17,985.17 601.00,983.00 C597.83,980.83 592.67,973.83 591.00,972.00"
     fill="none"
     stroke="black"
     stroke-width="11.66"
     stroke-linecap="round"
     stroke-linejoin="round"
     id="path49"
     style="stroke-width:8;stroke-dasharray:none" />
  <path
     d="M683.00,947.00 C684.50,947.33 689.17,949.33 692.00,949.00 C694.83,948.67 696.50,945.33 700.00,945.00 C703.50,944.67 708.83,945.17 713.00,947.00 C717.17,948.83 722.33,952.33 725.00,956.00 C727.67,959.67 730.17,964.50 729.00,969.00 C727.83,973.50 720.17,980.83 718.00,983.00 C715.83,985.17 717.17,981.17 716.00,982.00 C714.83,982.83 713.50,986.17 711.00,988.00 C708.50,989.83 705.17,988.33 701.00,993.00 C696.83,997.67 692.50,1008.83 686.00,1016.00 C679.50,1023.17 665.50,1031.00 662.00,1036.00 C658.50,1041.00 662.33,1042.83 665.00,1046.00 C667.67,1049.17 674.33,1054.33 678.00,1055.00 C681.67,1055.67 683.17,1053.67 687.00,1050.00 C690.83,1046.33 697.33,1039.83 701.00,1033.00 C704.67,1026.17 706.17,1014.67 709.00,1009.00 C711.83,1003.33 716.50,1000.67 718.00,999.00"
     fill="none"
     stroke="black"
     stroke-width="11.31"
     stroke-linecap="round"
     stroke-linejoin="round"
     id="path50"
     style="stroke-width:8;stroke-dasharray:none" />
  <path
     d="M694.00,949.00 C694.67,949.83 697.33,951.17 698.00,954.00 C698.67,956.83 697.67,964.00 698.00,966.00 C698.33,968.00 699.67,966.00 700.00,966.00"
     fill="none"
     stroke="black"
     stroke-width="14.14"
     stroke-linecap="round"
     stroke-linejoin="round"
     id="path51"
     style="stroke-width:8;stroke-dasharray:none" />
  <path
     d="M609.00,985.00 C611.17,987.67 617.83,997.00 622.00,1001.00 C626.17,1005.00 628.67,1011.17 634.00,1009.00 C639.33,1006.83 648.17,992.83 654.00,988.00 C659.83,983.17 663.17,982.33 669.00,980.00 C674.83,977.67 684.17,976.33 689.00,974.00 C693.83,971.67 695.83,967.33 698.00,966.00 C700.17,964.67 700.33,965.33 702.00,966.00 C703.67,966.67 706.67,968.33 708.00,970.00 C709.33,971.67 708.17,973.50 710.00,976.00 C711.83,978.50 717.50,981.17 719.00,985.00 C720.50,988.83 717.83,995.67 719.00,999.00 C720.17,1002.33 724.33,1002.00 726.00,1005.00 C727.67,1008.00 728.50,1011.00 729.00,1017.00 C729.50,1023.00 729.00,1037.00 729.00,1041.00"
     fill="none"
     stroke="black"
     stroke-width="14.00"
     stroke-linecap="round"
     stroke-linejoin="round"
     id="path52"
     style="stroke-width:8;stroke-dasharray:none" />
  <path
     d="M633.00,1009.00 C636.67,1013.00 650.17,1028.50 655.00,1033.00 C659.83,1037.50 660.83,1035.50 662.00,1036.00"
     fill="none"
     stroke="black"
     stroke-width="14.42"
     stroke-linecap="round"
     stroke-linejoin="round"
     id="path53"
     style="stroke-width:8;stroke-dasharray:none" />
  <path
     d="m 263.97795,1018.9196 c -1.01115,2.3293 -10.69256,12.951 -11.53371,15.121 -1.49537,3.8577 3.36725,7.1035 7.02633,7.215 3.33,0.17 7.85943,-0.7556 13.52943,-2.2556 5.67,-1.5 11,-5.83 18,-7 7,-1.17 17,1 24,0 7,-1 12.5,-5 18,-6 5.5,-1 11.67,-0.83 15,0 3.33,0.83 0,4.33 5,5 5,0.67 20,-2 25,-1 5,1 0.5,5.33 5,7 4.5,1.67 17.33,1.33 22,3 4.67,1.67 6.17,4.33 6,7 -0.17,2.67 -2,6.5 -7,9 -5,2.5 -18.5,4 -23,6 -4.5,2 1.17,5 -4,6 -5.17,1 -21.33,-0.67 -27,0 -5.67,0.67 -4.33,3.67 -7,4 -2.67,0.33 -5.17,-0.17 -9,-2 -3.83,-1.83 -9.67,-7.33 -14,-9 -4.33,-1.67 -10,-0.5 -12,-1 -2,-0.5 0.33,-2.5 0,-2 -0.33,0.5 4.33,4.83 -2,5 -6.33,0.17 -25.83,-3.33 -36,-4 -10.17,-0.67 -20,0.67 -25,0 -5,-0.67 -4.5,-2 -5,-4 -0.5,-2 -0.26478,-6.6659 2.09981,-9.6387 3.26711,-4.1075 8.76169,-10.0077 10.84688,-12.274"
     fill="none"
     stroke="#000000"
     stroke-width="10.00"
     stroke-linecap="round"
     stroke-linejoin="round"
     id="path54"
     style="stroke-width:8;stroke-dasharray:none"
     sodipodi:nodetypes="cssssssssssssssssssssssssssc" />
  <path
     d="M678.00,1055.00 C678.33,1056.67 677.67,1062.17 680.00,1065.00 C682.33,1067.83 688.17,1072.17 692.00,1072.00 C695.83,1071.83 698.83,1067.83 703.00,1064.00 C707.17,1060.17 712.83,1052.67 717.00,1049.00 C721.17,1045.33 725.50,1042.67 728.00,1042.00 C730.50,1041.33 731.17,1043.83 732.00,1045.00 C732.83,1046.17 733.50,1045.83 733.00,1049.00 C732.50,1052.17 731.33,1059.50 729.00,1064.00 C726.67,1068.50 722.50,1073.17 719.00,1076.00 C715.50,1078.83 711.83,1080.17 708.00,1081.00 C704.17,1081.83 698.83,1081.50 696.00,1081.00 C693.17,1080.50 691.67,1079.50 691.00,1078.00 C690.33,1076.50 691.83,1073.00 692.00,1072.00"
     fill="none"
     stroke="black"
     stroke-width="11.66"
     stroke-linecap="round"
     stroke-linejoin="round"
     id="path55"
     style="stroke-width:8;stroke-dasharray:none" />
  <path
     d="m 241.72288,1045.8074 c -10.03718,10.744 -12.61542,14.6074 -17.42672,19.9187 -9.40768,10.3854 -20.17535,18.55 -28.32556,26.245 -9.54461,9.0115 -21.43284,16.2499 -24.78437,18.9429"
     fill="none"
     stroke="#000000"
     stroke-width="16.12"
     stroke-linecap="round"
     stroke-linejoin="round"
     id="path56"
     style="stroke-width:8;stroke-dasharray:none"
     sodipodi:nodetypes="cssc" />
  <path
     d="M346.00,1069.00 L346.00,1072.00"
     fill="none"
     stroke="black"
     stroke-width="15.68"
     stroke-linecap="round"
     stroke-linejoin="round"
     id="path57"
     style="stroke-width:8;stroke-dasharray:none" />
  <path
     d="M564.00,1114.00 C564.83,1115.00 566.17,1118.33 569.00,1120.00 C571.83,1121.67 577.67,1124.33 581.00,1124.00 C584.33,1123.67 585.17,1119.33 589.00,1118.00 C592.83,1116.67 600.67,1114.50 604.00,1116.00 C607.33,1117.50 606.00,1125.50 609.00,1127.00 C612.00,1128.50 616.83,1126.50 622.00,1125.00 C627.17,1123.50 636.17,1120.00 640.00,1118.00 C643.83,1116.00 641.83,1114.83 645.00,1113.00 C648.17,1111.17 651.00,1112.83 659.00,1107.00 C667.00,1101.17 687.33,1082.83 693.00,1078.00"
     fill="none"
     stroke="black"
     stroke-width="10.77"
     stroke-linecap="round"
     stroke-linejoin="round"
     id="path58"
     style="stroke-width:8;stroke-dasharray:none" />
  <path
     d="M544.00,1125.00 C542.50,1124.00 539.83,1124.33 535.00,1119.00 C530.17,1113.67 520.50,1096.83 515.00,1093.00 C509.50,1089.17 504.50,1094.17 502.00,1096.00 C499.50,1097.83 500.33,1098.33 500.00,1104.00 C499.67,1109.67 499.17,1124.83 500.00,1130.00 C500.83,1135.17 501.00,1133.00 505.00,1135.00 C509.00,1137.00 518.33,1141.50 524.00,1142.00 C529.67,1142.50 535.83,1139.83 539.00,1138.00 C542.17,1136.17 542.33,1133.17 543.00,1131.00 C543.67,1128.83 541.83,1126.33 543.00,1125.00 C544.17,1123.67 547.17,1124.83 550.00,1123.00 C552.83,1121.17 558.33,1115.50 560.00,1114.00"
     fill="none"
     stroke="black"
     stroke-width="12.00"
     stroke-linecap="round"
     stroke-linejoin="round"
     id="path59"
     style="stroke-width:8;stroke-dasharray:none" />
  <path
     d="M583.00,1123.00 C583.17,1123.67 583.00,1125.67 584.00,1127.00 C585.00,1128.33 585.50,1130.50 589.00,1131.00 C592.50,1131.50 601.67,1130.67 605.00,1130.00 C608.33,1129.33 608.33,1127.50 609.00,1127.00"
     fill="none"
     stroke="black"
     stroke-width="11.49"
     stroke-linecap="round"
     stroke-linejoin="round"
     id="path60"
     style="stroke-width:8;stroke-dasharray:none" />
  <path
     d="m 501,1132 c -1,0.5 1.67,-3.83 -6,3 -7.67,6.83 -20.67,16.67 -40,38 -19.33,21.33 -52.17,60 -76,90 -23.83,30 -53.40143,71.0704 -67,90 -11.28921,15.7149 -16.77101,22.7846 -27,38 -6.80935,10.1288 -17.86616,28.1193 -25.03616,40.2893 -7.17,12.17 -12.15647,20.6502 -17.96384,32.7107 -13.19484,27.4025 -51.5,103.5 -67,137 -15.5,33.5 -19.33,46 -26,64 -6.67,18 -10.85672,32.7733 -16.36826,47.3956 -3.65551,9.6982 -17.37056,43.9556 -19.87056,48.6256"
     fill="none"
     stroke="#000000"
     stroke-width="17.20"
     stroke-linecap="round"
     stroke-linejoin="round"
     id="path61"
     style="stroke-width:8;stroke-dasharray:none"
     sodipodi:nodetypes="cssssssssssc" />
</svg>
