<?xml version="1.0" encoding="UTF-8"?>
<svg xmlns="http://www.w3.org/2000/svg" viewBox="0 0 697 1770" width="697" height="1770">
  <path d="M353.00,97.00 C354.50,93.33 359.00,81.00 362.00,75.00 C365.00,69.00 365.17,67.33 371.00,61.00 C376.83,54.67 392.33,41.83 397.00,37.00 C401.67,32.17 399.17,33.33 399.00,32.00 C398.83,30.67 399.67,30.50 396.00,29.00 C392.33,27.50 387.67,25.50 377.00,23.00 C366.33,20.50 345.17,15.50 332.00,14.00 C318.83,12.50 307.00,12.83 298.00,14.00 C289.00,15.17 281.33,19.83 278.00,21.00" fill="none" stroke="black" stroke-width="6.00" stroke-linecap="round" stroke-linejoin="round"/>
  <path d="M250.00,173.00 C249.83,167.50 248.50,152.33 249.00,140.00 C249.50,127.67 251.33,110.67 253.00,99.00 C254.67,87.33 255.17,81.50 259.00,70.00 C262.83,58.50 273.00,38.17 276.00,30.00 C279.00,21.83 280.67,22.00 277.00,21.00 C273.33,20.00 267.67,20.67 254.00,24.00 C240.33,27.33 206.00,37.17 195.00,41.00 C184.00,44.83 189.50,43.00 188.00,47.00 C186.50,51.00 186.33,62.00 186.00,65.00" fill="none" stroke="black" stroke-width="8.00" stroke-linecap="round" stroke-linejoin="round"/>
  <path d="M117.00,175.00 C116.83,169.33 115.83,149.17 116.00,141.00 C116.17,132.83 115.83,132.50 118.00,126.00 C120.17,119.50 123.67,109.17 129.00,102.00 C134.33,94.83 140.50,89.17 150.00,83.00 C159.50,76.83 179.50,67.50 186.00,65.00 C192.50,62.50 188.50,66.50 189.00,68.00 C189.50,69.50 190.17,66.67 189.00,74.00 C187.83,81.33 183.33,96.33 182.00,112.00 C180.67,127.67 180.17,152.17 181.00,168.00 C181.83,183.83 185.33,198.67 187.00,207.00 C188.67,215.33 190.33,216.17 191.00,218.00" fill="none" stroke="black" stroke-width="6.32" stroke-linecap="round" stroke-linejoin="round"/>
  <path d="M121.00,182.00 C120.83,188.17 121.00,212.17 120.00,219.00 C119.00,225.83 115.50,219.83 115.00,223.00 C114.50,226.17 115.00,229.83 117.00,238.00 C119.00,246.17 123.00,261.33 127.00,272.00 C131.00,282.67 140.50,297.00 141.00,302.00 C141.50,307.00 137.67,304.33 130.00,302.00 C122.33,299.67 100.83,290.33 95.00,288.00" fill="none" stroke="black" stroke-width="8.25" stroke-linecap="round" stroke-linejoin="round"/>
  <path d="M511.00,207.00 C514.33,204.67 525.17,197.67 531.00,193.00 C536.83,188.33 544.67,182.33 546.00,179.00 C547.33,175.67 543.83,174.33 539.00,173.00 C534.17,171.67 526.33,171.00 517.00,171.00 C507.67,171.00 490.50,166.17 483.00,173.00 C475.50,179.83 475.00,202.83 472.00,212.00 C469.00,221.17 468.67,222.17 465.00,228.00 C461.33,233.83 457.17,239.33 450.00,247.00 C442.83,254.67 426.67,269.50 422.00,274.00" fill="none" stroke="black" stroke-width="7.21" stroke-linecap="round" stroke-linejoin="round"/>
  <path d="M399.00,212.00 C403.83,203.50 420.67,176.83 428.00,161.00 C435.33,145.17 438.83,125.33 443.00,117.00 C447.17,108.67 452.50,116.67 453.00,111.00 C453.50,105.33 448.00,89.17 446.00,83.00 C444.00,76.83 445.50,80.00 441.00,74.00 C436.50,68.00 424.67,53.50 419.00,47.00 C413.33,40.50 410.33,37.50 407.00,35.00 C403.67,32.50 400.33,32.50 399.00,32.00" fill="none" stroke="black" stroke-width="8.00" stroke-linecap="round" stroke-linejoin="round"/>
  <path d="M33.00,241.00 C30.33,241.00 20.00,241.33 17.00,241.00 C14.00,240.67 15.00,240.83 15.00,239.00 C15.00,237.17 13.00,235.17 17.00,230.00 C21.00,224.83 31.67,213.67 39.00,208.00 C46.33,202.33 54.33,198.00 61.00,196.00 C67.67,194.00 73.50,195.00 79.00,196.00 C84.50,197.00 87.83,197.33 94.00,202.00 C100.17,206.67 112.33,220.33 116.00,224.00" fill="none" stroke="black" stroke-width="8.00" stroke-linecap="round" stroke-linejoin="round"/>
  <path d="M179.00,258.00 C180.67,260.50 182.50,265.17 189.00,273.00 C195.50,280.83 211.83,299.17 218.00,305.00 C224.17,310.83 220.83,307.67 226.00,308.00 C231.17,308.33 242.17,304.33 249.00,307.00 C255.83,309.67 262.00,322.00 267.00,324.00 C272.00,326.00 275.83,319.83 279.00,319.00 C282.17,318.17 282.17,320.67 286.00,319.00 C289.83,317.33 305.17,316.50 302.00,309.00 C298.83,301.50 273.00,280.50 267.00,274.00 C261.00,267.50 266.17,270.67 266.00,270.00" fill="none" stroke="black" stroke-width="25.46" stroke-linecap="round" stroke-linejoin="round"/>
  <path d="M302.00,259.00 C302.83,262.67 305.00,275.33 307.00,281.00 C309.00,286.67 312.83,289.67 314.00,293.00 C315.17,296.33 315.33,298.33 314.00,301.00 C312.67,303.67 307.33,307.67 306.00,309.00" fill="none" stroke="black" stroke-width="25.46" stroke-linecap="round" stroke-linejoin="round"/>
  <path d="M149.00,272.00 C150.00,272.17 151.50,271.17 155.00,273.00 C158.50,274.83 160.17,273.83 170.00,283.00 C179.83,292.17 206.00,318.67 214.00,328.00 C222.00,337.33 216.33,336.17 218.00,339.00 C219.67,341.83 223.00,344.00 224.00,345.00" fill="none" stroke="black" stroke-width="5.83" stroke-linecap="round" stroke-linejoin="round"/>
  <path d="M565.00,272.00 C568.83,270.33 580.17,264.67 588.00,262.00 C595.83,259.33 607.50,259.00 612.00,256.00 C616.50,253.00 614.50,249.17 615.00,244.00 C615.50,238.83 615.83,229.50 615.00,225.00 C614.17,220.50 613.50,221.00 610.00,217.00 C606.50,213.00 600.67,206.67 594.00,201.00 C587.33,195.33 576.50,186.67 570.00,183.00 C563.50,179.33 559.17,179.50 555.00,179.00 C550.83,178.50 546.67,179.83 545.00,180.00" fill="none" stroke="black" stroke-width="8.25" stroke-linecap="round" stroke-linejoin="round"/>
  <path d="M444.00,280.00 C440.67,284.50 428.67,301.83 424.00,307.00 C419.33,312.17 421.33,306.33 416.00,311.00 C410.67,315.67 400.17,332.33 392.00,335.00 C383.83,337.67 371.17,328.33 367.00,327.00" fill="none" stroke="black" stroke-width="24.05" stroke-linecap="round" stroke-linejoin="round"/>
  <path d="M605.00,284.00 C606.83,284.17 613.83,285.17 616.00,285.00 C618.17,284.83 618.17,286.50 618.00,283.00 C617.83,279.50 616.17,268.50 615.00,264.00 C613.83,259.50 611.67,257.33 611.00,256.00" fill="none" stroke="black" stroke-width="8.00" stroke-linecap="round" stroke-linejoin="round"/>
  <path d="M469.00,300.00 C468.67,300.50 469.50,301.67 467.00,303.00 C464.50,304.33 459.67,304.50 454.00,308.00 C448.33,311.50 440.67,317.17 433.00,324.00 C425.33,330.83 414.17,345.67 408.00,349.00 C401.83,352.33 398.83,346.00 396.00,344.00 C393.17,342.00 391.67,338.50 391.00,337.00 C390.33,335.50 392.17,335.33 392.00,335.00 C391.83,334.67 390.33,335.00 390.00,335.00" fill="none" stroke="black" stroke-width="22.00" stroke-linecap="round" stroke-linejoin="round"/>
  <path d="M473.00,317.00 C472.17,317.83 471.33,320.17 468.00,322.00 C464.67,323.83 457.50,325.17 453.00,328.00 C448.50,330.83 444.50,336.67 441.00,339.00 C437.50,341.33 436.33,338.83 432.00,342.00 C427.67,345.17 417.67,354.83 415.00,358.00 C412.33,361.17 413.33,358.17 416.00,361.00 C418.67,363.83 425.83,373.83 431.00,375.00 C436.17,376.17 441.83,371.00 447.00,368.00 C452.17,365.00 457.17,358.83 462.00,357.00 C466.83,355.17 469.00,354.00 476.00,357.00 C483.00,360.00 499.00,371.33 504.00,375.00 C509.00,378.67 505.67,378.33 506.00,379.00" fill="none" stroke="black" stroke-width="10.00" stroke-linecap="round" stroke-linejoin="round"/>
  <path d="M152.00,329.00 C153.33,329.17 157.67,330.67 160.00,330.00 C162.33,329.33 162.83,324.50 166.00,325.00 C169.17,325.50 174.17,330.67 179.00,333.00 C183.83,335.33 191.50,336.83 195.00,339.00 C198.50,341.17 200.67,343.67 200.00,346.00 C199.33,348.33 193.33,351.67 191.00,353.00 C188.67,354.33 186.83,353.83 186.00,354.00" fill="none" stroke="black" stroke-width="17.09" stroke-linecap="round" stroke-linejoin="round"/>
  <path d="M617.00,341.00 C619.33,340.83 628.00,342.00 631.00,340.00 C634.00,338.00 634.00,333.83 635.00,329.00 C636.00,324.17 637.17,316.33 637.00,311.00 C636.83,305.67 636.17,301.00 634.00,297.00 C631.83,293.00 626.83,289.17 624.00,287.00 C621.17,284.83 618.17,284.50 617.00,284.00" fill="none" stroke="black" stroke-width="8.00" stroke-linecap="round" stroke-linejoin="round"/>
  <path d="M340.00,363.00 C340.33,361.17 337.50,358.00 342.00,352.00 C346.50,346.00 364.50,332.17 367.00,327.00 C369.50,321.83 367.83,324.00 357.00,321.00 C346.17,318.00 311.17,311.00 302.00,309.00" fill="none" stroke="black" stroke-width="25.46" stroke-linecap="round" stroke-linejoin="round"/>
  <path d="M223.00,376.00 C225.00,375.50 231.00,375.33 235.00,373.00 C239.00,370.67 244.50,366.50 247.00,362.00 C249.50,357.50 249.50,348.67 250.00,346.00" fill="none" stroke="black" stroke-width="25.46" stroke-linecap="round" stroke-linejoin="round"/>
  <path d="M684.00,416.00 C682.33,416.67 678.83,418.83 674.00,420.00 C669.17,421.17 659.00,423.33 655.00,423.00 C651.00,422.67 655.00,419.67 650.00,418.00 C645.00,416.33 630.17,414.50 625.00,413.00 C619.83,411.50 624.50,406.00 619.00,409.00 C613.50,412.00 600.00,423.83 592.00,431.00 C584.00,438.17 576.83,446.83 571.00,452.00 C565.17,457.17 562.00,459.17 557.00,462.00 C552.00,464.83 543.67,467.83 541.00,469.00" fill="none" stroke="black" stroke-width="7.21" stroke-linecap="round" stroke-linejoin="round"/>
  <path d="M558.00,426.00 C562.17,422.00 578.33,406.83 583.00,402.00 C587.67,397.17 586.17,398.50 586.00,397.00 C585.83,395.50 588.17,394.83 582.00,393.00 C575.83,391.17 558.83,387.33 549.00,386.00 C539.17,384.67 529.00,386.17 523.00,385.00 C517.00,383.83 515.83,380.17 513.00,379.00 C510.17,377.83 507.83,377.00 506.00,378.00 C504.17,379.00 502.67,381.33 502.00,385.00 C501.33,388.67 502.67,395.17 502.00,400.00 C501.33,404.83 500.00,409.17 498.00,414.00 C496.00,418.83 493.00,424.67 490.00,429.00 C487.00,433.33 481.67,438.17 480.00,440.00" fill="none" stroke="black" stroke-width="8.37" stroke-linecap="round" stroke-linejoin="round"/>
  <path d="M416.00,436.00 C416.33,434.33 417.00,428.67 418.00,426.00 C419.00,423.33 421.33,422.00 422.00,420.00 C422.67,418.00 420.50,418.33 422.00,414.00 C423.50,409.67 429.17,399.17 431.00,394.00 C432.83,388.83 433.17,386.33 433.00,383.00 C432.83,379.67 430.17,375.50 430.00,374.00 C429.83,372.50 431.67,374.00 432.00,374.00" fill="none" stroke="black" stroke-width="7.61" stroke-linecap="round" stroke-linejoin="round"/>
  <path d="M265.00,469.00 C266.67,464.00 273.67,444.83 275.00,439.00 C276.33,433.17 274.83,436.17 273.00,434.00 C271.17,431.83 266.33,430.00 264.00,426.00 C261.67,422.00 261.00,413.83 259.00,410.00 C257.00,406.17 253.67,410.67 252.00,403.00 C250.33,395.33 250.00,370.83 249.00,364.00 C248.00,357.17 246.50,362.33 246.00,362.00" fill="none" stroke="black" stroke-width="14.00" stroke-linecap="round" stroke-linejoin="round"/>
  <path d="M402.00,486.00 C403.17,487.67 408.17,494.00 409.00,496.00 C409.83,498.00 411.17,498.00 407.00,498.00 C402.83,498.00 392.17,497.83 384.00,496.00 C375.83,494.17 366.00,489.33 358.00,487.00 C350.00,484.67 340.50,482.67 336.00,482.00 C331.50,481.33 336.50,486.00 331.00,483.00 C325.50,480.00 311.33,470.50 303.00,464.00 C294.67,457.50 285.83,447.50 281.00,444.00 C276.17,440.50 275.17,443.17 274.00,443.00" fill="none" stroke="black" stroke-width="10.77" stroke-linecap="round" stroke-linejoin="round"/>
  <path d="M525.00,519.00 C528.67,523.83 542.33,542.83 547.00,548.00 C551.67,553.17 551.17,550.50 553.00,550.00 C554.83,549.50 555.33,546.50 558.00,545.00 C560.67,543.50 566.33,542.33 569.00,541.00 C571.67,539.67 573.00,542.83 574.00,537.00 C575.00,531.17 574.00,513.33 575.00,506.00 C576.00,498.67 576.50,499.17 580.00,493.00 C583.50,486.83 593.50,474.33 596.00,469.00 C598.50,463.67 592.83,464.00 595.00,461.00 C597.17,458.00 603.00,454.00 609.00,451.00 C615.00,448.00 624.50,446.00 631.00,443.00 C637.50,440.00 644.00,436.33 648.00,433.00 C652.00,429.67 653.83,424.67 655.00,423.00" fill="none" stroke="black" stroke-width="6.32" stroke-linecap="round" stroke-linejoin="round"/>
  <path d="M336.00,553.00 C335.83,555.00 335.17,563.33 335.00,565.00 C334.83,566.67 337.67,563.33 335.00,563.00 C332.33,562.67 321.67,563.00 319.00,563.00" fill="none" stroke="black" stroke-width="12.17" stroke-linecap="round" stroke-linejoin="round"/>
  <path d="M166.00,670.00 C166.00,675.00 164.83,694.00 166.00,700.00 C167.17,706.00 170.50,706.00 173.00,706.00 C175.50,706.00 176.67,711.33 181.00,700.00 C185.33,688.67 190.00,665.17 199.00,638.00 C208.00,610.83 231.67,555.00 235.00,537.00 C238.33,519.00 226.50,532.33 219.00,530.00 C211.50,527.67 197.00,525.33 190.00,523.00 C183.00,520.67 182.83,519.83 177.00,516.00 C171.17,512.17 164.00,508.33 155.00,500.00 C146.00,491.67 130.83,476.50 123.00,466.00 C115.17,455.50 113.50,450.00 108.00,437.00 C102.50,424.00 98.17,401.83 90.00,388.00 C81.83,374.17 65.83,362.50 59.00,354.00 C52.17,345.50 51.33,342.83 49.00,337.00 C46.67,331.17 45.33,324.33 45.00,319.00 C44.67,313.67 47.00,310.00 47.00,305.00 C47.00,300.00 46.50,292.50 45.00,289.00 C43.50,285.50 41.33,285.17 38.00,284.00 C34.67,282.83 28.67,283.83 25.00,282.00 C21.33,280.17 18.00,276.67 16.00,273.00 C14.00,269.33 13.50,265.33 13.00,260.00 C12.50,254.67 12.67,244.67 13.00,241.00 C13.33,237.33 14.67,238.50 15.00,238.00" fill="none" stroke="black" stroke-width="8.49" stroke-linecap="round" stroke-linejoin="round"/>
  <path d="M231.00,803.00 C230.33,804.33 230.67,807.00 227.00,811.00 C223.33,815.00 213.33,823.83 209.00,827.00 C204.67,830.17 202.83,830.00 201.00,830.00 C199.17,830.00 198.67,828.67 198.00,827.00 C197.33,825.33 196.00,831.50 197.00,820.00 C198.00,808.50 201.83,769.33 204.00,758.00 C206.17,746.67 208.00,753.33 210.00,752.00 C212.00,750.67 214.83,750.00 216.00,750.00 C217.17,750.00 217.17,751.83 217.00,752.00 C216.83,752.17 215.33,755.00 215.00,751.00 C214.67,747.00 213.17,732.50 215.00,728.00 C216.83,723.50 222.67,726.33 226.00,724.00 C229.33,721.67 232.33,715.17 235.00,714.00 C237.67,712.83 240.83,712.50 242.00,717.00 C243.17,721.50 241.33,734.50 242.00,741.00 C242.67,747.50 247.00,750.83 246.00,756.00 C245.00,761.17 238.83,766.50 236.00,772.00 C233.17,777.50 230.33,784.83 229.00,789.00 C227.67,793.17 227.67,794.83 228.00,797.00 C228.33,799.17 229.00,801.50 231.00,802.00 C233.00,802.50 235.50,802.67 240.00,800.00 C244.50,797.33 253.67,790.00 258.00,786.00 C262.33,782.00 261.33,779.17 266.00,776.00 C270.67,772.83 281.67,769.17 286.00,767.00 C290.33,764.83 291.33,763.67 292.00,763.00 C292.67,762.33 290.17,763.33 290.00,763.00 C289.83,762.67 289.33,759.83 291.00,761.00 C292.67,762.17 293.33,768.00 300.00,770.00 C306.67,772.00 321.50,771.33 331.00,773.00 C340.50,774.67 351.50,778.83 357.00,780.00 C362.50,781.17 362.50,780.33 364.00,780.00 C365.50,779.67 366.00,780.83 366.00,778.00 C366.00,775.17 363.83,766.00 364.00,763.00 C364.17,760.00 362.33,760.33 367.00,760.00 C371.67,759.67 387.33,761.33 392.00,761.00 C396.67,760.67 394.33,759.50 395.00,758.00 C395.67,756.50 393.67,754.83 396.00,752.00 C398.33,749.17 406.83,743.50 409.00,741.00 C411.17,738.50 409.83,738.33 409.00,737.00 C408.17,735.67 409.17,733.83 404.00,733.00 C398.83,732.17 384.17,731.33 378.00,732.00 C371.83,732.67 370.50,736.50 367.00,737.00 C363.50,737.50 361.83,733.50 357.00,735.00 C352.17,736.50 343.00,743.83 338.00,746.00 C333.00,748.17 328.50,747.83 327.00,748.00 C325.50,748.17 328.33,749.00 329.00,747.00 C329.67,745.00 327.50,740.83 331.00,736.00 C334.50,731.17 347.67,722.33 350.00,718.00 C352.33,713.67 345.33,713.00 345.00,710.00 C344.67,707.00 347.50,701.67 348.00,700.00" fill="none" stroke="black" stroke-width="8.25" stroke-linecap="round" stroke-linejoin="round"/>
  <path d="M114.00,1755.00 C114.17,1753.83 115.50,1751.33 115.00,1748.00 C114.50,1744.67 112.67,1744.33 111.00,1735.00 C109.33,1725.67 106.83,1711.33 105.00,1692.00 C103.17,1672.67 101.67,1634.33 100.00,1619.00 C98.33,1603.67 97.17,1623.00 95.00,1600.00 C92.83,1577.00 88.83,1513.33 87.00,1481.00 C85.17,1448.67 84.50,1434.67 84.00,1406.00 C83.50,1377.33 83.50,1337.33 84.00,1309.00 C84.50,1280.67 84.67,1270.17 87.00,1236.00 C89.33,1201.83 95.33,1129.67 98.00,1104.00 C100.67,1078.33 102.17,1089.00 103.00,1082.00 C103.83,1075.00 102.17,1067.17 103.00,1062.00 C103.83,1056.83 106.83,1057.83 108.00,1051.00 C109.17,1044.17 108.83,1028.00 110.00,1021.00 C111.17,1014.00 114.00,1014.17 115.00,1009.00 C116.00,1003.83 114.50,1000.00 116.00,990.00 C117.50,980.00 120.17,963.00 124.00,949.00 C127.83,935.00 136.83,914.00 139.00,906.00 C141.17,898.00 137.00,906.33 137.00,901.00 C137.00,895.67 134.33,897.67 139.00,874.00 C143.67,850.33 159.33,787.00 165.00,759.00 C170.67,731.00 172.00,714.83 173.00,706.00 C174.00,697.17 171.33,706.00 171.00,706.00" fill="none" stroke="black" stroke-width="12.17" stroke-linecap="round" stroke-linejoin="round"/>
  <path d="M451.00,111.00 C452.50,112.00 456.17,112.17 460.00,117.00 C463.83,121.83 470.67,133.50 474.00,140.00 C477.33,146.50 478.50,150.17 480.00,156.00 C481.50,161.83 482.50,171.83 483.00,175.00" fill="none" stroke="black" stroke-width="12.00" stroke-linecap="round" stroke-linejoin="round"/>
  <path d="M139.00,302.00 C139.50,302.00 138.50,299.67 142.00,302.00 C145.50,304.33 155.83,312.00 160.00,316.00 C164.17,320.00 165.83,324.33 167.00,326.00" fill="none" stroke="black" stroke-width="12.81" stroke-linecap="round" stroke-linejoin="round"/>
  <path d="M266.00,324.00 C263.50,327.67 262.33,342.33 251.00,346.00 C239.67,349.67 206.83,346.00 198.00,346.00" fill="none" stroke="black" stroke-width="25.46" stroke-linecap="round" stroke-linejoin="round"/>
  <path d="M631.00,341.00 C631.00,343.00 631.67,350.50 631.00,353.00 C630.33,355.50 627.17,352.33 627.00,356.00 C626.83,359.67 630.83,368.33 630.00,375.00 C629.17,381.67 624.17,392.00 622.00,396.00 C619.83,400.00 617.50,397.83 617.00,399.00 C616.50,400.17 618.83,401.17 619.00,403.00 C619.17,404.83 618.17,408.83 618.00,410.00" fill="none" stroke="black" stroke-width="10.77" stroke-linecap="round" stroke-linejoin="round"/>
  <path d="M407.00,349.00 C407.50,350.00 408.50,353.33 410.00,355.00 C411.50,356.67 415.00,358.33 416.00,359.00" fill="none" stroke="black" stroke-width="25.46" stroke-linecap="round" stroke-linejoin="round"/>
  <path d="M586.00,397.00 C589.17,397.00 599.67,396.50 605.00,397.00 C610.33,397.50 615.83,399.50 618.00,400.00" fill="none" stroke="black" stroke-width="16.00" stroke-linecap="round" stroke-linejoin="round"/>
  <path d="M596.00,462.00 C594.17,462.17 594.00,458.33 585.00,463.00 C576.00,467.67 553.67,483.83 542.00,490.00 C530.33,496.17 524.33,498.00 515.00,500.00 C505.67,502.00 492.17,502.50 486.00,502.00 C479.83,501.50 491.00,497.83 478.00,497.00 C465.00,496.17 419.67,497.00 408.00,497.00" fill="none" stroke="black" stroke-width="8.25" stroke-linecap="round" stroke-linejoin="round"/>
  <path d="M332.00,482.00 C331.83,483.00 329.00,481.67 331.00,488.00 C333.00,494.33 340.33,509.50 344.00,520.00 C347.67,530.50 351.33,542.33 353.00,551.00 C354.67,559.67 354.17,568.00 354.00,572.00 C353.83,576.00 352.33,574.50 352.00,575.00" fill="none" stroke="black" stroke-width="10.00" stroke-linecap="round" stroke-linejoin="round"/>
  <path d="M414.00,498.00 C414.33,498.00 415.83,497.33 416.00,498.00 C416.17,498.67 414.67,500.17 415.00,502.00 C415.33,503.83 412.83,502.83 418.00,509.00 C423.17,515.17 436.83,530.50 446.00,539.00 C455.17,547.50 465.17,554.83 473.00,560.00 C480.83,565.17 487.83,568.00 493.00,570.00 C498.17,572.00 495.00,571.83 504.00,572.00 C513.00,572.17 538.50,572.33 547.00,571.00 C555.50,569.67 554.00,567.33 555.00,564.00 C556.00,560.67 553.33,553.17 553.00,551.00" fill="none" stroke="black" stroke-width="6.00" stroke-linecap="round" stroke-linejoin="round"/>
  <path d="M235.00,537.00 C238.00,537.17 242.83,535.67 253.00,538.00 C263.17,540.33 286.00,547.67 296.00,551.00 C306.00,554.33 309.17,556.00 313.00,558.00 C316.83,560.00 318.50,561.33 319.00,563.00 C319.50,564.67 317.00,564.17 316.00,568.00 C315.00,571.83 314.50,581.17 313.00,586.00 C311.50,590.83 308.00,593.50 307.00,597.00 C306.00,600.50 306.00,604.67 307.00,607.00 C308.00,609.33 308.33,610.50 313.00,611.00 C317.67,611.50 329.83,611.17 335.00,610.00 C340.17,608.83 341.50,606.33 344.00,604.00 C346.50,601.67 348.67,600.83 350.00,596.00 C351.33,591.17 353.17,579.00 352.00,575.00 C350.83,571.00 345.83,573.67 343.00,572.00 C340.17,570.33 336.33,566.17 335.00,565.00" fill="none" stroke="black" stroke-width="10.00" stroke-linecap="round" stroke-linejoin="round"/>
  <path d="M316.00,735.00 C317.00,733.67 320.17,730.83 322.00,727.00 C323.83,723.17 325.83,722.33 327.00,712.00 C328.17,701.67 327.17,675.33 329.00,665.00 C330.83,654.67 335.00,652.83 338.00,650.00 C341.00,647.17 345.00,647.83 347.00,648.00 C349.00,648.17 348.83,647.83 350.00,651.00 C351.17,654.17 353.33,663.33 354.00,667.00 C354.67,670.67 355.00,669.67 354.00,673.00 C353.00,676.33 349.00,682.50 348.00,687.00 C347.00,691.50 346.50,698.50 348.00,700.00 C349.50,701.50 351.17,701.67 357.00,696.00 C362.83,690.33 376.67,670.67 383.00,666.00 C389.33,661.33 390.50,669.83 395.00,668.00 C399.50,666.17 406.00,657.17 410.00,655.00 C414.00,652.83 416.50,654.17 419.00,655.00 C421.50,655.83 423.83,657.50 425.00,660.00 C426.17,662.50 428.83,666.17 426.00,670.00 C423.17,673.83 411.00,679.17 408.00,683.00 C405.00,686.83 408.50,690.67 408.00,693.00 C407.50,695.33 410.33,695.00 405.00,697.00 C399.67,699.00 385.33,701.50 376.00,705.00 C366.67,708.50 353.50,715.83 349.00,718.00" fill="none" stroke="black" stroke-width="8.00" stroke-linecap="round" stroke-linejoin="round"/>
  <path d="M308.00,731.00 C309.33,731.67 315.00,733.50 316.00,735.00 C317.00,736.50 316.17,737.00 314.00,740.00 C311.83,743.00 306.83,749.50 303.00,753.00 C299.17,756.50 293.67,760.33 291.00,761.00 C288.33,761.67 287.50,759.50 287.00,757.00 C286.50,754.50 284.50,750.33 288.00,746.00 C291.50,741.67 304.67,734.50 308.00,731.00 C311.33,727.50 308.67,726.83 308.00,725.00 C307.33,723.17 304.67,722.33 304.00,720.00 C303.33,717.67 303.33,714.50 304.00,711.00 C304.67,707.50 307.33,703.17 308.00,699.00 C308.67,694.83 308.83,688.50 308.00,686.00 C307.17,683.50 305.00,683.67 303.00,684.00 C301.00,684.33 298.83,684.67 296.00,688.00 C293.17,691.33 289.67,701.00 286.00,704.00 C282.33,707.00 276.83,704.67 274.00,706.00 C271.17,707.33 269.83,707.17 269.00,712.00 C268.17,716.83 270.17,730.17 269.00,735.00 C267.83,739.83 263.33,739.33 262.00,741.00 C260.67,742.67 261.00,740.00 261.00,745.00 C261.00,750.00 261.33,765.67 262.00,771.00 C262.67,776.33 264.50,776.00 265.00,777.00" fill="none" stroke="black" stroke-width="8.00" stroke-linecap="round" stroke-linejoin="round"/>
  <path d="M201.00,830.00 C200.67,832.17 198.83,840.50 199.00,843.00 C199.17,845.50 200.00,844.67 202.00,845.00 C204.00,845.33 206.50,846.00 211.00,845.00 C215.50,844.00 222.83,840.00 229.00,839.00 C235.17,838.00 242.33,839.83 248.00,839.00 C253.67,838.17 258.50,834.83 263.00,834.00 C267.50,833.17 272.33,833.33 275.00,834.00 C277.67,834.67 275.17,837.50 279.00,838.00 C282.83,838.50 293.67,836.00 298.00,837.00 C302.33,838.00 300.67,842.33 305.00,844.00 C309.33,845.67 320.50,845.67 324.00,847.00 C327.50,848.33 326.33,850.17 326.00,852.00 C325.67,853.83 325.83,856.17 322.00,858.00 C318.17,859.83 306.83,861.33 303.00,863.00 C299.17,864.67 303.33,867.17 299.00,868.00 C294.67,868.83 281.33,867.50 277.00,868.00 C272.67,868.50 275.50,870.83 273.00,871.00 C270.50,871.17 266.50,870.67 262.00,869.00 C257.50,867.33 249.33,862.33 246.00,861.00 C242.67,859.67 243.00,860.50 242.00,861.00 C241.00,861.50 242.00,863.50 240.00,864.00 C238.00,864.50 234.67,864.50 230.00,864.00 C225.33,863.50 218.17,861.50 212.00,861.00 C205.83,860.50 196.83,861.67 193.00,861.00 C189.17,860.33 189.67,857.67 189.00,857.00" fill="none" stroke="black" stroke-width="8.00" stroke-linecap="round" stroke-linejoin="round"/>
  <path d="M199.00,843.00 C197.67,844.00 192.67,846.67 191.00,849.00 C189.33,851.33 191.67,854.50 189.00,857.00 C186.33,859.50 180.67,857.83 175.00,864.00 C169.33,870.17 161.00,887.33 155.00,894.00 C149.00,900.67 141.67,902.33 139.00,904.00" fill="none" stroke="black" stroke-width="14.14" stroke-linecap="round" stroke-linejoin="round"/>
</svg>
