<?xml version="1.0" encoding="UTF-8"?>
<svg xmlns="http://www.w3.org/2000/svg" viewBox="0 0 711 1779" width="711" height="1779">
  <path d="M349.00,103.00 C347.83,99.83 345.00,90.17 342.00,84.00 C339.00,77.83 337.00,72.83 331.00,66.00 C325.00,59.17 310.50,47.67 306.00,43.00 C301.50,38.33 303.83,39.33 304.00,38.00 C304.17,36.67 300.00,37.33 307.00,35.00 C314.00,32.67 335.33,26.50 346.00,24.00 C356.67,21.50 361.17,20.67 371.00,20.00 C380.83,19.33 395.83,18.83 405.00,20.00 C414.17,21.17 422.50,25.83 426.00,27.00" fill="none" stroke="black" stroke-width="6.00" stroke-linecap="round" stroke-linejoin="round"/>
  <path d="M452.00,179.00 C452.17,173.17 453.33,156.17 453.00,144.00 C452.67,131.83 451.67,117.50 450.00,106.00 C448.33,94.50 446.83,86.50 443.00,75.00 C439.17,63.50 430.00,45.00 427.00,37.00 C424.00,29.00 421.33,28.17 425.00,27.00 C428.67,25.83 435.17,26.67 449.00,30.00 C462.83,33.33 497.00,42.83 508.00,47.00 C519.00,51.17 513.50,51.00 515.00,55.00 C516.50,59.00 516.67,68.33 517.00,71.00" fill="none" stroke="black" stroke-width="8.00" stroke-linecap="round" stroke-linejoin="round"/>
  <path d="M585.00,181.00 C585.17,175.00 586.17,153.50 586.00,145.00 C585.83,136.50 586.00,136.17 584.00,130.00 C582.00,123.83 577.17,113.33 574.00,108.00 C570.83,102.67 569.33,101.67 565.00,98.00 C560.67,94.33 553.50,89.00 548.00,86.00 C542.50,83.00 537.17,82.50 532.00,80.00 C526.83,77.50 519.83,72.33 517.00,71.00 C514.17,69.67 515.67,70.83 515.00,72.00 C514.33,73.17 512.00,70.17 513.00,78.00 C514.00,85.83 519.50,103.17 521.00,119.00 C522.50,134.83 522.67,158.50 522.00,173.00 C521.33,187.50 518.83,197.50 517.00,206.00 C515.17,214.50 512.00,221.00 511.00,224.00" fill="none" stroke="black" stroke-width="6.32" stroke-linecap="round" stroke-linejoin="round"/>
  <path d="M581.00,188.00 C581.17,193.83 581.00,216.00 582.00,223.00 C583.00,230.00 582.50,232.50 587.00,230.00 C591.50,227.50 602.83,212.67 609.00,208.00 C615.17,203.33 618.50,203.00 624.00,202.00 C629.50,201.00 635.33,200.00 642.00,202.00 C648.67,204.00 656.33,207.83 664.00,214.00 C671.67,220.17 683.83,233.83 688.00,239.00 C692.17,244.17 689.33,243.67 689.00,245.00 C688.67,246.33 689.17,246.67 686.00,247.00 C682.83,247.33 672.67,247.00 670.00,247.00" fill="none" stroke="black" stroke-width="8.00" stroke-linecap="round" stroke-linejoin="round"/>
  <path d="M192.00,213.00 C187.17,209.50 168.67,196.67 163.00,192.00 C157.33,187.33 161.67,186.00 158.00,185.00 C154.33,184.00 145.17,185.33 141.00,186.00 C136.83,186.67 138.50,185.33 133.00,189.00 C127.50,192.67 115.17,201.67 108.00,208.00 C100.83,214.33 93.50,221.83 90.00,227.00 C86.50,232.17 86.83,234.00 87.00,239.00 C87.17,244.00 90.50,253.00 91.00,257.00 C91.50,261.00 89.83,262.17 90.00,263.00 C90.17,263.83 91.67,262.17 92.00,262.00" fill="none" stroke="black" stroke-width="8.49" stroke-linecap="round" stroke-linejoin="round"/>
  <path d="M304.00,219.00 C299.00,210.17 281.17,181.67 274.00,166.00 C266.83,150.33 264.83,133.17 261.00,125.00 C257.17,116.83 251.83,122.67 251.00,117.00 C250.17,111.33 254.17,97.17 256.00,91.00 C257.83,84.83 257.33,86.33 262.00,80.00 C266.67,73.67 278.33,59.50 284.00,53.00 C289.67,46.50 292.83,43.33 296.00,41.00 C299.17,38.67 301.83,39.33 303.00,39.00" fill="none" stroke="black" stroke-width="8.00" stroke-linecap="round" stroke-linejoin="round"/>
  <path d="M524.00,263.00 C522.00,266.00 518.33,273.17 512.00,281.00 C505.67,288.83 491.83,304.50 486.00,310.00 C480.17,315.50 482.50,313.50 477.00,314.00 C471.50,314.50 459.67,310.50 453.00,313.00 C446.33,315.50 443.50,327.17 437.00,329.00 C430.50,330.83 420.00,326.17 414.00,324.00 C408.00,321.83 407.83,316.67 401.00,316.00 C394.17,315.33 383.17,317.83 373.00,320.00 C362.83,322.17 346.33,326.83 340.00,329.00 C333.67,331.17 331.50,328.00 335.00,333.00 C338.50,338.00 356.33,352.83 361.00,359.00 C365.67,365.17 362.67,368.17 363.00,370.00" fill="none" stroke="black" stroke-width="25.46" stroke-linecap="round" stroke-linejoin="round"/>
  <path d="M401.00,265.00 C400.17,268.50 398.00,280.17 396.00,286.00 C394.00,291.83 390.17,296.50 389.00,300.00 C387.83,303.50 387.67,304.50 389.00,307.00 C390.33,309.50 395.67,313.67 397.00,315.00" fill="none" stroke="black" stroke-width="25.46" stroke-linecap="round" stroke-linejoin="round"/>
  <path d="M437.00,276.00 C436.83,276.67 442.00,273.50 436.00,280.00 C430.00,286.50 406.83,309.17 401.00,315.00" fill="none" stroke="black" stroke-width="25.46" stroke-linecap="round" stroke-linejoin="round"/>
  <path d="M137.00,277.00 C129.33,274.33 99.83,258.83 91.00,261.00 C82.17,263.17 84.83,285.17 84.00,290.00 C83.17,294.83 85.67,290.00 86.00,290.00" fill="none" stroke="black" stroke-width="6.00" stroke-linecap="round" stroke-linejoin="round"/>
  <path d="M553.00,277.00 C549.67,279.00 543.83,279.33 533.00,289.00 C522.17,298.67 496.00,325.67 488.00,335.00 C480.00,344.33 486.50,342.33 485.00,345.00 C483.50,347.67 480.00,350.00 479.00,351.00" fill="none" stroke="black" stroke-width="5.66" stroke-linecap="round" stroke-linejoin="round"/>
  <path d="M281.00,280.00 C276.33,275.50 260.17,260.67 253.00,253.00 C245.83,245.33 241.67,239.83 238.00,234.00 C234.33,228.17 233.33,225.33 231.00,218.00 C228.67,210.67 226.17,196.33 224.00,190.00 C221.83,183.67 218.67,181.83 218.00,180.00 C217.33,178.17 219.33,181.67 220.00,179.00 C220.67,176.33 220.17,170.17 222.00,164.00 C223.83,157.83 227.17,149.33 231.00,142.00 C234.83,134.67 241.67,124.33 245.00,120.00 C248.33,115.67 250.00,116.67 251.00,116.00" fill="none" stroke="black" stroke-width="8.37" stroke-linecap="round" stroke-linejoin="round"/>
  <path d="M259.00,287.00 C260.50,288.50 265.50,292.67 268.00,296.00 C270.50,299.33 271.50,303.67 274.00,307.00 C276.50,310.33 280.67,314.33 283.00,316.00 C285.33,317.67 283.17,312.67 288.00,317.00 C292.83,321.33 308.00,337.83 312.00,342.00" fill="none" stroke="black" stroke-width="7.21" stroke-linecap="round" stroke-linejoin="round"/>
  <path d="M98.00,290.00 C96.17,290.17 89.17,291.17 87.00,291.00 C84.83,290.83 86.33,288.67 85.00,289.00 C83.67,289.33 81.67,290.67 79.00,293.00 C76.33,295.33 71.33,299.67 69.00,303.00 C66.67,306.33 65.33,307.83 65.00,313.00 C64.67,318.17 65.83,328.50 67.00,334.00 C68.17,339.50 68.83,343.83 72.00,346.00 C75.17,348.17 83.67,346.83 86.00,347.00" fill="none" stroke="black" stroke-width="8.00" stroke-linecap="round" stroke-linejoin="round"/>
  <path d="M608.00,292.00 C602.67,294.50 583.33,304.50 576.00,307.00 C568.67,309.50 565.67,308.83 564.00,307.00 C562.33,305.17 563.00,303.83 566.00,296.00 C569.00,288.17 578.33,271.17 582.00,260.00 C585.67,248.83 587.00,234.17 588.00,229.00" fill="none" stroke="black" stroke-width="8.94" stroke-linecap="round" stroke-linejoin="round"/>
  <path d="M234.00,306.00 C234.33,306.50 233.50,307.67 236.00,309.00 C238.50,310.33 243.33,310.50 249.00,314.00 C254.67,317.50 262.33,323.17 270.00,330.00 C277.67,336.83 288.83,351.67 295.00,355.00 C301.17,358.33 303.33,352.83 307.00,350.00 C310.67,347.17 313.50,340.67 317.00,338.00 C320.50,335.33 324.83,334.67 328.00,334.00 C331.17,333.33 334.67,334.00 336.00,334.00" fill="none" stroke="black" stroke-width="25.46" stroke-linecap="round" stroke-linejoin="round"/>
  <path d="M230.00,324.00 C231.50,325.00 236.17,328.67 239.00,330.00 C241.83,331.33 243.00,329.33 247.00,332.00 C251.00,334.67 259.17,343.33 263.00,346.00 C266.83,348.67 265.83,344.83 270.00,348.00 C274.17,351.17 287.50,359.67 288.00,365.00 C288.50,370.33 275.50,377.50 273.00,380.00" fill="none" stroke="black" stroke-width="14.83" stroke-linecap="round" stroke-linejoin="round"/>
  <path d="M551.00,335.00 C549.00,335.00 541.50,335.67 539.00,335.00 C536.50,334.33 535.33,333.17 536.00,331.00 C536.67,328.83 538.50,326.00 543.00,322.00 C547.50,318.00 559.67,309.50 563.00,307.00" fill="none" stroke="black" stroke-width="12.65" stroke-linecap="round" stroke-linejoin="round"/>
  <path d="M516.00,359.00 C515.00,358.83 512.17,359.17 510.00,358.00 C507.83,356.83 503.83,353.67 503.00,352.00 C502.17,350.33 499.50,351.50 505.00,348.00 C510.50,344.50 530.83,333.83 536.00,331.00" fill="none" stroke="black" stroke-width="18.00" stroke-linecap="round" stroke-linejoin="round"/>
  <path d="M480.00,382.00 C478.00,381.50 472.17,381.33 468.00,379.00 C463.83,376.67 457.00,370.67 455.00,368.00 C453.00,365.33 456.50,365.50 456.00,363.00 C455.50,360.50 444.17,354.83 452.00,353.00 C459.83,351.17 494.50,352.17 503.00,352.00" fill="none" stroke="black" stroke-width="25.46" stroke-linecap="round" stroke-linejoin="round"/>
  <path d="M20.00,422.00 C24.67,423.33 42.50,429.67 48.00,430.00 C53.50,430.33 48.00,425.83 53.00,424.00 C58.00,422.17 72.83,420.50 78.00,419.00 C83.17,417.50 73.67,407.50 84.00,415.00 C94.33,422.50 127.17,454.17 140.00,464.00 C152.83,473.83 157.50,472.33 161.00,474.00" fill="none" stroke="black" stroke-width="8.00" stroke-linecap="round" stroke-linejoin="round"/>
  <path d="M146.00,433.00 C141.00,428.00 118.83,409.17 116.00,403.00 C113.17,396.83 120.00,398.17 129.00,396.00 C138.00,393.83 161.50,390.83 170.00,390.00 C178.50,389.17 177.50,391.50 180.00,391.00 C182.50,390.50 182.33,388.00 185.00,387.00 C187.67,386.00 193.67,386.00 196.00,385.00 C198.33,384.00 193.83,384.67 199.00,381.00 C204.17,377.33 220.83,366.17 227.00,363.00 C233.17,359.83 232.67,361.50 236.00,362.00 C239.33,362.50 243.17,363.67 247.00,366.00 C250.83,368.33 254.83,373.67 259.00,376.00 C263.17,378.33 270.17,377.50 272.00,380.00 C273.83,382.50 269.83,386.67 270.00,391.00 C270.17,395.33 271.33,401.33 273.00,406.00 C274.67,410.67 278.83,415.83 280.00,419.00 C281.17,422.17 279.00,422.17 280.00,425.00 C281.00,427.83 285.00,433.17 286.00,436.00 C287.00,438.83 286.00,441.00 286.00,442.00" fill="none" stroke="black" stroke-width="10.00" stroke-linecap="round" stroke-linejoin="round"/>
  <path d="M222.00,445.00 C220.33,443.17 215.00,438.33 212.00,434.00 C209.00,429.67 206.00,423.83 204.00,419.00 C202.00,414.17 200.67,410.00 200.00,405.00 C199.33,400.00 200.67,392.33 200.00,389.00 C199.33,385.67 196.67,385.67 196.00,385.00" fill="none" stroke="black" stroke-width="5.66" stroke-linecap="round" stroke-linejoin="round"/>
  <path d="M437.00,475.00 C436.00,471.33 432.83,457.33 431.00,453.00 C429.17,448.67 426.50,449.67 426.00,449.00 C425.50,448.33 427.67,449.00 428.00,449.00" fill="none" stroke="black" stroke-width="7.21" stroke-linecap="round" stroke-linejoin="round"/>
  <path d="M301.00,491.00 C300.00,493.00 297.00,500.83 295.00,503.00 C293.00,505.17 290.00,503.83 289.00,504.00" fill="none" stroke="black" stroke-width="13.42" stroke-linecap="round" stroke-linejoin="round"/>
  <path d="M178.00,524.00 C174.33,529.00 160.83,548.50 156.00,554.00 C151.17,559.50 150.83,557.50 149.00,557.00 C147.17,556.50 147.50,552.67 145.00,551.00 C142.50,549.33 136.67,548.50 134.00,547.00 C131.33,545.50 130.00,547.83 129.00,542.00 C128.00,536.17 129.17,519.33 128.00,512.00 C126.83,504.67 125.33,503.83 122.00,498.00 C118.67,492.17 110.33,482.17 108.00,477.00 C105.67,471.83 110.33,470.33 108.00,467.00 C105.67,463.67 101.50,460.83 94.00,457.00 C86.50,453.17 69.50,447.00 63.00,444.00 C56.50,441.00 57.67,441.50 55.00,439.00 C52.33,436.50 48.33,430.67 47.00,429.00" fill="none" stroke="black" stroke-width="6.77" stroke-linecap="round" stroke-linejoin="round"/>
  <path d="M367.00,559.00 C367.33,560.83 366.00,568.33 369.00,570.00 C372.00,571.67 381.50,570.00 385.00,569.00 C388.50,568.00 386.33,566.00 390.00,564.00 C393.67,562.00 397.00,560.33 407.00,557.00 C417.00,553.67 439.83,546.17 450.00,544.00 C460.17,541.83 464.33,544.67 468.00,544.00 C471.67,543.33 464.50,542.50 472.00,540.00 C479.50,537.50 500.33,534.67 513.00,529.00 C525.67,523.33 536.67,515.83 548.00,506.00 C559.33,496.17 573.83,479.00 581.00,470.00 C588.17,461.00 585.83,464.50 591.00,452.00 C596.17,439.50 603.33,410.17 612.00,395.00 C620.67,379.83 636.17,369.50 643.00,361.00 C649.83,352.50 650.67,349.50 653.00,344.00 C655.33,338.50 656.67,335.33 657.00,328.00 C657.33,320.67 654.33,306.00 655.00,300.00 C655.67,294.00 657.17,294.00 661.00,292.00 C664.83,290.00 673.83,290.00 678.00,288.00 C682.17,286.00 684.00,285.00 686.00,280.00 C688.00,275.00 689.50,263.83 690.00,258.00 C690.50,252.17 689.17,247.17 689.00,245.00" fill="none" stroke="black" stroke-width="8.00" stroke-linecap="round" stroke-linejoin="round"/>
  <path d="M537.00,676.00 C537.00,680.83 538.33,699.00 537.00,705.00 C535.67,711.00 531.83,712.50 529.00,712.00 C526.17,711.50 524.17,713.17 520.00,702.00 C515.83,690.83 512.67,671.50 504.00,645.00 C495.33,618.50 474.00,560.00 468.00,543.00" fill="none" stroke="black" stroke-width="10.77" stroke-linecap="round" stroke-linejoin="round"/>
  <path d="M396.00,738.00 C395.67,738.00 393.50,740.17 394.00,738.00 C394.50,735.83 398.17,728.17 399.00,725.00 C399.83,721.83 399.83,724.33 399.00,719.00 C398.17,713.67 393.83,697.83 394.00,693.00 C394.17,688.17 397.83,689.83 400.00,690.00 C402.17,690.17 404.17,690.67 407.00,694.00 C409.83,697.33 413.33,707.00 417.00,710.00 C420.67,713.00 426.33,710.83 429.00,712.00 C431.67,713.17 432.33,712.67 433.00,717.00 C433.67,721.33 431.67,733.00 433.00,738.00 C434.33,743.00 439.83,740.17 441.00,747.00 C442.17,753.83 440.50,773.17 440.00,779.00 C439.50,784.83 439.83,781.83 438.00,782.00 C436.17,782.17 433.50,782.17 429.00,780.00 C424.50,777.83 415.33,769.67 411.00,769.00 C406.67,768.33 408.50,774.50 403.00,776.00 C397.50,777.50 388.67,776.33 378.00,778.00 C367.33,779.67 345.83,785.00 339.00,786.00 C332.17,787.00 337.00,786.83 337.00,784.00 C337.00,781.17 339.17,772.00 339.00,769.00 C338.83,766.00 340.67,766.33 336.00,766.00 C331.33,765.67 316.00,768.50 311.00,767.00 C306.00,765.50 308.67,760.00 306.00,757.00 C303.33,754.00 297.00,751.33 295.00,749.00 C293.00,746.67 293.33,744.67 294.00,743.00 C294.67,741.33 293.83,739.83 299.00,739.00 C304.17,738.17 318.50,737.00 325.00,738.00 C331.50,739.00 336.17,744.17 338.00,745.00 C339.83,745.83 335.50,743.67 336.00,743.00 C336.50,742.33 338.67,741.17 341.00,741.00 C343.33,740.83 346.00,740.17 350.00,742.00 C354.00,743.83 360.83,750.17 365.00,752.00 C369.17,753.83 373.67,754.33 375.00,753.00 C376.33,751.67 376.67,748.83 373.00,744.00 C369.33,739.17 355.50,728.50 353.00,724.00 C350.50,719.50 357.67,720.17 358.00,717.00 C358.33,713.83 357.00,707.50 355.00,705.00 C353.00,702.50 351.83,707.50 346.00,702.00 C340.17,696.50 326.33,676.67 320.00,672.00 C313.67,667.33 312.50,675.83 308.00,674.00 C303.50,672.17 297.00,663.17 293.00,661.00 C289.00,658.83 286.67,660.00 284.00,661.00 C281.33,662.00 278.33,664.67 277.00,667.00 C275.67,669.33 273.17,671.50 276.00,675.00 C278.83,678.50 290.83,683.83 294.00,688.00 C297.17,692.17 294.33,697.50 295.00,700.00 C295.67,702.50 292.67,701.17 298.00,703.00 C303.33,704.83 317.83,707.50 327.00,711.00 C336.17,714.50 348.67,721.83 353.00,724.00" fill="none" stroke="black" stroke-width="8.00" stroke-linecap="round" stroke-linejoin="round"/>
  <path d="M438.00,783.00 C439.33,784.67 442.33,789.50 446.00,793.00 C449.67,796.50 456.17,801.50 460.00,804.00 C463.83,806.50 466.83,807.50 469.00,808.00 C471.17,808.50 472.17,808.67 473.00,807.00 C473.83,805.33 474.33,801.17 474.00,798.00 C473.67,794.83 473.83,793.67 471.00,788.00 C468.17,782.33 459.33,769.50 457.00,764.00 C454.67,758.50 456.33,758.00 457.00,755.00 C457.67,752.00 460.33,751.33 461.00,746.00 C461.67,740.67 459.83,727.33 461.00,723.00 C462.17,718.67 465.50,718.83 468.00,720.00 C470.50,721.17 473.00,728.00 476.00,730.00 C479.00,732.00 484.00,731.17 486.00,732.00 C488.00,732.83 487.67,732.50 488.00,735.00 C488.33,737.50 488.50,743.00 488.00,747.00 C487.50,751.00 485.17,757.50 485.00,759.00 C484.83,760.50 486.83,756.17 487.00,756.00 C487.17,755.83 485.00,757.67 486.00,758.00 C487.00,758.33 491.00,757.17 493.00,758.00 C495.00,758.83 496.83,761.17 498.00,763.00 C499.17,764.83 498.83,760.17 500.00,769.00 C501.17,777.83 504.17,805.50 505.00,816.00 C505.83,826.50 505.50,828.67 505.00,832.00 C504.50,835.33 502.50,835.33 502.00,836.00" fill="none" stroke="black" stroke-width="8.00" stroke-linecap="round" stroke-linejoin="round"/>
  <path d="M589.00,1762.00 C588.83,1760.67 586.67,1763.83 588.00,1754.00 C589.33,1744.17 594.50,1724.67 597.00,1703.00 C599.50,1681.33 601.17,1640.50 603.00,1624.00 C604.83,1607.50 607.17,1611.50 608.00,1604.00 C608.83,1596.50 606.83,1597.67 608.00,1579.00 C609.17,1560.33 613.33,1518.33 615.00,1492.00 C616.67,1465.67 617.50,1451.50 618.00,1421.00 C618.50,1390.50 618.50,1334.50 618.00,1309.00 C617.50,1283.50 615.50,1282.17 615.00,1268.00 C614.50,1253.83 616.83,1250.67 615.00,1224.00 C613.17,1197.33 606.67,1131.50 604.00,1108.00 C601.33,1084.50 599.83,1090.17 599.00,1083.00 C598.17,1075.83 599.83,1069.50 599.00,1065.00 C598.17,1060.50 594.83,1060.50 594.00,1056.00 C593.17,1051.50 595.17,1045.67 594.00,1038.00 C592.83,1030.33 588.50,1018.50 587.00,1010.00 C585.50,1001.50 586.50,996.50 585.00,987.00 C583.50,977.50 581.67,966.00 578.00,953.00 C574.33,940.00 565.00,916.83 563.00,909.00 C561.00,901.17 565.83,910.67 566.00,906.00 C566.17,901.33 569.00,905.83 564.00,881.00 C559.00,856.17 541.67,785.17 536.00,757.00 C530.33,728.83 531.00,719.50 530.00,712.00" fill="none" stroke="black" stroke-width="12.17" stroke-linecap="round" stroke-linejoin="round"/>
  <path d="M157.00,186.00 C158.17,184.83 159.17,180.50 164.00,179.00 C168.83,177.50 178.50,177.17 186.00,177.00 C193.50,176.83 203.50,177.33 209.00,178.00 C214.50,178.67 217.33,180.50 219.00,181.00" fill="none" stroke="black" stroke-width="8.00" stroke-linecap="round" stroke-linejoin="round"/>
  <path d="M436.00,329.00 L453.00,352.00" fill="none" stroke="black" stroke-width="25.46" stroke-linecap="round" stroke-linejoin="round"/>
  <path d="M72.00,347.00 C72.00,349.17 71.33,357.50 72.00,360.00 C72.67,362.50 75.67,361.67 76.00,362.00 C76.33,362.33 74.67,359.17 74.00,362.00 C73.33,364.83 72.00,374.50 72.00,379.00 C72.00,383.50 72.50,385.17 74.00,389.00 C75.50,392.83 79.17,399.33 81.00,402.00 C82.83,404.67 82.17,404.83 85.00,405.00 C87.83,405.17 92.67,403.17 98.00,403.00 C103.33,402.83 113.83,403.83 117.00,404.00" fill="none" stroke="black" stroke-width="12.00" stroke-linecap="round" stroke-linejoin="round"/>
  <path d="M295.00,355.00 L287.00,366.00" fill="none" stroke="black" stroke-width="25.46" stroke-linecap="round" stroke-linejoin="round"/>
  <path d="M372.00,488.00 C376.00,485.50 388.00,479.17 396.00,473.00 C404.00,466.83 415.00,455.00 420.00,451.00 C425.00,447.00 424.33,451.00 426.00,449.00 C427.67,447.00 428.00,441.67 430.00,439.00 C432.00,436.33 435.83,436.67 438.00,433.00 C440.17,429.33 440.83,421.17 443.00,417.00 C445.17,412.83 449.17,416.00 451.00,408.00 C452.83,400.00 453.00,375.67 454.00,369.00 C455.00,362.33 456.50,368.17 457.00,368.00" fill="none" stroke="black" stroke-width="14.00" stroke-linecap="round" stroke-linejoin="round"/>
  <path d="M86.00,405.00 C85.50,406.83 83.17,414.17 83.00,416.00 C82.83,417.83 84.67,416.00 85.00,416.00" fill="none" stroke="black" stroke-width="16.49" stroke-linecap="round" stroke-linejoin="round"/>
  <path d="M107.00,468.00 C108.83,468.17 110.17,465.00 118.00,469.00 C125.83,473.00 142.33,485.83 154.00,492.00 C165.67,498.17 177.50,503.33 188.00,506.00 C198.50,508.67 210.83,508.50 217.00,508.00 C223.17,507.50 213.00,503.67 225.00,503.00 C237.00,502.33 279.17,501.83 289.00,504.00 C298.83,506.17 289.33,509.17 284.00,516.00 C278.67,522.83 266.00,536.67 257.00,545.00 C248.00,553.33 237.83,560.83 230.00,566.00 C222.17,571.17 215.17,574.00 210.00,576.00 C204.83,578.00 208.00,577.83 199.00,578.00 C190.00,578.17 164.50,578.50 156.00,577.00 C147.50,575.50 149.00,572.50 148.00,569.00 C147.00,565.50 149.67,558.17 150.00,556.00" fill="none" stroke="black" stroke-width="8.00" stroke-linecap="round" stroke-linejoin="round"/>
  <path d="M295.00,503.00 C299.00,502.83 310.67,503.67 319.00,502.00 C327.33,500.33 336.00,495.33 345.00,493.00 C354.00,490.67 371.83,479.17 373.00,488.00 C374.17,496.83 356.17,532.67 352.00,546.00 C347.83,559.33 348.50,562.50 348.00,568.00 C347.50,573.50 347.00,577.33 349.00,579.00 C351.00,580.67 356.67,579.50 360.00,578.00 C363.33,576.50 367.50,571.33 369.00,570.00" fill="none" stroke="black" stroke-width="8.25" stroke-linecap="round" stroke-linejoin="round"/>
  <path d="M385.00,570.00 C385.33,572.50 385.17,578.67 387.00,585.00 C388.83,591.33 394.67,603.17 396.00,608.00 C397.33,612.83 396.00,612.50 395.00,614.00 C394.00,615.50 393.83,616.50 390.00,617.00 C386.17,617.50 377.17,618.17 372.00,617.00 C366.83,615.83 362.33,612.83 359.00,610.00 C355.67,607.17 353.33,605.00 352.00,600.00 C350.67,595.00 351.17,583.33 351.00,580.00" fill="none" stroke="black" stroke-width="10.00" stroke-linecap="round" stroke-linejoin="round"/>
  <path d="M355.00,704.00 C355.00,702.50 356.00,698.83 355.00,695.00 C354.00,691.17 350.00,685.17 349.00,681.00 C348.00,676.83 348.50,673.83 349.00,670.00 C349.50,666.17 350.83,660.67 352.00,658.00 C353.17,655.33 354.33,654.67 356.00,654.00 C357.67,653.33 359.67,652.67 362.00,654.00 C364.33,655.33 368.00,658.67 370.00,662.00 C372.00,665.33 372.83,663.67 374.00,674.00 C375.17,684.33 375.33,713.17 377.00,724.00 C378.67,734.83 382.00,736.17 384.00,739.00 C386.00,741.83 388.17,740.67 389.00,741.00" fill="none" stroke="black" stroke-width="8.00" stroke-linecap="round" stroke-linejoin="round"/>
  <path d="M412.00,767.00 C410.17,765.83 404.83,763.50 401.00,760.00 C397.17,756.50 391.17,749.00 389.00,746.00 C386.83,743.00 387.67,743.17 388.00,742.00 C388.33,740.83 389.50,739.67 391.00,739.00 C392.50,738.33 393.00,735.83 397.00,738.00 C401.00,740.17 411.83,748.00 415.00,752.00 C418.17,756.00 416.67,759.17 416.00,762.00 C415.33,764.83 411.83,767.83 411.00,769.00" fill="none" stroke="black" stroke-width="8.49" stroke-linecap="round" stroke-linejoin="round"/>
  <path d="M472.00,809.00 C472.50,810.17 472.00,812.50 475.00,816.00 C478.00,819.50 485.50,826.83 490.00,830.00 C494.50,833.17 499.83,832.17 502.00,835.00 C504.17,837.83 502.50,844.67 503.00,847.00 C503.50,849.33 506.83,848.33 505.00,849.00 C503.17,849.67 497.17,851.67 492.00,851.00 C486.83,850.33 480.17,846.00 474.00,845.00 C467.83,844.00 460.67,845.83 455.00,845.00 C449.33,844.17 444.50,840.83 440.00,840.00 C435.50,839.17 430.67,839.33 428.00,840.00 C425.33,840.67 427.83,843.50 424.00,844.00 C420.17,844.50 409.33,842.00 405.00,843.00 C400.67,844.00 402.00,848.50 398.00,850.00 C394.00,851.50 384.33,851.33 381.00,852.00 C377.67,852.67 378.50,852.67 378.00,854.00 C377.50,855.33 377.17,858.17 378.00,860.00 C378.83,861.83 379.33,863.50 383.00,865.00 C386.67,866.50 395.83,867.33 400.00,869.00 C404.17,870.67 403.67,874.17 408.00,875.00 C412.33,875.83 422.33,873.67 426.00,874.00 C429.67,874.33 427.50,876.83 430.00,877.00 C432.50,877.17 436.50,876.67 441.00,875.00 C445.50,873.33 453.67,868.33 457.00,867.00 C460.33,865.67 460.00,866.50 461.00,867.00 C462.00,867.50 461.00,869.50 463.00,870.00 C465.00,870.50 468.33,870.50 473.00,870.00 C477.67,869.50 484.83,867.50 491.00,867.00 C497.17,866.50 505.83,867.67 510.00,867.00 C514.17,866.33 513.00,862.50 516.00,863.00 C519.00,863.50 522.00,863.17 528.00,870.00 C534.00,876.83 546.00,897.67 552.00,904.00 C558.00,910.33 562.00,907.00 564.00,908.00 C566.00,909.00 564.00,909.67 564.00,910.00" fill="none" stroke="black" stroke-width="8.94" stroke-linecap="round" stroke-linejoin="round"/>
  <path d="M505.00,849.00 C506.33,850.17 511.50,853.83 513.00,856.00 C514.50,858.17 513.83,861.00 514.00,862.00" fill="none" stroke="black" stroke-width="16.97" stroke-linecap="round" stroke-linejoin="round"/>
</svg>
