<?xml version="1.0" encoding="UTF-8"?>
<svg xmlns="http://www.w3.org/2000/svg" viewBox="0 0 129 367" width="129" height="367">
  <path d="M110.00,23.00 C107.83,25.00 101.33,29.50 97.00,35.00 C92.67,40.50 87.50,51.17 84.00,56.00 C80.50,60.83 77.83,62.50 76.00,64.00 C74.17,65.50 74.33,65.50 73.00,65.00 C71.67,64.50 68.67,62.50 68.00,61.00 C67.33,59.50 68.83,56.83 69.00,56.00" fill="none" stroke="black" stroke-width="4.47" stroke-linecap="round" stroke-linejoin="round"/>
  <path d="M62.00,81.00 C61.00,82.00 59.67,81.33 56.00,87.00 C52.33,92.67 43.50,109.50 40.00,115.00 C36.50,120.50 36.33,119.83 35.00,120.00 C33.67,120.17 33.00,119.83 32.00,116.00 C31.00,112.17 30.17,100.00 29.00,97.00 C27.83,94.00 27.00,98.33 25.00,98.00 C23.00,97.67 18.67,95.83 17.00,95.00 C15.33,94.17 15.50,95.33 15.00,93.00 C14.50,90.67 15.83,84.50 14.00,81.00 C12.17,77.50 4.67,74.67 4.00,72.00 C3.33,69.33 8.67,67.67 10.00,65.00 C11.33,62.33 10.17,56.50 12.00,56.00 C13.83,55.50 18.50,61.17 21.00,62.00 C23.50,62.83 25.50,59.00 27.00,61.00 C28.50,63.00 28.17,71.00 30.00,74.00 C31.83,77.00 36.50,77.67 38.00,79.00 C39.50,80.33 40.50,79.67 39.00,82.00 C37.50,84.33 31.67,93.33 29.00,93.00 C26.33,92.67 24.00,82.17 23.00,80.00" fill="none" stroke="black" stroke-width="2.00" stroke-linecap="round" stroke-linejoin="round"/>
  <path d="M73.00,65.00 C71.17,67.67 61.67,78.17 62.00,81.00 C62.33,83.83 72.50,81.50 75.00,82.00 C77.50,82.50 76.33,84.17 77.00,84.00 C77.67,83.83 78.17,81.50 79.00,81.00 C79.83,80.50 81.67,81.50 82.00,81.00 C82.33,80.50 79.67,80.17 81.00,78.00 C82.33,75.83 87.50,68.67 90.00,68.00 C92.50,67.33 92.83,73.50 96.00,74.00 C99.17,74.50 105.17,69.17 109.00,71.00 C112.83,72.83 120.00,81.00 119.00,85.00 C118.00,89.00 106.83,94.00 103.00,95.00 C99.17,96.00 99.00,91.17 96.00,91.00 C93.00,90.83 88.33,95.33 85.00,94.00 C81.67,92.67 77.50,84.83 76.00,83.00" fill="none" stroke="black" stroke-width="2.00" stroke-linecap="round" stroke-linejoin="round"/>
  <path d="M65.00,127.00 C62.33,127.33 50.83,130.83 49.00,129.00 C47.17,127.17 51.33,117.50 54.00,116.00 C56.67,114.50 62.33,120.33 65.00,120.00 C67.67,119.67 68.50,115.00 70.00,114.00 C71.50,113.00 71.00,112.33 74.00,114.00 C77.00,115.67 87.50,121.00 88.00,124.00 C88.50,127.00 79.33,129.50 77.00,132.00 C74.67,134.50 76.33,138.17 74.00,139.00 C71.67,139.83 66.33,136.67 63.00,137.00 C59.67,137.33 56.83,141.83 54.00,141.00 C51.17,140.17 47.33,133.50 46.00,132.00" fill="none" stroke="black" stroke-width="2.00" stroke-linecap="round" stroke-linejoin="round"/>
  <path d="M32.00,362.00 C30.17,357.67 24.50,346.50 21.00,336.00 C17.50,325.50 13.50,311.83 11.00,299.00 C8.50,286.17 6.83,270.17 6.00,259.00 C5.17,247.83 5.50,241.67 6.00,232.00 C6.50,222.33 7.17,211.67 9.00,201.00 C10.83,190.33 12.83,180.33 17.00,168.00 C21.17,155.67 31.00,135.00 34.00,127.00 C37.00,119.00 34.83,121.17 35.00,120.00" fill="none" stroke="black" stroke-width="4.00" stroke-linecap="round" stroke-linejoin="round"/>
  <path d="M92.00,46.00 C91.50,46.00 89.83,46.50 89.00,46.00 C88.17,45.50 87.50,46.33 87.00,43.00 C86.50,39.67 84.67,29.67 86.00,26.00 C87.33,22.33 92.67,23.67 95.00,21.00 C97.33,18.33 96.67,11.83 100.00,10.00 C103.33,8.17 111.33,10.50 115.00,10.00 C118.67,9.50 121.17,4.83 122.00,7.00 C122.83,9.17 120.00,18.83 120.00,23.00 C120.00,27.17 123.17,29.83 122.00,32.00 C120.83,34.17 114.83,33.17 113.00,36.00 C111.17,38.83 111.33,47.17 111.00,49.00 C110.67,50.83 114.33,47.50 111.00,47.00 C107.67,46.50 94.33,46.17 91.00,46.00" fill="none" stroke="black" stroke-width="2.00" stroke-linecap="round" stroke-linejoin="round"/>
  <path d="M29.00,94.00 L29.00,97.00" fill="none" stroke="black" stroke-width="4.00" stroke-linecap="round" stroke-linejoin="round"/>
  <path d="M50.00,129.00 C49.50,129.67 50.17,132.17 47.00,133.00 C43.83,133.83 33.67,133.83 31.00,134.00" fill="none" stroke="black" stroke-width="4.00" stroke-linecap="round" stroke-linejoin="round"/>
</svg>
