<?xml version="1.0" encoding="UTF-8"?>
<svg xmlns="http://www.w3.org/2000/svg" viewBox="0 0 129 367" width="129" height="367">
  <path d="M19.00,24.00 C22.33,27.50 34.00,38.67 39.00,45.00 C44.00,51.33 46.33,58.50 49.00,62.00 C51.67,65.50 54.00,65.33 55.00,66.00" fill="none" stroke="black" stroke-width="4.47" stroke-linecap="round" stroke-linejoin="round"/>
  <path d="M5.00,33.00 C5.50,32.83 7.83,36.33 8.00,32.00 C8.17,27.67 5.17,10.67 6.00,7.00 C6.83,3.33 9.33,9.50 13.00,10.00 C16.67,10.50 24.83,8.33 28.00,10.00 C31.17,11.67 29.67,17.33 32.00,20.00 C34.33,22.67 40.50,22.33 42.00,26.00 C43.50,29.67 41.83,38.67 41.00,42.00 C40.17,45.33 37.33,45.33 37.00,46.00 C36.67,46.67 39.33,45.83 39.00,46.00 C38.67,46.17 38.67,46.67 35.00,47.00 C31.33,47.33 20.33,49.67 17.00,48.00 C13.67,46.33 16.00,39.50 15.00,37.00 C14.00,34.50 12.50,33.83 11.00,33.00 C9.50,32.17 6.83,32.17 6.00,32.00" fill="none" stroke="black" stroke-width="2.00" stroke-linecap="round" stroke-linejoin="round"/>
  <path d="M59.00,56.00 C59.17,56.83 60.83,59.50 60.00,61.00 C59.17,62.50 53.00,61.67 54.00,65.00 C55.00,68.33 66.33,78.00 66.00,81.00 C65.67,84.00 54.33,82.67 52.00,83.00" fill="none" stroke="black" stroke-width="5.06" stroke-linecap="round" stroke-linejoin="round"/>
  <path d="M66.00,81.00 C70.33,87.50 87.00,114.17 92.00,120.00 C97.00,125.83 94.83,119.83 96.00,116.00 C97.17,112.17 97.83,100.00 99.00,97.00 C100.17,94.00 101.00,98.33 103.00,98.00 C105.00,97.67 109.33,95.83 111.00,95.00 C112.67,94.17 112.50,95.50 113.00,93.00 C113.50,90.50 112.17,83.50 114.00,80.00 C115.83,76.50 123.50,74.67 124.00,72.00 C124.50,69.33 118.33,66.67 117.00,64.00 C115.67,61.33 117.67,56.33 116.00,56.00 C114.33,55.67 109.67,61.17 107.00,62.00 C104.33,62.83 101.50,59.00 100.00,61.00 C98.50,63.00 99.50,71.17 98.00,74.00 C96.50,76.83 92.50,76.67 91.00,78.00 C89.50,79.33 87.67,79.50 89.00,82.00 C90.33,84.50 96.33,93.33 99.00,93.00 C101.67,92.67 104.00,82.17 105.00,80.00" fill="none" stroke="black" stroke-width="2.00" stroke-linecap="round" stroke-linejoin="round"/>
  <path d="M63.00,127.00 C65.67,127.17 77.33,129.67 79.00,128.00 C80.67,126.33 75.67,118.33 73.00,117.00 C70.33,115.67 65.67,120.50 63.00,120.00 C60.33,119.50 59.50,114.50 57.00,114.00 C54.50,113.50 50.83,115.33 48.00,117.00 C45.17,118.67 39.67,121.67 40.00,124.00 C40.33,126.33 48.00,128.33 50.00,131.00 C52.00,133.67 49.50,139.00 52.00,140.00 C54.50,141.00 61.33,136.83 65.00,137.00 C68.67,137.17 71.17,141.83 74.00,141.00 C76.83,140.17 78.83,133.00 82.00,132.00 C85.17,131.00 90.50,134.67 93.00,135.00 C95.50,135.33 96.33,134.17 97.00,134.00" fill="none" stroke="black" stroke-width="2.00" stroke-linecap="round" stroke-linejoin="round"/>
  <path d="M96.00,362.00 C98.00,357.17 104.67,342.83 108.00,333.00 C111.33,323.17 114.00,311.83 116.00,303.00 C118.00,294.17 119.00,290.17 120.00,280.00 C121.00,269.83 122.17,255.17 122.00,242.00 C121.83,228.83 121.33,214.83 119.00,201.00 C116.67,187.17 112.17,171.33 108.00,159.00 C103.83,146.67 96.50,133.67 94.00,127.00 C91.50,120.33 93.17,120.33 93.00,119.00" fill="none" stroke="black" stroke-width="4.00" stroke-linecap="round" stroke-linejoin="round"/>
  <path d="M9.00,85.00 C10.67,82.67 15.17,72.83 19.00,71.00 C22.83,69.17 28.83,74.50 32.00,74.00 C35.17,73.50 35.50,67.33 38.00,68.00 C40.50,68.67 45.67,75.83 47.00,78.00 C48.33,80.17 45.17,80.17 46.00,81.00 C46.83,81.83 52.50,80.83 52.00,83.00 C51.50,85.17 46.33,92.67 43.00,94.00 C39.67,95.33 35.17,90.83 32.00,91.00 C28.83,91.17 27.83,96.17 24.00,95.00 C20.17,93.83 11.50,85.83 9.00,84.00" fill="none" stroke="black" stroke-width="2.00" stroke-linecap="round" stroke-linejoin="round"/>
  <path d="M99.00,94.00 L99.00,97.00" fill="none" stroke="black" stroke-width="4.00" stroke-linecap="round" stroke-linejoin="round"/>
  <path d="M79.00,128.00 L82.00,132.00" fill="none" stroke="black" stroke-width="4.47" stroke-linecap="round" stroke-linejoin="round"/>
</svg>
