<?xml version="1.0" encoding="UTF-8"?>
<svg xmlns="http://www.w3.org/2000/svg" viewBox="0 0 134 367" width="134" height="367">
  <path d="M116.00,23.00 C113.83,25.00 107.33,29.50 103.00,35.00 C98.67,40.50 93.50,51.17 90.00,56.00 C86.50,60.83 83.83,62.50 82.00,64.00 C80.17,65.50 80.33,65.50 79.00,65.00 C77.67,64.50 74.67,62.50 74.00,61.00 C73.33,59.50 74.83,56.83 75.00,56.00" fill="none" stroke="black" stroke-width="4.47" stroke-linecap="round" stroke-linejoin="round"/>
  <path d="M68.00,81.00 C67.00,82.00 65.67,81.33 62.00,87.00 C58.33,92.67 49.50,109.50 46.00,115.00 C42.50,120.50 42.33,119.83 41.00,120.00 C39.67,120.17 39.00,119.83 38.00,116.00 C37.00,112.17 36.17,100.00 35.00,97.00 C33.83,94.00 33.00,98.33 31.00,98.00 C29.00,97.67 24.67,95.83 23.00,95.00 C21.33,94.17 21.50,95.33 21.00,93.00 C20.50,90.67 21.83,84.50 20.00,81.00 C18.17,77.50 10.67,74.67 10.00,72.00 C9.33,69.33 14.67,67.67 16.00,65.00 C17.33,62.33 16.17,56.50 18.00,56.00 C19.83,55.50 24.50,61.17 27.00,62.00 C29.50,62.83 31.50,59.00 33.00,61.00 C34.50,63.00 34.17,71.00 36.00,74.00 C37.83,77.00 42.50,77.67 44.00,79.00 C45.50,80.33 46.50,79.67 45.00,82.00 C43.50,84.33 37.67,93.33 35.00,93.00 C32.33,92.67 30.00,82.17 29.00,80.00" fill="none" stroke="black" stroke-width="2.00" stroke-linecap="round" stroke-linejoin="round"/>
  <path d="M79.00,65.00 C77.17,67.67 67.67,78.17 68.00,81.00 C68.33,83.83 78.50,81.50 81.00,82.00 C83.50,82.50 82.33,84.17 83.00,84.00 C83.67,83.83 84.17,81.50 85.00,81.00 C85.83,80.50 87.67,81.50 88.00,81.00 C88.33,80.50 85.67,80.17 87.00,78.00 C88.33,75.83 93.50,68.67 96.00,68.00 C98.50,67.33 98.83,73.50 102.00,74.00 C105.17,74.50 111.17,69.17 115.00,71.00 C118.83,72.83 126.00,81.00 125.00,85.00 C124.00,89.00 112.83,94.00 109.00,95.00 C105.17,96.00 105.00,91.17 102.00,91.00 C99.00,90.83 94.33,95.33 91.00,94.00 C87.67,92.67 83.50,84.83 82.00,83.00" fill="none" stroke="black" stroke-width="2.00" stroke-linecap="round" stroke-linejoin="round"/>
  <path d="M71.00,127.00 C68.33,127.33 56.83,130.83 55.00,129.00 C53.17,127.17 57.33,117.50 60.00,116.00 C62.67,114.50 68.33,120.33 71.00,120.00 C73.67,119.67 74.50,115.00 76.00,114.00 C77.50,113.00 77.00,112.33 80.00,114.00 C83.00,115.67 93.50,121.00 94.00,124.00 C94.50,127.00 85.33,129.50 83.00,132.00 C80.67,134.50 82.33,138.17 80.00,139.00 C77.67,139.83 72.33,136.67 69.00,137.00 C65.67,137.33 62.83,141.83 60.00,141.00 C57.17,140.17 53.33,133.50 52.00,132.00" fill="none" stroke="black" stroke-width="2.00" stroke-linecap="round" stroke-linejoin="round"/>
  <path d="M30.00,184.00 C28.17,185.17 20.50,192.00 19.00,191.00 C17.50,190.00 19.50,180.33 21.00,178.00 C22.50,175.67 25.83,178.67 28.00,177.00 C30.17,175.33 30.83,170.00 34.00,168.00 C37.17,166.00 44.67,162.67 47.00,165.00 C49.33,167.33 48.67,179.17 48.00,182.00 C47.33,184.83 44.50,181.33 43.00,182.00 C41.50,182.67 40.00,183.50 39.00,186.00 C38.00,188.50 38.83,195.33 37.00,197.00 C35.17,198.67 32.17,195.33 28.00,196.00 C23.83,196.67 14.33,200.17 12.00,201.00 C9.67,201.83 13.67,198.83 14.00,201.00 C14.33,203.17 14.50,211.33 14.00,214.00 C13.50,216.67 10.83,215.67 11.00,217.00 C11.17,218.33 14.83,219.50 15.00,222.00 C15.17,224.50 12.17,227.67 12.00,232.00 C11.83,236.33 14.00,243.50 14.00,248.00 C14.00,252.50 11.50,250.50 12.00,259.00 C12.50,267.50 15.00,287.67 17.00,299.00 C19.00,310.33 20.50,316.50 24.00,327.00 C27.50,337.50 35.67,356.17 38.00,362.00" fill="none" stroke="black" stroke-width="4.00" stroke-linecap="round" stroke-linejoin="round"/>
  <path d="M98.00,46.00 C97.50,46.00 95.83,46.50 95.00,46.00 C94.17,45.50 93.50,46.33 93.00,43.00 C92.50,39.67 90.67,29.67 92.00,26.00 C93.33,22.33 98.67,23.67 101.00,21.00 C103.33,18.33 102.67,11.83 106.00,10.00 C109.33,8.17 117.33,10.50 121.00,10.00 C124.67,9.50 127.17,4.83 128.00,7.00 C128.83,9.17 126.00,18.83 126.00,23.00 C126.00,27.17 129.17,29.83 128.00,32.00 C126.83,34.17 120.83,33.17 119.00,36.00 C117.17,38.83 117.33,47.17 117.00,49.00 C116.67,50.83 120.33,47.50 117.00,47.00 C113.67,46.50 100.33,46.17 97.00,46.00" fill="none" stroke="black" stroke-width="2.00" stroke-linecap="round" stroke-linejoin="round"/>
  <path d="M35.00,94.00 L35.00,97.00" fill="none" stroke="black" stroke-width="4.00" stroke-linecap="round" stroke-linejoin="round"/>
  <path d="M41.00,120.00 C40.50,122.50 36.00,133.17 38.00,135.00 C40.00,136.83 50.50,131.33 53.00,131.00 C55.50,130.67 52.50,133.33 53.00,133.00 C53.50,132.67 55.50,129.67 56.00,129.00" fill="none" stroke="black" stroke-width="4.00" stroke-linecap="round" stroke-linejoin="round"/>
  <path d="M37.00,134.00 C35.17,138.00 28.67,150.67 26.00,158.00 C23.33,165.33 21.50,174.67 21.00,178.00 C20.50,181.33 22.67,178.00 23.00,178.00" fill="none" stroke="black" stroke-width="4.00" stroke-linecap="round" stroke-linejoin="round"/>
  <path d="M19.00,192.00 C19.00,193.17 19.33,197.83 19.00,199.00 C18.67,200.17 17.33,199.00 17.00,199.00" fill="none" stroke="black" stroke-width="7.21" stroke-linecap="round" stroke-linejoin="round"/>
</svg>
