<?xml version="1.0" encoding="UTF-8"?>
<svg xmlns="http://www.w3.org/2000/svg" viewBox="0 0 588 1053" width="588" height="1053">
  <path d="M42.00,89.00 C40.00,91.00 33.50,94.50 30.00,101.00 C26.50,107.50 22.50,121.83 21.00,128.00 C19.50,134.17 19.83,134.33 21.00,138.00 C22.17,141.67 26.50,146.50 28.00,150.00 C29.50,153.50 25.67,154.00 30.00,159.00 C34.33,164.00 46.50,177.67 54.00,180.00 C61.50,182.33 64.33,173.67 75.00,173.00 C85.67,172.33 109.17,176.67 118.00,176.00 C126.83,175.33 124.67,170.50 128.00,169.00 C131.33,167.50 135.67,169.50 138.00,167.00 C140.33,164.50 142.00,157.00 142.00,154.00 C142.00,151.00 138.83,154.00 138.00,149.00 C137.17,144.00 138.33,133.00 137.00,124.00 C135.67,115.00 132.17,101.00 130.00,95.00 C127.83,89.00 126.50,89.67 124.00,88.00 C121.50,86.33 117.17,86.17 115.00,85.00 C112.83,83.83 113.83,82.17 111.00,81.00 C108.17,79.83 102.33,78.17 98.00,78.00 C93.67,77.83 88.33,79.00 85.00,80.00 C81.67,81.00 84.83,82.83 78.00,84.00 C71.17,85.17 50.00,86.17 44.00,87.00 C38.00,87.83 42.83,90.83 42.00,89.00 C41.17,87.17 38.50,80.67 39.00,76.00 C39.50,71.33 40.17,67.33 45.00,61.00 C49.83,54.67 63.00,42.33 68.00,38.00 C73.00,33.67 73.67,35.17 75.00,35.00 C76.33,34.83 76.17,36.83 76.00,37.00 C75.83,37.17 73.83,36.83 74.00,36.00 C74.17,35.17 73.33,34.67 77.00,32.00 C80.67,29.33 88.17,22.33 96.00,20.00 C103.83,17.67 116.00,18.17 124.00,18.00 C132.00,17.83 137.17,17.00 144.00,19.00 C150.83,21.00 158.67,25.67 165.00,30.00 C171.33,34.33 176.50,40.83 182.00,45.00 C187.50,49.17 195.33,53.33 198.00,55.00" fill="none" stroke="black" stroke-width="8.00" stroke-linecap="round" stroke-linejoin="round"/>
  <path d="M151.00,179.00 C151.33,182.00 154.83,193.50 153.00,197.00 C151.17,200.50 144.83,200.33 140.00,200.00 C135.17,199.67 127.17,196.33 124.00,195.00 C120.83,193.67 122.17,195.17 121.00,192.00 C119.83,188.83 117.67,178.67 117.00,176.00" fill="none" stroke="black" stroke-width="10.00" stroke-linecap="round" stroke-linejoin="round"/>
  <path d="M554.00,1037.00 C554.50,1036.00 556.33,1035.33 557.00,1031.00 C557.67,1026.67 557.17,1016.00 558.00,1011.00 C558.83,1006.00 561.17,1014.00 562.00,1001.00 C562.83,988.00 563.83,956.83 563.00,933.00 C562.17,909.17 558.67,872.83 557.00,858.00 C555.33,843.17 553.83,849.33 553.00,844.00 C552.17,838.67 552.83,830.83 552.00,826.00 C551.17,821.17 550.33,817.50 548.00,815.00 C545.67,812.50 542.00,814.17 538.00,811.00 C534.00,807.83 531.17,805.67 524.00,796.00 C516.83,786.33 500.83,762.67 495.00,753.00 C489.17,743.33 492.33,743.67 489.00,738.00 C485.67,732.33 477.50,724.17 475.00,719.00 C472.50,713.83 475.67,711.17 474.00,707.00 C472.33,702.83 466.67,697.83 465.00,694.00 C463.33,690.17 465.33,687.67 464.00,684.00 C462.67,680.33 458.33,676.00 457.00,672.00 C455.67,668.00 457.00,663.33 456.00,660.00 C455.00,656.67 452.67,658.50 451.00,652.00 C449.33,645.50 447.83,629.67 446.00,621.00 C444.17,612.33 442.17,616.50 440.00,600.00 C437.83,583.50 433.67,543.83 433.00,522.00 C432.33,500.17 435.17,478.83 436.00,469.00 C436.83,459.17 437.00,464.50 438.00,463.00 C439.00,461.50 441.83,463.83 442.00,460.00 C442.17,456.17 439.33,446.17 439.00,440.00 C438.67,433.83 440.83,426.17 440.00,423.00 C439.17,419.83 436.17,422.67 434.00,421.00 C431.83,419.33 429.00,417.00 427.00,413.00 C425.00,409.00 425.33,403.33 422.00,397.00 C418.67,390.67 410.17,380.83 407.00,375.00 C403.83,369.17 406.83,368.83 403.00,362.00 C399.17,355.17 388.00,341.00 384.00,334.00 C380.00,327.00 382.67,326.33 379.00,320.00 C375.33,313.67 372.17,309.17 362.00,296.00 C351.83,282.83 332.00,255.83 318.00,241.00 C304.00,226.17 286.67,213.00 278.00,207.00 C269.33,201.00 269.67,201.00 266.00,205.00 C262.33,209.00 260.83,223.17 256.00,231.00 C251.17,238.83 242.33,247.67 237.00,252.00 C231.67,256.33 230.17,256.17 224.00,257.00 C217.83,257.83 204.67,255.17 200.00,257.00 C195.33,258.83 199.50,263.33 196.00,268.00 C192.50,272.67 189.00,280.50 179.00,285.00 C169.00,289.50 145.17,294.00 136.00,295.00 C126.83,296.00 127.50,293.00 124.00,291.00 C120.50,289.00 117.83,284.50 115.00,283.00 C112.17,281.50 110.50,283.83 107.00,282.00 C103.50,280.17 97.50,273.83 94.00,272.00 C90.50,270.17 89.33,272.17 86.00,271.00 C82.67,269.83 79.67,268.50 74.00,265.00 C68.33,261.50 57.00,254.00 52.00,250.00 C47.00,246.00 46.17,244.17 44.00,241.00 C41.83,237.83 40.50,236.00 39.00,231.00 C37.50,226.00 35.33,215.50 35.00,211.00 C34.67,206.50 33.83,209.17 37.00,204.00 C40.17,198.83 51.17,184.00 54.00,180.00" fill="none" stroke="black" stroke-width="7.21" stroke-linecap="round" stroke-linejoin="round"/>
  <path d="M269.00,189.00 C270.83,187.33 277.83,182.67 280.00,179.00 C282.17,175.33 281.00,170.00 282.00,167.00 C283.00,164.00 284.83,165.17 286.00,161.00 C287.17,156.83 288.83,148.67 289.00,142.00 C289.17,135.33 289.33,127.83 287.00,121.00 C284.67,114.17 277.17,106.00 275.00,101.00 C272.83,96.00 276.17,95.00 274.00,91.00 C271.83,87.00 267.33,81.67 262.00,77.00 C256.67,72.33 250.00,67.17 242.00,63.00 C234.00,58.83 221.00,53.67 214.00,52.00 C207.00,50.33 202.67,52.50 200.00,53.00 C197.33,53.50 198.17,53.33 198.00,55.00 C197.83,56.67 198.50,60.50 199.00,63.00 C199.50,65.50 199.67,67.50 201.00,70.00 C202.33,72.50 205.83,75.50 207.00,78.00 C208.17,80.50 207.50,79.00 208.00,85.00 C208.50,91.00 210.00,107.00 210.00,114.00 C210.00,121.00 206.33,123.83 208.00,127.00 C209.67,130.17 216.67,131.83 220.00,133.00 C223.33,134.17 221.83,128.83 228.00,134.00 C234.17,139.17 251.00,155.50 257.00,164.00 C263.00,172.50 262.00,180.83 264.00,185.00 C266.00,189.17 268.17,185.83 269.00,189.00 C269.83,192.17 269.33,201.50 269.00,204.00 C268.67,206.50 267.33,204.00 267.00,204.00" fill="none" stroke="black" stroke-width="8.25" stroke-linecap="round" stroke-linejoin="round"/>
  <path d="M379.00,101.00 C379.67,98.00 379.33,88.67 383.00,83.00 C386.67,77.33 392.67,69.50 401.00,67.00 C409.33,64.50 425.33,65.17 433.00,68.00 C440.67,70.83 443.67,79.50 447.00,84.00 C450.33,88.50 451.67,93.50 453.00,95.00 C454.33,96.50 453.17,93.33 455.00,93.00 C456.83,92.67 460.50,94.00 464.00,93.00 C467.50,92.00 470.17,87.83 476.00,87.00 C481.83,86.17 493.00,86.50 499.00,88.00 C505.00,89.50 508.17,93.00 512.00,96.00 C515.83,99.00 520.00,103.50 522.00,106.00 C524.00,108.50 523.67,106.33 524.00,111.00 C524.33,115.67 524.83,127.17 524.00,134.00 C523.17,140.83 521.00,146.83 519.00,152.00 C517.00,157.17 514.17,162.00 512.00,165.00 C509.83,168.00 508.50,168.67 506.00,170.00 C503.50,171.33 500.67,175.33 497.00,173.00 C493.33,170.67 488.67,160.00 484.00,156.00 C479.33,152.00 473.00,150.00 469.00,149.00 C465.00,148.00 463.00,151.50 460.00,150.00 C457.00,148.50 453.50,141.17 451.00,140.00 C448.50,138.83 448.00,142.33 445.00,143.00 C442.00,143.67 435.67,143.17 433.00,144.00 C430.33,144.83 430.67,148.50 429.00,148.00 C427.33,147.50 424.50,144.50 423.00,141.00 C421.50,137.50 421.50,130.17 420.00,127.00 C418.50,123.83 416.00,122.83 414.00,122.00 C412.00,121.17 410.83,124.83 408.00,122.00 C405.17,119.17 401.00,108.00 397.00,105.00 C393.00,102.00 387.00,104.67 384.00,104.00 C381.00,103.33 383.83,100.83 379.00,101.00 C374.17,101.17 361.17,102.33 355.00,105.00 C348.83,107.67 344.67,113.83 342.00,117.00 C339.33,120.17 339.67,121.00 339.00,124.00 C338.33,127.00 337.33,130.67 338.00,135.00 C338.67,139.33 340.00,145.33 343.00,150.00 C346.00,154.67 353.67,160.17 356.00,163.00 C358.33,165.83 356.83,166.33 357.00,167.00" fill="none" stroke="black" stroke-width="7.21" stroke-linecap="round" stroke-linejoin="round"/>
  <path d="M453.00,95.00 C453.00,100.67 453.67,121.50 453.00,129.00 C452.33,136.50 449.33,138.17 449.00,140.00 C448.67,141.83 450.67,140.00 451.00,140.00" fill="none" stroke="black" stroke-width="8.94" stroke-linecap="round" stroke-linejoin="round"/>
  <path d="M210.00,127.00 C205.17,126.83 188.67,123.83 181.00,126.00 C173.33,128.17 167.67,137.50 164.00,140.00 C160.33,142.50 161.33,139.17 159.00,141.00 C156.67,142.83 152.83,148.83 150.00,151.00 C147.17,153.17 143.33,153.50 142.00,154.00" fill="none" stroke="black" stroke-width="8.00" stroke-linecap="round" stroke-linejoin="round"/>
  <path d="M430.00,147.00 C429.67,149.67 431.00,160.17 428.00,163.00 C425.00,165.83 417.17,161.83 412.00,164.00 C406.83,166.17 402.67,174.33 397.00,176.00 C391.33,177.67 382.67,175.00 378.00,174.00 C373.33,173.00 370.67,171.17 369.00,170.00 C367.33,168.83 370.00,167.50 368.00,167.00 C366.00,166.50 359.83,165.17 357.00,167.00 C354.17,168.83 352.67,173.67 351.00,178.00 C349.33,182.33 347.67,186.17 347.00,193.00 C346.33,199.83 346.33,213.83 347.00,219.00 C347.67,224.17 350.50,222.67 351.00,224.00 C351.50,225.33 349.33,224.83 350.00,227.00 C350.67,229.17 351.00,233.50 355.00,237.00 C359.00,240.50 369.50,245.83 374.00,248.00 C378.50,250.17 378.83,249.67 382.00,250.00 C385.17,250.33 387.67,251.00 393.00,250.00 C398.33,249.00 408.83,246.83 414.00,244.00 C419.17,241.17 424.67,238.67 424.00,233.00 C423.33,227.33 412.50,215.83 410.00,210.00 C407.50,204.17 406.83,202.17 409.00,198.00 C411.17,193.83 420.17,189.67 423.00,185.00 C425.83,180.33 425.00,173.00 426.00,170.00 C427.00,167.00 424.17,168.50 429.00,167.00 C433.83,165.50 449.83,163.83 455.00,161.00 C460.17,158.17 459.17,151.83 460.00,150.00" fill="none" stroke="black" stroke-width="8.00" stroke-linecap="round" stroke-linejoin="round"/>
  <path d="M428.00,163.00 C428.17,163.67 428.33,166.17 429.00,167.00 C429.67,167.83 431.50,167.83 432.00,168.00" fill="none" stroke="black" stroke-width="22.58" stroke-linecap="round" stroke-linejoin="round"/>
  <path d="M497.00,173.00 C497.33,173.00 498.83,170.83 499.00,173.00 C499.17,175.17 497.50,182.67 498.00,186.00 C498.50,189.33 501.17,190.00 502.00,193.00 C502.83,196.00 503.33,199.00 503.00,204.00 C502.67,209.00 501.33,218.83 500.00,223.00 C498.67,227.17 495.50,228.00 495.00,229.00 C494.50,230.00 500.50,226.50 497.00,229.00 C493.50,231.50 480.83,241.50 474.00,244.00 C467.17,246.50 459.83,243.67 456.00,244.00 C452.17,244.33 453.83,247.17 451.00,246.00 C448.17,244.83 443.50,239.17 439.00,237.00 C434.50,234.83 426.50,233.67 424.00,233.00" fill="none" stroke="black" stroke-width="7.21" stroke-linecap="round" stroke-linejoin="round"/>
  <path d="M153.00,196.00 C155.33,197.67 163.17,202.17 167.00,206.00 C170.83,209.83 173.33,216.17 176.00,219.00 C178.67,221.83 179.83,220.00 183.00,223.00 C186.17,226.00 192.17,231.00 195.00,237.00 C197.83,243.00 199.17,255.33 200.00,259.00" fill="none" stroke="black" stroke-width="8.25" stroke-linecap="round" stroke-linejoin="round"/>
  <path d="M451.00,246.00 C450.83,248.00 449.33,254.50 450.00,258.00 C450.67,261.50 453.67,262.67 455.00,267.00 C456.33,271.33 457.33,273.17 458.00,284.00 C458.67,294.83 459.33,322.67 459.00,332.00 C458.67,341.33 456.67,332.83 456.00,340.00 C455.33,347.17 455.50,368.83 455.00,375.00 C454.50,381.17 453.50,374.67 453.00,377.00 C452.50,379.33 453.33,382.67 452.00,389.00 C450.67,395.33 447.17,409.33 445.00,415.00 C442.83,420.67 440.00,421.67 439.00,423.00" fill="none" stroke="black" stroke-width="7.21" stroke-linecap="round" stroke-linejoin="round"/>
  <path d="M442.00,459.00 C443.17,459.67 446.00,459.00 449.00,463.00 C452.00,467.00 457.67,477.33 460.00,483.00 C462.33,488.67 461.50,493.17 463.00,497.00 C464.50,500.83 467.83,503.00 469.00,506.00 C470.17,509.00 467.50,508.00 470.00,515.00 C472.50,522.00 481.33,540.33 484.00,548.00 C486.67,555.67 484.50,556.67 486.00,561.00 C487.50,565.33 491.83,570.50 493.00,574.00 C494.17,577.50 492.17,579.00 493.00,582.00 C493.83,585.00 497.00,588.83 498.00,592.00 C499.00,595.17 498.00,598.33 499.00,601.00 C500.00,603.67 502.17,601.50 504.00,608.00 C505.83,614.50 507.83,632.83 510.00,640.00 C512.17,647.17 515.67,648.00 517.00,651.00 C518.33,654.00 517.33,656.50 518.00,658.00 C518.67,659.50 520.33,657.33 521.00,660.00 C521.67,662.67 520.50,667.00 522.00,674.00 C523.50,681.00 527.50,689.83 530.00,702.00 C532.50,714.17 534.83,736.00 537.00,747.00 C539.17,758.00 542.00,762.67 543.00,768.00 C544.00,773.33 542.00,773.50 543.00,779.00 C544.00,784.50 548.00,796.17 549.00,801.00 C550.00,805.83 549.50,806.00 549.00,808.00 C548.50,810.00 546.50,812.17 546.00,813.00" fill="none" stroke="black" stroke-width="8.00" stroke-linecap="round" stroke-linejoin="round"/>
</svg>
