<?xml version="1.0" encoding="UTF-8"?>
<svg xmlns="http://www.w3.org/2000/svg" viewBox="0 0 588 1053" width="588" height="1053">
  <path d="M436.00,180.00 C435.50,182.83 431.17,193.67 433.00,197.00 C434.83,200.33 442.00,200.33 447.00,200.00 C452.00,199.67 459.83,196.33 463.00,195.00 C466.17,193.67 465.17,195.00 466.00,192.00 C466.83,189.00 467.67,179.50 468.00,177.00" fill="none" stroke="black" stroke-width="10.00" stroke-linecap="round" stroke-linejoin="round"/>
  <path d="M281.00,513.00 C281.50,514.17 284.33,517.67 284.00,520.00 C283.67,522.33 280.00,523.50 279.00,527.00 C278.00,530.50 279.83,534.50 278.00,541.00 C276.17,547.50 270.33,558.67 268.00,566.00 C265.67,573.33 266.50,577.33 264.00,585.00 C261.50,592.67 255.83,603.67 253.00,612.00 C250.17,620.33 254.83,618.67 247.00,635.00 C239.17,651.33 217.17,692.67 206.00,710.00 C194.83,727.33 186.83,732.17 180.00,739.00 C173.17,745.83 172.17,746.50 165.00,751.00 C157.83,755.50 145.17,760.33 137.00,766.00 C128.83,771.67 124.50,778.50 116.00,785.00 C107.50,791.50 92.83,801.17 86.00,805.00 C79.17,808.83 78.17,807.67 75.00,808.00 C71.83,808.33 67.67,809.67 67.00,807.00 C66.33,804.33 68.50,796.50 71.00,792.00 C73.50,787.50 80.17,782.00 82.00,780.00" fill="none" stroke="black" stroke-width="8.49" stroke-linecap="round" stroke-linejoin="round"/>
  <path d="M31.00,1037.00 C29.83,1029.50 25.17,1009.50 24.00,992.00 C22.83,974.50 23.50,949.67 24.00,932.00 C24.50,914.33 25.33,902.33 27.00,886.00 C28.67,869.67 32.17,844.00 34.00,834.00 C35.83,824.00 36.17,828.50 38.00,826.00 C39.83,823.50 45.00,822.17 45.00,819.00 C45.00,815.83 38.83,811.83 38.00,807.00 C37.17,802.17 39.00,794.83 40.00,790.00 C41.00,785.17 42.83,784.33 44.00,778.00 C45.17,771.67 46.00,757.00 47.00,752.00 C48.00,747.00 49.50,751.00 50.00,748.00 C50.50,745.00 47.33,748.50 50.00,734.00 C52.67,719.50 61.50,676.67 66.00,661.00 C70.50,645.33 75.17,645.17 77.00,640.00 C78.83,634.83 76.17,633.33 77.00,630.00 C77.83,626.67 81.00,623.67 82.00,620.00 C83.00,616.33 82.33,610.50 83.00,608.00 C83.67,605.50 84.17,609.67 86.00,605.00 C87.83,600.33 92.67,585.33 94.00,580.00 C95.33,574.67 93.00,576.00 94.00,573.00 C95.00,570.00 97.17,570.00 100.00,562.00 C102.83,554.00 108.17,532.83 111.00,525.00 C113.83,517.17 115.83,518.17 117.00,515.00 C118.17,511.83 117.00,508.83 118.00,506.00 C119.00,503.17 121.00,503.00 123.00,498.00 C125.00,493.00 127.00,482.17 130.00,476.00 C133.00,469.83 138.50,463.83 141.00,461.00 C143.50,458.17 143.67,458.67 145.00,459.00 C146.33,459.33 147.50,453.33 149.00,463.00 C150.50,472.67 154.33,494.33 154.00,517.00 C153.67,539.67 148.83,583.67 147.00,599.00 C145.17,614.33 144.00,604.00 143.00,609.00 C142.00,614.00 142.33,621.50 141.00,629.00 C139.67,636.50 136.67,649.00 135.00,654.00 C133.33,659.00 131.83,655.83 131.00,659.00 C130.17,662.17 131.33,668.83 130.00,673.00 C128.67,677.17 124.17,681.00 123.00,684.00 C121.83,687.00 124.67,687.17 123.00,691.00 C121.33,694.83 114.83,702.33 113.00,707.00 C111.17,711.67 114.17,714.17 112.00,719.00 C109.83,723.83 102.33,733.17 100.00,736.00 C97.67,738.83 98.50,734.83 98.00,736.00 C97.50,737.17 99.50,738.00 97.00,743.00 C94.50,748.00 85.67,761.17 83.00,766.00 C80.33,770.83 81.17,769.67 81.00,772.00 C80.83,774.33 80.33,779.33 82.00,780.00 C83.67,780.67 87.00,779.33 91.00,776.00 C95.00,772.67 101.33,767.17 106.00,760.00 C110.67,752.83 114.00,741.67 119.00,733.00 C124.00,724.33 132.50,714.00 136.00,708.00 C139.50,702.00 134.17,706.17 140.00,697.00 C145.83,687.83 165.67,661.17 171.00,653.00 C176.33,644.83 169.00,652.83 172.00,648.00 C175.00,643.17 185.33,630.00 189.00,624.00 C192.67,618.00 182.17,626.50 194.00,612.00 C205.83,597.50 247.17,550.83 260.00,537.00 C272.83,523.17 267.67,530.50 271.00,529.00 C274.33,527.50 278.50,528.17 280.00,528.00" fill="none" stroke="black" stroke-width="7.21" stroke-linecap="round" stroke-linejoin="round"/>
  <path d="M546.00,87.00 C546.17,84.83 547.50,77.17 547.00,74.00 C546.50,70.83 543.83,70.17 543.00,68.00 C542.17,65.83 546.17,66.17 542.00,61.00 C537.83,55.83 526.50,43.83 518.00,37.00 C509.50,30.17 503.50,23.00 491.00,20.00 C478.50,17.00 454.83,17.17 443.00,19.00 C431.17,20.83 426.33,26.67 420.00,31.00 C413.67,35.33 410.17,41.00 405.00,45.00 C399.83,49.00 392.67,53.83 389.00,55.00 C385.33,56.17 387.33,52.00 383.00,52.00 C378.67,52.00 369.33,53.17 363.00,55.00 C356.67,56.83 350.50,60.00 345.00,63.00 C339.50,66.00 335.50,68.17 330.00,73.00 C324.50,77.83 315.17,87.00 312.00,92.00 C308.83,97.00 312.83,99.00 311.00,103.00 C309.17,107.00 303.33,110.67 301.00,116.00 C298.67,121.33 297.33,128.83 297.00,135.00 C296.67,141.17 297.67,147.67 299.00,153.00 C300.33,158.33 304.00,163.50 305.00,167.00 C306.00,170.50 304.17,171.33 305.00,174.00 C305.83,176.67 307.83,180.50 310.00,183.00 C312.17,185.50 315.67,189.17 318.00,189.00 C320.33,188.83 322.00,186.17 324.00,182.00 C326.00,177.83 326.83,169.33 330.00,164.00 C333.17,158.67 338.17,155.00 343.00,150.00 C347.83,145.00 355.00,136.83 359.00,134.00 C363.00,131.17 364.17,134.17 367.00,133.00 C369.83,131.83 369.50,128.17 376.00,127.00 C382.50,125.83 398.17,123.83 406.00,126.00 C413.83,128.17 419.50,137.50 423.00,140.00 C426.50,142.50 424.67,139.17 427.00,141.00 C429.33,142.83 433.83,149.00 437.00,151.00 C440.17,153.00 444.50,152.33 446.00,153.00 C447.50,153.67 446.00,154.67 446.00,155.00" fill="none" stroke="black" stroke-width="7.21" stroke-linecap="round" stroke-linejoin="round"/>
  <path d="M389.00,55.00 C388.50,57.50 387.33,66.50 386.00,70.00 C384.67,73.50 382.17,73.67 381.00,76.00 C379.83,78.33 379.33,79.50 379.00,84.00 C378.67,88.50 379.33,99.00 379.00,103.00 C378.67,107.00 377.33,104.00 377.00,108.00 C376.67,112.00 376.67,123.83 377.00,127.00 C377.33,130.17 378.67,127.00 379.00,127.00" fill="none" stroke="black" stroke-width="8.49" stroke-linecap="round" stroke-linejoin="round"/>
  <path d="M534.00,179.00 C537.67,175.83 551.67,165.33 556.00,160.00 C560.33,154.67 558.33,150.83 560.00,147.00 C561.67,143.17 565.17,140.50 566.00,137.00 C566.83,133.50 566.50,132.00 565.00,126.00 C563.50,120.00 560.67,107.50 557.00,101.00 C553.33,94.50 551.00,89.83 543.00,87.00 C535.00,84.17 515.83,85.17 509.00,84.00 C502.17,82.83 505.00,81.00 502.00,80.00 C499.00,79.00 495.33,77.83 491.00,78.00 C486.67,78.17 479.17,79.83 476.00,81.00 C472.83,82.17 474.17,83.83 472.00,85.00 C469.83,86.17 465.67,86.00 463.00,88.00 C460.33,90.00 458.00,92.33 456.00,97.00 C454.00,101.67 452.67,104.50 451.00,116.00 C449.33,127.50 444.67,157.17 446.00,166.00 C447.33,174.83 455.33,167.17 459.00,169.00 C462.67,170.83 465.67,176.00 468.00,177.00 C470.33,178.00 465.67,175.67 473.00,175.00 C480.33,174.33 501.83,172.33 512.00,173.00 C522.17,173.67 530.50,177.33 534.00,179.00 C537.50,180.67 530.33,178.67 533.00,183.00 C535.67,187.33 547.00,199.17 550.00,205.00 C553.00,210.83 551.50,213.17 551.00,218.00 C550.50,222.83 550.17,228.17 547.00,234.00 C543.83,239.83 537.33,248.33 532.00,253.00 C526.67,257.67 517.50,260.50 515.00,262.00 C512.50,263.50 517.17,261.50 517.00,262.00 C516.83,262.50 515.17,264.50 514.00,265.00 C512.83,265.50 512.17,264.00 510.00,265.00 C507.83,266.00 503.83,269.83 501.00,271.00 C498.17,272.17 496.50,270.17 493.00,272.00 C489.50,273.83 483.50,280.17 480.00,282.00 C476.50,283.83 475.00,281.50 472.00,283.00 C469.00,284.50 465.50,289.00 462.00,291.00 C458.50,293.00 459.83,296.00 451.00,295.00 C442.17,294.00 419.00,289.50 409.00,285.00 C399.00,280.50 394.83,272.67 391.00,268.00 C387.17,263.33 386.83,258.83 386.00,257.00" fill="none" stroke="black" stroke-width="8.00" stroke-linecap="round" stroke-linejoin="round"/>
  <path d="M208.00,101.00 C207.50,98.33 208.67,90.67 205.00,85.00 C201.33,79.33 194.50,69.83 186.00,67.00 C177.50,64.17 162.83,63.50 154.00,68.00 C145.17,72.50 136.33,84.00 133.00,94.00 C129.67,104.00 133.17,120.33 134.00,128.00 C134.83,135.67 139.17,136.33 138.00,140.00 C136.83,143.67 130.50,148.50 127.00,150.00 C123.50,151.50 121.00,148.00 117.00,149.00 C113.00,150.00 107.33,152.17 103.00,156.00 C98.67,159.83 93.67,169.17 91.00,172.00 C88.33,174.83 88.67,173.33 87.00,173.00 C85.33,172.67 83.33,171.67 81.00,170.00 C78.67,168.33 76.00,168.67 73.00,163.00 C70.00,157.33 64.67,144.67 63.00,136.00 C61.33,127.33 62.50,116.17 63.00,111.00 C63.50,105.83 63.33,108.00 66.00,105.00 C68.67,102.00 74.83,96.00 79.00,93.00 C83.17,90.00 85.67,88.00 91.00,87.00 C96.33,86.00 105.67,86.00 111.00,87.00 C116.33,88.00 119.50,92.00 123.00,93.00 C126.50,94.00 130.17,92.67 132.00,93.00 C133.83,93.33 133.67,94.67 134.00,95.00" fill="none" stroke="black" stroke-width="7.21" stroke-linecap="round" stroke-linejoin="round"/>
  <path d="M158.00,147.00 C159.00,145.83 162.50,143.50 164.00,140.00 C165.50,136.50 166.00,128.83 167.00,126.00 C168.00,123.17 168.00,123.67 170.00,123.00 C172.00,122.33 175.67,125.00 179.00,122.00 C182.33,119.00 186.00,108.00 190.00,105.00 C194.00,102.00 200.00,104.67 203.00,104.00 C206.00,103.33 204.00,101.17 208.00,101.00 C212.00,100.83 221.50,101.00 227.00,103.00 C232.50,105.00 237.50,109.50 241.00,113.00 C244.50,116.50 246.83,119.67 248.00,124.00 C249.17,128.33 248.67,134.67 248.00,139.00 C247.33,143.33 245.83,146.67 244.00,150.00 C242.17,153.33 239.50,156.33 237.00,159.00 C234.50,161.67 233.67,163.50 229.00,166.00 C224.33,168.50 215.50,172.33 209.00,174.00 C202.50,175.67 195.67,177.83 190.00,176.00 C184.33,174.17 180.17,165.33 175.00,163.00 C169.83,160.67 162.00,161.33 159.00,162.00 C156.00,162.67 159.00,166.33 157.00,167.00 C155.00,167.67 150.83,166.83 147.00,166.00 C143.17,165.17 137.00,163.50 134.00,162.00 C131.00,160.50 130.17,159.00 129.00,157.00 C127.83,155.00 127.33,151.17 127.00,150.00" fill="none" stroke="black" stroke-width="8.94" stroke-linecap="round" stroke-linejoin="round"/>
  <path d="M138.00,140.00 C138.67,140.50 139.83,142.50 142.00,143.00 C144.17,143.50 148.33,142.33 151.00,143.00 C153.67,143.67 156.67,144.00 158.00,147.00 C159.33,150.00 158.83,158.67 159.00,161.00" fill="none" stroke="black" stroke-width="18.11" stroke-linecap="round" stroke-linejoin="round"/>
  <path d="M229.00,166.00 C230.17,168.00 234.17,173.33 236.00,178.00 C237.83,182.67 239.33,187.33 240.00,194.00 C240.67,200.67 240.67,213.17 240.00,218.00 C239.33,222.83 236.50,221.50 236.00,223.00 C235.50,224.50 237.50,224.83 237.00,227.00 C236.50,229.17 237.00,232.50 233.00,236.00 C229.00,239.50 219.50,245.67 213.00,248.00 C206.50,250.33 199.50,250.33 194.00,250.00 C188.50,249.67 183.17,246.50 180.00,246.00 C176.83,245.50 177.83,248.83 175.00,247.00 C172.17,245.17 165.00,237.00 163.00,235.00" fill="none" stroke="black" stroke-width="8.00" stroke-linecap="round" stroke-linejoin="round"/>
  <path d="M156.00,167.00 C157.00,168.00 160.67,169.83 162.00,173.00 C163.33,176.17 161.33,181.67 164.00,186.00 C166.67,190.33 175.67,195.67 178.00,199.00 C180.33,202.33 178.50,203.50 178.00,206.00 C177.50,208.50 176.83,211.00 175.00,214.00 C173.17,217.00 169.00,220.50 167.00,224.00 C165.00,227.50 165.33,233.17 163.00,235.00 C160.67,236.83 156.33,234.17 153.00,235.00 C149.67,235.83 145.67,238.00 143.00,240.00 C140.33,242.00 138.00,246.17 137.00,247.00 C136.00,247.83 138.00,245.50 137.00,245.00 C136.00,244.50 135.00,244.17 131.00,244.00 C127.00,243.83 118.17,245.17 113.00,244.00 C107.83,242.83 104.17,240.33 100.00,237.00 C95.83,233.67 90.67,228.67 88.00,224.00 C85.33,219.33 84.50,214.17 84.00,209.00 C83.50,203.83 84.17,197.83 85.00,193.00 C85.83,188.17 88.50,183.33 89.00,180.00 C89.50,176.67 88.17,174.17 88.00,173.00" fill="none" stroke="black" stroke-width="8.00" stroke-linecap="round" stroke-linejoin="round"/>
  <path d="M319.00,190.00 C319.17,192.33 320.17,201.67 320.00,204.00 C319.83,206.33 318.33,204.00 318.00,204.00" fill="none" stroke="black" stroke-width="14.90" stroke-linecap="round" stroke-linejoin="round"/>
  <path d="M433.00,197.00 C430.67,198.67 426.00,200.17 419.00,207.00 C412.00,213.83 396.33,229.83 391.00,238.00 C385.67,246.17 388.17,252.50 387.00,256.00 C385.83,259.50 388.00,258.83 384.00,259.00 C380.00,259.17 368.67,258.17 363.00,257.00 C357.33,255.83 355.33,256.33 350.00,252.00 C344.67,247.67 334.50,235.67 331.00,231.00 C327.50,226.33 329.00,225.17 329.00,224.00 C329.00,222.83 331.33,224.33 331.00,224.00 C330.67,223.67 327.50,223.00 327.00,222.00 C326.50,221.00 328.33,218.83 328.00,218.00 C327.67,217.17 326.33,219.33 325.00,217.00 C323.67,214.67 323.17,205.33 320.00,204.00 C316.83,202.67 314.50,202.83 306.00,209.00 C297.50,215.17 284.00,224.50 269.00,241.00 C254.00,257.50 226.83,293.67 216.00,308.00 C205.17,322.33 206.17,322.67 204.00,327.00 C201.83,331.33 206.50,328.00 203.00,334.00 C199.50,340.00 187.00,356.00 183.00,363.00 C179.00,370.00 181.83,370.67 179.00,376.00 C176.17,381.33 169.00,389.17 166.00,395.00 C163.00,400.83 163.83,406.33 161.00,411.00 C158.17,415.67 151.00,421.00 149.00,423.00" fill="none" stroke="black" stroke-width="8.00" stroke-linecap="round" stroke-linejoin="round"/>
  <path d="M137.00,247.00 C136.83,249.17 136.83,256.67 136.00,260.00 C135.17,263.33 132.83,263.50 132.00,267.00 C131.17,270.50 131.50,278.33 131.00,281.00 C130.50,283.67 129.67,275.50 129.00,283.00 C128.33,290.50 126.67,315.83 127.00,326.00 C127.33,336.17 129.83,333.67 131.00,344.00 C132.17,354.33 132.17,376.00 134.00,388.00 C135.83,400.00 139.50,410.17 142.00,416.00 C144.50,421.83 148.17,421.33 149.00,423.00 C149.83,424.67 147.17,424.33 147.00,426.00 C146.83,427.67 148.50,427.33 148.00,433.00 C147.50,438.67 144.33,455.50 144.00,460.00 C143.67,464.50 145.67,460.00 146.00,460.00" fill="none" stroke="black" stroke-width="8.00" stroke-linecap="round" stroke-linejoin="round"/>
  <path d="M68.00,806.00 C65.83,807.67 58.83,813.83 55.00,816.00 C51.17,818.17 46.67,818.50 45.00,819.00" fill="none" stroke="black" stroke-width="22.49" stroke-linecap="round" stroke-linejoin="round"/>
</svg>
