<?xml version="1.0" encoding="UTF-8"?>
<svg xmlns="http://www.w3.org/2000/svg" viewBox="0 0 588 1053" width="588" height="1053">
  <path d="M42.00,89.00 C40.00,91.00 33.50,94.50 30.00,101.00 C26.50,107.50 22.50,121.83 21.00,128.00 C19.50,134.17 19.83,134.33 21.00,138.00 C22.17,141.67 26.50,146.50 28.00,150.00 C29.50,153.50 25.67,154.00 30.00,159.00 C34.33,164.00 46.50,177.67 54.00,180.00 C61.50,182.33 64.33,173.67 75.00,173.00 C85.67,172.33 109.17,176.67 118.00,176.00 C126.83,175.33 124.67,170.50 128.00,169.00 C131.33,167.50 135.67,169.50 138.00,167.00 C140.33,164.50 142.00,157.00 142.00,154.00 C142.00,151.00 138.83,154.00 138.00,149.00 C137.17,144.00 138.33,133.00 137.00,124.00 C135.67,115.00 132.17,101.00 130.00,95.00 C127.83,89.00 126.50,89.67 124.00,88.00 C121.50,86.33 117.17,86.17 115.00,85.00 C112.83,83.83 113.83,82.17 111.00,81.00 C108.17,79.83 102.33,78.17 98.00,78.00 C93.67,77.83 88.33,79.00 85.00,80.00 C81.67,81.00 84.83,82.83 78.00,84.00 C71.17,85.17 50.00,86.17 44.00,87.00 C38.00,87.83 42.83,90.83 42.00,89.00 C41.17,87.17 38.50,80.67 39.00,76.00 C39.50,71.33 40.17,67.33 45.00,61.00 C49.83,54.67 63.00,42.33 68.00,38.00 C73.00,33.67 73.67,35.17 75.00,35.00 C76.33,34.83 76.17,36.83 76.00,37.00 C75.83,37.17 73.33,37.33 74.00,36.00 C74.67,34.67 78.33,30.17 80.00,29.00 C81.67,27.83 81.33,30.50 84.00,29.00 C86.67,27.50 89.33,21.83 96.00,20.00 C102.67,18.17 116.00,18.17 124.00,18.00 C132.00,17.83 137.17,17.00 144.00,19.00 C150.83,21.00 158.83,25.67 165.00,30.00 C171.17,34.33 177.50,42.33 181.00,45.00 C184.50,47.67 183.17,44.33 186.00,46.00 C188.83,47.67 196.00,53.50 198.00,55.00" fill="none" stroke="black" stroke-width="8.00" stroke-linecap="round" stroke-linejoin="round"/>
  <path d="M151.00,179.00 C151.33,182.00 154.83,193.50 153.00,197.00 C151.17,200.50 144.83,200.33 140.00,200.00 C135.17,199.67 127.17,196.33 124.00,195.00 C120.83,193.67 122.17,195.17 121.00,192.00 C119.83,188.83 117.67,178.67 117.00,176.00" fill="none" stroke="black" stroke-width="10.00" stroke-linecap="round" stroke-linejoin="round"/>
  <path d="M554.00,1037.00 C554.50,1036.00 556.33,1035.33 557.00,1031.00 C557.67,1026.67 557.17,1016.00 558.00,1011.00 C558.83,1006.00 561.17,1014.33 562.00,1001.00 C562.83,987.67 564.50,959.00 563.00,931.00 C561.50,903.00 556.67,851.83 553.00,833.00 C549.33,814.17 541.67,822.17 541.00,818.00 C540.33,813.83 547.67,810.83 549.00,808.00 C550.33,805.17 551.00,811.17 549.00,801.00 C547.00,790.83 539.17,758.67 537.00,747.00 C534.83,735.33 538.50,743.17 536.00,731.00 C533.50,718.83 524.50,685.83 522.00,674.00 C519.50,662.17 521.67,662.67 521.00,660.00 C520.33,657.33 518.67,659.50 518.00,658.00 C517.33,656.50 518.50,654.50 517.00,651.00 C515.50,647.50 511.17,644.17 509.00,637.00 C506.83,629.83 505.67,614.00 504.00,608.00 C502.33,602.00 501.00,607.00 499.00,601.00 C497.00,595.00 494.17,578.67 492.00,572.00 C489.83,565.33 487.33,565.00 486.00,561.00 C484.67,557.00 486.67,555.67 484.00,548.00 C481.33,540.33 472.50,522.00 470.00,515.00 C467.50,508.00 470.17,509.00 469.00,506.00 C467.83,503.00 464.83,501.67 463.00,497.00 C461.17,492.33 460.33,483.67 458.00,478.00 C455.67,472.33 451.50,466.00 449.00,463.00 C446.50,460.00 444.33,461.17 443.00,460.00 C441.67,458.83 441.67,459.33 441.00,456.00 C440.33,452.67 439.17,445.50 439.00,440.00 C438.83,434.50 440.17,425.83 440.00,423.00 C439.83,420.17 437.50,423.50 438.00,423.00 C438.50,422.50 441.00,424.17 443.00,420.00 C445.00,415.83 448.33,405.17 450.00,398.00 C451.67,390.83 452.17,380.83 453.00,377.00 C453.83,373.17 454.50,381.17 455.00,375.00 C455.50,368.83 455.33,347.17 456.00,340.00 C456.67,332.83 458.67,341.33 459.00,332.00 C459.33,322.67 458.67,294.83 458.00,284.00 C457.33,273.17 456.33,271.33 455.00,267.00 C453.67,262.67 450.67,261.50 450.00,258.00 C449.33,254.50 450.83,248.00 451.00,246.00" fill="none" stroke="black" stroke-width="7.21" stroke-linecap="round" stroke-linejoin="round"/>
  <path d="M269.00,189.00 C270.83,187.33 277.83,182.67 280.00,179.00 C282.17,175.33 281.00,170.00 282.00,167.00 C283.00,164.00 284.83,165.17 286.00,161.00 C287.17,156.83 288.83,148.67 289.00,142.00 C289.17,135.33 289.33,127.83 287.00,121.00 C284.67,114.17 277.17,106.00 275.00,101.00 C272.83,96.00 276.17,95.00 274.00,91.00 C271.83,87.00 267.33,81.67 262.00,77.00 C256.67,72.33 250.00,67.17 242.00,63.00 C234.00,58.83 221.00,53.67 214.00,52.00 C207.00,50.33 202.67,52.50 200.00,53.00 C197.33,53.50 198.17,53.33 198.00,55.00 C197.83,56.67 198.50,60.50 199.00,63.00 C199.50,65.50 199.67,67.50 201.00,70.00 C202.33,72.50 205.83,75.50 207.00,78.00 C208.17,80.50 207.50,79.00 208.00,85.00 C208.50,91.00 210.00,107.00 210.00,114.00 C210.00,121.00 206.33,123.83 208.00,127.00 C209.67,130.17 216.67,131.83 220.00,133.00 C223.33,134.17 221.83,128.83 228.00,134.00 C234.17,139.17 251.00,155.50 257.00,164.00 C263.00,172.50 262.00,180.83 264.00,185.00 C266.00,189.17 268.17,185.83 269.00,189.00 C269.83,192.17 269.33,201.50 269.00,204.00 C268.67,206.50 267.33,204.00 267.00,204.00" fill="none" stroke="black" stroke-width="8.25" stroke-linecap="round" stroke-linejoin="round"/>
  <path d="M379.00,101.00 C379.67,98.00 379.33,88.67 383.00,83.00 C386.67,77.33 392.67,69.50 401.00,67.00 C409.33,64.50 425.33,65.17 433.00,68.00 C440.67,70.83 443.67,79.50 447.00,84.00 C450.33,88.50 451.67,93.50 453.00,95.00 C454.33,96.50 453.17,93.33 455.00,93.00 C456.83,92.67 460.50,94.00 464.00,93.00 C467.50,92.00 470.17,87.83 476.00,87.00 C481.83,86.17 493.00,86.50 499.00,88.00 C505.00,89.50 507.83,92.33 512.00,96.00 C516.17,99.67 522.00,103.67 524.00,110.00 C526.00,116.33 525.00,126.50 524.00,134.00 C523.00,141.50 520.00,149.83 518.00,155.00 C516.00,160.17 514.00,162.50 512.00,165.00 C510.00,167.50 508.50,168.67 506.00,170.00 C503.50,171.33 500.67,175.33 497.00,173.00 C493.33,170.67 488.67,160.00 484.00,156.00 C479.33,152.00 473.00,150.00 469.00,149.00 C465.00,148.00 463.00,151.50 460.00,150.00 C457.00,148.50 453.50,141.17 451.00,140.00 C448.50,138.83 448.00,142.33 445.00,143.00 C442.00,143.67 435.67,143.17 433.00,144.00 C430.33,144.83 430.67,148.50 429.00,148.00 C427.33,147.50 424.50,144.50 423.00,141.00 C421.50,137.50 421.50,130.17 420.00,127.00 C418.50,123.83 416.00,122.83 414.00,122.00 C412.00,121.17 410.83,124.83 408.00,122.00 C405.17,119.17 401.00,108.00 397.00,105.00 C393.00,102.00 387.00,104.67 384.00,104.00 C381.00,103.33 383.83,100.83 379.00,101.00 C374.17,101.17 361.17,102.33 355.00,105.00 C348.83,107.67 344.67,113.83 342.00,117.00 C339.33,120.17 339.67,121.00 339.00,124.00 C338.33,127.00 337.33,130.67 338.00,135.00 C338.67,139.33 340.00,145.33 343.00,150.00 C346.00,154.67 353.67,160.17 356.00,163.00 C358.33,165.83 356.83,166.33 357.00,167.00" fill="none" stroke="black" stroke-width="7.21" stroke-linecap="round" stroke-linejoin="round"/>
  <path d="M453.00,95.00 C453.00,100.67 453.67,121.50 453.00,129.00 C452.33,136.50 449.33,138.17 449.00,140.00 C448.67,141.83 450.67,140.00 451.00,140.00" fill="none" stroke="black" stroke-width="8.94" stroke-linecap="round" stroke-linejoin="round"/>
  <path d="M210.00,127.00 C205.17,126.83 188.67,123.83 181.00,126.00 C173.33,128.17 167.67,137.50 164.00,140.00 C160.33,142.50 161.33,139.17 159.00,141.00 C156.67,142.83 152.83,148.83 150.00,151.00 C147.17,153.17 143.33,153.50 142.00,154.00" fill="none" stroke="black" stroke-width="8.00" stroke-linecap="round" stroke-linejoin="round"/>
  <path d="M430.00,147.00 C429.67,149.67 431.00,160.17 428.00,163.00 C425.00,165.83 417.17,161.83 412.00,164.00 C406.83,166.17 402.67,174.33 397.00,176.00 C391.33,177.67 382.67,175.00 378.00,174.00 C373.33,173.00 370.67,171.17 369.00,170.00 C367.33,168.83 370.00,167.50 368.00,167.00 C366.00,166.50 359.83,165.17 357.00,167.00 C354.17,168.83 352.67,173.67 351.00,178.00 C349.33,182.33 347.67,186.17 347.00,193.00 C346.33,199.83 346.33,213.83 347.00,219.00 C347.67,224.17 350.50,222.67 351.00,224.00 C351.50,225.33 349.33,224.83 350.00,227.00 C350.67,229.17 351.00,233.50 355.00,237.00 C359.00,240.50 369.50,245.83 374.00,248.00 C378.50,250.17 378.83,249.67 382.00,250.00 C385.17,250.33 387.67,251.00 393.00,250.00 C398.33,249.00 408.83,246.83 414.00,244.00 C419.17,241.17 424.67,238.67 424.00,233.00 C423.33,227.33 412.50,215.83 410.00,210.00 C407.50,204.17 406.83,202.17 409.00,198.00 C411.17,193.83 420.17,189.67 423.00,185.00 C425.83,180.33 425.00,173.00 426.00,170.00 C427.00,167.00 424.17,168.50 429.00,167.00 C433.83,165.50 449.83,163.83 455.00,161.00 C460.17,158.17 459.17,151.83 460.00,150.00" fill="none" stroke="black" stroke-width="8.00" stroke-linecap="round" stroke-linejoin="round"/>
  <path d="M428.00,163.00 C428.17,163.67 428.33,166.17 429.00,167.00 C429.67,167.83 431.50,167.83 432.00,168.00" fill="none" stroke="black" stroke-width="22.58" stroke-linecap="round" stroke-linejoin="round"/>
  <path d="M497.00,173.00 C497.33,173.00 498.83,170.83 499.00,173.00 C499.17,175.17 497.50,182.67 498.00,186.00 C498.50,189.33 501.17,190.00 502.00,193.00 C502.83,196.00 503.33,199.00 503.00,204.00 C502.67,209.00 501.33,218.83 500.00,223.00 C498.67,227.17 495.50,228.00 495.00,229.00 C494.50,230.00 500.50,226.50 497.00,229.00 C493.50,231.50 480.83,241.50 474.00,244.00 C467.17,246.50 459.83,243.67 456.00,244.00 C452.17,244.33 453.83,247.17 451.00,246.00 C448.17,244.83 443.50,239.17 439.00,237.00 C434.50,234.83 426.50,233.67 424.00,233.00" fill="none" stroke="black" stroke-width="7.21" stroke-linecap="round" stroke-linejoin="round"/>
  <path d="M54.00,180.00 C51.17,184.00 40.17,198.83 37.00,204.00 C33.83,209.17 34.67,206.50 35.00,211.00 C35.33,215.50 37.50,226.00 39.00,231.00 C40.50,236.00 41.83,237.83 44.00,241.00 C46.17,244.17 47.00,246.00 52.00,250.00 C57.00,254.00 68.33,261.50 74.00,265.00 C79.67,268.50 82.67,269.83 86.00,271.00 C89.33,272.17 90.50,270.17 94.00,272.00 C97.50,273.83 103.50,280.17 107.00,282.00 C110.50,283.83 112.17,281.50 115.00,283.00 C117.83,284.50 120.50,289.00 124.00,291.00 C127.50,293.00 126.83,296.00 136.00,295.00 C145.17,294.00 169.00,289.50 179.00,285.00 C189.00,280.50 192.50,272.67 196.00,268.00 C199.50,263.33 195.33,258.83 200.00,257.00 C204.67,255.17 217.83,257.83 224.00,257.00 C230.17,256.17 231.67,256.33 237.00,252.00 C242.33,247.67 251.17,238.83 256.00,231.00 C260.83,223.17 262.33,209.00 266.00,205.00 C269.67,201.00 270.17,201.83 278.00,207.00 C285.83,212.17 297.67,219.33 313.00,236.00 C328.33,252.67 359.00,293.00 370.00,307.00 C381.00,321.00 376.67,315.50 379.00,320.00 C381.33,324.50 380.00,327.00 384.00,334.00 C388.00,341.00 399.17,355.17 403.00,362.00 C406.83,368.83 403.83,369.17 407.00,375.00 C410.17,380.83 418.67,390.67 422.00,397.00 C425.33,403.33 425.00,409.00 427.00,413.00 C429.00,417.00 432.00,419.33 434.00,421.00 C436.00,422.67 438.17,422.67 439.00,423.00" fill="none" stroke="black" stroke-width="8.00" stroke-linecap="round" stroke-linejoin="round"/>
  <path d="M153.00,196.00 C155.33,197.67 163.17,202.17 167.00,206.00 C170.83,209.83 173.33,216.17 176.00,219.00 C178.67,221.83 179.83,220.00 183.00,223.00 C186.17,226.00 192.17,231.00 195.00,237.00 C197.83,243.00 199.17,255.33 200.00,259.00" fill="none" stroke="black" stroke-width="8.25" stroke-linecap="round" stroke-linejoin="round"/>
  <path d="M441.00,460.00 C441.33,460.00 443.50,459.50 443.00,460.00 C442.50,460.50 439.17,461.50 438.00,463.00 C436.83,464.50 436.67,465.17 436.00,469.00 C435.33,472.83 434.17,480.00 434.00,486.00 C433.83,492.00 435.17,500.83 435.00,505.00 C434.83,509.17 432.17,495.17 433.00,511.00 C433.83,526.83 437.83,581.67 440.00,600.00 C442.17,618.33 444.17,612.33 446.00,621.00 C447.83,629.67 449.33,645.50 451.00,652.00 C452.67,658.50 455.00,656.67 456.00,660.00 C457.00,663.33 455.67,668.00 457.00,672.00 C458.33,676.00 462.67,680.33 464.00,684.00 C465.33,687.67 463.33,690.17 465.00,694.00 C466.67,697.83 472.33,702.83 474.00,707.00 C475.67,711.17 472.50,713.83 475.00,719.00 C477.50,724.17 485.67,732.33 489.00,738.00 C492.33,743.67 492.33,748.00 495.00,753.00 C497.67,758.00 503.17,764.00 505.00,768.00 C506.83,772.00 506.17,775.17 506.00,777.00 C505.83,778.83 505.83,779.33 504.00,779.00 C502.17,778.67 498.83,778.17 495.00,775.00 C491.17,771.83 485.50,767.00 481.00,760.00 C476.50,753.00 473.00,741.67 468.00,733.00 C463.00,724.33 454.33,713.83 451.00,708.00 C447.67,702.17 454.00,707.33 448.00,698.00 C442.00,688.67 420.83,661.00 415.00,652.00 C409.17,643.00 415.17,647.50 413.00,644.00 C410.83,640.50 405.33,636.33 402.00,631.00 C398.67,625.67 397.50,618.17 393.00,612.00 C388.50,605.83 378.83,598.33 375.00,594.00 C371.17,589.67 371.67,587.83 370.00,586.00 C368.33,584.17 366.17,584.33 365.00,583.00 C363.83,581.67 369.50,585.83 363.00,578.00 C356.50,570.17 333.83,544.17 326.00,536.00 C318.17,527.83 319.17,530.33 316.00,529.00 C312.83,527.67 308.50,528.50 307.00,528.00 C305.50,527.50 306.83,524.17 307.00,526.00 C307.17,527.83 306.67,534.33 308.00,539.00 C309.33,543.67 312.67,548.00 315.00,554.00 C317.33,560.00 320.83,570.33 322.00,575.00 C323.17,579.67 319.83,575.33 322.00,582.00 C324.17,588.67 331.67,605.33 335.00,615.00 C338.33,624.67 334.67,624.67 342.00,640.00 C349.33,655.33 368.33,690.67 379.00,707.00 C389.67,723.33 400.50,732.00 406.00,738.00 C411.50,744.00 410.67,742.33 412.00,743.00 C413.33,743.67 413.00,741.17 414.00,742.00 C415.00,742.83 411.83,743.83 418.00,748.00 C424.17,752.17 441.83,760.67 451.00,767.00 C460.17,773.33 464.67,779.67 473.00,786.00 C481.33,792.33 493.67,801.33 501.00,805.00 C508.33,808.67 514.00,807.83 517.00,808.00 C520.00,808.17 519.00,808.17 519.00,806.00 C519.00,803.83 519.33,799.67 517.00,795.00 C514.67,790.33 507.00,780.83 505.00,778.00" fill="none" stroke="black" stroke-width="8.49" stroke-linecap="round" stroke-linejoin="round"/>
  <path d="M518.00,807.00 C518.67,807.00 519.67,805.50 522.00,807.00 C524.33,808.50 528.67,814.00 532.00,816.00 C535.33,818.00 540.33,818.50 542.00,819.00" fill="none" stroke="black" stroke-width="22.49" stroke-linecap="round" stroke-linejoin="round"/>
</svg>
