<?xml version="1.0" encoding="UTF-8"?>
<svg xmlns="http://www.w3.org/2000/svg" viewBox="0 0 232 656" width="232" height="656">
  <path d="M64.00,5.00 C62.83,8.17 59.67,19.33 57.00,24.00 C54.33,28.67 50.67,26.33 48.00,33.00 C45.33,39.67 42.33,55.33 41.00,64.00 C39.67,72.67 39.50,78.67 40.00,85.00 C40.50,91.33 42.50,98.17 44.00,102.00 C45.50,105.83 48.17,106.33 49.00,108.00 C49.83,109.67 52.83,99.33 49.00,112.00 C45.17,124.67 32.00,162.00 26.00,184.00 C20.00,206.00 15.50,229.67 13.00,244.00 C10.50,258.33 12.00,262.83 11.00,270.00 C10.00,277.17 7.83,271.33 7.00,287.00 C6.17,302.67 6.00,343.83 6.00,364.00 C6.00,384.17 4.50,385.67 7.00,408.00 C9.50,430.33 14.00,466.83 21.00,498.00 C28.00,529.17 40.50,570.17 49.00,595.00 C57.50,619.83 68.17,638.33 72.00,647.00" fill="none" stroke="black" stroke-width="4.00" stroke-linecap="round" stroke-linejoin="round"/>
  <path d="M57.00,24.00 C57.33,24.50 58.83,17.83 59.00,27.00 C59.17,36.17 57.83,69.83 58.00,79.00 C58.17,88.17 58.17,82.83 60.00,82.00 C61.83,81.17 64.67,80.83 69.00,74.00 C73.33,67.17 81.00,48.83 86.00,41.00 C91.00,33.17 95.17,30.17 99.00,27.00 C102.83,23.83 105.17,22.83 109.00,22.00 C112.83,21.17 118.50,21.00 122.00,22.00 C125.50,23.00 128.00,26.00 130.00,28.00 C132.00,30.00 133.00,31.17 134.00,34.00 C135.00,36.83 134.83,43.17 136.00,45.00 C137.17,46.83 139.17,44.00 141.00,45.00 C142.83,46.00 145.67,47.83 147.00,51.00 C148.33,54.17 148.67,61.83 149.00,64.00" fill="none" stroke="black" stroke-width="4.47" stroke-linecap="round" stroke-linejoin="round"/>
  <path d="M136.00,45.00 C135.33,47.00 131.83,53.17 132.00,57.00 C132.17,60.83 134.17,66.83 137.00,68.00 C139.83,69.17 144.83,62.67 149.00,64.00 C153.17,65.33 158.33,74.00 162.00,76.00 C165.67,78.00 166.50,74.17 171.00,76.00 C175.50,77.83 182.83,82.33 189.00,87.00 C195.17,91.67 202.50,96.83 208.00,104.00 C213.50,111.17 219.33,122.83 222.00,130.00 C224.67,137.17 224.17,143.67 224.00,147.00 C223.83,150.33 222.33,149.67 221.00,150.00 C219.67,150.33 219.33,150.33 216.00,149.00 C212.67,147.67 205.67,144.83 201.00,142.00 C196.33,139.17 191.00,133.83 188.00,132.00 C185.00,130.17 184.50,128.17 183.00,131.00 C181.50,133.83 181.17,143.50 179.00,149.00 C176.83,154.50 174.33,162.17 170.00,164.00 C165.67,165.83 158.33,165.17 153.00,160.00 C147.67,154.83 141.17,143.33 138.00,133.00 C134.83,122.67 135.17,104.67 134.00,98.00 C132.83,91.33 131.50,93.83 131.00,93.00" fill="none" stroke="black" stroke-width="4.47" stroke-linecap="round" stroke-linejoin="round"/>
  <path d="M137.00,68.00 C136.50,71.17 136.00,82.00 134.00,87.00 C132.00,92.00 127.33,93.50 125.00,98.00 C122.67,102.50 121.00,104.67 120.00,114.00 C119.00,123.33 118.00,144.17 119.00,154.00 C120.00,163.83 123.50,168.33 126.00,173.00 C128.50,177.67 131.83,180.67 134.00,182.00 C136.17,183.33 136.83,182.50 139.00,181.00 C141.17,179.50 144.67,176.33 147.00,173.00 C149.33,169.67 152.00,163.00 153.00,161.00" fill="none" stroke="black" stroke-width="4.47" stroke-linecap="round" stroke-linejoin="round"/>
  <path d="M162.00,76.00 C162.33,77.33 161.67,79.50 164.00,84.00 C166.33,88.50 172.83,95.33 176.00,103.00 C179.17,110.67 181.83,125.50 183.00,130.00" fill="none" stroke="black" stroke-width="4.00" stroke-linecap="round" stroke-linejoin="round"/>
  <path d="M60.00,82.00 C58.83,85.67 55.00,99.83 53.00,104.00 C51.00,108.17 48.50,106.50 48.00,107.00 C47.50,107.50 49.67,107.00 50.00,107.00" fill="none" stroke="black" stroke-width="8.25" stroke-linecap="round" stroke-linejoin="round"/>
</svg>
