<?xml version="1.0" encoding="UTF-8"?>
<svg xmlns="http://www.w3.org/2000/svg" viewBox="0 0 334 656" width="334" height="656">
  <path d="M166.00,5.00 C164.83,8.17 161.67,19.33 159.00,24.00 C156.33,28.67 152.67,26.33 150.00,33.00 C147.33,39.67 144.33,55.33 143.00,64.00 C141.67,72.67 141.50,78.67 142.00,85.00 C142.50,91.33 144.67,98.33 146.00,102.00 C147.33,105.67 148.50,106.67 150.00,107.00 C151.50,107.33 153.00,108.17 155.00,104.00 C157.00,99.83 160.83,85.67 162.00,82.00" fill="none" stroke="black" stroke-width="4.00" stroke-linecap="round" stroke-linejoin="round"/>
  <path d="M195.00,211.00 C194.67,213.50 194.50,222.50 193.00,226.00 C191.50,229.50 191.50,222.00 186.00,232.00 C180.50,242.00 165.00,274.83 160.00,286.00 C155.00,297.17 157.33,293.50 156.00,299.00 C154.67,304.50 152.67,309.50 152.00,319.00 C151.33,328.50 151.33,348.83 152.00,356.00 C152.67,363.17 155.33,361.00 156.00,362.00" fill="none" stroke="black" stroke-width="4.47" stroke-linecap="round" stroke-linejoin="round"/>
  <path d="M172.00,555.00 C172.50,551.67 174.50,546.33 175.00,535.00 C175.50,523.67 176.17,503.33 175.00,487.00 C173.83,470.67 171.17,453.00 168.00,437.00 C164.83,421.00 158.17,401.50 156.00,391.00 C153.83,380.50 157.17,378.50 155.00,374.00 C152.83,369.50 146.83,369.83 143.00,364.00 C139.17,358.17 135.67,346.17 132.00,339.00 C128.33,331.83 123.67,325.00 121.00,321.00 C118.33,317.00 117.67,316.33 116.00,315.00 C114.33,313.67 111.83,313.33 111.00,313.00" fill="none" stroke="black" stroke-width="4.00" stroke-linecap="round" stroke-linejoin="round"/>
  <path d="M174.00,647.00 C169.33,635.83 153.67,601.33 146.00,580.00 C138.33,558.67 132.67,537.00 128.00,519.00 C123.33,501.00 121.17,490.50 118.00,472.00 C114.83,453.50 110.67,430.33 109.00,408.00 C107.33,385.67 108.00,353.33 108.00,338.00 C108.00,322.67 108.50,320.33 109.00,316.00 C109.50,311.67 111.17,316.33 111.00,312.00 C110.83,307.67 108.50,293.67 108.00,290.00" fill="none" stroke="black" stroke-width="4.00" stroke-linecap="round" stroke-linejoin="round"/>
  <path d="M159.00,24.00 C159.33,24.50 160.83,17.83 161.00,27.00 C161.17,36.17 159.83,69.83 160.00,79.00 C160.17,88.17 160.17,82.83 162.00,82.00 C163.83,81.17 166.67,80.83 171.00,74.00 C175.33,67.17 183.00,48.83 188.00,41.00 C193.00,33.17 197.17,30.17 201.00,27.00 C204.83,23.83 207.17,22.83 211.00,22.00 C214.83,21.17 220.50,21.00 224.00,22.00 C227.50,23.00 230.00,26.00 232.00,28.00 C234.00,30.00 235.00,31.17 236.00,34.00 C237.00,36.83 236.83,43.17 238.00,45.00 C239.17,46.83 241.17,44.00 243.00,45.00 C244.83,46.00 247.67,47.83 249.00,51.00 C250.33,54.17 250.67,61.83 251.00,64.00" fill="none" stroke="black" stroke-width="4.47" stroke-linecap="round" stroke-linejoin="round"/>
  <path d="M238.00,45.00 C237.33,47.00 233.83,53.17 234.00,57.00 C234.17,60.83 236.17,66.83 239.00,68.00 C241.83,69.17 246.83,62.67 251.00,64.00 C255.17,65.33 260.33,74.00 264.00,76.00 C267.67,78.00 268.50,74.17 273.00,76.00 C277.50,77.83 284.83,82.33 291.00,87.00 C297.17,91.67 304.50,96.83 310.00,104.00 C315.50,111.17 321.33,122.83 324.00,130.00 C326.67,137.17 326.17,143.67 326.00,147.00 C325.83,150.33 324.33,149.67 323.00,150.00 C321.67,150.33 321.33,150.33 318.00,149.00 C314.67,147.67 307.67,144.83 303.00,142.00 C298.33,139.17 293.00,133.83 290.00,132.00 C287.00,130.17 286.50,128.17 285.00,131.00 C283.50,133.83 283.17,143.50 281.00,149.00 C278.83,154.50 276.33,162.17 272.00,164.00 C267.67,165.83 260.33,165.17 255.00,160.00 C249.67,154.83 243.17,143.33 240.00,133.00 C236.83,122.67 237.17,104.67 236.00,98.00 C234.83,91.33 233.50,93.83 233.00,93.00" fill="none" stroke="black" stroke-width="4.47" stroke-linecap="round" stroke-linejoin="round"/>
  <path d="M239.00,68.00 C238.50,71.17 238.00,82.00 236.00,87.00 C234.00,92.00 229.33,93.50 227.00,98.00 C224.67,102.50 223.00,104.67 222.00,114.00 C221.00,123.33 220.00,144.17 221.00,154.00 C222.00,163.83 225.50,168.33 228.00,173.00 C230.50,177.67 233.83,180.67 236.00,182.00 C238.17,183.33 238.83,182.50 241.00,181.00 C243.17,179.50 246.67,176.33 249.00,173.00 C251.33,169.67 254.00,163.00 255.00,161.00" fill="none" stroke="black" stroke-width="4.47" stroke-linecap="round" stroke-linejoin="round"/>
  <path d="M264.00,76.00 C264.33,77.33 263.67,79.50 266.00,84.00 C268.33,88.50 274.83,95.33 278.00,103.00 C281.17,110.67 283.83,125.50 285.00,130.00" fill="none" stroke="black" stroke-width="4.00" stroke-linecap="round" stroke-linejoin="round"/>
  <path d="M152.00,107.00 C151.67,107.00 150.50,104.50 150.00,107.00 C149.50,109.50 151.17,114.17 149.00,122.00 C146.83,129.83 141.33,140.50 137.00,154.00 C132.67,167.50 126.83,187.00 123.00,203.00 C119.17,219.00 116.00,236.50 114.00,250.00 C112.00,263.50 112.17,277.17 111.00,284.00 C109.83,290.83 109.50,291.67 107.00,291.00 C104.50,290.33 104.50,293.83 96.00,280.00 C87.50,266.17 64.33,221.67 56.00,208.00 C47.67,194.33 47.67,199.67 46.00,198.00" fill="none" stroke="black" stroke-width="4.00" stroke-linecap="round" stroke-linejoin="round"/>
  <path d="M74.00,164.00 C73.67,166.17 71.67,172.50 72.00,177.00 C72.33,181.50 72.83,185.00 76.00,191.00 C79.17,197.00 86.50,207.83 91.00,213.00 C95.50,218.17 100.67,220.83 103.00,222.00 C105.33,223.17 104.67,223.67 105.00,220.00 C105.33,216.33 106.17,206.33 105.00,200.00 C103.83,193.67 101.50,187.67 98.00,182.00 C94.50,176.33 88.00,169.00 84.00,166.00 C80.00,163.00 77.00,167.00 74.00,164.00 C71.00,161.00 68.83,152.17 66.00,148.00 C63.17,143.83 60.00,141.33 57.00,139.00 C54.00,136.67 50.50,134.67 48.00,134.00 C45.50,133.33 43.83,133.50 42.00,135.00 C40.17,136.50 37.67,138.33 37.00,143.00 C36.33,147.67 37.17,158.00 38.00,163.00 C38.83,168.00 41.50,170.00 42.00,173.00 C42.50,176.00 42.17,180.00 41.00,181.00 C39.83,182.00 38.17,181.00 35.00,179.00 C31.83,177.00 25.33,170.67 22.00,169.00 C18.67,167.33 16.17,169.33 15.00,169.00 C13.83,168.67 15.17,166.50 15.00,167.00 C14.83,167.50 13.67,169.83 14.00,172.00 C14.33,174.17 14.33,176.50 17.00,180.00 C19.67,183.50 26.50,190.00 30.00,193.00 C33.50,196.00 35.00,197.17 38.00,198.00 C41.00,198.83 46.67,199.50 48.00,198.00 C49.33,196.50 47.33,191.83 46.00,189.00 C44.67,186.17 41.00,182.33 40.00,181.00" fill="none" stroke="black" stroke-width="4.47" stroke-linecap="round" stroke-linejoin="round"/>
  <path d="M193.00,226.00 C193.50,226.67 195.50,227.83 196.00,230.00 C196.50,232.17 196.50,236.50 196.00,239.00 C195.50,241.50 193.67,241.33 193.00,245.00 C192.33,248.67 192.83,256.83 192.00,261.00 C191.17,265.17 188.83,266.83 188.00,270.00 C187.17,273.17 190.17,270.50 187.00,280.00 C183.83,289.50 172.83,315.33 169.00,327.00 C165.17,338.67 166.17,344.17 164.00,350.00 C161.83,355.83 157.50,358.00 156.00,362.00 C154.50,366.00 155.17,372.00 155.00,374.00" fill="none" stroke="black" stroke-width="4.00" stroke-linecap="round" stroke-linejoin="round"/>
</svg>
