<?xml version="1.0" encoding="UTF-8"?>
<svg xmlns="http://www.w3.org/2000/svg" viewBox="0 0 232 656" width="232" height="656">
  <path d="M167.00,5.00 C168.00,8.17 170.67,20.00 173.00,24.00 C175.33,28.00 178.83,25.67 181.00,29.00 C183.17,32.33 184.50,37.33 186.00,44.00 C187.50,50.67 189.33,61.50 190.00,69.00 C190.67,76.50 190.67,83.17 190.00,89.00 C189.33,94.83 187.50,101.00 186.00,104.00 C184.50,107.00 181.67,105.17 181.00,107.00 C180.33,108.83 178.83,105.00 182.00,115.00 C185.17,125.00 197.00,157.17 200.00,167.00 C203.00,176.83 198.67,169.17 200.00,174.00 C201.33,178.83 205.00,184.17 208.00,196.00 C211.00,207.83 216.17,232.83 218.00,245.00 C219.83,257.17 218.17,262.33 219.00,269.00 C219.83,275.67 222.17,264.50 223.00,285.00 C223.83,305.50 224.83,363.83 224.00,392.00 C223.17,420.17 221.33,432.50 218.00,454.00 C214.67,475.50 210.17,497.33 204.00,521.00 C197.83,544.67 188.67,574.83 181.00,596.00 C173.33,617.17 161.83,639.33 158.00,648.00" fill="none" stroke="black" stroke-width="4.00" stroke-linecap="round" stroke-linejoin="round"/>
  <path d="M174.00,24.00 C173.67,24.33 172.17,17.00 172.00,26.00 C171.83,35.00 173.17,68.83 173.00,78.00 C172.83,87.17 171.83,80.50 171.00,81.00 C170.17,81.50 169.33,81.83 168.00,81.00 C166.67,80.17 166.67,82.33 163.00,76.00 C159.33,69.67 151.00,51.00 146.00,43.00 C141.00,35.00 137.00,31.50 133.00,28.00 C129.00,24.50 126.50,22.83 122.00,22.00 C117.50,21.17 110.00,21.33 106.00,23.00 C102.00,24.67 99.83,28.67 98.00,32.00 C96.17,35.33 97.33,39.83 95.00,43.00 C92.67,46.17 86.00,47.33 84.00,51.00 C82.00,54.67 84.33,62.17 83.00,65.00 C81.67,67.83 78.33,66.17 76.00,68.00 C73.67,69.83 71.67,74.67 69.00,76.00 C66.33,77.33 64.33,74.33 60.00,76.00 C55.67,77.67 49.33,81.17 43.00,86.00 C36.67,90.83 28.00,97.00 22.00,105.00 C16.00,113.00 9.67,127.33 7.00,134.00 C4.33,140.67 5.50,142.33 6.00,145.00 C6.50,147.67 8.50,149.33 10.00,150.00 C11.50,150.67 8.83,152.17 15.00,149.00 C21.17,145.83 41.67,134.00 47.00,131.00" fill="none" stroke="black" stroke-width="4.47" stroke-linecap="round" stroke-linejoin="round"/>
  <path d="M94.00,44.00 C94.67,45.17 97.33,48.33 98.00,51.00 C98.67,53.67 98.83,57.33 98.00,60.00 C97.17,62.67 93.33,62.83 93.00,67.00 C92.67,71.17 94.83,80.67 96.00,85.00 C97.17,89.33 100.00,90.50 100.00,93.00 C100.00,95.50 96.67,96.17 96.00,100.00 C95.33,103.83 96.67,110.17 96.00,116.00 C95.33,121.83 95.33,127.67 92.00,135.00 C88.67,142.33 78.67,155.83 76.00,160.00" fill="none" stroke="black" stroke-width="4.47" stroke-linecap="round" stroke-linejoin="round"/>
  <path d="M83.00,65.00 L94.00,68.00" fill="none" stroke="black" stroke-width="8.00" stroke-linecap="round" stroke-linejoin="round"/>
  <path d="M69.00,76.00 C68.67,77.33 69.33,79.67 67.00,84.00 C64.67,88.33 58.33,94.17 55.00,102.00 C51.67,109.83 46.83,121.50 47.00,131.00 C47.17,140.50 53.67,153.50 56.00,159.00 C58.33,164.50 57.50,164.00 61.00,164.00 C64.50,164.00 73.17,157.50 77.00,159.00 C80.83,160.50 81.17,169.17 84.00,173.00 C86.83,176.83 91.83,180.50 94.00,182.00 C96.17,183.50 95.17,183.50 97.00,182.00 C98.83,180.50 102.67,177.50 105.00,173.00 C107.33,168.50 110.00,164.33 111.00,155.00 C112.00,145.67 111.83,126.33 111.00,117.00 C110.17,107.67 107.83,103.00 106.00,99.00 C104.17,95.00 101.00,94.00 100.00,93.00" fill="none" stroke="black" stroke-width="4.24" stroke-linecap="round" stroke-linejoin="round"/>
  <path d="M170.00,81.00 C171.00,84.17 174.50,95.83 176.00,100.00 C177.50,104.17 177.83,104.83 179.00,106.00 C180.17,107.17 182.33,106.83 183.00,107.00" fill="none" stroke="black" stroke-width="8.25" stroke-linecap="round" stroke-linejoin="round"/>
</svg>
