<?xml version="1.0" encoding="UTF-8"?>
<svg xmlns="http://www.w3.org/2000/svg" viewBox="0 0 232 659" width="232" height="659">
  <path d="M133.00,35.00 C133.33,37.17 134.83,43.50 135.00,48.00 C135.17,52.50 133.83,59.67 134.00,62.00 C134.17,64.33 137.83,62.00 136.00,62.00 C134.17,62.00 125.17,62.00 123.00,62.00" fill="none" stroke="black" stroke-width="6.00" stroke-linecap="round" stroke-linejoin="round"/>
  <path d="M100.00,51.00 C101.50,52.33 106.83,56.50 109.00,59.00 C111.17,61.50 112.33,64.83 113.00,66.00" fill="none" stroke="black" stroke-width="4.00" stroke-linecap="round" stroke-linejoin="round"/>
  <path d="M92.00,54.00 C92.17,54.83 90.33,56.17 93.00,59.00 C95.67,61.83 105.50,69.00 108.00,71.00" fill="none" stroke="black" stroke-width="4.00" stroke-linecap="round" stroke-linejoin="round"/>
  <path d="M168.00,63.00 C167.00,63.67 164.50,66.17 162.00,67.00 C159.50,67.83 154.50,67.83 153.00,68.00" fill="none" stroke="black" stroke-width="4.00" stroke-linecap="round" stroke-linejoin="round"/>
  <path d="M84.00,66.00 C85.33,67.17 89.67,71.67 92.00,73.00 C94.33,74.33 97.00,73.83 98.00,74.00" fill="none" stroke="black" stroke-width="4.00" stroke-linecap="round" stroke-linejoin="round"/>
  <path d="M172.00,73.00 C170.67,74.00 168.00,77.83 164.00,79.00 C160.00,80.17 150.67,79.83 148.00,80.00" fill="none" stroke="black" stroke-width="4.00" stroke-linecap="round" stroke-linejoin="round"/>
  <path d="M91.00,84.00 C88.83,83.83 81.33,85.33 78.00,83.00 C74.67,80.67 72.50,74.67 71.00,70.00 C69.50,65.33 68.67,59.83 69.00,55.00 C69.33,50.17 71.50,44.17 73.00,41.00 C74.50,37.83 71.50,36.67 78.00,36.00 C84.50,35.33 105.00,40.00 112.00,37.00 C119.00,34.00 116.83,22.83 120.00,18.00 C123.17,13.17 127.83,9.67 131.00,8.00 C134.17,6.33 134.83,6.67 139.00,8.00 C143.17,9.33 152.33,13.83 156.00,16.00 C159.67,18.17 159.83,19.17 161.00,21.00 C162.17,22.83 163.00,22.00 163.00,27.00 C163.00,32.00 164.67,44.83 161.00,51.00 C157.33,57.17 145.33,62.17 141.00,64.00 C136.67,65.83 136.00,62.33 135.00,62.00" fill="none" stroke="black" stroke-width="4.47" stroke-linecap="round" stroke-linejoin="round"/>
  <path d="M101.00,85.00 C104.00,85.17 115.83,88.83 119.00,86.00 C122.17,83.17 119.17,72.00 120.00,68.00 C120.83,64.00 123.67,64.33 124.00,62.00 C124.33,59.67 124.00,58.17 122.00,54.00 C120.00,49.83 113.67,39.83 112.00,37.00" fill="none" stroke="black" stroke-width="4.24" stroke-linecap="round" stroke-linejoin="round"/>
  <path d="M154.00,89.00 C154.33,89.17 156.00,89.00 156.00,90.00 C156.00,91.00 153.67,93.67 154.00,95.00 C154.33,96.33 154.67,97.00 158.00,98.00 C161.33,99.00 168.67,101.83 174.00,101.00 C179.33,100.17 186.00,96.00 190.00,93.00 C194.00,90.00 197.67,87.67 198.00,83.00 C198.33,78.33 194.33,69.83 192.00,65.00 C189.67,60.17 189.17,56.33 184.00,54.00 C178.83,51.67 164.83,51.50 161.00,51.00" fill="none" stroke="black" stroke-width="4.00" stroke-linecap="round" stroke-linejoin="round"/>
  <path d="M176.00,91.00 C173.00,90.67 161.67,88.33 158.00,89.00 C154.33,89.67 155.33,94.00 154.00,95.00 C152.67,96.00 153.17,96.17 150.00,95.00 C146.83,93.83 137.50,89.17 135.00,88.00" fill="none" stroke="black" stroke-width="4.00" stroke-linecap="round" stroke-linejoin="round"/>
  <path d="M92.00,94.00 C90.83,94.33 87.17,94.83 85.00,96.00 C82.83,97.17 80.00,100.17 79.00,101.00" fill="none" stroke="black" stroke-width="4.00" stroke-linecap="round" stroke-linejoin="round"/>
  <path d="M98.00,99.00 L85.00,110.00" fill="none" stroke="black" stroke-width="4.00" stroke-linecap="round" stroke-linejoin="round"/>
  <path d="M141.00,102.00 C140.83,102.33 138.33,101.83 140.00,104.00 C141.67,106.17 149.17,113.17 151.00,115.00" fill="none" stroke="black" stroke-width="4.00" stroke-linecap="round" stroke-linejoin="round"/>
  <path d="M131.00,105.00 C130.83,105.67 128.67,106.17 130.00,109.00 C131.33,111.83 137.50,119.83 139.00,122.00" fill="none" stroke="black" stroke-width="4.00" stroke-linecap="round" stroke-linejoin="round"/>
  <path d="M122.00,111.00 L127.00,125.00" fill="none" stroke="black" stroke-width="4.00" stroke-linecap="round" stroke-linejoin="round"/>
  <path d="M214.00,276.00 C211.00,276.83 201.83,277.83 196.00,281.00 C190.17,284.17 184.83,292.67 179.00,295.00 C173.17,297.33 163.50,297.50 161.00,295.00 C158.50,292.50 163.50,285.50 164.00,280.00 C164.50,274.50 163.33,267.17 164.00,262.00 C164.67,256.83 167.33,251.17 168.00,249.00" fill="none" stroke="black" stroke-width="4.47" stroke-linecap="round" stroke-linejoin="round"/>
  <path d="M88.00,616.00 C88.17,615.33 89.50,615.00 89.00,612.00 C88.50,609.00 89.83,626.67 85.00,598.00 C80.17,569.33 64.67,467.17 60.00,440.00 C55.33,412.83 58.67,435.00 57.00,435.00 C55.33,435.00 52.83,435.67 50.00,440.00 C47.17,444.33 43.33,452.17 40.00,461.00 C36.67,469.83 32.17,472.33 30.00,493.00 C27.83,513.67 27.00,561.00 27.00,585.00 C27.00,609.00 29.00,626.33 30.00,637.00 C31.00,647.67 32.50,647.00 33.00,649.00" fill="none" stroke="black" stroke-width="6.00" stroke-linecap="round" stroke-linejoin="round"/>
  <path d="M142.00,63.00 C141.17,67.00 140.83,82.83 137.00,87.00 C133.17,91.17 122.17,88.17 119.00,88.00 C115.83,87.83 117.83,86.17 118.00,86.00 C118.17,85.83 121.50,82.33 120.00,87.00 C118.50,91.67 110.83,109.50 109.00,114.00" fill="none" stroke="black" stroke-width="8.25" stroke-linecap="round" stroke-linejoin="round"/>
  <path d="M78.00,83.00 C76.33,83.83 70.83,85.67 68.00,88.00 C65.17,90.33 62.17,94.17 61.00,97.00 C59.83,99.83 60.00,101.67 61.00,105.00 C62.00,108.33 64.83,113.83 67.00,117.00 C69.17,120.17 71.50,122.17 74.00,124.00 C76.50,125.83 78.00,127.33 82.00,128.00 C86.00,128.67 94.50,129.67 98.00,128.00 C101.50,126.33 101.17,120.17 103.00,118.00 C104.83,115.83 106.67,113.17 109.00,115.00 C111.33,116.83 114.33,125.33 117.00,129.00 C119.67,132.67 122.00,134.83 125.00,137.00 C128.00,139.17 130.83,141.50 135.00,142.00 C139.17,142.50 144.33,143.00 150.00,140.00 C155.67,137.00 165.17,128.67 169.00,124.00 C172.83,119.33 172.33,115.83 173.00,112.00 C173.67,108.17 173.33,102.83 173.00,101.00 C172.67,99.17 171.33,101.00 171.00,101.00" fill="none" stroke="black" stroke-width="6.00" stroke-linecap="round" stroke-linejoin="round"/>
  <path d="M98.00,128.00 C98.00,129.17 100.17,128.33 98.00,135.00 C95.83,141.67 87.33,161.50 85.00,168.00 C82.67,174.50 83.83,172.50 84.00,174.00 C84.17,175.50 87.33,174.83 86.00,177.00 C84.67,179.17 77.33,185.00 76.00,187.00 C74.67,189.00 77.83,186.83 78.00,189.00 C78.17,191.17 78.17,193.67 77.00,200.00 C75.83,206.33 72.67,221.83 71.00,227.00 C69.33,232.17 69.33,232.33 67.00,231.00 C64.67,229.67 59.33,223.00 57.00,219.00 C54.67,215.00 51.00,211.83 53.00,207.00 C55.00,202.17 65.00,193.17 69.00,190.00 C73.00,186.83 75.67,188.33 77.00,188.00" fill="none" stroke="black" stroke-width="5.66" stroke-linecap="round" stroke-linejoin="round"/>
  <path d="M107.00,148.00 L108.00,147.00" fill="none" stroke="black" stroke-width="8.12" stroke-linecap="round" stroke-linejoin="round"/>
  <path d="M86.00,177.00 C87.33,176.83 91.00,174.33 94.00,176.00 C97.00,177.67 100.67,184.33 104.00,187.00 C107.33,189.67 111.33,191.17 114.00,192.00 C116.67,192.83 118.17,193.33 120.00,192.00 C121.83,190.67 124.17,188.00 125.00,184.00 C125.83,180.00 125.67,172.50 125.00,168.00 C124.33,163.50 122.83,160.17 121.00,157.00 C119.17,153.83 116.33,150.50 114.00,149.00 C111.67,147.50 108.83,147.67 107.00,148.00 C105.17,148.33 104.67,148.50 103.00,151.00 C101.33,153.50 98.50,158.50 97.00,163.00 C95.50,167.50 94.50,175.50 94.00,178.00" fill="none" stroke="black" stroke-width="6.00" stroke-linecap="round" stroke-linejoin="round"/>
  <path d="M16.00,177.00 C15.67,176.33 14.17,174.50 14.00,173.00 C13.83,171.50 13.67,170.17 15.00,168.00 C16.33,165.83 19.83,161.67 22.00,160.00 C24.17,158.33 26.17,158.00 28.00,158.00 C29.83,158.00 31.67,160.33 33.00,160.00 C34.33,159.67 34.83,156.83 36.00,156.00 C37.17,155.17 38.00,154.17 40.00,155.00 C42.00,155.83 45.00,160.33 48.00,161.00 C51.00,161.67 55.67,158.67 58.00,159.00 C60.33,159.33 61.33,159.83 62.00,163.00 C62.67,166.17 62.83,174.67 62.00,178.00 C61.17,181.33 59.50,181.67 57.00,183.00 C54.50,184.33 49.17,185.83 47.00,186.00 C44.83,186.17 44.67,186.50 44.00,184.00 C43.33,181.50 42.33,174.83 43.00,171.00 C43.67,167.17 47.17,162.67 48.00,161.00" fill="none" stroke="black" stroke-width="4.00" stroke-linecap="round" stroke-linejoin="round"/>
  <path d="M33.00,160.00 C32.17,162.83 29.33,173.67 28.00,177.00 C26.67,180.33 27.00,180.00 25.00,180.00 C23.00,180.00 18.00,176.33 16.00,177.00 C14.00,177.67 12.83,182.17 13.00,184.00 C13.17,185.83 15.17,187.33 17.00,188.00 C18.83,188.67 22.67,189.33 24.00,188.00 C25.33,186.67 24.83,181.33 25.00,180.00" fill="none" stroke="black" stroke-width="4.47" stroke-linecap="round" stroke-linejoin="round"/>
  <path d="M45.00,187.00 L45.00,187.00" fill="none" stroke="black" stroke-width="7.73" stroke-linecap="round" stroke-linejoin="round"/>
  <path d="M25.00,187.00 C25.67,188.00 27.17,192.00 29.00,193.00 C30.83,194.00 33.33,193.83 36.00,193.00 C38.67,192.17 43.00,186.67 45.00,188.00 C47.00,189.33 46.50,197.67 48.00,201.00 C49.50,204.33 53.00,206.83 54.00,208.00" fill="none" stroke="black" stroke-width="4.47" stroke-linecap="round" stroke-linejoin="round"/>
  <path d="M162.00,238.00 C160.00,234.67 153.33,222.67 150.00,218.00 C146.67,213.33 143.83,212.67 142.00,210.00 C140.17,207.33 139.17,204.33 139.00,202.00 C138.83,199.67 138.00,199.00 141.00,196.00 C144.00,193.00 152.67,186.17 157.00,184.00 C161.33,181.83 164.67,182.83 167.00,183.00 C169.33,183.17 168.67,182.00 171.00,185.00 C173.33,188.00 177.67,199.17 181.00,201.00 C184.33,202.83 188.50,196.83 191.00,196.00 C193.50,195.17 193.83,194.33 196.00,196.00 C198.17,197.67 202.50,202.17 204.00,206.00 C205.50,209.83 204.50,216.83 205.00,219.00 C205.50,221.17 206.67,219.00 207.00,219.00" fill="none" stroke="black" stroke-width="4.47" stroke-linecap="round" stroke-linejoin="round"/>
  <path d="M181.00,201.00 C180.83,203.33 180.67,211.50 180.00,215.00 C179.33,218.50 178.67,219.17 177.00,222.00 C175.33,224.83 172.50,229.33 170.00,232.00 C167.50,234.67 163.17,235.83 162.00,238.00 C160.83,240.17 162.17,243.17 163.00,245.00 C163.83,246.83 165.00,248.50 167.00,249.00 C169.00,249.50 173.33,249.17 175.00,248.00 C176.67,246.83 175.00,244.67 177.00,242.00 C179.00,239.33 182.33,235.83 187.00,232.00 C191.67,228.17 200.67,220.83 205.00,219.00 C209.33,217.17 211.00,219.50 213.00,221.00 C215.00,222.50 216.50,226.17 217.00,228.00 C217.50,229.83 217.83,230.00 216.00,232.00 C214.17,234.00 211.17,237.33 206.00,240.00 C200.83,242.67 190.33,246.67 185.00,248.00 C179.67,249.33 175.83,248.00 174.00,248.00" fill="none" stroke="black" stroke-width="6.32" stroke-linecap="round" stroke-linejoin="round"/>
  <path d="M67.00,231.00 C66.83,235.67 67.33,246.83 66.00,259.00 C64.67,271.17 60.67,296.00 59.00,304.00 C57.33,312.00 57.33,306.83 56.00,307.00 C54.67,307.17 53.83,307.67 51.00,305.00 C48.17,302.33 40.67,293.67 39.00,291.00 C37.33,288.33 40.83,291.33 41.00,289.00 C41.17,286.67 41.17,280.83 40.00,277.00 C38.83,273.17 35.83,268.67 34.00,266.00 C32.17,263.33 30.83,261.83 29.00,261.00 C27.17,260.17 24.00,261.33 23.00,261.00 C22.00,260.67 23.17,257.83 23.00,259.00 C22.83,260.17 21.17,264.00 22.00,268.00 C22.83,272.00 25.83,279.33 28.00,283.00 C30.17,286.67 33.00,288.83 35.00,290.00 C37.00,291.17 39.17,289.67 40.00,290.00 C40.83,290.33 40.00,291.67 40.00,292.00" fill="none" stroke="black" stroke-width="6.00" stroke-linecap="round" stroke-linejoin="round"/>
  <path d="M163.00,295.00 C162.33,295.33 160.50,294.67 159.00,297.00 C157.50,299.33 157.00,304.00 154.00,309.00 C151.00,314.00 147.83,318.67 141.00,327.00 C134.17,335.33 118.00,352.00 113.00,359.00 C108.00,366.00 114.50,365.50 111.00,369.00 C107.50,372.50 100.50,372.83 92.00,380.00 C83.50,387.17 65.67,407.83 60.00,412.00 C54.33,416.17 58.33,420.83 58.00,405.00 C57.67,389.17 58.33,333.17 58.00,317.00 C57.67,300.83 56.33,309.50 56.00,308.00" fill="none" stroke="black" stroke-width="6.00" stroke-linecap="round" stroke-linejoin="round"/>
  <path d="M118.00,370.00 C119.17,368.83 121.33,365.17 125.00,363.00 C128.67,360.83 135.83,357.50 140.00,357.00 C144.17,356.50 148.67,359.50 150.00,360.00 C151.33,360.50 148.17,359.33 148.00,360.00 C147.83,360.67 149.67,362.33 149.00,364.00 C148.33,365.67 146.00,368.67 144.00,370.00 C142.00,371.33 140.67,371.67 137.00,372.00 C133.33,372.33 125.00,372.50 122.00,372.00 C119.00,371.50 120.83,369.50 119.00,369.00 C117.17,368.50 112.33,369.00 111.00,369.00" fill="none" stroke="black" stroke-width="5.66" stroke-linecap="round" stroke-linejoin="round"/>
  <path d="M60.00,412.00 L56.00,436.00" fill="none" stroke="black" stroke-width="10.20" stroke-linecap="round" stroke-linejoin="round"/>
</svg>
