<?xml version="1.0" encoding="UTF-8"?>
<svg xmlns="http://www.w3.org/2000/svg" viewBox="0 0 232 659" width="232" height="659">
  <path d="M98.00,35.00 C97.50,37.17 95.50,43.50 95.00,48.00 C94.50,52.50 95.00,59.67 95.00,62.00" fill="none" stroke="black" stroke-width="8.00" stroke-linecap="round" stroke-linejoin="round"/>
  <path d="M131.00,51.00 L118.00,65.00" fill="none" stroke="black" stroke-width="4.00" stroke-linecap="round" stroke-linejoin="round"/>
  <path d="M139.00,54.00 C138.67,55.00 139.67,57.17 137.00,60.00 C134.33,62.83 125.33,69.17 123.00,71.00" fill="none" stroke="black" stroke-width="4.00" stroke-linecap="round" stroke-linejoin="round"/>
  <path d="M63.00,62.00 C64.00,62.83 66.50,66.00 69.00,67.00 C71.50,68.00 76.50,67.83 78.00,68.00" fill="none" stroke="black" stroke-width="4.00" stroke-linecap="round" stroke-linejoin="round"/>
  <path d="M147.00,66.00 C145.67,67.17 141.50,71.50 139.00,73.00 C136.50,74.50 133.17,74.67 132.00,75.00" fill="none" stroke="black" stroke-width="4.00" stroke-linecap="round" stroke-linejoin="round"/>
  <path d="M59.00,73.00 C60.33,74.00 63.00,77.83 67.00,79.00 C71.00,80.17 80.33,79.83 83.00,80.00" fill="none" stroke="black" stroke-width="4.00" stroke-linecap="round" stroke-linejoin="round"/>
  <path d="M140.00,84.00 C142.17,83.83 149.67,85.50 153.00,83.00 C156.33,80.50 158.67,74.00 160.00,69.00 C161.33,64.00 161.50,57.83 161.00,53.00 C160.50,48.17 158.33,42.83 157.00,40.00 C155.67,37.17 159.17,36.67 153.00,36.00 C146.83,35.33 125.83,35.67 120.00,36.00 C114.17,36.33 119.33,40.67 118.00,38.00 C116.67,35.33 115.00,25.00 112.00,20.00 C109.00,15.00 103.33,10.00 100.00,8.00 C96.67,6.00 94.50,7.50 92.00,8.00 C89.50,8.50 88.67,8.83 85.00,11.00 C81.33,13.17 72.83,17.33 70.00,21.00 C67.17,24.67 67.83,28.17 68.00,33.00 C68.17,37.83 70.50,47.17 71.00,50.00" fill="none" stroke="black" stroke-width="4.00" stroke-linecap="round" stroke-linejoin="round"/>
  <path d="M130.00,85.00 C127.00,85.17 115.00,88.00 112.00,86.00 C109.00,84.00 113.00,77.00 112.00,73.00 C111.00,69.00 105.00,67.83 106.00,62.00 C107.00,56.17 116.00,42.00 118.00,38.00" fill="none" stroke="black" stroke-width="4.47" stroke-linecap="round" stroke-linejoin="round"/>
  <path d="M55.00,91.00 C57.17,90.67 64.50,89.00 68.00,89.00 C71.50,89.00 74.50,90.00 76.00,91.00 C77.50,92.00 77.50,93.83 77.00,95.00 C76.50,96.17 76.17,97.00 73.00,98.00 C69.83,99.00 60.50,98.00 58.00,101.00 C55.50,104.00 57.33,112.17 58.00,116.00 C58.67,119.83 57.83,119.83 62.00,124.00 C66.17,128.17 77.33,138.00 83.00,141.00 C88.67,144.00 92.17,142.67 96.00,142.00 C99.83,141.33 103.33,138.67 106.00,137.00 C108.67,135.33 109.33,135.83 112.00,132.00 C114.67,128.17 121.67,120.00 122.00,114.00 C122.33,108.00 115.50,100.67 114.00,96.00 C112.50,91.33 113.33,87.33 113.00,86.00 C112.67,84.67 115.17,87.67 112.00,88.00 C108.83,88.33 97.67,90.00 94.00,88.00 C90.33,86.00 90.50,80.17 90.00,76.00 C89.50,71.83 91.83,65.50 91.00,63.00 C90.17,60.50 88.33,63.17 85.00,61.00 C81.67,58.83 73.83,51.50 71.00,50.00 C68.17,48.50 71.33,51.67 68.00,52.00 C64.67,52.33 54.83,51.50 51.00,52.00 C47.17,52.50 47.00,53.00 45.00,55.00 C43.00,57.00 41.00,59.67 39.00,64.00 C37.00,68.33 33.83,77.33 33.00,81.00 C32.17,84.67 32.67,84.00 34.00,86.00 C35.33,88.00 38.50,91.00 41.00,93.00 C43.50,95.00 45.83,96.67 49.00,98.00 C52.17,99.33 58.17,100.50 60.00,101.00" fill="none" stroke="black" stroke-width="5.66" stroke-linecap="round" stroke-linejoin="round"/>
  <path d="M139.00,94.00 C140.17,94.33 144.00,94.83 146.00,96.00 C148.00,97.17 150.17,100.17 151.00,101.00" fill="none" stroke="black" stroke-width="4.00" stroke-linecap="round" stroke-linejoin="round"/>
  <path d="M133.00,99.00 L145.00,110.00" fill="none" stroke="black" stroke-width="4.00" stroke-linecap="round" stroke-linejoin="round"/>
  <path d="M90.00,102.00 C90.00,102.50 91.67,102.83 90.00,105.00 C88.33,107.17 81.67,113.33 80.00,115.00" fill="none" stroke="black" stroke-width="4.00" stroke-linecap="round" stroke-linejoin="round"/>
  <path d="M100.00,104.00 C100.17,104.67 102.17,105.17 101.00,108.00 C99.83,110.83 94.33,118.83 93.00,121.00" fill="none" stroke="black" stroke-width="4.00" stroke-linecap="round" stroke-linejoin="round"/>
  <path d="M109.00,111.00 L104.00,125.00" fill="none" stroke="black" stroke-width="4.00" stroke-linecap="round" stroke-linejoin="round"/>
  <path d="M16.00,277.00 C16.67,276.83 17.17,275.50 20.00,276.00 C22.83,276.50 27.67,276.83 33.00,280.00 C38.33,283.17 46.00,292.50 52.00,295.00 C58.00,297.50 67.00,302.67 69.00,295.00 C71.00,287.33 66.17,257.00 64.00,249.00 C61.83,241.00 57.33,247.33 56.00,247.00" fill="none" stroke="black" stroke-width="4.47" stroke-linecap="round" stroke-linejoin="round"/>
  <path d="M79.00,360.00 C79.33,360.33 80.33,362.17 81.00,362.00 C81.67,361.83 81.33,359.83 83.00,359.00 C84.67,358.17 87.17,356.33 91.00,357.00 C94.83,357.67 102.50,360.83 106.00,363.00 C109.50,365.17 113.00,368.33 112.00,370.00 C111.00,371.67 103.67,372.83 100.00,373.00 C96.33,373.17 93.17,372.83 90.00,371.00 C86.83,369.17 82.50,363.50 81.00,362.00" fill="none" stroke="black" stroke-width="4.47" stroke-linecap="round" stroke-linejoin="round"/>
  <path d="M139.00,615.00 C139.50,614.83 141.33,614.83 142.00,614.00 C142.67,613.17 138.17,639.00 143.00,610.00 C147.83,581.00 165.83,469.17 171.00,440.00 C176.17,410.83 172.33,434.83 174.00,435.00 C175.67,435.17 177.83,435.83 181.00,441.00 C184.17,446.17 189.67,456.50 193.00,466.00 C196.33,475.50 199.33,473.50 201.00,498.00 C202.67,522.50 203.50,587.83 203.00,613.00 C202.50,638.17 198.83,643.00 198.00,649.00" fill="none" stroke="black" stroke-width="6.00" stroke-linecap="round" stroke-linejoin="round"/>
  <path d="M91.00,63.00 C91.83,62.67 93.50,61.17 96.00,61.00 C98.50,60.83 104.33,61.83 106.00,62.00" fill="none" stroke="black" stroke-width="8.25" stroke-linecap="round" stroke-linejoin="round"/>
  <path d="M154.00,82.00 C155.67,83.17 161.33,86.33 164.00,89.00 C166.67,91.67 169.50,94.17 170.00,98.00 C170.50,101.83 168.17,108.67 167.00,112.00 C165.83,115.33 164.83,115.83 163.00,118.00 C161.17,120.17 158.33,123.33 156.00,125.00 C153.67,126.67 152.17,127.50 149.00,128.00 C145.83,128.50 139.83,128.33 137.00,128.00 C134.17,127.67 133.83,128.00 132.00,126.00 C130.17,124.00 127.83,117.83 126.00,116.00 C124.17,114.17 121.50,115.17 121.00,115.00 C120.50,114.83 122.67,115.00 123.00,115.00" fill="none" stroke="black" stroke-width="6.00" stroke-linecap="round" stroke-linejoin="round"/>
  <path d="M94.00,89.00 L77.00,95.00" fill="none" stroke="black" stroke-width="6.00" stroke-linecap="round" stroke-linejoin="round"/>
  <path d="M133.00,127.00 C133.00,128.50 131.17,130.00 133.00,136.00 C134.83,142.00 141.83,156.33 144.00,163.00 C146.17,169.67 145.67,173.83 146.00,176.00" fill="none" stroke="black" stroke-width="5.66" stroke-linecap="round" stroke-linejoin="round"/>
  <path d="M122.00,148.00 C122.33,148.00 124.83,147.83 124.00,148.00 C123.17,148.17 119.33,147.67 117.00,149.00 C114.67,150.33 111.83,153.17 110.00,156.00 C108.17,158.83 106.83,161.83 106.00,166.00 C105.17,170.17 104.83,177.33 105.00,181.00 C105.17,184.67 106.00,186.17 107.00,188.00 C108.00,189.83 109.33,191.33 111.00,192.00 C112.67,192.67 114.33,192.83 117.00,192.00 C119.67,191.17 123.67,189.50 127.00,187.00 C130.33,184.50 136.00,181.33 137.00,177.00 C138.00,172.67 135.17,165.83 133.00,161.00 C130.83,156.17 125.50,150.17 124.00,148.00" fill="none" stroke="black" stroke-width="6.00" stroke-linecap="round" stroke-linejoin="round"/>
  <path d="M215.00,177.00 C215.17,175.67 216.17,171.00 216.00,169.00 C215.83,167.00 216.17,166.83 214.00,165.00 C211.83,163.17 205.67,158.83 203.00,158.00 C200.33,157.17 199.33,160.33 198.00,160.00 C196.67,159.67 196.17,156.83 195.00,156.00 C193.83,155.17 193.00,154.17 191.00,155.00 C189.00,155.83 186.00,160.33 183.00,161.00 C180.00,161.67 175.33,158.83 173.00,159.00 C170.67,159.17 169.83,159.33 169.00,162.00 C168.17,164.67 167.17,171.50 168.00,175.00 C168.83,178.50 171.00,181.17 174.00,183.00 C177.00,184.83 183.83,185.17 186.00,186.00 C188.17,186.83 187.17,187.50 187.00,188.00 C186.83,188.50 185.17,189.17 185.00,189.00 C184.83,188.83 184.33,186.33 186.00,187.00 C187.67,187.67 192.33,192.00 195.00,193.00 C197.67,194.00 200.17,194.00 202.00,193.00 C203.83,192.00 205.33,188.00 206.00,187.00" fill="none" stroke="black" stroke-width="4.47" stroke-linecap="round" stroke-linejoin="round"/>
  <path d="M198.00,160.00 C197.83,160.50 195.83,159.50 197.00,163.00 C198.17,166.50 202.00,178.50 205.00,181.00 C208.00,183.50 213.00,177.33 215.00,178.00 C217.00,178.67 217.17,183.33 217.00,185.00 C216.83,186.67 215.83,187.50 214.00,188.00 C212.17,188.50 207.50,189.17 206.00,188.00 C204.50,186.83 205.17,182.17 205.00,181.00" fill="none" stroke="black" stroke-width="4.47" stroke-linecap="round" stroke-linejoin="round"/>
  <path d="M183.00,161.00 C183.67,162.17 186.33,164.33 187.00,168.00 C187.67,171.67 187.67,177.50 187.00,183.00 C186.33,188.50 184.33,197.17 183.00,201.00 C181.67,204.83 180.00,205.00 179.00,206.00 C178.00,207.00 178.17,208.17 177.00,207.00 C175.83,205.83 175.00,202.17 172.00,199.00 C169.00,195.83 162.17,189.83 159.00,188.00 C155.83,186.17 153.17,182.33 153.00,188.00 C152.83,193.67 156.33,215.00 158.00,222.00 C159.67,229.00 162.17,228.67 163.00,230.00" fill="none" stroke="black" stroke-width="4.47" stroke-linecap="round" stroke-linejoin="round"/>
  <path d="M137.00,176.00 C138.50,176.17 143.17,175.17 146.00,177.00 C148.83,178.83 152.67,185.33 154.00,187.00" fill="none" stroke="black" stroke-width="8.25" stroke-linecap="round" stroke-linejoin="round"/>
  <path d="M48.00,200.00 C46.67,199.33 42.50,196.50 40.00,196.00 C37.50,195.50 35.17,195.50 33.00,197.00 C30.83,198.50 28.33,201.33 27.00,205.00 C25.67,208.67 26.67,216.17 25.00,219.00 C23.33,221.83 18.83,220.17 17.00,222.00 C15.17,223.83 12.67,227.00 14.00,230.00 C15.33,233.00 19.67,237.00 25.00,240.00 C30.33,243.00 41.00,246.50 46.00,248.00 C51.00,249.50 53.67,250.17 55.00,249.00 C56.33,247.83 59.00,246.00 54.00,241.00 C49.00,236.00 29.83,222.67 25.00,219.00" fill="none" stroke="black" stroke-width="6.32" stroke-linecap="round" stroke-linejoin="round"/>
  <path d="M69.00,239.00 C71.17,235.17 78.50,221.17 82.00,216.00 C85.50,210.83 88.50,210.83 90.00,208.00 C91.50,205.17 93.00,202.67 91.00,199.00 C89.00,195.33 82.50,188.67 78.00,186.00 C73.50,183.33 67.67,182.50 64.00,183.00 C60.33,183.50 58.50,186.17 56.00,189.00 C53.50,191.83 50.00,196.17 49.00,200.00 C48.00,203.83 49.00,208.00 50.00,212.00 C51.00,216.00 51.83,219.67 55.00,224.00 C58.17,228.33 66.83,234.50 69.00,238.00 C71.17,241.50 68.83,243.17 68.00,245.00 C67.17,246.83 64.67,248.33 64.00,249.00" fill="none" stroke="black" stroke-width="4.47" stroke-linecap="round" stroke-linejoin="round"/>
  <path d="M177.00,207.00 C176.83,208.17 177.17,211.00 176.00,214.00 C174.83,217.00 172.17,222.33 170.00,225.00 C167.83,227.67 163.83,229.17 163.00,230.00 C162.17,230.83 165.00,228.17 165.00,230.00 C165.00,231.83 162.83,234.67 163.00,241.00 C163.17,247.33 164.50,257.50 166.00,268.00 C167.50,278.50 170.50,297.50 172.00,304.00 C173.50,310.50 174.50,306.50 175.00,307.00" fill="none" stroke="black" stroke-width="6.00" stroke-linecap="round" stroke-linejoin="round"/>
  <path d="M208.00,261.00 C207.00,261.00 204.33,259.50 202.00,261.00 C199.67,262.50 196.00,266.67 194.00,270.00 C192.00,273.33 190.50,277.50 190.00,281.00 C189.50,284.50 190.00,289.50 191.00,291.00 C192.00,292.50 193.83,291.67 196.00,290.00 C198.17,288.33 202.00,284.50 204.00,281.00 C206.00,277.50 207.50,272.50 208.00,269.00 C208.50,265.50 207.17,261.50 207.00,260.00" fill="none" stroke="black" stroke-width="4.47" stroke-linecap="round" stroke-linejoin="round"/>
  <path d="M191.00,291.00 C189.17,293.33 182.83,302.33 180.00,305.00 C177.17,307.67 175.33,304.17 174.00,307.00 C172.67,309.83 172.17,305.50 172.00,322.00 C171.83,338.50 173.33,391.17 173.00,406.00 C172.67,420.83 176.50,416.00 170.00,411.00 C163.50,406.00 142.17,383.00 134.00,376.00 C125.83,369.00 124.83,370.17 121.00,369.00 C117.17,367.83 112.67,369.00 111.00,369.00" fill="none" stroke="black" stroke-width="6.00" stroke-linecap="round" stroke-linejoin="round"/>
  <path d="M68.00,295.00 C68.67,295.50 68.50,292.83 72.00,298.00 C75.50,303.17 81.17,315.50 89.00,326.00 C96.83,336.50 113.83,353.83 119.00,361.00 C124.17,368.17 119.83,367.67 120.00,369.00" fill="none" stroke="black" stroke-width="7.21" stroke-linecap="round" stroke-linejoin="round"/>
  <path d="M170.00,412.00 C170.50,416.00 172.17,432.00 173.00,436.00 C173.83,440.00 174.67,436.00 175.00,436.00" fill="none" stroke="black" stroke-width="10.77" stroke-linecap="round" stroke-linejoin="round"/>
</svg>
