<?xml version="1.0" encoding="UTF-8"?>
<svg xmlns="http://www.w3.org/2000/svg" viewBox="0 0 197 620" width="197" height="620">
  <path d="M70.00,31.00 C69.50,33.17 67.50,39.50 67.00,44.00 C66.50,48.50 67.00,55.67 67.00,58.00" fill="none" stroke="black" stroke-width="8.00" stroke-linecap="round" stroke-linejoin="round"/>
  <path d="M103.00,47.00 L90.00,61.00" fill="none" stroke="black" stroke-width="4.00" stroke-linecap="round" stroke-linejoin="round"/>
  <path d="M111.00,50.00 C110.67,51.00 111.67,53.17 109.00,56.00 C106.33,58.83 97.33,65.17 95.00,67.00" fill="none" stroke="black" stroke-width="4.00" stroke-linecap="round" stroke-linejoin="round"/>
  <path d="M35.00,58.00 C36.00,58.83 38.50,62.00 41.00,63.00 C43.50,64.00 48.50,63.83 50.00,64.00" fill="none" stroke="black" stroke-width="4.00" stroke-linecap="round" stroke-linejoin="round"/>
  <path d="M119.00,62.00 C117.67,63.17 113.50,67.50 111.00,69.00 C108.50,70.50 105.17,70.67 104.00,71.00" fill="none" stroke="black" stroke-width="4.00" stroke-linecap="round" stroke-linejoin="round"/>
  <path d="M31.00,69.00 C32.33,70.00 35.00,73.83 39.00,75.00 C43.00,76.17 52.33,75.83 55.00,76.00" fill="none" stroke="black" stroke-width="4.00" stroke-linecap="round" stroke-linejoin="round"/>
  <path d="M112.00,80.00 C114.17,79.83 121.67,81.50 125.00,79.00 C128.33,76.50 130.67,70.00 132.00,65.00 C133.33,60.00 133.50,53.83 133.00,49.00 C132.50,44.17 130.33,38.83 129.00,36.00 C127.67,33.17 131.17,32.67 125.00,32.00 C118.83,31.33 97.83,31.67 92.00,32.00 C86.17,32.33 91.33,36.67 90.00,34.00 C88.67,31.33 87.00,21.00 84.00,16.00 C81.00,11.00 75.33,6.00 72.00,4.00 C68.67,2.00 66.50,3.50 64.00,4.00 C61.50,4.50 60.67,4.83 57.00,7.00 C53.33,9.17 44.83,13.33 42.00,17.00 C39.17,20.67 39.83,24.17 40.00,29.00 C40.17,33.83 42.50,43.17 43.00,46.00" fill="none" stroke="black" stroke-width="4.00" stroke-linecap="round" stroke-linejoin="round"/>
  <path d="M102.00,81.00 C99.00,81.17 87.00,84.00 84.00,82.00 C81.00,80.00 85.00,73.00 84.00,69.00 C83.00,65.00 77.00,63.83 78.00,58.00 C79.00,52.17 88.00,38.00 90.00,34.00" fill="none" stroke="black" stroke-width="4.47" stroke-linecap="round" stroke-linejoin="round"/>
  <path d="M27.00,87.00 C29.17,86.67 36.50,85.00 40.00,85.00 C43.50,85.00 46.50,86.00 48.00,87.00 C49.50,88.00 49.50,89.83 49.00,91.00 C48.50,92.17 48.17,93.00 45.00,94.00 C41.83,95.00 32.50,94.00 30.00,97.00 C27.50,100.00 29.33,108.17 30.00,112.00 C30.67,115.83 29.83,115.83 34.00,120.00 C38.17,124.17 49.33,134.00 55.00,137.00 C60.67,140.00 64.17,138.67 68.00,138.00 C71.83,137.33 75.33,134.67 78.00,133.00 C80.67,131.33 81.33,131.83 84.00,128.00 C86.67,124.17 93.67,116.00 94.00,110.00 C94.33,104.00 87.50,96.67 86.00,92.00 C84.50,87.33 85.33,83.33 85.00,82.00 C84.67,80.67 87.17,83.67 84.00,84.00 C80.83,84.33 69.67,86.00 66.00,84.00 C62.33,82.00 62.50,76.17 62.00,72.00 C61.50,67.83 63.83,61.50 63.00,59.00 C62.17,56.50 60.33,59.17 57.00,57.00 C53.67,54.83 45.83,47.50 43.00,46.00 C40.17,44.50 43.33,47.67 40.00,48.00 C36.67,48.33 26.83,47.50 23.00,48.00 C19.17,48.50 19.00,49.00 17.00,51.00 C15.00,53.00 13.00,55.67 11.00,60.00 C9.00,64.33 5.83,73.33 5.00,77.00 C4.17,80.67 4.67,80.00 6.00,82.00 C7.33,84.00 10.50,87.00 13.00,89.00 C15.50,91.00 17.83,92.67 21.00,94.00 C24.17,95.33 30.17,96.50 32.00,97.00" fill="none" stroke="black" stroke-width="5.66" stroke-linecap="round" stroke-linejoin="round"/>
  <path d="M111.00,90.00 C112.17,90.33 116.00,90.83 118.00,92.00 C120.00,93.17 122.17,96.17 123.00,97.00" fill="none" stroke="black" stroke-width="4.00" stroke-linecap="round" stroke-linejoin="round"/>
  <path d="M105.00,95.00 L117.00,106.00" fill="none" stroke="black" stroke-width="4.00" stroke-linecap="round" stroke-linejoin="round"/>
  <path d="M62.00,98.00 C62.00,98.50 63.67,98.83 62.00,101.00 C60.33,103.17 53.67,109.33 52.00,111.00" fill="none" stroke="black" stroke-width="4.00" stroke-linecap="round" stroke-linejoin="round"/>
  <path d="M72.00,100.00 C72.17,100.67 74.17,101.17 73.00,104.00 C71.83,106.83 66.33,114.83 65.00,117.00" fill="none" stroke="black" stroke-width="4.00" stroke-linecap="round" stroke-linejoin="round"/>
  <path d="M81.00,107.00 L76.00,121.00" fill="none" stroke="black" stroke-width="4.00" stroke-linecap="round" stroke-linejoin="round"/>
  <path d="M111.00,611.00 C111.50,610.83 112.67,614.50 114.00,610.00 C115.33,605.50 113.67,616.00 119.00,584.00 C124.33,552.00 141.83,448.17 146.00,418.00 C150.17,387.83 144.33,419.67 144.00,403.00 C143.67,386.33 143.50,334.67 144.00,318.00 C144.50,301.33 147.00,306.00 147.00,303.00 C147.00,300.00 145.50,306.50 144.00,300.00 C142.50,293.50 139.50,276.33 138.00,264.00 C136.50,251.67 134.33,233.17 135.00,226.00 C135.67,218.83 139.83,223.67 142.00,221.00 C144.17,218.33 146.83,213.00 148.00,210.00 C149.17,207.00 148.83,204.17 149.00,203.00" fill="none" stroke="black" stroke-width="6.00" stroke-linecap="round" stroke-linejoin="round"/>
  <path d="M63.00,59.00 C63.83,58.67 65.50,57.17 68.00,57.00 C70.50,56.83 76.33,57.83 78.00,58.00" fill="none" stroke="black" stroke-width="8.25" stroke-linecap="round" stroke-linejoin="round"/>
  <path d="M126.00,78.00 C127.67,79.17 133.33,82.33 136.00,85.00 C138.67,87.67 141.50,90.17 142.00,94.00 C142.50,97.83 140.17,104.67 139.00,108.00 C137.83,111.33 136.83,111.83 135.00,114.00 C133.17,116.17 130.33,119.33 128.00,121.00 C125.67,122.67 124.17,123.50 121.00,124.00 C117.83,124.50 111.83,124.33 109.00,124.00 C106.17,123.67 105.83,124.00 104.00,122.00 C102.17,120.00 99.83,113.83 98.00,112.00 C96.17,110.17 93.50,111.17 93.00,111.00 C92.50,110.83 94.67,111.00 95.00,111.00" fill="none" stroke="black" stroke-width="6.00" stroke-linecap="round" stroke-linejoin="round"/>
  <path d="M66.00,85.00 L49.00,91.00" fill="none" stroke="black" stroke-width="6.00" stroke-linecap="round" stroke-linejoin="round"/>
  <path d="M105.00,123.00 C105.00,124.50 103.17,126.00 105.00,132.00 C106.83,138.00 113.83,152.33 116.00,159.00 C118.17,165.67 117.67,169.83 118.00,172.00" fill="none" stroke="black" stroke-width="5.66" stroke-linecap="round" stroke-linejoin="round"/>
  <path d="M94.00,144.00 C94.33,144.00 96.83,143.83 96.00,144.00 C95.17,144.17 91.33,143.67 89.00,145.00 C86.67,146.33 83.83,149.17 82.00,152.00 C80.17,154.83 78.83,157.83 78.00,162.00 C77.17,166.17 76.83,173.33 77.00,177.00 C77.17,180.67 78.00,182.17 79.00,184.00 C80.00,185.83 81.33,187.33 83.00,188.00 C84.67,188.67 86.33,188.83 89.00,188.00 C91.67,187.17 95.67,185.50 99.00,183.00 C102.33,180.50 108.00,177.33 109.00,173.00 C110.00,168.67 107.17,161.83 105.00,157.00 C102.83,152.17 97.50,146.17 96.00,144.00" fill="none" stroke="black" stroke-width="6.00" stroke-linecap="round" stroke-linejoin="round"/>
  <path d="M187.00,173.00 C187.17,171.67 188.17,167.00 188.00,165.00 C187.83,163.00 188.17,162.83 186.00,161.00 C183.83,159.17 177.67,154.83 175.00,154.00 C172.33,153.17 171.33,156.33 170.00,156.00 C168.67,155.67 168.17,152.83 167.00,152.00 C165.83,151.17 165.00,150.17 163.00,151.00 C161.00,151.83 158.00,156.33 155.00,157.00 C152.00,157.67 147.33,154.83 145.00,155.00 C142.67,155.17 141.83,155.33 141.00,158.00 C140.17,160.67 139.17,167.50 140.00,171.00 C140.83,174.50 143.00,177.17 146.00,179.00 C149.00,180.83 155.83,181.17 158.00,182.00 C160.17,182.83 159.17,183.50 159.00,184.00 C158.83,184.50 157.17,185.17 157.00,185.00 C156.83,184.83 156.33,182.33 158.00,183.00 C159.67,183.67 164.33,188.00 167.00,189.00 C169.67,190.00 172.17,190.00 174.00,189.00 C175.83,188.00 177.33,184.00 178.00,183.00" fill="none" stroke="black" stroke-width="4.47" stroke-linecap="round" stroke-linejoin="round"/>
  <path d="M170.00,156.00 C169.83,156.50 167.83,155.50 169.00,159.00 C170.17,162.50 174.00,174.50 177.00,177.00 C180.00,179.50 185.00,173.33 187.00,174.00 C189.00,174.67 189.17,179.33 189.00,181.00 C188.83,182.67 187.83,183.50 186.00,184.00 C184.17,184.50 179.50,185.17 178.00,184.00 C176.50,182.83 177.17,178.17 177.00,177.00" fill="none" stroke="black" stroke-width="4.47" stroke-linecap="round" stroke-linejoin="round"/>
  <path d="M155.00,157.00 C155.67,158.17 158.33,160.33 159.00,164.00 C159.67,167.67 159.67,173.50 159.00,179.00 C158.33,184.50 156.33,193.17 155.00,197.00 C153.67,200.83 152.00,201.00 151.00,202.00 C150.00,203.00 150.17,204.17 149.00,203.00 C147.83,201.83 147.00,198.17 144.00,195.00 C141.00,191.83 134.17,185.83 131.00,184.00 C127.83,182.17 125.17,178.33 125.00,184.00 C124.83,189.67 128.67,211.17 130.00,218.00 C131.33,224.83 131.83,223.67 133.00,225.00 C134.17,226.33 136.33,225.83 137.00,226.00" fill="none" stroke="black" stroke-width="4.47" stroke-linecap="round" stroke-linejoin="round"/>
  <path d="M109.00,172.00 C110.50,172.17 115.17,171.17 118.00,173.00 C120.83,174.83 124.67,181.33 126.00,183.00" fill="none" stroke="black" stroke-width="8.25" stroke-linecap="round" stroke-linejoin="round"/>
  <path d="M180.00,257.00 C179.00,257.00 176.33,255.50 174.00,257.00 C171.67,258.50 168.00,262.67 166.00,266.00 C164.00,269.33 162.50,273.50 162.00,277.00 C161.50,280.50 162.00,285.50 163.00,287.00 C164.00,288.50 165.83,287.67 168.00,286.00 C170.17,284.33 174.00,280.50 176.00,277.00 C178.00,273.50 179.50,268.50 180.00,265.00 C180.50,261.50 179.17,257.50 179.00,256.00" fill="none" stroke="black" stroke-width="4.47" stroke-linecap="round" stroke-linejoin="round"/>
  <path d="M163.00,287.00 C161.83,288.67 158.83,294.17 156.00,297.00 C153.17,299.83 147.67,302.83 146.00,304.00" fill="none" stroke="black" stroke-width="7.21" stroke-linecap="round" stroke-linejoin="round"/>
</svg>
