<?xml version="1.0" encoding="UTF-8"?>
<svg xmlns="http://www.w3.org/2000/svg" viewBox="0 0 325 701" width="325" height="701">
  <path d="M54.00,249.00 C55.83,248.83 62.67,249.00 65.00,248.00 C67.33,247.00 65.00,245.33 68.00,243.00 C71.00,240.67 80.17,236.17 83.00,234.00 C85.83,231.83 86.50,231.50 85.00,230.00 C83.50,228.50 76.17,226.33 74.00,225.00 C71.83,223.67 72.33,222.50 72.00,222.00" fill="none" stroke="black" stroke-width="5.66" stroke-linecap="round" stroke-linejoin="round"/>
  <path d="M316.00,692.00 C306.17,673.00 273.17,610.67 257.00,578.00 C240.83,545.33 234.67,533.33 219.00,496.00 C203.33,458.67 178.50,395.50 163.00,354.00 C147.50,312.50 133.00,266.00 126.00,247.00 C119.00,228.00 121.83,242.50 121.00,240.00 C120.17,237.50 124.67,244.00 121.00,232.00 C117.33,220.00 102.50,179.00 99.00,168.00 C95.50,157.00 99.83,165.83 100.00,166.00 C100.17,166.17 102.50,167.83 100.00,169.00 C97.50,170.17 86.67,175.00 85.00,173.00 C83.33,171.00 88.00,159.50 90.00,157.00 C92.00,154.50 95.83,157.83 97.00,158.00" fill="none" stroke="black" stroke-width="4.47" stroke-linecap="round" stroke-linejoin="round"/>
  <path d="M63.00,21.00 C62.67,21.00 60.83,22.17 61.00,21.00 C61.17,19.83 62.17,16.00 64.00,14.00 C65.83,12.00 69.83,10.17 72.00,9.00 C74.17,7.83 73.50,7.33 77.00,7.00 C80.50,6.67 88.50,6.17 93.00,7.00 C97.50,7.83 101.17,10.17 104.00,12.00 C106.83,13.83 108.67,15.67 110.00,18.00 C111.33,20.33 111.67,24.67 112.00,26.00" fill="none" stroke="black" stroke-width="4.47" stroke-linecap="round" stroke-linejoin="round"/>
  <path d="M89.00,31.00 C88.00,29.83 87.67,25.67 83.00,24.00 C78.33,22.33 67.00,19.17 61.00,21.00 C55.00,22.83 48.67,32.33 47.00,35.00 C45.33,37.67 50.00,32.00 51.00,37.00 C52.00,42.00 52.17,58.67 53.00,65.00 C53.83,71.33 55.83,72.00 56.00,75.00 C56.17,78.00 51.00,78.33 54.00,83.00 C57.00,87.67 70.33,98.67 74.00,103.00 C77.67,107.33 76.00,107.17 76.00,109.00 C76.00,110.83 74.33,113.17 74.00,114.00" fill="none" stroke="black" stroke-width="5.83" stroke-linecap="round" stroke-linejoin="round"/>
  <path d="M148.00,53.00 C147.17,50.67 146.67,43.67 143.00,39.00 C139.33,34.33 131.00,27.33 126.00,25.00 C121.00,22.67 115.33,23.33 113.00,25.00 C110.67,26.67 112.67,32.83 112.00,35.00 C111.33,37.17 112.67,38.83 109.00,38.00 C105.33,37.17 96.17,29.67 90.00,30.00 C83.83,30.33 76.33,36.33 72.00,40.00 C67.67,43.67 65.00,48.17 64.00,52.00 C63.00,55.83 63.83,59.17 66.00,63.00 C68.17,66.83 75.17,73.00 77.00,75.00" fill="none" stroke="black" stroke-width="5.66" stroke-linecap="round" stroke-linejoin="round"/>
  <path d="M34.00,77.00 C34.50,73.00 35.67,59.17 37.00,53.00 C38.33,46.83 40.33,43.00 42.00,40.00 C43.67,37.00 47.50,36.83 47.00,35.00 C46.50,33.17 42.50,30.00 39.00,29.00 C35.50,28.00 29.33,27.67 26.00,29.00 C22.67,30.33 21.67,32.00 19.00,37.00 C16.33,42.00 12.00,53.33 10.00,59.00 C8.00,64.67 7.50,66.50 7.00,71.00 C6.50,75.50 6.33,82.00 7.00,86.00 C7.67,90.00 9.17,92.67 11.00,95.00 C12.83,97.33 15.50,102.17 18.00,100.00 C20.50,97.83 23.33,85.67 26.00,82.00 C28.67,78.33 31.83,76.50 34.00,78.00 C36.17,79.50 37.17,87.50 39.00,91.00 C40.83,94.50 44.00,97.67 45.00,99.00" fill="none" stroke="black" stroke-width="5.66" stroke-linecap="round" stroke-linejoin="round"/>
  <path d="M108.00,38.00 C108.67,39.00 109.33,42.00 112.00,44.00 C114.67,46.00 119.50,46.00 124.00,50.00 C128.50,54.00 135.50,67.17 139.00,68.00 C142.50,68.83 143.50,57.50 145.00,55.00 C146.50,52.50 144.83,51.17 148.00,53.00 C151.17,54.83 161.00,62.50 164.00,66.00 C167.00,69.50 166.00,70.83 166.00,74.00 C166.00,77.17 165.67,81.50 164.00,85.00 C162.33,88.50 158.33,93.00 156.00,95.00 C153.67,97.00 151.00,96.67 150.00,97.00" fill="none" stroke="black" stroke-width="4.47" stroke-linecap="round" stroke-linejoin="round"/>
  <path d="M139.00,68.00 C139.33,68.67 140.67,68.00 141.00,72.00 C141.33,76.00 140.67,88.67 141.00,92.00 C141.33,95.33 142.67,92.00 143.00,92.00" fill="none" stroke="black" stroke-width="6.00" stroke-linecap="round" stroke-linejoin="round"/>
  <path d="M55.00,76.00 C58.33,76.17 71.33,77.33 75.00,77.00 C78.67,76.67 75.00,74.33 77.00,74.00 C79.00,73.67 83.33,76.00 87.00,75.00 C90.67,74.00 95.67,69.17 99.00,68.00 C102.33,66.83 104.17,67.00 107.00,68.00 C109.83,69.00 114.50,70.67 116.00,74.00 C117.50,77.33 119.00,83.17 116.00,88.00 C113.00,92.83 101.50,99.50 98.00,103.00 C94.50,106.50 95.50,106.00 95.00,109.00 C94.50,112.00 97.67,119.50 95.00,121.00 C92.33,122.50 82.33,119.33 79.00,118.00 C75.67,116.67 76.83,113.83 75.00,113.00 C73.17,112.17 72.00,115.00 68.00,113.00 C64.00,111.00 54.83,103.00 51.00,101.00 C47.17,99.00 45.83,100.00 45.00,101.00 C44.17,102.00 44.83,104.50 46.00,107.00 C47.17,109.50 48.83,112.50 52.00,116.00 C55.17,119.50 59.33,124.17 65.00,128.00 C70.67,131.83 78.17,136.50 86.00,139.00 C93.83,141.50 107.00,141.67 112.00,143.00 C117.00,144.33 112.17,147.17 116.00,147.00 C119.83,146.83 130.17,144.17 135.00,142.00 C139.83,139.83 142.50,138.00 145.00,134.00 C147.50,130.00 149.17,124.17 150.00,118.00 C150.83,111.83 150.83,101.33 150.00,97.00 C149.17,92.67 146.67,92.83 145.00,92.00 C143.33,91.17 142.50,91.00 140.00,92.00 C137.50,93.00 135.17,93.33 130.00,98.00 C124.83,102.67 113.50,116.00 109.00,120.00 C104.50,124.00 105.33,121.83 103.00,122.00 C100.67,122.17 96.33,121.17 95.00,121.00" fill="none" stroke="black" stroke-width="5.66" stroke-linecap="round" stroke-linejoin="round"/>
  <path d="M18.00,100.00 C18.33,105.00 18.33,122.83 20.00,130.00 C21.67,137.17 25.00,139.17 28.00,143.00 C31.00,146.83 34.33,150.67 38.00,153.00 C41.67,155.33 41.50,156.33 50.00,157.00 C58.50,157.67 82.50,157.00 89.00,157.00" fill="none" stroke="black" stroke-width="4.47" stroke-linecap="round" stroke-linejoin="round"/>
  <path d="M116.00,147.00 C115.67,148.17 115.67,152.83 114.00,154.00 C112.33,155.17 108.83,153.33 106.00,154.00 C103.17,154.67 98.17,156.17 97.00,158.00 C95.83,159.83 96.33,164.17 99.00,165.00 C101.67,165.83 110.17,163.83 113.00,163.00 C115.83,162.17 115.83,161.50 116.00,160.00 C116.17,158.50 114.33,155.00 114.00,154.00" fill="none" stroke="black" stroke-width="6.32" stroke-linecap="round" stroke-linejoin="round"/>
  <path d="M43.00,195.00 C44.00,195.17 46.83,195.00 49.00,196.00 C51.17,197.00 52.33,197.67 56.00,201.00 C59.67,204.33 68.33,212.33 71.00,216.00 C73.67,219.67 73.17,221.83 72.00,223.00 C70.83,224.17 67.33,223.83 64.00,223.00 C60.67,222.17 55.00,220.17 52.00,218.00 C49.00,215.83 47.50,213.67 46.00,210.00 C44.50,206.33 43.50,198.33 43.00,196.00" fill="none" stroke="black" stroke-width="4.47" stroke-linecap="round" stroke-linejoin="round"/>
  <path d="M84.00,231.00 C85.50,230.83 89.67,229.00 93.00,230.00 C96.33,231.00 102.17,235.83 104.00,237.00" fill="none" stroke="black" stroke-width="5.66" stroke-linecap="round" stroke-linejoin="round"/>
  <path d="M120.00,240.00 C117.17,239.50 107.83,236.00 103.00,237.00 C98.17,238.00 95.00,243.67 91.00,246.00 C87.00,248.33 82.67,250.00 79.00,251.00 C75.33,252.00 71.33,252.50 69.00,252.00 C66.67,251.50 65.67,248.67 65.00,248.00" fill="none" stroke="black" stroke-width="6.00" stroke-linecap="round" stroke-linejoin="round"/>
</svg>
