<?xml version="1.0" encoding="UTF-8"?>
<svg xmlns="http://www.w3.org/2000/svg" viewBox="0 0 325 700" width="325" height="700">
  <path d="M8.00,692.00 C17.17,674.33 47.00,618.50 63.00,586.00 C79.00,553.50 87.67,535.83 104.00,497.00 C120.33,458.17 145.33,394.83 161.00,353.00 C176.67,311.17 191.00,265.00 198.00,246.00 C205.00,227.00 202.17,241.50 203.00,239.00 C203.83,236.50 200.00,241.83 203.00,231.00 C206.00,220.17 217.33,184.50 221.00,174.00 C224.67,163.50 224.67,169.50 225.00,168.00 C225.33,166.50 225.33,165.83 223.00,165.00 C220.67,164.17 213.50,163.83 211.00,163.00 C208.50,162.17 208.33,161.33 208.00,160.00 C207.67,158.67 207.33,156.00 209.00,155.00 C210.67,154.00 215.00,153.50 218.00,154.00 C221.00,154.50 224.50,157.50 227.00,158.00 C229.50,158.50 232.00,157.17 233.00,157.00" fill="none" stroke="black" stroke-width="4.47" stroke-linecap="round" stroke-linejoin="round"/>
  <path d="M211.00,25.00 C212.17,23.00 214.67,16.00 218.00,13.00 C221.33,10.00 226.17,8.00 231.00,7.00 C235.83,6.00 243.50,6.67 247.00,7.00 C250.50,7.33 249.50,7.33 252.00,9.00 C254.50,10.67 260.50,15.00 262.00,17.00 C263.50,19.00 260.83,20.33 261.00,21.00 C261.17,21.67 262.67,21.00 263.00,21.00" fill="none" stroke="black" stroke-width="4.47" stroke-linecap="round" stroke-linejoin="round"/>
  <path d="M235.00,30.00 C236.50,28.83 239.17,24.50 244.00,23.00 C248.83,21.50 259.00,19.00 264.00,21.00 C269.00,23.00 272.33,32.67 274.00,35.00" fill="none" stroke="black" stroke-width="6.00" stroke-linecap="round" stroke-linejoin="round"/>
  <path d="M176.00,53.00 C176.33,51.50 176.00,47.67 178.00,44.00 C180.00,40.33 184.00,34.33 188.00,31.00 C192.00,27.67 198.00,24.83 202.00,24.00 C206.00,23.17 210.00,23.17 212.00,26.00 C214.00,28.83 216.50,36.67 214.00,41.00 C211.50,45.33 201.00,48.33 197.00,52.00 C193.00,55.67 192.17,60.33 190.00,63.00 C187.83,65.67 185.00,67.17 184.00,68.00" fill="none" stroke="black" stroke-width="4.47" stroke-linecap="round" stroke-linejoin="round"/>
  <path d="M214.00,39.00 C217.50,37.50 231.17,31.00 235.00,30.00 C238.83,29.00 234.17,31.33 237.00,33.00 C239.83,34.67 248.33,37.00 252.00,40.00 C255.67,43.00 258.00,47.17 259.00,51.00 C260.00,54.83 259.83,59.17 258.00,63.00 C256.17,66.83 251.50,72.00 248.00,74.00 C244.50,76.00 240.00,75.67 237.00,75.00 C234.00,74.33 233.33,71.17 230.00,70.00 C226.67,68.83 220.83,67.17 217.00,68.00 C213.17,68.83 208.33,71.33 207.00,75.00 C205.67,78.67 206.67,86.17 209.00,90.00 C211.33,93.83 218.00,95.50 221.00,98.00 C224.00,100.50 225.67,101.17 227.00,105.00 C228.33,108.83 228.67,118.33 229.00,121.00" fill="none" stroke="black" stroke-width="5.66" stroke-linecap="round" stroke-linejoin="round"/>
  <path d="M278.00,35.00 C277.33,35.00 275.00,34.33 274.00,35.00 C273.00,35.67 273.00,32.33 272.00,39.00 C271.00,45.67 271.67,68.67 268.00,75.00 C264.33,81.33 253.50,77.17 250.00,77.00 C246.50,76.83 247.50,74.50 247.00,74.00" fill="none" stroke="black" stroke-width="8.00" stroke-linecap="round" stroke-linejoin="round"/>
  <path d="M289.00,79.00 C288.67,75.00 288.17,61.50 287.00,55.00 C285.83,48.50 283.50,43.33 282.00,40.00 C280.50,36.67 277.50,36.83 278.00,35.00 C278.50,33.17 281.67,30.00 285.00,29.00 C288.33,28.00 294.17,26.67 298.00,29.00 C301.83,31.33 305.17,37.00 308.00,43.00 C310.83,49.00 313.50,58.67 315.00,65.00 C316.50,71.33 317.33,76.00 317.00,81.00 C316.67,86.00 315.00,92.00 313.00,95.00 C311.00,98.00 307.17,100.67 305.00,99.00 C302.83,97.33 302.50,88.50 300.00,85.00 C297.50,81.50 292.17,77.67 290.00,78.00 C287.83,78.33 289.00,83.33 287.00,87.00 C285.00,90.67 279.67,96.33 278.00,100.00 C276.33,103.67 279.50,104.83 277.00,109.00 C274.50,113.17 269.50,120.00 263.00,125.00 C256.50,130.00 245.83,136.17 238.00,139.00 C230.17,141.83 221.00,140.83 216.00,142.00 C211.00,143.17 212.50,146.00 208.00,146.00 C203.50,146.00 193.83,144.00 189.00,142.00 C184.17,140.00 181.50,137.17 179.00,134.00 C176.50,130.83 174.67,129.17 174.00,123.00 C173.33,116.83 174.83,101.33 175.00,97.00" fill="none" stroke="black" stroke-width="5.66" stroke-linecap="round" stroke-linejoin="round"/>
  <path d="M181.00,92.00 C181.33,92.00 182.67,95.50 183.00,92.00 C183.33,88.50 182.67,75.17 183.00,71.00 C183.33,66.83 186.17,70.00 185.00,67.00 C183.83,64.00 179.33,54.00 176.00,53.00 C172.67,52.00 168.00,58.17 165.00,61.00 C162.00,63.83 159.17,66.67 158.00,70.00 C156.83,73.33 156.33,76.83 158.00,81.00 C159.67,85.17 165.17,92.17 168.00,95.00 C170.83,97.83 173.17,98.50 175.00,98.00 C176.83,97.50 177.50,93.00 179.00,92.00 C180.50,91.00 182.00,91.33 184.00,92.00 C186.00,92.67 185.50,91.17 191.00,96.00 C196.50,100.83 209.67,116.83 217.00,121.00 C224.33,125.17 229.83,122.00 235.00,121.00 C240.17,120.00 245.83,116.00 248.00,115.00" fill="none" stroke="black" stroke-width="5.66" stroke-linecap="round" stroke-linejoin="round"/>
  <path d="M268.00,75.00 C268.33,75.50 269.83,76.50 270.00,78.00 C270.17,79.50 272.17,80.17 269.00,84.00 C265.83,87.83 254.50,97.33 251.00,101.00 C247.50,104.67 248.50,103.67 248.00,106.00 C247.50,108.33 246.67,113.83 248.00,115.00 C249.33,116.17 252.17,115.17 256.00,113.00 C259.83,110.83 267.17,104.00 271.00,102.00 C274.83,100.00 277.67,101.50 279.00,101.00 C280.33,100.50 279.00,99.33 279.00,99.00" fill="none" stroke="black" stroke-width="5.66" stroke-linecap="round" stroke-linejoin="round"/>
  <path d="M305.00,100.00 C305.00,103.17 305.50,113.33 305.00,119.00 C304.50,124.67 305.00,128.50 302.00,134.00 C299.00,139.50 291.67,148.17 287.00,152.00 C282.33,155.83 282.83,156.17 274.00,157.00 C265.17,157.83 239.83,154.17 234.00,157.00 C228.17,159.83 238.17,171.50 239.00,174.00 C239.83,176.50 239.67,172.17 239.00,172.00 C238.33,171.83 237.50,173.83 235.00,173.00 C232.50,172.17 226.00,168.33 224.00,167.00 C222.00,165.67 222.50,166.50 223.00,165.00 C223.50,163.50 226.33,159.17 227.00,158.00" fill="none" stroke="black" stroke-width="5.66" stroke-linecap="round" stroke-linejoin="round"/>
  <path d="M208.00,147.00 L209.00,155.00" fill="none" stroke="black" stroke-width="8.25" stroke-linecap="round" stroke-linejoin="round"/>
  <path d="M253.00,223.00 C252.67,223.17 251.17,224.17 251.00,224.00 C250.83,223.83 251.33,222.00 252.00,222.00 C252.67,222.00 251.67,224.67 255.00,224.00 C258.33,223.33 268.33,220.00 272.00,218.00 C275.67,216.00 275.50,215.67 277.00,212.00 C278.50,208.33 281.33,198.67 281.00,196.00 C280.67,193.33 276.83,195.50 275.00,196.00 C273.17,196.50 273.17,196.33 270.00,199.00 C266.83,201.67 259.17,207.83 256.00,212.00 C252.83,216.17 253.83,221.00 251.00,224.00 C248.17,227.00 240.33,228.00 239.00,230.00 C237.67,232.00 239.33,233.00 243.00,236.00 C246.67,239.00 258.50,245.50 261.00,248.00 C263.50,250.50 259.67,250.33 258.00,251.00 C256.33,251.67 254.17,252.33 251.00,252.00 C247.83,251.67 244.00,251.50 239.00,249.00 C234.00,246.50 227.17,238.50 221.00,237.00 C214.83,235.50 204.83,239.50 202.00,240.00 C199.17,240.50 203.67,240.00 204.00,240.00" fill="none" stroke="black" stroke-width="5.66" stroke-linecap="round" stroke-linejoin="round"/>
  <path d="M221.00,237.00 C221.50,236.33 222.33,234.17 224.00,233.00 C225.67,231.83 228.33,230.33 231.00,230.00 C233.67,229.67 238.50,230.83 240.00,231.00" fill="none" stroke="black" stroke-width="5.66" stroke-linecap="round" stroke-linejoin="round"/>
</svg>
