<?xml version="1.0" encoding="UTF-8"?>
<svg xmlns="http://www.w3.org/2000/svg" viewBox="0 0 315 980" width="315" height="980">
  <path d="M116.00,64.00 C117.00,65.67 120.17,69.83 122.00,74.00 C123.83,78.17 126.17,85.33 127.00,89.00 C127.83,92.67 126.17,94.17 127.00,96.00 C127.83,97.83 131.33,96.83 132.00,100.00 C132.67,103.17 131.67,111.83 131.00,115.00 C130.33,118.17 129.83,119.83 128.00,119.00 C126.17,118.17 122.00,114.67 120.00,110.00 C118.00,105.33 117.50,95.83 116.00,91.00 C114.50,86.17 111.83,82.67 111.00,81.00" fill="none" stroke="black" stroke-width="5.66" stroke-linecap="round" stroke-linejoin="round"/>
  <path d="M63.00,113.00 C66.17,116.17 77.67,129.17 82.00,132.00 C86.33,134.83 87.67,131.00 89.00,130.00 C90.33,129.00 91.17,129.50 90.00,126.00 C88.83,122.50 83.50,114.00 82.00,109.00 C80.50,104.00 82.00,100.50 81.00,96.00 C80.00,91.50 76.50,85.00 76.00,82.00 C75.50,79.00 78.00,83.50 78.00,78.00 C78.00,72.50 75.67,58.33 76.00,49.00 C76.33,39.67 78.17,28.67 80.00,22.00 C81.83,15.33 85.00,11.67 87.00,9.00 C89.00,6.33 89.00,6.17 92.00,6.00 C95.00,5.83 98.50,3.67 105.00,8.00 C111.50,12.33 123.50,24.33 131.00,32.00 C138.50,39.67 146.17,47.83 150.00,54.00 C153.83,60.17 153.33,66.50 154.00,69.00" fill="none" stroke="black" stroke-width="5.66" stroke-linecap="round" stroke-linejoin="round"/>
  <path d="M177.00,125.00 C174.17,127.17 165.50,135.67 160.00,138.00 C154.50,140.33 146.00,135.17 144.00,139.00 C142.00,142.83 147.33,157.33 148.00,161.00" fill="none" stroke="black" stroke-width="6.00" stroke-linecap="round" stroke-linejoin="round"/>
  <path d="M102.00,150.00 C100.33,150.33 94.50,151.00 92.00,152.00 C89.50,153.00 88.50,155.67 87.00,156.00 C85.50,156.33 84.33,155.00 83.00,154.00 C81.67,153.00 79.83,151.50 79.00,150.00 C78.17,148.50 77.67,147.83 78.00,145.00 C78.33,142.17 80.83,135.00 81.00,133.00 C81.17,131.00 79.33,133.00 79.00,133.00" fill="none" stroke="black" stroke-width="7.21" stroke-linecap="round" stroke-linejoin="round"/>
  <path d="M55.00,156.00 C55.17,154.33 54.83,148.50 56.00,146.00 C57.17,143.50 61.00,143.00 62.00,141.00 C63.00,139.00 65.50,135.17 62.00,134.00 C58.50,132.83 44.50,134.00 41.00,134.00" fill="none" stroke="black" stroke-width="6.00" stroke-linecap="round" stroke-linejoin="round"/>
  <path d="M111.00,166.00 C108.83,167.50 100.67,174.67 98.00,175.00 C95.33,175.33 97.00,170.17 95.00,168.00 C93.00,165.83 87.33,164.00 86.00,162.00 C84.67,160.00 86.83,157.00 87.00,156.00" fill="none" stroke="black" stroke-width="10.00" stroke-linecap="round" stroke-linejoin="round"/>
  <path d="M71.00,167.00 C68.83,167.50 60.33,168.83 58.00,170.00 C55.67,171.17 55.67,172.00 57.00,174.00 C58.33,176.00 64.00,178.83 66.00,182.00 C68.00,185.17 67.67,190.67 69.00,193.00 C70.33,195.33 71.83,195.67 74.00,196.00 C76.17,196.33 80.17,194.00 82.00,195.00 C83.83,196.00 83.33,200.50 85.00,202.00 C86.67,203.50 89.33,204.00 92.00,204.00 C94.67,204.00 98.67,203.67 101.00,202.00 C103.33,200.33 105.17,195.33 106.00,194.00" fill="none" stroke="black" stroke-width="5.66" stroke-linecap="round" stroke-linejoin="round"/>
  <path d="M35.00,183.00 C38.50,181.67 52.00,177.00 56.00,175.00 C60.00,173.00 58.50,171.67 59.00,171.00" fill="none" stroke="black" stroke-width="4.00" stroke-linecap="round" stroke-linejoin="round"/>
  <path d="M186.00,213.00 C184.17,208.83 179.00,194.83 175.00,188.00 C171.00,181.17 165.00,175.17 162.00,172.00 C159.00,168.83 158.17,170.50 157.00,169.00 C155.83,167.50 154.67,164.33 155.00,163.00 C155.33,161.67 154.67,160.33 159.00,161.00 C163.33,161.67 172.50,166.67 181.00,167.00 C189.50,167.33 205.00,162.83 210.00,163.00 C215.00,163.17 210.83,167.17 211.00,168.00" fill="none" stroke="black" stroke-width="6.00" stroke-linecap="round" stroke-linejoin="round"/>
  <path d="M116.00,214.00 C116.83,212.17 119.83,208.17 121.00,203.00 C122.17,197.83 122.67,186.00 123.00,183.00 C123.33,180.00 123.00,184.67 123.00,185.00" fill="none" stroke="black" stroke-width="5.83" stroke-linecap="round" stroke-linejoin="round"/>
  <path d="M172.00,324.00 C170.83,328.00 165.33,343.33 165.00,348.00 C164.67,352.67 168.67,343.83 170.00,352.00 C171.33,360.17 170.00,376.67 173.00,397.00 C176.00,417.33 184.00,447.33 188.00,474.00 C192.00,500.67 195.50,534.67 197.00,557.00 C198.50,579.33 197.50,598.83 197.00,608.00 C196.50,617.17 194.50,610.33 194.00,612.00 C193.50,613.67 194.83,615.83 194.00,618.00 C193.17,620.17 191.17,624.33 189.00,625.00 C186.83,625.67 183.33,623.83 181.00,622.00 C178.67,620.17 176.67,619.67 175.00,614.00 C173.33,608.33 171.67,592.33 171.00,588.00" fill="none" stroke="black" stroke-width="4.00" stroke-linecap="round" stroke-linejoin="round"/>
  <path d="M215.00,734.00 C211.67,728.83 199.67,709.00 195.00,703.00 C190.33,697.00 189.67,701.50 187.00,698.00 C184.33,694.50 182.17,690.83 179.00,682.00 C175.83,673.17 171.33,659.00 168.00,645.00 C164.67,631.00 160.67,607.50 159.00,598.00 C157.33,588.50 157.67,590.33 158.00,588.00 C158.33,585.67 160.50,585.50 161.00,584.00 C161.50,582.50 163.50,599.00 161.00,579.00 C158.50,559.00 148.67,491.67 146.00,464.00 C143.33,436.33 144.83,425.17 145.00,413.00 C145.17,400.83 145.50,400.00 147.00,391.00 C148.50,382.00 152.50,365.33 154.00,359.00 C155.50,352.67 154.17,354.83 156.00,353.00 C157.83,351.17 164.00,345.50 165.00,348.00 C166.00,350.50 162.50,355.67 162.00,368.00 C161.50,380.33 160.33,398.50 162.00,422.00 C163.67,445.50 170.00,482.17 172.00,509.00 C174.00,535.83 174.17,569.67 174.00,583.00 C173.83,596.33 172.33,588.67 171.00,589.00 C169.67,589.33 167.83,585.83 166.00,585.00 C164.17,584.17 161.00,584.17 160.00,584.00" fill="none" stroke="black" stroke-width="4.00" stroke-linecap="round" stroke-linejoin="round"/>
  <path d="M238.00,784.00 C241.00,793.83 252.67,832.67 256.00,843.00 C259.33,853.33 256.50,845.17 258.00,846.00 C259.50,846.83 267.67,863.33 265.00,848.00 C262.33,832.67 247.83,774.50 242.00,754.00 C236.17,733.50 236.33,737.83 230.00,725.00 C223.67,712.17 211.00,693.67 204.00,677.00 C197.00,660.33 190.67,633.67 188.00,625.00" fill="none" stroke="black" stroke-width="4.00" stroke-linecap="round" stroke-linejoin="round"/>
  <path d="M210.00,163.00 C210.67,161.17 212.50,154.50 214.00,152.00 C215.50,149.50 216.67,153.83 219.00,148.00 C221.33,142.17 225.17,128.33 228.00,117.00 C230.83,105.67 235.00,87.00 236.00,80.00 C237.00,73.00 240.00,76.50 234.00,75.00 C228.00,73.50 207.33,72.33 200.00,71.00 C192.67,69.67 195.50,67.67 190.00,67.00 C184.50,66.33 173.00,66.50 167.00,67.00 C161.00,67.50 158.17,67.17 154.00,70.00 C149.83,72.83 145.00,79.50 142.00,84.00 C139.00,88.50 137.83,94.17 136.00,97.00 C134.17,99.83 131.83,100.33 131.00,101.00" fill="none" stroke="black" stroke-width="6.00" stroke-linecap="round" stroke-linejoin="round"/>
  <path d="M75.00,81.00 C67.83,77.67 40.50,64.33 32.00,61.00 C23.50,57.67 26.00,60.33 24.00,61.00 C22.00,61.67 20.50,62.00 20.00,65.00 C19.50,68.00 19.67,72.83 21.00,79.00 C22.33,85.17 26.67,96.17 28.00,102.00 C29.33,107.83 26.83,108.50 29.00,114.00 C31.17,119.50 41.50,129.00 41.00,135.00 C40.50,141.00 31.00,142.83 26.00,150.00 C21.00,157.17 14.17,171.17 11.00,178.00 C7.83,184.83 3.33,185.33 7.00,191.00 C10.67,196.67 26.33,207.00 33.00,212.00 C39.67,217.00 43.00,219.00 47.00,221.00 C51.00,223.00 52.50,223.67 57.00,224.00 C61.50,224.33 69.17,226.67 74.00,223.00 C78.83,219.33 84.00,205.50 86.00,202.00" fill="none" stroke="black" stroke-width="5.06" stroke-linecap="round" stroke-linejoin="round"/>
  <path d="M128.00,119.00 C127.83,120.00 125.83,123.67 127.00,125.00 C128.17,126.33 133.33,125.50 135.00,127.00 C136.67,128.50 135.50,132.17 137.00,134.00 C138.50,135.83 142.83,137.33 144.00,138.00" fill="none" stroke="black" stroke-width="12.00" stroke-linecap="round" stroke-linejoin="round"/>
  <path d="M127.00,125.00 C125.83,126.00 123.17,129.50 120.00,131.00 C116.83,132.50 112.00,133.50 108.00,134.00 C104.00,134.50 99.33,134.50 96.00,134.00 C92.67,133.50 89.00,131.50 88.00,131.00 C87.00,130.50 89.67,131.00 90.00,131.00" fill="none" stroke="black" stroke-width="5.66" stroke-linecap="round" stroke-linejoin="round"/>
  <path d="M82.00,132.00 C79.83,132.00 72.33,131.50 69.00,132.00 C65.67,132.50 63.17,134.50 62.00,135.00" fill="none" stroke="black" stroke-width="6.00" stroke-linecap="round" stroke-linejoin="round"/>
  <path d="M219.00,148.00 C220.50,149.17 223.50,148.83 228.00,155.00 C232.50,161.17 242.83,178.17 246.00,185.00 C249.17,191.83 246.17,193.67 247.00,196.00 C247.83,198.33 250.17,197.00 251.00,199.00 C251.83,201.00 249.50,200.33 252.00,208.00 C254.50,215.67 260.33,225.33 266.00,245.00 C271.67,264.67 282.50,309.50 286.00,326.00 C289.50,342.50 286.50,340.67 287.00,344.00 C287.50,347.33 287.83,340.00 289.00,346.00 C290.17,352.00 291.83,356.17 294.00,380.00 C296.17,403.83 300.33,460.00 302.00,489.00 C303.67,518.00 303.83,526.00 304.00,554.00 C304.17,582.00 302.83,637.83 303.00,657.00 C303.17,676.17 305.00,664.50 305.00,669.00 C305.00,673.50 303.00,673.50 303.00,684.00 C303.00,694.50 305.17,719.83 305.00,732.00 C304.83,744.17 303.33,750.50 302.00,757.00 C300.67,763.50 299.83,768.67 297.00,771.00 C294.17,773.33 286.17,785.50 285.00,771.00 C283.83,756.50 288.83,713.50 290.00,684.00 C291.17,654.50 292.00,628.67 292.00,594.00 C292.00,559.33 291.17,506.33 290.00,476.00 C288.83,445.67 286.17,423.17 285.00,412.00 C283.83,400.83 283.83,415.50 283.00,409.00 C282.17,402.50 281.17,381.33 280.00,373.00 C278.83,364.67 277.67,368.50 276.00,359.00 C274.33,349.50 274.17,336.17 270.00,316.00 C265.83,295.83 255.83,255.50 251.00,238.00 C246.17,220.50 242.67,217.67 241.00,211.00 C239.33,204.33 241.33,200.17 241.00,198.00 C240.67,195.83 239.33,198.00 239.00,198.00" fill="none" stroke="black" stroke-width="5.66" stroke-linecap="round" stroke-linejoin="round"/>
  <path d="M154.00,163.00 C153.00,162.50 150.50,158.83 148.00,160.00 C145.50,161.17 139.83,166.00 139.00,170.00 C138.17,174.00 142.83,174.33 143.00,184.00 C143.17,193.67 140.50,220.67 140.00,228.00" fill="none" stroke="black" stroke-width="6.16" stroke-linecap="round" stroke-linejoin="round"/>
  <path d="M165.00,164.00 L162.00,173.00" fill="none" stroke="black" stroke-width="4.47" stroke-linecap="round" stroke-linejoin="round"/>
  <path d="M247.00,196.00 C245.33,196.33 241.17,201.67 237.00,198.00 C232.83,194.33 225.83,179.00 222.00,174.00 C218.17,169.00 215.83,168.83 214.00,168.00 C212.17,167.17 211.50,169.17 211.00,169.00 C210.50,168.83 209.83,164.17 211.00,167.00 C212.17,169.83 216.83,175.17 218.00,186.00 C219.17,196.83 218.33,223.83 218.00,232.00 C217.67,240.17 216.83,228.33 216.00,235.00 C215.17,241.67 213.83,265.50 213.00,272.00 C212.17,278.50 218.67,277.00 211.00,274.00 C203.33,271.00 176.17,258.67 167.00,254.00 C157.83,249.33 160.67,250.50 156.00,246.00 C151.33,241.50 143.00,228.83 139.00,227.00 C135.00,225.17 134.00,231.83 132.00,235.00 C130.00,238.17 130.00,241.67 127.00,246.00 C124.00,250.33 121.67,254.83 114.00,261.00 C106.33,267.17 87.83,279.17 81.00,283.00 C74.17,286.83 75.17,284.83 73.00,284.00 C70.83,283.17 68.50,284.17 68.00,278.00 C67.50,271.83 69.00,254.83 70.00,247.00 C71.00,239.17 73.50,235.00 74.00,231.00 C74.50,227.00 73.17,224.33 73.00,223.00" fill="none" stroke="black" stroke-width="5.66" stroke-linecap="round" stroke-linejoin="round"/>
  <path d="M140.00,171.00 C138.83,171.00 135.67,169.50 133.00,171.00 C130.33,172.50 125.67,177.83 124.00,180.00 C122.33,182.17 124.67,183.00 123.00,184.00 C121.33,185.00 116.83,184.33 114.00,186.00 C111.17,187.67 108.67,193.00 106.00,194.00 C103.33,195.00 99.83,193.00 98.00,192.00 C96.17,191.00 95.50,189.83 95.00,188.00 C94.50,186.17 94.33,183.33 95.00,181.00 C95.67,178.67 98.33,175.17 99.00,174.00" fill="none" stroke="black" stroke-width="6.00" stroke-linecap="round" stroke-linejoin="round"/>
  <path d="M187.00,698.00 C187.00,699.00 185.67,699.17 187.00,704.00 C188.33,708.83 189.17,713.17 195.00,727.00 C200.83,740.83 214.50,771.33 222.00,787.00 C229.50,802.67 233.50,807.00 240.00,821.00 C246.50,835.00 257.50,862.67 261.00,871.00" fill="none" stroke="black" stroke-width="4.47" stroke-linecap="round" stroke-linejoin="round"/>
  <path d="M285.00,771.00 C284.50,773.33 282.33,778.83 282.00,785.00 C281.67,791.17 282.50,804.17 283.00,808.00 C283.50,811.83 285.00,807.83 285.00,808.00 C285.00,808.17 281.67,809.00 283.00,809.00 C284.33,809.00 291.17,805.83 293.00,808.00 C294.83,810.17 296.00,808.83 294.00,822.00 C292.00,835.17 284.00,869.67 281.00,887.00 C278.00,904.33 277.67,916.50 276.00,926.00 C274.33,935.50 272.17,936.83 271.00,944.00 C269.83,951.17 270.50,964.50 269.00,969.00 C267.50,973.50 264.17,971.33 262.00,971.00 C259.83,970.67 257.00,969.83 256.00,967.00 C255.00,964.17 255.33,957.83 256.00,954.00 C256.67,950.17 258.67,949.50 260.00,944.00 C261.33,938.50 262.33,933.83 264.00,921.00 C265.67,908.17 269.00,876.00 270.00,867.00" fill="none" stroke="black" stroke-width="6.00" stroke-linecap="round" stroke-linejoin="round"/>
  <path d="M296.00,771.00 C296.50,775.83 299.67,793.83 299.00,800.00 C298.33,806.17 293.17,806.67 292.00,808.00" fill="none" stroke="black" stroke-width="6.00" stroke-linecap="round" stroke-linejoin="round"/>
  <path d="M283.00,809.00 C282.00,811.67 278.33,818.83 277.00,825.00 C275.67,831.17 276.33,841.50 275.00,846.00 C273.67,850.50 270.67,851.50 269.00,852.00 C267.33,852.50 265.67,849.50 265.00,849.00" fill="none" stroke="black" stroke-width="6.00" stroke-linecap="round" stroke-linejoin="round"/>
  <path d="M270.00,851.00 C269.67,852.83 268.00,859.33 268.00,862.00 C268.00,864.67 271.17,865.50 270.00,867.00 C268.83,868.50 261.17,869.00 261.00,871.00 C260.83,873.00 267.67,877.67 269.00,879.00" fill="none" stroke="black" stroke-width="10.00" stroke-linecap="round" stroke-linejoin="round"/>
  <path d="M269.00,861.00 L259.00,867.00" fill="none" stroke="black" stroke-width="5.66" stroke-linecap="round" stroke-linejoin="round"/>
</svg>
