<?xml version="1.0" encoding="UTF-8"?>
<svg xmlns="http://www.w3.org/2000/svg" viewBox="0 0 315 980" width="315" height="980">
  <path d="M237.00,82.00 C237.00,76.17 237.50,56.83 237.00,47.00 C236.50,37.17 235.33,28.83 234.00,23.00 C232.67,17.17 230.67,14.67 229.00,12.00 C227.33,9.33 226.17,8.00 224.00,7.00 C221.83,6.00 218.50,5.83 216.00,6.00 C213.50,6.17 213.83,4.33 209.00,8.00 C204.17,11.67 190.33,24.33 187.00,28.00 C183.67,31.67 188.83,30.17 189.00,30.00 C189.17,29.83 190.67,25.00 188.00,27.00 C185.33,29.00 177.00,37.50 173.00,42.00 C169.00,46.50 166.33,49.33 164.00,54.00 C161.67,58.67 161.83,67.83 159.00,70.00 C156.17,72.17 152.67,67.50 147.00,67.00 C141.33,66.50 130.50,66.33 125.00,67.00 C119.50,67.67 120.67,69.83 114.00,71.00 C107.33,72.17 91.00,73.00 85.00,74.00 C79.00,75.00 78.67,73.00 78.00,77.00 C77.33,81.00 78.17,86.17 81.00,98.00 C83.83,109.83 92.67,139.67 95.00,148.00" fill="none" stroke="black" stroke-width="6.00" stroke-linecap="round" stroke-linejoin="round"/>
  <path d="M198.00,64.00 C196.83,66.00 193.00,71.50 191.00,76.00 C189.00,80.50 186.83,87.33 186.00,91.00 C185.17,94.67 186.50,96.50 186.00,98.00 C185.50,99.50 184.33,100.17 183.00,100.00 C181.67,99.83 180.00,99.83 178.00,97.00 C176.00,94.17 174.17,87.50 171.00,83.00 C167.83,78.50 161.00,72.17 159.00,70.00" fill="none" stroke="black" stroke-width="4.47" stroke-linecap="round" stroke-linejoin="round"/>
  <path d="M202.00,81.00 C200.67,85.67 196.67,102.67 194.00,109.00 C191.33,115.33 188.00,118.33 186.00,119.00 C184.00,119.67 182.50,116.17 182.00,113.00 C181.50,109.83 183.17,102.17 183.00,100.00 C182.83,97.83 181.33,100.00 181.00,100.00" fill="none" stroke="black" stroke-width="7.61" stroke-linecap="round" stroke-linejoin="round"/>
  <path d="M251.00,113.00 C247.83,116.00 236.50,128.00 232.00,131.00 C227.50,134.00 223.17,139.17 224.00,131.00 C224.83,122.83 227.33,93.67 237.00,82.00 C246.67,70.33 273.17,64.50 282.00,61.00 C290.83,57.50 288.00,60.17 290.00,61.00 C292.00,61.83 295.17,56.50 294.00,66.00 C292.83,75.50 286.50,106.67 283.00,118.00 C279.50,129.33 278.17,131.50 273.00,134.00 C267.83,136.50 255.50,131.67 252.00,133.00 C248.50,134.33 251.00,139.83 252.00,142.00 C253.00,144.17 257.00,144.33 258.00,146.00 C259.00,147.67 258.00,151.00 258.00,152.00" fill="none" stroke="black" stroke-width="5.66" stroke-linecap="round" stroke-linejoin="round"/>
  <path d="M137.00,125.00 C139.83,127.17 148.67,135.50 154.00,138.00 C159.33,140.50 165.17,140.67 169.00,140.00 C172.83,139.33 175.50,136.17 177.00,134.00 C178.50,131.83 177.00,128.17 178.00,127.00 C179.00,125.83 181.67,127.50 183.00,127.00 C184.33,126.50 185.50,124.50 186.00,124.00" fill="none" stroke="black" stroke-width="8.25" stroke-linecap="round" stroke-linejoin="round"/>
  <path d="M212.00,150.00 C214.50,150.83 223.83,154.33 227.00,155.00 C230.17,155.67 229.50,155.17 231.00,154.00 C232.50,152.83 235.33,151.33 236.00,148.00 C236.67,144.67 235.50,136.33 235.00,134.00 C234.50,131.67 233.33,134.00 233.00,134.00" fill="none" stroke="black" stroke-width="8.00" stroke-linecap="round" stroke-linejoin="round"/>
  <path d="M203.00,166.00 C204.33,167.17 208.67,171.67 211.00,173.00 C213.33,174.33 214.17,176.00 217.00,174.00 C219.83,172.00 226.00,164.17 228.00,161.00 C230.00,157.83 229.17,156.00 229.00,155.00 C228.83,154.00 227.33,155.00 227.00,155.00" fill="none" stroke="black" stroke-width="10.00" stroke-linecap="round" stroke-linejoin="round"/>
  <path d="M244.00,168.00 C245.67,168.33 252.17,169.00 254.00,170.00 C255.83,171.00 255.33,172.50 255.00,174.00 C254.67,175.50 253.33,177.83 252.00,179.00 C250.67,180.17 248.17,178.67 247.00,181.00 C245.83,183.33 246.17,190.50 245.00,193.00 C243.83,195.50 242.17,195.67 240.00,196.00 C237.83,196.33 233.83,194.17 232.00,195.00 C230.17,195.83 229.50,200.00 229.00,201.00" fill="none" stroke="black" stroke-width="5.66" stroke-linecap="round" stroke-linejoin="round"/>
  <path d="M278.00,183.00 L256.00,174.00" fill="none" stroke="black" stroke-width="4.00" stroke-linecap="round" stroke-linejoin="round"/>
  <path d="M128.00,214.00 C129.83,209.67 134.83,195.00 139.00,188.00 C143.17,181.00 150.17,176.17 153.00,172.00 C155.83,167.83 159.17,164.17 156.00,163.00 C152.83,161.83 138.00,164.33 134.00,165.00 C130.00,165.67 136.83,167.17 132.00,167.00 C127.17,166.83 110.00,163.83 105.00,164.00 C100.00,164.17 104.00,166.67 102.00,168.00 C100.00,169.33 97.00,167.17 93.00,172.00 C89.00,176.83 82.50,193.00 78.00,197.00 C73.50,201.00 68.50,195.67 66.00,196.00 C63.50,196.33 63.67,197.00 63.00,199.00 C62.33,201.00 65.33,197.67 62.00,208.00 C58.67,218.33 46.33,250.17 43.00,261.00 C39.67,271.83 42.83,269.67 42.00,273.00 C41.17,276.33 39.67,273.83 38.00,281.00 C36.33,288.17 33.67,308.50 32.00,316.00 C30.33,323.50 31.00,305.33 28.00,326.00 C25.00,346.67 17.00,402.33 14.00,440.00 C11.00,477.67 10.50,516.00 10.00,552.00 C9.50,588.00 11.17,638.00 11.00,656.00 C10.83,674.00 9.33,656.17 9.00,660.00 C8.67,663.83 8.67,674.83 9.00,679.00 C9.33,683.17 11.00,675.67 11.00,685.00 C11.00,694.33 8.83,722.83 9.00,735.00 C9.17,747.17 10.67,751.50 12.00,758.00 C13.33,764.50 16.50,767.00 17.00,774.00 C17.50,781.00 14.33,794.33 15.00,800.00 C15.67,805.67 20.00,806.67 21.00,808.00" fill="none" stroke="black" stroke-width="6.00" stroke-linecap="round" stroke-linejoin="round"/>
  <path d="M197.00,214.00 C196.00,211.00 192.33,201.83 191.00,196.00 C189.67,190.17 190.67,183.17 189.00,179.00 C187.33,174.83 183.33,172.50 181.00,171.00 C178.67,169.50 176.67,171.17 175.00,170.00 C173.33,168.83 172.67,165.50 171.00,164.00 C169.33,162.50 165.17,165.17 165.00,161.00 C164.83,156.83 169.17,142.67 170.00,139.00" fill="none" stroke="black" stroke-width="6.32" stroke-linecap="round" stroke-linejoin="round"/>
  <path d="M142.00,325.00 C142.83,328.83 145.50,344.17 147.00,348.00 C148.50,351.83 150.17,337.33 151.00,348.00 C151.83,358.67 153.67,384.83 152.00,412.00 C150.33,439.17 143.00,482.17 141.00,511.00 C139.00,539.83 139.50,572.00 140.00,585.00 C140.50,598.00 141.83,589.17 144.00,589.00 C146.17,588.83 151.17,584.50 153.00,584.00 C154.83,583.50 154.67,584.33 155.00,586.00 C155.33,587.67 156.50,584.33 155.00,594.00 C153.50,603.67 149.00,630.33 146.00,644.00 C143.00,657.67 140.17,667.00 137.00,676.00 C133.83,685.00 130.00,693.50 127.00,698.00 C124.00,702.50 123.50,697.17 119.00,703.00 C114.50,708.83 103.17,728.00 100.00,733.00" fill="none" stroke="black" stroke-width="4.00" stroke-linecap="round" stroke-linejoin="round"/>
  <path d="M76.00,784.00 C73.83,790.17 66.00,811.17 63.00,821.00 C60.00,830.83 59.67,838.67 58.00,843.00 C56.33,847.33 54.50,846.33 53.00,847.00 C51.50,847.67 49.67,848.17 49.00,847.00 C48.33,845.83 48.33,842.33 49.00,840.00 C49.67,837.67 51.33,838.33 53.00,833.00 C54.67,827.67 57.83,814.33 59.00,808.00 C60.17,801.67 57.83,804.00 60.00,795.00 C62.17,786.00 68.67,764.33 72.00,754.00 C75.33,743.67 73.67,746.00 80.00,733.00 C86.33,720.00 103.00,691.67 110.00,676.00 C117.00,660.33 119.67,647.50 122.00,639.00 C124.33,630.50 122.00,628.00 124.00,625.00 C126.00,622.00 131.50,622.83 134.00,621.00 C136.50,619.17 138.00,617.33 139.00,614.00 C140.00,610.67 139.17,605.17 140.00,601.00 C140.83,596.83 143.33,591.00 144.00,589.00" fill="none" stroke="black" stroke-width="4.00" stroke-linecap="round" stroke-linejoin="round"/>
  <path d="M187.00,118.00 C186.67,119.17 184.33,123.00 185.00,125.00 C185.67,127.00 187.50,128.50 191.00,130.00 C194.50,131.50 201.50,133.33 206.00,134.00 C210.50,134.67 214.67,134.50 218.00,134.00 C221.33,133.50 224.67,131.50 226.00,131.00" fill="none" stroke="black" stroke-width="8.00" stroke-linecap="round" stroke-linejoin="round"/>
  <path d="M231.00,131.00 C231.33,131.50 229.67,133.67 233.00,134.00 C236.33,134.33 248.00,133.17 251.00,133.00" fill="none" stroke="black" stroke-width="5.66" stroke-linecap="round" stroke-linejoin="round"/>
  <path d="M273.00,135.00 C275.33,137.33 281.33,140.17 287.00,149.00 C292.67,157.83 304.00,180.50 307.00,188.00 C310.00,195.50 309.17,190.17 305.00,194.00 C300.83,197.83 288.67,206.33 282.00,211.00 C275.33,215.67 269.17,219.83 265.00,222.00 C260.83,224.17 261.17,223.83 257.00,224.00 C252.83,224.17 244.67,226.83 240.00,223.00 C235.33,219.17 232.83,204.17 229.00,201.00 C225.17,197.83 220.33,204.50 217.00,204.00 C213.67,203.50 210.33,199.83 209.00,198.00 C207.67,196.17 209.33,193.83 209.00,193.00 C208.67,192.17 205.83,193.17 207.00,193.00 C208.17,192.83 213.83,193.17 216.00,192.00 C218.17,190.83 219.83,188.83 220.00,186.00 C220.17,183.17 217.50,176.83 217.00,175.00" fill="none" stroke="black" stroke-width="5.66" stroke-linecap="round" stroke-linejoin="round"/>
  <path d="M104.00,165.00 C103.67,163.50 103.17,158.67 102.00,156.00 C100.83,153.33 98.17,150.33 97.00,149.00 C95.83,147.67 96.83,147.17 95.00,148.00 C93.17,148.83 90.67,147.67 86.00,154.00 C81.33,160.33 70.17,179.00 67.00,186.00 C63.83,193.00 67.33,194.17 67.00,196.00 C66.67,197.83 65.33,196.83 65.00,197.00" fill="none" stroke="black" stroke-width="5.66" stroke-linecap="round" stroke-linejoin="round"/>
  <path d="M164.00,161.00 L157.00,163.00" fill="none" stroke="black" stroke-width="13.42" stroke-linecap="round" stroke-linejoin="round"/>
  <path d="M101.00,168.00 C101.00,169.33 102.00,172.33 101.00,176.00 C100.00,179.67 96.00,182.50 95.00,190.00 C94.00,197.50 94.50,213.50 95.00,221.00 C95.50,228.50 97.17,226.83 98.00,235.00 C98.83,243.17 99.17,263.50 100.00,270.00 C100.83,276.50 94.83,276.83 103.00,274.00 C111.17,271.17 139.00,258.50 149.00,253.00 C159.00,247.50 158.83,245.33 163.00,241.00 C167.17,236.67 172.17,229.33 174.00,227.00" fill="none" stroke="black" stroke-width="6.00" stroke-linecap="round" stroke-linejoin="round"/>
  <path d="M175.00,170.00 C174.33,172.17 171.17,173.33 171.00,183.00 C170.83,192.67 172.50,219.83 174.00,228.00 C175.50,236.17 177.67,228.67 180.00,232.00 C182.33,235.33 184.33,242.83 188.00,248.00 C191.67,253.17 198.33,259.33 202.00,263.00 C205.67,266.67 204.50,266.50 210.00,270.00 C215.50,273.50 229.83,281.67 235.00,284.00 C240.17,286.33 239.17,285.17 241.00,284.00 C242.83,282.83 245.67,284.33 246.00,277.00 C246.33,269.67 244.17,247.83 243.00,240.00 C241.83,232.17 239.33,232.83 239.00,230.00 C238.67,227.17 240.67,224.17 241.00,223.00" fill="none" stroke="black" stroke-width="5.66" stroke-linecap="round" stroke-linejoin="round"/>
  <path d="M207.00,193.00 C205.50,191.67 200.67,186.33 198.00,185.00 C195.33,183.67 192.17,185.00 191.00,185.00" fill="none" stroke="black" stroke-width="5.66" stroke-linecap="round" stroke-linejoin="round"/>
  <path d="M73.00,198.00 C73.33,198.00 74.83,196.83 75.00,198.00 C75.17,199.17 77.00,195.00 74.00,205.00 C71.00,215.00 62.33,238.17 57.00,258.00 C51.67,277.83 45.00,308.67 42.00,324.00 C39.00,339.33 39.83,345.33 39.00,350.00 C38.17,354.67 39.00,338.83 37.00,352.00 C35.00,365.17 29.33,405.50 27.00,429.00 C24.67,452.50 23.83,463.00 23.00,493.00 C22.17,523.00 21.83,577.00 22.00,609.00 C22.17,641.00 23.00,657.83 24.00,685.00 C25.00,712.17 26.67,754.33 28.00,772.00 C29.33,789.67 31.67,785.00 32.00,791.00 C32.33,797.00 31.83,805.17 30.00,808.00 C28.17,810.83 22.83,806.50 21.00,808.00 C19.17,809.50 17.17,804.33 19.00,817.00 C20.83,829.67 29.83,871.17 32.00,884.00 C34.17,896.83 31.33,890.50 32.00,894.00 C32.67,897.50 34.33,895.17 36.00,905.00 C37.67,914.83 40.17,942.00 42.00,953.00 C43.83,964.00 45.00,968.17 47.00,971.00 C49.00,973.83 52.17,970.83 54.00,970.00 C55.83,969.17 57.33,967.67 58.00,966.00 C58.67,964.33 59.00,964.83 58.00,960.00 C57.00,955.17 53.50,946.67 52.00,937.00 C50.50,927.33 50.50,913.17 49.00,902.00 C47.50,890.83 43.83,876.67 43.00,870.00 C42.17,863.33 43.50,863.50 44.00,862.00 C44.50,860.50 44.17,860.17 46.00,861.00 C47.83,861.83 53.50,866.00 55.00,867.00" fill="none" stroke="black" stroke-width="4.00" stroke-linecap="round" stroke-linejoin="round"/>
  <path d="M124.00,625.00 C122.83,622.33 118.17,622.50 117.00,609.00 C115.83,595.50 115.67,566.00 117.00,544.00 C118.33,522.00 121.00,501.83 125.00,477.00 C129.00,452.17 138.00,415.50 141.00,395.00 C144.00,374.50 142.00,361.83 143.00,354.00 C144.00,346.17 145.00,348.67 147.00,348.00 C149.00,347.33 153.00,348.33 155.00,350.00 C157.00,351.67 157.00,351.00 159.00,358.00 C161.00,365.00 165.33,381.33 167.00,392.00 C168.67,402.67 169.00,408.33 169.00,422.00 C169.00,435.67 167.67,464.83 167.00,474.00 C166.33,483.17 167.17,459.83 165.00,477.00 C162.83,494.17 156.33,559.17 154.00,577.00 C151.67,594.83 151.17,582.83 151.00,584.00 C150.83,585.17 152.67,584.00 153.00,584.00" fill="none" stroke="black" stroke-width="4.00" stroke-linecap="round" stroke-linejoin="round"/>
  <path d="M127.00,698.00 C127.00,699.17 129.17,698.33 127.00,705.00 C124.83,711.67 122.17,720.17 114.00,738.00 C105.83,755.83 88.17,789.83 78.00,812.00 C67.83,834.17 57.17,861.17 53.00,871.00" fill="none" stroke="black" stroke-width="4.47" stroke-linecap="round" stroke-linejoin="round"/>
  <path d="M29.00,808.00 C30.00,809.50 33.33,810.83 35.00,817.00 C36.67,823.17 37.33,839.50 39.00,845.00 C40.67,850.50 43.17,849.67 45.00,850.00 C46.83,850.33 49.17,847.50 50.00,847.00" fill="none" stroke="black" stroke-width="6.00" stroke-linecap="round" stroke-linejoin="round"/>
  <path d="M46.00,849.00 C45.67,849.67 44.00,851.00 44.00,853.00 C44.00,855.00 45.67,859.67 46.00,861.00" fill="none" stroke="black" stroke-width="14.00" stroke-linecap="round" stroke-linejoin="round"/>
  <path d="M45.00,866.00 C46.33,866.83 52.83,869.00 53.00,871.00 C53.17,873.00 47.17,876.83 46.00,878.00" fill="none" stroke="black" stroke-width="4.47" stroke-linecap="round" stroke-linejoin="round"/>
</svg>
