<?xml version="1.0" encoding="UTF-8"?>
<svg xmlns="http://www.w3.org/2000/svg" viewBox="0 0 192 591" width="192" height="591">
  <path d="M119.00,36.00 C118.00,38.17 114.00,45.50 113.00,49.00 C112.00,52.50 112.00,56.17 113.00,57.00 C114.00,57.83 117.50,55.83 119.00,54.00 C120.50,52.17 121.50,47.33 122.00,46.00" fill="none" stroke="black" stroke-width="2.83" stroke-linecap="round" stroke-linejoin="round"/>
  <path d="M151.00,66.00 C149.33,67.83 143.50,75.33 141.00,77.00 C138.50,78.67 135.83,80.83 136.00,76.00 C136.17,71.17 136.67,54.83 142.00,48.00 C147.33,41.17 162.50,37.33 168.00,35.00 C173.50,32.67 173.50,32.83 175.00,34.00 C176.50,35.17 178.17,35.33 177.00,42.00 C175.83,48.67 170.00,68.00 168.00,74.00 C166.00,80.00 167.67,77.33 165.00,78.00 C162.33,78.67 153.83,78.00 152.00,78.00 C150.17,78.00 153.83,77.33 154.00,78.00 C154.17,78.67 153.17,81.33 153.00,82.00" fill="none" stroke="black" stroke-width="4.00" stroke-linecap="round" stroke-linejoin="round"/>
  <path d="M83.00,73.00 C83.83,73.83 85.00,76.50 88.00,78.00 C91.00,79.50 97.00,83.00 101.00,82.00 C105.00,81.00 110.17,73.67 112.00,72.00" fill="none" stroke="black" stroke-width="6.32" stroke-linecap="round" stroke-linejoin="round"/>
  <path d="M167.00,107.00 C164.67,105.83 155.33,100.67 153.00,100.00 C150.67,99.33 152.67,102.67 153.00,103.00 C153.33,103.33 155.67,101.17 155.00,102.00 C154.33,102.83 150.33,105.83 149.00,108.00 C147.67,110.17 148.50,113.83 147.00,115.00 C145.50,116.17 141.67,114.17 140.00,115.00 C138.33,115.83 138.67,119.17 137.00,120.00 C135.33,120.83 131.67,120.67 130.00,120.00 C128.33,119.33 127.33,117.00 127.00,116.00 C126.67,115.00 128.17,114.33 128.00,114.00 C127.83,113.67 126.33,114.00 126.00,114.00" fill="none" stroke="black" stroke-width="4.00" stroke-linecap="round" stroke-linejoin="round"/>
  <path d="M77.00,125.00 C79.83,120.17 93.50,100.50 94.00,96.00 C94.50,91.50 85.33,98.00 80.00,98.00 C74.67,98.00 66.00,94.50 62.00,96.00 C58.00,97.50 57.00,105.17 56.00,107.00" fill="none" stroke="black" stroke-width="4.00" stroke-linecap="round" stroke-linejoin="round"/>
  <path d="M119.00,127.00 C118.17,123.33 117.33,110.33 114.00,105.00 C110.67,99.67 101.00,98.00 99.00,95.00 C97.00,92.00 101.83,89.17 102.00,87.00 C102.17,84.83 100.33,82.83 100.00,82.00" fill="none" stroke="black" stroke-width="4.00" stroke-linecap="round" stroke-linejoin="round"/>
  <path d="M96.00,40.00 C92.50,39.67 83.17,37.33 75.00,38.00 C66.83,38.67 49.83,35.83 47.00,44.00 C44.17,52.17 57.50,78.83 58.00,87.00 C58.50,95.17 52.50,90.17 50.00,93.00 C47.50,95.83 44.67,101.17 43.00,104.00 C41.33,106.83 40.50,107.67 40.00,110.00 C39.50,112.33 38.83,117.00 40.00,118.00 C41.17,119.00 44.17,118.00 47.00,116.00 C49.83,114.00 55.33,103.67 57.00,106.00 C58.67,108.33 56.33,120.50 57.00,130.00 C57.67,139.50 55.50,159.67 61.00,163.00 C66.50,166.33 82.50,154.67 90.00,150.00 C97.50,145.33 103.33,137.50 106.00,135.00" fill="none" stroke="black" stroke-width="4.00" stroke-linecap="round" stroke-linejoin="round"/>
  <path d="M23.00,555.00 C21.17,545.17 13.67,507.50 12.00,496.00 C10.33,484.50 13.50,488.50 13.00,486.00 C12.50,483.50 9.33,484.67 9.00,481.00 C8.67,477.33 11.33,468.17 11.00,464.00 C10.67,459.83 8.00,460.00 7.00,456.00 C6.00,452.00 5.17,455.33 5.00,440.00 C4.83,424.67 5.50,376.83 6.00,364.00 C6.50,351.17 8.00,363.50 8.00,363.00 C8.00,362.50 6.33,363.17 6.00,361.00 C5.67,358.83 5.67,352.33 6.00,350.00 C6.33,347.67 7.67,347.50 8.00,347.00" fill="none" stroke="black" stroke-width="4.00" stroke-linecap="round" stroke-linejoin="round"/>
  <path d="M25.00,563.00 C25.17,565.50 25.00,574.67 26.00,578.00 C27.00,581.33 29.50,582.67 31.00,583.00 C32.50,583.33 34.33,581.17 35.00,580.00 C35.67,578.83 35.83,580.00 35.00,576.00 C34.17,572.00 32.17,569.50 30.00,556.00 C27.83,542.50 24.00,506.83 22.00,495.00 C20.00,483.17 18.50,488.83 18.00,485.00 C17.50,481.17 19.17,475.50 19.00,472.00 C18.83,468.50 17.33,465.33 17.00,464.00" fill="none" stroke="black" stroke-width="4.00" stroke-linecap="round" stroke-linejoin="round"/>
  <path d="M137.00,76.00 C134.83,76.33 128.33,78.50 124.00,78.00 C119.67,77.50 113.00,76.17 111.00,73.00 C109.00,69.83 111.50,61.67 112.00,59.00 C112.50,56.33 114.00,57.00 114.00,57.00 C114.00,57.00 112.83,59.00 112.00,59.00 C111.17,59.00 111.83,60.33 109.00,57.00 C106.17,53.67 96.33,44.00 95.00,39.00 C93.67,34.00 97.50,31.67 101.00,27.00 C104.50,22.33 111.50,15.33 116.00,11.00 C120.50,6.67 125.00,2.67 128.00,1.00 C131.00,-0.67 132.33,0.33 134.00,1.00 C135.67,1.67 136.67,2.50 138.00,5.00 C139.33,7.50 141.17,9.00 142.00,16.00 C142.83,23.00 142.83,41.83 143.00,47.00" fill="none" stroke="black" stroke-width="4.00" stroke-linecap="round" stroke-linejoin="round"/>
  <path d="M153.00,78.00 C151.00,77.83 142.67,77.17 141.00,77.00 C139.33,76.83 143.00,76.83 143.00,77.00 C143.00,77.17 141.17,76.67 141.00,78.00 C140.83,79.33 142.83,82.83 142.00,85.00 C141.17,87.17 136.67,90.00 136.00,91.00 C135.33,92.00 138.00,90.17 138.00,91.00 C138.00,91.83 137.33,94.50 136.00,96.00 C134.67,97.50 130.67,99.50 130.00,100.00 C129.33,100.50 132.00,99.00 132.00,99.00 C132.00,99.00 129.83,98.33 130.00,100.00 C130.17,101.67 133.17,106.67 133.00,109.00 C132.83,111.33 131.83,114.00 129.00,114.00 C126.17,114.00 118.17,109.83 116.00,109.00" fill="none" stroke="black" stroke-width="6.32" stroke-linecap="round" stroke-linejoin="round"/>
  <path d="M165.00,79.00 C166.83,81.17 172.67,86.33 176.00,92.00 C179.33,97.67 187.33,106.67 185.00,113.00 C182.67,119.33 166.83,126.83 162.00,130.00 C157.17,133.17 158.83,131.67 156.00,132.00 C153.17,132.33 148.00,134.17 145.00,132.00 C142.00,129.83 139.17,121.17 138.00,119.00" fill="none" stroke="black" stroke-width="2.83" stroke-linecap="round" stroke-linejoin="round"/>
  <path d="M58.00,87.00 L62.00,95.00" fill="none" stroke="black" stroke-width="4.47" stroke-linecap="round" stroke-linejoin="round"/>
  <path d="M100.00,94.00 C100.00,94.33 100.83,95.67 100.00,96.00 C99.17,96.33 95.83,96.00 95.00,96.00" fill="none" stroke="black" stroke-width="8.25" stroke-linecap="round" stroke-linejoin="round"/>
  <path d="M105.00,100.00 C104.67,100.83 103.17,99.17 103.00,105.00 C102.83,110.83 103.17,129.67 104.00,135.00 C104.83,140.33 106.17,134.67 108.00,137.00 C109.83,139.33 112.33,145.50 115.00,149.00 C117.67,152.50 119.67,154.83 124.00,158.00 C128.33,161.17 137.50,166.33 141.00,168.00 C144.50,169.67 143.83,168.50 145.00,168.00 C146.17,167.50 148.00,169.50 148.00,165.00 C148.00,160.50 145.33,146.50 145.00,141.00 C144.67,135.50 145.83,133.50 146.00,132.00" fill="none" stroke="black" stroke-width="4.00" stroke-linecap="round" stroke-linejoin="round"/>
  <path d="M40.00,120.00 C40.00,119.67 40.17,116.67 40.00,118.00 C39.83,119.33 40.00,126.00 39.00,128.00 C38.00,130.00 35.50,127.83 34.00,130.00 C32.50,132.17 32.33,132.83 30.00,141.00 C27.67,149.17 23.00,165.00 20.00,179.00 C17.00,193.00 13.83,210.83 12.00,225.00 C10.17,239.17 9.50,257.50 9.00,264.00" fill="none" stroke="black" stroke-width="4.00" stroke-linecap="round" stroke-linejoin="round"/>
  <path d="M39.00,128.00 C39.33,128.67 42.00,127.17 41.00,132.00 C40.00,136.83 35.83,146.00 33.00,157.00 C30.17,168.00 26.83,180.33 24.00,198.00 C21.17,215.67 18.67,251.83 16.00,263.00 C13.33,274.17 9.33,262.83 8.00,265.00 C6.67,267.17 8.00,274.17 8.00,276.00" fill="none" stroke="black" stroke-width="2.00" stroke-linecap="round" stroke-linejoin="round"/>
  <path d="M16.00,263.00 C15.83,265.17 15.50,273.67 15.00,276.00 C14.50,278.33 13.00,276.50 13.00,277.00 C13.00,277.50 14.83,276.50 15.00,279.00 C15.17,281.50 14.83,289.17 14.00,292.00 C13.17,294.83 10.67,295.33 10.00,296.00" fill="none" stroke="black" stroke-width="4.00" stroke-linecap="round" stroke-linejoin="round"/>
  <path d="M14.00,278.00 C13.00,277.83 9.17,276.17 8.00,277.00 C6.83,277.83 7.17,280.83 7.00,283.00 C6.83,285.17 6.50,287.83 7.00,290.00 C7.50,292.17 9.67,286.50 10.00,296.00 C10.33,305.50 8.50,338.00 9.00,347.00 C9.50,356.00 12.50,347.50 13.00,350.00 C13.50,352.50 12.17,360.00 12.00,362.00" fill="none" stroke="black" stroke-width="8.25" stroke-linecap="round" stroke-linejoin="round"/>
  <path d="M8.00,363.00 C8.67,363.00 11.00,362.00 12.00,363.00 C13.00,364.00 13.17,354.00 14.00,369.00 C14.83,384.00 16.50,437.00 17.00,453.00 C17.50,469.00 18.17,463.00 17.00,465.00 C15.83,467.00 11.17,465.00 10.00,465.00" fill="none" stroke="black" stroke-width="4.00" stroke-linecap="round" stroke-linejoin="round"/>
  <path d="M18.00,471.00 L11.00,471.00" fill="none" stroke="black" stroke-width="4.47" stroke-linecap="round" stroke-linejoin="round"/>
  <path d="M13.00,486.00 L17.00,485.00" fill="none" stroke="black" stroke-width="6.00" stroke-linecap="round" stroke-linejoin="round"/>
</svg>
