<?xml version="1.0" encoding="UTF-8"?>
<svg xmlns="http://www.w3.org/2000/svg" viewBox="0 0 192 591" width="192" height="591">
  <path d="M72.00,36.00 C73.00,38.50 77.17,47.33 78.00,51.00 C78.83,54.67 76.83,56.83 77.00,58.00 C77.17,59.17 78.50,55.50 79.00,58.00 C79.50,60.50 80.17,70.50 80.00,73.00 C79.83,75.50 78.33,73.00 78.00,73.00" fill="none" stroke="black" stroke-width="10.00" stroke-linecap="round" stroke-linejoin="round"/>
  <path d="M69.00,46.00 C69.33,47.17 70.00,51.17 71.00,53.00 C72.00,54.83 73.50,56.17 75.00,57.00 C76.50,57.83 76.67,61.00 80.00,58.00 C83.33,55.00 92.50,42.17 95.00,39.00" fill="none" stroke="black" stroke-width="4.00" stroke-linecap="round" stroke-linejoin="round"/>
  <path d="M40.00,66.00 C41.83,67.67 49.33,74.00 51.00,76.00 C52.67,78.00 51.83,77.67 50.00,78.00 C48.17,78.33 41.67,78.00 40.00,78.00" fill="none" stroke="black" stroke-width="5.99" stroke-linecap="round" stroke-linejoin="round"/>
  <path d="M108.00,73.00 C107.17,73.83 105.33,76.50 103.00,78.00 C100.67,79.50 96.67,81.67 94.00,82.00 C91.33,82.33 89.17,81.50 87.00,80.00 C84.83,78.50 84.33,73.33 81.00,73.00 C77.67,72.67 71.33,77.33 67.00,78.00 C62.67,78.67 58.00,82.00 55.00,77.00 C52.00,72.00 54.33,55.00 49.00,48.00 C43.67,41.00 28.50,37.33 23.00,35.00 C17.50,32.67 17.67,33.67 16.00,34.00 C14.33,34.33 12.67,32.33 13.00,37.00 C13.33,41.67 15.67,55.17 18.00,62.00 C20.33,68.83 25.50,75.33 27.00,78.00" fill="none" stroke="black" stroke-width="2.83" stroke-linecap="round" stroke-linejoin="round"/>
  <path d="M24.00,107.00 C26.33,106.00 34.50,99.67 38.00,101.00 C41.50,102.33 42.67,113.00 45.00,115.00 C47.33,117.00 51.17,113.00 52.00,113.00 C52.83,113.00 49.67,113.83 50.00,115.00 C50.33,116.17 53.83,118.83 54.00,120.00 C54.17,121.17 52.00,120.33 51.00,122.00 C50.00,123.67 49.17,128.33 48.00,130.00 C46.83,131.67 44.33,131.67 44.00,132.00 C43.67,132.33 45.67,131.33 46.00,132.00 C46.33,132.67 46.67,131.33 46.00,136.00 C45.33,140.67 42.67,155.33 42.00,160.00 C41.33,164.67 41.33,162.67 42.00,164.00 C42.67,165.33 44.67,167.33 46.00,168.00 C47.33,168.67 46.50,169.67 50.00,168.00 C53.50,166.33 62.50,161.33 67.00,158.00 C71.50,154.67 74.67,151.17 77.00,148.00 C79.33,144.83 79.50,141.33 81.00,139.00 C82.50,136.67 84.83,137.50 86.00,134.00 C87.17,130.50 88.00,123.50 88.00,118.00 C88.00,112.50 86.33,103.83 86.00,101.00" fill="none" stroke="black" stroke-width="4.00" stroke-linecap="round" stroke-linejoin="round"/>
  <path d="M113.00,125.00 C110.50,120.17 101.67,101.00 98.00,96.00 C94.33,91.00 92.33,97.33 91.00,95.00 C89.67,92.67 90.50,84.50 90.00,82.00 C89.50,79.50 88.33,80.33 88.00,80.00" fill="none" stroke="black" stroke-width="4.47" stroke-linecap="round" stroke-linejoin="round"/>
  <path d="M72.00,127.00 C72.67,124.83 75.67,117.00 76.00,114.00 C76.33,111.00 73.50,110.83 74.00,109.00 C74.50,107.17 77.00,104.33 79.00,103.00 C81.00,101.67 83.83,102.33 86.00,101.00 C88.17,99.67 91.00,96.00 92.00,95.00" fill="none" stroke="black" stroke-width="4.00" stroke-linecap="round" stroke-linejoin="round"/>
  <path d="M168.00,555.00 C169.83,544.67 177.33,504.50 179.00,493.00 C180.67,481.50 179.00,487.50 178.00,486.00 C177.00,484.50 174.50,482.67 173.00,484.00 C171.50,485.33 171.00,482.50 169.00,494.00 C167.00,505.50 163.17,539.83 161.00,553.00 C158.83,566.17 156.83,568.50 156.00,573.00 C155.17,577.50 155.33,578.33 156.00,580.00 C156.67,581.67 158.67,582.83 160.00,583.00 C161.33,583.17 163.00,584.33 164.00,581.00 C165.00,577.67 165.67,566.00 166.00,563.00" fill="none" stroke="black" stroke-width="4.00" stroke-linecap="round" stroke-linejoin="round"/>
  <path d="M47.00,46.00 C47.17,41.17 47.33,23.50 48.00,17.00 C48.67,10.50 49.50,9.67 51.00,7.00 C52.50,4.33 54.67,1.83 57.00,1.00 C59.33,0.17 60.83,-0.83 65.00,2.00 C69.17,4.83 77.50,13.33 82.00,18.00 C86.50,22.67 89.83,26.50 92.00,30.00 C94.17,33.50 91.00,37.67 95.00,39.00 C99.00,40.33 108.00,37.33 116.00,38.00 C124.00,38.67 138.50,40.67 143.00,43.00 C147.50,45.33 144.50,45.33 143.00,52.00 C141.50,58.67 135.33,77.17 134.00,83.00 C132.67,88.83 135.67,85.83 135.00,87.00 C134.33,88.17 131.17,88.50 130.00,90.00 C128.83,91.50 128.33,95.00 128.00,96.00" fill="none" stroke="black" stroke-width="4.00" stroke-linecap="round" stroke-linejoin="round"/>
  <path d="M53.00,76.00 C52.50,76.17 50.50,75.00 50.00,77.00 C49.50,79.00 49.00,85.67 50.00,88.00 C51.00,90.33 55.33,90.50 56.00,91.00 C56.67,91.50 54.17,90.17 54.00,91.00 C53.83,91.83 53.83,94.50 55.00,96.00 C56.17,97.50 60.33,97.50 61.00,100.00 C61.67,102.50 58.33,108.67 59.00,111.00 C59.67,113.33 64.67,112.50 65.00,114.00 C65.33,115.50 63.00,119.17 61.00,120.00 C59.00,120.83 54.33,119.17 53.00,119.00" fill="none" stroke="black" stroke-width="5.83" stroke-linecap="round" stroke-linejoin="round"/>
  <path d="M44.00,132.00 C41.50,131.67 35.33,133.17 29.00,130.00 C22.67,126.83 8.50,119.17 6.00,113.00 C3.50,106.83 10.50,98.83 14.00,93.00 C17.50,87.17 22.67,80.50 27.00,78.00 C31.33,75.50 38.00,77.33 40.00,78.00 C42.00,78.67 39.17,81.33 39.00,82.00" fill="none" stroke="black" stroke-width="2.83" stroke-linecap="round" stroke-linejoin="round"/>
  <path d="M135.00,87.00 C137.67,91.00 148.50,105.67 151.00,111.00 C153.50,116.33 151.00,118.00 150.00,119.00 C149.00,120.00 147.17,118.83 145.00,117.00 C142.83,115.17 138.83,109.50 137.00,108.00 C135.17,106.50 135.50,110.00 134.00,108.00 C132.50,106.00 131.17,97.67 128.00,96.00 C124.83,94.33 119.83,98.00 115.00,98.00 C110.17,98.00 101.67,96.33 99.00,96.00" fill="none" stroke="black" stroke-width="4.00" stroke-linecap="round" stroke-linejoin="round"/>
  <path d="M36.00,102.00 C36.33,101.83 37.67,100.83 38.00,101.00 C38.33,101.17 38.00,102.67 38.00,103.00" fill="none" stroke="black" stroke-width="6.32" stroke-linecap="round" stroke-linejoin="round"/>
  <path d="M134.00,108.00 C133.83,113.00 133.83,129.00 133.00,138.00 C132.17,147.00 134.00,159.83 129.00,162.00 C124.00,164.17 110.33,155.50 103.00,151.00 C95.67,146.50 88.00,137.67 85.00,135.00" fill="none" stroke="black" stroke-width="4.00" stroke-linecap="round" stroke-linejoin="round"/>
  <path d="M65.00,114.00 C66.33,113.17 71.33,109.67 73.00,109.00 C74.67,108.33 74.67,109.83 75.00,110.00" fill="none" stroke="black" stroke-width="4.24" stroke-linecap="round" stroke-linejoin="round"/>
  <path d="M149.00,119.00 C149.50,120.17 151.67,124.33 152.00,126.00 C152.33,127.67 151.00,128.83 151.00,129.00 C151.00,129.17 152.00,127.00 152.00,127.00 C152.00,127.00 150.67,128.83 151.00,129.00 C151.33,129.17 152.83,127.33 154.00,128.00 C155.17,128.67 154.67,122.00 158.00,133.00 C161.33,144.00 170.00,173.33 174.00,194.00 C178.00,214.67 180.67,245.67 182.00,257.00 C183.33,268.33 182.67,260.83 182.00,262.00 C181.33,263.17 179.33,264.00 178.00,264.00 C176.67,264.00 176.00,273.17 174.00,262.00 C172.00,250.83 169.83,219.17 166.00,197.00 C162.17,174.83 153.50,140.33 151.00,129.00" fill="none" stroke="black" stroke-width="4.00" stroke-linecap="round" stroke-linejoin="round"/>
  <path d="M182.00,262.00 C182.17,267.17 183.33,287.33 183.00,293.00 C182.67,298.67 181.17,296.50 180.00,296.00 C178.83,295.50 176.67,293.00 176.00,290.00 C175.33,287.00 175.17,280.17 176.00,278.00 C176.83,275.83 180.17,277.17 181.00,277.00" fill="none" stroke="black" stroke-width="4.00" stroke-linecap="round" stroke-linejoin="round"/>
  <path d="M175.00,265.00 L176.00,278.00" fill="none" stroke="black" stroke-width="4.00" stroke-linecap="round" stroke-linejoin="round"/>
  <path d="M180.00,296.00 C180.00,304.50 179.67,338.50 180.00,347.00 C180.33,355.50 181.67,347.00 182.00,347.00" fill="none" stroke="black" stroke-width="10.00" stroke-linecap="round" stroke-linejoin="round"/>
  <path d="M178.00,364.00 C178.00,361.50 177.33,351.83 178.00,349.00 C178.67,346.17 180.83,346.67 182.00,347.00 C183.17,347.33 184.50,348.83 185.00,351.00 C185.50,353.17 185.17,358.00 185.00,360.00 C184.83,362.00 185.00,362.50 184.00,363.00 C183.00,363.50 180.17,362.50 179.00,363.00 C177.83,363.50 177.83,349.33 177.00,366.00 C176.17,382.67 174.50,446.83 174.00,463.00" fill="none" stroke="black" stroke-width="4.00" stroke-linecap="round" stroke-linejoin="round"/>
  <path d="M184.00,364.00 C184.33,376.50 186.33,422.83 186.00,439.00 C185.67,455.17 183.00,456.67 182.00,461.00 C181.00,465.33 181.50,464.33 180.00,465.00 C178.50,465.67 174.17,464.00 173.00,465.00 C171.83,466.00 171.67,470.17 173.00,471.00 C174.33,471.83 179.67,469.83 181.00,470.00 C182.33,470.17 181.00,471.67 181.00,472.00" fill="none" stroke="black" stroke-width="4.00" stroke-linecap="round" stroke-linejoin="round"/>
  <path d="M180.00,465.00 C180.33,467.50 182.33,476.50 182.00,480.00 C181.67,483.50 178.67,485.00 178.00,486.00" fill="none" stroke="black" stroke-width="4.47" stroke-linecap="round" stroke-linejoin="round"/>
  <path d="M173.00,471.00 L173.00,485.00" fill="none" stroke="black" stroke-width="4.00" stroke-linecap="round" stroke-linejoin="round"/>
</svg>
