<?xml version="1.0" encoding="UTF-8"?>
<svg xmlns="http://www.w3.org/2000/svg" viewBox="0 0 190 601" width="190" height="601">
  <path d="M142.00,281.00 L143.00,292.00" fill="none" stroke="black" stroke-width="12.00" stroke-linecap="round" stroke-linejoin="round"/>
  <path d="M181.00,596.00 C181.17,595.67 182.83,596.50 182.00,594.00 C181.17,591.50 180.83,595.50 176.00,581.00 C171.17,566.50 159.33,524.50 153.00,507.00 C146.67,489.50 143.17,484.83 138.00,476.00 C132.83,467.17 125.17,460.67 122.00,454.00 C118.83,447.33 119.50,438.67 119.00,436.00 C118.50,433.33 119.00,437.67 119.00,438.00" fill="none" stroke="black" stroke-width="6.32" stroke-linecap="round" stroke-linejoin="round"/>
  <path d="M115.00,14.00 C111.17,13.33 97.67,9.83 92.00,10.00 C86.33,10.17 87.83,9.67 81.00,15.00 C74.17,20.33 58.17,34.33 51.00,42.00 C43.83,49.67 40.83,56.33 38.00,61.00 C35.17,65.67 34.50,67.67 34.00,70.00 C33.50,72.33 35.17,74.17 35.00,75.00 C34.83,75.83 33.33,75.00 33.00,75.00" fill="none" stroke="black" stroke-width="7.21" stroke-linecap="round" stroke-linejoin="round"/>
  <path d="M158.00,30.00 C157.17,31.33 153.83,35.50 153.00,38.00 C152.17,40.50 152.50,43.33 153.00,45.00 C153.50,46.67 153.50,47.50 156.00,48.00 C158.50,48.50 165.17,48.83 168.00,48.00 C170.83,47.17 172.17,45.00 173.00,43.00 C173.83,41.00 174.00,38.00 173.00,36.00 C172.00,34.00 169.67,31.83 167.00,31.00 C164.33,30.17 160.00,32.50 157.00,31.00 C154.00,29.50 152.00,24.33 149.00,22.00 C146.00,19.67 144.50,18.33 139.00,17.00 C133.50,15.67 119.67,13.17 116.00,14.00 C112.33,14.83 114.33,17.00 117.00,22.00 C119.67,27.00 132.17,38.67 132.00,44.00 C131.83,49.33 119.33,51.33 116.00,54.00 C112.67,56.67 112.83,57.83 112.00,60.00 C111.17,62.17 109.50,64.67 111.00,67.00 C112.50,69.33 115.67,72.67 121.00,74.00 C126.33,75.33 138.17,75.83 143.00,75.00 C147.83,74.17 148.83,71.83 150.00,69.00 C151.17,66.17 151.33,61.50 150.00,58.00 C148.67,54.50 144.83,50.33 142.00,48.00 C139.17,45.67 134.50,44.67 133.00,44.00" fill="none" stroke="black" stroke-width="4.47" stroke-linecap="round" stroke-linejoin="round"/>
  <path d="M17.00,134.00 C17.00,132.17 16.17,128.50 17.00,123.00 C17.83,117.50 20.00,108.17 22.00,101.00 C24.00,93.83 27.17,84.33 29.00,80.00 C30.83,75.67 28.50,75.50 33.00,75.00 C37.50,74.50 50.17,74.83 56.00,77.00 C61.83,79.17 63.50,86.67 68.00,88.00 C72.50,89.33 78.67,82.83 83.00,85.00 C87.33,87.17 91.83,96.17 94.00,101.00 C96.17,105.83 95.67,111.83 96.00,114.00" fill="none" stroke="black" stroke-width="6.00" stroke-linecap="round" stroke-linejoin="round"/>
  <path d="M83.00,84.00 C83.50,83.67 84.17,82.00 86.00,82.00 C87.83,82.00 91.33,83.00 94.00,84.00 C96.67,85.00 99.17,85.67 102.00,88.00 C104.83,90.33 109.50,95.00 111.00,98.00 C112.50,101.00 112.00,103.67 111.00,106.00 C110.00,108.33 107.33,110.83 105.00,112.00 C102.67,113.17 99.33,111.67 97.00,113.00 C94.67,114.33 93.50,119.33 91.00,120.00 C88.50,120.67 83.83,116.67 82.00,117.00 C80.17,117.33 81.50,120.50 80.00,122.00 C78.50,123.50 76.50,129.33 73.00,126.00 C69.50,122.67 60.50,107.50 59.00,102.00 C57.50,96.50 62.17,94.67 64.00,93.00 C65.83,91.33 66.83,87.83 70.00,92.00 C73.17,96.17 80.83,113.67 83.00,118.00" fill="none" stroke="black" stroke-width="4.47" stroke-linecap="round" stroke-linejoin="round"/>
  <path d="M68.00,88.00 C68.33,88.00 69.83,87.67 70.00,88.00 C70.17,88.33 69.17,89.67 69.00,90.00" fill="none" stroke="black" stroke-width="7.21" stroke-linecap="round" stroke-linejoin="round"/>
  <path d="M87.00,159.00 C86.50,157.83 86.33,155.00 84.00,152.00 C81.67,149.00 76.67,143.83 73.00,141.00 C69.33,138.17 67.33,136.83 62.00,135.00 C56.67,133.17 47.83,130.00 41.00,130.00 C34.17,130.00 25.00,134.33 21.00,135.00 C17.00,135.67 18.17,132.00 17.00,134.00 C15.83,136.00 14.67,138.83 14.00,147.00 C13.33,155.17 12.83,171.83 13.00,183.00 C13.17,194.17 14.17,207.50 15.00,214.00 C15.83,220.50 19.17,219.67 18.00,222.00 C16.83,224.33 10.00,225.33 8.00,228.00 C6.00,230.67 5.00,234.67 6.00,238.00 C7.00,241.33 11.33,246.17 14.00,248.00 C16.67,249.83 21.33,252.83 22.00,249.00 C22.67,245.17 19.00,229.17 18.00,225.00 C17.00,220.83 15.17,224.67 16.00,224.00 C16.83,223.33 19.17,220.67 23.00,221.00 C26.83,221.33 32.50,222.50 39.00,226.00 C45.50,229.50 59.83,238.33 62.00,242.00 C64.17,245.67 54.83,244.17 52.00,248.00 C49.17,251.83 45.67,260.17 45.00,265.00 C44.33,269.83 46.17,273.67 48.00,277.00 C49.83,280.33 53.83,283.67 56.00,285.00 C58.17,286.33 59.33,285.83 61.00,285.00 C62.67,284.17 66.00,283.83 66.00,280.00 C66.00,276.17 61.83,268.33 61.00,262.00 C60.17,255.67 59.67,245.50 61.00,242.00 C62.33,238.50 64.17,237.50 69.00,241.00 C73.83,244.50 86.50,259.33 90.00,263.00" fill="none" stroke="black" stroke-width="4.47" stroke-linecap="round" stroke-linejoin="round"/>
  <path d="M105.00,157.00 C99.67,158.00 80.33,160.00 73.00,163.00 C65.67,166.00 63.33,171.83 61.00,175.00 C58.67,178.17 59.17,179.50 59.00,182.00 C58.83,184.50 58.00,185.83 60.00,190.00 C62.00,194.17 69.17,201.50 71.00,207.00 C72.83,212.50 70.50,219.83 71.00,223.00 C71.50,226.17 72.50,225.67 74.00,226.00 C75.50,226.33 76.67,227.67 80.00,225.00 C83.33,222.33 93.50,214.67 94.00,210.00 C94.50,205.33 85.67,201.00 83.00,197.00 C80.33,193.00 79.00,189.00 78.00,186.00 C77.00,183.00 76.00,183.00 77.00,179.00 C78.00,175.00 83.17,164.83 84.00,162.00 C84.83,159.17 82.33,162.00 82.00,162.00" fill="none" stroke="black" stroke-width="4.47" stroke-linecap="round" stroke-linejoin="round"/>
  <path d="M113.00,203.00 C114.83,204.50 121.00,210.33 124.00,212.00 C127.00,213.67 129.17,213.50 131.00,213.00 C132.83,212.50 134.33,213.83 135.00,209.00 C135.67,204.17 135.83,190.50 135.00,184.00 C134.17,177.50 133.00,174.33 130.00,170.00 C127.00,165.67 120.67,160.33 117.00,158.00 C113.33,155.67 109.83,156.00 108.00,156.00 C106.17,156.00 104.50,154.50 106.00,158.00 C107.50,161.50 115.17,172.17 117.00,177.00 C118.83,181.83 117.83,183.17 117.00,187.00 C116.17,190.83 112.67,197.33 112.00,200.00 C111.33,202.67 113.50,202.33 113.00,203.00 C112.50,203.67 110.83,202.33 109.00,204.00 C107.17,205.67 104.67,212.17 102.00,213.00 C99.33,213.83 94.67,209.33 93.00,209.00 C91.33,208.67 92.17,210.67 92.00,211.00" fill="none" stroke="black" stroke-width="4.47" stroke-linecap="round" stroke-linejoin="round"/>
  <path d="M69.00,240.00 C69.67,239.50 69.83,237.00 73.00,237.00 C76.17,237.00 84.17,237.83 88.00,240.00 C91.83,242.17 94.67,247.00 96.00,250.00 C97.33,253.00 97.33,255.17 96.00,258.00 C94.67,260.83 89.17,263.67 88.00,267.00 C86.83,270.33 89.50,275.50 89.00,278.00 C88.50,280.50 88.83,281.67 85.00,282.00 C81.17,282.33 69.17,280.33 66.00,280.00" fill="none" stroke="black" stroke-width="4.00" stroke-linecap="round" stroke-linejoin="round"/>
  <path d="M23.00,248.00 C26.67,258.33 35.83,287.83 45.00,310.00 C54.17,332.17 67.83,361.17 78.00,381.00 C88.17,400.83 99.33,419.67 106.00,429.00 C112.67,438.33 115.33,438.17 118.00,437.00 C120.67,435.83 122.00,425.50 122.00,422.00 C122.00,418.50 118.33,421.50 118.00,416.00 C117.67,410.50 116.67,408.00 120.00,389.00 C123.33,370.00 134.17,318.00 138.00,302.00 C141.83,286.00 141.00,293.67 143.00,293.00 C145.00,292.33 148.33,289.83 150.00,298.00 C151.67,306.17 153.17,329.50 153.00,342.00 C152.83,354.50 153.17,360.50 149.00,373.00 C144.83,385.50 132.67,408.67 128.00,417.00 C123.33,425.33 122.17,422.00 121.00,423.00" fill="none" stroke="black" stroke-width="6.32" stroke-linecap="round" stroke-linejoin="round"/>
</svg>
