<?xml version="1.0" encoding="UTF-8"?>
<svg xmlns="http://www.w3.org/2000/svg" viewBox="0 0 199 601" width="199" height="601">
  <path d="M184.00,596.00 C184.17,595.67 190.50,610.83 185.00,594.00 C179.50,577.17 158.33,514.67 151.00,495.00 C143.67,475.33 148.67,488.00 141.00,476.00 C133.33,464.00 115.00,438.83 105.00,423.00 C95.00,407.17 90.50,399.83 81.00,381.00 C71.50,362.17 57.00,331.67 48.00,310.00 C39.00,288.33 32.17,261.33 27.00,251.00 C21.83,240.67 19.83,249.67 17.00,248.00 C14.17,246.33 11.33,243.50 10.00,241.00 C8.67,238.50 8.17,235.67 9.00,233.00 C9.83,230.33 13.00,226.33 15.00,225.00 C17.00,223.67 19.17,220.83 21.00,225.00 C22.83,229.17 25.17,245.83 26.00,250.00" fill="none" stroke="black" stroke-width="6.32" stroke-linecap="round" stroke-linejoin="round"/>
  <path d="M118.00,14.00 C114.17,13.33 100.67,9.83 95.00,10.00 C89.33,10.17 90.83,9.67 84.00,15.00 C77.17,20.33 61.17,34.33 54.00,42.00 C46.83,49.67 43.83,56.33 41.00,61.00 C38.17,65.67 37.50,67.67 37.00,70.00 C36.50,72.33 38.17,74.17 38.00,75.00 C37.83,75.83 36.33,75.00 36.00,75.00" fill="none" stroke="black" stroke-width="7.21" stroke-linecap="round" stroke-linejoin="round"/>
  <path d="M161.00,30.00 C160.17,31.33 156.83,35.50 156.00,38.00 C155.17,40.50 155.50,43.33 156.00,45.00 C156.50,46.67 156.50,47.50 159.00,48.00 C161.50,48.50 168.17,48.83 171.00,48.00 C173.83,47.17 175.17,45.00 176.00,43.00 C176.83,41.00 177.00,38.00 176.00,36.00 C175.00,34.00 172.67,31.83 170.00,31.00 C167.33,30.17 163.00,32.50 160.00,31.00 C157.00,29.50 155.00,24.33 152.00,22.00 C149.00,19.67 147.50,18.33 142.00,17.00 C136.50,15.67 122.67,13.17 119.00,14.00 C115.33,14.83 117.33,17.00 120.00,22.00 C122.67,27.00 135.17,38.67 135.00,44.00 C134.83,49.33 122.33,51.33 119.00,54.00 C115.67,56.67 115.83,57.83 115.00,60.00 C114.17,62.17 112.50,64.67 114.00,67.00 C115.50,69.33 118.67,72.67 124.00,74.00 C129.33,75.33 141.17,75.83 146.00,75.00 C150.83,74.17 151.83,71.83 153.00,69.00 C154.17,66.17 154.33,61.50 153.00,58.00 C151.67,54.50 147.83,50.33 145.00,48.00 C142.17,45.67 137.50,44.67 136.00,44.00" fill="none" stroke="black" stroke-width="4.47" stroke-linecap="round" stroke-linejoin="round"/>
  <path d="M20.00,134.00 C20.33,129.83 20.00,118.00 22.00,109.00 C24.00,100.00 29.67,85.67 32.00,80.00 C34.33,74.33 31.50,75.50 36.00,75.00 C40.50,74.50 53.17,74.83 59.00,77.00 C64.83,79.17 66.50,86.67 71.00,88.00 C75.50,89.33 81.67,82.83 86.00,85.00 C90.33,87.17 94.83,96.17 97.00,101.00 C99.17,105.83 98.67,111.83 99.00,114.00" fill="none" stroke="black" stroke-width="6.00" stroke-linecap="round" stroke-linejoin="round"/>
  <path d="M86.00,84.00 C86.50,83.67 87.17,82.00 89.00,82.00 C90.83,82.00 94.33,83.00 97.00,84.00 C99.67,85.00 102.17,85.67 105.00,88.00 C107.83,90.33 112.50,95.00 114.00,98.00 C115.50,101.00 115.00,103.67 114.00,106.00 C113.00,108.33 110.33,110.83 108.00,112.00 C105.67,113.17 102.33,111.67 100.00,113.00 C97.67,114.33 96.50,119.33 94.00,120.00 C91.50,120.67 86.83,116.67 85.00,117.00 C83.17,117.33 84.50,120.50 83.00,122.00 C81.50,123.50 79.50,129.33 76.00,126.00 C72.50,122.67 63.50,107.50 62.00,102.00 C60.50,96.50 65.17,94.67 67.00,93.00 C68.83,91.33 69.83,87.83 73.00,92.00 C76.17,96.17 83.83,113.67 86.00,118.00" fill="none" stroke="black" stroke-width="4.47" stroke-linecap="round" stroke-linejoin="round"/>
  <path d="M71.00,88.00 C71.33,88.00 72.83,87.67 73.00,88.00 C73.17,88.33 72.17,89.67 72.00,90.00" fill="none" stroke="black" stroke-width="7.21" stroke-linecap="round" stroke-linejoin="round"/>
  <path d="M90.00,159.00 C89.50,157.83 89.33,155.00 87.00,152.00 C84.67,149.00 80.67,144.17 76.00,141.00 C71.33,137.83 64.83,134.83 59.00,133.00 C53.17,131.17 46.83,129.67 41.00,130.00 C35.17,130.33 27.50,134.33 24.00,135.00 C20.50,135.67 21.00,133.50 20.00,134.00 C19.00,134.50 18.67,129.83 18.00,138.00 C17.33,146.17 16.00,170.33 16.00,183.00 C16.00,195.67 17.17,207.50 18.00,214.00 C18.83,220.50 20.83,220.33 21.00,222.00 C21.17,223.67 18.17,224.17 19.00,224.00 C19.83,223.83 22.50,220.83 26.00,221.00 C29.50,221.17 33.50,221.33 40.00,225.00 C46.50,228.67 61.00,236.83 65.00,243.00 C69.00,249.17 63.33,255.83 64.00,262.00 C64.67,268.17 69.00,276.17 69.00,280.00 C69.00,283.83 66.00,284.33 64.00,285.00 C62.00,285.67 59.17,285.33 57.00,284.00 C54.83,282.67 52.50,279.83 51.00,277.00 C49.50,274.17 48.17,270.33 48.00,267.00 C47.83,263.67 48.50,260.50 50.00,257.00 C51.50,253.50 54.33,248.67 57.00,246.00 C59.67,243.33 63.50,241.83 66.00,241.00 C68.50,240.17 67.50,237.33 72.00,241.00 C76.50,244.67 89.50,259.33 93.00,263.00" fill="none" stroke="black" stroke-width="4.47" stroke-linecap="round" stroke-linejoin="round"/>
  <path d="M108.00,157.00 C102.67,158.00 83.33,160.00 76.00,163.00 C68.67,166.00 66.33,171.83 64.00,175.00 C61.67,178.17 62.17,179.50 62.00,182.00 C61.83,184.50 61.00,185.83 63.00,190.00 C65.00,194.17 72.17,201.50 74.00,207.00 C75.83,212.50 73.50,219.83 74.00,223.00 C74.50,226.17 75.50,225.67 77.00,226.00 C78.50,226.33 79.67,227.67 83.00,225.00 C86.33,222.33 96.50,214.67 97.00,210.00 C97.50,205.33 88.67,201.00 86.00,197.00 C83.33,193.00 82.00,189.00 81.00,186.00 C80.00,183.00 79.00,183.00 80.00,179.00 C81.00,175.00 86.17,164.83 87.00,162.00 C87.83,159.17 85.33,162.00 85.00,162.00" fill="none" stroke="black" stroke-width="4.47" stroke-linecap="round" stroke-linejoin="round"/>
  <path d="M116.00,203.00 C117.83,204.50 124.00,210.33 127.00,212.00 C130.00,213.67 132.17,213.50 134.00,213.00 C135.83,212.50 137.33,213.83 138.00,209.00 C138.67,204.17 138.83,190.50 138.00,184.00 C137.17,177.50 136.00,174.33 133.00,170.00 C130.00,165.67 123.67,160.33 120.00,158.00 C116.33,155.67 112.83,156.00 111.00,156.00 C109.17,156.00 107.50,154.50 109.00,158.00 C110.50,161.50 118.17,172.17 120.00,177.00 C121.83,181.83 120.83,183.17 120.00,187.00 C119.17,190.83 115.67,197.33 115.00,200.00 C114.33,202.67 116.50,202.33 116.00,203.00 C115.50,203.67 113.83,202.33 112.00,204.00 C110.17,205.67 107.67,212.17 105.00,213.00 C102.33,213.83 97.67,209.33 96.00,209.00 C94.33,208.67 95.17,210.67 95.00,211.00" fill="none" stroke="black" stroke-width="4.47" stroke-linecap="round" stroke-linejoin="round"/>
  <path d="M72.00,240.00 C72.67,239.50 72.83,237.00 76.00,237.00 C79.17,237.00 87.17,237.83 91.00,240.00 C94.83,242.17 97.67,247.00 99.00,250.00 C100.33,253.00 100.33,255.17 99.00,258.00 C97.67,260.83 92.17,263.67 91.00,267.00 C89.83,270.33 92.50,275.50 92.00,278.00 C91.50,280.50 91.83,281.67 88.00,282.00 C84.17,282.33 72.17,280.33 69.00,280.00" fill="none" stroke="black" stroke-width="4.00" stroke-linecap="round" stroke-linejoin="round"/>
</svg>
