<?xml version="1.0" encoding="UTF-8"?>
<svg xmlns="http://www.w3.org/2000/svg" viewBox="0 0 193 601" width="193" height="601">
  <path d="M49.00,281.00 C48.83,282.67 49.33,288.33 48.00,291.00 C46.67,293.67 42.67,293.50 41.00,297.00 C39.33,300.50 38.33,301.33 38.00,312.00 C37.67,322.67 37.83,349.50 39.00,361.00 C40.17,372.50 41.00,371.67 45.00,381.00 C49.00,390.33 59.00,410.17 63.00,417.00 C67.00,423.83 67.33,422.17 69.00,422.00 C70.67,421.83 73.17,423.83 73.00,416.00 C72.83,408.17 71.50,394.50 68.00,375.00 C64.50,355.50 55.50,312.67 52.00,299.00 C48.50,285.33 47.83,294.00 47.00,293.00" fill="none" stroke="black" stroke-width="6.32" stroke-linecap="round" stroke-linejoin="round"/>
  <path d="M8.00,596.00 C13.50,579.83 33.50,519.00 41.00,499.00 C48.50,479.00 48.33,483.67 53.00,476.00 C57.67,468.33 65.83,458.67 69.00,453.00 C72.17,447.33 71.83,447.33 72.00,442.00 C72.17,436.67 70.33,424.50 70.00,421.00" fill="none" stroke="black" stroke-width="6.32" stroke-linecap="round" stroke-linejoin="round"/>
  <path d="M33.00,30.00 C31.50,30.17 26.50,30.00 24.00,31.00 C21.50,32.00 19.17,34.33 18.00,36.00 C16.83,37.67 16.17,39.00 17.00,41.00 C17.83,43.00 20.00,46.83 23.00,48.00 C26.00,49.17 32.50,48.50 35.00,48.00 C37.50,47.50 37.50,46.50 38.00,45.00 C38.50,43.50 38.67,41.50 38.00,39.00 C37.33,36.50 33.33,32.83 34.00,30.00 C34.67,27.17 39.00,24.17 42.00,22.00 C45.00,19.83 48.33,18.33 52.00,17.00 C55.67,15.67 60.17,14.33 64.00,14.00 C67.83,13.67 70.00,15.67 75.00,15.00 C80.00,14.33 88.17,10.00 94.00,10.00 C99.83,10.00 102.50,9.83 110.00,15.00 C117.50,20.17 132.00,33.50 139.00,41.00 C146.00,48.50 148.83,54.33 152.00,60.00 C155.17,65.67 160.83,72.17 158.00,75.00 C155.17,77.83 139.83,76.17 135.00,77.00 C130.17,77.83 131.17,78.17 129.00,80.00 C126.83,81.83 124.50,87.17 122.00,88.00 C119.50,88.83 116.33,85.33 114.00,85.00 C111.67,84.67 108.83,86.17 108.00,86.00 C107.17,85.83 109.50,84.67 109.00,84.00 C108.50,83.33 107.00,82.00 105.00,82.00 C103.00,82.00 100.00,82.83 97.00,84.00 C94.00,85.17 89.67,87.17 87.00,89.00 C84.33,90.83 82.33,93.17 81.00,95.00 C79.67,96.83 79.17,98.17 79.00,100.00 C78.83,101.83 78.83,104.00 80.00,106.00 C81.17,108.00 83.67,110.83 86.00,112.00 C88.33,113.17 91.67,115.83 94.00,113.00 C96.33,110.17 97.33,99.67 100.00,95.00 C102.67,90.33 108.33,86.67 110.00,85.00" fill="none" stroke="black" stroke-width="6.32" stroke-linecap="round" stroke-linejoin="round"/>
  <path d="M76.00,14.00 C75.67,15.33 76.50,18.00 74.00,22.00 C71.50,26.00 63.50,34.33 61.00,38.00 C58.50,41.67 60.83,42.50 59.00,44.00 C57.17,45.50 53.00,44.83 50.00,47.00 C47.00,49.17 42.67,53.67 41.00,57.00 C39.33,60.33 38.83,64.00 40.00,67.00 C41.17,70.00 43.67,73.67 48.00,75.00 C52.33,76.33 60.83,76.17 66.00,75.00 C71.17,73.83 76.83,70.33 79.00,68.00 C81.17,65.67 79.50,63.00 79.00,61.00 C78.50,59.00 79.50,58.83 76.00,56.00 C72.50,53.17 61.00,46.00 58.00,44.00" fill="none" stroke="black" stroke-width="4.47" stroke-linecap="round" stroke-linejoin="round"/>
  <path d="M158.00,75.00 C159.67,78.83 165.00,86.33 168.00,98.00 C171.00,109.67 174.50,128.67 176.00,145.00 C177.50,161.33 177.33,183.33 177.00,196.00 C176.67,208.67 177.83,216.17 174.00,221.00 C170.17,225.83 159.67,223.00 154.00,225.00 C148.33,227.00 144.17,230.00 140.00,233.00 C135.83,236.00 132.67,242.33 129.00,243.00 C125.33,243.67 122.17,237.67 118.00,237.00 C113.83,236.33 107.83,237.00 104.00,239.00 C100.17,241.00 96.50,245.83 95.00,249.00 C93.50,252.17 94.17,255.83 95.00,258.00 C95.83,260.17 95.33,264.83 100.00,262.00 C104.67,259.17 119.17,244.50 123.00,241.00" fill="none" stroke="black" stroke-width="6.00" stroke-linecap="round" stroke-linejoin="round"/>
  <path d="M121.00,88.00 C121.00,88.67 120.83,91.67 121.00,92.00 C121.17,92.33 120.50,89.17 122.00,90.00 C123.50,90.83 128.50,94.50 130.00,97.00 C131.50,99.50 133.17,100.17 131.00,105.00 C128.83,109.83 120.67,123.83 117.00,126.00 C113.33,128.17 108.33,123.67 109.00,118.00 C109.67,112.33 119.00,96.33 121.00,92.00" fill="none" stroke="black" stroke-width="4.47" stroke-linecap="round" stroke-linejoin="round"/>
  <path d="M95.00,112.00 C95.00,112.50 94.17,113.67 95.00,115.00 C95.83,116.33 97.50,119.67 100.00,120.00 C102.50,120.33 108.33,117.17 110.00,117.00 C111.67,116.83 110.00,118.67 110.00,119.00" fill="none" stroke="black" stroke-width="5.66" stroke-linecap="round" stroke-linejoin="round"/>
  <path d="M174.00,136.00 C170.50,135.00 158.17,130.83 153.00,130.00 C147.83,129.17 148.67,129.33 143.00,131.00 C137.33,132.67 124.67,137.00 119.00,140.00 C113.33,143.00 111.50,145.67 109.00,149.00 C106.50,152.33 109.00,158.83 104.00,160.00 C99.00,161.17 84.83,155.83 79.00,156.00 C73.17,156.17 72.17,158.50 69.00,161.00 C65.83,163.50 62.17,167.50 60.00,171.00 C57.83,174.50 56.83,176.00 56.00,182.00 C55.17,188.00 54.33,201.83 55.00,207.00 C55.67,212.17 58.33,212.00 60.00,213.00 C61.67,214.00 62.00,214.67 65.00,213.00 C68.00,211.33 75.83,204.67 78.00,203.00" fill="none" stroke="black" stroke-width="4.47" stroke-linecap="round" stroke-linejoin="round"/>
  <path d="M86.00,157.00 C84.67,158.67 80.17,163.17 78.00,167.00 C75.83,170.83 73.67,176.33 73.00,180.00 C72.33,183.67 72.83,185.17 74.00,189.00 C75.17,192.83 79.33,200.67 80.00,203.00 C80.67,205.33 76.50,201.33 78.00,203.00 C79.50,204.67 85.67,212.00 89.00,213.00 C92.33,214.00 94.33,207.00 98.00,209.00 C101.67,211.00 107.83,222.17 111.00,225.00 C114.17,227.83 115.67,226.17 117.00,226.00 C118.33,225.83 118.50,227.17 119.00,224.00 C119.50,220.83 118.00,212.83 120.00,207.00 C122.00,201.17 129.17,193.83 131.00,189.00 C132.83,184.17 132.83,182.17 131.00,178.00 C129.17,173.83 122.67,166.67 120.00,164.00 C117.33,161.33 117.00,162.17 115.00,162.00 C113.00,161.83 109.83,163.33 108.00,163.00 C106.17,162.67 104.67,160.50 104.00,160.00" fill="none" stroke="black" stroke-width="4.47" stroke-linecap="round" stroke-linejoin="round"/>
  <path d="M109.00,162.00 C109.67,164.50 112.50,172.50 113.00,177.00 C113.50,181.50 114.67,183.50 112.00,189.00 C109.33,194.50 99.50,206.50 97.00,210.00" fill="none" stroke="black" stroke-width="4.47" stroke-linecap="round" stroke-linejoin="round"/>
  <path d="M172.00,222.00 C172.17,222.50 171.83,224.50 173.00,225.00 C174.17,225.50 177.33,224.33 179.00,225.00 C180.67,225.67 182.17,226.50 183.00,229.00 C183.83,231.50 185.00,236.83 184.00,240.00 C183.00,243.17 179.67,246.33 177.00,248.00 C174.33,249.67 169.17,249.83 168.00,250.00 C166.83,250.17 170.00,249.17 170.00,249.00 C170.00,248.83 167.50,253.00 168.00,249.00 C168.50,245.00 172.17,229.00 173.00,225.00" fill="none" stroke="black" stroke-width="6.32" stroke-linecap="round" stroke-linejoin="round"/>
  <path d="M130.00,242.00 C129.67,247.00 129.00,265.67 128.00,272.00 C127.00,278.33 123.67,277.83 124.00,280.00 C124.33,282.17 128.17,284.17 130.00,285.00 C131.83,285.83 132.67,286.83 135.00,285.00 C137.33,283.17 142.33,277.67 144.00,274.00 C145.67,270.33 145.67,267.00 145.00,263.00 C144.33,259.00 142.33,253.33 140.00,250.00 C137.67,246.67 132.50,244.17 131.00,243.00" fill="none" stroke="black" stroke-width="4.00" stroke-linecap="round" stroke-linejoin="round"/>
  <path d="M168.00,250.00 C164.17,260.33 154.33,290.00 145.00,312.00 C135.67,334.00 122.00,362.50 112.00,382.00 C102.00,401.50 90.33,420.33 85.00,429.00 C79.67,437.67 82.17,432.83 80.00,434.00 C77.83,435.17 73.33,435.33 72.00,436.00 C70.67,436.67 72.00,437.67 72.00,438.00" fill="none" stroke="black" stroke-width="7.21" stroke-linecap="round" stroke-linejoin="round"/>
  <path d="M101.00,261.00 C101.00,263.50 100.17,272.50 101.00,276.00 C101.83,279.50 102.00,281.50 106.00,282.00 C110.00,282.50 121.83,279.17 125.00,279.00 C128.17,278.83 125.00,280.67 125.00,281.00" fill="none" stroke="black" stroke-width="4.47" stroke-linecap="round" stroke-linejoin="round"/>
</svg>
