<?xml version="1.0" encoding="UTF-8"?>
<svg xmlns="http://www.w3.org/2000/svg" viewBox="0 0 199 601" width="199" height="601">
  <path d="M12.00,596.00 C17.50,579.83 37.50,519.00 45.00,499.00 C52.50,479.00 47.17,491.83 57.00,476.00 C66.83,460.17 90.33,427.50 104.00,404.00 C117.67,380.50 127.50,361.00 139.00,335.00 C150.50,309.00 166.67,266.83 173.00,248.00 C179.33,229.17 176.33,225.83 177.00,222.00 C177.67,218.17 176.00,224.50 177.00,225.00 C178.00,225.50 181.33,224.33 183.00,225.00 C184.67,225.67 186.17,226.50 187.00,229.00 C187.83,231.50 189.00,236.83 188.00,240.00 C187.00,243.17 183.50,246.67 181.00,248.00 C178.50,249.33 174.50,247.67 173.00,248.00 C171.50,248.33 172.17,249.67 172.00,250.00" fill="none" stroke="black" stroke-width="6.32" stroke-linecap="round" stroke-linejoin="round"/>
  <path d="M37.00,30.00 C35.50,30.17 30.50,30.00 28.00,31.00 C25.50,32.00 23.17,34.33 22.00,36.00 C20.83,37.67 20.17,39.00 21.00,41.00 C21.83,43.00 24.00,46.83 27.00,48.00 C30.00,49.17 36.50,48.50 39.00,48.00 C41.50,47.50 41.50,46.50 42.00,45.00 C42.50,43.50 42.67,41.50 42.00,39.00 C41.33,36.50 37.33,32.83 38.00,30.00 C38.67,27.17 43.00,24.17 46.00,22.00 C49.00,19.83 52.33,18.33 56.00,17.00 C59.67,15.67 64.17,14.33 68.00,14.00 C71.83,13.67 74.00,15.67 79.00,15.00 C84.00,14.33 92.17,10.00 98.00,10.00 C103.83,10.00 106.50,9.83 114.00,15.00 C121.50,20.17 136.00,33.50 143.00,41.00 C150.00,48.50 152.83,54.33 156.00,60.00 C159.17,65.67 164.83,72.17 162.00,75.00 C159.17,77.83 143.83,76.17 139.00,77.00 C134.17,77.83 135.17,78.17 133.00,80.00 C130.83,81.83 128.50,87.17 126.00,88.00 C123.50,88.83 120.33,85.33 118.00,85.00 C115.67,84.67 112.83,86.17 112.00,86.00 C111.17,85.83 113.50,84.67 113.00,84.00 C112.50,83.33 111.00,82.00 109.00,82.00 C107.00,82.00 104.00,82.83 101.00,84.00 C98.00,85.17 93.67,87.17 91.00,89.00 C88.33,90.83 86.33,93.17 85.00,95.00 C83.67,96.83 83.17,98.17 83.00,100.00 C82.83,101.83 82.83,104.00 84.00,106.00 C85.17,108.00 87.67,110.83 90.00,112.00 C92.33,113.17 95.67,115.83 98.00,113.00 C100.33,110.17 101.33,99.67 104.00,95.00 C106.67,90.33 112.33,86.67 114.00,85.00" fill="none" stroke="black" stroke-width="6.32" stroke-linecap="round" stroke-linejoin="round"/>
  <path d="M80.00,14.00 C79.67,15.33 80.50,18.00 78.00,22.00 C75.50,26.00 67.50,34.33 65.00,38.00 C62.50,41.67 64.83,42.50 63.00,44.00 C61.17,45.50 57.00,44.83 54.00,47.00 C51.00,49.17 46.67,53.67 45.00,57.00 C43.33,60.33 42.83,64.00 44.00,67.00 C45.17,70.00 47.67,73.67 52.00,75.00 C56.33,76.33 64.83,76.17 70.00,75.00 C75.17,73.83 80.83,70.33 83.00,68.00 C85.17,65.67 83.50,63.00 83.00,61.00 C82.50,59.00 83.50,58.83 80.00,56.00 C76.50,53.17 65.00,46.00 62.00,44.00" fill="none" stroke="black" stroke-width="4.47" stroke-linecap="round" stroke-linejoin="round"/>
  <path d="M162.00,75.00 C163.00,76.83 165.83,80.50 168.00,86.00 C170.17,91.50 173.50,99.83 175.00,108.00 C176.50,116.17 176.17,128.83 177.00,135.00 C177.83,141.17 179.33,134.83 180.00,145.00 C180.67,155.17 181.33,183.33 181.00,196.00 C180.67,208.67 181.83,216.17 178.00,221.00 C174.17,225.83 163.67,223.00 158.00,225.00 C152.33,227.00 148.17,230.00 144.00,233.00 C139.83,236.00 136.67,242.33 133.00,243.00 C129.33,243.67 126.17,237.67 122.00,237.00 C117.83,236.33 111.83,237.00 108.00,239.00 C104.17,241.00 100.50,245.83 99.00,249.00 C97.50,252.17 98.17,255.83 99.00,258.00 C99.83,260.17 99.33,264.83 104.00,262.00 C108.67,259.17 123.17,244.50 127.00,241.00" fill="none" stroke="black" stroke-width="6.00" stroke-linecap="round" stroke-linejoin="round"/>
  <path d="M125.00,88.00 C125.00,88.67 124.83,91.67 125.00,92.00 C125.17,92.33 124.50,89.17 126.00,90.00 C127.50,90.83 132.50,94.50 134.00,97.00 C135.50,99.50 137.17,100.17 135.00,105.00 C132.83,109.83 124.67,123.83 121.00,126.00 C117.33,128.17 112.33,123.67 113.00,118.00 C113.67,112.33 123.00,96.33 125.00,92.00" fill="none" stroke="black" stroke-width="4.47" stroke-linecap="round" stroke-linejoin="round"/>
  <path d="M99.00,112.00 C99.00,112.50 98.17,113.67 99.00,115.00 C99.83,116.33 101.50,119.67 104.00,120.00 C106.50,120.33 112.33,117.17 114.00,117.00 C115.67,116.83 114.00,118.67 114.00,119.00" fill="none" stroke="black" stroke-width="5.66" stroke-linecap="round" stroke-linejoin="round"/>
  <path d="M178.00,136.00 C174.50,135.00 162.17,130.83 157.00,130.00 C151.83,129.17 152.67,129.33 147.00,131.00 C141.33,132.67 128.67,137.00 123.00,140.00 C117.33,143.00 115.50,145.67 113.00,149.00 C110.50,152.33 113.00,158.83 108.00,160.00 C103.00,161.17 88.83,155.83 83.00,156.00 C77.17,156.17 76.17,158.50 73.00,161.00 C69.83,163.50 66.17,167.50 64.00,171.00 C61.83,174.50 60.83,176.00 60.00,182.00 C59.17,188.00 58.33,201.83 59.00,207.00 C59.67,212.17 62.33,212.00 64.00,213.00 C65.67,214.00 66.00,214.67 69.00,213.00 C72.00,211.33 79.83,204.67 82.00,203.00" fill="none" stroke="black" stroke-width="4.47" stroke-linecap="round" stroke-linejoin="round"/>
  <path d="M90.00,157.00 C88.67,158.67 84.17,163.17 82.00,167.00 C79.83,170.83 77.67,176.33 77.00,180.00 C76.33,183.67 76.83,185.17 78.00,189.00 C79.17,192.83 83.33,200.67 84.00,203.00 C84.67,205.33 80.50,201.33 82.00,203.00 C83.50,204.67 89.67,212.00 93.00,213.00 C96.33,214.00 98.33,207.00 102.00,209.00 C105.67,211.00 111.83,222.17 115.00,225.00 C118.17,227.83 119.67,226.17 121.00,226.00 C122.33,225.83 122.50,227.17 123.00,224.00 C123.50,220.83 122.00,212.83 124.00,207.00 C126.00,201.17 133.17,193.83 135.00,189.00 C136.83,184.17 136.83,182.17 135.00,178.00 C133.17,173.83 126.67,166.67 124.00,164.00 C121.33,161.33 121.00,162.17 119.00,162.00 C117.00,161.83 113.83,163.33 112.00,163.00 C110.17,162.67 108.67,160.50 108.00,160.00" fill="none" stroke="black" stroke-width="4.47" stroke-linecap="round" stroke-linejoin="round"/>
  <path d="M113.00,162.00 C113.67,164.50 116.50,172.50 117.00,177.00 C117.50,181.50 118.67,183.50 116.00,189.00 C113.33,194.50 103.50,206.50 101.00,210.00" fill="none" stroke="black" stroke-width="4.47" stroke-linecap="round" stroke-linejoin="round"/>
  <path d="M134.00,242.00 C133.67,247.00 133.00,265.67 132.00,272.00 C131.00,278.33 127.67,277.83 128.00,280.00 C128.33,282.17 132.17,284.17 134.00,285.00 C135.83,285.83 136.67,286.83 139.00,285.00 C141.33,283.17 146.33,277.67 148.00,274.00 C149.67,270.33 149.67,267.00 149.00,263.00 C148.33,259.00 146.33,253.33 144.00,250.00 C141.67,246.67 136.50,244.17 135.00,243.00" fill="none" stroke="black" stroke-width="4.00" stroke-linecap="round" stroke-linejoin="round"/>
  <path d="M105.00,261.00 C105.00,263.50 104.17,272.50 105.00,276.00 C105.83,279.50 106.00,281.50 110.00,282.00 C114.00,282.50 125.83,279.17 129.00,279.00 C132.17,278.83 129.00,280.67 129.00,281.00" fill="none" stroke="black" stroke-width="4.47" stroke-linecap="round" stroke-linejoin="round"/>
</svg>
