<?xml version="1.0" encoding="UTF-8"?>
<svg xmlns="http://www.w3.org/2000/svg" viewBox="0 0 627 1699" width="627" height="1699">
  <path d="M313.00,544.00 C312.67,544.33 311.33,544.00 311.00,546.00 C310.67,548.00 312.50,552.33 311.00,556.00 C309.50,559.67 310.00,561.17 302.00,568.00 C294.00,574.83 271.67,592.00 263.00,597.00 C254.33,602.00 253.00,596.17 250.00,598.00 C247.00,599.83 246.17,603.83 245.00,608.00 C243.83,612.17 244.17,619.67 243.00,623.00 C241.83,626.33 242.50,631.83 238.00,628.00 C233.50,624.17 221.50,605.17 216.00,600.00 C210.50,594.83 208.33,597.17 205.00,597.00 C201.67,596.83 199.33,597.50 196.00,599.00 C192.67,600.50 188.83,602.50 185.00,606.00 C181.17,609.50 175.33,616.33 173.00,620.00 C170.67,623.67 173.33,625.17 171.00,628.00 C168.67,630.83 161.00,635.50 159.00,637.00" fill="none" stroke="black" stroke-width="8.49" stroke-linecap="round" stroke-linejoin="round"/>
  <path d="M439.00,728.00 C439.00,729.17 439.50,733.33 439.00,735.00 C438.50,736.67 437.33,738.00 436.00,738.00 C434.67,738.00 433.17,735.50 431.00,735.00 C428.83,734.50 426.67,737.67 423.00,735.00 C419.33,732.33 412.17,721.83 409.00,719.00 C405.83,716.17 407.33,717.50 404.00,718.00 C400.67,718.50 395.67,717.17 389.00,722.00 C382.33,726.83 369.17,744.00 364.00,747.00 C358.83,750.00 360.33,740.83 358.00,740.00 C355.67,739.17 353.00,739.67 350.00,742.00 C347.00,744.33 344.00,746.17 340.00,754.00 C336.00,761.83 329.83,782.17 326.00,789.00 C322.17,795.83 319.67,794.00 317.00,795.00 C314.33,796.00 311.83,795.83 310.00,795.00 C308.17,794.17 306.83,792.00 306.00,790.00 C305.17,788.00 304.33,785.67 305.00,783.00 C305.67,780.33 309.17,776.67 310.00,774.00 C310.83,771.33 310.50,771.67 310.00,767.00 C309.50,762.33 309.17,750.17 307.00,746.00 C304.83,741.83 298.00,744.83 297.00,742.00 C296.00,739.17 300.33,731.17 301.00,729.00" fill="none" stroke="black" stroke-width="8.49" stroke-linecap="round" stroke-linejoin="round"/>
  <path d="M454.00,776.00 C451.50,778.33 443.33,788.83 439.00,790.00 C434.67,791.17 429.83,784.83 428.00,783.00 C426.17,781.17 426.17,783.17 428.00,779.00 C429.83,774.83 437.17,763.17 439.00,758.00 C440.83,752.83 439.67,750.00 439.00,748.00 C438.33,746.00 439.50,743.17 435.00,746.00 C430.50,748.83 419.00,759.83 412.00,765.00 C405.00,770.17 398.50,773.83 393.00,777.00 C387.50,780.17 382.83,782.83 379.00,784.00 C375.17,785.17 371.50,784.00 370.00,784.00" fill="none" stroke="black" stroke-width="8.49" stroke-linecap="round" stroke-linejoin="round"/>
  <path d="M309.00,1671.00 C309.00,1670.00 310.00,1668.17 309.00,1665.00 C308.00,1661.83 306.00,1661.83 303.00,1652.00 C300.00,1642.17 295.17,1624.67 291.00,1606.00 C286.83,1587.33 281.50,1554.67 278.00,1540.00 C274.50,1525.33 275.17,1541.50 270.00,1518.00 C264.83,1494.50 253.17,1433.17 247.00,1399.00 C240.83,1364.83 238.17,1355.00 233.00,1313.00 C227.83,1271.00 219.50,1195.83 216.00,1147.00 C212.50,1098.17 212.17,1046.17 212.00,1020.00 C211.83,993.83 214.50,1003.17 215.00,990.00 C215.50,976.83 214.00,953.50 215.00,941.00 C216.00,928.50 220.67,920.17 221.00,915.00 C221.33,909.83 217.67,913.83 217.00,910.00 C216.33,906.17 215.83,907.50 217.00,892.00 C218.17,876.50 222.50,839.00 224.00,817.00 C225.50,795.00 223.50,787.67 226.00,760.00 C228.50,732.33 237.00,671.00 239.00,651.00 C241.00,631.00 238.17,641.83 238.00,640.00" fill="none" stroke="black" stroke-width="12.00" stroke-linecap="round" stroke-linejoin="round"/>
  <path d="M362.00,56.00 C360.83,52.33 357.67,38.83 355.00,34.00 C352.33,29.17 349.50,26.50 346.00,27.00 C342.50,27.50 338.17,32.00 334.00,37.00 C329.83,42.00 324.33,52.83 321.00,57.00 C317.67,61.17 315.17,61.17 314.00,62.00" fill="none" stroke="black" stroke-width="8.49" stroke-linecap="round" stroke-linejoin="round"/>
  <path d="M382.00,93.00 C381.67,88.50 380.83,71.67 380.00,66.00 C379.17,60.33 378.33,60.83 377.00,59.00 C375.67,57.17 374.17,55.67 372.00,55.00 C369.83,54.33 368.33,53.00 364.00,55.00 C359.67,57.00 351.33,62.50 346.00,67.00 C340.67,71.50 335.33,79.17 332.00,82.00 C328.67,84.83 328.33,85.33 326.00,84.00 C323.67,82.67 320.00,77.83 318.00,74.00 C316.00,70.17 316.17,64.33 314.00,61.00 C311.83,57.67 307.50,55.17 305.00,54.00 C302.50,52.83 302.00,51.67 299.00,54.00 C296.00,56.33 290.00,66.33 287.00,68.00 C284.00,69.67 285.83,69.83 281.00,64.00 C276.17,58.17 264.00,38.50 258.00,33.00 C252.00,27.50 248.67,29.83 245.00,31.00 C241.33,32.17 238.00,34.83 236.00,40.00 C234.00,45.17 233.50,58.33 233.00,62.00" fill="none" stroke="black" stroke-width="8.49" stroke-linecap="round" stroke-linejoin="round"/>
  <path d="M188.00,57.00 C185.33,56.17 176.33,51.83 172.00,52.00 C167.67,52.17 164.17,56.00 162.00,58.00 C159.83,60.00 160.33,57.50 159.00,64.00 C157.67,70.50 160.33,93.33 154.00,97.00 C147.67,100.67 128.00,87.67 121.00,86.00 C114.00,84.33 115.00,85.50 112.00,87.00 C109.00,88.50 104.83,92.17 103.00,95.00 C101.17,97.83 101.00,100.33 101.00,104.00 C101.00,107.67 101.67,112.33 103.00,117.00 C104.33,121.67 107.83,128.00 109.00,132.00 C110.17,136.00 109.17,138.83 110.00,141.00 C110.83,143.17 113.17,143.50 114.00,145.00 C114.83,146.50 114.83,149.17 115.00,150.00" fill="none" stroke="black" stroke-width="8.25" stroke-linecap="round" stroke-linejoin="round"/>
  <path d="M196.00,71.00 C195.33,70.50 193.17,70.33 192.00,68.00 C190.83,65.67 188.83,60.67 189.00,57.00 C189.17,53.33 190.83,48.83 193.00,46.00 C195.17,43.17 199.50,40.67 202.00,40.00 C204.50,39.33 204.17,39.00 208.00,42.00 C211.83,45.00 220.83,55.00 225.00,58.00 C229.17,61.00 231.33,58.00 233.00,60.00 C234.67,62.00 233.33,67.00 235.00,70.00 C236.67,73.00 241.67,76.67 243.00,78.00" fill="none" stroke="black" stroke-width="8.49" stroke-linecap="round" stroke-linejoin="round"/>
  <path d="M287.00,68.00 C287.00,71.67 288.00,85.00 287.00,90.00 C286.00,95.00 283.17,97.67 281.00,98.00 C278.83,98.33 276.50,95.33 274.00,92.00 C271.50,88.67 269.00,81.50 266.00,78.00 C263.00,74.50 259.83,71.17 256.00,71.00 C252.17,70.83 245.17,72.17 243.00,77.00 C240.83,81.83 243.50,95.50 243.00,100.00 C242.50,104.50 241.50,103.67 240.00,104.00 C238.50,104.33 239.33,107.33 234.00,102.00 C228.67,96.67 214.17,77.33 208.00,72.00 C201.83,66.67 199.33,69.83 197.00,70.00 C194.67,70.17 194.17,68.83 194.00,73.00 C193.83,77.17 194.83,88.00 196.00,95.00 C197.17,102.00 200.17,110.17 201.00,115.00 C201.83,119.83 201.33,122.33 201.00,124.00 C200.67,125.67 198.17,122.67 199.00,125.00 C199.83,127.33 201.33,131.17 206.00,138.00 C210.67,144.83 221.83,160.33 227.00,166.00 C232.17,171.67 235.33,171.00 237.00,172.00" fill="none" stroke="black" stroke-width="8.49" stroke-linecap="round" stroke-linejoin="round"/>
  <path d="M386.00,102.00 C387.33,101.50 388.50,103.67 394.00,99.00 C399.50,94.33 413.83,78.17 419.00,74.00 C424.17,69.83 422.83,72.50 425.00,74.00 C427.17,75.50 426.67,84.50 432.00,83.00 C437.33,81.50 451.50,68.33 457.00,65.00 C462.50,61.67 462.50,62.33 465.00,63.00 C467.50,63.67 470.50,67.17 472.00,69.00 C473.50,70.83 474.33,67.83 474.00,74.00 C473.67,80.17 470.67,100.67 470.00,106.00" fill="none" stroke="black" stroke-width="8.49" stroke-linecap="round" stroke-linejoin="round"/>
  <path d="M432.00,83.00 C432.50,90.00 432.50,118.50 435.00,125.00 C437.50,131.50 441.17,125.00 447.00,122.00 C452.83,119.00 462.50,109.50 470.00,107.00 C477.50,104.50 487.83,106.67 492.00,107.00 C496.17,107.33 493.00,109.67 495.00,109.00 C497.00,108.33 500.33,104.17 504.00,103.00 C507.67,101.83 512.67,101.50 517.00,102.00 C521.33,102.50 526.83,104.33 530.00,106.00 C533.17,107.67 534.83,109.67 536.00,112.00 C537.17,114.33 537.33,117.33 537.00,120.00 C536.67,122.67 537.33,123.33 534.00,128.00 C530.67,132.67 520.33,143.50 517.00,148.00 C513.67,152.50 513.83,153.50 514.00,155.00 C514.17,156.50 512.00,156.33 518.00,157.00 C524.00,157.67 543.50,157.67 550.00,159.00 C556.50,160.33 556.33,162.17 557.00,165.00 C557.67,167.83 557.00,171.00 554.00,176.00 C551.00,181.00 541.83,190.67 539.00,195.00 C536.17,199.33 546.67,201.50 537.00,202.00 C527.33,202.50 489.83,200.00 481.00,198.00 C472.17,196.00 481.17,194.33 484.00,190.00 C486.83,185.67 494.67,177.50 498.00,172.00 C501.33,166.50 503.00,159.50 504.00,157.00" fill="none" stroke="black" stroke-width="8.25" stroke-linecap="round" stroke-linejoin="round"/>
  <path d="M326.00,84.00 C326.33,84.00 327.50,82.17 328.00,84.00 C328.50,85.83 331.17,90.83 329.00,95.00 C326.83,99.17 318.50,98.33 315.00,109.00 C311.50,119.67 309.17,150.67 308.00,159.00" fill="none" stroke="black" stroke-width="8.49" stroke-linecap="round" stroke-linejoin="round"/>
  <path d="M343.00,118.00 C344.17,117.67 345.67,119.50 350.00,116.00 C354.33,112.50 364.17,100.67 369.00,97.00 C373.83,93.33 376.67,94.33 379.00,94.00 C381.33,93.67 381.83,93.67 383.00,95.00 C384.17,96.33 386.33,98.67 386.00,102.00 C385.67,105.33 381.67,112.00 381.00,115.00 C380.33,118.00 383.67,116.50 382.00,120.00 C380.33,123.50 375.17,131.00 371.00,136.00 C366.83,141.00 360.00,146.67 357.00,150.00 C354.00,153.33 353.83,153.33 353.00,156.00 C352.17,158.67 352.83,164.17 352.00,166.00 C351.17,167.83 348.33,166.83 348.00,167.00 C347.67,167.17 349.50,165.50 350.00,167.00 C350.50,168.50 349.17,171.17 351.00,176.00 C352.83,180.83 359.33,188.67 361.00,196.00 C362.67,203.33 363.50,210.33 361.00,220.00 C358.50,229.67 348.50,246.33 346.00,254.00 C343.50,261.67 346.67,263.50 346.00,266.00 C345.33,268.50 342.33,267.33 342.00,269.00 C341.67,270.67 342.33,273.50 344.00,276.00 C345.67,278.50 347.00,281.33 352.00,284.00 C357.00,286.67 365.00,291.83 374.00,292.00 C383.00,292.17 400.83,287.50 406.00,285.00 C411.17,282.50 403.67,281.17 405.00,277.00 C406.33,272.83 412.50,263.67 414.00,260.00 C415.50,256.33 415.50,257.00 414.00,255.00 C412.50,253.00 406.50,249.17 405.00,248.00" fill="none" stroke="black" stroke-width="8.49" stroke-linecap="round" stroke-linejoin="round"/>
  <path d="M329.00,95.00 C329.83,95.17 332.33,95.00 334.00,96.00 C335.67,97.00 337.83,98.00 339.00,101.00 C340.17,104.00 340.17,111.17 341.00,114.00 C341.83,116.83 345.67,111.17 344.00,118.00 C342.33,124.83 333.50,147.33 331.00,155.00 C328.50,162.67 329.00,162.17 329.00,164.00 C329.00,165.83 331.00,166.00 331.00,166.00 C331.00,166.00 331.67,164.00 329.00,164.00 C326.33,164.00 317.33,166.17 315.00,166.00 C312.67,165.83 316.00,164.33 315.00,163.00 C314.00,161.67 313.00,155.83 309.00,158.00 C305.00,160.17 295.50,172.33 291.00,176.00 C286.50,179.67 283.50,179.33 282.00,180.00" fill="none" stroke="black" stroke-width="8.25" stroke-linecap="round" stroke-linejoin="round"/>
  <path d="M154.00,97.00 C153.83,97.50 150.50,98.67 153.00,100.00 C155.50,101.33 162.50,101.17 169.00,105.00 C175.50,108.83 186.83,119.50 192.00,123.00 C197.17,126.50 198.67,125.50 200.00,126.00" fill="none" stroke="black" stroke-width="8.49" stroke-linecap="round" stroke-linejoin="round"/>
  <path d="M282.00,97.00 C282.17,100.50 282.17,113.33 283.00,118.00 C283.83,122.67 285.33,124.17 287.00,125.00 C288.67,125.83 290.17,125.83 293.00,123.00 C295.83,120.17 301.17,110.67 304.00,108.00 C306.83,105.33 308.33,106.83 310.00,107.00 C311.67,107.17 313.33,108.67 314.00,109.00" fill="none" stroke="black" stroke-width="10.00" stroke-linecap="round" stroke-linejoin="round"/>
  <path d="M153.00,100.00 C151.67,102.17 146.33,109.50 145.00,113.00 C143.67,116.50 141.00,113.50 145.00,121.00 C149.00,128.50 164.67,150.17 169.00,158.00 C173.33,165.83 172.50,166.67 171.00,168.00 C169.50,169.33 165.00,167.83 160.00,166.00 C155.00,164.17 148.50,159.50 141.00,157.00 C133.50,154.50 120.33,150.50 115.00,151.00 C109.67,151.50 109.00,154.67 109.00,160.00 C109.00,165.33 117.17,179.50 115.00,183.00 C112.83,186.50 101.17,182.33 96.00,181.00 C90.83,179.67 89.33,176.17 84.00,175.00 C78.67,173.83 68.00,173.50 64.00,174.00 C60.00,174.50 60.33,175.67 60.00,178.00 C59.67,180.33 59.67,183.33 62.00,188.00 C64.33,192.67 76.67,199.33 74.00,206.00 C71.33,212.67 53.00,222.00 46.00,228.00 C39.00,234.00 35.00,238.50 32.00,242.00 C29.00,245.50 28.67,246.67 28.00,249.00 C27.33,251.33 26.00,253.50 28.00,256.00 C30.00,258.50 34.33,262.83 40.00,264.00 C45.67,265.17 57.33,262.67 62.00,263.00 C66.67,263.33 67.00,265.50 68.00,266.00" fill="none" stroke="black" stroke-width="8.25" stroke-linecap="round" stroke-linejoin="round"/>
  <path d="M240.00,105.00 C240.67,106.50 241.83,113.17 244.00,114.00 C246.17,114.83 250.50,110.67 253.00,110.00 C255.50,109.33 257.17,109.00 259.00,110.00 C260.83,111.00 261.83,107.83 264.00,116.00 C266.17,124.17 269.67,150.83 272.00,159.00 C274.33,167.17 277.00,163.00 278.00,165.00 C279.00,167.00 277.33,168.50 278.00,171.00 C278.67,173.50 281.50,175.67 282.00,180.00 C282.50,184.33 280.83,191.83 281.00,197.00 C281.17,202.17 281.83,207.83 283.00,211.00 C284.17,214.17 286.00,216.33 288.00,216.00 C290.00,215.67 292.67,214.33 295.00,209.00 C297.33,203.67 298.50,191.33 302.00,184.00 C305.50,176.67 313.67,168.17 316.00,165.00" fill="none" stroke="black" stroke-width="8.25" stroke-linecap="round" stroke-linejoin="round"/>
  <path d="M495.00,109.00 C494.83,110.67 496.33,113.67 494.00,119.00 C491.67,124.33 483.67,135.83 481.00,141.00 C478.33,146.17 478.17,148.50 478.00,150.00 C477.83,151.50 479.67,150.00 480.00,150.00" fill="none" stroke="black" stroke-width="8.25" stroke-linecap="round" stroke-linejoin="round"/>
  <path d="M244.00,114.00 C243.17,118.33 239.83,130.50 239.00,140.00 C238.17,149.50 239.33,165.67 239.00,171.00 C238.67,176.33 236.67,169.17 237.00,172.00 C237.33,174.83 238.50,182.17 241.00,188.00 C243.50,193.83 249.83,202.17 252.00,207.00 C254.17,211.83 255.67,215.17 254.00,217.00 C252.33,218.83 250.00,220.17 242.00,218.00 C234.00,215.83 213.50,206.50 206.00,204.00 C198.50,201.50 198.50,203.17 197.00,203.00" fill="none" stroke="black" stroke-width="8.25" stroke-linecap="round" stroke-linejoin="round"/>
  <path d="M382.00,120.00 C385.00,119.83 396.17,118.33 400.00,119.00 C403.83,119.67 404.00,121.00 405.00,124.00 C406.00,127.00 406.33,132.33 406.00,137.00 C405.67,141.67 403.17,149.50 403.00,152.00 C402.83,154.50 405.50,151.33 405.00,152.00 C404.50,152.67 403.00,151.33 400.00,156.00 C397.00,160.67 390.67,175.00 387.00,180.00 C383.33,185.00 379.50,185.00 378.00,186.00" fill="none" stroke="black" stroke-width="8.25" stroke-linecap="round" stroke-linejoin="round"/>
  <path d="M288.00,125.00 C287.33,130.50 285.83,151.50 284.00,158.00 C282.17,164.50 277.83,163.00 277.00,164.00 C276.17,165.00 278.67,164.00 279.00,164.00" fill="none" stroke="black" stroke-width="10.00" stroke-linecap="round" stroke-linejoin="round"/>
  <path d="M435.00,126.00 C434.50,127.50 432.17,132.50 432.00,135.00 C431.83,137.50 434.00,140.00 434.00,141.00 C434.00,142.00 432.33,141.00 432.00,141.00" fill="none" stroke="black" stroke-width="8.94" stroke-linecap="round" stroke-linejoin="round"/>
  <path d="M109.00,141.00 C107.33,141.00 105.00,142.00 99.00,141.00 C93.00,140.00 78.67,135.33 73.00,135.00 C67.33,134.67 66.33,137.17 65.00,139.00 C63.67,140.83 62.50,141.50 65.00,146.00 C67.50,150.50 76.83,161.17 80.00,166.00 C83.17,170.83 83.67,173.50 84.00,175.00 C84.33,176.50 82.33,175.00 82.00,175.00" fill="none" stroke="black" stroke-width="8.25" stroke-linecap="round" stroke-linejoin="round"/>
  <path d="M403.00,153.00 C404.83,152.50 409.33,152.00 414.00,150.00 C418.67,148.00 426.83,142.50 431.00,141.00 C435.17,139.50 437.33,140.67 439.00,141.00 C440.67,141.33 440.50,139.67 441.00,143.00 C441.50,146.33 450.00,149.67 442.00,161.00 C434.00,172.33 403.00,201.83 393.00,211.00 C383.00,220.17 384.33,215.83 382.00,216.00 C379.67,216.17 379.50,217.00 379.00,212.00 C378.50,207.00 381.33,193.17 379.00,186.00 C376.67,178.83 368.83,172.33 365.00,169.00 C361.17,165.67 358.67,166.17 356.00,166.00 C353.33,165.83 353.17,168.00 349.00,168.00 C344.83,168.00 334.33,162.67 331.00,166.00 C327.67,169.33 329.00,184.33 329.00,188.00 C329.00,191.67 331.00,187.83 331.00,188.00 C331.00,188.17 328.17,188.83 329.00,189.00 C329.83,189.17 334.00,188.17 336.00,189.00 C338.00,189.83 339.83,191.00 341.00,194.00 C342.17,197.00 344.83,195.50 343.00,207.00 C341.17,218.50 332.83,252.83 330.00,263.00 C327.17,273.17 326.17,267.50 326.00,268.00 C325.83,268.50 326.50,265.83 329.00,266.00 C331.50,266.17 339.00,268.50 341.00,269.00" fill="none" stroke="black" stroke-width="8.49" stroke-linecap="round" stroke-linejoin="round"/>
  <path d="M442.00,161.00 C443.33,161.00 445.83,161.83 450.00,161.00 C454.17,160.17 462.33,157.83 467.00,156.00 C471.67,154.17 473.00,150.83 478.00,150.00 C483.00,149.17 492.83,149.83 497.00,151.00 C501.17,152.17 500.00,156.50 503.00,157.00 C506.00,157.50 513.00,154.50 515.00,154.00" fill="none" stroke="black" stroke-width="8.71" stroke-linecap="round" stroke-linejoin="round"/>
  <path d="M171.00,167.00 C175.00,171.83 190.50,190.17 195.00,196.00 C199.50,201.83 198.17,199.50 198.00,202.00 C197.83,204.50 197.33,210.17 194.00,211.00 C190.67,211.83 183.00,207.67 178.00,207.00 C173.00,206.33 168.83,206.50 164.00,207.00 C159.17,207.50 151.83,209.00 149.00,210.00 C146.17,211.00 147.17,212.83 147.00,213.00 C146.83,213.17 150.00,212.67 148.00,211.00 C146.00,209.33 140.50,207.83 135.00,203.00 C129.50,198.17 118.33,185.50 115.00,182.00" fill="none" stroke="black" stroke-width="8.49" stroke-linecap="round" stroke-linejoin="round"/>
  <path d="M329.00,189.00 C327.00,193.00 320.00,204.17 317.00,213.00 C314.00,221.83 311.17,236.50 311.00,242.00 C310.83,247.50 315.17,243.67 316.00,246.00 C316.83,248.33 316.50,253.67 316.00,256.00 C315.50,258.33 313.50,259.33 313.00,260.00" fill="none" stroke="black" stroke-width="12.17" stroke-linecap="round" stroke-linejoin="round"/>
  <path d="M482.00,197.00 C480.00,197.50 476.67,197.00 470.00,200.00 C463.33,203.00 451.17,210.83 442.00,215.00 C432.83,219.17 424.50,223.00 415.00,225.00 C405.50,227.00 390.67,227.17 385.00,227.00 C379.33,226.83 382.17,223.83 381.00,224.00 C379.83,224.17 379.17,224.50 378.00,228.00 C376.83,231.50 374.67,242.17 374.00,245.00" fill="none" stroke="black" stroke-width="8.25" stroke-linecap="round" stroke-linejoin="round"/>
  <path d="M537.00,202.00 C537.33,202.50 532.33,205.00 539.00,205.00 C545.67,205.00 568.50,202.33 577.00,202.00 C585.50,201.67 586.33,201.00 590.00,203.00 C593.67,205.00 597.50,209.83 599.00,214.00 C600.50,218.17 600.00,224.83 599.00,228.00 C598.00,231.17 599.67,230.00 593.00,233.00 C586.33,236.00 565.50,243.00 559.00,246.00 C552.50,249.00 560.83,249.83 554.00,251.00 C547.17,252.17 526.50,253.67 518.00,253.00 C509.50,252.33 505.50,248.00 503.00,247.00" fill="none" stroke="black" stroke-width="8.25" stroke-linecap="round" stroke-linejoin="round"/>
  <path d="M539.00,205.00 C538.83,207.00 541.00,212.33 538.00,217.00 C535.00,221.67 526.67,228.83 521.00,233.00 C515.33,237.17 507.50,242.50 504.00,242.00 C500.50,241.50 501.83,232.83 500.00,230.00 C498.17,227.17 495.50,226.00 493.00,225.00 C490.50,224.00 490.17,223.67 485.00,224.00 C479.83,224.33 474.17,224.33 462.00,227.00 C449.83,229.67 421.33,236.50 412.00,240.00 C402.67,243.50 408.67,246.50 406.00,248.00 C403.33,249.50 398.50,249.50 396.00,249.00 C393.50,248.50 394.17,245.50 391.00,245.00 C387.83,244.50 379.67,246.17 377.00,246.00 C374.33,245.83 376.33,243.33 375.00,244.00 C373.67,244.67 370.50,247.00 369.00,250.00 C367.50,253.00 366.50,260.00 366.00,262.00" fill="none" stroke="black" stroke-width="8.25" stroke-linecap="round" stroke-linejoin="round"/>
  <path d="M74.00,206.00 C80.17,210.00 102.50,226.67 111.00,230.00 C119.50,233.33 119.00,228.83 125.00,226.00 C131.00,223.17 142.50,213.50 147.00,213.00 C151.50,212.50 149.67,219.83 152.00,223.00 C154.33,226.17 154.83,228.33 161.00,232.00 C167.17,235.67 183.50,241.83 189.00,245.00 C194.50,248.17 193.17,250.00 194.00,251.00" fill="none" stroke="black" stroke-width="8.25" stroke-linecap="round" stroke-linejoin="round"/>
  <path d="M194.00,211.00 C194.33,212.00 192.00,212.33 196.00,217.00 C200.00,221.67 214.17,234.50 218.00,239.00 C221.83,243.50 216.00,243.00 219.00,244.00 C222.00,245.00 230.17,243.83 236.00,245.00 C241.83,246.17 251.67,248.50 254.00,251.00 C256.33,253.50 254.33,253.83 250.00,260.00 C245.67,266.17 231.17,281.83 228.00,288.00 C224.83,294.17 229.67,294.67 231.00,297.00 C232.33,299.33 232.83,300.17 236.00,302.00 C239.17,303.83 246.50,307.17 250.00,308.00 C253.50,308.83 252.50,308.50 257.00,307.00 C261.50,305.50 271.67,301.83 277.00,299.00 C282.33,296.17 285.50,291.67 289.00,290.00 C292.50,288.33 296.50,289.17 298.00,289.00" fill="none" stroke="black" stroke-width="8.49" stroke-linecap="round" stroke-linejoin="round"/>
  <path d="M254.00,216.00 C258.67,220.50 278.67,237.50 282.00,243.00 C285.33,248.50 278.83,247.50 274.00,249.00 C269.17,250.50 256.50,251.50 253.00,252.00" fill="none" stroke="black" stroke-width="8.49" stroke-linecap="round" stroke-linejoin="round"/>
  <path d="M288.00,216.00 L287.00,242.00" fill="none" stroke="black" stroke-width="15.23" stroke-linecap="round" stroke-linejoin="round"/>
  <path d="M382.00,216.00 C381.67,217.50 380.00,223.50 380.00,225.00 C380.00,226.50 381.67,225.00 382.00,225.00" fill="none" stroke="black" stroke-width="12.00" stroke-linecap="round" stroke-linejoin="round"/>
  <path d="M111.00,230.00 C110.67,231.67 108.50,237.17 109.00,240.00 C109.50,242.83 113.00,244.50 114.00,247.00 C115.00,249.50 114.50,253.67 115.00,255.00 C115.50,256.33 116.67,255.00 117.00,255.00" fill="none" stroke="black" stroke-width="8.49" stroke-linecap="round" stroke-linejoin="round"/>
  <path d="M505.00,241.00 C504.83,242.00 505.33,245.33 504.00,247.00 C502.67,248.67 500.33,247.33 497.00,251.00 C493.67,254.67 485.50,265.00 484.00,269.00 C482.50,273.00 486.33,273.50 488.00,275.00 C489.67,276.50 487.50,276.17 494.00,278.00 C500.50,279.83 520.83,285.17 527.00,286.00 C533.17,286.83 529.17,283.50 531.00,283.00 C532.83,282.50 534.67,283.83 538.00,283.00 C541.33,282.17 547.67,280.00 551.00,278.00 C554.33,276.00 556.33,273.33 558.00,271.00 C559.67,268.67 560.50,265.17 561.00,264.00" fill="none" stroke="black" stroke-width="8.49" stroke-linecap="round" stroke-linejoin="round"/>
  <path d="M311.00,242.00 C310.00,242.67 306.33,244.50 305.00,246.00 C303.67,247.50 304.50,250.33 303.00,251.00 C301.50,251.67 298.67,251.33 296.00,250.00 C293.33,248.67 289.33,244.17 287.00,243.00 C284.67,241.83 282.83,243.00 282.00,243.00" fill="none" stroke="black" stroke-width="10.20" stroke-linecap="round" stroke-linejoin="round"/>
  <path d="M219.00,244.00 C217.33,244.83 213.17,247.83 209.00,249.00 C204.83,250.17 197.17,249.83 194.00,251.00 C190.83,252.17 192.50,254.67 190.00,256.00 C187.50,257.33 183.50,256.83 179.00,259.00 C174.50,261.17 167.50,268.33 163.00,269.00 C158.50,269.67 158.83,265.33 152.00,263.00 C145.17,260.67 131.33,256.00 122.00,255.00 C112.67,254.00 101.50,256.33 96.00,257.00 C90.50,257.67 91.83,257.50 89.00,259.00 C86.17,260.50 80.67,264.83 79.00,266.00" fill="none" stroke="black" stroke-width="8.49" stroke-linecap="round" stroke-linejoin="round"/>
  <path d="M396.00,249.00 C395.17,250.33 393.50,254.83 391.00,257.00 C388.50,259.17 383.67,260.83 381.00,262.00 C378.33,263.17 377.17,263.67 375.00,264.00 C372.83,264.33 369.50,264.33 368.00,264.00 C366.50,263.67 369.67,261.67 366.00,262.00 C362.33,262.33 349.33,265.33 346.00,266.00" fill="none" stroke="black" stroke-width="8.94" stroke-linecap="round" stroke-linejoin="round"/>
  <path d="M302.00,251.00 C303.33,252.67 309.17,258.67 310.00,261.00 C310.83,263.33 307.67,262.67 307.00,265.00 C306.33,267.33 307.67,271.17 306.00,275.00 C304.33,278.83 298.33,284.33 297.00,288.00 C295.67,291.67 299.67,291.17 298.00,297.00 C296.33,302.83 288.83,316.83 287.00,323.00 C285.17,329.17 286.17,330.67 287.00,334.00 C287.83,337.33 293.00,339.33 292.00,343.00 C291.00,346.67 284.50,352.83 281.00,356.00 C277.50,359.17 274.50,360.50 271.00,362.00 C267.50,363.50 263.83,365.83 260.00,365.00 C256.17,364.17 250.50,359.67 248.00,357.00 C245.50,354.33 245.33,353.17 245.00,349.00 C244.67,344.83 246.17,335.33 246.00,332.00 C245.83,328.67 247.17,328.67 244.00,329.00 C240.83,329.33 233.00,331.33 227.00,334.00 C221.00,336.67 211.67,343.50 208.00,345.00 C204.33,346.50 209.33,343.33 205.00,343.00 C200.67,342.67 186.50,343.33 182.00,343.00 C177.50,342.67 179.50,342.33 178.00,341.00 C176.50,339.67 174.17,337.50 173.00,335.00 C171.83,332.50 170.50,328.67 171.00,326.00 C171.50,323.33 174.83,322.00 176.00,319.00 C177.17,316.00 176.33,312.33 178.00,308.00 C179.67,303.67 184.67,295.50 186.00,293.00" fill="none" stroke="black" stroke-width="8.25" stroke-linecap="round" stroke-linejoin="round"/>
  <path d="M554.00,251.00 C555.17,253.17 558.00,261.17 561.00,264.00 C564.00,266.83 566.17,264.00 572.00,268.00 C577.83,272.00 591.83,283.33 596.00,288.00 C600.17,292.67 597.83,293.00 597.00,296.00 C596.17,299.00 596.67,304.33 591.00,306.00 C585.33,307.67 571.67,306.83 563.00,306.00 C554.33,305.17 543.17,301.17 539.00,301.00 C534.83,300.83 541.17,301.17 538.00,305.00 C534.83,308.83 524.00,321.33 520.00,324.00 C516.00,326.67 518.67,325.50 514.00,321.00 C509.33,316.50 497.17,301.67 492.00,297.00 C486.83,292.33 487.67,294.17 483.00,293.00 C478.33,291.83 468.00,291.33 464.00,290.00 C460.00,288.67 459.83,285.83 459.00,285.00" fill="none" stroke="black" stroke-width="8.49" stroke-linecap="round" stroke-linejoin="round"/>
  <path d="M310.00,261.00 C312.83,262.00 324.17,264.00 327.00,267.00 C329.83,270.00 325.50,274.00 327.00,279.00 C328.50,284.00 334.17,292.17 336.00,297.00 C337.83,301.83 336.17,305.83 338.00,308.00 C339.83,310.17 341.50,305.33 347.00,310.00 C352.50,314.67 366.17,329.83 371.00,336.00 C375.83,342.17 375.50,344.83 376.00,347.00 C376.50,349.17 373.83,346.67 374.00,349.00 C374.17,351.33 374.83,357.00 377.00,361.00 C379.17,365.00 383.00,370.83 387.00,373.00 C391.00,375.17 395.83,371.83 401.00,374.00 C406.17,376.17 411.67,382.50 418.00,386.00 C424.33,389.50 433.50,393.67 439.00,395.00 C444.50,396.33 447.67,396.00 451.00,394.00 C454.33,392.00 457.67,384.83 459.00,383.00" fill="none" stroke="black" stroke-width="8.49" stroke-linecap="round" stroke-linejoin="round"/>
  <path d="M101.00,304.00 C100.17,303.17 98.83,300.17 96.00,299.00 C93.17,297.83 86.83,298.00 84.00,297.00 C81.17,296.00 79.17,297.50 79.00,293.00 C78.83,288.50 83.00,274.50 83.00,270.00 C83.00,265.50 81.50,266.67 79.00,266.00 C76.50,265.33 70.83,264.50 68.00,266.00 C65.17,267.50 66.00,272.17 62.00,275.00 C58.00,277.83 49.50,279.50 44.00,283.00 C38.50,286.50 32.17,292.67 29.00,296.00 C25.83,299.33 25.67,300.67 25.00,303.00 C24.33,305.33 24.33,308.17 25.00,310.00 C25.67,311.83 26.17,312.67 29.00,314.00 C31.83,315.33 37.33,317.33 42.00,318.00 C46.67,318.67 52.17,318.50 57.00,318.00 C61.83,317.50 66.67,315.33 71.00,315.00 C75.33,314.67 79.00,316.67 83.00,316.00 C87.00,315.33 92.00,313.00 95.00,311.00 C98.00,309.00 98.83,304.33 101.00,304.00 C103.17,303.67 107.00,306.17 108.00,309.00 C109.00,311.83 106.33,317.67 107.00,321.00 C107.67,324.33 105.00,327.17 112.00,329.00 C119.00,330.83 142.83,331.50 149.00,332.00" fill="none" stroke="black" stroke-width="8.25" stroke-linecap="round" stroke-linejoin="round"/>
  <path d="M164.00,268.00 C163.33,270.50 160.50,279.83 160.00,283.00 C159.50,286.17 164.33,285.83 161.00,287.00 C157.67,288.17 149.50,287.00 140.00,290.00 C130.50,293.00 110.00,302.50 104.00,305.00" fill="none" stroke="black" stroke-width="8.94" stroke-linecap="round" stroke-linejoin="round"/>
  <path d="M483.00,271.00 C480.00,272.17 468.83,275.67 465.00,278.00 C461.17,280.33 463.33,283.67 460.00,285.00 C456.67,286.33 451.83,286.50 445.00,286.00 C438.17,285.50 424.50,282.17 419.00,282.00 C413.50,281.83 413.17,284.50 412.00,285.00" fill="none" stroke="black" stroke-width="8.25" stroke-linecap="round" stroke-linejoin="round"/>
  <path d="M404.00,285.00 C405.33,285.00 410.00,283.67 412.00,285.00 C414.00,286.33 409.83,288.67 416.00,293.00 C422.17,297.33 439.67,304.33 449.00,311.00 C458.33,317.67 467.33,328.00 472.00,333.00 C476.67,338.00 473.83,339.33 477.00,341.00 C480.17,342.67 485.50,343.00 491.00,343.00 C496.50,343.00 506.00,342.17 510.00,341.00 C514.00,339.83 513.50,338.33 515.00,336.00 C516.50,333.67 512.83,326.67 519.00,327.00 C525.17,327.33 545.17,336.67 552.00,338.00 C558.83,339.33 553.67,336.00 560.00,335.00 C566.33,334.00 582.33,333.33 590.00,332.00 C597.67,330.67 603.00,329.17 606.00,327.00 C609.00,324.83 610.50,322.50 608.00,319.00 C605.50,315.50 593.83,308.17 591.00,306.00" fill="none" stroke="black" stroke-width="8.25" stroke-linecap="round" stroke-linejoin="round"/>
  <path d="M525.00,286.00 C525.33,286.00 526.33,284.83 527.00,286.00 C527.67,287.17 527.00,290.50 529.00,293.00 C531.00,295.50 537.33,299.67 539.00,301.00" fill="none" stroke="black" stroke-width="10.10" stroke-linecap="round" stroke-linejoin="round"/>
  <path d="M161.00,287.00 C164.33,287.50 176.83,289.00 181.00,290.00 C185.17,291.00 179.50,293.33 186.00,293.00 C192.50,292.67 212.83,288.67 220.00,288.00 C227.17,287.33 227.50,288.83 229.00,289.00" fill="none" stroke="black" stroke-width="8.00" stroke-linecap="round" stroke-linejoin="round"/>
  <path d="M377.00,292.00 C378.17,293.67 377.83,296.33 384.00,302.00 C390.17,307.67 408.67,320.83 414.00,326.00 C419.33,331.17 414.17,331.67 416.00,333.00 C417.83,334.33 421.00,331.50 425.00,334.00 C429.00,336.50 434.33,341.17 440.00,348.00 C445.67,354.83 453.17,372.67 459.00,375.00 C464.83,377.33 472.17,367.17 475.00,362.00 C477.83,356.83 475.50,347.50 476.00,344.00 C476.50,340.50 477.67,341.50 478.00,341.00" fill="none" stroke="black" stroke-width="8.49" stroke-linecap="round" stroke-linejoin="round"/>
  <path d="M250.00,309.00 L244.00,329.00" fill="none" stroke="black" stroke-width="8.25" stroke-linecap="round" stroke-linejoin="round"/>
  <path d="M338.00,308.00 C338.17,311.33 338.50,324.67 339.00,328.00 C339.50,331.33 341.00,327.83 341.00,328.00 C341.00,328.17 338.33,328.83 339.00,329.00 C339.67,329.17 341.50,325.67 345.00,329.00 C348.50,332.33 355.00,345.83 360.00,349.00 C365.00,352.17 372.50,347.83 375.00,348.00 C377.50,348.17 374.50,350.33 375.00,350.00 C375.50,349.67 373.67,346.17 378.00,346.00 C382.33,345.83 396.17,348.83 401.00,349.00 C405.83,349.17 405.17,348.17 407.00,347.00 C408.83,345.83 410.50,344.33 412.00,342.00 C413.50,339.67 415.33,334.50 416.00,333.00" fill="none" stroke="black" stroke-width="10.00" stroke-linecap="round" stroke-linejoin="round"/>
  <path d="M82.00,317.00 C81.50,318.33 81.33,321.50 79.00,325.00 C76.67,328.50 71.00,332.50 68.00,338.00 C65.00,343.50 62.33,351.00 61.00,358.00 C59.67,365.00 58.83,374.83 60.00,380.00 C61.17,385.17 65.83,387.17 68.00,389.00 C70.17,390.83 67.50,390.83 73.00,391.00 C78.50,391.17 91.33,392.83 101.00,390.00 C110.67,387.17 124.67,376.83 131.00,374.00 C137.33,371.17 137.67,373.17 139.00,373.00" fill="none" stroke="black" stroke-width="8.25" stroke-linecap="round" stroke-linejoin="round"/>
  <path d="M520.00,324.00 C519.83,324.50 518.83,326.50 519.00,327.00 C519.17,327.50 520.67,327.00 521.00,327.00" fill="none" stroke="black" stroke-width="12.17" stroke-linecap="round" stroke-linejoin="round"/>
  <path d="M172.00,327.00 C170.17,327.00 164.83,326.17 161.00,327.00 C157.17,327.83 152.83,326.17 149.00,332.00 C145.17,337.83 140.00,355.17 138.00,362.00 C136.00,368.83 135.33,369.67 137.00,373.00 C138.67,376.33 142.17,379.00 148.00,382.00 C153.83,385.00 168.33,388.00 172.00,391.00 C175.67,394.00 171.50,397.33 170.00,400.00 C168.50,402.67 166.50,404.17 163.00,407.00 C159.50,409.83 153.83,414.33 149.00,417.00 C144.17,419.67 141.17,421.67 134.00,423.00 C126.83,424.33 112.00,425.83 106.00,425.00 C100.00,424.17 99.50,419.83 98.00,418.00 C96.50,416.17 96.50,418.50 97.00,414.00 C97.50,409.50 100.33,394.83 101.00,391.00" fill="none" stroke="black" stroke-width="8.25" stroke-linecap="round" stroke-linejoin="round"/>
  <path d="M339.00,329.00 C338.00,331.33 335.50,339.67 333.00,343.00 C330.50,346.33 328.67,348.00 324.00,349.00 C319.33,350.00 309.33,349.83 305.00,349.00 C300.67,348.17 300.33,344.83 298.00,344.00 C295.67,343.17 292.17,344.00 291.00,344.00" fill="none" stroke="black" stroke-width="8.25" stroke-linecap="round" stroke-linejoin="round"/>
  <path d="M553.00,337.00 C553.00,337.83 552.17,340.00 553.00,342.00 C553.83,344.00 553.67,345.83 558.00,349.00 C562.33,352.17 574.00,357.67 579.00,361.00 C584.00,364.33 586.50,366.17 588.00,369.00 C589.50,371.83 589.50,374.83 588.00,378.00 C586.50,381.17 582.33,385.67 579.00,388.00 C575.67,390.33 574.50,391.50 568.00,392.00 C561.50,392.50 549.33,392.83 540.00,391.00 C530.67,389.17 518.67,382.83 512.00,381.00 C505.33,379.17 506.00,383.17 500.00,380.00 C494.00,376.83 480.00,365.00 476.00,362.00" fill="none" stroke="black" stroke-width="8.25" stroke-linecap="round" stroke-linejoin="round"/>
  <path d="M209.00,344.00 C206.33,351.83 199.00,383.17 193.00,391.00 C187.00,398.83 176.33,391.00 173.00,391.00" fill="none" stroke="black" stroke-width="8.25" stroke-linecap="round" stroke-linejoin="round"/>
  <path d="M306.00,349.00 C305.67,349.50 304.17,349.67 304.00,352.00 C303.83,354.33 302.17,357.33 305.00,363.00 C307.83,368.67 318.00,380.50 321.00,386.00 C324.00,391.50 321.50,394.00 323.00,396.00 C324.50,398.00 327.50,396.17 330.00,398.00 C332.50,399.83 333.67,405.83 338.00,407.00 C342.33,408.17 352.33,406.50 356.00,405.00 C359.67,403.50 359.33,403.17 360.00,398.00 C360.67,392.83 360.50,380.67 360.00,374.00 C359.50,367.33 357.00,362.17 357.00,358.00 C357.00,353.83 359.50,350.50 360.00,349.00" fill="none" stroke="black" stroke-width="8.25" stroke-linecap="round" stroke-linejoin="round"/>
  <path d="M260.00,365.00 C258.67,369.33 253.00,386.67 252.00,391.00 C251.00,395.33 253.67,391.00 254.00,391.00" fill="none" stroke="black" stroke-width="8.25" stroke-linecap="round" stroke-linejoin="round"/>
  <path d="M387.00,373.00 C387.50,375.50 388.17,382.17 390.00,388.00 C391.83,393.83 397.83,403.67 398.00,408.00 C398.17,412.33 392.67,409.33 391.00,414.00 C389.33,418.67 389.50,430.83 388.00,436.00 C386.50,441.17 384.33,443.17 382.00,445.00 C379.67,446.83 376.83,447.67 374.00,447.00 C371.17,446.33 367.83,442.17 365.00,441.00 C362.17,439.83 358.00,440.17 357.00,440.00 C356.00,439.83 359.00,440.67 359.00,440.00 C359.00,439.33 359.83,439.50 357.00,436.00 C354.17,432.50 344.83,423.83 342.00,419.00 C339.17,414.17 340.67,409.00 340.00,407.00 C339.33,405.00 338.33,407.00 338.00,407.00" fill="none" stroke="black" stroke-width="8.94" stroke-linecap="round" stroke-linejoin="round"/>
  <path d="M460.00,375.00 C459.67,376.33 457.00,381.17 458.00,383.00 C459.00,384.83 463.00,382.33 466.00,386.00 C469.00,389.67 474.00,400.33 476.00,405.00 C478.00,409.67 473.00,409.50 478.00,414.00 C483.00,418.50 499.83,429.00 506.00,432.00 C512.17,435.00 512.83,432.67 515.00,432.00 C517.17,431.33 518.33,430.00 519.00,428.00 C519.67,426.00 521.67,426.17 519.00,420.00 C516.33,413.83 506.17,397.67 503.00,391.00 C499.83,384.33 500.17,381.83 500.00,380.00 C499.83,378.17 501.67,380.00 502.00,380.00" fill="none" stroke="black" stroke-width="8.49" stroke-linecap="round" stroke-linejoin="round"/>
  <path d="M193.00,391.00 C193.00,394.33 192.83,407.33 193.00,411.00 C193.17,414.67 192.00,412.33 194.00,413.00 C196.00,413.67 200.83,415.00 205.00,415.00 C209.17,415.00 213.83,415.00 219.00,413.00 C224.17,411.00 231.33,406.33 236.00,403.00 C240.67,399.67 244.00,395.00 247.00,393.00 C250.00,391.00 250.17,384.33 254.00,391.00 C257.83,397.67 267.17,424.33 270.00,433.00 C272.83,441.67 270.83,441.33 271.00,443.00" fill="none" stroke="black" stroke-width="8.25" stroke-linecap="round" stroke-linejoin="round"/>
  <path d="M323.00,395.00 C322.33,396.00 320.83,396.00 319.00,401.00 C317.17,406.00 313.33,418.83 312.00,425.00 C310.67,431.17 314.17,433.67 311.00,438.00 C307.83,442.33 298.33,448.67 293.00,451.00 C287.67,453.33 282.00,450.67 279.00,452.00 C276.00,453.33 278.83,443.83 275.00,459.00 C271.17,474.17 259.83,525.00 256.00,543.00 C252.17,561.00 252.50,560.83 252.00,567.00 C251.50,573.17 251.33,578.50 253.00,580.00 C254.67,581.50 257.67,579.67 262.00,576.00 C266.33,572.33 274.67,562.00 279.00,558.00 C283.33,554.00 283.67,554.00 288.00,552.00 C292.33,550.00 301.00,546.83 305.00,546.00 C309.00,545.17 310.83,546.83 312.00,547.00" fill="none" stroke="black" stroke-width="10.00" stroke-linecap="round" stroke-linejoin="round"/>
  <path d="M398.00,408.00 C399.50,409.00 404.67,411.50 407.00,414.00 C409.33,416.50 409.50,421.00 412.00,423.00 C414.50,425.00 416.83,422.50 422.00,426.00 C427.17,429.50 436.67,439.17 443.00,444.00 C449.33,448.83 456.00,453.17 460.00,455.00 C464.00,456.83 465.17,455.50 467.00,455.00 C468.83,454.50 469.67,454.83 471.00,452.00 C472.33,449.17 474.00,443.67 475.00,438.00 C476.00,432.33 476.17,421.67 477.00,418.00 C477.83,414.33 479.50,416.33 480.00,416.00" fill="none" stroke="black" stroke-width="8.49" stroke-linecap="round" stroke-linejoin="round"/>
  <path d="M195.00,413.00 C194.67,413.50 193.33,413.00 193.00,416.00 C192.67,419.00 192.33,424.00 193.00,431.00 C193.67,438.00 195.33,451.00 197.00,458.00 C198.67,465.00 200.00,469.00 203.00,473.00 C206.00,477.00 211.67,480.50 215.00,482.00 C218.33,483.50 219.83,482.83 223.00,482.00 C226.17,481.17 226.50,483.33 234.00,477.00 C241.50,470.67 261.83,449.67 268.00,444.00 C274.17,438.33 269.67,442.67 271.00,443.00 C272.33,443.33 274.67,444.67 276.00,446.00 C277.33,447.33 278.67,449.67 279.00,451.00 C279.33,452.33 278.17,453.50 278.00,454.00" fill="none" stroke="black" stroke-width="8.25" stroke-linecap="round" stroke-linejoin="round"/>
  <path d="M412.00,424.00 C412.33,426.00 412.17,430.17 414.00,436.00 C415.83,441.83 421.50,451.33 423.00,459.00 C424.50,466.67 423.50,477.50 423.00,482.00 C422.50,486.50 421.50,485.17 420.00,486.00 C418.50,486.83 417.67,488.33 414.00,487.00 C410.33,485.67 402.33,479.83 398.00,478.00 C393.67,476.17 389.33,471.00 388.00,476.00 C386.67,481.00 390.67,501.50 390.00,508.00 C389.33,514.50 386.33,514.17 384.00,515.00 C381.67,515.83 380.17,516.33 376.00,513.00 C371.83,509.67 367.00,504.00 359.00,495.00 C351.00,486.00 333.83,467.00 328.00,459.00 C322.17,451.00 324.67,449.00 324.00,447.00" fill="none" stroke="black" stroke-width="8.49" stroke-linecap="round" stroke-linejoin="round"/>
  <path d="M311.00,438.00 C313.17,439.67 319.50,446.00 324.00,448.00 C328.50,450.00 334.00,449.67 338.00,450.00 C342.00,450.33 344.83,451.50 348.00,450.00 C351.17,448.50 355.50,442.50 357.00,441.00" fill="none" stroke="black" stroke-width="8.71" stroke-linecap="round" stroke-linejoin="round"/>
  <path d="M374.00,447.00 C374.33,447.00 375.50,445.33 376.00,447.00 C376.50,448.67 376.00,453.50 377.00,457.00 C378.00,460.50 380.17,464.83 382.00,468.00 C383.83,471.17 387.00,474.67 388.00,476.00" fill="none" stroke="black" stroke-width="10.00" stroke-linecap="round" stroke-linejoin="round"/>
  <path d="M253.00,580.00 C252.50,581.00 250.67,582.67 250.00,586.00 C249.33,589.33 249.17,597.67 249.00,600.00" fill="none" stroke="black" stroke-width="14.56" stroke-linecap="round" stroke-linejoin="round"/>
  <path d="M239.00,627.00 C238.67,629.33 239.17,639.00 237.00,641.00 C234.83,643.00 230.33,641.00 226.00,639.00 C221.67,637.00 215.67,631.17 211.00,629.00 C206.33,626.83 204.83,626.00 198.00,626.00 C191.17,626.00 174.67,628.50 170.00,629.00" fill="none" stroke="black" stroke-width="8.49" stroke-linecap="round" stroke-linejoin="round"/>
  <path d="M397.00,721.00 C397.17,722.33 398.33,726.33 398.00,729.00 C397.67,731.67 397.50,731.67 395.00,737.00 C392.50,742.33 386.83,754.67 383.00,761.00 C379.17,767.33 374.83,769.50 372.00,775.00 C369.17,780.50 366.00,790.00 366.00,794.00 C366.00,798.00 360.67,798.17 372.00,799.00 C383.33,799.83 422.83,800.50 434.00,799.00 C445.17,797.50 438.17,791.50 439.00,790.00" fill="none" stroke="black" stroke-width="8.25" stroke-linecap="round" stroke-linejoin="round"/>
  <path d="M436.00,738.00 C435.83,739.33 434.83,744.67 435.00,746.00 C435.17,747.33 436.67,746.00 437.00,746.00" fill="none" stroke="black" stroke-width="14.56" stroke-linecap="round" stroke-linejoin="round"/>
  <path d="M298.00,742.00 C294.17,743.33 279.50,747.83 275.00,750.00 C270.50,752.17 272.50,751.33 271.00,755.00 C269.50,758.67 268.00,769.00 266.00,772.00 C264.00,775.00 260.83,772.00 259.00,773.00 C257.17,774.00 255.83,774.83 255.00,778.00 C254.17,781.17 253.33,786.83 254.00,792.00 C254.67,797.17 259.33,805.50 259.00,809.00 C258.67,812.50 253.50,811.00 252.00,813.00 C250.50,815.00 249.33,814.50 250.00,821.00 C250.67,827.50 254.17,845.83 256.00,852.00 C257.83,858.17 261.00,855.50 261.00,858.00 C261.00,860.50 257.00,864.17 256.00,867.00 C255.00,869.83 255.17,873.67 255.00,875.00" fill="none" stroke="black" stroke-width="8.25" stroke-linecap="round" stroke-linejoin="round"/>
  <path d="M294.00,744.00 C294.17,746.50 295.67,751.00 295.00,759.00 C294.33,767.00 291.50,785.17 290.00,792.00 C288.50,798.83 287.50,798.50 286.00,800.00 C284.50,801.50 282.33,801.33 281.00,801.00 C279.67,800.67 279.17,800.83 278.00,798.00 C276.83,795.17 276.17,788.33 274.00,784.00 C271.83,779.67 266.50,774.00 265.00,772.00" fill="none" stroke="black" stroke-width="8.25" stroke-linecap="round" stroke-linejoin="round"/>
  <path d="M366.00,794.00 C362.67,794.83 359.33,792.67 346.00,799.00 C332.67,805.33 296.83,826.67 286.00,832.00 C275.17,837.33 281.33,836.17 281.00,831.00 C280.67,825.83 283.83,806.00 284.00,801.00 C284.17,796.00 282.33,801.00 282.00,801.00" fill="none" stroke="black" stroke-width="8.49" stroke-linecap="round" stroke-linejoin="round"/>
  <path d="M435.00,798.00 C434.17,799.83 435.33,804.83 430.00,809.00 C424.67,813.17 407.67,819.00 403.00,823.00 C398.33,827.00 408.17,833.17 402.00,833.00 C395.83,832.83 373.67,823.67 366.00,822.00 C358.33,820.33 359.00,821.83 356.00,823.00 C353.00,824.17 349.50,826.33 348.00,829.00 C346.50,831.67 346.00,836.17 347.00,839.00 C348.00,841.83 348.50,844.00 354.00,846.00 C359.50,848.00 374.17,849.00 380.00,851.00 C385.83,853.00 387.00,855.83 389.00,858.00 C391.00,860.17 391.50,861.83 392.00,864.00 C392.50,866.17 392.50,869.33 392.00,871.00 C391.50,872.67 389.50,873.50 389.00,874.00" fill="none" stroke="black" stroke-width="8.25" stroke-linecap="round" stroke-linejoin="round"/>
  <path d="M283.00,832.00 C281.00,834.67 273.50,843.83 271.00,848.00 C268.50,852.17 267.67,855.33 268.00,857.00 C268.33,858.67 268.17,859.17 273.00,858.00 C277.83,856.83 290.33,851.50 297.00,850.00 C303.67,848.50 308.00,848.50 313.00,849.00 C318.00,849.50 320.83,849.00 327.00,853.00 C333.17,857.00 346.00,870.00 350.00,873.00 C354.00,876.00 348.50,871.50 351.00,871.00 C353.50,870.50 358.67,869.50 365.00,870.00 C371.33,870.50 384.67,870.50 389.00,874.00 C393.33,877.50 391.00,887.67 391.00,891.00 C391.00,894.33 389.00,893.50 389.00,894.00 C389.00,894.50 391.83,894.00 391.00,894.00 C390.17,894.00 385.67,893.50 384.00,894.00 C382.33,894.50 381.50,893.17 381.00,897.00 C380.50,900.83 381.33,913.33 381.00,917.00 C380.67,920.67 380.50,919.00 379.00,919.00 C377.50,919.00 373.67,918.00 372.00,917.00 C370.33,916.00 372.50,919.00 369.00,913.00 C365.50,907.00 354.17,887.67 351.00,881.00 C347.83,874.33 350.17,874.33 350.00,873.00" fill="none" stroke="black" stroke-width="8.25" stroke-linecap="round" stroke-linejoin="round"/>
  <path d="M269.00,856.00 L260.00,859.00" fill="none" stroke="black" stroke-width="14.28" stroke-linecap="round" stroke-linejoin="round"/>
  <path d="M220.00,916.00 C221.83,914.67 228.00,911.50 231.00,908.00 C234.00,904.50 234.00,900.50 238.00,895.00 C242.00,889.50 250.17,877.83 255.00,875.00 C259.83,872.17 263.00,876.33 267.00,878.00 C271.00,879.67 275.50,883.83 279.00,885.00 C282.50,886.17 284.83,886.00 288.00,885.00 C291.17,884.00 293.00,873.00 298.00,879.00 C303.00,885.00 312.50,912.00 318.00,921.00 C323.50,930.00 327.00,930.17 331.00,933.00 C335.00,935.83 337.50,936.83 342.00,938.00 C346.50,939.17 352.00,940.33 358.00,940.00 C364.00,939.67 374.17,937.00 378.00,936.00 C381.83,935.00 381.00,936.83 381.00,934.00 C381.00,931.17 378.50,921.50 378.00,919.00" fill="none" stroke="black" stroke-width="8.49" stroke-linecap="round" stroke-linejoin="round"/>
</svg>
