<?xml version="1.0" encoding="UTF-8"?>
<svg xmlns="http://www.w3.org/2000/svg" viewBox="0 0 621 1699" width="621" height="1699">
  <path d="M469.00,638.00 C466.67,636.33 457.83,631.33 455.00,628.00 C452.17,624.67 454.50,621.83 452.00,618.00 C449.50,614.17 443.67,608.17 440.00,605.00 C436.33,601.83 433.17,600.33 430.00,599.00 C426.83,597.67 424.33,596.83 421.00,597.00 C417.67,597.17 413.83,597.33 410.00,600.00 C406.17,602.67 400.50,609.50 398.00,613.00 C395.50,616.50 396.83,618.50 395.00,621.00 C393.17,623.50 389.17,628.00 387.00,628.00 C384.83,628.00 383.00,624.17 382.00,621.00 C381.00,617.83 382.17,612.67 381.00,609.00 C379.83,605.33 376.00,600.67 375.00,599.00" fill="none" stroke="black" stroke-width="8.49" stroke-linecap="round" stroke-linejoin="round"/>
  <path d="M187.00,728.00 C187.00,729.33 186.33,734.33 187.00,736.00 C187.67,737.67 190.67,736.50 191.00,738.00 C191.33,739.50 183.67,739.50 189.00,745.00 C194.33,750.50 213.83,764.67 223.00,771.00 C232.17,777.33 238.67,780.67 244.00,783.00 C249.33,785.33 253.50,786.50 255.00,785.00 C256.50,783.50 255.00,778.00 253.00,774.00 C251.00,770.00 246.83,767.33 243.00,761.00 C239.17,754.67 232.33,742.67 230.00,736.00 C227.67,729.33 229.17,723.50 229.00,721.00" fill="none" stroke="black" stroke-width="8.49" stroke-linecap="round" stroke-linejoin="round"/>
  <path d="M325.00,728.00 C325.33,730.33 326.00,739.33 327.00,742.00 C328.00,744.67 331.00,744.00 331.00,744.00 C331.00,744.00 329.17,741.50 327.00,742.00 C324.83,742.50 320.00,742.00 318.00,747.00 C316.00,752.00 314.67,766.50 315.00,772.00 C315.33,777.50 319.17,777.17 320.00,780.00 C320.83,782.83 320.67,786.50 320.00,789.00 C319.33,791.50 318.33,794.17 316.00,795.00 C313.67,795.83 309.00,795.50 306.00,794.00 C303.00,792.50 301.67,793.17 298.00,786.00 C294.33,778.83 287.83,758.50 284.00,751.00 C280.17,743.50 277.67,742.83 275.00,741.00 C272.33,739.17 270.17,739.17 268.00,740.00 C265.83,740.83 267.17,749.00 262.00,746.00 C256.83,743.00 242.67,726.00 237.00,722.00 C231.33,718.00 230.50,722.67 228.00,722.00 C225.50,721.33 223.83,718.50 222.00,718.00 C220.17,717.50 219.50,717.17 217.00,719.00 C214.50,720.83 209.00,726.50 207.00,729.00 C205.00,731.50 207.00,733.00 205.00,734.00 C203.00,735.00 197.33,734.33 195.00,735.00 C192.67,735.67 191.67,737.50 191.00,738.00" fill="none" stroke="black" stroke-width="8.49" stroke-linecap="round" stroke-linejoin="round"/>
  <path d="M172.00,776.00 C173.83,778.00 180.17,785.50 183.00,788.00 C185.83,790.50 186.50,791.83 189.00,791.00 C191.50,790.17 196.50,785.17 198.00,783.00 C199.50,780.83 199.33,780.67 198.00,778.00 C196.67,775.33 191.83,770.33 190.00,767.00 C188.17,763.67 187.67,760.83 187.00,758.00 C186.33,755.17 185.50,752.33 186.00,750.00 C186.50,747.67 189.33,745.00 190.00,744.00" fill="none" stroke="black" stroke-width="8.94" stroke-linecap="round" stroke-linejoin="round"/>
  <path d="M317.00,1673.00 C316.83,1671.83 314.83,1670.17 316.00,1666.00 C317.17,1661.83 319.17,1665.67 324.00,1648.00 C328.83,1630.33 341.17,1577.33 345.00,1560.00 C348.83,1542.67 345.00,1551.83 347.00,1544.00 C349.00,1536.17 355.17,1520.50 357.00,1513.00 C358.83,1505.50 354.50,1517.83 358.00,1499.00 C361.50,1480.17 372.50,1429.33 378.00,1400.00 C383.50,1370.67 385.83,1364.17 391.00,1323.00 C396.17,1281.83 405.33,1199.00 409.00,1153.00 C412.67,1107.00 412.67,1082.17 413.00,1047.00 C413.33,1011.83 412.33,964.00 411.00,942.00 C409.67,920.00 405.33,920.17 405.00,915.00 C404.67,909.83 408.33,914.83 409.00,911.00 C409.67,907.17 410.33,909.33 409.00,892.00 C407.67,874.67 402.83,831.00 401.00,807.00 C399.17,783.00 399.67,769.67 398.00,748.00 C396.33,726.33 392.83,692.17 391.00,677.00 C389.17,661.83 387.50,665.33 387.00,657.00 C386.50,648.67 387.83,632.00 388.00,627.00" fill="none" stroke="black" stroke-width="12.00" stroke-linecap="round" stroke-linejoin="round"/>
  <path d="M311.00,62.00 C309.83,65.17 305.83,77.33 304.00,81.00 C302.17,84.67 301.33,83.67 300.00,84.00 C298.67,84.33 299.50,86.00 296.00,83.00 C292.50,80.00 284.50,70.50 279.00,66.00 C273.50,61.50 264.50,61.17 263.00,56.00 C261.50,50.83 267.67,39.67 270.00,35.00 C272.33,30.33 274.83,29.17 277.00,28.00 C279.17,26.83 277.33,22.33 283.00,28.00 C288.67,33.67 304.67,57.67 311.00,62.00 C317.33,66.33 318.33,55.33 321.00,54.00 C323.67,52.67 324.00,51.67 327.00,54.00 C330.00,56.33 337.00,61.83 339.00,68.00 C341.00,74.17 338.00,86.00 339.00,91.00 C340.00,96.00 344.00,96.83 345.00,98.00" fill="none" stroke="black" stroke-width="8.49" stroke-linecap="round" stroke-linejoin="round"/>
  <path d="M263.00,56.00 C261.50,55.83 256.67,54.00 254.00,55.00 C251.33,56.00 248.83,57.33 247.00,62.00 C245.17,66.67 243.50,77.50 243.00,83.00 C242.50,88.50 241.67,92.67 244.00,95.00 C246.33,97.33 251.67,93.50 257.00,97.00 C262.33,100.50 271.67,112.67 276.00,116.00 C280.33,119.33 281.83,116.50 283.00,117.00 C284.17,117.50 282.50,121.50 283.00,119.00 C283.50,116.50 284.50,105.83 286.00,102.00 C287.50,98.17 290.17,97.17 292.00,96.00 C293.83,94.83 296.17,95.17 297.00,95.00" fill="none" stroke="black" stroke-width="8.49" stroke-linecap="round" stroke-linejoin="round"/>
  <path d="M393.00,61.00 C394.33,60.50 397.00,61.00 401.00,58.00 C405.00,55.00 413.17,46.00 417.00,43.00 C420.83,40.00 421.50,39.67 424.00,40.00 C426.50,40.33 429.83,42.00 432.00,45.00 C434.17,48.00 434.33,56.67 437.00,58.00 C439.67,59.33 444.33,53.83 448.00,53.00 C451.67,52.17 455.83,51.00 459.00,53.00 C462.17,55.00 464.83,58.00 467.00,65.00 C469.17,72.00 471.17,90.00 472.00,95.00" fill="none" stroke="black" stroke-width="8.25" stroke-linecap="round" stroke-linejoin="round"/>
  <path d="M437.00,58.00 C436.50,59.67 435.17,65.83 434.00,68.00 C432.83,70.17 430.50,68.67 430.00,71.00 C429.50,73.33 431.83,74.50 431.00,82.00 C430.17,89.50 425.83,108.67 425.00,116.00 C424.17,123.33 425.83,124.33 426.00,126.00" fill="none" stroke="black" stroke-width="8.00" stroke-linecap="round" stroke-linejoin="round"/>
  <path d="M383.00,77.00 C383.83,76.50 386.33,76.67 388.00,74.00 C389.67,71.33 392.67,66.50 393.00,61.00 C393.33,55.50 391.83,46.00 390.00,41.00 C388.17,36.00 385.67,32.33 382.00,31.00 C378.33,29.67 374.17,27.50 368.00,33.00 C361.83,38.50 349.83,58.00 345.00,64.00 C340.17,70.00 340.00,68.17 339.00,69.00" fill="none" stroke="black" stroke-width="8.49" stroke-linecap="round" stroke-linejoin="round"/>
  <path d="M431.00,72.00 C430.67,71.67 431.17,70.00 429.00,70.00 C426.83,70.00 423.50,67.17 418.00,72.00 C412.50,76.83 401.33,93.50 396.00,99.00 C390.67,104.50 388.33,106.17 386.00,105.00 C383.67,103.83 382.50,96.67 382.00,92.00 C381.50,87.33 385.00,80.50 383.00,77.00 C381.00,73.50 373.83,70.83 370.00,71.00 C366.17,71.17 363.00,74.50 360.00,78.00 C357.00,81.50 354.50,88.83 352.00,92.00 C349.50,95.17 346.67,92.17 345.00,97.00 C343.33,101.83 343.33,116.33 342.00,121.00 C340.67,125.67 337.33,123.00 337.00,125.00 C336.67,127.00 339.17,127.50 340.00,133.00 C340.83,138.50 340.67,152.67 342.00,158.00 C343.33,163.33 347.00,163.83 348.00,165.00" fill="none" stroke="black" stroke-width="8.49" stroke-linecap="round" stroke-linejoin="round"/>
  <path d="M193.00,82.00 C189.33,79.33 176.00,69.17 171.00,66.00 C166.00,62.83 165.00,63.33 163.00,63.00 C161.00,62.67 160.83,62.33 159.00,64.00 C157.17,65.67 152.67,65.83 152.00,73.00 C151.33,80.17 150.50,98.83 155.00,107.00 C159.50,115.17 173.17,119.00 179.00,122.00 C184.83,125.00 187.83,125.17 190.00,125.00 C192.17,124.83 191.33,128.17 192.00,121.00 C192.67,113.83 192.50,89.83 194.00,82.00 C195.50,74.17 198.83,75.33 201.00,74.00 C203.17,72.67 201.50,69.67 207.00,74.00 C212.50,78.33 228.50,95.50 234.00,100.00 C239.50,104.50 239.00,100.83 240.00,101.00" fill="none" stroke="black" stroke-width="8.25" stroke-linecap="round" stroke-linejoin="round"/>
  <path d="M298.00,84.00 C298.33,84.00 300.00,82.17 300.00,84.00 C300.00,85.83 296.33,90.83 298.00,95.00 C299.67,99.17 308.00,106.67 310.00,109.00" fill="none" stroke="black" stroke-width="10.00" stroke-linecap="round" stroke-linejoin="round"/>
  <path d="M244.00,95.00 C243.17,96.00 238.83,96.83 239.00,101.00 C239.17,105.17 247.17,117.00 245.00,120.00 C242.83,123.00 230.17,118.17 226.00,119.00 C221.83,119.83 220.67,119.67 220.00,125.00 C219.33,130.33 221.67,146.67 222.00,151.00" fill="none" stroke="black" stroke-width="8.37" stroke-linecap="round" stroke-linejoin="round"/>
  <path d="M472.00,99.00 C473.33,101.17 478.50,108.50 480.00,112.00 C481.50,115.50 484.83,112.33 481.00,120.00 C477.17,127.67 461.50,150.00 457.00,158.00 C452.50,166.00 453.67,166.33 454.00,168.00 C454.33,169.67 454.33,169.67 459.00,168.00 C463.67,166.33 474.17,160.50 482.00,158.00 C489.83,155.50 501.17,154.33 506.00,153.00 C510.83,151.67 509.83,151.67 511.00,150.00 C512.17,148.33 512.00,144.50 513.00,143.00 C514.00,141.50 516.33,143.17 517.00,141.00 C517.67,138.83 515.83,134.83 517.00,130.00 C518.17,125.17 522.83,117.17 524.00,112.00 C525.17,106.83 525.33,103.00 524.00,99.00 C522.67,95.00 518.67,90.17 516.00,88.00 C513.33,85.83 511.33,86.00 508.00,86.00 C504.67,86.00 502.00,86.33 496.00,88.00 C490.00,89.67 476.17,94.00 472.00,96.00 C467.83,98.00 474.00,98.17 471.00,100.00 C468.00,101.83 460.17,103.17 454.00,107.00 C447.83,110.83 438.50,120.00 434.00,123.00 C429.50,126.00 433.00,117.67 427.00,125.00 C421.00,132.33 404.50,159.00 398.00,167.00 C391.50,175.00 390.00,172.50 388.00,173.00 C386.00,173.50 386.33,176.50 386.00,170.00 C385.67,163.50 386.83,143.50 386.00,134.00 C385.17,124.50 381.83,116.50 381.00,113.00" fill="none" stroke="black" stroke-width="8.25" stroke-linecap="round" stroke-linejoin="round"/>
  <path d="M387.00,104.00 C386.17,105.50 385.33,112.00 382.00,113.00 C378.67,114.00 370.33,109.67 367.00,110.00 C363.67,110.33 364.17,106.83 362.00,115.00 C359.83,123.17 356.33,150.83 354.00,159.00 C351.67,167.17 349.00,161.83 348.00,164.00 C347.00,166.17 348.67,169.33 348.00,172.00 C347.33,174.67 345.83,179.17 344.00,180.00 C342.17,180.83 341.33,180.50 337.00,177.00 C332.67,173.50 321.17,162.00 318.00,159.00" fill="none" stroke="black" stroke-width="8.49" stroke-linecap="round" stroke-linejoin="round"/>
  <path d="M155.00,107.00 C151.50,107.00 138.00,106.67 134.00,107.00 C130.00,107.33 133.83,109.83 131.00,109.00 C128.17,108.17 122.83,102.50 117.00,102.00 C111.17,101.50 100.67,104.17 96.00,106.00 C91.33,107.83 90.17,110.50 89.00,113.00 C87.83,115.50 88.00,117.67 89.00,121.00 C90.00,124.33 91.50,128.33 95.00,133.00 C98.50,137.67 107.17,145.33 110.00,149.00 C112.83,152.67 112.17,153.67 112.00,155.00 C111.83,156.33 115.00,156.33 109.00,157.00 C103.00,157.67 82.67,157.67 76.00,159.00 C69.33,160.33 70.17,163.00 69.00,165.00 C67.83,167.00 66.00,165.83 69.00,171.00 C72.00,176.17 83.67,190.83 87.00,196.00 C90.33,201.17 89.17,200.67 89.00,202.00 C88.83,203.33 86.00,201.33 86.00,204.00 C86.00,206.67 84.50,212.33 89.00,218.00 C93.50,223.67 107.50,234.17 113.00,238.00 C118.50,241.83 120.17,241.83 122.00,241.00 C123.83,240.17 122.83,235.33 124.00,233.00 C125.17,230.67 126.17,228.50 129.00,227.00 C131.83,225.50 131.00,223.17 141.00,224.00 C151.00,224.83 176.33,229.00 189.00,232.00 C201.67,235.00 211.67,239.33 217.00,242.00 C222.33,244.67 221.50,246.33 221.00,248.00 C220.50,249.67 215.67,250.50 214.00,252.00 C212.33,253.50 209.83,253.00 211.00,257.00 C212.17,261.00 219.50,271.33 221.00,276.00 C222.50,280.67 216.17,282.83 220.00,285.00 C223.83,287.17 239.33,287.67 244.00,289.00 C248.67,290.33 242.50,294.17 248.00,293.00 C253.50,291.83 271.50,284.50 277.00,282.00 C282.50,279.50 280.00,280.17 281.00,278.00 C282.00,275.83 279.83,270.67 283.00,269.00 C286.17,267.33 297.83,268.33 300.00,268.00 C302.17,267.67 296.33,267.17 296.00,267.00 C295.67,266.83 300.17,276.83 298.00,267.00 C295.83,257.17 285.33,220.00 283.00,208.00 C280.67,196.00 282.83,198.17 284.00,195.00 C285.17,191.83 288.00,190.17 290.00,189.00 C292.00,187.83 295.33,191.83 296.00,188.00 C296.67,184.17 293.83,170.00 294.00,166.00 C294.17,162.00 296.50,164.33 297.00,164.00" fill="none" stroke="black" stroke-width="8.25" stroke-linecap="round" stroke-linejoin="round"/>
  <path d="M132.00,108.00 C132.00,110.00 129.83,114.50 132.00,120.00 C134.17,125.50 142.33,136.00 145.00,141.00 C147.67,146.00 150.67,148.33 148.00,150.00 C145.33,151.67 133.17,149.83 129.00,151.00 C124.83,152.17 124.00,156.00 123.00,157.00" fill="none" stroke="black" stroke-width="8.25" stroke-linecap="round" stroke-linejoin="round"/>
  <path d="M337.00,125.00 C336.00,124.33 333.50,123.83 331.00,121.00 C328.50,118.17 324.50,110.33 322.00,108.00 C319.50,105.67 317.83,106.83 316.00,107.00 C314.17,107.17 311.00,100.67 311.00,109.00 C311.00,117.33 314.83,148.67 316.00,157.00 C317.17,165.33 318.17,158.67 318.00,159.00 C317.83,159.33 316.33,158.00 315.00,159.00 C313.67,160.00 312.33,164.00 310.00,165.00 C307.67,166.00 303.33,165.17 301.00,165.00 C298.67,164.83 299.00,171.67 296.00,164.00 C293.00,156.33 285.17,126.50 283.00,119.00" fill="none" stroke="black" stroke-width="8.25" stroke-linecap="round" stroke-linejoin="round"/>
  <path d="M244.00,120.00 C245.17,121.83 247.00,126.17 251.00,131.00 C255.00,135.83 264.17,144.33 268.00,149.00 C271.83,153.67 273.00,156.17 274.00,159.00 C275.00,161.83 273.67,164.83 274.00,166.00 C274.33,167.17 277.50,165.83 276.00,166.00 C274.50,166.17 267.67,166.33 265.00,167.00 C262.33,167.67 263.00,166.67 260.00,170.00 C257.00,173.33 249.50,179.50 247.00,187.00 C244.50,194.50 246.50,210.50 245.00,215.00 C243.50,219.50 240.33,215.00 238.00,214.00 C235.67,213.00 239.83,218.00 231.00,209.00 C222.17,200.00 194.17,168.00 185.00,160.00 C175.83,152.00 180.33,161.67 176.00,161.00 C171.67,160.33 163.67,157.83 159.00,156.00 C154.33,154.17 149.83,151.00 148.00,150.00" fill="none" stroke="black" stroke-width="8.49" stroke-linecap="round" stroke-linejoin="round"/>
  <path d="M190.00,125.00 C190.50,126.17 192.67,129.33 193.00,132.00 C193.33,134.67 191.83,139.50 192.00,141.00 C192.17,142.50 193.67,141.00 194.00,141.00" fill="none" stroke="black" stroke-width="9.47" stroke-linecap="round" stroke-linejoin="round"/>
  <path d="M185.00,160.00 C184.83,157.17 183.83,146.17 184.00,143.00 C184.17,139.83 184.17,141.33 186.00,141.00 C187.83,140.67 190.67,139.50 195.00,141.00 C199.33,142.50 207.50,148.33 212.00,150.00 C216.50,151.67 217.50,146.00 222.00,151.00 C226.50,156.00 234.67,174.17 239.00,180.00 C243.33,185.83 246.50,185.00 248.00,186.00" fill="none" stroke="black" stroke-width="8.49" stroke-linecap="round" stroke-linejoin="round"/>
  <path d="M517.00,141.00 C518.67,141.00 521.00,142.00 527.00,141.00 C533.00,140.00 547.50,135.50 553.00,135.00 C558.50,134.50 558.67,136.33 560.00,138.00 C561.33,139.67 561.33,142.67 561.00,145.00 C560.67,147.33 560.50,148.50 558.00,152.00 C555.50,155.50 548.50,162.17 546.00,166.00 C543.50,169.83 543.17,173.50 543.00,175.00 C542.83,176.50 544.67,175.00 545.00,175.00" fill="none" stroke="black" stroke-width="8.25" stroke-linecap="round" stroke-linejoin="round"/>
  <path d="M510.00,151.00 C511.00,152.00 515.00,154.67 516.00,157.00 C517.00,159.33 516.83,161.33 516.00,165.00 C515.17,168.67 511.67,176.00 511.00,179.00 C510.33,182.00 515.50,178.83 512.00,183.00 C508.50,187.17 495.50,199.17 490.00,204.00 C484.50,208.83 483.67,211.50 479.00,212.00 C474.33,212.50 467.17,207.83 462.00,207.00 C456.83,206.17 453.17,206.33 448.00,207.00 C442.83,207.67 433.83,210.33 431.00,211.00" fill="none" stroke="black" stroke-width="8.25" stroke-linecap="round" stroke-linejoin="round"/>
  <path d="M112.00,155.00 C113.83,155.33 120.50,154.33 123.00,157.00 C125.50,159.67 123.67,165.33 127.00,171.00 C130.33,176.67 140.17,186.50 143.00,191.00 C145.83,195.50 143.50,196.83 144.00,198.00 C144.50,199.17 145.67,198.00 146.00,198.00" fill="none" stroke="black" stroke-width="8.49" stroke-linecap="round" stroke-linejoin="round"/>
  <path d="M311.00,164.00 C311.17,164.83 309.83,165.50 312.00,169.00 C314.17,172.50 320.67,177.83 324.00,185.00 C327.33,192.17 329.67,206.67 332.00,212.00 C334.33,217.33 336.17,217.33 338.00,217.00 C339.83,216.67 342.00,216.17 343.00,210.00 C344.00,203.83 343.83,185.00 344.00,180.00" fill="none" stroke="black" stroke-width="8.25" stroke-linecap="round" stroke-linejoin="round"/>
  <path d="M295.00,167.00 C293.00,166.83 286.00,165.83 283.00,166.00 C280.00,166.17 278.33,168.00 277.00,168.00 C275.67,168.00 274.83,166.17 275.00,166.00 C275.17,165.83 277.83,165.67 278.00,167.00 C278.17,168.33 277.67,170.83 276.00,174.00 C274.33,177.17 270.00,181.33 268.00,186.00 C266.00,190.67 264.33,195.50 264.00,202.00 C263.67,208.50 263.33,216.17 266.00,225.00 C268.67,233.83 277.17,247.83 280.00,255.00 C282.83,262.17 282.50,265.83 283.00,268.00" fill="none" stroke="black" stroke-width="8.25" stroke-linecap="round" stroke-linejoin="round"/>
  <path d="M456.00,168.00 C453.83,169.83 447.83,173.17 443.00,179.00 C438.17,184.83 436.83,196.50 427.00,203.00 C417.17,209.50 393.00,215.50 384.00,218.00 C375.00,220.50 375.17,218.17 373.00,218.00 C370.83,217.83 371.00,218.67 371.00,217.00 C371.00,215.33 370.67,213.00 373.00,208.00 C375.33,203.00 382.50,192.83 385.00,187.00 C387.50,181.17 387.50,175.33 388.00,173.00" fill="none" stroke="black" stroke-width="8.25" stroke-linecap="round" stroke-linejoin="round"/>
  <path d="M512.00,183.00 C515.00,182.67 525.00,182.33 530.00,181.00 C535.00,179.67 536.67,176.17 542.00,175.00 C547.33,173.83 558.17,173.67 562.00,174.00 C565.83,174.33 564.50,175.17 565.00,177.00 C565.50,178.83 566.83,181.00 565.00,185.00 C563.17,189.00 556.00,197.50 554.00,201.00 C552.00,204.50 546.33,199.17 553.00,206.00 C559.67,212.83 586.50,234.67 594.00,242.00 C601.50,249.33 597.67,247.17 598.00,250.00 C598.33,252.83 598.00,256.67 596.00,259.00 C594.00,261.33 591.33,263.33 586.00,264.00 C580.67,264.67 568.67,262.50 564.00,263.00 C559.33,263.50 560.00,266.33 558.00,267.00 C556.00,267.67 554.00,267.17 552.00,267.00 C550.00,266.83 548.50,267.33 546.00,266.00 C543.50,264.67 543.00,261.00 537.00,259.00 C531.00,257.00 519.50,253.67 510.00,254.00 C500.50,254.33 487.83,258.67 480.00,261.00 C472.17,263.33 465.83,266.83 463.00,268.00" fill="none" stroke="black" stroke-width="8.49" stroke-linecap="round" stroke-linejoin="round"/>
  <path d="M296.00,188.00 C297.83,191.17 304.00,198.67 307.00,207.00 C310.00,215.33 313.00,232.17 314.00,238.00 C315.00,243.83 312.83,241.33 313.00,242.00 C313.17,242.67 314.67,242.00 315.00,242.00" fill="none" stroke="black" stroke-width="13.71" stroke-linecap="round" stroke-linejoin="round"/>
  <path d="M244.00,215.00 C244.00,216.67 243.67,223.33 244.00,225.00 C244.33,226.67 246.50,224.67 246.00,225.00 C245.50,225.33 245.00,226.67 241.00,227.00 C237.00,227.33 229.50,228.17 222.00,227.00 C214.50,225.83 207.00,224.50 196.00,220.00 C185.00,215.50 164.17,203.67 156.00,200.00 C147.83,196.33 157.83,197.83 147.00,198.00 C136.17,198.17 101.00,200.00 91.00,201.00 C81.00,202.00 96.17,203.67 87.00,204.00 C77.83,204.33 46.00,201.50 36.00,203.00 C26.00,204.50 28.67,209.17 27.00,213.00 C25.33,216.83 25.00,222.67 26.00,226.00 C27.00,229.33 26.17,229.67 33.00,233.00 C39.83,236.33 60.67,242.83 67.00,246.00 C73.33,249.17 70.33,251.00 71.00,252.00" fill="none" stroke="black" stroke-width="8.25" stroke-linecap="round" stroke-linejoin="round"/>
  <path d="M428.00,202.00 C428.67,203.50 431.67,208.67 432.00,211.00 C432.33,213.33 434.17,210.83 430.00,216.00 C425.83,221.17 410.83,237.67 407.00,242.00" fill="none" stroke="black" stroke-width="8.49" stroke-linecap="round" stroke-linejoin="round"/>
  <path d="M552.00,206.00 C546.00,210.00 524.50,226.67 516.00,230.00 C507.50,233.33 507.33,228.67 501.00,226.00 C494.67,223.33 483.33,213.50 478.00,214.00 C472.67,214.50 472.17,225.33 469.00,229.00 C465.83,232.67 464.33,233.33 459.00,236.00 C453.67,238.67 441.33,242.67 437.00,245.00 C432.67,247.33 433.17,248.17 433.00,250.00 C432.83,251.83 433.67,254.50 436.00,256.00 C438.33,257.50 442.50,257.00 447.00,259.00 C451.50,261.00 460.00,263.33 463.00,268.00 C466.00,272.67 464.67,283.83 465.00,287.00" fill="none" stroke="black" stroke-width="8.25" stroke-linecap="round" stroke-linejoin="round"/>
  <path d="M479.00,212.00 C478.83,212.33 477.83,213.67 478.00,214.00 C478.17,214.33 479.67,214.00 480.00,214.00" fill="none" stroke="black" stroke-width="14.07" stroke-linecap="round" stroke-linejoin="round"/>
  <path d="M337.00,216.00 C337.17,220.17 337.50,236.50 338.00,241.00 C338.50,245.50 338.83,242.67 340.00,243.00 C341.17,243.33 339.83,247.50 345.00,243.00 C350.17,238.50 366.67,220.50 371.00,216.00" fill="none" stroke="black" stroke-width="14.00" stroke-linecap="round" stroke-linejoin="round"/>
  <path d="M246.00,225.00 C246.83,227.33 250.33,235.67 251.00,239.00 C251.67,242.33 249.83,244.00 250.00,245.00 C250.17,246.00 251.67,245.00 252.00,245.00" fill="none" stroke="black" stroke-width="9.47" stroke-linecap="round" stroke-linejoin="round"/>
  <path d="M516.00,231.00 C516.17,232.33 518.00,235.17 517.00,239.00 C516.00,242.83 511.17,251.50 510.00,254.00" fill="none" stroke="black" stroke-width="8.25" stroke-linecap="round" stroke-linejoin="round"/>
  <path d="M122.00,241.00 C121.83,242.17 120.83,246.83 121.00,248.00 C121.17,249.17 122.67,248.00 123.00,248.00" fill="none" stroke="black" stroke-width="12.65" stroke-linecap="round" stroke-linejoin="round"/>
  <path d="M338.00,243.00 C337.00,244.00 334.00,247.67 332.00,249.00 C330.00,250.33 327.50,250.67 326.00,251.00 C324.50,251.33 324.83,252.50 323.00,251.00 C321.17,249.50 317.17,243.00 315.00,242.00 C312.83,241.00 310.83,242.50 310.00,245.00 C309.17,247.50 309.50,254.33 310.00,257.00 C310.50,259.67 314.67,259.33 313.00,261.00 C311.33,262.67 302.33,264.17 300.00,267.00 C297.67,269.83 301.33,271.33 299.00,278.00 C296.67,284.67 287.83,302.00 286.00,307.00 C284.17,312.00 288.00,304.50 288.00,308.00 C288.00,311.50 287.50,324.33 286.00,328.00 C284.50,331.67 282.33,326.67 279.00,330.00 C275.67,333.33 268.17,345.00 266.00,348.00" fill="none" stroke="black" stroke-width="10.00" stroke-linecap="round" stroke-linejoin="round"/>
  <path d="M345.00,243.00 C346.17,244.00 347.17,247.67 352.00,249.00 C356.83,250.33 369.83,249.00 374.00,251.00 C378.17,253.00 372.83,254.83 377.00,261.00 C381.17,267.17 395.33,283.50 399.00,288.00" fill="none" stroke="black" stroke-width="8.49" stroke-linecap="round" stroke-linejoin="round"/>
  <path d="M374.00,251.00 C376.67,250.00 384.50,246.33 390.00,245.00 C395.50,243.67 403.50,242.67 407.00,243.00 C410.50,243.33 406.67,245.83 411.00,247.00 C415.33,248.17 429.33,249.17 433.00,250.00 C436.67,250.83 433.00,251.67 433.00,252.00" fill="none" stroke="black" stroke-width="8.25" stroke-linecap="round" stroke-linejoin="round"/>
  <path d="M231.00,248.00 C231.67,247.50 231.50,245.50 235.00,245.00 C238.50,244.50 248.33,244.00 252.00,245.00 C255.67,246.00 255.50,248.17 257.00,251.00 C258.50,253.83 260.67,259.83 261.00,262.00 C261.33,264.17 261.67,264.00 259.00,264.00 C256.33,264.00 248.67,263.00 245.00,262.00 C241.33,261.00 239.33,259.83 237.00,258.00 C234.67,256.17 232.00,252.67 231.00,251.00 C230.00,249.33 232.67,248.50 231.00,248.00 C229.33,247.50 222.67,248.00 221.00,248.00" fill="none" stroke="black" stroke-width="8.49" stroke-linecap="round" stroke-linejoin="round"/>
  <path d="M64.00,264.00 C65.33,261.83 64.67,252.83 72.00,251.00 C79.33,249.17 99.33,253.50 108.00,253.00 C116.67,252.50 118.00,245.00 124.00,248.00 C130.00,251.00 143.50,265.67 144.00,271.00 C144.50,276.33 134.33,277.50 127.00,280.00 C119.67,282.50 108.33,286.17 100.00,286.00 C91.67,285.83 82.33,281.50 77.00,279.00 C71.67,276.50 70.17,273.50 68.00,271.00 C65.83,268.50 65.33,265.00 64.00,264.00 C62.67,263.00 65.83,260.83 60.00,265.00 C54.17,269.17 34.17,283.67 29.00,289.00 C23.83,294.33 28.00,294.33 29.00,297.00 C30.00,299.67 34.00,303.67 35.00,305.00" fill="none" stroke="black" stroke-width="8.49" stroke-linecap="round" stroke-linejoin="round"/>
  <path d="M323.00,252.00 C321.83,253.50 317.67,259.50 316.00,261.00 C314.33,262.50 312.67,260.67 313.00,261.00 C313.33,261.33 316.83,260.50 318.00,263.00 C319.17,265.50 318.17,271.83 320.00,276.00 C321.83,280.17 327.50,286.00 329.00,288.00" fill="none" stroke="black" stroke-width="10.00" stroke-linecap="round" stroke-linejoin="round"/>
  <path d="M260.00,263.00 L280.00,266.00" fill="none" stroke="black" stroke-width="10.20" stroke-linecap="round" stroke-linejoin="round"/>
  <path d="M546.00,266.00 C545.50,266.50 542.83,265.33 543.00,269.00 C543.17,272.67 546.50,283.83 547.00,288.00 C547.50,292.17 547.83,292.17 546.00,294.00 C544.17,295.83 538.67,298.17 536.00,299.00 C533.33,299.83 532.00,298.00 530.00,299.00 C528.00,300.00 531.33,306.50 524.00,305.00 C516.67,303.50 495.83,293.17 486.00,290.00 C476.17,286.83 472.50,285.67 465.00,286.00 C457.50,286.33 452.17,291.67 441.00,292.00 C429.83,292.33 405.33,287.83 398.00,288.00 C390.67,288.17 398.33,290.67 397.00,293.00 C395.67,295.33 393.67,299.50 390.00,302.00 C386.33,304.50 376.50,303.33 375.00,308.00 C373.50,312.67 380.00,326.33 381.00,330.00" fill="none" stroke="black" stroke-width="8.25" stroke-linecap="round" stroke-linejoin="round"/>
  <path d="M558.00,267.00 C559.00,268.33 559.17,271.83 564.00,275.00 C568.83,278.17 580.83,281.33 587.00,286.00 C593.17,290.67 598.83,298.67 601.00,303.00 C603.17,307.33 602.00,309.67 600.00,312.00 C598.00,314.33 598.33,316.33 589.00,317.00 C579.67,317.67 548.33,310.33 544.00,316.00 C539.67,321.67 559.33,342.17 563.00,351.00 C566.67,359.83 565.83,363.50 566.00,369.00 C566.17,374.50 566.17,380.33 564.00,384.00 C561.83,387.67 558.33,390.17 553.00,391.00 C547.67,391.83 536.67,389.00 532.00,389.00 C527.33,389.00 526.83,391.33 525.00,391.00 C523.17,390.67 526.00,389.83 521.00,387.00 C516.00,384.17 500.50,376.33 495.00,374.00 C489.50,371.67 489.17,373.17 488.00,373.00" fill="none" stroke="black" stroke-width="8.25" stroke-linecap="round" stroke-linejoin="round"/>
  <path d="M144.00,271.00 C146.83,272.17 157.17,275.67 161.00,278.00 C164.83,280.33 163.67,283.67 167.00,285.00 C170.33,286.33 174.33,286.50 181.00,286.00 C187.67,285.50 201.33,282.17 207.00,282.00 C212.67,281.83 213.67,284.50 215.00,285.00" fill="none" stroke="black" stroke-width="8.25" stroke-linecap="round" stroke-linejoin="round"/>
  <path d="M167.00,285.00 C166.17,285.83 166.00,288.67 162.00,290.00 C158.00,291.33 147.67,291.83 143.00,293.00 C138.33,294.17 139.17,292.33 134.00,297.00 C128.83,301.67 116.50,316.67 112.00,321.00 C107.50,325.33 111.33,326.17 107.00,323.00 C102.67,319.83 87.67,307.00 86.00,302.00 C84.33,297.00 94.67,295.50 97.00,293.00 C99.33,290.50 99.50,288.00 100.00,287.00" fill="none" stroke="black" stroke-width="8.49" stroke-linecap="round" stroke-linejoin="round"/>
  <path d="M220.00,285.00 C219.17,285.00 216.83,283.50 215.00,285.00 C213.17,286.50 213.00,291.17 209.00,294.00 C205.00,296.83 196.50,299.00 191.00,302.00 C185.50,305.00 182.33,306.67 176.00,312.00 C169.67,317.33 157.50,329.17 153.00,334.00 C148.50,338.83 152.00,339.50 149.00,341.00 C146.00,342.50 140.50,343.00 135.00,343.00 C129.50,343.00 120.17,342.33 116.00,341.00 C111.83,339.67 111.67,337.33 110.00,335.00 C108.33,332.67 106.50,329.00 106.00,327.00 C105.50,325.00 107.17,323.67 107.00,323.00 C106.83,322.33 105.33,323.00 105.00,323.00" fill="none" stroke="black" stroke-width="8.49" stroke-linecap="round" stroke-linejoin="round"/>
  <path d="M376.00,308.00 C373.17,307.33 365.50,307.00 359.00,304.00 C352.50,301.00 342.17,292.67 337.00,290.00 C331.83,287.33 329.50,286.50 328.00,288.00 C326.50,289.50 326.17,293.00 328.00,299.00 C329.83,305.00 337.17,318.50 339.00,324.00 C340.83,329.50 339.83,328.83 339.00,332.00 C338.17,335.17 335.83,341.00 334.00,343.00 C332.17,345.00 330.17,343.00 328.00,344.00 C325.83,345.00 325.33,348.17 321.00,349.00 C316.67,349.83 307.00,350.50 302.00,349.00 C297.00,347.50 293.67,343.50 291.00,340.00 C288.33,336.50 286.83,330.00 286.00,328.00" fill="none" stroke="black" stroke-width="8.25" stroke-linecap="round" stroke-linejoin="round"/>
  <path d="M249.00,292.00 C247.83,293.67 248.17,296.33 242.00,302.00 C235.83,307.67 217.33,320.83 212.00,326.00 C206.67,331.17 211.83,331.67 210.00,333.00 C208.17,334.33 205.17,331.33 201.00,334.00 C196.83,336.67 190.67,342.17 185.00,349.00 C179.33,355.83 170.00,370.67 167.00,375.00" fill="none" stroke="black" stroke-width="8.49" stroke-linecap="round" stroke-linejoin="round"/>
  <path d="M439.00,292.00 C439.33,292.00 440.50,290.67 441.00,292.00 C441.50,293.33 441.00,297.50 442.00,300.00 C443.00,302.50 445.17,302.83 447.00,307.00 C448.83,311.17 449.33,321.50 453.00,325.00 C456.67,328.50 465.00,326.83 469.00,328.00 C473.00,329.17 470.67,331.50 477.00,332.00 C483.33,332.50 500.50,331.67 507.00,331.00 C513.50,330.33 514.17,329.00 516.00,328.00 C517.83,327.00 517.67,328.33 518.00,325.00 C518.33,321.67 517.50,311.33 518.00,308.00 C518.50,304.67 520.50,305.50 521.00,305.00" fill="none" stroke="black" stroke-width="8.25" stroke-linecap="round" stroke-linejoin="round"/>
  <path d="M85.00,302.00 C81.33,302.67 70.67,305.17 63.00,306.00 C55.33,306.83 43.67,307.17 39.00,307.00 C34.33,306.83 38.50,303.00 35.00,305.00 C31.50,307.00 20.83,315.83 18.00,319.00 C15.17,322.17 17.33,322.50 18.00,324.00 C18.67,325.50 19.67,326.83 22.00,328.00 C24.33,329.17 26.83,329.83 32.00,331.00 C37.17,332.17 47.33,334.33 53.00,335.00 C58.67,335.67 62.50,334.50 66.00,335.00 C69.50,335.50 67.50,339.33 74.00,338.00 C80.50,336.67 99.83,328.83 105.00,327.00" fill="none" stroke="black" stroke-width="8.25" stroke-linecap="round" stroke-linejoin="round"/>
  <path d="M525.00,304.00 C526.00,305.17 527.67,308.83 531.00,311.00 C534.33,313.17 542.67,316.00 545.00,317.00" fill="none" stroke="black" stroke-width="11.83" stroke-linecap="round" stroke-linejoin="round"/>
  <path d="M287.00,306.00 C285.67,306.67 283.50,306.00 279.00,310.00 C274.50,314.00 264.00,325.50 260.00,330.00 C256.00,334.50 256.50,333.67 255.00,337.00 C253.50,340.33 249.17,348.00 251.00,350.00 C252.83,352.00 263.17,348.67 266.00,349.00 C268.83,349.33 268.17,346.17 268.00,352.00 C267.83,357.83 265.33,376.17 265.00,384.00 C264.67,391.83 265.00,395.50 266.00,399.00 C267.00,402.50 267.33,403.67 271.00,405.00 C274.67,406.33 283.83,408.17 288.00,407.00 C292.17,405.83 293.67,400.00 296.00,398.00 C298.33,396.00 301.00,395.50 302.00,395.00" fill="none" stroke="black" stroke-width="8.49" stroke-linecap="round" stroke-linejoin="round"/>
  <path d="M455.00,326.00 C454.17,328.33 451.83,337.17 450.00,340.00 C448.17,342.83 449.00,342.33 444.00,343.00 C439.00,343.67 424.67,343.83 420.00,344.00 C415.33,344.17 420.33,346.00 416.00,344.00 C411.67,342.00 399.67,334.50 394.00,332.00 C388.33,329.50 384.50,328.50 382.00,329.00 C379.50,329.50 379.33,331.00 379.00,335.00 C378.67,339.00 380.83,348.67 380.00,353.00 C379.17,357.33 376.50,359.17 374.00,361.00 C371.50,362.83 366.50,363.50 365.00,364.00" fill="none" stroke="black" stroke-width="8.25" stroke-linecap="round" stroke-linejoin="round"/>
  <path d="M477.00,332.00 C478.67,336.33 485.17,351.17 487.00,358.00 C488.83,364.83 489.50,369.00 488.00,373.00 C486.50,377.00 482.50,379.33 478.00,382.00 C473.50,384.67 465.00,387.50 461.00,389.00 C457.00,390.50 458.67,390.83 454.00,391.00 C449.33,391.17 436.67,386.17 433.00,390.00 C429.33,393.83 432.17,410.33 432.00,414.00 C431.83,417.67 433.83,411.83 432.00,412.00 C430.17,412.17 425.17,414.83 421.00,415.00 C416.83,415.17 412.17,415.00 407.00,413.00 C401.83,411.00 394.67,406.33 390.00,403.00 C385.33,399.67 381.83,395.00 379.00,393.00 C376.17,391.00 374.00,391.33 373.00,391.00" fill="none" stroke="black" stroke-width="8.25" stroke-linecap="round" stroke-linejoin="round"/>
  <path d="M210.00,333.00 C210.50,334.33 211.00,338.50 213.00,341.00 C215.00,343.50 218.83,346.67 222.00,348.00 C225.17,349.33 227.67,349.33 232.00,349.00 C236.33,348.67 244.50,346.00 248.00,346.00 C251.50,346.00 252.50,348.33 253.00,349.00 C253.50,349.67 251.83,347.83 251.00,350.00 C250.17,352.17 250.17,358.33 248.00,362.00 C245.83,365.67 239.83,368.17 238.00,372.00 C236.17,375.83 238.33,380.67 237.00,385.00 C235.67,389.33 231.50,394.17 230.00,398.00 C228.50,401.83 228.33,406.33 228.00,408.00" fill="none" stroke="black" stroke-width="16.49" stroke-linecap="round" stroke-linejoin="round"/>
  <path d="M75.00,337.00 C74.17,338.83 75.17,343.67 70.00,348.00 C64.83,352.33 49.33,359.50 44.00,363.00 C38.67,366.50 39.00,366.33 38.00,369.00 C37.00,371.67 36.67,376.00 38.00,379.00 C39.33,382.00 42.67,384.83 46.00,387.00 C49.33,389.17 52.17,391.17 58.00,392.00 C63.83,392.83 71.67,393.83 81.00,392.00 C90.33,390.17 106.50,383.00 114.00,381.00 C121.50,379.00 119.83,383.33 126.00,380.00 C132.17,376.67 147.33,367.50 151.00,361.00 C154.67,354.50 148.50,344.33 148.00,341.00" fill="none" stroke="black" stroke-width="8.25" stroke-linecap="round" stroke-linejoin="round"/>
  <path d="M333.00,343.00 C335.67,345.67 343.50,355.50 349.00,359.00 C354.50,362.50 362.00,358.67 366.00,364.00 C370.00,369.33 372.33,386.17 373.00,391.00 C373.67,395.83 371.17,390.00 370.00,393.00 C368.83,396.00 368.00,403.50 366.00,409.00 C364.00,414.50 359.83,420.33 358.00,426.00 C356.17,431.67 354.67,439.83 355.00,443.00 C355.33,446.17 353.50,439.17 360.00,445.00 C366.50,450.83 386.83,471.83 394.00,478.00 C401.17,484.17 400.17,481.33 403.00,482.00 C405.83,482.67 408.83,482.33 411.00,482.00 C413.17,481.67 414.00,481.67 416.00,480.00 C418.00,478.33 420.50,477.17 423.00,472.00 C425.50,466.83 429.50,458.83 431.00,449.00 C432.50,439.17 431.83,419.00 432.00,413.00" fill="none" stroke="black" stroke-width="8.25" stroke-linecap="round" stroke-linejoin="round"/>
  <path d="M419.00,344.00 C418.67,344.00 416.83,342.17 417.00,344.00 C417.17,345.83 417.33,347.50 420.00,355.00 C422.67,362.50 430.83,383.33 433.00,389.00" fill="none" stroke="black" stroke-width="8.25" stroke-linecap="round" stroke-linejoin="round"/>
  <path d="M320.00,349.00 C320.17,351.17 323.50,355.83 321.00,362.00 C318.50,368.17 308.33,380.33 305.00,386.00 C301.67,391.67 300.83,393.67 301.00,396.00 C301.17,398.33 303.67,394.33 306.00,400.00 C308.33,405.67 313.50,423.67 315.00,430.00 C316.50,436.33 312.00,434.50 315.00,438.00 C318.00,441.50 328.50,448.50 333.00,451.00 C337.50,453.50 339.67,452.67 342.00,453.00 C344.33,453.33 346.00,453.83 347.00,453.00 C348.00,452.17 346.67,449.67 348.00,448.00 C349.33,446.33 353.83,443.83 355.00,443.00" fill="none" stroke="black" stroke-width="8.49" stroke-linecap="round" stroke-linejoin="round"/>
  <path d="M151.00,361.00 C153.67,363.33 164.67,371.33 167.00,375.00 C169.33,378.67 165.00,381.67 165.00,383.00 C165.00,384.33 166.67,383.00 167.00,383.00" fill="none" stroke="black" stroke-width="10.20" stroke-linecap="round" stroke-linejoin="round"/>
  <path d="M239.00,373.00 C236.67,373.17 230.17,371.83 225.00,374.00 C219.83,376.17 214.33,382.50 208.00,386.00 C201.67,389.50 192.50,393.67 187.00,395.00 C181.50,396.33 178.50,396.17 175.00,394.00 C171.50,391.83 168.67,383.17 166.00,382.00 C163.33,380.83 162.33,381.33 159.00,387.00 C155.67,392.67 152.50,408.50 146.00,416.00 C139.50,423.50 125.83,429.33 120.00,432.00 C114.17,434.67 113.17,432.50 111.00,432.00 C108.83,431.50 107.67,431.17 107.00,429.00 C106.33,426.83 104.33,425.33 107.00,419.00 C109.67,412.67 120.17,397.50 123.00,391.00 C125.83,384.50 123.50,381.83 124.00,380.00 C124.50,378.17 125.67,380.00 126.00,380.00" fill="none" stroke="black" stroke-width="8.25" stroke-linecap="round" stroke-linejoin="round"/>
  <path d="M452.00,391.00 C452.33,391.00 453.50,389.83 454.00,391.00 C454.50,392.17 452.17,394.33 455.00,398.00 C457.83,401.67 467.00,409.67 471.00,413.00 C475.00,416.33 474.17,416.00 479.00,418.00 C483.83,420.00 493.17,423.83 500.00,425.00 C506.83,426.17 515.50,425.83 520.00,425.00 C524.50,424.17 525.67,423.67 527.00,420.00 C528.33,416.33 528.33,407.83 528.00,403.00 C527.67,398.17 525.50,393.00 525.00,391.00" fill="none" stroke="black" stroke-width="8.25" stroke-linecap="round" stroke-linejoin="round"/>
  <path d="M286.00,407.00 C286.33,407.00 288.33,405.00 288.00,407.00 C287.67,409.00 287.17,414.17 284.00,419.00 C280.83,423.83 271.50,432.17 269.00,436.00 C266.50,439.83 267.50,439.67 269.00,442.00 C270.50,444.33 274.83,448.67 278.00,450.00 C281.17,451.33 283.83,450.50 288.00,450.00 C292.17,449.50 298.50,449.00 303.00,447.00 C307.50,445.00 313.00,439.50 315.00,438.00" fill="none" stroke="black" stroke-width="8.49" stroke-linecap="round" stroke-linejoin="round"/>
  <path d="M146.00,416.00 C146.50,416.50 147.83,413.67 149.00,419.00 C150.17,424.33 151.33,442.00 153.00,448.00 C154.67,454.00 156.83,453.83 159.00,455.00 C161.17,456.17 163.33,455.83 166.00,455.00 C168.67,454.17 168.67,454.83 175.00,450.00 C181.33,445.17 197.67,430.50 204.00,426.00 C210.33,421.50 210.50,425.00 213.00,423.00 C215.50,421.00 216.50,416.50 219.00,414.00 C221.50,411.50 225.33,407.83 228.00,408.00 C230.67,408.17 233.33,410.17 235.00,415.00 C236.67,419.83 236.50,432.00 238.00,437.00 C239.50,442.00 241.83,443.17 244.00,445.00 C246.17,446.83 247.17,448.83 251.00,448.00 C254.83,447.17 264.33,441.33 267.00,440.00" fill="none" stroke="black" stroke-width="8.49" stroke-linecap="round" stroke-linejoin="round"/>
  <path d="M214.00,422.00 C213.83,423.83 214.00,429.67 213.00,433.00 C212.00,436.33 209.83,436.67 208.00,442.00 C206.17,447.33 203.00,459.00 202.00,465.00 C201.00,471.00 201.33,474.50 202.00,478.00 C202.67,481.50 204.33,484.50 206.00,486.00 C207.67,487.50 208.17,488.33 212.00,487.00 C215.83,485.67 224.67,479.83 229.00,478.00 C233.33,476.17 235.33,478.17 238.00,476.00 C240.67,473.83 242.67,469.83 245.00,465.00 C247.33,460.17 250.83,450.00 252.00,447.00" fill="none" stroke="black" stroke-width="8.49" stroke-linecap="round" stroke-linejoin="round"/>
  <path d="M301.00,447.00 C301.33,447.00 303.33,445.17 303.00,447.00 C302.67,448.83 306.00,448.83 299.00,458.00 C292.00,467.17 269.83,492.50 261.00,502.00 C252.17,511.50 249.17,512.83 246.00,515.00 C242.83,517.17 243.67,516.00 242.00,515.00 C240.33,514.00 237.17,511.17 236.00,509.00 C234.83,506.83 234.50,507.00 235.00,502.00 C235.50,497.00 238.67,483.33 239.00,479.00 C239.33,474.67 237.33,476.50 237.00,476.00" fill="none" stroke="black" stroke-width="8.49" stroke-linecap="round" stroke-linejoin="round"/>
  <path d="M346.00,453.00 C346.83,454.33 348.00,450.67 351.00,461.00 C354.00,471.33 360.17,497.50 364.00,515.00 C367.83,532.50 372.33,555.67 374.00,566.00 C375.67,576.33 374.50,574.83 374.00,577.00 C373.50,579.17 372.67,579.17 371.00,579.00 C369.33,578.83 368.17,579.67 364.00,576.00 C359.83,572.33 351.00,561.33 346.00,557.00 C341.00,552.67 338.17,551.83 334.00,550.00 C329.83,548.17 324.33,546.50 321.00,546.00 C317.67,545.50 315.17,547.17 314.00,547.00 C312.83,546.83 314.00,544.00 314.00,545.00 C314.00,546.00 313.50,550.50 314.00,553.00 C314.50,555.50 314.67,557.00 317.00,560.00 C319.33,563.00 320.50,565.00 328.00,571.00 C335.50,577.00 355.00,591.33 362.00,596.00 C369.00,600.67 367.67,598.50 370.00,599.00 C372.33,599.50 375.50,602.50 376.00,599.00 C376.50,595.50 373.50,581.50 373.00,578.00" fill="none" stroke="black" stroke-width="10.00" stroke-linecap="round" stroke-linejoin="round"/>
  <path d="M456.00,629.00 C451.33,628.50 434.83,626.00 428.00,626.00 C421.17,626.00 419.67,626.83 415.00,629.00 C410.33,631.17 404.50,637.17 400.00,639.00 C395.50,640.83 390.00,639.83 388.00,640.00" fill="none" stroke="black" stroke-width="8.25" stroke-linecap="round" stroke-linejoin="round"/>
  <path d="M332.00,744.00 C335.17,745.00 346.17,745.33 351.00,750.00 C355.83,754.67 361.00,766.17 361.00,772.00 C361.00,777.83 353.00,781.17 351.00,785.00 C349.00,788.83 350.33,792.17 349.00,795.00 C347.67,797.83 345.00,801.67 343.00,802.00 C341.00,802.33 338.17,798.50 337.00,797.00 C335.83,795.50 337.17,800.50 336.00,793.00 C334.83,785.50 330.83,760.00 330.00,752.00 C329.17,744.00 330.83,746.17 331.00,745.00" fill="none" stroke="black" stroke-width="8.25" stroke-linecap="round" stroke-linejoin="round"/>
  <path d="M361.00,772.00 C361.83,772.00 364.33,770.83 366.00,772.00 C367.67,773.17 370.17,775.00 371.00,779.00 C371.83,783.00 371.67,791.00 371.00,796.00 C370.33,801.00 367.00,806.67 367.00,809.00 C367.00,811.33 369.67,808.67 371.00,810.00 C372.33,811.33 375.17,810.00 375.00,817.00 C374.83,824.00 371.67,845.17 370.00,852.00 C368.33,858.83 368.67,857.17 365.00,858.00 C361.33,858.83 355.17,858.50 348.00,857.00 C340.83,855.50 328.83,850.17 322.00,849.00 C315.17,847.83 310.83,849.33 307.00,850.00 C303.17,850.67 304.17,849.33 299.00,853.00 C293.83,856.67 279.83,867.83 276.00,872.00 C272.17,876.17 279.33,871.00 276.00,878.00 C272.67,885.00 260.83,907.00 256.00,914.00 C251.17,921.00 249.00,919.83 247.00,920.00 C245.00,920.17 244.50,919.00 244.00,915.00 C243.50,911.00 244.33,899.50 244.00,896.00 C243.67,892.50 243.50,894.33 242.00,894.00 C240.50,893.67 235.83,897.00 235.00,894.00 C234.17,891.00 236.67,879.00 237.00,876.00" fill="none" stroke="black" stroke-width="8.25" stroke-linecap="round" stroke-linejoin="round"/>
  <path d="M256.00,784.00 C256.50,785.67 255.00,791.50 259.00,794.00 C263.00,796.50 266.50,792.67 280.00,799.00 C293.50,805.33 329.17,826.83 340.00,832.00 C350.83,837.17 344.50,835.00 345.00,830.00 C345.50,825.00 343.33,806.67 343.00,802.00" fill="none" stroke="black" stroke-width="8.49" stroke-linecap="round" stroke-linejoin="round"/>
  <path d="M188.00,790.00 C188.33,791.17 189.17,795.67 190.00,797.00 C190.83,798.33 192.67,797.33 193.00,798.00 C193.33,798.67 191.67,799.50 192.00,801.00 C192.33,802.50 193.00,804.83 195.00,807.00 C197.00,809.17 200.00,811.83 204.00,814.00 C208.00,816.17 215.83,818.33 219.00,820.00 C222.17,821.67 222.17,822.00 223.00,824.00 C223.83,826.00 217.83,832.33 224.00,832.00 C230.17,831.67 251.67,823.17 260.00,822.00 C268.33,820.83 270.83,823.50 274.00,825.00 C277.17,826.50 278.50,828.17 279.00,831.00 C279.50,833.83 279.00,839.17 277.00,842.00 C275.00,844.83 272.83,846.17 267.00,848.00 C261.17,849.83 247.50,850.67 242.00,853.00 C236.50,855.33 235.50,859.33 234.00,862.00 C232.50,864.67 232.50,866.67 233.00,869.00 C233.50,871.33 232.33,875.83 237.00,876.00 C241.67,876.17 255.50,871.00 261.00,870.00 C266.50,869.00 267.33,869.50 270.00,870.00 C272.67,870.50 275.83,872.50 277.00,873.00" fill="none" stroke="black" stroke-width="8.25" stroke-linecap="round" stroke-linejoin="round"/>
  <path d="M261.00,794.00 C259.83,794.83 265.33,798.33 254.00,799.00 C242.67,799.67 203.17,798.17 193.00,798.00" fill="none" stroke="black" stroke-width="8.00" stroke-linecap="round" stroke-linejoin="round"/>
  <path d="M344.00,831.00 C344.67,832.50 346.17,837.17 348.00,840.00 C349.83,842.83 353.50,845.33 355.00,848.00 C356.50,850.67 356.67,854.67 357.00,856.00" fill="none" stroke="black" stroke-width="12.40" stroke-linecap="round" stroke-linejoin="round"/>
  <path d="M364.00,858.00 C365.00,859.50 369.00,864.00 370.00,867.00 C371.00,870.00 369.50,874.50 370.00,876.00 C370.50,877.50 370.33,873.33 373.00,876.00 C375.67,878.67 382.50,886.83 386.00,892.00 C389.50,897.17 390.67,903.00 394.00,907.00 C397.33,911.00 404.00,914.50 406.00,916.00" fill="none" stroke="black" stroke-width="11.66" stroke-linecap="round" stroke-linejoin="round"/>
  <path d="M372.00,876.00 C369.83,876.33 363.17,876.50 359.00,878.00 C354.83,879.50 350.50,883.83 347.00,885.00 C343.50,886.17 340.33,885.67 338.00,885.00 C335.67,884.33 334.83,881.83 333.00,881.00 C331.17,880.17 330.50,874.33 327.00,880.00 C323.50,885.67 315.67,907.50 312.00,915.00 C308.33,922.50 307.83,922.00 305.00,925.00 C302.17,928.00 298.50,930.83 295.00,933.00 C291.50,935.17 288.33,936.83 284.00,938.00 C279.67,939.17 274.33,940.00 269.00,940.00 C263.67,940.00 256.00,939.17 252.00,938.00 C248.00,936.83 245.83,936.00 245.00,933.00 C244.17,930.00 246.67,922.17 247.00,920.00" fill="none" stroke="black" stroke-width="8.25" stroke-linecap="round" stroke-linejoin="round"/>
  <path d="M327.00,880.00 L328.00,879.00" fill="none" stroke="black" stroke-width="10.77" stroke-linecap="round" stroke-linejoin="round"/>
</svg>
