<?xml version="1.0" encoding="UTF-8"?>
<svg xmlns="http://www.w3.org/2000/svg" viewBox="0 0 649 1627" width="649" height="1627">
  <path d="M325.00,272.00 C324.33,271.00 321.33,267.33 321.00,266.00 C320.67,264.67 322.83,263.83 323.00,264.00 C323.17,264.17 322.50,266.83 322.00,267.00 C321.50,267.17 321.83,265.33 320.00,265.00 C318.17,264.67 313.33,265.83 311.00,265.00 C308.67,264.17 306.17,263.00 306.00,260.00 C305.83,257.00 309.33,249.17 310.00,247.00" fill="none" stroke="black" stroke-width="12.81" stroke-linecap="round" stroke-linejoin="round"/>
  <path d="M239.00,769.00 C237.83,767.17 234.17,764.50 232.00,758.00 C229.83,751.50 225.50,736.00 226.00,730.00 C226.50,724.00 231.67,723.67 235.00,722.00 C238.33,720.33 243.67,720.83 246.00,720.00 C248.33,719.17 247.33,717.17 249.00,717.00 C250.67,716.83 254.83,718.67 256.00,719.00" fill="none" stroke="black" stroke-width="10.00" stroke-linecap="round" stroke-linejoin="round"/>
  <path d="M297.00,788.00 C295.17,783.83 293.17,774.50 286.00,763.00 C278.83,751.50 258.33,726.67 254.00,719.00 C249.67,711.33 257.83,718.50 260.00,717.00 C262.17,715.50 265.67,712.00 267.00,710.00 C268.33,708.00 266.17,705.83 268.00,705.00 C269.83,704.17 274.67,704.17 278.00,705.00 C281.33,705.83 282.67,705.33 288.00,710.00 C293.33,714.67 304.33,722.17 310.00,733.00 C315.67,743.83 319.67,763.50 322.00,775.00 C324.33,786.50 324.17,795.50 324.00,802.00 C323.83,808.50 322.33,810.17 321.00,814.00 C319.67,817.83 318.67,820.83 316.00,825.00 C313.33,829.17 310.83,834.33 305.00,839.00 C299.17,843.67 288.50,850.67 281.00,853.00 C273.50,855.33 267.00,854.00 260.00,853.00 C253.00,852.00 246.00,850.33 239.00,847.00 C232.00,843.67 223.83,837.83 218.00,833.00 C212.17,828.17 209.33,826.00 204.00,818.00 C198.67,810.00 189.83,794.17 186.00,785.00 C182.17,775.83 181.83,771.67 181.00,763.00 C180.17,754.33 179.83,740.17 181.00,733.00 C182.17,725.83 186.67,723.67 188.00,720.00 C189.33,716.33 187.83,713.17 189.00,711.00 C190.17,708.83 192.67,707.67 195.00,707.00 C197.33,706.33 202.00,707.17 203.00,707.00 C204.00,706.83 201.00,706.17 201.00,706.00 C201.00,705.83 202.83,707.33 203.00,706.00 C203.17,704.67 201.50,700.83 202.00,698.00 C202.50,695.17 203.00,691.00 206.00,689.00 C209.00,687.00 215.33,685.83 220.00,686.00 C224.67,686.17 229.17,689.67 234.00,690.00 C238.83,690.33 245.67,688.00 249.00,688.00 C252.33,688.00 250.83,687.33 254.00,690.00 C257.17,692.67 265.67,701.67 268.00,704.00" fill="none" stroke="black" stroke-width="10.00" stroke-linecap="round" stroke-linejoin="round"/>
  <path d="M226.00,816.00 C224.50,813.67 220.00,807.83 217.00,802.00 C214.00,796.17 209.83,789.50 208.00,781.00 C206.17,772.50 205.50,759.00 206.00,751.00 C206.50,743.00 211.50,737.00 211.00,733.00 C210.50,729.00 204.67,729.00 203.00,727.00 C201.33,725.00 201.33,722.00 201.00,721.00" fill="none" stroke="black" stroke-width="10.00" stroke-linecap="round" stroke-linejoin="round"/>
  <path d="M244.00,1610.00 C245.67,1607.83 244.50,1613.67 254.00,1597.00 C263.50,1580.33 287.00,1537.67 301.00,1510.00 C315.00,1482.33 326.83,1456.33 338.00,1431.00 C349.17,1405.67 360.00,1378.33 368.00,1358.00 C376.00,1337.67 377.67,1334.00 386.00,1309.00 C394.33,1284.00 411.50,1229.00 418.00,1208.00 C424.50,1187.00 423.33,1190.67 425.00,1183.00 C426.67,1175.33 426.50,1168.00 428.00,1162.00 C429.50,1156.00 431.67,1155.17 434.00,1147.00 C436.33,1138.83 439.33,1125.00 442.00,1113.00 C444.67,1101.00 448.67,1083.33 450.00,1075.00 C451.33,1066.67 449.33,1066.33 450.00,1063.00 C450.67,1059.67 449.83,1080.67 454.00,1055.00 C458.17,1029.33 470.50,946.00 475.00,909.00 C479.50,872.00 479.50,858.67 481.00,833.00 C482.50,807.33 483.83,780.83 484.00,755.00 C484.17,729.17 483.33,702.00 482.00,678.00 C480.67,654.00 479.00,634.00 476.00,611.00 C473.00,588.00 467.33,556.50 464.00,540.00 C460.67,523.50 454.00,519.50 456.00,512.00 C458.00,504.50 470.67,501.00 476.00,495.00 C481.33,489.00 484.33,480.83 488.00,476.00 C491.67,471.17 491.00,471.00 498.00,466.00 C505.00,461.00 522.83,451.17 530.00,446.00 C537.17,440.83 538.00,439.17 541.00,435.00 C544.00,430.83 544.67,423.50 548.00,421.00 C551.33,418.50 555.83,421.50 561.00,420.00 C566.17,418.50 573.33,415.33 579.00,412.00 C584.67,408.67 589.50,405.00 595.00,400.00 C600.50,395.00 608.67,386.17 612.00,382.00 C615.33,377.83 614.50,378.17 615.00,375.00 C615.50,371.83 615.67,366.83 615.00,363.00 C614.33,359.17 611.83,356.17 611.00,352.00 C610.17,347.83 609.33,343.00 610.00,338.00 C610.67,333.00 613.83,327.83 615.00,322.00 C616.17,316.17 617.00,309.33 617.00,303.00 C617.00,296.67 616.17,289.17 615.00,284.00 C613.83,278.83 612.83,275.67 610.00,272.00 C607.17,268.33 602.67,264.33 598.00,262.00 C593.33,259.67 586.67,258.67 582.00,258.00 C577.33,257.33 572.33,257.50 570.00,258.00 C567.67,258.50 569.17,253.17 568.00,261.00 C566.83,268.83 566.67,290.17 563.00,305.00 C559.33,319.83 549.83,340.83 546.00,350.00 C542.17,359.17 545.83,356.83 540.00,360.00 C534.17,363.17 516.67,366.83 511.00,369.00 C505.33,371.17 510.67,373.67 506.00,373.00 C501.33,372.33 489.00,367.67 483.00,365.00 C477.00,362.33 472.17,358.33 470.00,357.00" fill="none" stroke="black" stroke-width="10.20" stroke-linecap="round" stroke-linejoin="round"/>
  <path d="M240.00,37.00 C237.50,36.50 231.33,34.50 225.00,34.00 C218.67,33.50 213.33,31.67 202.00,34.00 C190.67,36.33 169.00,40.67 157.00,48.00 C145.00,55.33 136.83,68.00 130.00,78.00 C123.17,88.00 118.50,100.83 116.00,108.00 C113.50,115.17 114.33,116.17 115.00,121.00 C115.67,125.83 118.83,132.50 120.00,137.00 C121.17,141.50 122.00,146.17 122.00,148.00 C122.00,149.83 120.33,148.00 120.00,148.00" fill="none" stroke="black" stroke-width="10.77" stroke-linecap="round" stroke-linejoin="round"/>
  <path d="M268.00,40.00 C266.83,39.33 265.50,36.50 261.00,36.00 C256.50,35.50 244.17,34.17 241.00,37.00 C237.83,39.83 242.17,50.33 242.00,53.00 C241.83,55.67 240.33,53.00 240.00,53.00" fill="none" stroke="black" stroke-width="10.00" stroke-linecap="round" stroke-linejoin="round"/>
  <path d="M93.00,210.00 C93.33,209.67 94.83,215.50 95.00,208.00 C95.17,200.50 93.67,173.83 94.00,165.00 C94.33,156.17 95.67,157.50 97.00,155.00 C98.33,152.50 100.00,151.17 102.00,150.00 C104.00,148.83 103.33,148.33 109.00,148.00 C114.67,147.67 128.50,151.33 136.00,148.00 C143.50,144.67 149.50,132.00 154.00,128.00 C158.50,124.00 159.83,124.33 163.00,124.00 C166.17,123.67 169.17,123.50 173.00,126.00 C176.83,128.50 182.33,136.17 186.00,139.00 C189.67,141.83 192.17,149.17 195.00,143.00 C197.83,136.83 200.67,111.67 203.00,102.00 C205.33,92.33 206.33,90.67 209.00,85.00 C211.67,79.33 215.50,72.83 219.00,68.00 C222.50,63.17 226.83,58.50 230.00,56.00 C233.17,53.50 233.67,53.17 238.00,53.00 C242.33,52.83 251.67,55.83 256.00,55.00 C260.33,54.17 262.00,50.50 264.00,48.00 C266.00,45.50 264.33,41.00 268.00,40.00 C271.67,39.00 279.17,40.17 286.00,42.00 C292.83,43.83 304.50,50.50 309.00,51.00 C313.50,51.50 311.83,48.17 313.00,45.00 C314.17,41.83 313.00,36.67 316.00,32.00 C319.00,27.33 326.00,19.50 331.00,17.00 C336.00,14.50 339.83,14.17 346.00,17.00 C352.17,19.83 362.67,30.33 368.00,34.00 C373.33,37.67 371.67,38.33 378.00,39.00 C384.33,39.67 400.00,37.83 406.00,38.00 C412.00,38.17 409.83,37.83 414.00,40.00 C418.17,42.17 423.00,47.00 431.00,51.00 C439.00,55.00 455.83,60.83 462.00,64.00 C468.17,67.17 466.00,66.17 468.00,70.00 C470.00,73.83 471.83,83.00 474.00,87.00 C476.17,91.00 478.00,92.00 481.00,94.00 C484.00,96.00 489.17,97.17 492.00,99.00 C494.83,100.83 496.50,102.50 498.00,105.00 C499.50,107.50 499.50,111.83 501.00,114.00 C502.50,116.17 506.00,117.33 507.00,118.00" fill="none" stroke="black" stroke-width="10.77" stroke-linecap="round" stroke-linejoin="round"/>
  <path d="M310.00,50.00 C311.33,55.17 315.50,73.67 318.00,81.00 C320.50,88.33 321.83,89.33 325.00,94.00 C328.17,98.67 334.00,103.50 337.00,109.00 C340.00,114.50 341.83,115.67 343.00,127.00 C344.17,138.33 344.33,163.67 344.00,177.00 C343.67,190.33 341.50,198.83 341.00,207.00 C340.50,215.17 340.67,222.33 341.00,226.00 C341.33,229.67 341.17,229.00 343.00,229.00 C344.83,229.00 349.67,227.33 352.00,226.00 C354.33,224.67 352.50,226.33 357.00,221.00 C361.50,215.67 368.83,205.33 379.00,194.00 C389.17,182.67 410.00,161.00 418.00,153.00 C426.00,145.00 423.50,147.83 427.00,146.00 C430.50,144.17 435.00,142.17 439.00,142.00 C443.00,141.83 448.17,143.50 451.00,145.00 C453.83,146.50 454.50,145.17 456.00,151.00 C457.50,156.83 458.67,173.50 460.00,180.00 C461.33,186.50 460.67,185.50 464.00,190.00 C467.33,194.50 475.50,203.33 480.00,207.00 C484.50,210.67 486.33,214.17 491.00,212.00 C495.67,209.83 504.67,198.17 508.00,194.00 C511.33,189.83 510.33,191.83 511.00,187.00 C511.67,182.17 510.67,171.33 512.00,165.00 C513.33,158.67 517.83,153.00 519.00,149.00 C520.17,145.00 520.83,144.67 519.00,141.00 C517.17,137.33 510.17,130.67 508.00,127.00 C505.83,123.33 503.00,122.67 506.00,119.00 C509.00,115.33 520.67,107.50 526.00,105.00 C531.33,102.50 534.00,103.33 538.00,104.00 C542.00,104.67 546.33,105.83 550.00,109.00 C553.67,112.17 554.33,116.67 560.00,123.00 C565.67,129.33 577.17,138.00 584.00,147.00 C590.83,156.00 598.00,169.50 601.00,177.00 C604.00,184.50 602.33,187.50 602.00,192.00 C601.67,196.50 601.00,198.83 599.00,204.00 C597.00,209.17 594.00,216.50 590.00,223.00 C586.00,229.50 578.83,239.50 575.00,243.00 C571.17,246.50 570.67,246.17 567.00,244.00 C563.33,241.83 559.00,233.67 553.00,230.00 C547.00,226.33 540.83,223.67 531.00,222.00 C521.17,220.33 500.33,216.00 494.00,220.00 C487.67,224.00 495.17,238.00 493.00,246.00 C490.83,254.00 486.50,261.50 481.00,268.00 C475.50,274.50 468.17,280.50 460.00,285.00 C451.83,289.50 436.67,293.33 432.00,295.00" fill="none" stroke="black" stroke-width="10.77" stroke-linecap="round" stroke-linejoin="round"/>
  <path d="M195.00,143.00 C195.33,144.50 193.83,144.50 197.00,152.00 C200.17,159.50 202.17,173.00 214.00,188.00 C225.83,203.00 258.00,233.33 268.00,242.00 C278.00,250.67 272.17,241.33 274.00,240.00 C275.83,238.67 276.67,235.50 279.00,234.00 C281.33,232.50 285.33,231.50 288.00,231.00 C290.67,230.50 293.33,230.50 295.00,231.00 C296.67,231.50 296.67,234.17 298.00,234.00 C299.33,233.83 298.83,230.50 303.00,230.00 C307.17,229.50 318.00,230.50 323.00,231.00 C328.00,231.50 330.50,232.00 333.00,233.00 C335.50,234.00 336.17,237.67 338.00,237.00 C339.83,236.33 343.00,230.33 344.00,229.00" fill="none" stroke="black" stroke-width="11.31" stroke-linecap="round" stroke-linejoin="round"/>
  <path d="M260.00,277.00 C251.67,280.33 223.50,292.83 210.00,297.00 C196.50,301.17 188.83,301.17 179.00,302.00 C169.17,302.83 158.67,303.33 151.00,302.00 C143.33,300.67 136.50,296.67 133.00,294.00 C129.50,291.33 134.50,291.33 130.00,286.00 C125.50,280.67 111.17,269.17 106.00,262.00 C100.83,254.83 100.83,251.50 99.00,243.00 C97.17,234.50 98.33,216.33 95.00,211.00 C91.67,205.67 83.83,210.00 79.00,211.00 C74.17,212.00 69.83,214.67 66.00,217.00 C62.17,219.33 61.67,218.17 56.00,225.00 C50.33,231.83 36.33,251.00 32.00,258.00 C27.67,265.00 30.17,261.33 30.00,267.00 C29.83,272.67 33.17,283.50 31.00,292.00 C28.83,300.50 19.67,311.67 17.00,318.00 C14.33,324.33 14.83,326.50 15.00,330.00 C15.17,333.50 16.00,335.67 18.00,339.00 C20.00,342.33 24.83,346.67 27.00,350.00 C29.17,353.33 30.00,354.67 31.00,359.00 C32.00,363.33 31.00,370.67 33.00,376.00 C35.00,381.33 36.50,384.50 43.00,391.00 C49.50,397.50 65.67,410.17 72.00,415.00 C78.33,419.83 77.17,418.67 81.00,420.00 C84.83,421.33 92.83,417.67 95.00,423.00 C97.17,428.33 93.50,444.17 94.00,452.00 C94.50,459.83 94.50,459.83 98.00,470.00 C101.50,480.17 110.33,503.83 115.00,513.00 C119.67,522.17 120.00,521.50 126.00,525.00 C132.00,528.50 140.67,529.00 151.00,534.00 C161.33,539.00 174.67,552.00 188.00,555.00 C201.33,558.00 222.33,554.00 231.00,552.00 C239.67,550.00 237.00,547.00 240.00,543.00 C243.00,539.00 246.17,531.33 249.00,528.00 C251.83,524.67 256.17,525.67 257.00,523.00 C257.83,520.33 254.33,515.83 254.00,512.00 C253.67,508.17 252.17,508.83 255.00,500.00 C257.83,491.17 268.33,465.83 271.00,459.00" fill="none" stroke="black" stroke-width="10.77" stroke-linecap="round" stroke-linejoin="round"/>
  <path d="M491.00,210.00 L493.00,221.00" fill="none" stroke="black" stroke-width="16.12" stroke-linecap="round" stroke-linejoin="round"/>
  <path d="M307.00,259.00 C305.33,259.17 299.00,261.33 297.00,260.00 C295.00,258.67 296.00,253.00 295.00,251.00 C294.00,249.00 291.33,250.00 291.00,248.00 C290.67,246.00 291.83,241.33 293.00,239.00 C294.17,236.67 295.50,233.50 298.00,234.00 C300.50,234.50 306.17,239.83 308.00,242.00 C309.83,244.17 305.17,246.33 309.00,247.00 C312.83,247.67 326.00,246.83 331.00,246.00 C336.00,245.17 337.00,240.33 339.00,242.00 C341.00,243.67 342.33,253.67 343.00,256.00" fill="none" stroke="black" stroke-width="12.81" stroke-linecap="round" stroke-linejoin="round"/>
  <path d="M338.00,237.00 C337.83,237.83 336.83,241.17 337.00,242.00 C337.17,242.83 338.67,242.00 339.00,242.00" fill="none" stroke="black" stroke-width="18.11" stroke-linecap="round" stroke-linejoin="round"/>
  <path d="M269.00,242.00 C268.67,243.33 266.33,248.33 267.00,250.00 C267.67,251.67 271.00,250.67 273.00,252.00 C275.00,253.33 277.00,258.17 279.00,258.00 C281.00,257.83 283.00,252.67 285.00,251.00 C287.00,249.33 290.00,248.50 291.00,248.00" fill="none" stroke="black" stroke-width="12.00" stroke-linecap="round" stroke-linejoin="round"/>
  <path d="M570.00,246.00 L570.00,258.00" fill="none" stroke="black" stroke-width="12.65" stroke-linecap="round" stroke-linejoin="round"/>
  <path d="M269.00,250.00 C268.33,250.17 266.50,249.83 265.00,251.00 C263.50,252.17 261.17,254.67 260.00,257.00 C258.83,259.33 258.00,261.83 258.00,265.00 C258.00,268.17 259.33,273.83 260.00,276.00 C260.67,278.17 260.00,277.67 262.00,278.00 C264.00,278.33 268.33,275.67 272.00,278.00 C275.67,280.33 280.67,289.17 284.00,292.00 C287.33,294.83 290.67,294.50 292.00,295.00" fill="none" stroke="black" stroke-width="12.17" stroke-linecap="round" stroke-linejoin="round"/>
  <path d="M349.00,288.00 C348.67,288.00 346.83,289.83 347.00,288.00 C347.17,286.17 349.67,281.33 350.00,277.00 C350.33,272.67 350.17,265.50 349.00,262.00 C347.83,258.50 345.67,254.83 343.00,256.00 C340.33,257.17 336.00,266.33 333.00,269.00 C330.00,271.67 326.83,268.67 325.00,272.00 C323.17,275.33 323.33,285.50 322.00,289.00 C320.67,292.50 318.33,291.17 317.00,293.00 C315.67,294.83 316.17,298.17 314.00,300.00 C311.83,301.83 307.17,303.83 304.00,304.00 C300.83,304.17 297.00,302.50 295.00,301.00 C293.00,299.50 291.17,297.50 292.00,295.00 C292.83,292.50 298.67,287.50 300.00,286.00" fill="none" stroke="black" stroke-width="11.31" stroke-linecap="round" stroke-linejoin="round"/>
  <path d="M280.00,257.00 L279.00,259.00" fill="none" stroke="black" stroke-width="15.62" stroke-linecap="round" stroke-linejoin="round"/>
  <path d="M271.00,278.00 C271.50,277.33 273.67,276.17 274.00,274.00 C274.33,271.83 272.33,267.50 273.00,265.00 C273.67,262.50 275.00,258.83 278.00,259.00 C281.00,259.17 287.83,265.83 291.00,266.00 C294.17,266.17 296.00,261.00 297.00,260.00" fill="none" stroke="black" stroke-width="11.66" stroke-linecap="round" stroke-linejoin="round"/>
  <path d="M292.00,265.00 C293.50,267.83 299.67,278.50 301.00,282.00 C302.33,285.50 300.00,285.67 300.00,286.00 C300.00,286.33 300.33,283.83 301.00,284.00 C301.67,284.17 301.50,286.17 304.00,287.00 C306.50,287.83 313.67,288.17 316.00,289.00 C318.33,289.83 315.17,291.33 318.00,292.00 C320.83,292.67 329.00,286.00 333.00,293.00 C337.00,300.00 339.83,317.50 342.00,334.00 C344.17,350.50 346.33,381.83 346.00,392.00 C345.67,402.17 343.17,389.33 340.00,395.00 C336.83,400.67 331.83,417.67 327.00,426.00 C322.17,434.33 317.17,440.00 311.00,445.00 C304.83,450.00 296.83,453.50 290.00,456.00 C283.17,458.50 274.17,459.83 270.00,460.00 C265.83,460.17 271.00,457.83 265.00,457.00 C259.00,456.17 241.50,457.33 234.00,455.00 C226.50,452.67 227.00,444.83 220.00,443.00 C213.00,441.17 197.50,444.17 192.00,444.00 C186.50,443.83 188.67,443.50 187.00,442.00 C185.33,440.50 182.67,437.83 182.00,435.00 C181.33,432.17 181.50,428.83 183.00,425.00 C184.50,421.17 187.00,416.83 191.00,412.00 C195.00,407.17 199.50,401.33 207.00,396.00 C214.50,390.67 230.17,384.50 236.00,380.00 C241.83,375.50 241.33,371.17 242.00,369.00 C242.67,366.83 242.17,367.50 240.00,367.00 C237.83,366.50 235.67,364.83 229.00,366.00 C222.33,367.17 211.17,373.17 200.00,374.00 C188.83,374.83 169.67,371.17 162.00,371.00 C154.33,370.83 155.67,373.50 154.00,373.00 C152.33,372.50 155.83,369.50 152.00,368.00 C148.17,366.50 138.00,367.00 131.00,364.00 C124.00,361.00 118.00,353.83 110.00,350.00 C102.00,346.17 88.50,343.50 83.00,341.00 C77.50,338.50 78.00,338.33 77.00,335.00 C76.00,331.67 74.67,326.00 77.00,321.00 C79.33,316.00 86.50,308.83 91.00,305.00 C95.50,301.17 97.33,299.50 104.00,298.00 C110.67,296.50 126.17,296.83 131.00,296.00 C135.83,295.17 132.67,293.50 133.00,293.00" fill="none" stroke="black" stroke-width="10.77" stroke-linecap="round" stroke-linejoin="round"/>
  <path d="M332.00,292.00 C332.83,291.50 334.17,289.67 337.00,289.00 C339.83,288.33 342.50,287.00 349.00,288.00 C355.50,289.00 362.00,293.83 376.00,295.00 C390.00,296.17 423.17,293.67 433.00,295.00 C442.83,296.33 431.50,298.67 435.00,303.00 C438.50,307.33 448.50,315.00 454.00,321.00 C459.50,327.00 465.33,333.00 468.00,339.00 C470.67,345.00 470.33,353.83 470.00,357.00 C469.67,360.17 469.67,355.17 466.00,358.00 C462.33,360.83 457.33,364.17 448.00,374.00 C438.67,383.83 419.00,408.67 410.00,417.00 C401.00,425.33 396.67,422.83 394.00,424.00" fill="none" stroke="black" stroke-width="10.77" stroke-linecap="round" stroke-linejoin="round"/>
  <path d="M302.00,304.00 C302.33,304.00 304.00,301.50 304.00,304.00 C304.00,306.50 304.33,312.83 302.00,319.00 C299.67,325.17 296.00,334.00 290.00,341.00 C284.00,348.00 274.00,356.33 266.00,361.00 C258.00,365.67 246.00,367.67 242.00,369.00" fill="none" stroke="black" stroke-width="10.77" stroke-linecap="round" stroke-linejoin="round"/>
  <path d="M154.00,371.00 C153.17,372.50 153.67,377.17 149.00,380.00 C144.33,382.83 132.50,383.00 126.00,388.00 C119.50,393.00 114.33,404.67 110.00,410.00 C105.67,415.33 102.67,418.00 100.00,420.00 C97.33,422.00 94.67,421.67 94.00,422.00 C93.33,422.33 95.67,422.00 96.00,422.00" fill="none" stroke="black" stroke-width="10.77" stroke-linecap="round" stroke-linejoin="round"/>
  <path d="M507.00,372.00 C507.17,373.00 507.00,376.00 508.00,378.00 C509.00,380.00 509.33,381.50 513.00,384.00 C516.67,386.50 525.83,390.17 530.00,393.00 C534.17,395.83 535.17,396.17 538.00,401.00 C540.83,405.83 545.50,418.50 547.00,422.00" fill="none" stroke="black" stroke-width="10.77" stroke-linecap="round" stroke-linejoin="round"/>
  <path d="M346.00,392.00 C350.17,396.33 364.83,412.83 371.00,418.00 C377.17,423.17 379.00,422.00 383.00,423.00 C387.00,424.00 391.83,419.67 395.00,424.00 C398.17,428.33 400.83,440.67 402.00,449.00 C403.17,457.33 402.50,468.83 402.00,474.00 C401.50,479.17 401.33,477.83 399.00,480.00 C396.67,482.17 390.33,485.00 388.00,487.00 C385.67,489.00 385.00,488.83 385.00,492.00 C385.00,495.17 386.50,501.83 388.00,506.00 C389.50,510.17 391.67,514.00 394.00,517.00 C396.33,520.00 398.00,522.67 402.00,524.00 C406.00,525.33 413.17,525.50 418.00,525.00 C422.83,524.50 427.33,522.83 431.00,521.00 C434.67,519.17 435.67,515.33 440.00,514.00 C444.33,512.67 454.17,513.17 457.00,513.00" fill="none" stroke="black" stroke-width="10.77" stroke-linecap="round" stroke-linejoin="round"/>
  <path d="M384.00,494.00 C382.50,494.33 378.83,493.50 375.00,496.00 C371.17,498.50 364.83,506.17 361.00,509.00 C357.17,511.83 359.00,512.67 352.00,513.00 C345.00,513.33 330.67,509.00 319.00,511.00 C307.33,513.00 292.67,523.00 282.00,525.00 C271.33,527.00 259.50,523.33 255.00,523.00" fill="none" stroke="black" stroke-width="10.20" stroke-linecap="round" stroke-linejoin="round"/>
  <path d="M432.00,520.00 C432.67,522.67 435.67,530.33 436.00,536.00 C436.33,541.67 438.17,547.33 434.00,554.00 C429.83,560.67 417.00,571.17 411.00,576.00 C405.00,580.83 404.33,581.67 398.00,583.00 C391.67,584.33 380.17,583.00 373.00,584.00 C365.83,585.00 362.17,588.33 355.00,589.00 C347.83,589.67 337.33,587.17 330.00,588.00 C322.67,588.83 316.50,593.00 311.00,594.00 C305.50,595.00 302.83,595.33 297.00,594.00 C291.17,592.67 283.83,588.17 276.00,586.00 C268.17,583.83 257.17,585.50 250.00,581.00 C242.83,576.50 236.00,564.00 233.00,559.00 C230.00,554.00 232.17,552.00 232.00,551.00 C231.83,550.00 232.00,552.67 232.00,553.00" fill="none" stroke="black" stroke-width="10.77" stroke-linecap="round" stroke-linejoin="round"/>
  <path d="M249.00,717.00 C248.67,715.83 248.17,711.83 247.00,710.00 C245.83,708.17 247.50,707.17 242.00,706.00 C236.50,704.83 220.50,703.00 214.00,703.00 C207.50,703.00 205.00,703.00 203.00,706.00 C201.00,709.00 204.50,718.67 202.00,721.00 C199.50,723.33 190.33,720.17 188.00,720.00" fill="none" stroke="black" stroke-width="10.00" stroke-linecap="round" stroke-linejoin="round"/>
  <path d="M210.00,734.00 L225.00,731.00" fill="none" stroke="black" stroke-width="10.00" stroke-linecap="round" stroke-linejoin="round"/>
  <path d="M281.00,853.00 C280.67,853.00 278.17,849.33 279.00,853.00 C279.83,856.67 282.17,865.83 286.00,875.00 C289.83,884.17 293.00,893.50 302.00,908.00 C311.00,922.50 323.17,942.33 340.00,962.00 C356.83,981.67 385.67,1009.33 403.00,1026.00 C420.33,1042.67 436.00,1055.67 444.00,1062.00 C452.00,1068.33 449.83,1063.67 451.00,1064.00" fill="none" stroke="black" stroke-width="10.00" stroke-linecap="round" stroke-linejoin="round"/>
</svg>
