<?xml version="1.0" encoding="UTF-8"?>
<svg xmlns="http://www.w3.org/2000/svg" viewBox="0 0 204 659" width="204" height="659">
  <path d="M88.00,6.00 C91.83,6.17 104.33,5.83 111.00,7.00 C117.67,8.17 126.83,8.50 128.00,13.00 C129.17,17.50 119.67,30.50 118.00,34.00" fill="none" stroke="black" stroke-width="6.00" stroke-linecap="round" stroke-linejoin="round"/>
  <path d="M83.00,7.00 C81.17,7.83 76.17,11.83 72.00,12.00 C67.83,12.17 62.00,8.50 58.00,8.00 C54.00,7.50 54.17,5.17 48.00,9.00 C41.83,12.83 25.50,27.33 21.00,31.00" fill="none" stroke="black" stroke-width="6.00" stroke-linecap="round" stroke-linejoin="round"/>
  <path d="M105.00,18.00 L108.00,31.00" fill="none" stroke="black" stroke-width="3.41" stroke-linecap="round" stroke-linejoin="round"/>
  <path d="M48.00,19.00 C49.00,19.50 51.83,20.00 54.00,22.00 C56.17,24.00 59.83,29.50 61.00,31.00" fill="none" stroke="black" stroke-width="2.83" stroke-linecap="round" stroke-linejoin="round"/>
  <path d="M73.00,23.00 L82.00,34.00" fill="none" stroke="black" stroke-width="2.83" stroke-linecap="round" stroke-linejoin="round"/>
  <path d="M90.00,25.00 L96.00,34.00" fill="none" stroke="black" stroke-width="2.83" stroke-linecap="round" stroke-linejoin="round"/>
  <path d="M32.00,31.00 L51.00,43.00" fill="none" stroke="black" stroke-width="2.83" stroke-linecap="round" stroke-linejoin="round"/>
  <path d="M139.00,31.00 L128.00,46.00" fill="none" stroke="black" stroke-width="2.83" stroke-linecap="round" stroke-linejoin="round"/>
  <path d="M17.00,38.00 C15.83,40.33 10.50,47.17 10.00,52.00 C9.50,56.83 10.00,61.17 14.00,67.00 C18.00,72.83 29.00,83.00 34.00,87.00 C39.00,91.00 39.17,89.83 44.00,91.00 C48.83,92.17 59.83,93.50 63.00,94.00" fill="none" stroke="black" stroke-width="5.66" stroke-linecap="round" stroke-linejoin="round"/>
  <path d="M22.00,53.00 L40.00,54.00" fill="none" stroke="black" stroke-width="2.00" stroke-linecap="round" stroke-linejoin="round"/>
  <path d="M143.00,55.00 C144.00,54.17 146.33,51.33 149.00,50.00 C151.67,48.67 156.50,48.33 159.00,47.00 C161.50,45.67 166.67,46.83 164.00,42.00 C161.33,37.17 147.67,22.67 143.00,18.00 C138.33,13.33 138.67,14.67 136.00,14.00 C133.33,13.33 128.50,14.00 127.00,14.00" fill="none" stroke="black" stroke-width="6.16" stroke-linecap="round" stroke-linejoin="round"/>
  <path d="M84.00,57.00 L84.00,70.00" fill="none" stroke="black" stroke-width="2.00" stroke-linecap="round" stroke-linejoin="round"/>
  <path d="M101.00,58.00 L104.00,70.00" fill="none" stroke="black" stroke-width="2.83" stroke-linecap="round" stroke-linejoin="round"/>
  <path d="M168.00,58.00 C167.17,58.00 165.50,56.83 163.00,58.00 C160.50,59.17 154.67,63.83 153.00,65.00" fill="none" stroke="black" stroke-width="2.83" stroke-linecap="round" stroke-linejoin="round"/>
  <path d="M68.00,64.00 C69.00,65.33 72.83,69.33 74.00,72.00 C75.17,74.67 74.83,78.67 75.00,80.00" fill="none" stroke="black" stroke-width="2.83" stroke-linecap="round" stroke-linejoin="round"/>
  <path d="M48.00,65.00 L35.00,69.00" fill="none" stroke="black" stroke-width="2.83" stroke-linecap="round" stroke-linejoin="round"/>
  <path d="M121.00,66.00 C120.50,68.00 119.00,75.67 118.00,78.00 C117.00,80.33 115.50,79.67 115.00,80.00" fill="none" stroke="black" stroke-width="2.41" stroke-linecap="round" stroke-linejoin="round"/>
  <path d="M60.00,69.00 L51.00,79.00" fill="none" stroke="black" stroke-width="2.83" stroke-linecap="round" stroke-linejoin="round"/>
  <path d="M157.00,74.00 C158.50,72.83 161.83,69.00 166.00,67.00 C170.17,65.00 181.17,65.00 182.00,62.00 C182.83,59.00 174.17,52.00 171.00,49.00 C167.83,46.00 164.33,44.83 163.00,44.00" fill="none" stroke="black" stroke-width="7.21" stroke-linecap="round" stroke-linejoin="round"/>
  <path d="M141.00,83.00 L123.00,88.00" fill="none" stroke="black" stroke-width="2.83" stroke-linecap="round" stroke-linejoin="round"/>
  <path d="M165.00,84.00 C166.33,84.00 168.83,83.17 173.00,84.00 C177.17,84.83 186.50,88.33 190.00,89.00 C193.50,89.67 194.00,91.33 194.00,88.00 C194.00,84.67 192.33,73.33 190.00,69.00 C187.67,64.67 181.67,63.17 180.00,62.00" fill="none" stroke="black" stroke-width="5.66" stroke-linecap="round" stroke-linejoin="round"/>
  <path d="M71.00,98.00 C72.33,99.83 76.33,107.00 79.00,109.00 C81.67,111.00 82.83,107.67 87.00,110.00 C91.17,112.33 100.33,119.67 104.00,123.00 C107.67,126.33 105.33,128.17 109.00,130.00 C112.67,131.83 115.67,132.83 126.00,134.00 C136.33,135.17 161.00,137.83 171.00,137.00 C181.00,136.17 182.67,131.83 186.00,129.00 C189.33,126.17 190.17,121.50 191.00,120.00" fill="none" stroke="black" stroke-width="6.32" stroke-linecap="round" stroke-linejoin="round"/>
  <path d="M156.00,100.00 L174.00,107.00" fill="none" stroke="black" stroke-width="2.83" stroke-linecap="round" stroke-linejoin="round"/>
  <path d="M178.00,111.00 C180.17,112.50 187.33,119.67 191.00,120.00 C194.67,120.33 198.50,116.17 200.00,113.00 C201.50,109.83 201.33,105.00 200.00,101.00 C198.67,97.00 193.33,91.00 192.00,89.00" fill="none" stroke="black" stroke-width="6.77" stroke-linecap="round" stroke-linejoin="round"/>
  <path d="M133.00,117.00 C130.17,115.83 120.50,112.83 116.00,110.00 C111.50,107.17 108.67,101.50 106.00,100.00 C103.33,98.50 102.67,101.50 100.00,101.00 C97.33,100.50 92.50,98.50 90.00,97.00 C87.50,95.50 84.83,94.83 85.00,92.00 C85.17,89.17 88.50,81.67 91.00,80.00 C93.50,78.33 97.50,80.83 100.00,82.00 C102.50,83.17 104.83,84.33 106.00,87.00 C107.17,89.67 107.17,95.67 107.00,98.00 C106.83,100.33 105.33,100.50 105.00,101.00" fill="none" stroke="black" stroke-width="6.00" stroke-linecap="round" stroke-linejoin="round"/>
  <path d="M146.00,646.00 C142.67,637.67 133.50,617.17 126.00,596.00 C118.50,574.83 110.67,555.33 101.00,519.00 C91.33,482.67 73.83,416.83 68.00,378.00 C62.17,339.17 67.00,306.17 66.00,286.00 C65.00,265.83 61.83,265.67 62.00,257.00 C62.17,248.33 66.17,237.83 67.00,234.00" fill="none" stroke="black" stroke-width="6.00" stroke-linecap="round" stroke-linejoin="round"/>
  <path d="M79.00,109.00 C78.17,112.67 74.83,125.00 74.00,131.00 C73.17,137.00 73.50,140.50 74.00,145.00 C74.50,149.50 75.17,155.83 77.00,158.00 C78.83,160.17 81.00,160.67 85.00,158.00 C89.00,155.33 97.17,146.83 101.00,142.00 C104.83,137.17 106.83,131.17 108.00,129.00" fill="none" stroke="black" stroke-width="4.47" stroke-linecap="round" stroke-linejoin="round"/>
  <path d="M77.00,158.00 C75.50,166.83 69.67,198.50 68.00,211.00 C66.33,223.50 64.83,229.33 67.00,233.00 C69.17,236.67 77.17,233.83 81.00,233.00 C84.83,232.17 85.83,228.50 90.00,228.00 C94.17,227.50 102.17,230.00 106.00,230.00 C109.83,230.00 111.50,228.83 113.00,228.00 C114.50,227.17 115.00,226.67 115.00,225.00 C115.00,223.33 114.00,219.83 113.00,218.00 C112.00,216.17 110.50,214.83 109.00,214.00 C107.50,213.17 105.83,212.83 104.00,213.00 C102.17,213.17 99.83,213.83 98.00,215.00 C96.17,216.17 94.33,217.83 93.00,220.00 C91.67,222.17 90.50,226.67 90.00,228.00" fill="none" stroke="black" stroke-width="6.00" stroke-linecap="round" stroke-linejoin="round"/>
  <path d="M84.00,233.00 C86.33,235.33 95.83,243.17 98.00,247.00 C100.17,250.83 97.67,253.67 97.00,256.00 C96.33,258.33 95.17,259.50 94.00,261.00 C92.83,262.50 95.00,266.50 90.00,265.00 C85.00,263.50 68.50,253.83 64.00,252.00 C59.50,250.17 63.17,253.67 63.00,254.00" fill="none" stroke="black" stroke-width="6.77" stroke-linecap="round" stroke-linejoin="round"/>
</svg>
