<?xml version="1.0" encoding="UTF-8" standalone="no"?>
<svg
   viewBox="0 0 227 656"
   width="227"
   height="656"
   version="1.1"
   id="svg33"
   sodipodi:docname="september_left.svg"
   inkscape:version="1.4.3 (0d15f75, 2025-12-25)"
   xmlns:inkscape="http://www.inkscape.org/namespaces/inkscape"
   xmlns:sodipodi="http://sodipodi.sourceforge.net/DTD/sodipodi-0.dtd"
   xmlns="http://www.w3.org/2000/svg"
   xmlns:svg="http://www.w3.org/2000/svg">
  <defs
     id="defs33" />
  <sodipodi:namedview
     id="namedview33"
     pagecolor="#ffffff"
     bordercolor="#000000"
     borderopacity="0.25"
     inkscape:showpageshadow="2"
     inkscape:pageopacity="0.0"
     inkscape:pagecheckerboard="0"
     inkscape:deskcolor="#d1d1d1"
     inkscape:zoom="1.2507071"
     inkscape:cx="260.25278"
     inkscape:cy="137.92198"
     inkscape:window-width="1920"
     inkscape:window-height="1009"
     inkscape:window-x="1912"
     inkscape:window-y="-8"
     inkscape:window-maximized="1"
     inkscape:current-layer="svg33" />
  <path
     d="M 142.80561,10.130731 C 138.97561,10.300731 121.67,8.83 115,10 c -6.67,1.17 -15.83,1.33 -17,6 -1.17,4.67 8.33,18.33 10,22"
     fill="none"
     stroke="#000000"
     stroke-width="6.00"
     stroke-linecap="round"
     stroke-linejoin="round"
     id="path1"
     style="stroke-width:4;stroke-dasharray:none"
     sodipodi:nodetypes="cssc" />
  <path
     d="m 142.71732,10 c 7.35267,-1.0994058 14.00035,0.481586 22.17317,-0.413414 C 168.89049,9.086586 173.5,9.83 178,12 c 4.5,2.17 12.5,8.17 17,12 4.5,3.83 8.33,9.17 10,11"
     fill="none"
     stroke="#000000"
     stroke-width="6.00"
     stroke-linecap="round"
     stroke-linejoin="round"
     id="path2"
     style="stroke-width:4;stroke-dasharray:none"
     sodipodi:nodetypes="csssc" />
  <path
     d="M121.00,21.00 C120.50,21.83 118.50,23.83 118.00,26.00 C117.50,28.17 118.00,32.67 118.00,34.00"
     fill="none"
     stroke="black"
     stroke-width="3.41"
     stroke-linecap="round"
     stroke-linejoin="round"
     id="path3"
     style="stroke-width:4;stroke-dasharray:none" />
  <path
     d="M178.00,22.00 C176.83,22.67 173.33,24.00 171.00,26.00 C168.67,28.00 165.17,32.67 164.00,34.00"
     fill="none"
     stroke="black"
     stroke-width="2.83"
     stroke-linecap="round"
     stroke-linejoin="round"
     id="path4"
     style="stroke-width:4;stroke-dasharray:none" />
  <path
     d="M153.00,26.00 C152.67,26.83 152.50,29.17 151.00,31.00 C149.50,32.83 145.17,36.00 144.00,37.00"
     fill="none"
     stroke="black"
     stroke-width="2.83"
     stroke-linecap="round"
     stroke-linejoin="round"
     id="path5"
     style="stroke-width:4;stroke-dasharray:none" />
  <path
     d="M137.00,27.00 L130.00,36.00"
     fill="none"
     stroke="black"
     stroke-width="2.83"
     stroke-linecap="round"
     stroke-linejoin="round"
     id="path6"
     style="stroke-width:4;stroke-dasharray:none" />
  <path
     d="M87.00,34.00 L99.00,50.00"
     fill="none"
     stroke="black"
     stroke-width="2.83"
     stroke-linecap="round"
     stroke-linejoin="round"
     id="path7"
     style="stroke-width:4;stroke-dasharray:none" />
  <path
     d="M194.00,34.00 L175.00,46.00"
     fill="none"
     stroke="black"
     stroke-width="2.83"
     stroke-linecap="round"
     stroke-linejoin="round"
     id="path8"
     style="stroke-width:4;stroke-dasharray:none" />
  <path
     d="M 206.17317,36.477075 C 207.34317,38.977075 215.67,51 216,56 c 0.33,5 -1,9.33 -5,15 -4,5.67 -14.17,15.17 -19,19 -4.83,3.83 -7.43146,3.678048 -12.26146,4.848048 -4.83,1.17 -17.5261,3.630731 -24.08829,5.261462"
     fill="none"
     stroke="#000000"
     stroke-width="5.66"
     stroke-linecap="round"
     stroke-linejoin="round"
     id="path9"
     style="stroke-width:4;stroke-dasharray:none"
     sodipodi:nodetypes="cssssc" />
  <path
     d="M204.00,56.00 C202.67,55.83 199.17,54.67 196.00,55.00 C192.83,55.33 186.83,57.50 185.00,58.00"
     fill="none"
     stroke="black"
     stroke-width="2.00"
     stroke-linecap="round"
     stroke-linejoin="round"
     id="path10"
     style="stroke-width:4;stroke-dasharray:none" />
  <path
     d="M83.00,59.00 C82.33,58.17 82.67,56.00 79.00,54.00 C75.33,52.00 63.67,48.17 61.00,47.00 C58.33,45.83 62.67,47.00 63.00,47.00"
     fill="none"
     stroke="black"
     stroke-width="2.83"
     stroke-linecap="round"
     stroke-linejoin="round"
     id="path11"
     style="stroke-width:4;stroke-dasharray:none" />
  <path
     d="M142.00,60.00 L141.00,73.00"
     fill="none"
     stroke="black"
     stroke-width="2.41"
     stroke-linecap="round"
     stroke-linejoin="round"
     id="path12"
     style="stroke-width:4;stroke-dasharray:none" />
  <path
     d="M58.00,61.00 C58.83,61.00 61.00,60.17 63.00,61.00 C65.00,61.83 68.83,65.17 70.00,66.00"
     fill="none"
     stroke="black"
     stroke-width="2.83"
     stroke-linecap="round"
     stroke-linejoin="round"
     id="path13"
     style="stroke-width:4;stroke-dasharray:none" />
  <path
     d="M125.00,61.00 C124.50,61.67 122.50,62.83 122.00,65.00 C121.50,67.17 122.00,72.50 122.00,74.00"
     fill="none"
     stroke="black"
     stroke-width="2.83"
     stroke-linecap="round"
     stroke-linejoin="round"
     id="path14"
     style="stroke-width:4;stroke-dasharray:none" />
  <path
     d="M158.00,67.00 C156.83,68.50 152.17,73.33 151.00,76.00 C149.83,78.67 151.00,81.83 151.00,83.00"
     fill="none"
     stroke="black"
     stroke-width="2.83"
     stroke-linecap="round"
     stroke-linejoin="round"
     id="path15"
     style="stroke-width:4;stroke-dasharray:none" />
  <path
     d="M178.00,68.00 L189.00,71.00"
     fill="none"
     stroke="black"
     stroke-width="2.83"
     stroke-linecap="round"
     stroke-linejoin="round"
     id="path16"
     style="stroke-width:4;stroke-dasharray:none" />
  <path
     d="M104.00,69.00 L109.00,82.00"
     fill="none"
     stroke="black"
     stroke-width="2.83"
     stroke-linecap="round"
     stroke-linejoin="round"
     id="path17"
     style="stroke-width:4;stroke-dasharray:none" />
  <path
     d="m 65,74 c -0.83,-0.67 -2.17,-2.83 -5,-4 -5.328918,-1.82162 -8.176859,-4.481326 -14,-6 -0.981516,-0.255979 -2,0 -4,2 -2,2 -6.33,5.67 -8,10 -1.67,4.33 -6.17,14.33 -2,16 4.17,1.67 21.83,-5.17 27,-6 5.17,-0.83 3.33,0.83 4,1"
     fill="none"
     stroke="#000000"
     stroke-width="5.66"
     stroke-linecap="round"
     stroke-linejoin="round"
     id="path18"
     style="stroke-width:4;stroke-dasharray:none"
     sodipodi:nodetypes="cssssssc" />
  <path
     d="M85.00,86.00 L103.00,91.00"
     fill="none"
     stroke="black"
     stroke-width="2.83"
     stroke-linecap="round"
     stroke-linejoin="round"
     id="path19"
     style="stroke-width:4;stroke-dasharray:none" />
  <path
     d="m 158.3922,99.586582 c -5.74025,0.981958 -3.95589,7.673368 -4.1944,12.978788 -0.22686,5.04633 1.22997,9.43168 1.32513,19 0.1,10.05514 -5.72805,16.46763 -6.52293,31.43463 -0.44999,8.47303 7,40.5 9,56 2,15.5 2.5,30.83 3,37"
     fill="none"
     stroke="#000000"
     stroke-width="6.00"
     stroke-linecap="round"
     stroke-linejoin="round"
     id="path20"
     style="stroke-width:4;stroke-dasharray:none"
     sodipodi:nodetypes="cssssc" />
  <path
     d="M70.00,103.00 L53.00,110.00"
     fill="none"
     stroke="black"
     stroke-width="2.83"
     stroke-linecap="round"
     stroke-linejoin="round"
     id="path21"
     style="stroke-width:4;stroke-dasharray:none" />
  <path
     d="M 44.325124,115.41341 C 41.995124,116.91341 36,120.67 34,123 c -2,2.33 1.261462,2.33 4.261462,5 3,2.67 8.568538,7.3039 13.738538,9.3039 5.17,2 12,2.8661 15,2.6961 3,-0.17 8.111215,-0.82195 12.611215,-1.15193 C 84.111215,138.51805 86,138.83 94,138 c 11.27609,-0.082 20.91654,-3.85968 25,-9 2.83,-2.83 10.58659,-12.14878 14.58659,-14.97878 4,-2.83 15.32853,-11.41512 21.0034,-13.61122"
     fill="none"
     stroke="#000000"
     stroke-width="6.32"
     stroke-linecap="round"
     stroke-linejoin="round"
     id="path22"
     style="stroke-width:4;stroke-dasharray:none"
     sodipodi:nodetypes="cssssssssc" />
  <path
     d="M92.00,121.00 C95.50,119.33 108.33,113.83 113.00,111.00 C117.67,108.17 119.17,106.33 120.00,104.00 C120.83,101.67 118.00,99.50 118.00,97.00 C118.00,94.50 118.67,91.00 120.00,89.00 C121.33,87.00 123.67,85.83 126.00,85.00 C128.33,84.17 131.50,82.33 134.00,84.00 C136.50,85.67 141.17,92.00 141.00,95.00 C140.83,98.00 136.50,100.67 133.00,102.00 C129.50,103.33 122.17,102.83 120.00,103.00"
     fill="none"
     stroke="black"
     stroke-width="4.47"
     stroke-linecap="round"
     stroke-linejoin="round"
     id="path23"
     style="stroke-width:4;stroke-dasharray:none" />
  <path
     d="m 30.561957,216.3956 c 0,0 4.616949,-2.0017 6.773777,-2.48048 m -2.968169,-4.71732 c 0,0 4.616949,-2.0017 6.773777,-2.48048 m -0.869269,-4.98939 c 0,0 4.616949,-2.0017 6.773777,-2.48048 m -0.378526,-6.71432 c 0,0 4.616949,-2.0017 6.773777,-2.48048"
     fill="none"
     stroke="#000000"
     stroke-width="4.00"
     stroke-linecap="round"
     stroke-linejoin="round"
     id="path24"
     style="stroke-width:4;stroke-dasharray:none"
     sodipodi:nodetypes="cccccccc" />
  <path
     d="m 144,603 c 2.33,-9.33 10.17,-34.5 14,-56 3.83,-21.5 7.5,-53.67 9,-73 1.5,-19.33 0.83,-31.5 0,-43 -0.83,-11.5 -2.33125,-20.03828 -4.08336,-28.87117 -2.94942,-14.86885 -7.44095,-24.36535 -7.57485,-27.75754 -0.0722,-1.82858 -2.6417,19.7619 -4.34179,30.62871 -2.67,17.06638 -4.67,32.17 -11,58 -6.33,25.83 -17,66 -27,97 -10,31 -27.5,74.17 -33,89"
     fill="none"
     stroke="#000000"
     stroke-width="4.47"
     stroke-linecap="round"
     stroke-linejoin="round"
     id="path25"
     style="stroke-width:4;stroke-dasharray:none"
     sodipodi:nodetypes="cssssssssc" />
  <path
     d="m 42.759758,64.522925 c 2.83,-3.17 11.931462,-13.370973 17.261462,-19.370973 C 65.35122,39.151952 74.67,28.67 79,24 c 4.33,-4.67 5.67,-4.83 9,-6 3.33,-1.17 10.866097,-4.504876 12.6961,-4.674876"
     fill="none"
     stroke="#000000"
     stroke-width="7.21"
     stroke-linecap="round"
     stroke-linejoin="round"
     id="path26"
     style="stroke-width:4;stroke-dasharray:none"
     sodipodi:nodetypes="csssc" />
  <path
     d="M 29.890489,90.303903 C 28.720489,92.303903 27.17,100 26,104 c -1.17,4 -1.5,8.67 0,12 1.5,3.33 7.5,6.67 9,8"
     fill="none"
     stroke="#000000"
     stroke-width="6.32"
     stroke-linecap="round"
     stroke-linejoin="round"
     id="path27"
     style="stroke-width:4;stroke-dasharray:none"
     sodipodi:nodetypes="cssc" />
  <path
     d="m 118,134 c 1,1.67 2.17,5.5 6,10 3.83,4.5 11.41659,12.06854 15.58659,14.73854 4.17,2.67 7.23536,1.51548 8.56536,1.68548"
     fill="none"
     stroke="#000000"
     stroke-width="7.21"
     stroke-linecap="round"
     stroke-linejoin="round"
     id="path28"
     style="stroke-width:4;stroke-dasharray:none"
     sodipodi:nodetypes="cssc" />
  <path
     d="m 30,204 c 1.33,-1.83 4,-6.67 8,-11 4,-4.33 11.33,-11.17 16,-15 4.67,-3.83 8.83,-6.83 12,-8 3.17,-1.17 5.83,-0.33 7,1 1.17,1.33 1.5,2 0,7 -1.5,5 -7.5,17.5 -9,23 -1.5,5.5 -1.83,6.67 0,10 6.752169,12.28673 3.202367,12.70941 6.487685,17.9011 5.17,8.17 22.369269,28.03671 28.869269,37.70671 6.499996,9.67 12.685176,18.3185 15.293246,22.74312 C 116.81454,293.02277 111.33,291.83 108,291 104.67,290.17 96.220537,287.96813 94.050537,287.14935 91.669258,286.25085 96.33,295.17 95,299 c -1.33,3.83 -5.33,7.83 -8,10 -2.67,2.17 -5.17,3.67 -8,3 -2.83,-0.67 -7,-4.83 -9,-7 -2,-2.17 -2.83,-3.83 -3,-6 -0.17,-2.17 1,-5.17 2,-7 1,-1.83 2.17,-3 4,-4 1.83,-1 3.67,-1.83 7,-2 3.33,-0.17 10.83,0.83 13,1"
     fill="none"
     stroke="#000000"
     stroke-width="6.00"
     stroke-linecap="round"
     stroke-linejoin="round"
     id="path29"
     style="stroke-width:4;stroke-dasharray:none"
     sodipodi:nodetypes="cssssssssssssssssssssc" />
  <path
     d="M 30.229632,203.55135 C 26.545989,209.53836 25.09387,215.15559 24,217 c -1.17,2.33 -4.33,9.83 -4,12 0.33,2.17 2,1.67 6,1 4,-0.67 11.5,-5.33 18,-5 6.5,0.33 13.568538,2.70183 18.738538,4.03183 5.17,1.33 4.977481,-2.38117 6.647481,-2.21117"
     fill="none"
     stroke="#000000"
     stroke-width="8.00"
     stroke-linecap="round"
     stroke-linejoin="round"
     id="path30"
     style="stroke-width:4;stroke-dasharray:none"
     sodipodi:nodetypes="csssssc" />
  <path
     d="m 135,230 c -0.33,-1.17 -0.83,-5 -2,-7 -1.17,-2 -3.17,-3.83 -5,-5 -1.83,-1.17 -4,-1.83 -6,-2 -2,-0.17 -4.17,-0.83 -6,1 -0.75794,0.75794 -9.68711,9.91944 -1,12.40147 3.5,1 9.0726,0.73034 12.4026,0.40034 3.33,-0.33 5.4274,-0.30181 7.5974,0.19819 2.17,0.5 4.80068,3.03102 8.80068,4.20102 4,1.17 12.46955,2.82887 14.79955,2.99887"
     fill="none"
     stroke="#000000"
     stroke-width="6.00"
     stroke-linecap="round"
     stroke-linejoin="round"
     id="path31"
     style="stroke-width:4;stroke-dasharray:none"
     sodipodi:nodetypes="cssssssssc" />
  <path
     d="m 143,235 c -2.5,2.67 -13,11.33 -15,16 -2,4.67 1.67,9.17 3,12 1.33,2.83 1.83,5.5 5,5 3.17,-0.5 10,-6 14,-8 4,-2 10.04063,-8.03105 10.42402,-5.83744 0.33256,1.9028 0.78586,-6.98025 0.45586,8.34975 -0.33,15.33 -0.96601,69.36144 -2.87988,85.48769 -2.48939,20.97561 -2.59257,29.82324 -2.66644,28.15487 C 155.07697,370.35988 150.26354,353.28065 148,348 144.46329,339.74915 141.93023,333.1668 136.29329,323.57598 129.94524,312.77524 118.67,295.67 115,290"
     fill="none"
     stroke="#000000"
     stroke-width="7.21"
     stroke-linecap="round"
     stroke-linejoin="round"
     id="path32"
     style="stroke-width:4;stroke-dasharray:none"
     sodipodi:nodetypes="cssssssssssc" />
</svg>
